%TF.GenerationSoftware,KiCad,Pcbnew,(2018-01-21 revision 6b9866de8)-makepkg*%
%TF.CreationDate,2018-04-10T13:45:23+02:00*%
%TF.ProjectId,Arm_interface_board_mirrored,41726D5F696E746572666163655F626F,rev?*%
%TF.SameCoordinates,Original*%
%TF.FileFunction,Legend,Top*%
%TF.FilePolarity,Positive*%
%FSLAX46Y46*%
G04 Gerber Fmt 4.6, Leading zero omitted, Abs format (unit mm)*
G04 Created by KiCad (PCBNEW (2018-01-21 revision 6b9866de8)-makepkg) date 04/10/18 13:45:23*
%MOMM*%
%LPD*%
G01*
G04 APERTURE LIST*
%ADD10C,0.150000*%
%ADD11C,0.200000*%
%ADD12C,0.120000*%
%ADD13C,0.100000*%
%ADD14C,0.010000*%
%ADD15C,0.127000*%
G04 APERTURE END LIST*
D10*
X132375000Y-92475000D02*
X129500000Y-92475000D01*
X132375000Y-80900000D02*
X122650000Y-80900000D01*
X132375000Y-92475000D02*
X132375000Y-80900000D01*
X108700000Y-81850000D02*
X108700000Y-82175000D01*
X110400000Y-81850000D02*
X108700000Y-81850000D01*
X106925000Y-81700000D02*
X106925000Y-82100000D01*
X104850000Y-81675000D02*
X106925000Y-81700000D01*
X103400000Y-84625000D02*
X104450000Y-84625000D01*
X103400000Y-91150000D02*
X103400000Y-84625000D01*
D11*
X166367857Y-92875000D02*
X165167857Y-92875000D01*
X165167857Y-92417857D01*
X165225000Y-92303571D01*
X165282142Y-92246428D01*
X165396428Y-92189285D01*
X165567857Y-92189285D01*
X165682142Y-92246428D01*
X165739285Y-92303571D01*
X165796428Y-92417857D01*
X165796428Y-92875000D01*
X165167857Y-91789285D02*
X166367857Y-91503571D01*
X165510714Y-91275000D01*
X166367857Y-91046428D01*
X165167857Y-90760714D01*
X166367857Y-89617857D02*
X165796428Y-90017857D01*
X166367857Y-90303571D02*
X165167857Y-90303571D01*
X165167857Y-89846428D01*
X165225000Y-89732142D01*
X165282142Y-89675000D01*
X165396428Y-89617857D01*
X165567857Y-89617857D01*
X165682142Y-89675000D01*
X165739285Y-89732142D01*
X165796428Y-89846428D01*
X165796428Y-90303571D01*
D10*
X107738095Y-81341666D02*
X108214285Y-81341666D01*
X107642857Y-81627380D02*
X107976190Y-80627380D01*
X108309523Y-81627380D01*
X108642857Y-81627380D02*
X108642857Y-80960714D01*
X108642857Y-81151190D02*
X108690476Y-81055952D01*
X108738095Y-81008333D01*
X108833333Y-80960714D01*
X108928571Y-80960714D01*
X109642857Y-81579761D02*
X109547619Y-81627380D01*
X109357142Y-81627380D01*
X109261904Y-81579761D01*
X109214285Y-81484523D01*
X109214285Y-81103571D01*
X109261904Y-81008333D01*
X109357142Y-80960714D01*
X109547619Y-80960714D01*
X109642857Y-81008333D01*
X109690476Y-81103571D01*
X109690476Y-81198809D01*
X109214285Y-81294047D01*
X109976190Y-80960714D02*
X110357142Y-80960714D01*
X110119047Y-81627380D02*
X110119047Y-80770238D01*
X110166666Y-80675000D01*
X110261904Y-80627380D01*
X110357142Y-80627380D01*
X77579761Y-88091666D02*
X77627380Y-87948809D01*
X77627380Y-87710714D01*
X77579761Y-87615476D01*
X77532142Y-87567857D01*
X77436904Y-87520238D01*
X77341666Y-87520238D01*
X77246428Y-87567857D01*
X77198809Y-87615476D01*
X77151190Y-87710714D01*
X77103571Y-87901190D01*
X77055952Y-87996428D01*
X77008333Y-88044047D01*
X76913095Y-88091666D01*
X76817857Y-88091666D01*
X76722619Y-88044047D01*
X76675000Y-87996428D01*
X76627380Y-87901190D01*
X76627380Y-87663095D01*
X76675000Y-87520238D01*
X77246428Y-87091666D02*
X77246428Y-86329761D01*
X77627380Y-85853571D02*
X76627380Y-85853571D01*
X77627380Y-85377380D02*
X76627380Y-85377380D01*
X77627380Y-84805952D01*
X76627380Y-84805952D01*
X78000000Y-88250000D02*
X78000000Y-82500000D01*
D12*
X240270000Y-92440000D02*
X241092470Y-92440000D01*
X242977530Y-92440000D02*
X243800000Y-92440000D01*
X241707530Y-92440000D02*
X242362470Y-92440000D01*
X240270000Y-83615000D02*
X240270000Y-92440000D01*
X243800000Y-82160000D02*
X243800000Y-92440000D01*
X240270000Y-83615000D02*
X240836529Y-83615000D01*
X241963471Y-83615000D02*
X242106529Y-83615000D01*
X242160000Y-83561529D02*
X242160000Y-83418471D01*
X242160000Y-82291529D02*
X242160000Y-82160000D01*
X242160000Y-82160000D02*
X242362470Y-82160000D01*
X242977530Y-82160000D02*
X243800000Y-82160000D01*
X240270000Y-82855000D02*
X240270000Y-82095000D01*
X240270000Y-82095000D02*
X241400000Y-82095000D01*
X223145000Y-81030000D02*
X223145000Y-82560000D01*
X221300000Y-81030000D02*
X223145000Y-81030000D01*
X220030000Y-83830000D02*
X220030000Y-81960000D01*
X221900000Y-83830000D02*
X220030000Y-83830000D01*
X223145000Y-85100000D02*
X223145000Y-86630000D01*
X223145000Y-86630000D02*
X215645000Y-86630000D01*
X215645000Y-81030000D02*
X215645000Y-86630000D01*
X218760000Y-81030000D02*
X215645000Y-81030000D01*
X127000000Y-81450000D02*
X127000000Y-84750000D01*
X127000000Y-84750000D02*
X131000000Y-84750000D01*
X141145000Y-81030000D02*
X141145000Y-82560000D01*
X139300000Y-81030000D02*
X141145000Y-81030000D01*
X138030000Y-83830000D02*
X138030000Y-81960000D01*
X139900000Y-83830000D02*
X138030000Y-83830000D01*
X141145000Y-85100000D02*
X141145000Y-86630000D01*
X141145000Y-86630000D02*
X133645000Y-86630000D01*
X133645000Y-81030000D02*
X133645000Y-86630000D01*
X136760000Y-81030000D02*
X133645000Y-81030000D01*
D10*
X65748000Y-80554000D02*
X66048000Y-81154000D01*
X66348000Y-80554000D02*
X65748000Y-80554000D01*
X66048000Y-81154000D02*
X66348000Y-80554000D01*
X67998000Y-81654000D02*
X66998000Y-81654000D01*
X56098000Y-81654000D02*
X56098000Y-91154000D01*
X67998000Y-81654000D02*
X67998000Y-91154000D01*
X67998000Y-93454000D02*
X56098000Y-93454000D01*
X56098000Y-81654000D02*
X57098000Y-81654000D01*
X67998000Y-91154000D02*
X66998000Y-91154000D01*
X57098000Y-91154000D02*
X56098000Y-91154000D01*
D12*
X100145000Y-81030000D02*
X100145000Y-82560000D01*
X98300000Y-81030000D02*
X100145000Y-81030000D01*
X97030000Y-83830000D02*
X97030000Y-81960000D01*
X98900000Y-83830000D02*
X97030000Y-83830000D01*
X100145000Y-85100000D02*
X100145000Y-86630000D01*
X100145000Y-86630000D02*
X92645000Y-86630000D01*
X92645000Y-81030000D02*
X92645000Y-86630000D01*
X95760000Y-81030000D02*
X92645000Y-81030000D01*
X84530000Y-88655000D02*
X83000000Y-88655000D01*
X84530000Y-86810000D02*
X84530000Y-88655000D01*
X81730000Y-85540000D02*
X83600000Y-85540000D01*
X81730000Y-87410000D02*
X81730000Y-85540000D01*
X80460000Y-88655000D02*
X78930000Y-88655000D01*
X78930000Y-88655000D02*
X78930000Y-81155000D01*
X84530000Y-81155000D02*
X78930000Y-81155000D01*
X84530000Y-84270000D02*
X84530000Y-81155000D01*
X182145000Y-81030000D02*
X182145000Y-82560000D01*
X180300000Y-81030000D02*
X182145000Y-81030000D01*
X179030000Y-83830000D02*
X179030000Y-81960000D01*
X180900000Y-83830000D02*
X179030000Y-83830000D01*
X182145000Y-85100000D02*
X182145000Y-86630000D01*
X182145000Y-86630000D02*
X174645000Y-86630000D01*
X174645000Y-81030000D02*
X174645000Y-86630000D01*
X177760000Y-81030000D02*
X174645000Y-81030000D01*
X124950000Y-88300000D02*
X124950000Y-88500000D01*
X121650000Y-88300000D02*
X124950000Y-88300000D01*
X121650000Y-88500000D02*
X121650000Y-88300000D01*
X124950000Y-90700000D02*
X124950000Y-90500000D01*
X121650000Y-90700000D02*
X124950000Y-90700000D01*
X121650000Y-90500000D02*
X121650000Y-90700000D01*
X200510000Y-89030000D02*
X200510000Y-83830000D01*
X195370000Y-89030000D02*
X200510000Y-89030000D01*
X192770000Y-83830000D02*
X200510000Y-83830000D01*
X195370000Y-89030000D02*
X195370000Y-86430000D01*
X195370000Y-86430000D02*
X192770000Y-86430000D01*
X192770000Y-86430000D02*
X192770000Y-83830000D01*
X194100000Y-89030000D02*
X192770000Y-89030000D01*
X192770000Y-89030000D02*
X192770000Y-87700000D01*
D10*
X119425000Y-89125000D02*
X119425000Y-88900000D01*
X112175000Y-89125000D02*
X112175000Y-88800000D01*
X112175000Y-81875000D02*
X112175000Y-82200000D01*
X119425000Y-81875000D02*
X119425000Y-82200000D01*
X119425000Y-89125000D02*
X119100000Y-89125000D01*
X119425000Y-81875000D02*
X119100000Y-81875000D01*
X112175000Y-81875000D02*
X112500000Y-81875000D01*
X112175000Y-89125000D02*
X112500000Y-89125000D01*
X119425000Y-88900000D02*
X120850000Y-88900000D01*
D12*
X78207300Y-81347200D02*
G75*
G03X78207300Y-81347200I-700000J0D01*
G01*
X110200000Y-83000000D02*
G75*
G03X110200000Y-83000000I-700000J0D01*
G01*
X91700000Y-81600000D02*
G75*
G03X91700000Y-81600000I-700000J0D01*
G01*
X107600000Y-83300000D02*
G75*
G03X107600000Y-83300000I-700000J0D01*
G01*
X150800000Y-82300000D02*
G75*
G03X150800000Y-82300000I-700000J0D01*
G01*
X192100000Y-82400000D02*
G75*
G03X192100000Y-82400000I-700000J0D01*
G01*
X230800000Y-82450000D02*
G75*
G03X230800000Y-82450000I-700000J0D01*
G01*
X130850000Y-86500000D02*
G75*
G02X130150000Y-87200000I-700000J0D01*
G01*
X130150000Y-85200000D02*
G75*
G02X130850000Y-85900000I0J-700000D01*
G01*
X126750000Y-85900000D02*
G75*
G02X127450000Y-85200000I700000J0D01*
G01*
X127450000Y-87200000D02*
G75*
G02X126750000Y-86500000I0J700000D01*
G01*
X130200000Y-87200000D02*
X127400000Y-87200000D01*
X126750000Y-86500000D02*
X126750000Y-85900000D01*
X127400000Y-85200000D02*
X130200000Y-85200000D01*
X130850000Y-85900000D02*
X130850000Y-86500000D01*
X130000000Y-85000000D02*
X130300000Y-84700000D01*
X130300000Y-84700000D02*
X129700000Y-84700000D01*
X130000000Y-85000000D02*
X129700000Y-84700000D01*
X125600000Y-81400000D02*
X125300000Y-81100000D01*
X125900000Y-81100000D02*
X125300000Y-81100000D01*
X125600000Y-81400000D02*
X125900000Y-81100000D01*
X126450000Y-82300000D02*
X126450000Y-82900000D01*
X123000000Y-81600000D02*
X125800000Y-81600000D01*
X122350000Y-82900000D02*
X122350000Y-82300000D01*
X125800000Y-83600000D02*
X123000000Y-83600000D01*
X123050000Y-83600000D02*
G75*
G02X122350000Y-82900000I0J700000D01*
G01*
X122350000Y-82300000D02*
G75*
G02X123050000Y-81600000I700000J0D01*
G01*
X125750000Y-81600000D02*
G75*
G02X126450000Y-82300000I0J-700000D01*
G01*
X126450000Y-82900000D02*
G75*
G02X125750000Y-83600000I-700000J0D01*
G01*
X87110000Y-86255000D02*
X87110000Y-87555000D01*
X85290000Y-86255000D02*
X85290000Y-87555000D01*
X101190000Y-86050000D02*
X101190000Y-87350000D01*
X103010000Y-86050000D02*
X103010000Y-87350000D01*
X143910000Y-83250000D02*
X143910000Y-84550000D01*
X142090000Y-83250000D02*
X142090000Y-84550000D01*
X183090000Y-83250000D02*
X183090000Y-84550000D01*
X184910000Y-83250000D02*
X184910000Y-84550000D01*
X226060000Y-87175000D02*
X226060000Y-88475000D01*
X224240000Y-87175000D02*
X224240000Y-88475000D01*
X158800000Y-86500000D02*
X158800000Y-83600000D01*
X159250000Y-86950000D02*
X158800000Y-86500000D01*
X162500000Y-87750000D02*
X160500000Y-87750000D01*
X164200000Y-86500000D02*
X163750000Y-86950000D01*
X164200000Y-83600000D02*
X164200000Y-86500000D01*
X163750000Y-83150000D02*
X164200000Y-83600000D01*
X160500000Y-82350000D02*
X162500000Y-82350000D01*
X158800000Y-83600000D02*
X159250000Y-83150000D01*
X74217300Y-83597200D02*
X74217300Y-81147200D01*
X70997300Y-81797200D02*
X70997300Y-83597200D01*
X235050000Y-83700000D02*
X234050000Y-83700000D01*
X235050000Y-82100000D02*
X233850000Y-82100000D01*
X209250000Y-84440000D02*
X206800000Y-84440000D01*
X207450000Y-87660000D02*
X209250000Y-87660000D01*
X85190000Y-81700000D02*
X85190000Y-83500000D01*
X88410000Y-83500000D02*
X88410000Y-81050000D01*
X104410000Y-83300000D02*
X104410000Y-80850000D01*
X101190000Y-81500000D02*
X101190000Y-83300000D01*
X144490000Y-82600000D02*
X144490000Y-84400000D01*
X147710000Y-84400000D02*
X147710000Y-81950000D01*
X188710000Y-84400000D02*
X188710000Y-81950000D01*
X185490000Y-82600000D02*
X185490000Y-84400000D01*
X224190000Y-82575000D02*
X224190000Y-84375000D01*
X227410000Y-84375000D02*
X227410000Y-81925000D01*
D13*
X228200000Y-89000000D02*
X228200000Y-88180000D01*
X230900000Y-88900000D02*
X230900000Y-88180000D01*
X230900000Y-88900000D02*
X230680000Y-88900000D01*
X230680000Y-85700000D02*
X230900000Y-85700000D01*
X230900000Y-85700000D02*
X230900000Y-86420000D01*
X228200000Y-86420000D02*
X228200000Y-85700000D01*
X228200000Y-85700000D02*
X228420000Y-85700000D01*
D12*
X73312300Y-93457200D02*
X72012300Y-93457200D01*
X73312300Y-91637200D02*
X72012300Y-91637200D01*
X104380000Y-90190000D02*
X104780000Y-90190000D01*
X103610000Y-85610000D02*
X104780000Y-85610000D01*
X108190000Y-85610000D02*
X107020000Y-85610000D01*
X107420000Y-90190000D02*
X107020000Y-90190000D01*
X108190000Y-89420000D02*
X108190000Y-85610000D01*
X108190000Y-89420000D02*
X107420000Y-90190000D01*
X103610000Y-89420000D02*
X103610000Y-85610000D01*
X103610000Y-89420000D02*
X104380000Y-90190000D01*
D14*
G36*
X149678201Y-89729738D02*
X149698348Y-89731965D01*
X149715863Y-89735564D01*
X149731188Y-89741308D01*
X149744766Y-89749971D01*
X149757039Y-89762324D01*
X149768450Y-89779140D01*
X149779440Y-89801193D01*
X149790453Y-89829255D01*
X149801931Y-89864099D01*
X149814316Y-89906498D01*
X149828050Y-89957225D01*
X149843577Y-90017052D01*
X149844299Y-90019867D01*
X149861506Y-90092474D01*
X149875540Y-90164276D01*
X149886689Y-90237443D01*
X149895238Y-90314150D01*
X149901474Y-90396569D01*
X149905609Y-90484760D01*
X149906717Y-90518405D01*
X149907222Y-90544525D01*
X149906933Y-90565749D01*
X149905658Y-90584703D01*
X149903208Y-90604014D01*
X149899391Y-90626309D01*
X149894016Y-90654217D01*
X149892872Y-90660020D01*
X149876391Y-90738711D01*
X149858865Y-90813406D01*
X149840546Y-90883339D01*
X149821687Y-90947741D01*
X149802541Y-91005845D01*
X149783359Y-91056882D01*
X149764394Y-91100085D01*
X149745900Y-91134686D01*
X149728657Y-91159293D01*
X149717953Y-91172749D01*
X149703677Y-91191717D01*
X149687975Y-91213311D01*
X149677487Y-91228152D01*
X149651986Y-91262275D01*
X149628222Y-91289201D01*
X149606922Y-91308184D01*
X149589823Y-91318106D01*
X149577848Y-91320698D01*
X149560149Y-91322358D01*
X149545639Y-91322712D01*
X149529049Y-91321866D01*
X149513769Y-91319024D01*
X149496746Y-91313303D01*
X149474929Y-91303818D01*
X149465960Y-91299618D01*
X149443192Y-91287894D01*
X149421706Y-91275181D01*
X149404652Y-91263418D01*
X149398199Y-91257955D01*
X149375298Y-91229710D01*
X149355228Y-91191883D01*
X149337972Y-91144420D01*
X149323507Y-91087269D01*
X149314959Y-91041020D01*
X149312442Y-91023764D01*
X149310422Y-91005587D01*
X149308848Y-90985174D01*
X149307672Y-90961208D01*
X149306843Y-90932375D01*
X149306312Y-90897359D01*
X149306029Y-90854844D01*
X149305945Y-90803516D01*
X149305945Y-90802260D01*
X149306068Y-90745778D01*
X149306514Y-90697431D01*
X149307403Y-90655192D01*
X149308857Y-90617037D01*
X149310997Y-90580942D01*
X149313942Y-90544882D01*
X149317814Y-90506833D01*
X149322734Y-90464769D01*
X149328823Y-90416667D01*
X149329068Y-90414778D01*
X149338126Y-90357754D01*
X149350976Y-90295299D01*
X149367031Y-90229301D01*
X149385706Y-90161648D01*
X149406413Y-90094227D01*
X149428565Y-90028927D01*
X149451577Y-89967635D01*
X149474862Y-89912239D01*
X149497832Y-89864626D01*
X149503030Y-89854937D01*
X149530897Y-89810835D01*
X149561983Y-89773517D01*
X149562588Y-89772896D01*
X149585380Y-89751619D01*
X149606068Y-89737902D01*
X149627763Y-89730583D01*
X149653575Y-89728502D01*
X149678201Y-89729738D01*
X149678201Y-89729738D01*
G37*
X149678201Y-89729738D02*
X149698348Y-89731965D01*
X149715863Y-89735564D01*
X149731188Y-89741308D01*
X149744766Y-89749971D01*
X149757039Y-89762324D01*
X149768450Y-89779140D01*
X149779440Y-89801193D01*
X149790453Y-89829255D01*
X149801931Y-89864099D01*
X149814316Y-89906498D01*
X149828050Y-89957225D01*
X149843577Y-90017052D01*
X149844299Y-90019867D01*
X149861506Y-90092474D01*
X149875540Y-90164276D01*
X149886689Y-90237443D01*
X149895238Y-90314150D01*
X149901474Y-90396569D01*
X149905609Y-90484760D01*
X149906717Y-90518405D01*
X149907222Y-90544525D01*
X149906933Y-90565749D01*
X149905658Y-90584703D01*
X149903208Y-90604014D01*
X149899391Y-90626309D01*
X149894016Y-90654217D01*
X149892872Y-90660020D01*
X149876391Y-90738711D01*
X149858865Y-90813406D01*
X149840546Y-90883339D01*
X149821687Y-90947741D01*
X149802541Y-91005845D01*
X149783359Y-91056882D01*
X149764394Y-91100085D01*
X149745900Y-91134686D01*
X149728657Y-91159293D01*
X149717953Y-91172749D01*
X149703677Y-91191717D01*
X149687975Y-91213311D01*
X149677487Y-91228152D01*
X149651986Y-91262275D01*
X149628222Y-91289201D01*
X149606922Y-91308184D01*
X149589823Y-91318106D01*
X149577848Y-91320698D01*
X149560149Y-91322358D01*
X149545639Y-91322712D01*
X149529049Y-91321866D01*
X149513769Y-91319024D01*
X149496746Y-91313303D01*
X149474929Y-91303818D01*
X149465960Y-91299618D01*
X149443192Y-91287894D01*
X149421706Y-91275181D01*
X149404652Y-91263418D01*
X149398199Y-91257955D01*
X149375298Y-91229710D01*
X149355228Y-91191883D01*
X149337972Y-91144420D01*
X149323507Y-91087269D01*
X149314959Y-91041020D01*
X149312442Y-91023764D01*
X149310422Y-91005587D01*
X149308848Y-90985174D01*
X149307672Y-90961208D01*
X149306843Y-90932375D01*
X149306312Y-90897359D01*
X149306029Y-90854844D01*
X149305945Y-90803516D01*
X149305945Y-90802260D01*
X149306068Y-90745778D01*
X149306514Y-90697431D01*
X149307403Y-90655192D01*
X149308857Y-90617037D01*
X149310997Y-90580942D01*
X149313942Y-90544882D01*
X149317814Y-90506833D01*
X149322734Y-90464769D01*
X149328823Y-90416667D01*
X149329068Y-90414778D01*
X149338126Y-90357754D01*
X149350976Y-90295299D01*
X149367031Y-90229301D01*
X149385706Y-90161648D01*
X149406413Y-90094227D01*
X149428565Y-90028927D01*
X149451577Y-89967635D01*
X149474862Y-89912239D01*
X149497832Y-89864626D01*
X149503030Y-89854937D01*
X149530897Y-89810835D01*
X149561983Y-89773517D01*
X149562588Y-89772896D01*
X149585380Y-89751619D01*
X149606068Y-89737902D01*
X149627763Y-89730583D01*
X149653575Y-89728502D01*
X149678201Y-89729738D01*
D12*
X165040000Y-86280000D02*
X165040000Y-88550000D01*
X166560000Y-86280000D02*
X165040000Y-86280000D01*
X166560000Y-88550000D02*
X166560000Y-86280000D01*
D14*
G36*
X155075155Y-91786012D02*
X155080398Y-91793427D01*
X155089708Y-91808627D01*
X155102427Y-91830404D01*
X155117896Y-91857549D01*
X155135454Y-91888853D01*
X155154444Y-91923110D01*
X155174204Y-91959109D01*
X155194078Y-91995644D01*
X155213404Y-92031505D01*
X155231524Y-92065484D01*
X155247779Y-92096372D01*
X155261508Y-92122963D01*
X155272054Y-92144046D01*
X155278757Y-92158414D01*
X155280037Y-92161538D01*
X155285620Y-92174472D01*
X155290223Y-92182257D01*
X155291599Y-92183280D01*
X155295101Y-92178987D01*
X155301179Y-92167721D01*
X155308532Y-92151899D01*
X155308694Y-92151530D01*
X155316609Y-92134493D01*
X155328101Y-92111303D01*
X155342531Y-92083133D01*
X155359255Y-92051158D01*
X155377632Y-92016551D01*
X155397021Y-91980487D01*
X155416780Y-91944140D01*
X155436269Y-91908685D01*
X155454844Y-91875295D01*
X155471865Y-91845145D01*
X155486691Y-91819409D01*
X155498679Y-91799261D01*
X155507188Y-91785876D01*
X155511368Y-91780561D01*
X155516921Y-91777206D01*
X155524264Y-91774852D01*
X155535032Y-91773371D01*
X155550862Y-91772633D01*
X155573390Y-91772511D01*
X155604253Y-91772876D01*
X155608310Y-91772941D01*
X155693214Y-91774340D01*
X155533267Y-92045689D01*
X155373320Y-92317039D01*
X155373320Y-92645560D01*
X155205680Y-92645560D01*
X155205680Y-92310098D01*
X155048200Y-92043742D01*
X155020170Y-91996289D01*
X154993736Y-91951451D01*
X154969342Y-91909988D01*
X154947433Y-91872659D01*
X154928454Y-91840226D01*
X154912850Y-91813447D01*
X154901064Y-91793083D01*
X154893542Y-91779894D01*
X154890729Y-91774640D01*
X154890720Y-91774593D01*
X154895523Y-91773672D01*
X154908827Y-91772878D01*
X154928975Y-91772267D01*
X154954306Y-91771893D01*
X154976129Y-91771800D01*
X155061539Y-91771800D01*
X155075155Y-91786012D01*
X155075155Y-91786012D01*
G37*
X155075155Y-91786012D02*
X155080398Y-91793427D01*
X155089708Y-91808627D01*
X155102427Y-91830404D01*
X155117896Y-91857549D01*
X155135454Y-91888853D01*
X155154444Y-91923110D01*
X155174204Y-91959109D01*
X155194078Y-91995644D01*
X155213404Y-92031505D01*
X155231524Y-92065484D01*
X155247779Y-92096372D01*
X155261508Y-92122963D01*
X155272054Y-92144046D01*
X155278757Y-92158414D01*
X155280037Y-92161538D01*
X155285620Y-92174472D01*
X155290223Y-92182257D01*
X155291599Y-92183280D01*
X155295101Y-92178987D01*
X155301179Y-92167721D01*
X155308532Y-92151899D01*
X155308694Y-92151530D01*
X155316609Y-92134493D01*
X155328101Y-92111303D01*
X155342531Y-92083133D01*
X155359255Y-92051158D01*
X155377632Y-92016551D01*
X155397021Y-91980487D01*
X155416780Y-91944140D01*
X155436269Y-91908685D01*
X155454844Y-91875295D01*
X155471865Y-91845145D01*
X155486691Y-91819409D01*
X155498679Y-91799261D01*
X155507188Y-91785876D01*
X155511368Y-91780561D01*
X155516921Y-91777206D01*
X155524264Y-91774852D01*
X155535032Y-91773371D01*
X155550862Y-91772633D01*
X155573390Y-91772511D01*
X155604253Y-91772876D01*
X155608310Y-91772941D01*
X155693214Y-91774340D01*
X155533267Y-92045689D01*
X155373320Y-92317039D01*
X155373320Y-92645560D01*
X155205680Y-92645560D01*
X155205680Y-92310098D01*
X155048200Y-92043742D01*
X155020170Y-91996289D01*
X154993736Y-91951451D01*
X154969342Y-91909988D01*
X154947433Y-91872659D01*
X154928454Y-91840226D01*
X154912850Y-91813447D01*
X154901064Y-91793083D01*
X154893542Y-91779894D01*
X154890729Y-91774640D01*
X154890720Y-91774593D01*
X154895523Y-91773672D01*
X154908827Y-91772878D01*
X154928975Y-91772267D01*
X154954306Y-91771893D01*
X154976129Y-91771800D01*
X155061539Y-91771800D01*
X155075155Y-91786012D01*
G36*
X153489910Y-91773039D02*
X153541831Y-91773519D01*
X153584682Y-91773995D01*
X153619554Y-91774525D01*
X153647535Y-91775168D01*
X153669716Y-91775983D01*
X153687187Y-91777029D01*
X153701037Y-91778364D01*
X153712357Y-91780048D01*
X153722237Y-91782139D01*
X153731766Y-91784696D01*
X153737543Y-91786411D01*
X153786002Y-91804941D01*
X153826664Y-91828722D01*
X153859075Y-91857405D01*
X153882776Y-91890645D01*
X153887593Y-91900291D01*
X153900381Y-91937931D01*
X153906614Y-91978799D01*
X153906315Y-92020135D01*
X153899505Y-92059178D01*
X153886206Y-92093168D01*
X153886071Y-92093417D01*
X153867348Y-92119959D01*
X153841593Y-92145560D01*
X153811778Y-92167532D01*
X153792088Y-92178377D01*
X153776574Y-92185934D01*
X153769222Y-92190451D01*
X153768967Y-92193143D01*
X153774746Y-92195223D01*
X153776848Y-92195750D01*
X153804196Y-92205219D01*
X153833473Y-92219828D01*
X153860970Y-92237414D01*
X153882975Y-92255819D01*
X153886619Y-92259663D01*
X153906909Y-92286269D01*
X153920432Y-92314466D01*
X153928041Y-92346755D01*
X153930589Y-92385636D01*
X153930600Y-92388757D01*
X153926482Y-92440496D01*
X153914055Y-92486573D01*
X153893203Y-92527142D01*
X153863811Y-92562353D01*
X153825767Y-92592360D01*
X153778955Y-92617312D01*
X153749701Y-92628840D01*
X153709620Y-92643007D01*
X153280360Y-92646161D01*
X153280360Y-92264560D01*
X153448000Y-92264560D01*
X153448000Y-92520078D01*
X153550870Y-92517172D01*
X153590108Y-92515850D01*
X153620743Y-92514277D01*
X153644331Y-92512312D01*
X153662427Y-92509808D01*
X153676588Y-92506625D01*
X153681490Y-92505132D01*
X153709643Y-92491657D01*
X153730541Y-92475529D01*
X153749775Y-92450824D01*
X153761750Y-92422062D01*
X153766555Y-92391273D01*
X153764277Y-92360491D01*
X153755002Y-92331748D01*
X153738819Y-92307075D01*
X153722693Y-92292803D01*
X153707135Y-92283584D01*
X153689487Y-92276488D01*
X153668283Y-92271282D01*
X153642056Y-92267732D01*
X153609339Y-92265603D01*
X153568665Y-92264660D01*
X153545992Y-92264560D01*
X153448000Y-92264560D01*
X153280360Y-92264560D01*
X153280360Y-92149318D01*
X153448000Y-92149318D01*
X153538170Y-92146156D01*
X153576489Y-92144380D01*
X153609140Y-92141993D01*
X153634680Y-92139128D01*
X153651665Y-92135918D01*
X153652963Y-92135546D01*
X153686808Y-92121693D01*
X153711908Y-92102946D01*
X153728730Y-92078700D01*
X153737740Y-92048347D01*
X153739650Y-92022850D01*
X153738782Y-91999510D01*
X153735272Y-91981495D01*
X153728149Y-91964106D01*
X153727032Y-91961890D01*
X153715552Y-91944397D01*
X153700157Y-91930196D01*
X153679898Y-91919018D01*
X153653829Y-91910595D01*
X153621003Y-91904658D01*
X153580472Y-91900938D01*
X153531289Y-91899166D01*
X153505150Y-91898931D01*
X153448000Y-91898800D01*
X153448000Y-92149318D01*
X153280360Y-92149318D01*
X153280360Y-91771186D01*
X153489910Y-91773039D01*
X153489910Y-91773039D01*
G37*
X153489910Y-91773039D02*
X153541831Y-91773519D01*
X153584682Y-91773995D01*
X153619554Y-91774525D01*
X153647535Y-91775168D01*
X153669716Y-91775983D01*
X153687187Y-91777029D01*
X153701037Y-91778364D01*
X153712357Y-91780048D01*
X153722237Y-91782139D01*
X153731766Y-91784696D01*
X153737543Y-91786411D01*
X153786002Y-91804941D01*
X153826664Y-91828722D01*
X153859075Y-91857405D01*
X153882776Y-91890645D01*
X153887593Y-91900291D01*
X153900381Y-91937931D01*
X153906614Y-91978799D01*
X153906315Y-92020135D01*
X153899505Y-92059178D01*
X153886206Y-92093168D01*
X153886071Y-92093417D01*
X153867348Y-92119959D01*
X153841593Y-92145560D01*
X153811778Y-92167532D01*
X153792088Y-92178377D01*
X153776574Y-92185934D01*
X153769222Y-92190451D01*
X153768967Y-92193143D01*
X153774746Y-92195223D01*
X153776848Y-92195750D01*
X153804196Y-92205219D01*
X153833473Y-92219828D01*
X153860970Y-92237414D01*
X153882975Y-92255819D01*
X153886619Y-92259663D01*
X153906909Y-92286269D01*
X153920432Y-92314466D01*
X153928041Y-92346755D01*
X153930589Y-92385636D01*
X153930600Y-92388757D01*
X153926482Y-92440496D01*
X153914055Y-92486573D01*
X153893203Y-92527142D01*
X153863811Y-92562353D01*
X153825767Y-92592360D01*
X153778955Y-92617312D01*
X153749701Y-92628840D01*
X153709620Y-92643007D01*
X153280360Y-92646161D01*
X153280360Y-92264560D01*
X153448000Y-92264560D01*
X153448000Y-92520078D01*
X153550870Y-92517172D01*
X153590108Y-92515850D01*
X153620743Y-92514277D01*
X153644331Y-92512312D01*
X153662427Y-92509808D01*
X153676588Y-92506625D01*
X153681490Y-92505132D01*
X153709643Y-92491657D01*
X153730541Y-92475529D01*
X153749775Y-92450824D01*
X153761750Y-92422062D01*
X153766555Y-92391273D01*
X153764277Y-92360491D01*
X153755002Y-92331748D01*
X153738819Y-92307075D01*
X153722693Y-92292803D01*
X153707135Y-92283584D01*
X153689487Y-92276488D01*
X153668283Y-92271282D01*
X153642056Y-92267732D01*
X153609339Y-92265603D01*
X153568665Y-92264660D01*
X153545992Y-92264560D01*
X153448000Y-92264560D01*
X153280360Y-92264560D01*
X153280360Y-92149318D01*
X153448000Y-92149318D01*
X153538170Y-92146156D01*
X153576489Y-92144380D01*
X153609140Y-92141993D01*
X153634680Y-92139128D01*
X153651665Y-92135918D01*
X153652963Y-92135546D01*
X153686808Y-92121693D01*
X153711908Y-92102946D01*
X153728730Y-92078700D01*
X153737740Y-92048347D01*
X153739650Y-92022850D01*
X153738782Y-91999510D01*
X153735272Y-91981495D01*
X153728149Y-91964106D01*
X153727032Y-91961890D01*
X153715552Y-91944397D01*
X153700157Y-91930196D01*
X153679898Y-91919018D01*
X153653829Y-91910595D01*
X153621003Y-91904658D01*
X153580472Y-91900938D01*
X153531289Y-91899166D01*
X153505150Y-91898931D01*
X153448000Y-91898800D01*
X153448000Y-92149318D01*
X153280360Y-92149318D01*
X153280360Y-91771186D01*
X153489910Y-91773039D01*
G36*
X151750010Y-91773143D02*
X151802775Y-91773761D01*
X151846596Y-91774460D01*
X151882687Y-91775395D01*
X151912263Y-91776722D01*
X151936539Y-91778600D01*
X151956730Y-91781183D01*
X151974050Y-91784629D01*
X151989716Y-91789094D01*
X152004941Y-91794734D01*
X152020941Y-91801706D01*
X152038930Y-91810166D01*
X152039471Y-91810425D01*
X152080157Y-91835127D01*
X152113389Y-91866624D01*
X152138858Y-91904487D01*
X152156251Y-91948284D01*
X152163412Y-91981949D01*
X152166333Y-92034377D01*
X152159847Y-92084388D01*
X152144460Y-92131057D01*
X152120676Y-92173456D01*
X152089001Y-92210659D01*
X152049941Y-92241742D01*
X152009897Y-92263279D01*
X151981494Y-92275686D01*
X152003084Y-92296793D01*
X152009224Y-92304094D01*
X152020045Y-92318337D01*
X152034792Y-92338439D01*
X152052715Y-92363320D01*
X152073058Y-92391897D01*
X152095070Y-92423087D01*
X152117998Y-92455810D01*
X152141089Y-92488984D01*
X152163589Y-92521525D01*
X152184746Y-92552353D01*
X152203807Y-92580386D01*
X152220018Y-92604541D01*
X152232628Y-92623736D01*
X152240883Y-92636890D01*
X152244030Y-92642921D01*
X152244040Y-92643030D01*
X152239289Y-92644446D01*
X152226325Y-92645376D01*
X152207082Y-92645858D01*
X152183495Y-92645927D01*
X152157497Y-92645620D01*
X152131021Y-92644974D01*
X152106003Y-92644024D01*
X152084375Y-92642807D01*
X152068072Y-92641360D01*
X152059028Y-92639718D01*
X152058590Y-92639542D01*
X152051686Y-92633404D01*
X152039800Y-92618986D01*
X152022891Y-92596228D01*
X152000919Y-92565072D01*
X151973842Y-92525458D01*
X151941619Y-92477328D01*
X151904211Y-92420623D01*
X151864466Y-92359733D01*
X151852320Y-92342343D01*
X151840543Y-92327648D01*
X151831369Y-92318402D01*
X151830155Y-92317521D01*
X151817920Y-92312915D01*
X151797516Y-92309156D01*
X151772030Y-92306686D01*
X151725880Y-92303696D01*
X151725880Y-92645560D01*
X151558240Y-92645560D01*
X151558240Y-92189445D01*
X151725880Y-92189445D01*
X151803350Y-92187242D01*
X151835242Y-92186121D01*
X151859204Y-92184648D01*
X151877466Y-92182534D01*
X151892257Y-92179491D01*
X151905809Y-92175229D01*
X151910826Y-92173336D01*
X151944667Y-92155383D01*
X151970596Y-92131091D01*
X151988500Y-92100636D01*
X151998265Y-92064191D01*
X152000200Y-92035965D01*
X151995620Y-91999409D01*
X151982394Y-91967518D01*
X151961293Y-91941250D01*
X151933088Y-91921566D01*
X151898551Y-91909424D01*
X151898472Y-91909407D01*
X151883859Y-91907146D01*
X151861815Y-91904813D01*
X151835063Y-91902648D01*
X151806328Y-91900896D01*
X151799329Y-91900559D01*
X151725880Y-91897222D01*
X151725880Y-92189445D01*
X151558240Y-92189445D01*
X151558240Y-91771045D01*
X151750010Y-91773143D01*
X151750010Y-91773143D01*
G37*
X151750010Y-91773143D02*
X151802775Y-91773761D01*
X151846596Y-91774460D01*
X151882687Y-91775395D01*
X151912263Y-91776722D01*
X151936539Y-91778600D01*
X151956730Y-91781183D01*
X151974050Y-91784629D01*
X151989716Y-91789094D01*
X152004941Y-91794734D01*
X152020941Y-91801706D01*
X152038930Y-91810166D01*
X152039471Y-91810425D01*
X152080157Y-91835127D01*
X152113389Y-91866624D01*
X152138858Y-91904487D01*
X152156251Y-91948284D01*
X152163412Y-91981949D01*
X152166333Y-92034377D01*
X152159847Y-92084388D01*
X152144460Y-92131057D01*
X152120676Y-92173456D01*
X152089001Y-92210659D01*
X152049941Y-92241742D01*
X152009897Y-92263279D01*
X151981494Y-92275686D01*
X152003084Y-92296793D01*
X152009224Y-92304094D01*
X152020045Y-92318337D01*
X152034792Y-92338439D01*
X152052715Y-92363320D01*
X152073058Y-92391897D01*
X152095070Y-92423087D01*
X152117998Y-92455810D01*
X152141089Y-92488984D01*
X152163589Y-92521525D01*
X152184746Y-92552353D01*
X152203807Y-92580386D01*
X152220018Y-92604541D01*
X152232628Y-92623736D01*
X152240883Y-92636890D01*
X152244030Y-92642921D01*
X152244040Y-92643030D01*
X152239289Y-92644446D01*
X152226325Y-92645376D01*
X152207082Y-92645858D01*
X152183495Y-92645927D01*
X152157497Y-92645620D01*
X152131021Y-92644974D01*
X152106003Y-92644024D01*
X152084375Y-92642807D01*
X152068072Y-92641360D01*
X152059028Y-92639718D01*
X152058590Y-92639542D01*
X152051686Y-92633404D01*
X152039800Y-92618986D01*
X152022891Y-92596228D01*
X152000919Y-92565072D01*
X151973842Y-92525458D01*
X151941619Y-92477328D01*
X151904211Y-92420623D01*
X151864466Y-92359733D01*
X151852320Y-92342343D01*
X151840543Y-92327648D01*
X151831369Y-92318402D01*
X151830155Y-92317521D01*
X151817920Y-92312915D01*
X151797516Y-92309156D01*
X151772030Y-92306686D01*
X151725880Y-92303696D01*
X151725880Y-92645560D01*
X151558240Y-92645560D01*
X151558240Y-92189445D01*
X151725880Y-92189445D01*
X151803350Y-92187242D01*
X151835242Y-92186121D01*
X151859204Y-92184648D01*
X151877466Y-92182534D01*
X151892257Y-92179491D01*
X151905809Y-92175229D01*
X151910826Y-92173336D01*
X151944667Y-92155383D01*
X151970596Y-92131091D01*
X151988500Y-92100636D01*
X151998265Y-92064191D01*
X152000200Y-92035965D01*
X151995620Y-91999409D01*
X151982394Y-91967518D01*
X151961293Y-91941250D01*
X151933088Y-91921566D01*
X151898551Y-91909424D01*
X151898472Y-91909407D01*
X151883859Y-91907146D01*
X151861815Y-91904813D01*
X151835063Y-91902648D01*
X151806328Y-91900896D01*
X151799329Y-91900559D01*
X151725880Y-91897222D01*
X151725880Y-92189445D01*
X151558240Y-92189445D01*
X151558240Y-91771045D01*
X151750010Y-91773143D01*
G36*
X154508064Y-91762437D02*
X154531325Y-91763815D01*
X154552337Y-91766500D01*
X154566226Y-91769046D01*
X154629983Y-91786768D01*
X154689123Y-91813078D01*
X154742805Y-91847525D01*
X154789120Y-91888551D01*
X154828721Y-91936609D01*
X154860550Y-91990013D01*
X154884611Y-92047600D01*
X154900908Y-92108207D01*
X154909445Y-92170670D01*
X154910228Y-92233826D01*
X154903261Y-92296511D01*
X154888549Y-92357562D01*
X154866095Y-92415815D01*
X154835906Y-92470106D01*
X154797985Y-92519273D01*
X154786580Y-92531357D01*
X154737444Y-92574210D01*
X154683182Y-92608308D01*
X154624038Y-92633521D01*
X154566758Y-92648523D01*
X154541782Y-92651900D01*
X154510317Y-92654082D01*
X154475234Y-92655076D01*
X154439400Y-92654885D01*
X154405685Y-92653515D01*
X154376956Y-92650970D01*
X154359860Y-92648174D01*
X154295916Y-92629532D01*
X154238299Y-92603156D01*
X154186390Y-92568729D01*
X154158432Y-92544739D01*
X154113914Y-92496872D01*
X154078319Y-92444956D01*
X154051461Y-92388532D01*
X154033151Y-92327142D01*
X154023203Y-92260327D01*
X154021140Y-92209324D01*
X154192736Y-92209324D01*
X154193773Y-92246399D01*
X154196799Y-92280373D01*
X154201427Y-92306435D01*
X154218623Y-92357627D01*
X154243304Y-92402780D01*
X154274881Y-92441260D01*
X154312767Y-92472433D01*
X154356372Y-92495663D01*
X154386231Y-92505856D01*
X154408772Y-92509985D01*
X154437654Y-92512351D01*
X154469482Y-92512966D01*
X154500859Y-92511839D01*
X154528387Y-92508981D01*
X154545627Y-92505375D01*
X154592562Y-92486635D01*
X154634081Y-92459953D01*
X154669177Y-92426183D01*
X154696842Y-92386182D01*
X154704968Y-92370029D01*
X154716925Y-92341918D01*
X154725438Y-92316407D01*
X154731035Y-92290686D01*
X154734242Y-92261944D01*
X154735587Y-92227371D01*
X154735726Y-92206140D01*
X154735438Y-92175068D01*
X154734430Y-92151427D01*
X154732408Y-92132496D01*
X154729074Y-92115555D01*
X154724132Y-92097883D01*
X154723834Y-92096920D01*
X154703606Y-92045186D01*
X154677480Y-92001624D01*
X154645168Y-91965937D01*
X154606385Y-91937827D01*
X154560843Y-91916997D01*
X154545627Y-91912066D01*
X154522252Y-91907419D01*
X154492441Y-91904752D01*
X154459726Y-91904083D01*
X154427640Y-91905430D01*
X154399716Y-91908812D01*
X154388465Y-91911260D01*
X154340575Y-91928860D01*
X154298906Y-91954466D01*
X154263542Y-91987991D01*
X154234565Y-92029344D01*
X154212058Y-92078438D01*
X154201538Y-92112160D01*
X154196620Y-92138938D01*
X154193686Y-92172415D01*
X154192736Y-92209324D01*
X154021140Y-92209324D01*
X154021113Y-92208680D01*
X154025121Y-92137883D01*
X154037291Y-92072884D01*
X154057845Y-92013147D01*
X154087001Y-91958133D01*
X154124980Y-91907305D01*
X154159152Y-91871829D01*
X154184394Y-91849577D01*
X154208697Y-91831930D01*
X154236399Y-91815902D01*
X154251823Y-91808083D01*
X154283406Y-91793190D01*
X154310695Y-91782135D01*
X154336414Y-91774281D01*
X154363290Y-91768991D01*
X154394048Y-91765628D01*
X154431413Y-91763554D01*
X154444306Y-91763088D01*
X154479932Y-91762237D01*
X154508064Y-91762437D01*
X154508064Y-91762437D01*
G37*
X154508064Y-91762437D02*
X154531325Y-91763815D01*
X154552337Y-91766500D01*
X154566226Y-91769046D01*
X154629983Y-91786768D01*
X154689123Y-91813078D01*
X154742805Y-91847525D01*
X154789120Y-91888551D01*
X154828721Y-91936609D01*
X154860550Y-91990013D01*
X154884611Y-92047600D01*
X154900908Y-92108207D01*
X154909445Y-92170670D01*
X154910228Y-92233826D01*
X154903261Y-92296511D01*
X154888549Y-92357562D01*
X154866095Y-92415815D01*
X154835906Y-92470106D01*
X154797985Y-92519273D01*
X154786580Y-92531357D01*
X154737444Y-92574210D01*
X154683182Y-92608308D01*
X154624038Y-92633521D01*
X154566758Y-92648523D01*
X154541782Y-92651900D01*
X154510317Y-92654082D01*
X154475234Y-92655076D01*
X154439400Y-92654885D01*
X154405685Y-92653515D01*
X154376956Y-92650970D01*
X154359860Y-92648174D01*
X154295916Y-92629532D01*
X154238299Y-92603156D01*
X154186390Y-92568729D01*
X154158432Y-92544739D01*
X154113914Y-92496872D01*
X154078319Y-92444956D01*
X154051461Y-92388532D01*
X154033151Y-92327142D01*
X154023203Y-92260327D01*
X154021140Y-92209324D01*
X154192736Y-92209324D01*
X154193773Y-92246399D01*
X154196799Y-92280373D01*
X154201427Y-92306435D01*
X154218623Y-92357627D01*
X154243304Y-92402780D01*
X154274881Y-92441260D01*
X154312767Y-92472433D01*
X154356372Y-92495663D01*
X154386231Y-92505856D01*
X154408772Y-92509985D01*
X154437654Y-92512351D01*
X154469482Y-92512966D01*
X154500859Y-92511839D01*
X154528387Y-92508981D01*
X154545627Y-92505375D01*
X154592562Y-92486635D01*
X154634081Y-92459953D01*
X154669177Y-92426183D01*
X154696842Y-92386182D01*
X154704968Y-92370029D01*
X154716925Y-92341918D01*
X154725438Y-92316407D01*
X154731035Y-92290686D01*
X154734242Y-92261944D01*
X154735587Y-92227371D01*
X154735726Y-92206140D01*
X154735438Y-92175068D01*
X154734430Y-92151427D01*
X154732408Y-92132496D01*
X154729074Y-92115555D01*
X154724132Y-92097883D01*
X154723834Y-92096920D01*
X154703606Y-92045186D01*
X154677480Y-92001624D01*
X154645168Y-91965937D01*
X154606385Y-91937827D01*
X154560843Y-91916997D01*
X154545627Y-91912066D01*
X154522252Y-91907419D01*
X154492441Y-91904752D01*
X154459726Y-91904083D01*
X154427640Y-91905430D01*
X154399716Y-91908812D01*
X154388465Y-91911260D01*
X154340575Y-91928860D01*
X154298906Y-91954466D01*
X154263542Y-91987991D01*
X154234565Y-92029344D01*
X154212058Y-92078438D01*
X154201538Y-92112160D01*
X154196620Y-92138938D01*
X154193686Y-92172415D01*
X154192736Y-92209324D01*
X154021140Y-92209324D01*
X154021113Y-92208680D01*
X154025121Y-92137883D01*
X154037291Y-92072884D01*
X154057845Y-92013147D01*
X154087001Y-91958133D01*
X154124980Y-91907305D01*
X154159152Y-91871829D01*
X154184394Y-91849577D01*
X154208697Y-91831930D01*
X154236399Y-91815902D01*
X154251823Y-91808083D01*
X154283406Y-91793190D01*
X154310695Y-91782135D01*
X154336414Y-91774281D01*
X154363290Y-91768991D01*
X154394048Y-91765628D01*
X154431413Y-91763554D01*
X154444306Y-91763088D01*
X154479932Y-91762237D01*
X154508064Y-91762437D01*
G36*
X152755464Y-91762437D02*
X152778725Y-91763815D01*
X152799737Y-91766500D01*
X152813626Y-91769046D01*
X152877383Y-91786768D01*
X152936523Y-91813078D01*
X152990205Y-91847525D01*
X153036520Y-91888551D01*
X153076121Y-91936609D01*
X153107950Y-91990013D01*
X153132011Y-92047600D01*
X153148308Y-92108207D01*
X153156845Y-92170670D01*
X153157628Y-92233826D01*
X153150661Y-92296511D01*
X153135949Y-92357562D01*
X153113495Y-92415815D01*
X153083306Y-92470106D01*
X153045385Y-92519273D01*
X153033980Y-92531357D01*
X152984844Y-92574210D01*
X152930582Y-92608308D01*
X152871438Y-92633521D01*
X152814158Y-92648523D01*
X152789182Y-92651900D01*
X152757717Y-92654082D01*
X152722634Y-92655076D01*
X152686800Y-92654885D01*
X152653085Y-92653515D01*
X152624356Y-92650970D01*
X152607260Y-92648174D01*
X152543316Y-92629532D01*
X152485699Y-92603156D01*
X152433790Y-92568729D01*
X152405832Y-92544739D01*
X152361314Y-92496872D01*
X152325719Y-92444956D01*
X152298861Y-92388532D01*
X152280551Y-92327142D01*
X152270603Y-92260327D01*
X152268540Y-92209324D01*
X152440136Y-92209324D01*
X152441173Y-92246399D01*
X152444199Y-92280373D01*
X152448827Y-92306435D01*
X152466023Y-92357627D01*
X152490704Y-92402780D01*
X152522281Y-92441260D01*
X152560167Y-92472433D01*
X152603772Y-92495663D01*
X152633631Y-92505856D01*
X152656172Y-92509985D01*
X152685054Y-92512351D01*
X152716882Y-92512966D01*
X152748259Y-92511839D01*
X152775787Y-92508981D01*
X152793027Y-92505375D01*
X152839962Y-92486635D01*
X152881481Y-92459953D01*
X152916577Y-92426183D01*
X152944242Y-92386182D01*
X152952368Y-92370029D01*
X152964325Y-92341918D01*
X152972838Y-92316407D01*
X152978435Y-92290686D01*
X152981642Y-92261944D01*
X152982987Y-92227371D01*
X152983126Y-92206140D01*
X152982838Y-92175068D01*
X152981830Y-92151427D01*
X152979808Y-92132496D01*
X152976474Y-92115555D01*
X152971532Y-92097883D01*
X152971234Y-92096920D01*
X152951006Y-92045186D01*
X152924880Y-92001624D01*
X152892568Y-91965937D01*
X152853785Y-91937827D01*
X152808243Y-91916997D01*
X152793027Y-91912066D01*
X152769652Y-91907419D01*
X152739841Y-91904752D01*
X152707126Y-91904083D01*
X152675040Y-91905430D01*
X152647116Y-91908812D01*
X152635865Y-91911260D01*
X152587975Y-91928860D01*
X152546306Y-91954466D01*
X152510942Y-91987991D01*
X152481965Y-92029344D01*
X152459458Y-92078438D01*
X152448938Y-92112160D01*
X152444020Y-92138938D01*
X152441086Y-92172415D01*
X152440136Y-92209324D01*
X152268540Y-92209324D01*
X152268513Y-92208680D01*
X152272521Y-92137883D01*
X152284691Y-92072884D01*
X152305245Y-92013147D01*
X152334401Y-91958133D01*
X152372380Y-91907305D01*
X152406552Y-91871829D01*
X152431794Y-91849577D01*
X152456097Y-91831930D01*
X152483799Y-91815902D01*
X152499223Y-91808083D01*
X152530806Y-91793190D01*
X152558095Y-91782135D01*
X152583814Y-91774281D01*
X152610690Y-91768991D01*
X152641448Y-91765628D01*
X152678813Y-91763554D01*
X152691706Y-91763088D01*
X152727332Y-91762237D01*
X152755464Y-91762437D01*
X152755464Y-91762437D01*
G37*
X152755464Y-91762437D02*
X152778725Y-91763815D01*
X152799737Y-91766500D01*
X152813626Y-91769046D01*
X152877383Y-91786768D01*
X152936523Y-91813078D01*
X152990205Y-91847525D01*
X153036520Y-91888551D01*
X153076121Y-91936609D01*
X153107950Y-91990013D01*
X153132011Y-92047600D01*
X153148308Y-92108207D01*
X153156845Y-92170670D01*
X153157628Y-92233826D01*
X153150661Y-92296511D01*
X153135949Y-92357562D01*
X153113495Y-92415815D01*
X153083306Y-92470106D01*
X153045385Y-92519273D01*
X153033980Y-92531357D01*
X152984844Y-92574210D01*
X152930582Y-92608308D01*
X152871438Y-92633521D01*
X152814158Y-92648523D01*
X152789182Y-92651900D01*
X152757717Y-92654082D01*
X152722634Y-92655076D01*
X152686800Y-92654885D01*
X152653085Y-92653515D01*
X152624356Y-92650970D01*
X152607260Y-92648174D01*
X152543316Y-92629532D01*
X152485699Y-92603156D01*
X152433790Y-92568729D01*
X152405832Y-92544739D01*
X152361314Y-92496872D01*
X152325719Y-92444956D01*
X152298861Y-92388532D01*
X152280551Y-92327142D01*
X152270603Y-92260327D01*
X152268540Y-92209324D01*
X152440136Y-92209324D01*
X152441173Y-92246399D01*
X152444199Y-92280373D01*
X152448827Y-92306435D01*
X152466023Y-92357627D01*
X152490704Y-92402780D01*
X152522281Y-92441260D01*
X152560167Y-92472433D01*
X152603772Y-92495663D01*
X152633631Y-92505856D01*
X152656172Y-92509985D01*
X152685054Y-92512351D01*
X152716882Y-92512966D01*
X152748259Y-92511839D01*
X152775787Y-92508981D01*
X152793027Y-92505375D01*
X152839962Y-92486635D01*
X152881481Y-92459953D01*
X152916577Y-92426183D01*
X152944242Y-92386182D01*
X152952368Y-92370029D01*
X152964325Y-92341918D01*
X152972838Y-92316407D01*
X152978435Y-92290686D01*
X152981642Y-92261944D01*
X152982987Y-92227371D01*
X152983126Y-92206140D01*
X152982838Y-92175068D01*
X152981830Y-92151427D01*
X152979808Y-92132496D01*
X152976474Y-92115555D01*
X152971532Y-92097883D01*
X152971234Y-92096920D01*
X152951006Y-92045186D01*
X152924880Y-92001624D01*
X152892568Y-91965937D01*
X152853785Y-91937827D01*
X152808243Y-91916997D01*
X152793027Y-91912066D01*
X152769652Y-91907419D01*
X152739841Y-91904752D01*
X152707126Y-91904083D01*
X152675040Y-91905430D01*
X152647116Y-91908812D01*
X152635865Y-91911260D01*
X152587975Y-91928860D01*
X152546306Y-91954466D01*
X152510942Y-91987991D01*
X152481965Y-92029344D01*
X152459458Y-92078438D01*
X152448938Y-92112160D01*
X152444020Y-92138938D01*
X152441086Y-92172415D01*
X152440136Y-92209324D01*
X152268540Y-92209324D01*
X152268513Y-92208680D01*
X152272521Y-92137883D01*
X152284691Y-92072884D01*
X152305245Y-92013147D01*
X152334401Y-91958133D01*
X152372380Y-91907305D01*
X152406552Y-91871829D01*
X152431794Y-91849577D01*
X152456097Y-91831930D01*
X152483799Y-91815902D01*
X152499223Y-91808083D01*
X152530806Y-91793190D01*
X152558095Y-91782135D01*
X152583814Y-91774281D01*
X152610690Y-91768991D01*
X152641448Y-91765628D01*
X152678813Y-91763554D01*
X152691706Y-91763088D01*
X152727332Y-91762237D01*
X152755464Y-91762437D01*
D12*
X110060000Y-89300000D02*
X110060000Y-87030000D01*
X110060000Y-87030000D02*
X108540000Y-87030000D01*
X108540000Y-87030000D02*
X108540000Y-89300000D01*
D10*
X241701666Y-80612380D02*
X241701666Y-81326666D01*
X241654047Y-81469523D01*
X241558809Y-81564761D01*
X241415952Y-81612380D01*
X241320714Y-81612380D01*
X242701666Y-81612380D02*
X242130238Y-81612380D01*
X242415952Y-81612380D02*
X242415952Y-80612380D01*
X242320714Y-80755238D01*
X242225476Y-80850476D01*
X242130238Y-80898095D01*
X218590476Y-87002380D02*
X218590476Y-87716666D01*
X218542857Y-87859523D01*
X218447619Y-87954761D01*
X218304761Y-88002380D01*
X218209523Y-88002380D01*
X219019047Y-87097619D02*
X219066666Y-87050000D01*
X219161904Y-87002380D01*
X219400000Y-87002380D01*
X219495238Y-87050000D01*
X219542857Y-87097619D01*
X219590476Y-87192857D01*
X219590476Y-87288095D01*
X219542857Y-87430952D01*
X218971428Y-88002380D01*
X219590476Y-88002380D01*
X220209523Y-87002380D02*
X220304761Y-87002380D01*
X220400000Y-87050000D01*
X220447619Y-87097619D01*
X220495238Y-87192857D01*
X220542857Y-87383333D01*
X220542857Y-87621428D01*
X220495238Y-87811904D01*
X220447619Y-87907142D01*
X220400000Y-87954761D01*
X220304761Y-88002380D01*
X220209523Y-88002380D01*
X220114285Y-87954761D01*
X220066666Y-87907142D01*
X220019047Y-87811904D01*
X219971428Y-87621428D01*
X219971428Y-87383333D01*
X220019047Y-87192857D01*
X220066666Y-87097619D01*
X220114285Y-87050000D01*
X220209523Y-87002380D01*
X129623809Y-89801190D02*
X129623809Y-90277380D01*
X129290476Y-89277380D02*
X129623809Y-89801190D01*
X129957142Y-89277380D01*
X130814285Y-90277380D02*
X130242857Y-90277380D01*
X130528571Y-90277380D02*
X130528571Y-89277380D01*
X130433333Y-89420238D01*
X130338095Y-89515476D01*
X130242857Y-89563095D01*
X136590476Y-87177380D02*
X136590476Y-87891666D01*
X136542857Y-88034523D01*
X136447619Y-88129761D01*
X136304761Y-88177380D01*
X136209523Y-88177380D01*
X137590476Y-88177380D02*
X137019047Y-88177380D01*
X137304761Y-88177380D02*
X137304761Y-87177380D01*
X137209523Y-87320238D01*
X137114285Y-87415476D01*
X137019047Y-87463095D01*
X138161904Y-87605952D02*
X138066666Y-87558333D01*
X138019047Y-87510714D01*
X137971428Y-87415476D01*
X137971428Y-87367857D01*
X138019047Y-87272619D01*
X138066666Y-87225000D01*
X138161904Y-87177380D01*
X138352380Y-87177380D01*
X138447619Y-87225000D01*
X138495238Y-87272619D01*
X138542857Y-87367857D01*
X138542857Y-87415476D01*
X138495238Y-87510714D01*
X138447619Y-87558333D01*
X138352380Y-87605952D01*
X138161904Y-87605952D01*
X138066666Y-87653571D01*
X138019047Y-87701190D01*
X137971428Y-87796428D01*
X137971428Y-87986904D01*
X138019047Y-88082142D01*
X138066666Y-88129761D01*
X138161904Y-88177380D01*
X138352380Y-88177380D01*
X138447619Y-88129761D01*
X138495238Y-88082142D01*
X138542857Y-87986904D01*
X138542857Y-87796428D01*
X138495238Y-87701190D01*
X138447619Y-87653571D01*
X138352380Y-87605952D01*
X103782142Y-93467857D02*
X103829761Y-93515476D01*
X103877380Y-93658333D01*
X103877380Y-93753571D01*
X103829761Y-93896428D01*
X103734523Y-93991666D01*
X103639285Y-94039285D01*
X103448809Y-94086904D01*
X103305952Y-94086904D01*
X103115476Y-94039285D01*
X103020238Y-93991666D01*
X102925000Y-93896428D01*
X102877380Y-93753571D01*
X102877380Y-93658333D01*
X102925000Y-93515476D01*
X102972619Y-93467857D01*
X103877380Y-92515476D02*
X103877380Y-93086904D01*
X103877380Y-92801190D02*
X102877380Y-92801190D01*
X103020238Y-92896428D01*
X103115476Y-92991666D01*
X103163095Y-93086904D01*
X102877380Y-92182142D02*
X102877380Y-91563095D01*
X103258333Y-91896428D01*
X103258333Y-91753571D01*
X103305952Y-91658333D01*
X103353571Y-91610714D01*
X103448809Y-91563095D01*
X103686904Y-91563095D01*
X103782142Y-91610714D01*
X103829761Y-91658333D01*
X103877380Y-91753571D01*
X103877380Y-92039285D01*
X103829761Y-92134523D01*
X103782142Y-92182142D01*
X61714666Y-86752380D02*
X61714666Y-87466666D01*
X61667047Y-87609523D01*
X61571809Y-87704761D01*
X61428952Y-87752380D01*
X61333714Y-87752380D01*
X62619428Y-86752380D02*
X62428952Y-86752380D01*
X62333714Y-86800000D01*
X62286095Y-86847619D01*
X62190857Y-86990476D01*
X62143238Y-87180952D01*
X62143238Y-87561904D01*
X62190857Y-87657142D01*
X62238476Y-87704761D01*
X62333714Y-87752380D01*
X62524190Y-87752380D01*
X62619428Y-87704761D01*
X62667047Y-87657142D01*
X62714666Y-87561904D01*
X62714666Y-87323809D01*
X62667047Y-87228571D01*
X62619428Y-87180952D01*
X62524190Y-87133333D01*
X62333714Y-87133333D01*
X62238476Y-87180952D01*
X62190857Y-87228571D01*
X62143238Y-87323809D01*
X95590476Y-87277380D02*
X95590476Y-87991666D01*
X95542857Y-88134523D01*
X95447619Y-88229761D01*
X95304761Y-88277380D01*
X95209523Y-88277380D01*
X96590476Y-88277380D02*
X96019047Y-88277380D01*
X96304761Y-88277380D02*
X96304761Y-87277380D01*
X96209523Y-87420238D01*
X96114285Y-87515476D01*
X96019047Y-87563095D01*
X96923809Y-87277380D02*
X97590476Y-87277380D01*
X97161904Y-88277380D01*
X80915476Y-89702380D02*
X80915476Y-90416666D01*
X80867857Y-90559523D01*
X80772619Y-90654761D01*
X80629761Y-90702380D01*
X80534523Y-90702380D01*
X81915476Y-90702380D02*
X81344047Y-90702380D01*
X81629761Y-90702380D02*
X81629761Y-89702380D01*
X81534523Y-89845238D01*
X81439285Y-89940476D01*
X81344047Y-89988095D01*
X82772619Y-89702380D02*
X82582142Y-89702380D01*
X82486904Y-89750000D01*
X82439285Y-89797619D01*
X82344047Y-89940476D01*
X82296428Y-90130952D01*
X82296428Y-90511904D01*
X82344047Y-90607142D01*
X82391666Y-90654761D01*
X82486904Y-90702380D01*
X82677380Y-90702380D01*
X82772619Y-90654761D01*
X82820238Y-90607142D01*
X82867857Y-90511904D01*
X82867857Y-90273809D01*
X82820238Y-90178571D01*
X82772619Y-90130952D01*
X82677380Y-90083333D01*
X82486904Y-90083333D01*
X82391666Y-90130952D01*
X82344047Y-90178571D01*
X82296428Y-90273809D01*
X177590476Y-87327380D02*
X177590476Y-88041666D01*
X177542857Y-88184523D01*
X177447619Y-88279761D01*
X177304761Y-88327380D01*
X177209523Y-88327380D01*
X178590476Y-88327380D02*
X178019047Y-88327380D01*
X178304761Y-88327380D02*
X178304761Y-87327380D01*
X178209523Y-87470238D01*
X178114285Y-87565476D01*
X178019047Y-87613095D01*
X179066666Y-88327380D02*
X179257142Y-88327380D01*
X179352380Y-88279761D01*
X179400000Y-88232142D01*
X179495238Y-88089285D01*
X179542857Y-87898809D01*
X179542857Y-87517857D01*
X179495238Y-87422619D01*
X179447619Y-87375000D01*
X179352380Y-87327380D01*
X179161904Y-87327380D01*
X179066666Y-87375000D01*
X179019047Y-87422619D01*
X178971428Y-87517857D01*
X178971428Y-87755952D01*
X179019047Y-87851190D01*
X179066666Y-87898809D01*
X179161904Y-87946428D01*
X179352380Y-87946428D01*
X179447619Y-87898809D01*
X179495238Y-87851190D01*
X179542857Y-87755952D01*
X121966666Y-91904761D02*
X122109523Y-91952380D01*
X122347619Y-91952380D01*
X122442857Y-91904761D01*
X122490476Y-91857142D01*
X122538095Y-91761904D01*
X122538095Y-91666666D01*
X122490476Y-91571428D01*
X122442857Y-91523809D01*
X122347619Y-91476190D01*
X122157142Y-91428571D01*
X122061904Y-91380952D01*
X122014285Y-91333333D01*
X121966666Y-91238095D01*
X121966666Y-91142857D01*
X122014285Y-91047619D01*
X122061904Y-91000000D01*
X122157142Y-90952380D01*
X122395238Y-90952380D01*
X122538095Y-91000000D01*
X122871428Y-90952380D02*
X123109523Y-91952380D01*
X123300000Y-91238095D01*
X123490476Y-91952380D01*
X123728571Y-90952380D01*
X124061904Y-91047619D02*
X124109523Y-91000000D01*
X124204761Y-90952380D01*
X124442857Y-90952380D01*
X124538095Y-91000000D01*
X124585714Y-91047619D01*
X124633333Y-91142857D01*
X124633333Y-91238095D01*
X124585714Y-91380952D01*
X124014285Y-91952380D01*
X124633333Y-91952380D01*
X191222380Y-86763333D02*
X191936666Y-86763333D01*
X192079523Y-86810952D01*
X192174761Y-86906190D01*
X192222380Y-87049047D01*
X192222380Y-87144285D01*
X191222380Y-86382380D02*
X191222380Y-85763333D01*
X191603333Y-86096666D01*
X191603333Y-85953809D01*
X191650952Y-85858571D01*
X191698571Y-85810952D01*
X191793809Y-85763333D01*
X192031904Y-85763333D01*
X192127142Y-85810952D01*
X192174761Y-85858571D01*
X192222380Y-85953809D01*
X192222380Y-86239523D01*
X192174761Y-86334761D01*
X192127142Y-86382380D01*
X115038095Y-91002380D02*
X115038095Y-91811904D01*
X115085714Y-91907142D01*
X115133333Y-91954761D01*
X115228571Y-92002380D01*
X115419047Y-92002380D01*
X115514285Y-91954761D01*
X115561904Y-91907142D01*
X115609523Y-91811904D01*
X115609523Y-91002380D01*
X116514285Y-91335714D02*
X116514285Y-92002380D01*
X116276190Y-90954761D02*
X116038095Y-91669047D01*
X116657142Y-91669047D01*
X75407142Y-85366666D02*
X75454761Y-85414285D01*
X75502380Y-85557142D01*
X75502380Y-85652380D01*
X75454761Y-85795238D01*
X75359523Y-85890476D01*
X75264285Y-85938095D01*
X75073809Y-85985714D01*
X74930952Y-85985714D01*
X74740476Y-85938095D01*
X74645238Y-85890476D01*
X74550000Y-85795238D01*
X74502380Y-85652380D01*
X74502380Y-85557142D01*
X74550000Y-85414285D01*
X74597619Y-85366666D01*
X75502380Y-84414285D02*
X75502380Y-84985714D01*
X75502380Y-84700000D02*
X74502380Y-84700000D01*
X74645238Y-84795238D01*
X74740476Y-84890476D01*
X74788095Y-84985714D01*
X122107142Y-83866666D02*
X122154761Y-83914285D01*
X122202380Y-84057142D01*
X122202380Y-84152380D01*
X122154761Y-84295238D01*
X122059523Y-84390476D01*
X121964285Y-84438095D01*
X121773809Y-84485714D01*
X121630952Y-84485714D01*
X121440476Y-84438095D01*
X121345238Y-84390476D01*
X121250000Y-84295238D01*
X121202380Y-84152380D01*
X121202380Y-84057142D01*
X121250000Y-83914285D01*
X121297619Y-83866666D01*
X121202380Y-83533333D02*
X121202380Y-82914285D01*
X121583333Y-83247619D01*
X121583333Y-83104761D01*
X121630952Y-83009523D01*
X121678571Y-82961904D01*
X121773809Y-82914285D01*
X122011904Y-82914285D01*
X122107142Y-82961904D01*
X122154761Y-83009523D01*
X122202380Y-83104761D01*
X122202380Y-83390476D01*
X122154761Y-83485714D01*
X122107142Y-83533333D01*
X128382142Y-91641666D02*
X128429761Y-91689285D01*
X128477380Y-91832142D01*
X128477380Y-91927380D01*
X128429761Y-92070238D01*
X128334523Y-92165476D01*
X128239285Y-92213095D01*
X128048809Y-92260714D01*
X127905952Y-92260714D01*
X127715476Y-92213095D01*
X127620238Y-92165476D01*
X127525000Y-92070238D01*
X127477380Y-91927380D01*
X127477380Y-91832142D01*
X127525000Y-91689285D01*
X127572619Y-91641666D01*
X127810714Y-90784523D02*
X128477380Y-90784523D01*
X127429761Y-91022619D02*
X128144047Y-91260714D01*
X128144047Y-90641666D01*
X132007142Y-89966666D02*
X132054761Y-90014285D01*
X132102380Y-90157142D01*
X132102380Y-90252380D01*
X132054761Y-90395238D01*
X131959523Y-90490476D01*
X131864285Y-90538095D01*
X131673809Y-90585714D01*
X131530952Y-90585714D01*
X131340476Y-90538095D01*
X131245238Y-90490476D01*
X131150000Y-90395238D01*
X131102380Y-90252380D01*
X131102380Y-90157142D01*
X131150000Y-90014285D01*
X131197619Y-89966666D01*
X131102380Y-89061904D02*
X131102380Y-89538095D01*
X131578571Y-89585714D01*
X131530952Y-89538095D01*
X131483333Y-89442857D01*
X131483333Y-89204761D01*
X131530952Y-89109523D01*
X131578571Y-89061904D01*
X131673809Y-89014285D01*
X131911904Y-89014285D01*
X132007142Y-89061904D01*
X132054761Y-89109523D01*
X132102380Y-89204761D01*
X132102380Y-89442857D01*
X132054761Y-89538095D01*
X132007142Y-89585714D01*
X204632142Y-85666666D02*
X204679761Y-85714285D01*
X204727380Y-85857142D01*
X204727380Y-85952380D01*
X204679761Y-86095238D01*
X204584523Y-86190476D01*
X204489285Y-86238095D01*
X204298809Y-86285714D01*
X204155952Y-86285714D01*
X203965476Y-86238095D01*
X203870238Y-86190476D01*
X203775000Y-86095238D01*
X203727380Y-85952380D01*
X203727380Y-85857142D01*
X203775000Y-85714285D01*
X203822619Y-85666666D01*
X203727380Y-84809523D02*
X203727380Y-85000000D01*
X203775000Y-85095238D01*
X203822619Y-85142857D01*
X203965476Y-85238095D01*
X204155952Y-85285714D01*
X204536904Y-85285714D01*
X204632142Y-85238095D01*
X204679761Y-85190476D01*
X204727380Y-85095238D01*
X204727380Y-84904761D01*
X204679761Y-84809523D01*
X204632142Y-84761904D01*
X204536904Y-84714285D01*
X204298809Y-84714285D01*
X204203571Y-84761904D01*
X204155952Y-84809523D01*
X204108333Y-84904761D01*
X204108333Y-85095238D01*
X204155952Y-85190476D01*
X204203571Y-85238095D01*
X204298809Y-85285714D01*
X212732142Y-85666666D02*
X212779761Y-85714285D01*
X212827380Y-85857142D01*
X212827380Y-85952380D01*
X212779761Y-86095238D01*
X212684523Y-86190476D01*
X212589285Y-86238095D01*
X212398809Y-86285714D01*
X212255952Y-86285714D01*
X212065476Y-86238095D01*
X211970238Y-86190476D01*
X211875000Y-86095238D01*
X211827380Y-85952380D01*
X211827380Y-85857142D01*
X211875000Y-85714285D01*
X211922619Y-85666666D01*
X211827380Y-85333333D02*
X211827380Y-84666666D01*
X212827380Y-85095238D01*
D15*
X109172142Y-85627000D02*
X109208428Y-85663285D01*
X109244714Y-85772142D01*
X109244714Y-85844714D01*
X109208428Y-85953571D01*
X109135857Y-86026142D01*
X109063285Y-86062428D01*
X108918142Y-86098714D01*
X108809285Y-86098714D01*
X108664142Y-86062428D01*
X108591571Y-86026142D01*
X108519000Y-85953571D01*
X108482714Y-85844714D01*
X108482714Y-85772142D01*
X108519000Y-85663285D01*
X108555285Y-85627000D01*
X108809285Y-85191571D02*
X108773000Y-85264142D01*
X108736714Y-85300428D01*
X108664142Y-85336714D01*
X108627857Y-85336714D01*
X108555285Y-85300428D01*
X108519000Y-85264142D01*
X108482714Y-85191571D01*
X108482714Y-85046428D01*
X108519000Y-84973857D01*
X108555285Y-84937571D01*
X108627857Y-84901285D01*
X108664142Y-84901285D01*
X108736714Y-84937571D01*
X108773000Y-84973857D01*
X108809285Y-85046428D01*
X108809285Y-85191571D01*
X108845571Y-85264142D01*
X108881857Y-85300428D01*
X108954428Y-85336714D01*
X109099571Y-85336714D01*
X109172142Y-85300428D01*
X109208428Y-85264142D01*
X109244714Y-85191571D01*
X109244714Y-85046428D01*
X109208428Y-84973857D01*
X109172142Y-84937571D01*
X109099571Y-84901285D01*
X108954428Y-84901285D01*
X108881857Y-84937571D01*
X108845571Y-84973857D01*
X108809285Y-85046428D01*
D10*
X233382142Y-81241666D02*
X233429761Y-81289285D01*
X233477380Y-81432142D01*
X233477380Y-81527380D01*
X233429761Y-81670238D01*
X233334523Y-81765476D01*
X233239285Y-81813095D01*
X233048809Y-81860714D01*
X232905952Y-81860714D01*
X232715476Y-81813095D01*
X232620238Y-81765476D01*
X232525000Y-81670238D01*
X232477380Y-81527380D01*
X232477380Y-81432142D01*
X232525000Y-81289285D01*
X232572619Y-81241666D01*
X233477380Y-80765476D02*
X233477380Y-80575000D01*
X233429761Y-80479761D01*
X233382142Y-80432142D01*
X233239285Y-80336904D01*
X233048809Y-80289285D01*
X232667857Y-80289285D01*
X232572619Y-80336904D01*
X232525000Y-80384523D01*
X232477380Y-80479761D01*
X232477380Y-80670238D01*
X232525000Y-80765476D01*
X232572619Y-80813095D01*
X232667857Y-80860714D01*
X232905952Y-80860714D01*
X233001190Y-80813095D01*
X233048809Y-80765476D01*
X233096428Y-80670238D01*
X233096428Y-80479761D01*
X233048809Y-80384523D01*
X233001190Y-80336904D01*
X232905952Y-80289285D01*
X232107142Y-85292857D02*
X232154761Y-85340476D01*
X232202380Y-85483333D01*
X232202380Y-85578571D01*
X232154761Y-85721428D01*
X232059523Y-85816666D01*
X231964285Y-85864285D01*
X231773809Y-85911904D01*
X231630952Y-85911904D01*
X231440476Y-85864285D01*
X231345238Y-85816666D01*
X231250000Y-85721428D01*
X231202380Y-85578571D01*
X231202380Y-85483333D01*
X231250000Y-85340476D01*
X231297619Y-85292857D01*
X232202380Y-84340476D02*
X232202380Y-84911904D01*
X232202380Y-84626190D02*
X231202380Y-84626190D01*
X231345238Y-84721428D01*
X231440476Y-84816666D01*
X231488095Y-84911904D01*
X231202380Y-83721428D02*
X231202380Y-83626190D01*
X231250000Y-83530952D01*
X231297619Y-83483333D01*
X231392857Y-83435714D01*
X231583333Y-83388095D01*
X231821428Y-83388095D01*
X232011904Y-83435714D01*
X232107142Y-83483333D01*
X232154761Y-83530952D01*
X232202380Y-83626190D01*
X232202380Y-83721428D01*
X232154761Y-83816666D01*
X232107142Y-83864285D01*
X232011904Y-83911904D01*
X231821428Y-83959523D01*
X231583333Y-83959523D01*
X231392857Y-83911904D01*
X231297619Y-83864285D01*
X231250000Y-83816666D01*
X231202380Y-83721428D01*
X126032142Y-87542857D02*
X126079761Y-87590476D01*
X126127380Y-87733333D01*
X126127380Y-87828571D01*
X126079761Y-87971428D01*
X125984523Y-88066666D01*
X125889285Y-88114285D01*
X125698809Y-88161904D01*
X125555952Y-88161904D01*
X125365476Y-88114285D01*
X125270238Y-88066666D01*
X125175000Y-87971428D01*
X125127380Y-87828571D01*
X125127380Y-87733333D01*
X125175000Y-87590476D01*
X125222619Y-87542857D01*
X126127380Y-86590476D02*
X126127380Y-87161904D01*
X126127380Y-86876190D02*
X125127380Y-86876190D01*
X125270238Y-86971428D01*
X125365476Y-87066666D01*
X125413095Y-87161904D01*
X126127380Y-85638095D02*
X126127380Y-86209523D01*
X126127380Y-85923809D02*
X125127380Y-85923809D01*
X125270238Y-86019047D01*
X125365476Y-86114285D01*
X125413095Y-86209523D01*
X89607142Y-88517857D02*
X89654761Y-88565476D01*
X89702380Y-88708333D01*
X89702380Y-88803571D01*
X89654761Y-88946428D01*
X89559523Y-89041666D01*
X89464285Y-89089285D01*
X89273809Y-89136904D01*
X89130952Y-89136904D01*
X88940476Y-89089285D01*
X88845238Y-89041666D01*
X88750000Y-88946428D01*
X88702380Y-88803571D01*
X88702380Y-88708333D01*
X88750000Y-88565476D01*
X88797619Y-88517857D01*
X89702380Y-87565476D02*
X89702380Y-88136904D01*
X89702380Y-87851190D02*
X88702380Y-87851190D01*
X88845238Y-87946428D01*
X88940476Y-88041666D01*
X88988095Y-88136904D01*
X88797619Y-87184523D02*
X88750000Y-87136904D01*
X88702380Y-87041666D01*
X88702380Y-86803571D01*
X88750000Y-86708333D01*
X88797619Y-86660714D01*
X88892857Y-86613095D01*
X88988095Y-86613095D01*
X89130952Y-86660714D01*
X89702380Y-87232142D01*
X89702380Y-86613095D01*
X148557142Y-86757142D02*
X148509523Y-86804761D01*
X148366666Y-86852380D01*
X148271428Y-86852380D01*
X148128571Y-86804761D01*
X148033333Y-86709523D01*
X147985714Y-86614285D01*
X147938095Y-86423809D01*
X147938095Y-86280952D01*
X147985714Y-86090476D01*
X148033333Y-85995238D01*
X148128571Y-85900000D01*
X148271428Y-85852380D01*
X148366666Y-85852380D01*
X148509523Y-85900000D01*
X148557142Y-85947619D01*
X149509523Y-86852380D02*
X148938095Y-86852380D01*
X149223809Y-86852380D02*
X149223809Y-85852380D01*
X149128571Y-85995238D01*
X149033333Y-86090476D01*
X148938095Y-86138095D01*
X150366666Y-86185714D02*
X150366666Y-86852380D01*
X150128571Y-85804761D02*
X149890476Y-86519047D01*
X150509523Y-86519047D01*
X189857142Y-87042857D02*
X189904761Y-87090476D01*
X189952380Y-87233333D01*
X189952380Y-87328571D01*
X189904761Y-87471428D01*
X189809523Y-87566666D01*
X189714285Y-87614285D01*
X189523809Y-87661904D01*
X189380952Y-87661904D01*
X189190476Y-87614285D01*
X189095238Y-87566666D01*
X189000000Y-87471428D01*
X188952380Y-87328571D01*
X188952380Y-87233333D01*
X189000000Y-87090476D01*
X189047619Y-87042857D01*
X189952380Y-86090476D02*
X189952380Y-86661904D01*
X189952380Y-86376190D02*
X188952380Y-86376190D01*
X189095238Y-86471428D01*
X189190476Y-86566666D01*
X189238095Y-86661904D01*
X188952380Y-85185714D02*
X188952380Y-85661904D01*
X189428571Y-85709523D01*
X189380952Y-85661904D01*
X189333333Y-85566666D01*
X189333333Y-85328571D01*
X189380952Y-85233333D01*
X189428571Y-85185714D01*
X189523809Y-85138095D01*
X189761904Y-85138095D01*
X189857142Y-85185714D01*
X189904761Y-85233333D01*
X189952380Y-85328571D01*
X189952380Y-85566666D01*
X189904761Y-85661904D01*
X189857142Y-85709523D01*
X227957142Y-81232142D02*
X227909523Y-81279761D01*
X227766666Y-81327380D01*
X227671428Y-81327380D01*
X227528571Y-81279761D01*
X227433333Y-81184523D01*
X227385714Y-81089285D01*
X227338095Y-80898809D01*
X227338095Y-80755952D01*
X227385714Y-80565476D01*
X227433333Y-80470238D01*
X227528571Y-80375000D01*
X227671428Y-80327380D01*
X227766666Y-80327380D01*
X227909523Y-80375000D01*
X227957142Y-80422619D01*
X228909523Y-81327380D02*
X228338095Y-81327380D01*
X228623809Y-81327380D02*
X228623809Y-80327380D01*
X228528571Y-80470238D01*
X228433333Y-80565476D01*
X228338095Y-80613095D01*
X229766666Y-80327380D02*
X229576190Y-80327380D01*
X229480952Y-80375000D01*
X229433333Y-80422619D01*
X229338095Y-80565476D01*
X229290476Y-80755952D01*
X229290476Y-81136904D01*
X229338095Y-81232142D01*
X229385714Y-81279761D01*
X229480952Y-81327380D01*
X229671428Y-81327380D01*
X229766666Y-81279761D01*
X229814285Y-81232142D01*
X229861904Y-81136904D01*
X229861904Y-80898809D01*
X229814285Y-80803571D01*
X229766666Y-80755952D01*
X229671428Y-80708333D01*
X229480952Y-80708333D01*
X229385714Y-80755952D01*
X229338095Y-80803571D01*
X229290476Y-80898809D01*
X91404761Y-84211904D02*
X91452380Y-84069047D01*
X91452380Y-83830952D01*
X91404761Y-83735714D01*
X91357142Y-83688095D01*
X91261904Y-83640476D01*
X91166666Y-83640476D01*
X91071428Y-83688095D01*
X91023809Y-83735714D01*
X90976190Y-83830952D01*
X90928571Y-84021428D01*
X90880952Y-84116666D01*
X90833333Y-84164285D01*
X90738095Y-84211904D01*
X90642857Y-84211904D01*
X90547619Y-84164285D01*
X90500000Y-84116666D01*
X90452380Y-84021428D01*
X90452380Y-83783333D01*
X90500000Y-83640476D01*
X91452380Y-82688095D02*
X91452380Y-83259523D01*
X91452380Y-82973809D02*
X90452380Y-82973809D01*
X90595238Y-83069047D01*
X90690476Y-83164285D01*
X90738095Y-83259523D01*
X104888095Y-81454761D02*
X105030952Y-81502380D01*
X105269047Y-81502380D01*
X105364285Y-81454761D01*
X105411904Y-81407142D01*
X105459523Y-81311904D01*
X105459523Y-81216666D01*
X105411904Y-81121428D01*
X105364285Y-81073809D01*
X105269047Y-81026190D01*
X105078571Y-80978571D01*
X104983333Y-80930952D01*
X104935714Y-80883333D01*
X104888095Y-80788095D01*
X104888095Y-80692857D01*
X104935714Y-80597619D01*
X104983333Y-80550000D01*
X105078571Y-80502380D01*
X105316666Y-80502380D01*
X105459523Y-80550000D01*
X105840476Y-80597619D02*
X105888095Y-80550000D01*
X105983333Y-80502380D01*
X106221428Y-80502380D01*
X106316666Y-80550000D01*
X106364285Y-80597619D01*
X106411904Y-80692857D01*
X106411904Y-80788095D01*
X106364285Y-80930952D01*
X105792857Y-81502380D01*
X106411904Y-81502380D01*
X151830795Y-82701961D02*
X151973652Y-82749580D01*
X152211747Y-82749580D01*
X152306985Y-82701961D01*
X152354604Y-82654342D01*
X152402223Y-82559104D01*
X152402223Y-82463866D01*
X152354604Y-82368628D01*
X152306985Y-82321009D01*
X152211747Y-82273390D01*
X152021271Y-82225771D01*
X151926033Y-82178152D01*
X151878414Y-82130533D01*
X151830795Y-82035295D01*
X151830795Y-81940057D01*
X151878414Y-81844819D01*
X151926033Y-81797200D01*
X152021271Y-81749580D01*
X152259366Y-81749580D01*
X152402223Y-81797200D01*
X152735557Y-81749580D02*
X153354604Y-81749580D01*
X153021271Y-82130533D01*
X153164128Y-82130533D01*
X153259366Y-82178152D01*
X153306985Y-82225771D01*
X153354604Y-82321009D01*
X153354604Y-82559104D01*
X153306985Y-82654342D01*
X153259366Y-82701961D01*
X153164128Y-82749580D01*
X152878414Y-82749580D01*
X152783176Y-82701961D01*
X152735557Y-82654342D01*
X190638095Y-81356761D02*
X190780952Y-81404380D01*
X191019047Y-81404380D01*
X191114285Y-81356761D01*
X191161904Y-81309142D01*
X191209523Y-81213904D01*
X191209523Y-81118666D01*
X191161904Y-81023428D01*
X191114285Y-80975809D01*
X191019047Y-80928190D01*
X190828571Y-80880571D01*
X190733333Y-80832952D01*
X190685714Y-80785333D01*
X190638095Y-80690095D01*
X190638095Y-80594857D01*
X190685714Y-80499619D01*
X190733333Y-80452000D01*
X190828571Y-80404380D01*
X191066666Y-80404380D01*
X191209523Y-80452000D01*
X192066666Y-80737714D02*
X192066666Y-81404380D01*
X191828571Y-80356761D02*
X191590476Y-81071047D01*
X192209523Y-81071047D01*
X229338095Y-84654761D02*
X229480952Y-84702380D01*
X229719047Y-84702380D01*
X229814285Y-84654761D01*
X229861904Y-84607142D01*
X229909523Y-84511904D01*
X229909523Y-84416666D01*
X229861904Y-84321428D01*
X229814285Y-84273809D01*
X229719047Y-84226190D01*
X229528571Y-84178571D01*
X229433333Y-84130952D01*
X229385714Y-84083333D01*
X229338095Y-83988095D01*
X229338095Y-83892857D01*
X229385714Y-83797619D01*
X229433333Y-83750000D01*
X229528571Y-83702380D01*
X229766666Y-83702380D01*
X229909523Y-83750000D01*
X230814285Y-83702380D02*
X230338095Y-83702380D01*
X230290476Y-84178571D01*
X230338095Y-84130952D01*
X230433333Y-84083333D01*
X230671428Y-84083333D01*
X230766666Y-84130952D01*
X230814285Y-84178571D01*
X230861904Y-84273809D01*
X230861904Y-84511904D01*
X230814285Y-84607142D01*
X230766666Y-84654761D01*
X230671428Y-84702380D01*
X230433333Y-84702380D01*
X230338095Y-84654761D01*
X230290476Y-84607142D01*
X129191666Y-90902380D02*
X129191666Y-91616666D01*
X129144047Y-91759523D01*
X129048809Y-91854761D01*
X128905952Y-91902380D01*
X128810714Y-91902380D01*
X129667857Y-91902380D02*
X129667857Y-90902380D01*
X130048809Y-90902380D01*
X130144047Y-90950000D01*
X130191666Y-90997619D01*
X130239285Y-91092857D01*
X130239285Y-91235714D01*
X130191666Y-91330952D01*
X130144047Y-91378571D01*
X130048809Y-91426190D01*
X129667857Y-91426190D01*
X131191666Y-91902380D02*
X130620238Y-91902380D01*
X130905952Y-91902380D02*
X130905952Y-90902380D01*
X130810714Y-91045238D01*
X130715476Y-91140476D01*
X130620238Y-91188095D01*
X126641666Y-89252380D02*
X126641666Y-89966666D01*
X126594047Y-90109523D01*
X126498809Y-90204761D01*
X126355952Y-90252380D01*
X126260714Y-90252380D01*
X127117857Y-90252380D02*
X127117857Y-89252380D01*
X127498809Y-89252380D01*
X127594047Y-89300000D01*
X127641666Y-89347619D01*
X127689285Y-89442857D01*
X127689285Y-89585714D01*
X127641666Y-89680952D01*
X127594047Y-89728571D01*
X127498809Y-89776190D01*
X127117857Y-89776190D01*
X128070238Y-89347619D02*
X128117857Y-89300000D01*
X128213095Y-89252380D01*
X128451190Y-89252380D01*
X128546428Y-89300000D01*
X128594047Y-89347619D01*
X128641666Y-89442857D01*
X128641666Y-89538095D01*
X128594047Y-89680952D01*
X128022619Y-90252380D01*
X128641666Y-90252380D01*
X123033333Y-85177380D02*
X122700000Y-84701190D01*
X122461904Y-85177380D02*
X122461904Y-84177380D01*
X122842857Y-84177380D01*
X122938095Y-84225000D01*
X122985714Y-84272619D01*
X123033333Y-84367857D01*
X123033333Y-84510714D01*
X122985714Y-84605952D01*
X122938095Y-84653571D01*
X122842857Y-84701190D01*
X122461904Y-84701190D01*
X123414285Y-84272619D02*
X123461904Y-84225000D01*
X123557142Y-84177380D01*
X123795238Y-84177380D01*
X123890476Y-84225000D01*
X123938095Y-84272619D01*
X123985714Y-84367857D01*
X123985714Y-84463095D01*
X123938095Y-84605952D01*
X123366666Y-85177380D01*
X123985714Y-85177380D01*
X86602380Y-90766666D02*
X86126190Y-91100000D01*
X86602380Y-91338095D02*
X85602380Y-91338095D01*
X85602380Y-90957142D01*
X85650000Y-90861904D01*
X85697619Y-90814285D01*
X85792857Y-90766666D01*
X85935714Y-90766666D01*
X86030952Y-90814285D01*
X86078571Y-90861904D01*
X86126190Y-90957142D01*
X86126190Y-91338095D01*
X85602380Y-90433333D02*
X85602380Y-89814285D01*
X85983333Y-90147619D01*
X85983333Y-90004761D01*
X86030952Y-89909523D01*
X86078571Y-89861904D01*
X86173809Y-89814285D01*
X86411904Y-89814285D01*
X86507142Y-89861904D01*
X86554761Y-89909523D01*
X86602380Y-90004761D01*
X86602380Y-90290476D01*
X86554761Y-90385714D01*
X86507142Y-90433333D01*
X100477380Y-88391666D02*
X100001190Y-88725000D01*
X100477380Y-88963095D02*
X99477380Y-88963095D01*
X99477380Y-88582142D01*
X99525000Y-88486904D01*
X99572619Y-88439285D01*
X99667857Y-88391666D01*
X99810714Y-88391666D01*
X99905952Y-88439285D01*
X99953571Y-88486904D01*
X100001190Y-88582142D01*
X100001190Y-88963095D01*
X99810714Y-87534523D02*
X100477380Y-87534523D01*
X99429761Y-87772619D02*
X100144047Y-88010714D01*
X100144047Y-87391666D01*
X143452380Y-87916666D02*
X142976190Y-88250000D01*
X143452380Y-88488095D02*
X142452380Y-88488095D01*
X142452380Y-88107142D01*
X142500000Y-88011904D01*
X142547619Y-87964285D01*
X142642857Y-87916666D01*
X142785714Y-87916666D01*
X142880952Y-87964285D01*
X142928571Y-88011904D01*
X142976190Y-88107142D01*
X142976190Y-88488095D01*
X142452380Y-87011904D02*
X142452380Y-87488095D01*
X142928571Y-87535714D01*
X142880952Y-87488095D01*
X142833333Y-87392857D01*
X142833333Y-87154761D01*
X142880952Y-87059523D01*
X142928571Y-87011904D01*
X143023809Y-86964285D01*
X143261904Y-86964285D01*
X143357142Y-87011904D01*
X143404761Y-87059523D01*
X143452380Y-87154761D01*
X143452380Y-87392857D01*
X143404761Y-87488095D01*
X143357142Y-87535714D01*
X184402380Y-87371666D02*
X183926190Y-87705000D01*
X184402380Y-87943095D02*
X183402380Y-87943095D01*
X183402380Y-87562142D01*
X183450000Y-87466904D01*
X183497619Y-87419285D01*
X183592857Y-87371666D01*
X183735714Y-87371666D01*
X183830952Y-87419285D01*
X183878571Y-87466904D01*
X183926190Y-87562142D01*
X183926190Y-87943095D01*
X183402380Y-86514523D02*
X183402380Y-86705000D01*
X183450000Y-86800238D01*
X183497619Y-86847857D01*
X183640476Y-86943095D01*
X183830952Y-86990714D01*
X184211904Y-86990714D01*
X184307142Y-86943095D01*
X184354761Y-86895476D01*
X184402380Y-86800238D01*
X184402380Y-86609761D01*
X184354761Y-86514523D01*
X184307142Y-86466904D01*
X184211904Y-86419285D01*
X183973809Y-86419285D01*
X183878571Y-86466904D01*
X183830952Y-86514523D01*
X183783333Y-86609761D01*
X183783333Y-86800238D01*
X183830952Y-86895476D01*
X183878571Y-86943095D01*
X183973809Y-86990714D01*
X225602380Y-91486666D02*
X225126190Y-91820000D01*
X225602380Y-92058095D02*
X224602380Y-92058095D01*
X224602380Y-91677142D01*
X224650000Y-91581904D01*
X224697619Y-91534285D01*
X224792857Y-91486666D01*
X224935714Y-91486666D01*
X225030952Y-91534285D01*
X225078571Y-91581904D01*
X225126190Y-91677142D01*
X225126190Y-92058095D01*
X224602380Y-91153333D02*
X224602380Y-90486666D01*
X225602380Y-90915238D01*
X158304761Y-86383333D02*
X158352380Y-86240476D01*
X158352380Y-86002380D01*
X158304761Y-85907142D01*
X158257142Y-85859523D01*
X158161904Y-85811904D01*
X158066666Y-85811904D01*
X157971428Y-85859523D01*
X157923809Y-85907142D01*
X157876190Y-86002380D01*
X157828571Y-86192857D01*
X157780952Y-86288095D01*
X157733333Y-86335714D01*
X157638095Y-86383333D01*
X157542857Y-86383333D01*
X157447619Y-86335714D01*
X157400000Y-86288095D01*
X157352380Y-86192857D01*
X157352380Y-85954761D01*
X157400000Y-85811904D01*
X157352380Y-85478571D02*
X158352380Y-85240476D01*
X157638095Y-85050000D01*
X158352380Y-84859523D01*
X157352380Y-84621428D01*
X158352380Y-83716666D02*
X158352380Y-84288095D01*
X158352380Y-84002380D02*
X157352380Y-84002380D01*
X157495238Y-84097619D01*
X157590476Y-84192857D01*
X157638095Y-84288095D01*
X69452380Y-83459104D02*
X70261904Y-83459104D01*
X70357142Y-83411485D01*
X70404761Y-83363866D01*
X70452380Y-83268628D01*
X70452380Y-83078152D01*
X70404761Y-82982914D01*
X70357142Y-82935295D01*
X70261904Y-82887676D01*
X69452380Y-82887676D01*
X70452380Y-81887676D02*
X70452380Y-82459104D01*
X70452380Y-82173390D02*
X69452380Y-82173390D01*
X69595238Y-82268628D01*
X69690476Y-82363866D01*
X69738095Y-82459104D01*
X233788095Y-80577380D02*
X233788095Y-81386904D01*
X233835714Y-81482142D01*
X233883333Y-81529761D01*
X233978571Y-81577380D01*
X234169047Y-81577380D01*
X234264285Y-81529761D01*
X234311904Y-81482142D01*
X234359523Y-81386904D01*
X234359523Y-80577380D01*
X234740476Y-80577380D02*
X235359523Y-80577380D01*
X235026190Y-80958333D01*
X235169047Y-80958333D01*
X235264285Y-81005952D01*
X235311904Y-81053571D01*
X235359523Y-81148809D01*
X235359523Y-81386904D01*
X235311904Y-81482142D01*
X235264285Y-81529761D01*
X235169047Y-81577380D01*
X234883333Y-81577380D01*
X234788095Y-81529761D01*
X234740476Y-81482142D01*
X207588095Y-82977380D02*
X207588095Y-83786904D01*
X207635714Y-83882142D01*
X207683333Y-83929761D01*
X207778571Y-83977380D01*
X207969047Y-83977380D01*
X208064285Y-83929761D01*
X208111904Y-83882142D01*
X208159523Y-83786904D01*
X208159523Y-82977380D01*
X209111904Y-82977380D02*
X208635714Y-82977380D01*
X208588095Y-83453571D01*
X208635714Y-83405952D01*
X208730952Y-83358333D01*
X208969047Y-83358333D01*
X209064285Y-83405952D01*
X209111904Y-83453571D01*
X209159523Y-83548809D01*
X209159523Y-83786904D01*
X209111904Y-83882142D01*
X209064285Y-83929761D01*
X208969047Y-83977380D01*
X208730952Y-83977380D01*
X208635714Y-83929761D01*
X208588095Y-83882142D01*
X87863095Y-85027380D02*
X87863095Y-85836904D01*
X87910714Y-85932142D01*
X87958333Y-85979761D01*
X88053571Y-86027380D01*
X88244047Y-86027380D01*
X88339285Y-85979761D01*
X88386904Y-85932142D01*
X88434523Y-85836904D01*
X88434523Y-85027380D01*
X88815476Y-85027380D02*
X89482142Y-85027380D01*
X89053571Y-86027380D01*
X101502380Y-93586904D02*
X102311904Y-93586904D01*
X102407142Y-93539285D01*
X102454761Y-93491666D01*
X102502380Y-93396428D01*
X102502380Y-93205952D01*
X102454761Y-93110714D01*
X102407142Y-93063095D01*
X102311904Y-93015476D01*
X101502380Y-93015476D01*
X101930952Y-92396428D02*
X101883333Y-92491666D01*
X101835714Y-92539285D01*
X101740476Y-92586904D01*
X101692857Y-92586904D01*
X101597619Y-92539285D01*
X101550000Y-92491666D01*
X101502380Y-92396428D01*
X101502380Y-92205952D01*
X101550000Y-92110714D01*
X101597619Y-92063095D01*
X101692857Y-92015476D01*
X101740476Y-92015476D01*
X101835714Y-92063095D01*
X101883333Y-92110714D01*
X101930952Y-92205952D01*
X101930952Y-92396428D01*
X101978571Y-92491666D01*
X102026190Y-92539285D01*
X102121428Y-92586904D01*
X102311904Y-92586904D01*
X102407142Y-92539285D01*
X102454761Y-92491666D01*
X102502380Y-92396428D01*
X102502380Y-92205952D01*
X102454761Y-92110714D01*
X102407142Y-92063095D01*
X102311904Y-92015476D01*
X102121428Y-92015476D01*
X102026190Y-92063095D01*
X101978571Y-92110714D01*
X101930952Y-92205952D01*
X145338095Y-85877380D02*
X145338095Y-86686904D01*
X145385714Y-86782142D01*
X145433333Y-86829761D01*
X145528571Y-86877380D01*
X145719047Y-86877380D01*
X145814285Y-86829761D01*
X145861904Y-86782142D01*
X145909523Y-86686904D01*
X145909523Y-85877380D01*
X146433333Y-86877380D02*
X146623809Y-86877380D01*
X146719047Y-86829761D01*
X146766666Y-86782142D01*
X146861904Y-86639285D01*
X146909523Y-86448809D01*
X146909523Y-86067857D01*
X146861904Y-85972619D01*
X146814285Y-85925000D01*
X146719047Y-85877380D01*
X146528571Y-85877380D01*
X146433333Y-85925000D01*
X146385714Y-85972619D01*
X146338095Y-86067857D01*
X146338095Y-86305952D01*
X146385714Y-86401190D01*
X146433333Y-86448809D01*
X146528571Y-86496428D01*
X146719047Y-86496428D01*
X146814285Y-86448809D01*
X146861904Y-86401190D01*
X146909523Y-86305952D01*
X185854604Y-85699580D02*
X185854604Y-86509104D01*
X185902223Y-86604342D01*
X185949842Y-86651961D01*
X186045080Y-86699580D01*
X186235557Y-86699580D01*
X186330795Y-86651961D01*
X186378414Y-86604342D01*
X186426033Y-86509104D01*
X186426033Y-85699580D01*
X187426033Y-86699580D02*
X186854604Y-86699580D01*
X187140319Y-86699580D02*
X187140319Y-85699580D01*
X187045080Y-85842438D01*
X186949842Y-85937676D01*
X186854604Y-85985295D01*
X188045080Y-85699580D02*
X188140319Y-85699580D01*
X188235557Y-85747200D01*
X188283176Y-85794819D01*
X188330795Y-85890057D01*
X188378414Y-86080533D01*
X188378414Y-86318628D01*
X188330795Y-86509104D01*
X188283176Y-86604342D01*
X188235557Y-86651961D01*
X188140319Y-86699580D01*
X188045080Y-86699580D01*
X187949842Y-86651961D01*
X187902223Y-86604342D01*
X187854604Y-86509104D01*
X187806985Y-86318628D01*
X187806985Y-86080533D01*
X187854604Y-85890057D01*
X187902223Y-85794819D01*
X187949842Y-85747200D01*
X188045080Y-85699580D01*
X224561904Y-80327380D02*
X224561904Y-81136904D01*
X224609523Y-81232142D01*
X224657142Y-81279761D01*
X224752380Y-81327380D01*
X224942857Y-81327380D01*
X225038095Y-81279761D01*
X225085714Y-81232142D01*
X225133333Y-81136904D01*
X225133333Y-80327380D01*
X226133333Y-81327380D02*
X225561904Y-81327380D01*
X225847619Y-81327380D02*
X225847619Y-80327380D01*
X225752380Y-80470238D01*
X225657142Y-80565476D01*
X225561904Y-80613095D01*
X227085714Y-81327380D02*
X226514285Y-81327380D01*
X226800000Y-81327380D02*
X226800000Y-80327380D01*
X226704761Y-80470238D01*
X226609523Y-80565476D01*
X226514285Y-80613095D01*
X228788095Y-89527380D02*
X228788095Y-90336904D01*
X228835714Y-90432142D01*
X228883333Y-90479761D01*
X228978571Y-90527380D01*
X229169047Y-90527380D01*
X229264285Y-90479761D01*
X229311904Y-90432142D01*
X229359523Y-90336904D01*
X229359523Y-89527380D01*
X229788095Y-89622619D02*
X229835714Y-89575000D01*
X229930952Y-89527380D01*
X230169047Y-89527380D01*
X230264285Y-89575000D01*
X230311904Y-89622619D01*
X230359523Y-89717857D01*
X230359523Y-89813095D01*
X230311904Y-89955952D01*
X229740476Y-90527380D01*
X230359523Y-90527380D01*
X72483333Y-91202380D02*
X72150000Y-90726190D01*
X71911904Y-91202380D02*
X71911904Y-90202380D01*
X72292857Y-90202380D01*
X72388095Y-90250000D01*
X72435714Y-90297619D01*
X72483333Y-90392857D01*
X72483333Y-90535714D01*
X72435714Y-90630952D01*
X72388095Y-90678571D01*
X72292857Y-90726190D01*
X71911904Y-90726190D01*
X73435714Y-91202380D02*
X72864285Y-91202380D01*
X73150000Y-91202380D02*
X73150000Y-90202380D01*
X73054761Y-90345238D01*
X72959523Y-90440476D01*
X72864285Y-90488095D01*
X105833333Y-92357142D02*
X105785714Y-92404761D01*
X105642857Y-92452380D01*
X105547619Y-92452380D01*
X105404761Y-92404761D01*
X105309523Y-92309523D01*
X105261904Y-92214285D01*
X105214285Y-92023809D01*
X105214285Y-91880952D01*
X105261904Y-91690476D01*
X105309523Y-91595238D01*
X105404761Y-91500000D01*
X105547619Y-91452380D01*
X105642857Y-91452380D01*
X105785714Y-91500000D01*
X105833333Y-91547619D01*
X106214285Y-91547619D02*
X106261904Y-91500000D01*
X106357142Y-91452380D01*
X106595238Y-91452380D01*
X106690476Y-91500000D01*
X106738095Y-91547619D01*
X106785714Y-91642857D01*
X106785714Y-91738095D01*
X106738095Y-91880952D01*
X106166666Y-92452380D01*
X106785714Y-92452380D01*
X107981428Y-91050952D02*
X107981428Y-90289047D01*
X108362380Y-90670000D02*
X107600476Y-90670000D01*
X166252380Y-85888095D02*
X165252380Y-85888095D01*
X165252380Y-85650000D01*
X165300000Y-85507142D01*
X165395238Y-85411904D01*
X165490476Y-85364285D01*
X165680952Y-85316666D01*
X165823809Y-85316666D01*
X166014285Y-85364285D01*
X166109523Y-85411904D01*
X166204761Y-85507142D01*
X166252380Y-85650000D01*
X166252380Y-85888095D01*
X166252380Y-84364285D02*
X166252380Y-84935714D01*
X166252380Y-84650000D02*
X165252380Y-84650000D01*
X165395238Y-84745238D01*
X165490476Y-84840476D01*
X165538095Y-84935714D01*
X167977380Y-86366666D02*
X167501190Y-86700000D01*
X167977380Y-86938095D02*
X166977380Y-86938095D01*
X166977380Y-86557142D01*
X167025000Y-86461904D01*
X167072619Y-86414285D01*
X167167857Y-86366666D01*
X167310714Y-86366666D01*
X167405952Y-86414285D01*
X167453571Y-86461904D01*
X167501190Y-86557142D01*
X167501190Y-86938095D01*
X167405952Y-85795238D02*
X167358333Y-85890476D01*
X167310714Y-85938095D01*
X167215476Y-85985714D01*
X167167857Y-85985714D01*
X167072619Y-85938095D01*
X167025000Y-85890476D01*
X166977380Y-85795238D01*
X166977380Y-85604761D01*
X167025000Y-85509523D01*
X167072619Y-85461904D01*
X167167857Y-85414285D01*
X167215476Y-85414285D01*
X167310714Y-85461904D01*
X167358333Y-85509523D01*
X167405952Y-85604761D01*
X167405952Y-85795238D01*
X167453571Y-85890476D01*
X167501190Y-85938095D01*
X167596428Y-85985714D01*
X167786904Y-85985714D01*
X167882142Y-85938095D01*
X167929761Y-85890476D01*
X167977380Y-85795238D01*
X167977380Y-85604761D01*
X167929761Y-85509523D01*
X167882142Y-85461904D01*
X167786904Y-85414285D01*
X167596428Y-85414285D01*
X167501190Y-85461904D01*
X167453571Y-85509523D01*
X167405952Y-85604761D01*
X109752380Y-92713095D02*
X108752380Y-92713095D01*
X108752380Y-92475000D01*
X108800000Y-92332142D01*
X108895238Y-92236904D01*
X108990476Y-92189285D01*
X109180952Y-92141666D01*
X109323809Y-92141666D01*
X109514285Y-92189285D01*
X109609523Y-92236904D01*
X109704761Y-92332142D01*
X109752380Y-92475000D01*
X109752380Y-92713095D01*
X108847619Y-91760714D02*
X108800000Y-91713095D01*
X108752380Y-91617857D01*
X108752380Y-91379761D01*
X108800000Y-91284523D01*
X108847619Y-91236904D01*
X108942857Y-91189285D01*
X109038095Y-91189285D01*
X109180952Y-91236904D01*
X109752380Y-91808333D01*
X109752380Y-91189285D01*
X109133333Y-93927380D02*
X108800000Y-93451190D01*
X108561904Y-93927380D02*
X108561904Y-92927380D01*
X108942857Y-92927380D01*
X109038095Y-92975000D01*
X109085714Y-93022619D01*
X109133333Y-93117857D01*
X109133333Y-93260714D01*
X109085714Y-93355952D01*
X109038095Y-93403571D01*
X108942857Y-93451190D01*
X108561904Y-93451190D01*
X109609523Y-93927380D02*
X109800000Y-93927380D01*
X109895238Y-93879761D01*
X109942857Y-93832142D01*
X110038095Y-93689285D01*
X110085714Y-93498809D01*
X110085714Y-93117857D01*
X110038095Y-93022619D01*
X109990476Y-92975000D01*
X109895238Y-92927380D01*
X109704761Y-92927380D01*
X109609523Y-92975000D01*
X109561904Y-93022619D01*
X109514285Y-93117857D01*
X109514285Y-93355952D01*
X109561904Y-93451190D01*
X109609523Y-93498809D01*
X109704761Y-93546428D01*
X109895238Y-93546428D01*
X109990476Y-93498809D01*
X110038095Y-93451190D01*
X110085714Y-93355952D01*
X237932142Y-83517857D02*
X237979761Y-83565476D01*
X238027380Y-83708333D01*
X238027380Y-83803571D01*
X237979761Y-83946428D01*
X237884523Y-84041666D01*
X237789285Y-84089285D01*
X237598809Y-84136904D01*
X237455952Y-84136904D01*
X237265476Y-84089285D01*
X237170238Y-84041666D01*
X237075000Y-83946428D01*
X237027380Y-83803571D01*
X237027380Y-83708333D01*
X237075000Y-83565476D01*
X237122619Y-83517857D01*
X238027380Y-82565476D02*
X238027380Y-83136904D01*
X238027380Y-82851190D02*
X237027380Y-82851190D01*
X237170238Y-82946428D01*
X237265476Y-83041666D01*
X237313095Y-83136904D01*
X237027380Y-82232142D02*
X237027380Y-81565476D01*
X238027380Y-81994047D01*
M02*
