G04 #@! TF.GenerationSoftware,KiCad,Pcbnew,(2018-01-21 revision 6b9866de8)-makepkg*
G04 #@! TF.CreationDate,2018-04-07T17:45:11+02:00*
G04 #@! TF.ProjectId,Arm_interface_board_mirrored,41726D5F696E746572666163655F626F,rev?*
G04 #@! TF.SameCoordinates,Original*
G04 #@! TF.FileFunction,Copper,L1,Top,Signal*
G04 #@! TF.FilePolarity,Positive*
%FSLAX46Y46*%
G04 Gerber Fmt 4.6, Leading zero omitted, Abs format (unit mm)*
G04 Created by KiCad (PCBNEW (2018-01-21 revision 6b9866de8)-makepkg) date 04/07/18 17:45:11*
%MOMM*%
%LPD*%
G01*
G04 APERTURE LIST*
%ADD10R,0.550000X1.500000*%
%ADD11C,3.800000*%
%ADD12C,1.800000*%
%ADD13R,1.800000X1.800000*%
%ADD14R,1.700000X1.700000*%
%ADD15O,1.700000X1.700000*%
%ADD16R,1.600000X0.550000*%
%ADD17R,0.550000X1.600000*%
%ADD18R,1.400000X1.200000*%
%ADD19C,1.350000*%
%ADD20R,1.350000X1.350000*%
%ADD21R,0.650000X0.575000*%
%ADD22R,0.575000X0.650000*%
%ADD23C,1.000000*%
%ADD24R,1.500000X0.500000*%
%ADD25C,0.100000*%
%ADD26R,1.500000X1.000000*%
%ADD27R,0.500000X1.500000*%
%ADD28R,1.000000X1.500000*%
%ADD29R,1.800000X1.070000*%
%ADD30R,1.100000X1.800000*%
%ADD31R,0.650000X1.060000*%
%ADD32R,0.200000X0.530000*%
%ADD33R,1.060000X0.650000*%
%ADD34R,0.675000X0.250000*%
%ADD35R,0.250000X0.675000*%
%ADD36R,1.070000X1.800000*%
%ADD37R,1.600000X2.600000*%
%ADD38R,0.670000X1.000000*%
%ADD39R,1.000000X0.670000*%
%ADD40R,1.000000X1.000000*%
%ADD41O,1.000000X1.000000*%
%ADD42C,0.600000*%
%ADD43C,0.304800*%
%ADD44C,0.152400*%
%ADD45C,0.254000*%
%ADD46C,0.406400*%
G04 APERTURE END LIST*
D10*
X113000000Y-84300000D03*
X116250000Y-84300000D03*
D11*
X234600000Y-87300000D03*
X153600000Y-87300000D03*
X72600000Y-87300000D03*
D12*
X176490000Y-92040000D03*
X177760000Y-89500000D03*
X179030000Y-92040000D03*
D13*
X180300000Y-89500000D03*
D14*
X196900000Y-89400000D03*
D15*
X196900000Y-86860000D03*
X199440000Y-89400000D03*
X199440000Y-86860000D03*
X201980000Y-89400000D03*
X201980000Y-86860000D03*
D13*
X139300000Y-89500000D03*
D12*
X138030000Y-92040000D03*
X136760000Y-89500000D03*
X135490000Y-92040000D03*
D16*
X117850000Y-86300000D03*
X117850000Y-87100000D03*
X117850000Y-87900000D03*
X117850000Y-88700000D03*
X117850000Y-89500000D03*
X117850000Y-90300000D03*
X117850000Y-91100000D03*
X117850000Y-91900000D03*
D17*
X119300000Y-93350000D03*
X120100000Y-93350000D03*
X120900000Y-93350000D03*
X121700000Y-93350000D03*
X122500000Y-93350000D03*
X123300000Y-93350000D03*
X124100000Y-93350000D03*
X124900000Y-93350000D03*
D16*
X126350000Y-91900000D03*
X126350000Y-91100000D03*
X126350000Y-90300000D03*
X126350000Y-89500000D03*
X126350000Y-88700000D03*
X126350000Y-87900000D03*
X126350000Y-87100000D03*
X126350000Y-86300000D03*
D17*
X124900000Y-84850000D03*
X124100000Y-84850000D03*
X123300000Y-84850000D03*
X122500000Y-84850000D03*
X121700000Y-84850000D03*
X120900000Y-84850000D03*
X120100000Y-84850000D03*
X119300000Y-84850000D03*
D18*
X110800000Y-91350000D03*
X108600000Y-91350000D03*
X108600000Y-93050000D03*
X110800000Y-93050000D03*
D19*
X66048000Y-90446000D03*
X64048000Y-90446000D03*
X62048000Y-90446000D03*
X60048000Y-90446000D03*
X58048000Y-90446000D03*
X66048000Y-92446000D03*
X64048000Y-92446000D03*
X62048000Y-92446000D03*
X60048000Y-92446000D03*
D20*
X58048000Y-92446000D03*
D21*
X75057300Y-92990300D03*
X75057300Y-92215300D03*
X116200000Y-89487500D03*
X116200000Y-88712500D03*
D22*
X112657300Y-90902800D03*
X113432300Y-90902800D03*
D21*
X106957300Y-92715300D03*
X106957300Y-93490300D03*
X206650000Y-84112500D03*
X206650000Y-84887500D03*
X211850000Y-84900000D03*
X211850000Y-84125000D03*
X128000000Y-89500000D03*
X128000000Y-88725000D03*
D22*
X232462500Y-91000000D03*
X233237500Y-91000000D03*
D21*
X231750000Y-87112500D03*
X231750000Y-87887500D03*
D22*
X130037500Y-88500000D03*
X129262500Y-88500000D03*
D21*
X89600000Y-91937500D03*
X89600000Y-91162500D03*
X105557300Y-92727800D03*
X105557300Y-93502800D03*
X149057300Y-90340300D03*
X149057300Y-89565300D03*
D22*
X186419800Y-85852800D03*
X187194800Y-85852800D03*
D21*
X228500000Y-92087500D03*
X228500000Y-91312500D03*
D23*
X77507300Y-93252800D03*
X132357300Y-91652800D03*
X91000000Y-93000000D03*
X106257300Y-91202800D03*
X147507300Y-93002800D03*
X190807300Y-87302800D03*
X229907300Y-93150000D03*
D13*
X83000000Y-91600000D03*
D12*
X80460000Y-90330000D03*
X83000000Y-89060000D03*
X80460000Y-87790000D03*
X94490000Y-92040000D03*
X95760000Y-89500000D03*
X97030000Y-92040000D03*
D13*
X98300000Y-89500000D03*
X221300000Y-89500000D03*
D12*
X220030000Y-92040000D03*
X218760000Y-89500000D03*
X217490000Y-92040000D03*
D24*
X110157300Y-89002800D03*
D25*
G36*
X110456309Y-88805207D02*
X110504845Y-88812406D01*
X110552442Y-88824329D01*
X110598642Y-88840859D01*
X110642998Y-88861838D01*
X110685085Y-88887064D01*
X110724497Y-88916294D01*
X110760853Y-88949246D01*
X110793805Y-88985602D01*
X110823035Y-89025014D01*
X110848261Y-89067101D01*
X110869240Y-89111457D01*
X110885770Y-89157657D01*
X110897693Y-89205254D01*
X110904892Y-89253790D01*
X110907300Y-89302799D01*
X110907300Y-89302801D01*
X110904892Y-89351810D01*
X110897693Y-89400346D01*
X110885770Y-89447943D01*
X110869240Y-89494143D01*
X110848261Y-89538499D01*
X110823035Y-89580586D01*
X110793805Y-89619998D01*
X110760853Y-89656354D01*
X110724497Y-89689306D01*
X110685085Y-89718536D01*
X110642998Y-89743762D01*
X110598642Y-89764741D01*
X110552442Y-89781271D01*
X110504845Y-89793194D01*
X110456309Y-89800393D01*
X110407300Y-89802801D01*
X109907300Y-89802801D01*
X109858291Y-89800393D01*
X109809755Y-89793194D01*
X109762158Y-89781271D01*
X109715958Y-89764741D01*
X109671602Y-89743762D01*
X109629515Y-89718536D01*
X109590103Y-89689306D01*
X109553747Y-89656354D01*
X109520795Y-89619998D01*
X109491565Y-89580586D01*
X109466339Y-89538499D01*
X109445360Y-89494143D01*
X109428830Y-89447943D01*
X109416907Y-89400346D01*
X109409708Y-89351810D01*
X109407300Y-89302801D01*
X109407300Y-89302799D01*
X109409708Y-89253790D01*
X109416907Y-89205254D01*
X109428830Y-89157657D01*
X109445360Y-89111457D01*
X109466339Y-89067101D01*
X109491565Y-89025014D01*
X109520795Y-88985602D01*
X109553747Y-88949246D01*
X109590103Y-88916294D01*
X109629515Y-88887064D01*
X109671602Y-88861838D01*
X109715958Y-88840859D01*
X109762158Y-88824329D01*
X109809755Y-88812406D01*
X109858291Y-88805207D01*
X109907300Y-88802799D01*
X110407300Y-88802799D01*
X110456309Y-88805207D01*
X110456309Y-88805207D01*
G37*
D23*
X110157300Y-89302800D03*
D26*
X110157300Y-88002800D03*
D24*
X110157300Y-87002800D03*
D25*
G36*
X110456309Y-86205207D02*
X110504845Y-86212406D01*
X110552442Y-86224329D01*
X110598642Y-86240859D01*
X110642998Y-86261838D01*
X110685085Y-86287064D01*
X110724497Y-86316294D01*
X110760853Y-86349246D01*
X110793805Y-86385602D01*
X110823035Y-86425014D01*
X110848261Y-86467101D01*
X110869240Y-86511457D01*
X110885770Y-86557657D01*
X110897693Y-86605254D01*
X110904892Y-86653790D01*
X110907300Y-86702799D01*
X110907300Y-86702801D01*
X110904892Y-86751810D01*
X110897693Y-86800346D01*
X110885770Y-86847943D01*
X110869240Y-86894143D01*
X110848261Y-86938499D01*
X110823035Y-86980586D01*
X110793805Y-87019998D01*
X110760853Y-87056354D01*
X110724497Y-87089306D01*
X110685085Y-87118536D01*
X110642998Y-87143762D01*
X110598642Y-87164741D01*
X110552442Y-87181271D01*
X110504845Y-87193194D01*
X110456309Y-87200393D01*
X110407300Y-87202801D01*
X109907300Y-87202801D01*
X109858291Y-87200393D01*
X109809755Y-87193194D01*
X109762158Y-87181271D01*
X109715958Y-87164741D01*
X109671602Y-87143762D01*
X109629515Y-87118536D01*
X109590103Y-87089306D01*
X109553747Y-87056354D01*
X109520795Y-87019998D01*
X109491565Y-86980586D01*
X109466339Y-86938499D01*
X109445360Y-86894143D01*
X109428830Y-86847943D01*
X109416907Y-86800346D01*
X109409708Y-86751810D01*
X109407300Y-86702801D01*
X109407300Y-86702799D01*
X109409708Y-86653790D01*
X109416907Y-86605254D01*
X109428830Y-86557657D01*
X109445360Y-86511457D01*
X109466339Y-86467101D01*
X109491565Y-86425014D01*
X109520795Y-86385602D01*
X109553747Y-86349246D01*
X109590103Y-86316294D01*
X109629515Y-86287064D01*
X109671602Y-86261838D01*
X109715958Y-86240859D01*
X109762158Y-86224329D01*
X109809755Y-86212406D01*
X109858291Y-86205207D01*
X109907300Y-86202799D01*
X110407300Y-86202799D01*
X110456309Y-86205207D01*
X110456309Y-86205207D01*
G37*
D23*
X110157300Y-86702800D03*
D25*
G36*
X113006310Y-92155208D02*
X113054846Y-92162407D01*
X113102443Y-92174330D01*
X113148643Y-92190860D01*
X113192999Y-92211839D01*
X113235086Y-92237065D01*
X113274498Y-92266295D01*
X113310854Y-92299247D01*
X113343806Y-92335603D01*
X113373036Y-92375015D01*
X113398262Y-92417102D01*
X113419241Y-92461458D01*
X113435771Y-92507658D01*
X113447694Y-92555255D01*
X113454893Y-92603791D01*
X113457301Y-92652800D01*
X113457301Y-93152800D01*
X113454893Y-93201809D01*
X113447694Y-93250345D01*
X113435771Y-93297942D01*
X113419241Y-93344142D01*
X113398262Y-93388498D01*
X113373036Y-93430585D01*
X113343806Y-93469997D01*
X113310854Y-93506353D01*
X113274498Y-93539305D01*
X113235086Y-93568535D01*
X113192999Y-93593761D01*
X113148643Y-93614740D01*
X113102443Y-93631270D01*
X113054846Y-93643193D01*
X113006310Y-93650392D01*
X112957301Y-93652800D01*
X112957299Y-93652800D01*
X112908290Y-93650392D01*
X112859754Y-93643193D01*
X112812157Y-93631270D01*
X112765957Y-93614740D01*
X112721601Y-93593761D01*
X112679514Y-93568535D01*
X112640102Y-93539305D01*
X112603746Y-93506353D01*
X112570794Y-93469997D01*
X112541564Y-93430585D01*
X112516338Y-93388498D01*
X112495359Y-93344142D01*
X112478829Y-93297942D01*
X112466906Y-93250345D01*
X112459707Y-93201809D01*
X112457299Y-93152800D01*
X112457299Y-92652800D01*
X112459707Y-92603791D01*
X112466906Y-92555255D01*
X112478829Y-92507658D01*
X112495359Y-92461458D01*
X112516338Y-92417102D01*
X112541564Y-92375015D01*
X112570794Y-92335603D01*
X112603746Y-92299247D01*
X112640102Y-92266295D01*
X112679514Y-92237065D01*
X112721601Y-92211839D01*
X112765957Y-92190860D01*
X112812157Y-92174330D01*
X112859754Y-92162407D01*
X112908290Y-92155208D01*
X112957299Y-92152800D01*
X112957301Y-92152800D01*
X113006310Y-92155208D01*
X113006310Y-92155208D01*
G37*
D23*
X112957300Y-92902800D03*
D27*
X113257300Y-92902800D03*
D28*
X114257300Y-92902800D03*
D25*
G36*
X115606310Y-92155208D02*
X115654846Y-92162407D01*
X115702443Y-92174330D01*
X115748643Y-92190860D01*
X115792999Y-92211839D01*
X115835086Y-92237065D01*
X115874498Y-92266295D01*
X115910854Y-92299247D01*
X115943806Y-92335603D01*
X115973036Y-92375015D01*
X115998262Y-92417102D01*
X116019241Y-92461458D01*
X116035771Y-92507658D01*
X116047694Y-92555255D01*
X116054893Y-92603791D01*
X116057301Y-92652800D01*
X116057301Y-93152800D01*
X116054893Y-93201809D01*
X116047694Y-93250345D01*
X116035771Y-93297942D01*
X116019241Y-93344142D01*
X115998262Y-93388498D01*
X115973036Y-93430585D01*
X115943806Y-93469997D01*
X115910854Y-93506353D01*
X115874498Y-93539305D01*
X115835086Y-93568535D01*
X115792999Y-93593761D01*
X115748643Y-93614740D01*
X115702443Y-93631270D01*
X115654846Y-93643193D01*
X115606310Y-93650392D01*
X115557301Y-93652800D01*
X115557299Y-93652800D01*
X115508290Y-93650392D01*
X115459754Y-93643193D01*
X115412157Y-93631270D01*
X115365957Y-93614740D01*
X115321601Y-93593761D01*
X115279514Y-93568535D01*
X115240102Y-93539305D01*
X115203746Y-93506353D01*
X115170794Y-93469997D01*
X115141564Y-93430585D01*
X115116338Y-93388498D01*
X115095359Y-93344142D01*
X115078829Y-93297942D01*
X115066906Y-93250345D01*
X115059707Y-93201809D01*
X115057299Y-93152800D01*
X115057299Y-92652800D01*
X115059707Y-92603791D01*
X115066906Y-92555255D01*
X115078829Y-92507658D01*
X115095359Y-92461458D01*
X115116338Y-92417102D01*
X115141564Y-92375015D01*
X115170794Y-92335603D01*
X115203746Y-92299247D01*
X115240102Y-92266295D01*
X115279514Y-92237065D01*
X115321601Y-92211839D01*
X115365957Y-92190860D01*
X115412157Y-92174330D01*
X115459754Y-92162407D01*
X115508290Y-92155208D01*
X115557299Y-92152800D01*
X115557301Y-92152800D01*
X115606310Y-92155208D01*
X115606310Y-92155208D01*
G37*
D23*
X115557300Y-92902800D03*
D27*
X115257300Y-92902800D03*
D22*
X130037500Y-89700000D03*
X129262500Y-89700000D03*
D29*
X86200000Y-89200000D03*
X86200000Y-86190000D03*
X102100000Y-86490000D03*
X102100000Y-89500000D03*
X143100000Y-89500000D03*
X143100000Y-86490000D03*
X184100000Y-86500000D03*
X184100000Y-89510000D03*
X225100000Y-89500000D03*
X225100000Y-86490000D03*
D30*
X159650000Y-92650000D03*
X159650000Y-86450000D03*
X163350000Y-92650000D03*
X163350000Y-86450000D03*
D31*
X73557300Y-93002800D03*
X71657300Y-93002800D03*
X71657300Y-90802800D03*
X72607300Y-90802800D03*
X73557300Y-90802800D03*
D32*
X233432300Y-92217800D03*
X233082300Y-92217800D03*
X232732300Y-92217800D03*
X232382300Y-92217800D03*
X232382300Y-92887800D03*
X232732300Y-92887800D03*
X233082300Y-92887800D03*
X233432300Y-92887800D03*
D33*
X210350000Y-84100000D03*
X210350000Y-86000000D03*
X208150000Y-86000000D03*
X208150000Y-85050000D03*
X208150000Y-84100000D03*
X88100000Y-93050000D03*
X88100000Y-92100000D03*
X88100000Y-91150000D03*
X85900000Y-91150000D03*
X85900000Y-93050000D03*
X101700000Y-93150000D03*
X101700000Y-91250000D03*
X103900000Y-91250000D03*
X103900000Y-92200000D03*
X103900000Y-93150000D03*
X147507300Y-91402800D03*
X147507300Y-90452800D03*
X147507300Y-89502800D03*
X145307300Y-89502800D03*
X145307300Y-91402800D03*
D31*
X188307300Y-89502800D03*
X186407300Y-89502800D03*
X186407300Y-87302800D03*
X187357300Y-87302800D03*
X188307300Y-87302800D03*
D33*
X227000000Y-93150000D03*
X227000000Y-92200000D03*
X227000000Y-91250000D03*
X224800000Y-91250000D03*
X224800000Y-93150000D03*
D34*
X228537500Y-87300000D03*
X228537500Y-87800000D03*
X228537500Y-86800000D03*
X230562500Y-87800000D03*
X230562500Y-87300000D03*
X230562500Y-86800000D03*
D35*
X228800000Y-88562500D03*
X229300000Y-88562500D03*
X229800000Y-88562500D03*
X230300000Y-88562500D03*
X230300000Y-86037500D03*
X229800000Y-86037500D03*
X229300000Y-86037500D03*
X228800000Y-86037500D03*
D36*
X74167300Y-82052800D03*
X71157300Y-82052800D03*
D37*
X105900000Y-84900000D03*
X105900000Y-88500000D03*
D38*
X168050000Y-89925000D03*
X169800000Y-89925000D03*
D21*
X166025000Y-89937500D03*
X166025000Y-89162500D03*
D39*
X114100000Y-87525000D03*
X114100000Y-89275000D03*
D22*
X115462500Y-90450000D03*
X116237500Y-90450000D03*
D40*
X241400000Y-82855000D03*
D41*
X242670000Y-82855000D03*
X241400000Y-84125000D03*
X242670000Y-84125000D03*
X241400000Y-85395000D03*
X242670000Y-85395000D03*
X241400000Y-86665000D03*
X242670000Y-86665000D03*
X241400000Y-87935000D03*
X242670000Y-87935000D03*
X241400000Y-89205000D03*
X242670000Y-89205000D03*
X241400000Y-90475000D03*
X242670000Y-90475000D03*
X241400000Y-91745000D03*
X242670000Y-91745000D03*
D42*
X131125000Y-91375000D03*
X129093766Y-91366334D03*
X165650000Y-85625000D03*
X165325000Y-87150000D03*
X118575000Y-89500000D03*
X122025000Y-89400000D03*
X169800000Y-91250000D03*
X228500000Y-92883822D03*
X72600000Y-88850000D03*
X71050000Y-87300000D03*
X72600000Y-85750000D03*
X74150000Y-87300000D03*
X153600000Y-88850000D03*
X152050000Y-87300000D03*
X153600000Y-85750000D03*
X155150000Y-87300000D03*
X234600000Y-88850000D03*
X234600000Y-85750000D03*
X233050000Y-87300000D03*
X236150000Y-87300000D03*
X187200000Y-84900000D03*
X238600000Y-85600000D03*
X209950000Y-85050000D03*
X209200000Y-85050000D03*
X152627296Y-90362800D03*
X154567300Y-90372800D03*
X153597300Y-90372800D03*
X116200000Y-89487500D03*
X90550000Y-91700000D03*
X104734800Y-92200000D03*
X105907300Y-89402800D03*
X106757292Y-89402800D03*
X105057300Y-89402800D03*
X115300000Y-89500000D03*
X239300000Y-86700000D03*
X237600000Y-93800000D03*
X130063716Y-92336284D03*
X116237500Y-90450000D03*
X117200000Y-93900000D03*
X122484560Y-91951096D03*
X129074988Y-86528622D03*
X235500004Y-90900000D03*
X127900000Y-85446400D03*
X120900000Y-85671400D03*
X119375008Y-89325000D03*
X121024998Y-88850000D03*
X238937667Y-91683400D03*
X124099997Y-91900003D03*
X240882166Y-93371400D03*
X238850000Y-93950002D03*
X120902411Y-92099054D03*
X239500000Y-82250000D03*
X234840740Y-91740740D03*
X119098721Y-90767331D03*
X146344356Y-85655414D03*
X134457300Y-88828610D03*
X211450000Y-88775000D03*
X206950000Y-88775000D03*
X234300000Y-92274165D03*
X119775000Y-87975000D03*
X146357292Y-86407714D03*
X133657300Y-88828610D03*
X211450000Y-89550000D03*
X206950000Y-89550000D03*
X77290721Y-90802800D03*
X74457300Y-90802800D03*
X87957300Y-87502800D03*
X124957292Y-87902800D03*
X206950000Y-91100000D03*
X211450000Y-91100000D03*
X237107300Y-90652800D03*
X82457300Y-86221797D03*
X123300000Y-87500000D03*
X203757301Y-89452800D03*
X237957800Y-90649198D03*
X214807300Y-92552800D03*
X82457300Y-86974200D03*
X122500000Y-87749992D03*
X227900000Y-85450000D03*
X237250000Y-85600000D03*
X213850000Y-85400000D03*
X158750000Y-89000000D03*
X150981266Y-89828834D03*
X192900000Y-87900000D03*
X130926223Y-88923777D03*
X121700000Y-87978593D03*
X221900004Y-86050000D03*
X199457300Y-93502800D03*
X201083516Y-93176584D03*
X124852347Y-91909890D03*
X118350000Y-85350000D03*
X211450000Y-90325000D03*
X206950000Y-90325000D03*
X206950000Y-88000000D03*
X211450000Y-88000000D03*
X145350000Y-86450000D03*
X206950000Y-87225000D03*
X211450000Y-87225000D03*
X111950000Y-85997335D03*
X238653834Y-87503834D03*
X198657302Y-93502800D03*
X239015011Y-90599505D03*
X188257300Y-92552800D03*
X172307300Y-92252800D03*
X145107298Y-92552800D03*
X134057300Y-90202800D03*
X118507300Y-92702800D03*
X99470394Y-87087274D03*
X124950000Y-87100000D03*
X123257300Y-91902792D03*
X102000000Y-88300000D03*
X126357300Y-85743043D03*
X112850000Y-85997335D03*
X106257300Y-91202800D03*
X112847971Y-89264822D03*
X117350000Y-85350000D03*
X144257288Y-92752800D03*
X135007300Y-90202800D03*
X119299992Y-91900000D03*
X174350000Y-92250000D03*
X149207300Y-87052800D03*
X124102411Y-87500049D03*
X202606077Y-93188633D03*
X197197823Y-92264723D03*
X120100000Y-91899998D03*
X127600000Y-93061778D03*
X187107300Y-92852800D03*
X173357300Y-92252800D03*
X229887726Y-92080794D03*
X226700000Y-88950000D03*
X200257300Y-93502800D03*
X146007300Y-92552800D03*
X234250000Y-91199998D03*
X229300000Y-87772554D03*
X230521390Y-90278610D03*
D43*
X131125000Y-90100000D02*
X130725000Y-89700000D01*
X131125000Y-91375000D02*
X131125000Y-90100000D01*
X130725000Y-89700000D02*
X130037500Y-89700000D01*
X128827432Y-91100000D02*
X129093766Y-91366334D01*
X126350000Y-91100000D02*
X128827432Y-91100000D01*
X126350000Y-91100000D02*
X125245200Y-91100000D01*
X125245200Y-91100000D02*
X124445200Y-90300000D01*
X124445200Y-90300000D02*
X121579892Y-90300000D01*
X117850000Y-88700000D02*
X119979892Y-88700000D01*
X119979892Y-88700000D02*
X121579892Y-90300000D01*
X166025000Y-87850000D02*
X165325000Y-87150000D01*
X166025000Y-89162500D02*
X166025000Y-87850000D01*
D44*
X233082300Y-92887800D02*
X233082300Y-93467700D01*
D43*
X188307300Y-89502800D02*
X188307300Y-89297800D01*
X188307300Y-89297800D02*
X187147101Y-88137601D01*
X187147101Y-88137601D02*
X186407300Y-88137600D01*
X186407300Y-88137600D02*
X186407300Y-87302800D01*
X71657300Y-93002800D02*
X73557300Y-93002800D01*
X145307300Y-91402800D02*
X145307300Y-91342700D01*
X145307300Y-91342700D02*
X145866190Y-90783810D01*
X145866190Y-90783810D02*
X146115118Y-90783810D01*
X146115118Y-90783810D02*
X146672499Y-90226429D01*
X146672499Y-90226429D02*
X146672500Y-89502800D01*
X146672500Y-89502800D02*
X147507300Y-89502800D01*
X105557300Y-92727800D02*
X105557300Y-92072500D01*
X105557300Y-92072500D02*
X104734800Y-91250000D01*
X104734800Y-91250000D02*
X103900000Y-91250000D01*
X88100000Y-91150000D02*
X89587500Y-91150000D01*
X89587500Y-91150000D02*
X89600000Y-91162500D01*
X117850000Y-88700000D02*
X116287500Y-88700000D01*
X116287500Y-88700000D02*
X116200000Y-88787500D01*
X233904806Y-90295194D02*
X236354806Y-90295194D01*
X237727880Y-88922120D02*
X237727880Y-86472120D01*
X237727880Y-86472120D02*
X238300001Y-85899999D01*
X233237500Y-90962500D02*
X233904806Y-90295194D01*
X236354806Y-90295194D02*
X237727880Y-88922120D01*
X238300001Y-85899999D02*
X238600000Y-85600000D01*
X233237500Y-91000000D02*
X233237500Y-90962500D01*
X117850000Y-89500000D02*
X118575000Y-89500000D01*
X122324999Y-89100001D02*
X122025000Y-89400000D01*
X122725000Y-88700000D02*
X122324999Y-89100001D01*
X126350000Y-88700000D02*
X122725000Y-88700000D01*
X113000000Y-84300000D02*
X113000000Y-84775000D01*
X113000000Y-84775000D02*
X114100000Y-85875000D01*
X114100000Y-85875000D02*
X114100000Y-86885200D01*
X114100000Y-86885200D02*
X114100000Y-87525000D01*
X114950000Y-88210000D02*
X114950000Y-89150000D01*
X114950000Y-89150000D02*
X115300000Y-89500000D01*
X114100000Y-87525000D02*
X114265000Y-87525000D01*
X114265000Y-87525000D02*
X114950000Y-88210000D01*
X169800000Y-89925000D02*
X169800000Y-91250000D01*
X228500000Y-92087500D02*
X228500000Y-92883822D01*
X227000000Y-92200000D02*
X228387500Y-92200000D01*
X228387500Y-92200000D02*
X228500000Y-92087500D01*
X187194800Y-85852800D02*
X187194800Y-84905200D01*
X187194800Y-84905200D02*
X187200000Y-84900000D01*
X187194800Y-85852800D02*
X187194800Y-87140300D01*
X187194800Y-87140300D02*
X187357300Y-87302800D01*
X228800000Y-89100000D02*
X229068990Y-89368990D01*
X228800000Y-88562500D02*
X228800000Y-89100000D01*
X229068990Y-89368990D02*
X232631010Y-89368990D01*
X232631010Y-89368990D02*
X234600000Y-87400000D01*
X234600000Y-87400000D02*
X234600000Y-87300000D01*
X231750000Y-87112500D02*
X234412500Y-87112500D01*
X234412500Y-87112500D02*
X234600000Y-87300000D01*
X230562500Y-87050000D02*
X231687500Y-87050000D01*
X231687500Y-87050000D02*
X231750000Y-87112500D01*
X230562500Y-86800000D02*
X230562500Y-87050000D01*
X230562500Y-87050000D02*
X230562500Y-87300000D01*
D44*
X233082300Y-92217800D02*
X233082300Y-91155200D01*
X233082300Y-91155200D02*
X233237500Y-91000000D01*
D43*
X211850000Y-84900000D02*
X210100000Y-84900000D01*
X210100000Y-84900000D02*
X209950000Y-85050000D01*
X208150000Y-85050000D02*
X206812500Y-85050000D01*
X206812500Y-85050000D02*
X206650000Y-84887500D01*
X209200000Y-85050000D02*
X209950000Y-85050000D01*
X208150000Y-85050000D02*
X209200000Y-85050000D01*
X163350000Y-90302800D02*
X163350000Y-86450000D01*
X163350000Y-91445200D02*
X163350000Y-90302800D01*
X154567300Y-90372800D02*
X163280000Y-90372800D01*
X163280000Y-90372800D02*
X163350000Y-90302800D01*
X163350000Y-92650000D02*
X163350000Y-91445200D01*
X149057300Y-90340300D02*
X149687100Y-90340300D01*
X149687100Y-90340300D02*
X150009599Y-90662799D01*
X150009599Y-90662799D02*
X152327297Y-90662799D01*
X152327297Y-90662799D02*
X152627296Y-90362800D01*
X147507300Y-90452800D02*
X148944800Y-90452800D01*
X148944800Y-90452800D02*
X149057300Y-90340300D01*
X152627296Y-90362800D02*
X152627296Y-89938536D01*
X152627296Y-89938536D02*
X153600000Y-88965832D01*
X153600000Y-88965832D02*
X153600000Y-87300000D01*
X154567300Y-90372800D02*
X154567300Y-89948536D01*
X154567300Y-89948536D02*
X153600000Y-88981236D01*
X153600000Y-88981236D02*
X153600000Y-87300000D01*
X153600000Y-90370100D02*
X153597300Y-90372800D01*
X153600000Y-87300000D02*
X153600000Y-90370100D01*
X72607300Y-90802800D02*
X72607300Y-87307300D01*
X72607300Y-87307300D02*
X72600000Y-87300000D01*
X72607300Y-90802800D02*
X72607301Y-91637601D01*
X72607301Y-91637601D02*
X74479601Y-91637601D01*
X74479601Y-91637601D02*
X75057300Y-92215300D01*
X89600000Y-91937500D02*
X88262500Y-91937500D01*
X88262500Y-91937500D02*
X88100000Y-92100000D01*
X90312500Y-91937500D02*
X90550000Y-91700000D01*
X89600000Y-91937500D02*
X90312500Y-91937500D01*
X129262500Y-88500000D02*
X128225000Y-88500000D01*
X128225000Y-88500000D02*
X128000000Y-88725000D01*
X105900000Y-88500000D02*
X105907300Y-88507300D01*
X105907300Y-88978536D02*
X105907300Y-89402800D01*
X105057300Y-89402800D02*
X105907300Y-89402800D01*
X105907300Y-88507300D02*
X105907300Y-88978536D01*
X105900000Y-89395500D02*
X105907300Y-89402800D01*
X105900000Y-89360100D02*
X105900000Y-89395500D01*
X105900000Y-88500000D02*
X105900000Y-88545508D01*
X108500000Y-91350000D02*
X106757292Y-89607292D01*
X105900000Y-88545508D02*
X106457293Y-89102801D01*
X106457293Y-89102801D02*
X106757292Y-89402800D01*
X106757292Y-89607292D02*
X106757292Y-89402800D01*
X108600000Y-91350000D02*
X108500000Y-91350000D01*
X115312500Y-89487500D02*
X115300000Y-89500000D01*
X116200000Y-89487500D02*
X115312500Y-89487500D01*
X117850000Y-89500000D02*
X116212500Y-89500000D01*
X116212500Y-89500000D02*
X116200000Y-89487500D01*
X112000000Y-92854800D02*
X112000000Y-92471925D01*
X112000000Y-92471925D02*
X112939323Y-91532602D01*
X112939323Y-91532602D02*
X113432300Y-91532600D01*
X113432300Y-91532600D02*
X113432300Y-90902800D01*
X110800000Y-93050000D02*
X111804800Y-93050000D01*
X111804800Y-93050000D02*
X112000000Y-92854800D01*
X104900000Y-92365200D02*
X104900000Y-93475300D01*
X104900000Y-93475300D02*
X104927500Y-93502800D01*
X104927500Y-93502800D02*
X105557300Y-93502800D01*
X103900000Y-92200000D02*
X104734800Y-92200000D01*
X104734800Y-92200000D02*
X104900000Y-92365200D01*
X106957300Y-92715300D02*
X108322600Y-91350000D01*
X108322600Y-91350000D02*
X108600000Y-91350000D01*
X109350000Y-91350000D02*
X109700000Y-91700000D01*
X109700000Y-91700000D02*
X109700000Y-92350000D01*
X110400000Y-93050000D02*
X110800000Y-93050000D01*
X108600000Y-91350000D02*
X109350000Y-91350000D01*
X109700000Y-92350000D02*
X110400000Y-93050000D01*
X128000000Y-88725000D02*
X126375000Y-88725000D01*
X126375000Y-88725000D02*
X126350000Y-88700000D01*
D44*
X112657300Y-90902800D02*
X111247200Y-90902800D01*
X111247200Y-90902800D02*
X110800000Y-91350000D01*
X110800000Y-91350000D02*
X110800000Y-89945500D01*
X110800000Y-89945500D02*
X110157300Y-89302800D01*
X108897600Y-94100000D02*
X111657700Y-94100000D01*
X111657700Y-94100000D02*
X112854900Y-92902800D01*
X112854900Y-92902800D02*
X113257300Y-92902800D01*
X108600000Y-93050000D02*
X108600000Y-93802400D01*
X108600000Y-93802400D02*
X108897600Y-94100000D01*
X106957300Y-93490300D02*
X108159700Y-93490300D01*
X108159700Y-93490300D02*
X108600000Y-93050000D01*
X242941689Y-92778412D02*
X243405567Y-92314534D01*
X243405567Y-92314534D02*
X243405567Y-91210567D01*
X243169999Y-90974999D02*
X242670000Y-90475000D01*
X237107300Y-91077064D02*
X238808648Y-92778412D01*
X238808648Y-92778412D02*
X242941689Y-92778412D01*
X243405567Y-91210567D02*
X243169999Y-90974999D01*
X237107300Y-90652800D02*
X237107300Y-91077064D01*
X237957800Y-91453300D02*
X238978101Y-92473601D01*
X237957800Y-90649198D02*
X237957800Y-91453300D01*
X238978101Y-92473601D02*
X241976399Y-92473601D01*
X241976399Y-92473601D02*
X242670000Y-91780000D01*
X242670000Y-91780000D02*
X242670000Y-91745000D01*
D45*
X237250000Y-85600000D02*
X239995000Y-82855000D01*
X239995000Y-82855000D02*
X241400000Y-82855000D01*
D44*
X239335000Y-86665000D02*
X239300000Y-86700000D01*
X241400000Y-86665000D02*
X239335000Y-86665000D01*
X220147204Y-87802800D02*
X221600005Y-86349999D01*
X198157300Y-87467700D02*
X198157300Y-86152800D01*
X218007300Y-87802800D02*
X220147204Y-87802800D01*
X215497679Y-90312421D02*
X218007300Y-87802800D01*
X215497679Y-92862421D02*
X215497679Y-90312421D01*
X196900000Y-88300000D02*
X197175000Y-88025000D01*
X215257300Y-93102800D02*
X215497679Y-92862421D01*
X198157300Y-86152800D02*
X198602490Y-85707610D01*
X203957300Y-93102800D02*
X215257300Y-93102800D01*
X200862110Y-90007610D02*
X203957300Y-93102800D01*
X200262110Y-85707610D02*
X200862110Y-86307610D01*
X200862110Y-86307610D02*
X200862110Y-90007610D01*
X196900000Y-89400000D02*
X196900000Y-88300000D01*
X197175000Y-88025000D02*
X197600000Y-88025000D01*
X197600000Y-88025000D02*
X198157300Y-87467700D01*
X198602490Y-85707610D02*
X200262110Y-85707610D01*
X221600005Y-86349999D02*
X221900004Y-86050000D01*
X199985901Y-94031401D02*
X236944335Y-94031401D01*
X236944335Y-94031401D02*
X237175736Y-93800000D01*
X199457300Y-93502800D02*
X199985901Y-94031401D01*
X237175736Y-93800000D02*
X237600000Y-93800000D01*
X126350000Y-91900000D02*
X129627432Y-91900000D01*
X129627432Y-91900000D02*
X129763717Y-92036285D01*
X129763717Y-92036285D02*
X130063716Y-92336284D01*
X121700000Y-94302400D02*
X121623799Y-94378601D01*
X121700000Y-93350000D02*
X121700000Y-94302400D01*
X121623799Y-94378601D02*
X117678601Y-94378601D01*
X117678601Y-94378601D02*
X117200000Y-93900000D01*
X117850000Y-87100000D02*
X116897600Y-87100000D01*
X116897600Y-87100000D02*
X116250000Y-86452400D01*
X116250000Y-86452400D02*
X116250000Y-85202400D01*
X116250000Y-85202400D02*
X116250000Y-84300000D01*
X239698834Y-87503834D02*
X240300000Y-88105000D01*
X238653834Y-87503834D02*
X239698834Y-87503834D01*
X240300000Y-88105000D02*
X240300000Y-88800000D01*
X240300000Y-88800000D02*
X240705000Y-89205000D01*
X240705000Y-89205000D02*
X241400000Y-89205000D01*
X240300495Y-90599505D02*
X240425000Y-90475000D01*
X240425000Y-90475000D02*
X241400000Y-90475000D01*
X239015011Y-90599505D02*
X240300495Y-90599505D01*
X122500000Y-93350000D02*
X122500000Y-91966536D01*
X122500000Y-91966536D02*
X122484560Y-91951096D01*
X95392894Y-87900000D02*
X98233404Y-87900000D01*
X91000000Y-92292894D02*
X95392894Y-87900000D01*
X91000000Y-93000000D02*
X91000000Y-92292894D01*
X98233404Y-87900000D02*
X99046130Y-87087274D01*
X99046130Y-87087274D02*
X99470394Y-87087274D01*
X96960000Y-88300000D02*
X101575736Y-88300000D01*
X101575736Y-88300000D02*
X102000000Y-88300000D01*
X95760000Y-89500000D02*
X96960000Y-88300000D01*
X129691489Y-86828621D02*
X129374987Y-86828621D01*
X129374987Y-86828621D02*
X129074988Y-86528622D01*
X132537066Y-89674198D02*
X129691489Y-86828621D01*
X136760000Y-89500000D02*
X135487208Y-89500000D01*
X135313010Y-89674198D02*
X132537066Y-89674198D01*
X135487208Y-89500000D02*
X135313010Y-89674198D01*
X146207300Y-88952800D02*
X145557300Y-88302800D01*
X135765442Y-88302800D02*
X134711030Y-89357212D01*
X134711030Y-89357212D02*
X132651146Y-89357212D01*
X145957300Y-90402800D02*
X146207300Y-90152800D01*
X126450000Y-84850000D02*
X125327400Y-84850000D01*
X145557300Y-88302800D02*
X135765442Y-88302800D01*
X125327400Y-84850000D02*
X124900000Y-84850000D01*
X129268934Y-85975000D02*
X127575000Y-85975000D01*
X144493233Y-90816867D02*
X144907300Y-90402800D01*
X146207300Y-90152800D02*
X146207300Y-88952800D01*
X127575000Y-85975000D02*
X126450000Y-84850000D01*
X132651146Y-89357212D02*
X129268934Y-85975000D01*
X144907300Y-90402800D02*
X145957300Y-90402800D01*
X144493233Y-91956401D02*
X144493233Y-90816867D01*
X146460901Y-91956401D02*
X144493233Y-91956401D01*
X147507300Y-93002800D02*
X146460901Y-91956401D01*
X126350000Y-90300000D02*
X127302400Y-90300000D01*
X145707301Y-92852799D02*
X146007300Y-92552800D01*
X144857300Y-93702800D02*
X145707301Y-92852799D01*
X127302400Y-90300000D02*
X127710011Y-90707611D01*
X127710011Y-90707611D02*
X129182611Y-90707611D01*
X129182611Y-90707611D02*
X132177800Y-93702800D01*
X132177800Y-93702800D02*
X144857300Y-93702800D01*
X128462900Y-90402800D02*
X128000000Y-89939900D01*
X131375000Y-91925000D02*
X130831066Y-91925000D01*
X129308866Y-90402800D02*
X128462900Y-90402800D01*
X130831066Y-91925000D02*
X129308866Y-90402800D01*
X132357300Y-91652800D02*
X131647200Y-91652800D01*
X131647200Y-91652800D02*
X131375000Y-91925000D01*
X128000000Y-89939900D02*
X128000000Y-89500000D01*
X244015189Y-92784811D02*
X244015189Y-89280189D01*
X244015189Y-89280189D02*
X243169999Y-88434999D01*
X238633223Y-93083223D02*
X239750000Y-93083223D01*
X235500004Y-90900000D02*
X236450000Y-90900000D01*
X239750000Y-93083223D02*
X240566777Y-93900000D01*
X242900000Y-93900000D02*
X244015189Y-92784811D01*
X243169999Y-88434999D02*
X242670000Y-87935000D01*
X240566777Y-93900000D02*
X242900000Y-93900000D01*
X236450000Y-90900000D02*
X238633223Y-93083223D01*
X129171400Y-85446400D02*
X131070190Y-87345190D01*
X127900000Y-85446400D02*
X129171400Y-85446400D01*
X131070190Y-87345190D02*
X144454810Y-87345190D01*
X144454810Y-87345190D02*
X145350000Y-86450000D01*
X120900000Y-84850000D02*
X120900000Y-85671400D01*
X239700000Y-85400000D02*
X239700000Y-84900000D01*
X238486401Y-90395469D02*
X238108890Y-90017958D01*
X238108890Y-86991110D02*
X239700000Y-85400000D01*
X238108890Y-90017958D02*
X238108890Y-86991110D01*
X238937667Y-91683400D02*
X238486401Y-91232134D01*
X238486401Y-91232134D02*
X238486401Y-90395469D01*
X239700000Y-84900000D02*
X240475000Y-84125000D01*
X240475000Y-84125000D02*
X241400000Y-84125000D01*
X121424199Y-91374191D02*
X119675007Y-89624999D01*
X124099997Y-91900003D02*
X123574185Y-91374191D01*
X123574185Y-91374191D02*
X121424199Y-91374191D01*
X119675007Y-89624999D02*
X119375008Y-89325000D01*
X120100000Y-86475000D02*
X121024998Y-87399998D01*
X120100000Y-84850000D02*
X120100000Y-86475000D01*
X121024998Y-87399998D02*
X121024998Y-88850000D01*
X243169999Y-89704999D02*
X242670000Y-89205000D01*
X243710378Y-90245378D02*
X243169999Y-89704999D01*
X242928600Y-93371400D02*
X243710378Y-92589622D01*
X243710378Y-92589622D02*
X243710378Y-90245378D01*
X240882166Y-93371400D02*
X242928600Y-93371400D01*
X238450003Y-94349999D02*
X238550001Y-94250001D01*
X199504501Y-94349999D02*
X238450003Y-94349999D01*
X238550001Y-94250001D02*
X238850000Y-93950002D01*
X198657302Y-93502800D02*
X199504501Y-94349999D01*
X120900000Y-92101465D02*
X120902411Y-92099054D01*
X120900000Y-93350000D02*
X120900000Y-92101465D01*
X237300000Y-84450000D02*
X239500000Y-82250000D01*
X237097092Y-84450000D02*
X237300000Y-84450000D01*
X227800000Y-87500000D02*
X227371399Y-87071399D01*
X227800000Y-87547600D02*
X227800000Y-87500000D01*
X227371399Y-87071399D02*
X227371399Y-85196271D01*
X227371399Y-85196271D02*
X228117670Y-84450000D01*
X228117670Y-84450000D02*
X237097092Y-84450000D01*
X227800000Y-87547600D02*
X227800000Y-88650000D01*
X227800000Y-88650000D02*
X228900000Y-89750000D01*
X231000000Y-89750000D02*
X231200001Y-89950001D01*
X232382300Y-92052800D02*
X231500000Y-91170500D01*
X231500000Y-91170500D02*
X231500000Y-90250000D01*
X232382300Y-92217800D02*
X232382300Y-92052800D01*
X228047600Y-87300000D02*
X227800000Y-87547600D01*
X231200001Y-89950001D02*
X231500000Y-90250000D01*
X228900000Y-89750000D02*
X231000000Y-89750000D01*
X228537500Y-87300000D02*
X228047600Y-87300000D01*
X243026256Y-94204811D02*
X244320000Y-92911067D01*
X240440521Y-94204811D02*
X243026256Y-94204811D01*
X239640521Y-93404811D02*
X240440521Y-94204811D01*
X238154811Y-93404811D02*
X239640521Y-93404811D01*
X244320000Y-92911067D02*
X244320000Y-88770000D01*
X234840740Y-91740740D02*
X236490740Y-91740740D01*
X236490740Y-91740740D02*
X238154811Y-93404811D01*
X244320000Y-88770000D02*
X243720000Y-88170000D01*
X243720000Y-88170000D02*
X243720000Y-86445000D01*
X243720000Y-86445000D02*
X243169999Y-85894999D01*
X243169999Y-85894999D02*
X242670000Y-85395000D01*
X118802400Y-90300000D02*
X119098721Y-90596321D01*
X117850000Y-90300000D02*
X118802400Y-90300000D01*
X119098721Y-90596321D02*
X119098721Y-90767331D01*
X207029826Y-88775000D02*
X211379500Y-88775000D01*
X146885902Y-85772696D02*
X146885902Y-86656530D01*
X146885902Y-86656530D02*
X145587621Y-87954811D01*
X145587621Y-87954811D02*
X135331099Y-87954811D01*
X146768620Y-85655414D02*
X146885902Y-85772696D01*
X146344356Y-85655414D02*
X146768620Y-85655414D01*
X134757299Y-88528611D02*
X134457300Y-88828610D01*
X135331099Y-87954811D02*
X134757299Y-88528611D01*
X211379500Y-88775000D02*
X211457300Y-88852800D01*
X206950000Y-88854826D02*
X207029826Y-88775000D01*
X233432300Y-92887800D02*
X233686365Y-92887800D01*
X234000001Y-92574164D02*
X234300000Y-92274165D01*
X233686365Y-92887800D02*
X234000001Y-92574164D01*
X119775000Y-87975000D02*
X117925000Y-87975000D01*
X117925000Y-87975000D02*
X117850000Y-87900000D01*
X119700000Y-87900000D02*
X119775000Y-87975000D01*
X207007239Y-89550000D02*
X211402097Y-89550000D01*
X133957299Y-88528611D02*
X133657300Y-88828610D01*
X146357292Y-86407714D02*
X145115006Y-87650000D01*
X145115006Y-87650000D02*
X134835910Y-87650000D01*
X134835910Y-87650000D02*
X133957299Y-88528611D01*
X211402097Y-89550000D02*
X211457300Y-89605203D01*
X206950000Y-89607239D02*
X207007239Y-89550000D01*
X166025000Y-89937500D02*
X168037500Y-89937500D01*
X168037500Y-89937500D02*
X168050000Y-89925000D01*
X81957300Y-87502800D02*
X87957300Y-87502800D01*
X81007300Y-86552800D02*
X81957300Y-87502800D01*
X79907300Y-86552800D02*
X81007300Y-86552800D01*
X79207300Y-87252800D02*
X79907300Y-86552800D01*
X79207300Y-92259906D02*
X79207300Y-87252800D01*
X78214406Y-93252800D02*
X79207300Y-92259906D01*
X77507300Y-93252800D02*
X78214406Y-93252800D01*
X77507300Y-93252800D02*
X77507300Y-91019379D01*
X77507300Y-91019379D02*
X77290721Y-90802800D01*
X73507300Y-90802800D02*
X74457300Y-90802800D01*
X124960092Y-87900000D02*
X124957292Y-87902800D01*
X126350000Y-87900000D02*
X124960092Y-87900000D01*
X206962065Y-91100000D02*
X211404500Y-91100000D01*
X206950000Y-91112065D02*
X206962065Y-91100000D01*
X211404500Y-91100000D02*
X211457300Y-91152800D01*
X82138303Y-85902800D02*
X82457300Y-86221797D01*
X79657300Y-85902800D02*
X82138303Y-85902800D01*
X58048000Y-93273400D02*
X58672589Y-93897989D01*
X58672589Y-93897989D02*
X75512111Y-93897989D01*
X58048000Y-92446000D02*
X58048000Y-93273400D01*
X75512111Y-93897989D02*
X76402489Y-93007611D01*
X76402489Y-93007611D02*
X76402489Y-89157611D01*
X76402489Y-89157611D02*
X79657300Y-85902800D01*
X123300000Y-84850000D02*
X123300000Y-87500000D01*
X204657300Y-92552800D02*
X203757300Y-91652800D01*
X214807300Y-92552800D02*
X204657300Y-92552800D01*
X203757300Y-91652800D02*
X203757300Y-89452801D01*
X203757300Y-89452801D02*
X203757301Y-89452800D01*
X79762110Y-86247990D02*
X81731090Y-86247990D01*
X79757300Y-86252800D02*
X79762110Y-86247990D01*
X81731090Y-86247990D02*
X82457300Y-86974200D01*
X57107300Y-91386700D02*
X57107300Y-93266782D01*
X58048000Y-90446000D02*
X57107300Y-91386700D01*
X57107300Y-93266782D02*
X58043318Y-94202800D01*
X58043318Y-94202800D02*
X75638367Y-94202800D01*
X76707300Y-89302800D02*
X79757300Y-86252800D01*
X75638367Y-94202800D02*
X76707300Y-93133867D01*
X76707300Y-93133867D02*
X76707300Y-89302800D01*
X122500000Y-84850000D02*
X122500000Y-87749992D01*
D45*
X237250000Y-88300000D02*
X235750000Y-89800000D01*
X237250000Y-85600000D02*
X237250000Y-88300000D01*
X235750000Y-89800000D02*
X233400000Y-89800000D01*
X233400000Y-89800000D02*
X232462500Y-90737500D01*
X232462500Y-90737500D02*
X232462500Y-91000000D01*
X230562500Y-87800000D02*
X231662500Y-87800000D01*
X231662500Y-87800000D02*
X231750000Y-87887500D01*
X230562500Y-87800000D02*
X230184960Y-87800000D01*
X230184960Y-87800000D02*
X229184960Y-86800000D01*
X229184960Y-86800000D02*
X229129000Y-86800000D01*
X229129000Y-86800000D02*
X228537500Y-86800000D01*
X228324264Y-85450000D02*
X228424264Y-85350000D01*
X227900000Y-85450000D02*
X228324264Y-85450000D01*
X228424264Y-85350000D02*
X230100000Y-85350000D01*
X230100000Y-85350000D02*
X230300000Y-85550000D01*
X230300000Y-85550000D02*
X230300000Y-86037500D01*
X227900000Y-86600000D02*
X228100000Y-86800000D01*
X227900000Y-85450000D02*
X227900000Y-86600000D01*
X228100000Y-86800000D02*
X228537500Y-86800000D01*
X228887500Y-86800000D02*
X228675000Y-86800000D01*
D44*
X232732300Y-92217800D02*
X232732300Y-91800400D01*
X232732300Y-91800400D02*
X232462500Y-91530600D01*
X232462500Y-91530600D02*
X232462500Y-91477400D01*
X232462500Y-91477400D02*
X232462500Y-91000000D01*
D45*
X213850000Y-85400000D02*
X212575000Y-84125000D01*
X212575000Y-84125000D02*
X211850000Y-84125000D01*
X210350000Y-84100000D02*
X211825000Y-84100000D01*
X211825000Y-84100000D02*
X211850000Y-84125000D01*
X210350000Y-84100000D02*
X210555000Y-84100000D01*
D44*
X232732300Y-92217800D02*
X232732300Y-92887800D01*
X128000000Y-89500000D02*
X126350000Y-89500000D01*
X159650000Y-86450000D02*
X159650000Y-88100000D01*
X159650000Y-88100000D02*
X159049999Y-88700001D01*
X159049999Y-88700001D02*
X158750000Y-89000000D01*
X158947600Y-86450000D02*
X157550400Y-85052800D01*
X152696870Y-85052800D02*
X150981266Y-86768404D01*
X157550400Y-85052800D02*
X152696870Y-85052800D01*
X150981266Y-86768404D02*
X150981266Y-89404570D01*
X151037300Y-89802800D02*
X151007300Y-89802800D01*
X159650000Y-86450000D02*
X158947600Y-86450000D01*
X151007300Y-89802800D02*
X150981266Y-89828834D01*
X150981266Y-89404570D02*
X150981266Y-89828834D01*
X203207300Y-88172700D02*
X203207300Y-86352800D01*
X201980000Y-89400000D02*
X203207300Y-88172700D01*
X202257300Y-85402800D02*
X195397200Y-85402800D01*
X193199999Y-87600001D02*
X192900000Y-87900000D01*
X195397200Y-85402800D02*
X193199999Y-87600001D01*
X203207300Y-86352800D02*
X202257300Y-85402800D01*
X130502446Y-88500000D02*
X130926223Y-88923777D01*
X130037500Y-88500000D02*
X130502446Y-88500000D01*
X130037500Y-88500000D02*
X130037500Y-88748982D01*
X130037500Y-88748982D02*
X129262500Y-89523982D01*
X129262500Y-89523982D02*
X129262500Y-89700000D01*
X121700000Y-84850000D02*
X121700000Y-87978593D01*
X121700000Y-87900000D02*
X121700000Y-87978593D01*
X125327400Y-93350000D02*
X126144223Y-92533177D01*
X126144223Y-92533177D02*
X127853729Y-92533177D01*
X195897600Y-89400000D02*
X196900000Y-89400000D01*
X127853729Y-92533177D02*
X129328163Y-94007611D01*
X129328163Y-94007611D02*
X191289989Y-94007611D01*
X191289989Y-94007611D02*
X195897600Y-89400000D01*
X124900000Y-93350000D02*
X125327400Y-93350000D01*
X199440000Y-93485500D02*
X199457300Y-93502800D01*
X199440000Y-89400000D02*
X199440000Y-93485500D01*
X199440000Y-86860000D02*
X200557300Y-87977300D01*
X200557300Y-92650368D02*
X200783517Y-92876585D01*
X200783517Y-92876585D02*
X201083516Y-93176584D01*
X200557300Y-87977300D02*
X200557300Y-92650368D01*
X124552348Y-92209889D02*
X124852347Y-91909890D01*
X124100000Y-93350000D02*
X124100000Y-92663518D01*
X124552348Y-92211170D02*
X124552348Y-92209889D01*
X124100000Y-92663518D02*
X124552348Y-92211170D01*
X118850000Y-84850000D02*
X118350000Y-85350000D01*
X119300000Y-84850000D02*
X118850000Y-84850000D01*
X206984652Y-90325000D02*
X211424694Y-90325000D01*
X206950000Y-90359652D02*
X206984652Y-90325000D01*
X211424694Y-90325000D02*
X211457300Y-90357606D01*
X207052413Y-88000000D02*
X211354500Y-88000000D01*
X206950000Y-88102413D02*
X207052413Y-88000000D01*
X211354500Y-88000000D02*
X211457300Y-88102800D01*
X207075000Y-87225000D02*
X211329451Y-87225000D01*
X206950000Y-87350000D02*
X207075000Y-87225000D01*
X211329451Y-87225000D02*
X211457251Y-87352800D01*
X111244535Y-86702800D02*
X111650001Y-86297334D01*
X111650001Y-86297334D02*
X111950000Y-85997335D01*
X110157300Y-86702800D02*
X111244535Y-86702800D01*
X120900000Y-91902460D02*
X120902411Y-91900049D01*
X187107300Y-93702800D02*
X187957301Y-92852799D01*
X187957301Y-92852799D02*
X188257300Y-92552800D01*
X173757300Y-93702800D02*
X187107300Y-93702800D01*
X172307300Y-92252800D02*
X173757300Y-93702800D01*
X144686372Y-93397990D02*
X145107298Y-92977064D01*
X134702490Y-93397990D02*
X144686372Y-93397990D01*
X145107298Y-92977064D02*
X145107298Y-92552800D01*
X134057300Y-92752800D02*
X134702490Y-93397990D01*
X134057300Y-90202800D02*
X134057300Y-92752800D01*
X115557300Y-92902800D02*
X118307300Y-92902800D01*
X118307300Y-92902800D02*
X118507300Y-92702800D01*
X126350000Y-87100000D02*
X124950000Y-87100000D01*
X88100000Y-93050000D02*
X90950000Y-93050000D01*
X90950000Y-93050000D02*
X91000000Y-93000000D01*
X123300000Y-93350000D02*
X123300000Y-91945492D01*
X123300000Y-91945492D02*
X123257300Y-91902792D01*
X126350000Y-85750343D02*
X126357300Y-85743043D01*
X126350000Y-86300000D02*
X126350000Y-85750343D01*
X112847971Y-89264822D02*
X112847971Y-85999364D01*
X112847971Y-85999364D02*
X112850000Y-85997335D01*
X103900000Y-93627400D02*
X104475400Y-94202800D01*
X103900000Y-93150000D02*
X103900000Y-93627400D01*
X104475400Y-94202800D02*
X105957300Y-94202800D01*
X105957300Y-94202800D02*
X106257300Y-93902800D01*
X106257300Y-93902800D02*
X106257300Y-91202800D01*
X117850000Y-86300000D02*
X117850000Y-85850000D01*
X117850000Y-85850000D02*
X117649999Y-85649999D01*
X117649999Y-85649999D02*
X117350000Y-85350000D01*
X147507300Y-91402800D02*
X147507300Y-93002800D01*
X135007300Y-90202800D02*
X135607300Y-90802800D01*
X140407300Y-92752800D02*
X143833024Y-92752800D01*
X138457300Y-90802800D02*
X140407300Y-92752800D01*
X143833024Y-92752800D02*
X144257288Y-92752800D01*
X135607300Y-90802800D02*
X138457300Y-90802800D01*
X119300000Y-93350000D02*
X119300000Y-91900008D01*
X119300000Y-91900008D02*
X119299992Y-91900000D01*
X174350000Y-92250000D02*
X177100000Y-89500000D01*
X177100000Y-89500000D02*
X177760000Y-89500000D01*
X185807300Y-88602800D02*
X186957300Y-88602800D01*
X185507300Y-88302800D02*
X185807300Y-88602800D01*
X167407300Y-88302800D02*
X185507300Y-88302800D01*
X163852489Y-84747989D02*
X167407300Y-88302800D01*
X149207300Y-87052800D02*
X151512111Y-84747989D01*
X151512111Y-84747989D02*
X163852489Y-84747989D01*
X187457300Y-89102800D02*
X187457300Y-90252800D01*
X186957300Y-88602800D02*
X187457300Y-89102800D01*
X187457300Y-90252800D02*
X187757300Y-90552800D01*
X188957300Y-90552800D02*
X190807300Y-88702800D01*
X187757300Y-90552800D02*
X188957300Y-90552800D01*
X190807300Y-88702800D02*
X190807300Y-87302800D01*
X124100000Y-87497638D02*
X124102411Y-87500049D01*
X124100000Y-84850000D02*
X124100000Y-87497638D01*
X188307300Y-87302800D02*
X188784700Y-87302800D01*
X188784700Y-87302800D02*
X190807300Y-87302800D01*
X216857300Y-90602800D02*
X217657200Y-90602800D01*
X216107300Y-91352800D02*
X216857300Y-90602800D01*
X216107300Y-93283867D02*
X216107300Y-91352800D01*
X215678745Y-93712422D02*
X216107300Y-93283867D01*
X202606077Y-93188633D02*
X203129866Y-93712422D01*
X203129866Y-93712422D02*
X215678745Y-93712422D01*
X217657200Y-90602800D02*
X217860001Y-90399999D01*
X217860001Y-90399999D02*
X218760000Y-89500000D01*
X197197823Y-93612277D02*
X197197823Y-92264723D01*
X196497678Y-94312422D02*
X197197823Y-93612277D01*
X196165346Y-94312422D02*
X196497678Y-94312422D01*
X127600000Y-93061778D02*
X128850644Y-94312422D01*
X128850644Y-94312422D02*
X196165346Y-94312422D01*
X120100000Y-93350000D02*
X120100000Y-91899998D01*
X227550000Y-93700000D02*
X229357300Y-93700000D01*
X227000000Y-93150000D02*
X227550000Y-93700000D01*
X229357300Y-93700000D02*
X229907300Y-93150000D01*
X215452489Y-93407611D02*
X203831044Y-93407611D01*
X226700000Y-88950000D02*
X225952800Y-88202800D01*
X215802490Y-93057610D02*
X215452489Y-93407611D01*
X215802490Y-90557610D02*
X215802490Y-93057610D01*
X218157300Y-88202800D02*
X215802490Y-90557610D01*
X201337245Y-93705185D02*
X200459685Y-93705185D01*
X225952800Y-88202800D02*
X218157300Y-88202800D01*
X203831044Y-93407611D02*
X203081044Y-92657611D01*
X203081044Y-92657611D02*
X202384819Y-92657611D01*
X202384819Y-92657611D02*
X201337245Y-93705185D01*
X200459685Y-93705185D02*
X200257300Y-93502800D01*
X186807301Y-93152799D02*
X187107300Y-92852800D01*
X173357300Y-92252800D02*
X174502490Y-93397990D01*
X186562110Y-93397990D02*
X186807301Y-93152799D01*
X174502490Y-93397990D02*
X186562110Y-93397990D01*
X229907300Y-93150000D02*
X229907300Y-92100368D01*
X229907300Y-92100368D02*
X229887726Y-92080794D01*
X126350000Y-90300000D02*
X127036482Y-90300000D01*
D46*
X83000000Y-91600000D02*
X84306400Y-91600000D01*
X84306400Y-91600000D02*
X84500000Y-91406400D01*
X84500000Y-91406400D02*
X84500000Y-89593600D01*
X84500000Y-89593600D02*
X84893600Y-89200000D01*
X84893600Y-89200000D02*
X86200000Y-89200000D01*
D44*
X86200000Y-90200000D02*
X85900000Y-90500000D01*
X85900000Y-90500000D02*
X85900000Y-91150000D01*
X86200000Y-89200000D02*
X86200000Y-90200000D01*
X101700000Y-91250000D02*
X101700000Y-89900000D01*
X101700000Y-89900000D02*
X102100000Y-89500000D01*
D46*
X98300000Y-89500000D02*
X102100000Y-89500000D01*
D44*
X143100000Y-89500000D02*
X145304500Y-89500000D01*
X145304500Y-89500000D02*
X145307300Y-89502800D01*
D46*
X139300000Y-89500000D02*
X143100000Y-89500000D01*
D44*
X184100000Y-89510000D02*
X186400100Y-89510000D01*
X186400100Y-89510000D02*
X186407300Y-89502800D01*
X183800000Y-89810000D02*
X184100000Y-89510000D01*
D46*
X180300000Y-89500000D02*
X184090000Y-89500000D01*
X184090000Y-89500000D02*
X184100000Y-89510000D01*
D44*
X225100000Y-89500000D02*
X225100000Y-90950000D01*
X225100000Y-90950000D02*
X224800000Y-91250000D01*
D46*
X221300000Y-89500000D02*
X225100000Y-89500000D01*
D44*
X113000000Y-90200000D02*
X110802800Y-88002800D01*
X110802800Y-88002800D02*
X110157300Y-88002800D01*
X113753482Y-90200000D02*
X113000000Y-90200000D01*
X117850000Y-91100000D02*
X114653482Y-91100000D01*
X114653482Y-91100000D02*
X113753482Y-90200000D01*
X114257300Y-92000400D02*
X114357700Y-91900000D01*
X114357700Y-91900000D02*
X117850000Y-91900000D01*
X114257300Y-92902800D02*
X114257300Y-92000400D01*
X234250000Y-91235100D02*
X234250000Y-91199998D01*
X233432300Y-92052800D02*
X234250000Y-91235100D01*
X233432300Y-92217800D02*
X233432300Y-92052800D01*
X228887500Y-87300000D02*
X228397600Y-87300000D01*
X228397600Y-87300000D02*
X228321399Y-87376201D01*
X228537500Y-87800000D02*
X229272554Y-87800000D01*
X229272554Y-87800000D02*
X229300000Y-87772554D01*
X232187800Y-92887800D02*
X231825090Y-92525090D01*
X232382300Y-92887800D02*
X232187800Y-92887800D01*
X231825090Y-92525090D02*
X231825090Y-92175090D01*
X231825090Y-92175090D02*
X230521390Y-90871390D01*
X230521390Y-90871390D02*
X230521390Y-90702874D01*
X230521390Y-90702874D02*
X230521390Y-90278610D01*
X114650000Y-90450000D02*
X114100000Y-89900000D01*
X114100000Y-89900000D02*
X114100000Y-89275000D01*
X115462500Y-90450000D02*
X114650000Y-90450000D01*
D45*
G36*
X92593224Y-84000000D02*
X92618298Y-84126056D01*
X92689703Y-84232921D01*
X92796568Y-84304326D01*
X92922624Y-84329400D01*
X94922624Y-84329400D01*
X95048680Y-84304326D01*
X95155545Y-84232921D01*
X95226950Y-84126056D01*
X95252024Y-84000000D01*
X95252024Y-83524214D01*
X104719000Y-83524214D01*
X104719000Y-84677750D01*
X104814250Y-84773000D01*
X105773000Y-84773000D01*
X105773000Y-83314250D01*
X106027000Y-83314250D01*
X106027000Y-84773000D01*
X106985750Y-84773000D01*
X107081000Y-84677750D01*
X107081000Y-83524214D01*
X107022996Y-83384180D01*
X106915819Y-83277004D01*
X106775785Y-83219000D01*
X106122250Y-83219000D01*
X106027000Y-83314250D01*
X105773000Y-83314250D01*
X105677750Y-83219000D01*
X105024215Y-83219000D01*
X104884181Y-83277004D01*
X104777004Y-83384180D01*
X104719000Y-83524214D01*
X95252024Y-83524214D01*
X95252024Y-80329400D01*
X133593224Y-80329400D01*
X133593224Y-84000000D01*
X133618298Y-84126056D01*
X133689703Y-84232921D01*
X133796568Y-84304326D01*
X133922624Y-84329400D01*
X135922624Y-84329400D01*
X136048680Y-84304326D01*
X136155545Y-84232921D01*
X136226950Y-84126056D01*
X136252024Y-84000000D01*
X136252024Y-80329400D01*
X174593224Y-80329400D01*
X174593224Y-84000000D01*
X174618298Y-84126056D01*
X174689703Y-84232921D01*
X174796568Y-84304326D01*
X174922624Y-84329400D01*
X176922624Y-84329400D01*
X177048680Y-84304326D01*
X177155545Y-84232921D01*
X177226950Y-84126056D01*
X177252024Y-84000000D01*
X177252024Y-83749214D01*
X205944000Y-83749214D01*
X205944000Y-83890250D01*
X206039250Y-83985500D01*
X206523000Y-83985500D01*
X206523000Y-83539250D01*
X206777000Y-83539250D01*
X206777000Y-83985500D01*
X207260750Y-83985500D01*
X207303750Y-83942500D01*
X207334250Y-83973000D01*
X208023000Y-83973000D01*
X208023000Y-83489250D01*
X208277000Y-83489250D01*
X208277000Y-83973000D01*
X208965750Y-83973000D01*
X209061000Y-83877750D01*
X209061000Y-83699215D01*
X209002996Y-83559181D01*
X208895820Y-83452004D01*
X208755786Y-83394000D01*
X208372250Y-83394000D01*
X208277000Y-83489250D01*
X208023000Y-83489250D01*
X207927750Y-83394000D01*
X207544214Y-83394000D01*
X207404180Y-83452004D01*
X207297004Y-83559181D01*
X207282650Y-83593834D01*
X207190819Y-83502004D01*
X207050785Y-83444000D01*
X206872250Y-83444000D01*
X206777000Y-83539250D01*
X206523000Y-83539250D01*
X206427750Y-83444000D01*
X206249215Y-83444000D01*
X206109181Y-83502004D01*
X206002004Y-83609180D01*
X205944000Y-83749214D01*
X177252024Y-83749214D01*
X177252024Y-80329400D01*
X215593224Y-80329400D01*
X215593224Y-84000000D01*
X215618298Y-84126056D01*
X215689703Y-84232921D01*
X215796568Y-84304326D01*
X215922624Y-84329400D01*
X217922624Y-84329400D01*
X218048680Y-84304326D01*
X218155545Y-84232921D01*
X218226950Y-84126056D01*
X218252024Y-84000000D01*
X218252024Y-80329400D01*
X244270600Y-80329400D01*
X244270600Y-88217706D01*
X244075600Y-88022706D01*
X244075600Y-86445000D01*
X244068999Y-86411812D01*
X244048532Y-86308917D01*
X243971447Y-86193553D01*
X243416260Y-85638366D01*
X243464669Y-85395000D01*
X243404178Y-85090893D01*
X243231916Y-84833084D01*
X243122538Y-84760000D01*
X243231916Y-84686916D01*
X243404178Y-84429107D01*
X243464669Y-84125000D01*
X243404178Y-83820893D01*
X243231916Y-83563084D01*
X243207107Y-83546507D01*
X243233807Y-83531987D01*
X243449961Y-83264695D01*
X243511198Y-83116816D01*
X243445419Y-82982000D01*
X242797000Y-82982000D01*
X242797000Y-83002000D01*
X242543000Y-83002000D01*
X242543000Y-82982000D01*
X242523000Y-82982000D01*
X242523000Y-82728000D01*
X242543000Y-82728000D01*
X242543000Y-82078435D01*
X242797000Y-82078435D01*
X242797000Y-82728000D01*
X243445419Y-82728000D01*
X243511198Y-82593184D01*
X243449961Y-82445305D01*
X243233807Y-82178013D01*
X242931818Y-82013786D01*
X242797000Y-82078435D01*
X242543000Y-82078435D01*
X242408182Y-82013786D01*
X242114686Y-82173394D01*
X242101436Y-82153564D01*
X242009016Y-82091812D01*
X241900000Y-82070127D01*
X240900000Y-82070127D01*
X240790984Y-82091812D01*
X240698564Y-82153564D01*
X240636812Y-82245984D01*
X240615127Y-82355000D01*
X240615127Y-82448600D01*
X240044875Y-82448600D01*
X240079400Y-82365250D01*
X240079400Y-82134750D01*
X239991192Y-81921796D01*
X239828204Y-81758808D01*
X239615250Y-81670600D01*
X239384750Y-81670600D01*
X239171796Y-81758808D01*
X239008808Y-81921796D01*
X238920600Y-82134750D01*
X238920600Y-82326506D01*
X237152706Y-84094400D01*
X228117670Y-84094400D01*
X227981588Y-84121468D01*
X227866223Y-84198553D01*
X227119952Y-84944824D01*
X227042867Y-85060188D01*
X227024734Y-85151353D01*
X227015799Y-85196271D01*
X227015799Y-87071399D01*
X227042867Y-87207482D01*
X227119952Y-87322846D01*
X227444400Y-87647294D01*
X227444400Y-88650000D01*
X227471468Y-88786083D01*
X227548553Y-88901447D01*
X228648553Y-90001447D01*
X228763917Y-90078532D01*
X228900000Y-90105600D01*
X229965915Y-90105600D01*
X229941990Y-90163360D01*
X229941990Y-90393860D01*
X230030198Y-90606814D01*
X230165790Y-90742406D01*
X230165790Y-90871390D01*
X230192858Y-91007473D01*
X230269943Y-91122837D01*
X231469490Y-92322384D01*
X231469490Y-92525090D01*
X231496558Y-92661173D01*
X231573643Y-92776537D01*
X231936353Y-93139247D01*
X232003680Y-93184234D01*
X232019112Y-93261816D01*
X232080864Y-93354236D01*
X232173284Y-93415988D01*
X232282300Y-93437673D01*
X232482300Y-93437673D01*
X232557300Y-93422754D01*
X232632300Y-93437673D01*
X232728357Y-93437673D01*
X232766480Y-93475796D01*
X232906514Y-93533800D01*
X232937050Y-93533800D01*
X233032300Y-93438550D01*
X233032300Y-93355195D01*
X233033736Y-93354236D01*
X233082300Y-93281554D01*
X233130864Y-93354236D01*
X233132300Y-93355195D01*
X233132300Y-93438550D01*
X233227550Y-93533800D01*
X233258086Y-93533800D01*
X233398120Y-93475796D01*
X233436243Y-93437673D01*
X233532300Y-93437673D01*
X233641316Y-93415988D01*
X233733736Y-93354236D01*
X233795488Y-93261816D01*
X233803798Y-93220042D01*
X233822448Y-93216332D01*
X233937812Y-93139247D01*
X234223494Y-92853565D01*
X234415250Y-92853565D01*
X234628204Y-92765357D01*
X234791192Y-92602369D01*
X234879400Y-92389415D01*
X234879400Y-92320140D01*
X234955990Y-92320140D01*
X235168944Y-92231932D01*
X235304536Y-92096340D01*
X236343446Y-92096340D01*
X237472698Y-93225592D01*
X237271796Y-93308808D01*
X237126388Y-93454216D01*
X237039654Y-93471468D01*
X236935753Y-93540893D01*
X236924289Y-93548553D01*
X236797041Y-93675801D01*
X230483736Y-93675801D01*
X230568043Y-93591494D01*
X230686700Y-93305032D01*
X230686700Y-92994968D01*
X230568043Y-92708506D01*
X230348794Y-92489257D01*
X230313343Y-92474573D01*
X230378918Y-92408998D01*
X230467126Y-92196044D01*
X230467126Y-91965544D01*
X230378918Y-91752590D01*
X230215930Y-91589602D01*
X230002976Y-91501394D01*
X229772476Y-91501394D01*
X229559522Y-91589602D01*
X229396534Y-91752590D01*
X229308326Y-91965544D01*
X229308326Y-92196044D01*
X229396534Y-92408998D01*
X229473575Y-92486039D01*
X229465806Y-92489257D01*
X229246557Y-92708506D01*
X229127900Y-92994968D01*
X229127900Y-93305032D01*
X229144207Y-93344400D01*
X228858818Y-93344400D01*
X228991192Y-93212026D01*
X229079400Y-92999072D01*
X229079400Y-92768572D01*
X229005586Y-92590368D01*
X229026436Y-92576436D01*
X229088188Y-92484016D01*
X229109873Y-92375000D01*
X229109873Y-91853943D01*
X229147996Y-91815820D01*
X229206000Y-91675786D01*
X229206000Y-91534750D01*
X229110750Y-91439500D01*
X228627000Y-91439500D01*
X228627000Y-91459500D01*
X228373000Y-91459500D01*
X228373000Y-91439500D01*
X227889250Y-91439500D01*
X227883750Y-91445000D01*
X227815750Y-91377000D01*
X227127000Y-91377000D01*
X227127000Y-91397000D01*
X226873000Y-91397000D01*
X226873000Y-91377000D01*
X226184250Y-91377000D01*
X226089000Y-91472250D01*
X226089000Y-91650785D01*
X226147004Y-91790819D01*
X226192769Y-91836584D01*
X226185127Y-91875000D01*
X226185127Y-92525000D01*
X226206812Y-92634016D01*
X226234196Y-92675000D01*
X226206812Y-92715984D01*
X226185127Y-92825000D01*
X226185127Y-93475000D01*
X226206812Y-93584016D01*
X226268140Y-93675801D01*
X225659217Y-93675801D01*
X225711000Y-93550785D01*
X225711000Y-93372250D01*
X225615750Y-93277000D01*
X224927000Y-93277000D01*
X224927000Y-93297000D01*
X224673000Y-93297000D01*
X224673000Y-93277000D01*
X223984250Y-93277000D01*
X223889000Y-93372250D01*
X223889000Y-93550785D01*
X223940783Y-93675801D01*
X216218260Y-93675801D01*
X216358747Y-93535314D01*
X216435832Y-93419950D01*
X216462900Y-93283867D01*
X216462900Y-92642282D01*
X216490153Y-92708077D01*
X216821923Y-93039847D01*
X217255403Y-93219400D01*
X217724597Y-93219400D01*
X218158077Y-93039847D01*
X218489847Y-92708077D01*
X218669400Y-92274597D01*
X218669400Y-91805403D01*
X218850600Y-91805403D01*
X218850600Y-92274597D01*
X219030153Y-92708077D01*
X219361923Y-93039847D01*
X219795403Y-93219400D01*
X220264597Y-93219400D01*
X220698077Y-93039847D01*
X220988709Y-92749215D01*
X223889000Y-92749215D01*
X223889000Y-92927750D01*
X223984250Y-93023000D01*
X224673000Y-93023000D01*
X224673000Y-92539250D01*
X224927000Y-92539250D01*
X224927000Y-93023000D01*
X225615750Y-93023000D01*
X225711000Y-92927750D01*
X225711000Y-92749215D01*
X225652996Y-92609181D01*
X225545820Y-92502004D01*
X225405786Y-92444000D01*
X225022250Y-92444000D01*
X224927000Y-92539250D01*
X224673000Y-92539250D01*
X224577750Y-92444000D01*
X224194214Y-92444000D01*
X224054180Y-92502004D01*
X223947004Y-92609181D01*
X223889000Y-92749215D01*
X220988709Y-92749215D01*
X221029847Y-92708077D01*
X221209400Y-92274597D01*
X221209400Y-91805403D01*
X221029847Y-91371923D01*
X220698077Y-91040153D01*
X220264597Y-90860600D01*
X219795403Y-90860600D01*
X219361923Y-91040153D01*
X219030153Y-91371923D01*
X218850600Y-91805403D01*
X218669400Y-91805403D01*
X218489847Y-91371923D01*
X218158077Y-91040153D01*
X217832346Y-90905231D01*
X217908647Y-90854247D01*
X218212926Y-90549968D01*
X218525403Y-90679400D01*
X218994597Y-90679400D01*
X219428077Y-90499847D01*
X219759847Y-90168077D01*
X219939400Y-89734597D01*
X219939400Y-89265403D01*
X219759847Y-88831923D01*
X219486324Y-88558400D01*
X220123402Y-88558400D01*
X220115127Y-88600000D01*
X220115127Y-90400000D01*
X220136812Y-90509016D01*
X220198564Y-90601436D01*
X220290984Y-90663188D01*
X220400000Y-90684873D01*
X221859265Y-90684873D01*
X221827275Y-90716863D01*
X221670550Y-91095230D01*
X221670550Y-91504770D01*
X221827275Y-91883137D01*
X222116863Y-92172725D01*
X222495230Y-92329450D01*
X222904770Y-92329450D01*
X223283137Y-92172725D01*
X223572725Y-91883137D01*
X223729450Y-91504770D01*
X223729450Y-91095230D01*
X223572725Y-90716863D01*
X223283137Y-90427275D01*
X222904770Y-90270550D01*
X222495230Y-90270550D01*
X222484873Y-90274840D01*
X222484873Y-89982600D01*
X223915127Y-89982600D01*
X223915127Y-90035000D01*
X223936812Y-90144016D01*
X223998564Y-90236436D01*
X224090984Y-90298188D01*
X224200000Y-90319873D01*
X224744400Y-90319873D01*
X224744400Y-90640127D01*
X224270000Y-90640127D01*
X224160984Y-90661812D01*
X224068564Y-90723564D01*
X224006812Y-90815984D01*
X223985127Y-90925000D01*
X223985127Y-91575000D01*
X224006812Y-91684016D01*
X224068564Y-91776436D01*
X224160984Y-91838188D01*
X224270000Y-91859873D01*
X225330000Y-91859873D01*
X225439016Y-91838188D01*
X225531436Y-91776436D01*
X225593188Y-91684016D01*
X225614873Y-91575000D01*
X225614873Y-90925000D01*
X225599799Y-90849215D01*
X226089000Y-90849215D01*
X226089000Y-91027750D01*
X226184250Y-91123000D01*
X226873000Y-91123000D01*
X226873000Y-90639250D01*
X227127000Y-90639250D01*
X227127000Y-91123000D01*
X227815750Y-91123000D01*
X227821250Y-91117500D01*
X227889250Y-91185500D01*
X228373000Y-91185500D01*
X228373000Y-90739250D01*
X228627000Y-90739250D01*
X228627000Y-91185500D01*
X229110750Y-91185500D01*
X229206000Y-91090250D01*
X229206000Y-90949214D01*
X229147996Y-90809180D01*
X229040819Y-90702004D01*
X228900785Y-90644000D01*
X228722250Y-90644000D01*
X228627000Y-90739250D01*
X228373000Y-90739250D01*
X228277750Y-90644000D01*
X228099215Y-90644000D01*
X227959181Y-90702004D01*
X227881995Y-90779190D01*
X227852996Y-90709181D01*
X227745820Y-90602004D01*
X227605786Y-90544000D01*
X227222250Y-90544000D01*
X227127000Y-90639250D01*
X226873000Y-90639250D01*
X226777750Y-90544000D01*
X226394214Y-90544000D01*
X226254180Y-90602004D01*
X226147004Y-90709181D01*
X226089000Y-90849215D01*
X225599799Y-90849215D01*
X225593188Y-90815984D01*
X225531436Y-90723564D01*
X225455600Y-90672893D01*
X225455600Y-90319873D01*
X226000000Y-90319873D01*
X226109016Y-90298188D01*
X226201436Y-90236436D01*
X226263188Y-90144016D01*
X226284873Y-90035000D01*
X226284873Y-89354269D01*
X226371796Y-89441192D01*
X226584750Y-89529400D01*
X226815250Y-89529400D01*
X227028204Y-89441192D01*
X227191192Y-89278204D01*
X227279400Y-89065250D01*
X227279400Y-88834750D01*
X227191192Y-88621796D01*
X227028204Y-88458808D01*
X226815250Y-88370600D01*
X226623494Y-88370600D01*
X226204247Y-87951353D01*
X226088883Y-87874268D01*
X225952800Y-87847200D01*
X220605698Y-87847200D01*
X221740648Y-86712250D01*
X223819000Y-86712250D01*
X223819000Y-87100786D01*
X223877004Y-87240820D01*
X223984181Y-87347996D01*
X224124215Y-87406000D01*
X224877750Y-87406000D01*
X224973000Y-87310750D01*
X224973000Y-86617000D01*
X225227000Y-86617000D01*
X225227000Y-87310750D01*
X225322250Y-87406000D01*
X226075785Y-87406000D01*
X226215819Y-87347996D01*
X226322996Y-87240820D01*
X226381000Y-87100786D01*
X226381000Y-86712250D01*
X226285750Y-86617000D01*
X225227000Y-86617000D01*
X224973000Y-86617000D01*
X223914250Y-86617000D01*
X223819000Y-86712250D01*
X221740648Y-86712250D01*
X221823498Y-86629400D01*
X222015254Y-86629400D01*
X222228208Y-86541192D01*
X222391196Y-86378204D01*
X222479404Y-86165250D01*
X222479404Y-85934750D01*
X222456401Y-85879214D01*
X223819000Y-85879214D01*
X223819000Y-86267750D01*
X223914250Y-86363000D01*
X224973000Y-86363000D01*
X224973000Y-85669250D01*
X225227000Y-85669250D01*
X225227000Y-86363000D01*
X226285750Y-86363000D01*
X226381000Y-86267750D01*
X226381000Y-85879214D01*
X226322996Y-85739180D01*
X226215819Y-85632004D01*
X226075785Y-85574000D01*
X225322250Y-85574000D01*
X225227000Y-85669250D01*
X224973000Y-85669250D01*
X224877750Y-85574000D01*
X224124215Y-85574000D01*
X223984181Y-85632004D01*
X223877004Y-85739180D01*
X223819000Y-85879214D01*
X222456401Y-85879214D01*
X222391196Y-85721796D01*
X222228208Y-85558808D01*
X222015254Y-85470600D01*
X221784754Y-85470600D01*
X221571800Y-85558808D01*
X221408812Y-85721796D01*
X221320604Y-85934750D01*
X221320604Y-86126506D01*
X219999910Y-87447200D01*
X218007300Y-87447200D01*
X217871217Y-87474268D01*
X217755853Y-87551353D01*
X215246232Y-90060974D01*
X215169147Y-90176338D01*
X215150323Y-90270973D01*
X215142079Y-90312421D01*
X215142079Y-92068183D01*
X215135504Y-92061608D01*
X214922550Y-91973400D01*
X214692050Y-91973400D01*
X214479096Y-92061608D01*
X214343504Y-92197200D01*
X204804594Y-92197200D01*
X204112900Y-91505506D01*
X204112900Y-89916597D01*
X204248493Y-89781004D01*
X204336701Y-89568050D01*
X204336701Y-89337550D01*
X204248493Y-89124596D01*
X204085505Y-88961608D01*
X203872551Y-88873400D01*
X203642051Y-88873400D01*
X203429097Y-88961608D01*
X203266109Y-89124596D01*
X203177901Y-89337550D01*
X203177901Y-89568050D01*
X203266109Y-89781004D01*
X203401700Y-89916595D01*
X203401700Y-91652800D01*
X203428768Y-91788883D01*
X203505853Y-91904247D01*
X204348806Y-92747200D01*
X204104594Y-92747200D01*
X201886794Y-90529400D01*
X202091235Y-90529400D01*
X202420670Y-90463871D01*
X202794252Y-90214252D01*
X203043871Y-89840670D01*
X203131526Y-89400000D01*
X203043871Y-88959330D01*
X202995683Y-88887211D01*
X203458747Y-88424147D01*
X203479874Y-88392528D01*
X203535832Y-88308782D01*
X203562900Y-88172700D01*
X203562900Y-87109750D01*
X206370600Y-87109750D01*
X206370600Y-87340250D01*
X206458808Y-87553204D01*
X206518104Y-87612500D01*
X206458808Y-87671796D01*
X206370600Y-87884750D01*
X206370600Y-88115250D01*
X206458808Y-88328204D01*
X206518104Y-88387500D01*
X206458808Y-88446796D01*
X206370600Y-88659750D01*
X206370600Y-88890250D01*
X206458808Y-89103204D01*
X206518104Y-89162500D01*
X206458808Y-89221796D01*
X206370600Y-89434750D01*
X206370600Y-89665250D01*
X206458808Y-89878204D01*
X206518104Y-89937500D01*
X206458808Y-89996796D01*
X206370600Y-90209750D01*
X206370600Y-90440250D01*
X206458808Y-90653204D01*
X206518104Y-90712500D01*
X206458808Y-90771796D01*
X206370600Y-90984750D01*
X206370600Y-91215250D01*
X206458808Y-91428204D01*
X206621796Y-91591192D01*
X206834750Y-91679400D01*
X207065250Y-91679400D01*
X207278204Y-91591192D01*
X207413796Y-91455600D01*
X210986204Y-91455600D01*
X211121796Y-91591192D01*
X211334750Y-91679400D01*
X211565250Y-91679400D01*
X211778204Y-91591192D01*
X211941192Y-91428204D01*
X212029400Y-91215250D01*
X212029400Y-90984750D01*
X211941192Y-90771796D01*
X211881896Y-90712500D01*
X211941192Y-90653204D01*
X212029400Y-90440250D01*
X212029400Y-90209750D01*
X211941192Y-89996796D01*
X211881896Y-89937500D01*
X211941192Y-89878204D01*
X212029400Y-89665250D01*
X212029400Y-89434750D01*
X211941192Y-89221796D01*
X211881896Y-89162500D01*
X211941192Y-89103204D01*
X212029400Y-88890250D01*
X212029400Y-88659750D01*
X211941192Y-88446796D01*
X211881896Y-88387500D01*
X211941192Y-88328204D01*
X212029400Y-88115250D01*
X212029400Y-87884750D01*
X211941192Y-87671796D01*
X211881896Y-87612500D01*
X211941192Y-87553204D01*
X212029400Y-87340250D01*
X212029400Y-87109750D01*
X211941192Y-86896796D01*
X211778204Y-86733808D01*
X211565250Y-86645600D01*
X211334750Y-86645600D01*
X211121796Y-86733808D01*
X210986204Y-86869400D01*
X207413796Y-86869400D01*
X207278204Y-86733808D01*
X207065250Y-86645600D01*
X206834750Y-86645600D01*
X206621796Y-86733808D01*
X206458808Y-86896796D01*
X206370600Y-87109750D01*
X203562900Y-87109750D01*
X203562900Y-86352800D01*
X203554267Y-86309400D01*
X203536933Y-86222250D01*
X207239000Y-86222250D01*
X207239000Y-86400785D01*
X207297004Y-86540819D01*
X207404180Y-86647996D01*
X207544214Y-86706000D01*
X207927750Y-86706000D01*
X208023000Y-86610750D01*
X208023000Y-86127000D01*
X208277000Y-86127000D01*
X208277000Y-86610750D01*
X208372250Y-86706000D01*
X208755786Y-86706000D01*
X208895820Y-86647996D01*
X209002996Y-86540819D01*
X209061000Y-86400785D01*
X209061000Y-86222250D01*
X208965750Y-86127000D01*
X208277000Y-86127000D01*
X208023000Y-86127000D01*
X207334250Y-86127000D01*
X207239000Y-86222250D01*
X203536933Y-86222250D01*
X203535832Y-86216717D01*
X203458747Y-86101353D01*
X202508747Y-85151353D01*
X202393383Y-85074268D01*
X202257300Y-85047200D01*
X195397200Y-85047200D01*
X195261118Y-85074268D01*
X195157426Y-85143553D01*
X195145753Y-85151353D01*
X192976506Y-87320600D01*
X192784750Y-87320600D01*
X192571796Y-87408808D01*
X192408808Y-87571796D01*
X192320600Y-87784750D01*
X192320600Y-88015250D01*
X192408808Y-88228204D01*
X192571796Y-88391192D01*
X192784750Y-88479400D01*
X193015250Y-88479400D01*
X193228204Y-88391192D01*
X193391192Y-88228204D01*
X193479400Y-88015250D01*
X193479400Y-87823494D01*
X195544494Y-85758400D01*
X196370814Y-85758400D01*
X196283036Y-85794755D01*
X195922348Y-86111944D01*
X195710499Y-86543018D01*
X195770807Y-86733000D01*
X196773000Y-86733000D01*
X196773000Y-86713000D01*
X197027000Y-86713000D01*
X197027000Y-86733000D01*
X197047000Y-86733000D01*
X197047000Y-86987000D01*
X197027000Y-86987000D01*
X197027000Y-87007000D01*
X196773000Y-87007000D01*
X196773000Y-86987000D01*
X195770807Y-86987000D01*
X195710499Y-87176982D01*
X195922348Y-87608056D01*
X196283036Y-87925245D01*
X196583020Y-88049489D01*
X196678066Y-88019040D01*
X196648553Y-88048553D01*
X196571468Y-88163917D01*
X196551337Y-88265127D01*
X196050000Y-88265127D01*
X195940984Y-88286812D01*
X195848564Y-88348564D01*
X195786812Y-88440984D01*
X195765127Y-88550000D01*
X195765127Y-89070750D01*
X195761517Y-89071468D01*
X195646153Y-89148553D01*
X191142695Y-93652011D01*
X187660983Y-93652011D01*
X188180794Y-93132200D01*
X188372550Y-93132200D01*
X188585504Y-93043992D01*
X188748492Y-92881004D01*
X188836700Y-92668050D01*
X188836700Y-92437550D01*
X188748492Y-92224596D01*
X188585504Y-92061608D01*
X188372550Y-91973400D01*
X188142050Y-91973400D01*
X187929096Y-92061608D01*
X187766108Y-92224596D01*
X187677900Y-92437550D01*
X187677900Y-92629306D01*
X187652419Y-92654787D01*
X187598492Y-92524596D01*
X187435504Y-92361608D01*
X187222550Y-92273400D01*
X186992050Y-92273400D01*
X186779096Y-92361608D01*
X186616108Y-92524596D01*
X186527900Y-92737550D01*
X186527900Y-92929306D01*
X186414816Y-93042390D01*
X179691938Y-93042390D01*
X179698077Y-93039847D01*
X180029847Y-92708077D01*
X180209400Y-92274597D01*
X180209400Y-91805403D01*
X180029847Y-91371923D01*
X179698077Y-91040153D01*
X179264597Y-90860600D01*
X178795403Y-90860600D01*
X178361923Y-91040153D01*
X178030153Y-91371923D01*
X177850600Y-91805403D01*
X177850600Y-92274597D01*
X178030153Y-92708077D01*
X178361923Y-93039847D01*
X178368062Y-93042390D01*
X177151938Y-93042390D01*
X177158077Y-93039847D01*
X177489847Y-92708077D01*
X177669400Y-92274597D01*
X177669400Y-91805403D01*
X177489847Y-91371923D01*
X177158077Y-91040153D01*
X176724597Y-90860600D01*
X176255403Y-90860600D01*
X176233025Y-90869869D01*
X176847485Y-90255409D01*
X177091923Y-90499847D01*
X177525403Y-90679400D01*
X177994597Y-90679400D01*
X178428077Y-90499847D01*
X178759847Y-90168077D01*
X178939400Y-89734597D01*
X178939400Y-89265403D01*
X178759847Y-88831923D01*
X178586324Y-88658400D01*
X179115127Y-88658400D01*
X179115127Y-90400000D01*
X179136812Y-90509016D01*
X179198564Y-90601436D01*
X179290984Y-90663188D01*
X179400000Y-90684873D01*
X180859265Y-90684873D01*
X180827275Y-90716863D01*
X180670550Y-91095230D01*
X180670550Y-91504770D01*
X180827275Y-91883137D01*
X181116863Y-92172725D01*
X181495230Y-92329450D01*
X181904770Y-92329450D01*
X182283137Y-92172725D01*
X182572725Y-91883137D01*
X182729450Y-91504770D01*
X182729450Y-91095230D01*
X182572725Y-90716863D01*
X182283137Y-90427275D01*
X181904770Y-90270550D01*
X181495230Y-90270550D01*
X181484873Y-90274840D01*
X181484873Y-89982600D01*
X182915127Y-89982600D01*
X182915127Y-90045000D01*
X182936812Y-90154016D01*
X182998564Y-90246436D01*
X183090984Y-90308188D01*
X183200000Y-90329873D01*
X185000000Y-90329873D01*
X185109016Y-90308188D01*
X185201436Y-90246436D01*
X185263188Y-90154016D01*
X185284873Y-90045000D01*
X185284873Y-89865600D01*
X185797427Y-89865600D01*
X185797427Y-90032800D01*
X185819112Y-90141816D01*
X185880864Y-90234236D01*
X185973284Y-90295988D01*
X186082300Y-90317673D01*
X186732300Y-90317673D01*
X186841316Y-90295988D01*
X186933736Y-90234236D01*
X186995488Y-90141816D01*
X187017173Y-90032800D01*
X187017173Y-89165567D01*
X187101700Y-89250094D01*
X187101700Y-90252800D01*
X187128768Y-90388883D01*
X187205853Y-90504247D01*
X187505853Y-90804247D01*
X187621217Y-90881332D01*
X187757300Y-90908400D01*
X188957300Y-90908400D01*
X189093383Y-90881332D01*
X189208747Y-90804247D01*
X191058747Y-88954247D01*
X191135832Y-88838883D01*
X191162900Y-88702800D01*
X191162900Y-87999122D01*
X191248794Y-87963543D01*
X191468043Y-87744294D01*
X191586700Y-87457832D01*
X191586700Y-87147768D01*
X191468043Y-86861306D01*
X191248794Y-86642057D01*
X190962332Y-86523400D01*
X190652268Y-86523400D01*
X190365806Y-86642057D01*
X190146557Y-86861306D01*
X190110978Y-86947200D01*
X188917173Y-86947200D01*
X188917173Y-86772800D01*
X188895488Y-86663784D01*
X188833736Y-86571364D01*
X188741316Y-86509612D01*
X188632300Y-86487927D01*
X187982300Y-86487927D01*
X187873284Y-86509612D01*
X187832300Y-86536996D01*
X187791316Y-86509612D01*
X187682300Y-86487927D01*
X187626600Y-86487927D01*
X187626600Y-86417412D01*
X187683736Y-86379236D01*
X187745488Y-86286816D01*
X187767173Y-86177800D01*
X187767173Y-85527800D01*
X187745488Y-85418784D01*
X187683736Y-85326364D01*
X187629363Y-85290033D01*
X187691192Y-85228204D01*
X187779400Y-85015250D01*
X187779400Y-84784750D01*
X187691192Y-84571796D01*
X187528204Y-84408808D01*
X187349412Y-84334750D01*
X205944000Y-84334750D01*
X205944000Y-84475786D01*
X206002004Y-84615820D01*
X206040127Y-84653943D01*
X206040127Y-85175000D01*
X206061812Y-85284016D01*
X206123564Y-85376436D01*
X206215984Y-85438188D01*
X206325000Y-85459873D01*
X206702265Y-85459873D01*
X206812500Y-85481801D01*
X206812505Y-85481800D01*
X207287635Y-85481800D01*
X207239000Y-85599215D01*
X207239000Y-85777750D01*
X207334250Y-85873000D01*
X208023000Y-85873000D01*
X208023000Y-85853000D01*
X208277000Y-85853000D01*
X208277000Y-85873000D01*
X208965750Y-85873000D01*
X209061000Y-85777750D01*
X209061000Y-85619562D01*
X209084750Y-85629400D01*
X209315250Y-85629400D01*
X209528204Y-85541192D01*
X209575000Y-85494396D01*
X209592771Y-85512167D01*
X209556812Y-85565984D01*
X209535127Y-85675000D01*
X209535127Y-86325000D01*
X209556812Y-86434016D01*
X209618564Y-86526436D01*
X209710984Y-86588188D01*
X209820000Y-86609873D01*
X210880000Y-86609873D01*
X210989016Y-86588188D01*
X211081436Y-86526436D01*
X211143188Y-86434016D01*
X211164873Y-86325000D01*
X211164873Y-85675000D01*
X211143188Y-85565984D01*
X211081436Y-85473564D01*
X210989016Y-85411812D01*
X210880000Y-85390127D01*
X210429269Y-85390127D01*
X210441192Y-85378204D01*
X210460413Y-85331800D01*
X211285388Y-85331800D01*
X211323564Y-85388936D01*
X211415984Y-85450688D01*
X211525000Y-85472373D01*
X212175000Y-85472373D01*
X212284016Y-85450688D01*
X212376436Y-85388936D01*
X212438188Y-85296516D01*
X212459873Y-85187500D01*
X212459873Y-84612500D01*
X212452947Y-84577683D01*
X213270600Y-85395336D01*
X213270600Y-85515250D01*
X213358808Y-85728204D01*
X213521796Y-85891192D01*
X213734750Y-85979400D01*
X213965250Y-85979400D01*
X214178204Y-85891192D01*
X214341192Y-85728204D01*
X214429400Y-85515250D01*
X214429400Y-85284750D01*
X214341192Y-85071796D01*
X214178204Y-84908808D01*
X213965250Y-84820600D01*
X213845336Y-84820600D01*
X212862368Y-83837632D01*
X212862170Y-83837500D01*
X212730523Y-83749535D01*
X212575000Y-83718600D01*
X212431584Y-83718600D01*
X212376436Y-83636064D01*
X212284016Y-83574312D01*
X212175000Y-83552627D01*
X211525000Y-83552627D01*
X211415984Y-83574312D01*
X211323564Y-83636064D01*
X211285120Y-83693600D01*
X211148681Y-83693600D01*
X211143188Y-83665984D01*
X211081436Y-83573564D01*
X210989016Y-83511812D01*
X210880000Y-83490127D01*
X209820000Y-83490127D01*
X209710984Y-83511812D01*
X209618564Y-83573564D01*
X209556812Y-83665984D01*
X209535127Y-83775000D01*
X209535127Y-84425000D01*
X209556812Y-84534016D01*
X209592771Y-84587833D01*
X209575000Y-84605604D01*
X209528204Y-84558808D01*
X209315250Y-84470600D01*
X209084750Y-84470600D01*
X209061000Y-84480438D01*
X209061000Y-84322250D01*
X208965750Y-84227000D01*
X208277000Y-84227000D01*
X208277000Y-84247000D01*
X208023000Y-84247000D01*
X208023000Y-84227000D01*
X207334250Y-84227000D01*
X207291250Y-84270000D01*
X207260750Y-84239500D01*
X206777000Y-84239500D01*
X206777000Y-84259500D01*
X206523000Y-84259500D01*
X206523000Y-84239500D01*
X206039250Y-84239500D01*
X205944000Y-84334750D01*
X187349412Y-84334750D01*
X187315250Y-84320600D01*
X187084750Y-84320600D01*
X186871796Y-84408808D01*
X186708808Y-84571796D01*
X186620600Y-84784750D01*
X186620600Y-85015250D01*
X186675090Y-85146800D01*
X186642050Y-85146800D01*
X186546800Y-85242050D01*
X186546800Y-85725800D01*
X186566800Y-85725800D01*
X186566800Y-85979800D01*
X186546800Y-85979800D01*
X186546800Y-86463550D01*
X186552300Y-86469050D01*
X186534300Y-86487050D01*
X186534300Y-87175800D01*
X186554300Y-87175800D01*
X186554300Y-87429800D01*
X186534300Y-87429800D01*
X186534300Y-88118550D01*
X186629550Y-88213800D01*
X186808085Y-88213800D01*
X186948119Y-88155796D01*
X186993884Y-88110031D01*
X187032300Y-88117673D01*
X187682300Y-88117673D01*
X187791316Y-88095988D01*
X187832300Y-88068604D01*
X187873284Y-88095988D01*
X187982300Y-88117673D01*
X188632300Y-88117673D01*
X188741316Y-88095988D01*
X188833736Y-88034236D01*
X188895488Y-87941816D01*
X188917173Y-87832800D01*
X188917173Y-87658400D01*
X190110978Y-87658400D01*
X190146557Y-87744294D01*
X190365806Y-87963543D01*
X190451700Y-87999122D01*
X190451700Y-88555506D01*
X189013300Y-89993906D01*
X189013300Y-89725050D01*
X188918050Y-89629800D01*
X188434300Y-89629800D01*
X188434300Y-89649800D01*
X188180300Y-89649800D01*
X188180300Y-89629800D01*
X188160300Y-89629800D01*
X188160300Y-89375800D01*
X188180300Y-89375800D01*
X188180300Y-88687050D01*
X188434300Y-88687050D01*
X188434300Y-89375800D01*
X188918050Y-89375800D01*
X189013300Y-89280550D01*
X189013300Y-88897014D01*
X188955296Y-88756980D01*
X188848119Y-88649804D01*
X188708085Y-88591800D01*
X188529550Y-88591800D01*
X188434300Y-88687050D01*
X188180300Y-88687050D01*
X188085050Y-88591800D01*
X187906515Y-88591800D01*
X187766481Y-88649804D01*
X187659304Y-88756980D01*
X187646144Y-88788750D01*
X187208747Y-88351353D01*
X187093383Y-88274268D01*
X186957300Y-88247200D01*
X185954594Y-88247200D01*
X185758747Y-88051353D01*
X185643383Y-87974268D01*
X185507300Y-87947200D01*
X167554594Y-87947200D01*
X167132444Y-87525050D01*
X185701300Y-87525050D01*
X185701300Y-87908586D01*
X185759304Y-88048620D01*
X185866481Y-88155796D01*
X186006515Y-88213800D01*
X186185050Y-88213800D01*
X186280300Y-88118550D01*
X186280300Y-87429800D01*
X185796550Y-87429800D01*
X185701300Y-87525050D01*
X167132444Y-87525050D01*
X166329644Y-86722250D01*
X182819000Y-86722250D01*
X182819000Y-87110786D01*
X182877004Y-87250820D01*
X182984181Y-87357996D01*
X183124215Y-87416000D01*
X183877750Y-87416000D01*
X183973000Y-87320750D01*
X183973000Y-86627000D01*
X184227000Y-86627000D01*
X184227000Y-87320750D01*
X184322250Y-87416000D01*
X185075785Y-87416000D01*
X185215819Y-87357996D01*
X185322996Y-87250820D01*
X185381000Y-87110786D01*
X185381000Y-86722250D01*
X185355764Y-86697014D01*
X185701300Y-86697014D01*
X185701300Y-87080550D01*
X185796550Y-87175800D01*
X186280300Y-87175800D01*
X186280300Y-86487050D01*
X186274800Y-86481550D01*
X186292800Y-86463550D01*
X186292800Y-85979800D01*
X185846550Y-85979800D01*
X185751300Y-86075050D01*
X185751300Y-86253585D01*
X185809304Y-86393619D01*
X185865985Y-86450300D01*
X185759304Y-86556980D01*
X185701300Y-86697014D01*
X185355764Y-86697014D01*
X185285750Y-86627000D01*
X184227000Y-86627000D01*
X183973000Y-86627000D01*
X182914250Y-86627000D01*
X182819000Y-86722250D01*
X166329644Y-86722250D01*
X165496608Y-85889214D01*
X182819000Y-85889214D01*
X182819000Y-86277750D01*
X182914250Y-86373000D01*
X183973000Y-86373000D01*
X183973000Y-85679250D01*
X184227000Y-85679250D01*
X184227000Y-86373000D01*
X185285750Y-86373000D01*
X185381000Y-86277750D01*
X185381000Y-85889214D01*
X185322996Y-85749180D01*
X185215819Y-85642004D01*
X185075785Y-85584000D01*
X184322250Y-85584000D01*
X184227000Y-85679250D01*
X183973000Y-85679250D01*
X183877750Y-85584000D01*
X183124215Y-85584000D01*
X182984181Y-85642004D01*
X182877004Y-85749180D01*
X182819000Y-85889214D01*
X165496608Y-85889214D01*
X165059409Y-85452015D01*
X185751300Y-85452015D01*
X185751300Y-85630550D01*
X185846550Y-85725800D01*
X186292800Y-85725800D01*
X186292800Y-85242050D01*
X186197550Y-85146800D01*
X186056514Y-85146800D01*
X185916480Y-85204804D01*
X185809304Y-85311981D01*
X185751300Y-85452015D01*
X165059409Y-85452015D01*
X164103936Y-84496542D01*
X163988572Y-84419457D01*
X163852489Y-84392389D01*
X151512111Y-84392389D01*
X151376028Y-84419457D01*
X151260664Y-84496542D01*
X149283806Y-86473400D01*
X149092050Y-86473400D01*
X148879096Y-86561608D01*
X148716108Y-86724596D01*
X148627900Y-86937550D01*
X148627900Y-87168050D01*
X148716108Y-87381004D01*
X148879096Y-87543992D01*
X149092050Y-87632200D01*
X149322550Y-87632200D01*
X149535504Y-87543992D01*
X149698492Y-87381004D01*
X149786700Y-87168050D01*
X149786700Y-86976294D01*
X151659405Y-85103589D01*
X152143187Y-85103589D01*
X150729819Y-86516957D01*
X150652734Y-86632321D01*
X150630746Y-86742867D01*
X150625666Y-86768404D01*
X150625666Y-89365038D01*
X150490074Y-89500630D01*
X150401866Y-89713584D01*
X150401866Y-89944084D01*
X150490074Y-90157038D01*
X150564035Y-90230999D01*
X150188456Y-90230999D01*
X149992429Y-90034971D01*
X149949404Y-90006223D01*
X149852343Y-89941369D01*
X149763300Y-89923657D01*
X149763300Y-89787550D01*
X149668050Y-89692300D01*
X149184300Y-89692300D01*
X149184300Y-89712300D01*
X148930300Y-89712300D01*
X148930300Y-89692300D01*
X148446550Y-89692300D01*
X148416050Y-89722800D01*
X148323050Y-89629800D01*
X147634300Y-89629800D01*
X147634300Y-89649800D01*
X147380300Y-89649800D01*
X147380300Y-89629800D01*
X146691550Y-89629800D01*
X146596300Y-89725050D01*
X146596300Y-89903585D01*
X146654304Y-90043619D01*
X146700069Y-90089384D01*
X146692427Y-90127800D01*
X146692427Y-90777800D01*
X146714112Y-90886816D01*
X146741496Y-90927800D01*
X146714112Y-90968784D01*
X146692427Y-91077800D01*
X146692427Y-91691643D01*
X146596984Y-91627869D01*
X146460901Y-91600801D01*
X146194051Y-91600801D01*
X146123050Y-91529800D01*
X145434300Y-91529800D01*
X145434300Y-91549800D01*
X145180300Y-91549800D01*
X145180300Y-91529800D01*
X145160300Y-91529800D01*
X145160300Y-91275800D01*
X145180300Y-91275800D01*
X145180300Y-91255800D01*
X145434300Y-91255800D01*
X145434300Y-91275800D01*
X146123050Y-91275800D01*
X146218300Y-91180550D01*
X146218300Y-91002015D01*
X146160296Y-90861981D01*
X146053120Y-90754804D01*
X146027899Y-90744357D01*
X146093383Y-90731332D01*
X146208747Y-90654247D01*
X146458747Y-90404247D01*
X146488545Y-90359652D01*
X146535832Y-90288882D01*
X146562900Y-90152800D01*
X146562900Y-89102015D01*
X146596300Y-89102015D01*
X146596300Y-89280550D01*
X146691550Y-89375800D01*
X147380300Y-89375800D01*
X147380300Y-88892050D01*
X147634300Y-88892050D01*
X147634300Y-89375800D01*
X148323050Y-89375800D01*
X148353550Y-89345300D01*
X148446550Y-89438300D01*
X148930300Y-89438300D01*
X148930300Y-88992050D01*
X149184300Y-88992050D01*
X149184300Y-89438300D01*
X149668050Y-89438300D01*
X149763300Y-89343050D01*
X149763300Y-89202014D01*
X149705296Y-89061980D01*
X149598119Y-88954804D01*
X149458085Y-88896800D01*
X149279550Y-88896800D01*
X149184300Y-88992050D01*
X148930300Y-88992050D01*
X148835050Y-88896800D01*
X148656515Y-88896800D01*
X148516481Y-88954804D01*
X148409304Y-89061980D01*
X148405510Y-89071138D01*
X148360296Y-88961981D01*
X148253120Y-88854804D01*
X148113086Y-88796800D01*
X147729550Y-88796800D01*
X147634300Y-88892050D01*
X147380300Y-88892050D01*
X147285050Y-88796800D01*
X146901514Y-88796800D01*
X146761480Y-88854804D01*
X146654304Y-88961981D01*
X146596300Y-89102015D01*
X146562900Y-89102015D01*
X146562900Y-88952800D01*
X146559575Y-88936082D01*
X146535832Y-88816717D01*
X146458747Y-88701353D01*
X145901360Y-88143966D01*
X147137349Y-86907977D01*
X147214434Y-86792612D01*
X147241502Y-86656530D01*
X147241502Y-85772696D01*
X147233956Y-85734757D01*
X147214434Y-85636613D01*
X147137349Y-85521249D01*
X147020067Y-85403967D01*
X146904703Y-85326882D01*
X146817968Y-85309630D01*
X146672560Y-85164222D01*
X146459606Y-85076014D01*
X146229106Y-85076014D01*
X146016152Y-85164222D01*
X145853164Y-85327210D01*
X145764956Y-85540164D01*
X145764956Y-85770664D01*
X145853164Y-85983618D01*
X145907578Y-86038032D01*
X145866100Y-86079510D01*
X145844888Y-86130720D01*
X145841192Y-86121796D01*
X145678204Y-85958808D01*
X145465250Y-85870600D01*
X145234750Y-85870600D01*
X145021796Y-85958808D01*
X144858808Y-86121796D01*
X144770600Y-86334750D01*
X144770600Y-86526506D01*
X144381000Y-86916106D01*
X144381000Y-86712250D01*
X144285750Y-86617000D01*
X143227000Y-86617000D01*
X143227000Y-86637000D01*
X142973000Y-86637000D01*
X142973000Y-86617000D01*
X141914250Y-86617000D01*
X141819000Y-86712250D01*
X141819000Y-86989590D01*
X131217484Y-86989590D01*
X130107108Y-85879214D01*
X141819000Y-85879214D01*
X141819000Y-86267750D01*
X141914250Y-86363000D01*
X142973000Y-86363000D01*
X142973000Y-85669250D01*
X143227000Y-85669250D01*
X143227000Y-86363000D01*
X144285750Y-86363000D01*
X144381000Y-86267750D01*
X144381000Y-85879214D01*
X144322996Y-85739180D01*
X144215819Y-85632004D01*
X144075785Y-85574000D01*
X143322250Y-85574000D01*
X143227000Y-85669250D01*
X142973000Y-85669250D01*
X142877750Y-85574000D01*
X142124215Y-85574000D01*
X141984181Y-85632004D01*
X141877004Y-85739180D01*
X141819000Y-85879214D01*
X130107108Y-85879214D01*
X129422847Y-85194953D01*
X129307483Y-85117868D01*
X129171400Y-85090800D01*
X128363796Y-85090800D01*
X128228204Y-84955208D01*
X128015250Y-84867000D01*
X127784750Y-84867000D01*
X127571796Y-84955208D01*
X127408808Y-85118196D01*
X127353827Y-85250933D01*
X126701447Y-84598553D01*
X126586083Y-84521468D01*
X126450000Y-84494400D01*
X125459873Y-84494400D01*
X125459873Y-84050000D01*
X125438188Y-83940984D01*
X125376436Y-83848564D01*
X125284016Y-83786812D01*
X125175000Y-83765127D01*
X124625000Y-83765127D01*
X124515984Y-83786812D01*
X124500000Y-83797492D01*
X124484016Y-83786812D01*
X124375000Y-83765127D01*
X123825000Y-83765127D01*
X123715984Y-83786812D01*
X123700000Y-83797492D01*
X123684016Y-83786812D01*
X123575000Y-83765127D01*
X123025000Y-83765127D01*
X122915984Y-83786812D01*
X122900000Y-83797492D01*
X122884016Y-83786812D01*
X122775000Y-83765127D01*
X122225000Y-83765127D01*
X122115984Y-83786812D01*
X122100000Y-83797492D01*
X122084016Y-83786812D01*
X121975000Y-83765127D01*
X121425000Y-83765127D01*
X121315984Y-83786812D01*
X121300000Y-83797492D01*
X121284016Y-83786812D01*
X121175000Y-83765127D01*
X120625000Y-83765127D01*
X120515984Y-83786812D01*
X120500000Y-83797492D01*
X120484016Y-83786812D01*
X120375000Y-83765127D01*
X119825000Y-83765127D01*
X119715984Y-83786812D01*
X119700000Y-83797492D01*
X119684016Y-83786812D01*
X119575000Y-83765127D01*
X119025000Y-83765127D01*
X118915984Y-83786812D01*
X118823564Y-83848564D01*
X118761812Y-83940984D01*
X118756599Y-83967189D01*
X116809873Y-83972898D01*
X116809873Y-83550000D01*
X116788188Y-83440984D01*
X116726436Y-83348564D01*
X116634016Y-83286812D01*
X116525000Y-83265127D01*
X115975000Y-83265127D01*
X115865984Y-83286812D01*
X115773564Y-83348564D01*
X115711812Y-83440984D01*
X115690127Y-83550000D01*
X115690127Y-85050000D01*
X115711812Y-85159016D01*
X115773564Y-85251436D01*
X115865984Y-85313188D01*
X115894400Y-85318840D01*
X115894400Y-86452400D01*
X115921468Y-86588483D01*
X115998553Y-86703847D01*
X116646153Y-87351447D01*
X116667612Y-87365785D01*
X116673454Y-88338463D01*
X116669000Y-88349215D01*
X116669000Y-88477750D01*
X116674322Y-88483072D01*
X116676912Y-88914338D01*
X116669000Y-88922250D01*
X116669000Y-88960187D01*
X116634016Y-88936812D01*
X116525000Y-88915127D01*
X116332215Y-88915127D01*
X116315250Y-88908100D01*
X116084750Y-88908100D01*
X116067785Y-88915127D01*
X115875000Y-88915127D01*
X115765984Y-88936812D01*
X115673564Y-88998564D01*
X115651292Y-89031896D01*
X115628204Y-89008808D01*
X115415250Y-88920600D01*
X115381800Y-88920600D01*
X115381800Y-88210000D01*
X115348931Y-88044757D01*
X115255329Y-87904671D01*
X114884873Y-87534215D01*
X114884873Y-87190000D01*
X114877000Y-87150420D01*
X114877000Y-86950000D01*
X114867333Y-86901399D01*
X114839803Y-86860197D01*
X114798601Y-86832667D01*
X114750000Y-86823000D01*
X114531800Y-86823000D01*
X114531800Y-85875000D01*
X114498931Y-85709757D01*
X114405329Y-85569671D01*
X113559873Y-84724215D01*
X113559873Y-83550000D01*
X113538188Y-83440984D01*
X113476436Y-83348564D01*
X113384016Y-83286812D01*
X113275000Y-83265127D01*
X112725000Y-83265127D01*
X112615984Y-83286812D01*
X112523564Y-83348564D01*
X112461812Y-83440984D01*
X112440127Y-83550000D01*
X112440127Y-85050000D01*
X112461812Y-85159016D01*
X112523564Y-85251436D01*
X112615984Y-85313188D01*
X112725000Y-85334873D01*
X112949215Y-85334873D01*
X113079672Y-85465330D01*
X112965250Y-85417935D01*
X112734750Y-85417935D01*
X112521796Y-85506143D01*
X112400000Y-85627939D01*
X112278204Y-85506143D01*
X112065250Y-85417935D01*
X111834750Y-85417935D01*
X111621796Y-85506143D01*
X111458808Y-85669131D01*
X111370600Y-85882085D01*
X111370600Y-86073840D01*
X111097241Y-86347200D01*
X111095517Y-86347200D01*
X110962289Y-86147810D01*
X110707658Y-85977671D01*
X110407300Y-85917926D01*
X109907300Y-85917926D01*
X109606942Y-85977671D01*
X109352311Y-86147810D01*
X109182172Y-86402441D01*
X109122427Y-86702799D01*
X109122427Y-86702801D01*
X109127400Y-86727801D01*
X109122427Y-86752800D01*
X109122427Y-87252800D01*
X109144112Y-87361816D01*
X109154792Y-87377800D01*
X109144112Y-87393784D01*
X109122427Y-87502800D01*
X109122427Y-88502800D01*
X109144112Y-88611816D01*
X109154792Y-88627800D01*
X109144112Y-88643784D01*
X109122427Y-88752800D01*
X109122427Y-89252800D01*
X109127400Y-89277799D01*
X109122427Y-89302799D01*
X109122427Y-89302801D01*
X109182172Y-89603159D01*
X109352311Y-89857790D01*
X109606942Y-90027929D01*
X109907300Y-90087674D01*
X110407300Y-90087674D01*
X110433974Y-90082368D01*
X110444400Y-90092794D01*
X110444400Y-90465127D01*
X110100000Y-90465127D01*
X109990984Y-90486812D01*
X109898564Y-90548564D01*
X109836812Y-90640984D01*
X109815127Y-90750000D01*
X109815127Y-91204469D01*
X109655329Y-91044671D01*
X109642476Y-91036083D01*
X109584873Y-90997594D01*
X109584873Y-90750000D01*
X109563188Y-90640984D01*
X109501436Y-90548564D01*
X109409016Y-90486812D01*
X109300000Y-90465127D01*
X108225785Y-90465127D01*
X107319709Y-89559051D01*
X107336692Y-89518050D01*
X107336692Y-89287550D01*
X107248484Y-89074596D01*
X107085496Y-88911608D01*
X106984873Y-88869929D01*
X106984873Y-87200000D01*
X106963188Y-87090984D01*
X106901436Y-86998564D01*
X106809016Y-86936812D01*
X106700000Y-86915127D01*
X105100000Y-86915127D01*
X104990984Y-86936812D01*
X104898564Y-86998564D01*
X104836812Y-87090984D01*
X104815127Y-87200000D01*
X104815127Y-88875973D01*
X104729096Y-88911608D01*
X104566108Y-89074596D01*
X104477900Y-89287550D01*
X104477900Y-89518050D01*
X104566108Y-89731004D01*
X104729096Y-89893992D01*
X104864152Y-89949934D01*
X104898564Y-90001436D01*
X104990984Y-90063188D01*
X105100000Y-90084873D01*
X106624215Y-90084873D01*
X107615127Y-91075785D01*
X107615127Y-91446815D01*
X106919015Y-92142927D01*
X106632300Y-92142927D01*
X106612900Y-92146786D01*
X106612900Y-91899122D01*
X106698794Y-91863543D01*
X106918043Y-91644294D01*
X107036700Y-91357832D01*
X107036700Y-91047768D01*
X106918043Y-90761306D01*
X106698794Y-90542057D01*
X106412332Y-90423400D01*
X106102268Y-90423400D01*
X105815806Y-90542057D01*
X105596557Y-90761306D01*
X105477900Y-91047768D01*
X105477900Y-91357832D01*
X105596557Y-91644294D01*
X105815806Y-91863543D01*
X105901700Y-91899122D01*
X105901700Y-92059300D01*
X105779550Y-92059300D01*
X105684300Y-92154550D01*
X105684300Y-92600800D01*
X105704300Y-92600800D01*
X105704300Y-92854800D01*
X105684300Y-92854800D01*
X105684300Y-92874800D01*
X105430300Y-92874800D01*
X105430300Y-92854800D01*
X105410300Y-92854800D01*
X105410300Y-92600800D01*
X105430300Y-92600800D01*
X105430300Y-92154550D01*
X105335050Y-92059300D01*
X105303658Y-92059300D01*
X105225992Y-91871796D01*
X105063004Y-91708808D01*
X104850050Y-91620600D01*
X104811000Y-91620600D01*
X104811000Y-91472250D01*
X104715750Y-91377000D01*
X104027000Y-91377000D01*
X104027000Y-91397000D01*
X103773000Y-91397000D01*
X103773000Y-91377000D01*
X103084250Y-91377000D01*
X102989000Y-91472250D01*
X102989000Y-91650785D01*
X103047004Y-91790819D01*
X103092769Y-91836584D01*
X103085127Y-91875000D01*
X103085127Y-92525000D01*
X103106812Y-92634016D01*
X103134196Y-92675000D01*
X103106812Y-92715984D01*
X103085127Y-92825000D01*
X103085127Y-93475000D01*
X103106812Y-93584016D01*
X103168564Y-93676436D01*
X103260984Y-93738188D01*
X103370000Y-93759873D01*
X103570750Y-93759873D01*
X103571468Y-93763483D01*
X103648553Y-93878847D01*
X104040305Y-94270600D01*
X76073461Y-94270600D01*
X76788918Y-93555143D01*
X76846557Y-93694294D01*
X77065806Y-93913543D01*
X77352268Y-94032200D01*
X77662332Y-94032200D01*
X77948794Y-93913543D01*
X78168043Y-93694294D01*
X78203622Y-93608400D01*
X78214406Y-93608400D01*
X78350489Y-93581332D01*
X78465853Y-93504247D01*
X79174870Y-92795230D01*
X80170550Y-92795230D01*
X80170550Y-93204770D01*
X80327275Y-93583137D01*
X80616863Y-93872725D01*
X80995230Y-94029450D01*
X81404770Y-94029450D01*
X81783137Y-93872725D01*
X82072725Y-93583137D01*
X82201498Y-93272250D01*
X84989000Y-93272250D01*
X84989000Y-93450785D01*
X85047004Y-93590819D01*
X85154180Y-93697996D01*
X85294214Y-93756000D01*
X85677750Y-93756000D01*
X85773000Y-93660750D01*
X85773000Y-93177000D01*
X86027000Y-93177000D01*
X86027000Y-93660750D01*
X86122250Y-93756000D01*
X86505786Y-93756000D01*
X86645820Y-93697996D01*
X86752996Y-93590819D01*
X86811000Y-93450785D01*
X86811000Y-93272250D01*
X86715750Y-93177000D01*
X86027000Y-93177000D01*
X85773000Y-93177000D01*
X85084250Y-93177000D01*
X84989000Y-93272250D01*
X82201498Y-93272250D01*
X82229450Y-93204770D01*
X82229450Y-92795230D01*
X82225160Y-92784873D01*
X83900000Y-92784873D01*
X84009016Y-92763188D01*
X84101436Y-92701436D01*
X84136328Y-92649215D01*
X84989000Y-92649215D01*
X84989000Y-92827750D01*
X85084250Y-92923000D01*
X85773000Y-92923000D01*
X85773000Y-92439250D01*
X86027000Y-92439250D01*
X86027000Y-92923000D01*
X86715750Y-92923000D01*
X86811000Y-92827750D01*
X86811000Y-92649215D01*
X86752996Y-92509181D01*
X86645820Y-92402004D01*
X86505786Y-92344000D01*
X86122250Y-92344000D01*
X86027000Y-92439250D01*
X85773000Y-92439250D01*
X85677750Y-92344000D01*
X85294214Y-92344000D01*
X85154180Y-92402004D01*
X85047004Y-92509181D01*
X84989000Y-92649215D01*
X84136328Y-92649215D01*
X84163188Y-92609016D01*
X84184873Y-92500000D01*
X84184873Y-92082600D01*
X84306400Y-92082600D01*
X84491083Y-92045864D01*
X84647650Y-91941250D01*
X84841250Y-91747650D01*
X84945864Y-91591083D01*
X84982601Y-91406400D01*
X84982600Y-91406395D01*
X84982600Y-89793500D01*
X85019436Y-89756663D01*
X85036812Y-89844016D01*
X85098564Y-89936436D01*
X85190984Y-89998188D01*
X85300000Y-90019873D01*
X85844400Y-90019873D01*
X85844400Y-90052706D01*
X85648553Y-90248553D01*
X85571468Y-90363917D01*
X85551586Y-90463871D01*
X85544400Y-90500000D01*
X85544400Y-90540127D01*
X85370000Y-90540127D01*
X85260984Y-90561812D01*
X85168564Y-90623564D01*
X85106812Y-90715984D01*
X85085127Y-90825000D01*
X85085127Y-91475000D01*
X85106812Y-91584016D01*
X85168564Y-91676436D01*
X85260984Y-91738188D01*
X85370000Y-91759873D01*
X86430000Y-91759873D01*
X86539016Y-91738188D01*
X86631436Y-91676436D01*
X86693188Y-91584016D01*
X86714873Y-91475000D01*
X86714873Y-91372250D01*
X87189000Y-91372250D01*
X87189000Y-91550785D01*
X87247004Y-91690819D01*
X87292769Y-91736584D01*
X87285127Y-91775000D01*
X87285127Y-92425000D01*
X87306812Y-92534016D01*
X87334196Y-92575000D01*
X87306812Y-92615984D01*
X87285127Y-92725000D01*
X87285127Y-93375000D01*
X87306812Y-93484016D01*
X87368564Y-93576436D01*
X87460984Y-93638188D01*
X87570000Y-93659873D01*
X88630000Y-93659873D01*
X88739016Y-93638188D01*
X88831436Y-93576436D01*
X88893188Y-93484016D01*
X88908786Y-93405600D01*
X90324389Y-93405600D01*
X90339257Y-93441494D01*
X90558506Y-93660743D01*
X90844968Y-93779400D01*
X91155032Y-93779400D01*
X91441494Y-93660743D01*
X91660743Y-93441494D01*
X91689424Y-93372250D01*
X100789000Y-93372250D01*
X100789000Y-93550785D01*
X100847004Y-93690819D01*
X100954180Y-93797996D01*
X101094214Y-93856000D01*
X101477750Y-93856000D01*
X101573000Y-93760750D01*
X101573000Y-93277000D01*
X101827000Y-93277000D01*
X101827000Y-93760750D01*
X101922250Y-93856000D01*
X102305786Y-93856000D01*
X102445820Y-93797996D01*
X102552996Y-93690819D01*
X102611000Y-93550785D01*
X102611000Y-93372250D01*
X102515750Y-93277000D01*
X101827000Y-93277000D01*
X101573000Y-93277000D01*
X100884250Y-93277000D01*
X100789000Y-93372250D01*
X91689424Y-93372250D01*
X91779400Y-93155032D01*
X91779400Y-92844968D01*
X91660743Y-92558506D01*
X91449013Y-92346776D01*
X91990385Y-91805403D01*
X93310600Y-91805403D01*
X93310600Y-92274597D01*
X93490153Y-92708077D01*
X93821923Y-93039847D01*
X94255403Y-93219400D01*
X94724597Y-93219400D01*
X95158077Y-93039847D01*
X95489847Y-92708077D01*
X95669400Y-92274597D01*
X95669400Y-91805403D01*
X95850600Y-91805403D01*
X95850600Y-92274597D01*
X96030153Y-92708077D01*
X96361923Y-93039847D01*
X96795403Y-93219400D01*
X97264597Y-93219400D01*
X97698077Y-93039847D01*
X97988709Y-92749215D01*
X100789000Y-92749215D01*
X100789000Y-92927750D01*
X100884250Y-93023000D01*
X101573000Y-93023000D01*
X101573000Y-92539250D01*
X101827000Y-92539250D01*
X101827000Y-93023000D01*
X102515750Y-93023000D01*
X102611000Y-92927750D01*
X102611000Y-92749215D01*
X102552996Y-92609181D01*
X102445820Y-92502004D01*
X102305786Y-92444000D01*
X101922250Y-92444000D01*
X101827000Y-92539250D01*
X101573000Y-92539250D01*
X101477750Y-92444000D01*
X101094214Y-92444000D01*
X100954180Y-92502004D01*
X100847004Y-92609181D01*
X100789000Y-92749215D01*
X97988709Y-92749215D01*
X98029847Y-92708077D01*
X98209400Y-92274597D01*
X98209400Y-91805403D01*
X98029847Y-91371923D01*
X97698077Y-91040153D01*
X97264597Y-90860600D01*
X96795403Y-90860600D01*
X96361923Y-91040153D01*
X96030153Y-91371923D01*
X95850600Y-91805403D01*
X95669400Y-91805403D01*
X95489847Y-91371923D01*
X95158077Y-91040153D01*
X94724597Y-90860600D01*
X94255403Y-90860600D01*
X93821923Y-91040153D01*
X93490153Y-91371923D01*
X93310600Y-91805403D01*
X91990385Y-91805403D01*
X94616107Y-89179681D01*
X94580600Y-89265403D01*
X94580600Y-89734597D01*
X94760153Y-90168077D01*
X95091923Y-90499847D01*
X95525403Y-90679400D01*
X95994597Y-90679400D01*
X96428077Y-90499847D01*
X96759847Y-90168077D01*
X96939400Y-89734597D01*
X96939400Y-89265403D01*
X96809968Y-88952926D01*
X97107294Y-88655600D01*
X97115127Y-88655600D01*
X97115127Y-90400000D01*
X97136812Y-90509016D01*
X97198564Y-90601436D01*
X97290984Y-90663188D01*
X97400000Y-90684873D01*
X98859265Y-90684873D01*
X98827275Y-90716863D01*
X98670550Y-91095230D01*
X98670550Y-91504770D01*
X98827275Y-91883137D01*
X99116863Y-92172725D01*
X99495230Y-92329450D01*
X99904770Y-92329450D01*
X100283137Y-92172725D01*
X100572725Y-91883137D01*
X100729450Y-91504770D01*
X100729450Y-91095230D01*
X100572725Y-90716863D01*
X100283137Y-90427275D01*
X99904770Y-90270550D01*
X99495230Y-90270550D01*
X99484873Y-90274840D01*
X99484873Y-89982600D01*
X100915127Y-89982600D01*
X100915127Y-90035000D01*
X100936812Y-90144016D01*
X100998564Y-90236436D01*
X101090984Y-90298188D01*
X101200000Y-90319873D01*
X101344400Y-90319873D01*
X101344400Y-90640127D01*
X101170000Y-90640127D01*
X101060984Y-90661812D01*
X100968564Y-90723564D01*
X100906812Y-90815984D01*
X100885127Y-90925000D01*
X100885127Y-91575000D01*
X100906812Y-91684016D01*
X100968564Y-91776436D01*
X101060984Y-91838188D01*
X101170000Y-91859873D01*
X102230000Y-91859873D01*
X102339016Y-91838188D01*
X102431436Y-91776436D01*
X102493188Y-91684016D01*
X102514873Y-91575000D01*
X102514873Y-90925000D01*
X102499799Y-90849215D01*
X102989000Y-90849215D01*
X102989000Y-91027750D01*
X103084250Y-91123000D01*
X103773000Y-91123000D01*
X103773000Y-90639250D01*
X104027000Y-90639250D01*
X104027000Y-91123000D01*
X104715750Y-91123000D01*
X104811000Y-91027750D01*
X104811000Y-90849215D01*
X104752996Y-90709181D01*
X104645820Y-90602004D01*
X104505786Y-90544000D01*
X104122250Y-90544000D01*
X104027000Y-90639250D01*
X103773000Y-90639250D01*
X103677750Y-90544000D01*
X103294214Y-90544000D01*
X103154180Y-90602004D01*
X103047004Y-90709181D01*
X102989000Y-90849215D01*
X102499799Y-90849215D01*
X102493188Y-90815984D01*
X102431436Y-90723564D01*
X102339016Y-90661812D01*
X102230000Y-90640127D01*
X102055600Y-90640127D01*
X102055600Y-90319873D01*
X103000000Y-90319873D01*
X103109016Y-90298188D01*
X103201436Y-90236436D01*
X103263188Y-90144016D01*
X103284873Y-90035000D01*
X103284873Y-88965000D01*
X103263188Y-88855984D01*
X103201436Y-88763564D01*
X103109016Y-88701812D01*
X103000000Y-88680127D01*
X102439269Y-88680127D01*
X102491192Y-88628204D01*
X102579400Y-88415250D01*
X102579400Y-88184750D01*
X102491192Y-87971796D01*
X102328204Y-87808808D01*
X102115250Y-87720600D01*
X101884750Y-87720600D01*
X101671796Y-87808808D01*
X101536204Y-87944400D01*
X98691898Y-87944400D01*
X99100011Y-87536287D01*
X99142190Y-87578466D01*
X99355144Y-87666674D01*
X99585644Y-87666674D01*
X99798598Y-87578466D01*
X99961586Y-87415478D01*
X100049794Y-87202524D01*
X100049794Y-86972024D01*
X99961586Y-86759070D01*
X99914766Y-86712250D01*
X100819000Y-86712250D01*
X100819000Y-87100786D01*
X100877004Y-87240820D01*
X100984181Y-87347996D01*
X101124215Y-87406000D01*
X101877750Y-87406000D01*
X101973000Y-87310750D01*
X101973000Y-86617000D01*
X102227000Y-86617000D01*
X102227000Y-87310750D01*
X102322250Y-87406000D01*
X103075785Y-87406000D01*
X103215819Y-87347996D01*
X103322996Y-87240820D01*
X103381000Y-87100786D01*
X103381000Y-86712250D01*
X103285750Y-86617000D01*
X102227000Y-86617000D01*
X101973000Y-86617000D01*
X100914250Y-86617000D01*
X100819000Y-86712250D01*
X99914766Y-86712250D01*
X99798598Y-86596082D01*
X99585644Y-86507874D01*
X99355144Y-86507874D01*
X99142190Y-86596082D01*
X98996782Y-86741490D01*
X98910047Y-86758742D01*
X98794683Y-86835827D01*
X98086110Y-87544400D01*
X95392894Y-87544400D01*
X95256811Y-87571468D01*
X95141447Y-87648553D01*
X91129400Y-91660600D01*
X91129400Y-91584750D01*
X91041192Y-91371796D01*
X90878204Y-91208808D01*
X90665250Y-91120600D01*
X90434750Y-91120600D01*
X90221796Y-91208808D01*
X90141104Y-91289500D01*
X89727000Y-91289500D01*
X89727000Y-91309500D01*
X89473000Y-91309500D01*
X89473000Y-91289500D01*
X88989250Y-91289500D01*
X88958750Y-91320000D01*
X88915750Y-91277000D01*
X88227000Y-91277000D01*
X88227000Y-91297000D01*
X87973000Y-91297000D01*
X87973000Y-91277000D01*
X87284250Y-91277000D01*
X87189000Y-91372250D01*
X86714873Y-91372250D01*
X86714873Y-90825000D01*
X86699799Y-90749215D01*
X87189000Y-90749215D01*
X87189000Y-90927750D01*
X87284250Y-91023000D01*
X87973000Y-91023000D01*
X87973000Y-90539250D01*
X88227000Y-90539250D01*
X88227000Y-91023000D01*
X88915750Y-91023000D01*
X88946250Y-90992500D01*
X88989250Y-91035500D01*
X89473000Y-91035500D01*
X89473000Y-90589250D01*
X89727000Y-90589250D01*
X89727000Y-91035500D01*
X90210750Y-91035500D01*
X90306000Y-90940250D01*
X90306000Y-90799214D01*
X90247996Y-90659180D01*
X90140819Y-90552004D01*
X90000785Y-90494000D01*
X89822250Y-90494000D01*
X89727000Y-90589250D01*
X89473000Y-90589250D01*
X89377750Y-90494000D01*
X89199215Y-90494000D01*
X89059181Y-90552004D01*
X88967350Y-90643834D01*
X88952996Y-90609181D01*
X88845820Y-90502004D01*
X88705786Y-90444000D01*
X88322250Y-90444000D01*
X88227000Y-90539250D01*
X87973000Y-90539250D01*
X87877750Y-90444000D01*
X87494214Y-90444000D01*
X87354180Y-90502004D01*
X87247004Y-90609181D01*
X87189000Y-90749215D01*
X86699799Y-90749215D01*
X86693188Y-90715984D01*
X86631436Y-90623564D01*
X86539016Y-90561812D01*
X86430000Y-90540127D01*
X86362767Y-90540127D01*
X86451447Y-90451447D01*
X86528532Y-90336083D01*
X86555600Y-90200000D01*
X86555600Y-90019873D01*
X87100000Y-90019873D01*
X87209016Y-89998188D01*
X87301436Y-89936436D01*
X87363188Y-89844016D01*
X87384873Y-89735000D01*
X87384873Y-88665000D01*
X87363188Y-88555984D01*
X87301436Y-88463564D01*
X87209016Y-88401812D01*
X87100000Y-88380127D01*
X85300000Y-88380127D01*
X85190984Y-88401812D01*
X85098564Y-88463564D01*
X85036812Y-88555984D01*
X85015127Y-88665000D01*
X85015127Y-88717400D01*
X84893600Y-88717400D01*
X84708917Y-88754136D01*
X84552350Y-88858750D01*
X84552348Y-88858753D01*
X84179400Y-89231700D01*
X84179400Y-88825403D01*
X83999847Y-88391923D01*
X83668077Y-88060153D01*
X83234597Y-87880600D01*
X82765403Y-87880600D01*
X82331923Y-88060153D01*
X82000153Y-88391923D01*
X81820600Y-88825403D01*
X81820600Y-89294597D01*
X82000153Y-89728077D01*
X82331923Y-90059847D01*
X82765403Y-90239400D01*
X83234597Y-90239400D01*
X83668077Y-90059847D01*
X83999847Y-89728077D01*
X84017400Y-89685700D01*
X84017400Y-90442414D01*
X84009016Y-90436812D01*
X83900000Y-90415127D01*
X82100000Y-90415127D01*
X81990984Y-90436812D01*
X81898564Y-90498564D01*
X81836812Y-90590984D01*
X81815127Y-90700000D01*
X81815127Y-92159265D01*
X81783137Y-92127275D01*
X81404770Y-91970550D01*
X80995230Y-91970550D01*
X80616863Y-92127275D01*
X80327275Y-92416863D01*
X80170550Y-92795230D01*
X79174870Y-92795230D01*
X79458747Y-92511353D01*
X79535832Y-92395989D01*
X79562900Y-92259906D01*
X79562900Y-91100824D01*
X79791923Y-91329847D01*
X80225403Y-91509400D01*
X80694597Y-91509400D01*
X81128077Y-91329847D01*
X81459847Y-90998077D01*
X81639400Y-90564597D01*
X81639400Y-90095403D01*
X81459847Y-89661923D01*
X81128077Y-89330153D01*
X80694597Y-89150600D01*
X80225403Y-89150600D01*
X79791923Y-89330153D01*
X79562900Y-89559176D01*
X79562900Y-88560824D01*
X79791923Y-88789847D01*
X80225403Y-88969400D01*
X80694597Y-88969400D01*
X81128077Y-88789847D01*
X81459847Y-88458077D01*
X81639400Y-88024597D01*
X81639400Y-87687794D01*
X81705853Y-87754247D01*
X81821217Y-87831332D01*
X81957300Y-87858400D01*
X87493504Y-87858400D01*
X87629096Y-87993992D01*
X87842050Y-88082200D01*
X88072550Y-88082200D01*
X88285504Y-87993992D01*
X88448492Y-87831004D01*
X88536700Y-87618050D01*
X88536700Y-87387550D01*
X88448492Y-87174596D01*
X88285504Y-87011608D01*
X88072550Y-86923400D01*
X87842050Y-86923400D01*
X87629096Y-87011608D01*
X87493504Y-87147200D01*
X83012779Y-87147200D01*
X83036700Y-87089450D01*
X83036700Y-86858950D01*
X82948492Y-86645996D01*
X82900495Y-86597999D01*
X82948492Y-86550001D01*
X83005550Y-86412250D01*
X84919000Y-86412250D01*
X84919000Y-86800786D01*
X84977004Y-86940820D01*
X85084181Y-87047996D01*
X85224215Y-87106000D01*
X85977750Y-87106000D01*
X86073000Y-87010750D01*
X86073000Y-86317000D01*
X86327000Y-86317000D01*
X86327000Y-87010750D01*
X86422250Y-87106000D01*
X87175785Y-87106000D01*
X87315819Y-87047996D01*
X87422996Y-86940820D01*
X87481000Y-86800786D01*
X87481000Y-86412250D01*
X87385750Y-86317000D01*
X86327000Y-86317000D01*
X86073000Y-86317000D01*
X85014250Y-86317000D01*
X84919000Y-86412250D01*
X83005550Y-86412250D01*
X83036700Y-86337047D01*
X83036700Y-86106547D01*
X82948492Y-85893593D01*
X82785504Y-85730605D01*
X82572550Y-85642397D01*
X82376347Y-85642397D01*
X82281789Y-85579214D01*
X84919000Y-85579214D01*
X84919000Y-85967750D01*
X85014250Y-86063000D01*
X86073000Y-86063000D01*
X86073000Y-85369250D01*
X86327000Y-85369250D01*
X86327000Y-86063000D01*
X87385750Y-86063000D01*
X87481000Y-85967750D01*
X87481000Y-85879214D01*
X100819000Y-85879214D01*
X100819000Y-86267750D01*
X100914250Y-86363000D01*
X101973000Y-86363000D01*
X101973000Y-85669250D01*
X102227000Y-85669250D01*
X102227000Y-86363000D01*
X103285750Y-86363000D01*
X103381000Y-86267750D01*
X103381000Y-85879214D01*
X103322996Y-85739180D01*
X103215819Y-85632004D01*
X103075785Y-85574000D01*
X102322250Y-85574000D01*
X102227000Y-85669250D01*
X101973000Y-85669250D01*
X101877750Y-85574000D01*
X101124215Y-85574000D01*
X100984181Y-85632004D01*
X100877004Y-85739180D01*
X100819000Y-85879214D01*
X87481000Y-85879214D01*
X87481000Y-85579214D01*
X87422996Y-85439180D01*
X87315819Y-85332004D01*
X87175785Y-85274000D01*
X86422250Y-85274000D01*
X86327000Y-85369250D01*
X86073000Y-85369250D01*
X85977750Y-85274000D01*
X85224215Y-85274000D01*
X85084181Y-85332004D01*
X84977004Y-85439180D01*
X84919000Y-85579214D01*
X82281789Y-85579214D01*
X82274386Y-85574268D01*
X82138303Y-85547200D01*
X79657300Y-85547200D01*
X79521217Y-85574268D01*
X79405853Y-85651353D01*
X76151042Y-88906164D01*
X76073957Y-89021528D01*
X76056160Y-89111000D01*
X76046889Y-89157611D01*
X76046889Y-92860317D01*
X75728978Y-93178228D01*
X75668050Y-93117300D01*
X75184300Y-93117300D01*
X75184300Y-93137300D01*
X74930300Y-93137300D01*
X74930300Y-93117300D01*
X74446550Y-93117300D01*
X74351300Y-93212550D01*
X74351300Y-93353586D01*
X74409304Y-93493620D01*
X74458073Y-93542389D01*
X74263300Y-93542389D01*
X74263300Y-93225050D01*
X74168050Y-93129800D01*
X73684300Y-93129800D01*
X73684300Y-93149800D01*
X73430300Y-93149800D01*
X73430300Y-93129800D01*
X73410300Y-93129800D01*
X73410300Y-92875800D01*
X73430300Y-92875800D01*
X73430300Y-92187050D01*
X73684300Y-92187050D01*
X73684300Y-92875800D01*
X74168050Y-92875800D01*
X74263300Y-92780550D01*
X74263300Y-92397014D01*
X74205296Y-92256980D01*
X74098119Y-92149804D01*
X73958085Y-92091800D01*
X73779550Y-92091800D01*
X73684300Y-92187050D01*
X73430300Y-92187050D01*
X73335050Y-92091800D01*
X73156515Y-92091800D01*
X73016481Y-92149804D01*
X72927000Y-92239284D01*
X72927000Y-92069401D01*
X74300743Y-92069401D01*
X74447427Y-92216085D01*
X74447427Y-92448857D01*
X74409304Y-92486980D01*
X74351300Y-92627014D01*
X74351300Y-92768050D01*
X74446550Y-92863300D01*
X74930300Y-92863300D01*
X74930300Y-92843300D01*
X75184300Y-92843300D01*
X75184300Y-92863300D01*
X75668050Y-92863300D01*
X75763300Y-92768050D01*
X75763300Y-92627014D01*
X75705296Y-92486980D01*
X75667173Y-92448857D01*
X75667173Y-91927800D01*
X75645488Y-91818784D01*
X75583736Y-91726364D01*
X75491316Y-91664612D01*
X75382300Y-91642927D01*
X75095585Y-91642927D01*
X74784930Y-91332272D01*
X74767466Y-91320603D01*
X74749783Y-91308788D01*
X74785504Y-91293992D01*
X74948492Y-91131004D01*
X75036700Y-90918050D01*
X75036700Y-90687550D01*
X74948492Y-90474596D01*
X74785504Y-90311608D01*
X74572550Y-90223400D01*
X74342050Y-90223400D01*
X74167173Y-90295836D01*
X74167173Y-90272800D01*
X74145488Y-90163784D01*
X74083736Y-90071364D01*
X73991316Y-90009612D01*
X73882300Y-89987927D01*
X73232300Y-89987927D01*
X73123284Y-90009612D01*
X73082300Y-90036996D01*
X73041316Y-90009612D01*
X73039100Y-90009171D01*
X73039100Y-89477085D01*
X73834531Y-89147606D01*
X74447606Y-88534531D01*
X74779400Y-87733510D01*
X74779400Y-86866490D01*
X74447606Y-86065469D01*
X73834531Y-85452394D01*
X73037494Y-85122250D01*
X104719000Y-85122250D01*
X104719000Y-86275786D01*
X104777004Y-86415820D01*
X104884181Y-86522996D01*
X105024215Y-86581000D01*
X105677750Y-86581000D01*
X105773000Y-86485750D01*
X105773000Y-85027000D01*
X106027000Y-85027000D01*
X106027000Y-86485750D01*
X106122250Y-86581000D01*
X106775785Y-86581000D01*
X106915819Y-86522996D01*
X107022996Y-86415820D01*
X107081000Y-86275786D01*
X107081000Y-85122250D01*
X106985750Y-85027000D01*
X106027000Y-85027000D01*
X105773000Y-85027000D01*
X104814250Y-85027000D01*
X104719000Y-85122250D01*
X73037494Y-85122250D01*
X73033510Y-85120600D01*
X72927000Y-85120600D01*
X72927000Y-80329400D01*
X92593224Y-80329400D01*
X92593224Y-84000000D01*
X92593224Y-84000000D01*
G37*
X92593224Y-84000000D02*
X92618298Y-84126056D01*
X92689703Y-84232921D01*
X92796568Y-84304326D01*
X92922624Y-84329400D01*
X94922624Y-84329400D01*
X95048680Y-84304326D01*
X95155545Y-84232921D01*
X95226950Y-84126056D01*
X95252024Y-84000000D01*
X95252024Y-83524214D01*
X104719000Y-83524214D01*
X104719000Y-84677750D01*
X104814250Y-84773000D01*
X105773000Y-84773000D01*
X105773000Y-83314250D01*
X106027000Y-83314250D01*
X106027000Y-84773000D01*
X106985750Y-84773000D01*
X107081000Y-84677750D01*
X107081000Y-83524214D01*
X107022996Y-83384180D01*
X106915819Y-83277004D01*
X106775785Y-83219000D01*
X106122250Y-83219000D01*
X106027000Y-83314250D01*
X105773000Y-83314250D01*
X105677750Y-83219000D01*
X105024215Y-83219000D01*
X104884181Y-83277004D01*
X104777004Y-83384180D01*
X104719000Y-83524214D01*
X95252024Y-83524214D01*
X95252024Y-80329400D01*
X133593224Y-80329400D01*
X133593224Y-84000000D01*
X133618298Y-84126056D01*
X133689703Y-84232921D01*
X133796568Y-84304326D01*
X133922624Y-84329400D01*
X135922624Y-84329400D01*
X136048680Y-84304326D01*
X136155545Y-84232921D01*
X136226950Y-84126056D01*
X136252024Y-84000000D01*
X136252024Y-80329400D01*
X174593224Y-80329400D01*
X174593224Y-84000000D01*
X174618298Y-84126056D01*
X174689703Y-84232921D01*
X174796568Y-84304326D01*
X174922624Y-84329400D01*
X176922624Y-84329400D01*
X177048680Y-84304326D01*
X177155545Y-84232921D01*
X177226950Y-84126056D01*
X177252024Y-84000000D01*
X177252024Y-83749214D01*
X205944000Y-83749214D01*
X205944000Y-83890250D01*
X206039250Y-83985500D01*
X206523000Y-83985500D01*
X206523000Y-83539250D01*
X206777000Y-83539250D01*
X206777000Y-83985500D01*
X207260750Y-83985500D01*
X207303750Y-83942500D01*
X207334250Y-83973000D01*
X208023000Y-83973000D01*
X208023000Y-83489250D01*
X208277000Y-83489250D01*
X208277000Y-83973000D01*
X208965750Y-83973000D01*
X209061000Y-83877750D01*
X209061000Y-83699215D01*
X209002996Y-83559181D01*
X208895820Y-83452004D01*
X208755786Y-83394000D01*
X208372250Y-83394000D01*
X208277000Y-83489250D01*
X208023000Y-83489250D01*
X207927750Y-83394000D01*
X207544214Y-83394000D01*
X207404180Y-83452004D01*
X207297004Y-83559181D01*
X207282650Y-83593834D01*
X207190819Y-83502004D01*
X207050785Y-83444000D01*
X206872250Y-83444000D01*
X206777000Y-83539250D01*
X206523000Y-83539250D01*
X206427750Y-83444000D01*
X206249215Y-83444000D01*
X206109181Y-83502004D01*
X206002004Y-83609180D01*
X205944000Y-83749214D01*
X177252024Y-83749214D01*
X177252024Y-80329400D01*
X215593224Y-80329400D01*
X215593224Y-84000000D01*
X215618298Y-84126056D01*
X215689703Y-84232921D01*
X215796568Y-84304326D01*
X215922624Y-84329400D01*
X217922624Y-84329400D01*
X218048680Y-84304326D01*
X218155545Y-84232921D01*
X218226950Y-84126056D01*
X218252024Y-84000000D01*
X218252024Y-80329400D01*
X244270600Y-80329400D01*
X244270600Y-88217706D01*
X244075600Y-88022706D01*
X244075600Y-86445000D01*
X244068999Y-86411812D01*
X244048532Y-86308917D01*
X243971447Y-86193553D01*
X243416260Y-85638366D01*
X243464669Y-85395000D01*
X243404178Y-85090893D01*
X243231916Y-84833084D01*
X243122538Y-84760000D01*
X243231916Y-84686916D01*
X243404178Y-84429107D01*
X243464669Y-84125000D01*
X243404178Y-83820893D01*
X243231916Y-83563084D01*
X243207107Y-83546507D01*
X243233807Y-83531987D01*
X243449961Y-83264695D01*
X243511198Y-83116816D01*
X243445419Y-82982000D01*
X242797000Y-82982000D01*
X242797000Y-83002000D01*
X242543000Y-83002000D01*
X242543000Y-82982000D01*
X242523000Y-82982000D01*
X242523000Y-82728000D01*
X242543000Y-82728000D01*
X242543000Y-82078435D01*
X242797000Y-82078435D01*
X242797000Y-82728000D01*
X243445419Y-82728000D01*
X243511198Y-82593184D01*
X243449961Y-82445305D01*
X243233807Y-82178013D01*
X242931818Y-82013786D01*
X242797000Y-82078435D01*
X242543000Y-82078435D01*
X242408182Y-82013786D01*
X242114686Y-82173394D01*
X242101436Y-82153564D01*
X242009016Y-82091812D01*
X241900000Y-82070127D01*
X240900000Y-82070127D01*
X240790984Y-82091812D01*
X240698564Y-82153564D01*
X240636812Y-82245984D01*
X240615127Y-82355000D01*
X240615127Y-82448600D01*
X240044875Y-82448600D01*
X240079400Y-82365250D01*
X240079400Y-82134750D01*
X239991192Y-81921796D01*
X239828204Y-81758808D01*
X239615250Y-81670600D01*
X239384750Y-81670600D01*
X239171796Y-81758808D01*
X239008808Y-81921796D01*
X238920600Y-82134750D01*
X238920600Y-82326506D01*
X237152706Y-84094400D01*
X228117670Y-84094400D01*
X227981588Y-84121468D01*
X227866223Y-84198553D01*
X227119952Y-84944824D01*
X227042867Y-85060188D01*
X227024734Y-85151353D01*
X227015799Y-85196271D01*
X227015799Y-87071399D01*
X227042867Y-87207482D01*
X227119952Y-87322846D01*
X227444400Y-87647294D01*
X227444400Y-88650000D01*
X227471468Y-88786083D01*
X227548553Y-88901447D01*
X228648553Y-90001447D01*
X228763917Y-90078532D01*
X228900000Y-90105600D01*
X229965915Y-90105600D01*
X229941990Y-90163360D01*
X229941990Y-90393860D01*
X230030198Y-90606814D01*
X230165790Y-90742406D01*
X230165790Y-90871390D01*
X230192858Y-91007473D01*
X230269943Y-91122837D01*
X231469490Y-92322384D01*
X231469490Y-92525090D01*
X231496558Y-92661173D01*
X231573643Y-92776537D01*
X231936353Y-93139247D01*
X232003680Y-93184234D01*
X232019112Y-93261816D01*
X232080864Y-93354236D01*
X232173284Y-93415988D01*
X232282300Y-93437673D01*
X232482300Y-93437673D01*
X232557300Y-93422754D01*
X232632300Y-93437673D01*
X232728357Y-93437673D01*
X232766480Y-93475796D01*
X232906514Y-93533800D01*
X232937050Y-93533800D01*
X233032300Y-93438550D01*
X233032300Y-93355195D01*
X233033736Y-93354236D01*
X233082300Y-93281554D01*
X233130864Y-93354236D01*
X233132300Y-93355195D01*
X233132300Y-93438550D01*
X233227550Y-93533800D01*
X233258086Y-93533800D01*
X233398120Y-93475796D01*
X233436243Y-93437673D01*
X233532300Y-93437673D01*
X233641316Y-93415988D01*
X233733736Y-93354236D01*
X233795488Y-93261816D01*
X233803798Y-93220042D01*
X233822448Y-93216332D01*
X233937812Y-93139247D01*
X234223494Y-92853565D01*
X234415250Y-92853565D01*
X234628204Y-92765357D01*
X234791192Y-92602369D01*
X234879400Y-92389415D01*
X234879400Y-92320140D01*
X234955990Y-92320140D01*
X235168944Y-92231932D01*
X235304536Y-92096340D01*
X236343446Y-92096340D01*
X237472698Y-93225592D01*
X237271796Y-93308808D01*
X237126388Y-93454216D01*
X237039654Y-93471468D01*
X236935753Y-93540893D01*
X236924289Y-93548553D01*
X236797041Y-93675801D01*
X230483736Y-93675801D01*
X230568043Y-93591494D01*
X230686700Y-93305032D01*
X230686700Y-92994968D01*
X230568043Y-92708506D01*
X230348794Y-92489257D01*
X230313343Y-92474573D01*
X230378918Y-92408998D01*
X230467126Y-92196044D01*
X230467126Y-91965544D01*
X230378918Y-91752590D01*
X230215930Y-91589602D01*
X230002976Y-91501394D01*
X229772476Y-91501394D01*
X229559522Y-91589602D01*
X229396534Y-91752590D01*
X229308326Y-91965544D01*
X229308326Y-92196044D01*
X229396534Y-92408998D01*
X229473575Y-92486039D01*
X229465806Y-92489257D01*
X229246557Y-92708506D01*
X229127900Y-92994968D01*
X229127900Y-93305032D01*
X229144207Y-93344400D01*
X228858818Y-93344400D01*
X228991192Y-93212026D01*
X229079400Y-92999072D01*
X229079400Y-92768572D01*
X229005586Y-92590368D01*
X229026436Y-92576436D01*
X229088188Y-92484016D01*
X229109873Y-92375000D01*
X229109873Y-91853943D01*
X229147996Y-91815820D01*
X229206000Y-91675786D01*
X229206000Y-91534750D01*
X229110750Y-91439500D01*
X228627000Y-91439500D01*
X228627000Y-91459500D01*
X228373000Y-91459500D01*
X228373000Y-91439500D01*
X227889250Y-91439500D01*
X227883750Y-91445000D01*
X227815750Y-91377000D01*
X227127000Y-91377000D01*
X227127000Y-91397000D01*
X226873000Y-91397000D01*
X226873000Y-91377000D01*
X226184250Y-91377000D01*
X226089000Y-91472250D01*
X226089000Y-91650785D01*
X226147004Y-91790819D01*
X226192769Y-91836584D01*
X226185127Y-91875000D01*
X226185127Y-92525000D01*
X226206812Y-92634016D01*
X226234196Y-92675000D01*
X226206812Y-92715984D01*
X226185127Y-92825000D01*
X226185127Y-93475000D01*
X226206812Y-93584016D01*
X226268140Y-93675801D01*
X225659217Y-93675801D01*
X225711000Y-93550785D01*
X225711000Y-93372250D01*
X225615750Y-93277000D01*
X224927000Y-93277000D01*
X224927000Y-93297000D01*
X224673000Y-93297000D01*
X224673000Y-93277000D01*
X223984250Y-93277000D01*
X223889000Y-93372250D01*
X223889000Y-93550785D01*
X223940783Y-93675801D01*
X216218260Y-93675801D01*
X216358747Y-93535314D01*
X216435832Y-93419950D01*
X216462900Y-93283867D01*
X216462900Y-92642282D01*
X216490153Y-92708077D01*
X216821923Y-93039847D01*
X217255403Y-93219400D01*
X217724597Y-93219400D01*
X218158077Y-93039847D01*
X218489847Y-92708077D01*
X218669400Y-92274597D01*
X218669400Y-91805403D01*
X218850600Y-91805403D01*
X218850600Y-92274597D01*
X219030153Y-92708077D01*
X219361923Y-93039847D01*
X219795403Y-93219400D01*
X220264597Y-93219400D01*
X220698077Y-93039847D01*
X220988709Y-92749215D01*
X223889000Y-92749215D01*
X223889000Y-92927750D01*
X223984250Y-93023000D01*
X224673000Y-93023000D01*
X224673000Y-92539250D01*
X224927000Y-92539250D01*
X224927000Y-93023000D01*
X225615750Y-93023000D01*
X225711000Y-92927750D01*
X225711000Y-92749215D01*
X225652996Y-92609181D01*
X225545820Y-92502004D01*
X225405786Y-92444000D01*
X225022250Y-92444000D01*
X224927000Y-92539250D01*
X224673000Y-92539250D01*
X224577750Y-92444000D01*
X224194214Y-92444000D01*
X224054180Y-92502004D01*
X223947004Y-92609181D01*
X223889000Y-92749215D01*
X220988709Y-92749215D01*
X221029847Y-92708077D01*
X221209400Y-92274597D01*
X221209400Y-91805403D01*
X221029847Y-91371923D01*
X220698077Y-91040153D01*
X220264597Y-90860600D01*
X219795403Y-90860600D01*
X219361923Y-91040153D01*
X219030153Y-91371923D01*
X218850600Y-91805403D01*
X218669400Y-91805403D01*
X218489847Y-91371923D01*
X218158077Y-91040153D01*
X217832346Y-90905231D01*
X217908647Y-90854247D01*
X218212926Y-90549968D01*
X218525403Y-90679400D01*
X218994597Y-90679400D01*
X219428077Y-90499847D01*
X219759847Y-90168077D01*
X219939400Y-89734597D01*
X219939400Y-89265403D01*
X219759847Y-88831923D01*
X219486324Y-88558400D01*
X220123402Y-88558400D01*
X220115127Y-88600000D01*
X220115127Y-90400000D01*
X220136812Y-90509016D01*
X220198564Y-90601436D01*
X220290984Y-90663188D01*
X220400000Y-90684873D01*
X221859265Y-90684873D01*
X221827275Y-90716863D01*
X221670550Y-91095230D01*
X221670550Y-91504770D01*
X221827275Y-91883137D01*
X222116863Y-92172725D01*
X222495230Y-92329450D01*
X222904770Y-92329450D01*
X223283137Y-92172725D01*
X223572725Y-91883137D01*
X223729450Y-91504770D01*
X223729450Y-91095230D01*
X223572725Y-90716863D01*
X223283137Y-90427275D01*
X222904770Y-90270550D01*
X222495230Y-90270550D01*
X222484873Y-90274840D01*
X222484873Y-89982600D01*
X223915127Y-89982600D01*
X223915127Y-90035000D01*
X223936812Y-90144016D01*
X223998564Y-90236436D01*
X224090984Y-90298188D01*
X224200000Y-90319873D01*
X224744400Y-90319873D01*
X224744400Y-90640127D01*
X224270000Y-90640127D01*
X224160984Y-90661812D01*
X224068564Y-90723564D01*
X224006812Y-90815984D01*
X223985127Y-90925000D01*
X223985127Y-91575000D01*
X224006812Y-91684016D01*
X224068564Y-91776436D01*
X224160984Y-91838188D01*
X224270000Y-91859873D01*
X225330000Y-91859873D01*
X225439016Y-91838188D01*
X225531436Y-91776436D01*
X225593188Y-91684016D01*
X225614873Y-91575000D01*
X225614873Y-90925000D01*
X225599799Y-90849215D01*
X226089000Y-90849215D01*
X226089000Y-91027750D01*
X226184250Y-91123000D01*
X226873000Y-91123000D01*
X226873000Y-90639250D01*
X227127000Y-90639250D01*
X227127000Y-91123000D01*
X227815750Y-91123000D01*
X227821250Y-91117500D01*
X227889250Y-91185500D01*
X228373000Y-91185500D01*
X228373000Y-90739250D01*
X228627000Y-90739250D01*
X228627000Y-91185500D01*
X229110750Y-91185500D01*
X229206000Y-91090250D01*
X229206000Y-90949214D01*
X229147996Y-90809180D01*
X229040819Y-90702004D01*
X228900785Y-90644000D01*
X228722250Y-90644000D01*
X228627000Y-90739250D01*
X228373000Y-90739250D01*
X228277750Y-90644000D01*
X228099215Y-90644000D01*
X227959181Y-90702004D01*
X227881995Y-90779190D01*
X227852996Y-90709181D01*
X227745820Y-90602004D01*
X227605786Y-90544000D01*
X227222250Y-90544000D01*
X227127000Y-90639250D01*
X226873000Y-90639250D01*
X226777750Y-90544000D01*
X226394214Y-90544000D01*
X226254180Y-90602004D01*
X226147004Y-90709181D01*
X226089000Y-90849215D01*
X225599799Y-90849215D01*
X225593188Y-90815984D01*
X225531436Y-90723564D01*
X225455600Y-90672893D01*
X225455600Y-90319873D01*
X226000000Y-90319873D01*
X226109016Y-90298188D01*
X226201436Y-90236436D01*
X226263188Y-90144016D01*
X226284873Y-90035000D01*
X226284873Y-89354269D01*
X226371796Y-89441192D01*
X226584750Y-89529400D01*
X226815250Y-89529400D01*
X227028204Y-89441192D01*
X227191192Y-89278204D01*
X227279400Y-89065250D01*
X227279400Y-88834750D01*
X227191192Y-88621796D01*
X227028204Y-88458808D01*
X226815250Y-88370600D01*
X226623494Y-88370600D01*
X226204247Y-87951353D01*
X226088883Y-87874268D01*
X225952800Y-87847200D01*
X220605698Y-87847200D01*
X221740648Y-86712250D01*
X223819000Y-86712250D01*
X223819000Y-87100786D01*
X223877004Y-87240820D01*
X223984181Y-87347996D01*
X224124215Y-87406000D01*
X224877750Y-87406000D01*
X224973000Y-87310750D01*
X224973000Y-86617000D01*
X225227000Y-86617000D01*
X225227000Y-87310750D01*
X225322250Y-87406000D01*
X226075785Y-87406000D01*
X226215819Y-87347996D01*
X226322996Y-87240820D01*
X226381000Y-87100786D01*
X226381000Y-86712250D01*
X226285750Y-86617000D01*
X225227000Y-86617000D01*
X224973000Y-86617000D01*
X223914250Y-86617000D01*
X223819000Y-86712250D01*
X221740648Y-86712250D01*
X221823498Y-86629400D01*
X222015254Y-86629400D01*
X222228208Y-86541192D01*
X222391196Y-86378204D01*
X222479404Y-86165250D01*
X222479404Y-85934750D01*
X222456401Y-85879214D01*
X223819000Y-85879214D01*
X223819000Y-86267750D01*
X223914250Y-86363000D01*
X224973000Y-86363000D01*
X224973000Y-85669250D01*
X225227000Y-85669250D01*
X225227000Y-86363000D01*
X226285750Y-86363000D01*
X226381000Y-86267750D01*
X226381000Y-85879214D01*
X226322996Y-85739180D01*
X226215819Y-85632004D01*
X226075785Y-85574000D01*
X225322250Y-85574000D01*
X225227000Y-85669250D01*
X224973000Y-85669250D01*
X224877750Y-85574000D01*
X224124215Y-85574000D01*
X223984181Y-85632004D01*
X223877004Y-85739180D01*
X223819000Y-85879214D01*
X222456401Y-85879214D01*
X222391196Y-85721796D01*
X222228208Y-85558808D01*
X222015254Y-85470600D01*
X221784754Y-85470600D01*
X221571800Y-85558808D01*
X221408812Y-85721796D01*
X221320604Y-85934750D01*
X221320604Y-86126506D01*
X219999910Y-87447200D01*
X218007300Y-87447200D01*
X217871217Y-87474268D01*
X217755853Y-87551353D01*
X215246232Y-90060974D01*
X215169147Y-90176338D01*
X215150323Y-90270973D01*
X215142079Y-90312421D01*
X215142079Y-92068183D01*
X215135504Y-92061608D01*
X214922550Y-91973400D01*
X214692050Y-91973400D01*
X214479096Y-92061608D01*
X214343504Y-92197200D01*
X204804594Y-92197200D01*
X204112900Y-91505506D01*
X204112900Y-89916597D01*
X204248493Y-89781004D01*
X204336701Y-89568050D01*
X204336701Y-89337550D01*
X204248493Y-89124596D01*
X204085505Y-88961608D01*
X203872551Y-88873400D01*
X203642051Y-88873400D01*
X203429097Y-88961608D01*
X203266109Y-89124596D01*
X203177901Y-89337550D01*
X203177901Y-89568050D01*
X203266109Y-89781004D01*
X203401700Y-89916595D01*
X203401700Y-91652800D01*
X203428768Y-91788883D01*
X203505853Y-91904247D01*
X204348806Y-92747200D01*
X204104594Y-92747200D01*
X201886794Y-90529400D01*
X202091235Y-90529400D01*
X202420670Y-90463871D01*
X202794252Y-90214252D01*
X203043871Y-89840670D01*
X203131526Y-89400000D01*
X203043871Y-88959330D01*
X202995683Y-88887211D01*
X203458747Y-88424147D01*
X203479874Y-88392528D01*
X203535832Y-88308782D01*
X203562900Y-88172700D01*
X203562900Y-87109750D01*
X206370600Y-87109750D01*
X206370600Y-87340250D01*
X206458808Y-87553204D01*
X206518104Y-87612500D01*
X206458808Y-87671796D01*
X206370600Y-87884750D01*
X206370600Y-88115250D01*
X206458808Y-88328204D01*
X206518104Y-88387500D01*
X206458808Y-88446796D01*
X206370600Y-88659750D01*
X206370600Y-88890250D01*
X206458808Y-89103204D01*
X206518104Y-89162500D01*
X206458808Y-89221796D01*
X206370600Y-89434750D01*
X206370600Y-89665250D01*
X206458808Y-89878204D01*
X206518104Y-89937500D01*
X206458808Y-89996796D01*
X206370600Y-90209750D01*
X206370600Y-90440250D01*
X206458808Y-90653204D01*
X206518104Y-90712500D01*
X206458808Y-90771796D01*
X206370600Y-90984750D01*
X206370600Y-91215250D01*
X206458808Y-91428204D01*
X206621796Y-91591192D01*
X206834750Y-91679400D01*
X207065250Y-91679400D01*
X207278204Y-91591192D01*
X207413796Y-91455600D01*
X210986204Y-91455600D01*
X211121796Y-91591192D01*
X211334750Y-91679400D01*
X211565250Y-91679400D01*
X211778204Y-91591192D01*
X211941192Y-91428204D01*
X212029400Y-91215250D01*
X212029400Y-90984750D01*
X211941192Y-90771796D01*
X211881896Y-90712500D01*
X211941192Y-90653204D01*
X212029400Y-90440250D01*
X212029400Y-90209750D01*
X211941192Y-89996796D01*
X211881896Y-89937500D01*
X211941192Y-89878204D01*
X212029400Y-89665250D01*
X212029400Y-89434750D01*
X211941192Y-89221796D01*
X211881896Y-89162500D01*
X211941192Y-89103204D01*
X212029400Y-88890250D01*
X212029400Y-88659750D01*
X211941192Y-88446796D01*
X211881896Y-88387500D01*
X211941192Y-88328204D01*
X212029400Y-88115250D01*
X212029400Y-87884750D01*
X211941192Y-87671796D01*
X211881896Y-87612500D01*
X211941192Y-87553204D01*
X212029400Y-87340250D01*
X212029400Y-87109750D01*
X211941192Y-86896796D01*
X211778204Y-86733808D01*
X211565250Y-86645600D01*
X211334750Y-86645600D01*
X211121796Y-86733808D01*
X210986204Y-86869400D01*
X207413796Y-86869400D01*
X207278204Y-86733808D01*
X207065250Y-86645600D01*
X206834750Y-86645600D01*
X206621796Y-86733808D01*
X206458808Y-86896796D01*
X206370600Y-87109750D01*
X203562900Y-87109750D01*
X203562900Y-86352800D01*
X203554267Y-86309400D01*
X203536933Y-86222250D01*
X207239000Y-86222250D01*
X207239000Y-86400785D01*
X207297004Y-86540819D01*
X207404180Y-86647996D01*
X207544214Y-86706000D01*
X207927750Y-86706000D01*
X208023000Y-86610750D01*
X208023000Y-86127000D01*
X208277000Y-86127000D01*
X208277000Y-86610750D01*
X208372250Y-86706000D01*
X208755786Y-86706000D01*
X208895820Y-86647996D01*
X209002996Y-86540819D01*
X209061000Y-86400785D01*
X209061000Y-86222250D01*
X208965750Y-86127000D01*
X208277000Y-86127000D01*
X208023000Y-86127000D01*
X207334250Y-86127000D01*
X207239000Y-86222250D01*
X203536933Y-86222250D01*
X203535832Y-86216717D01*
X203458747Y-86101353D01*
X202508747Y-85151353D01*
X202393383Y-85074268D01*
X202257300Y-85047200D01*
X195397200Y-85047200D01*
X195261118Y-85074268D01*
X195157426Y-85143553D01*
X195145753Y-85151353D01*
X192976506Y-87320600D01*
X192784750Y-87320600D01*
X192571796Y-87408808D01*
X192408808Y-87571796D01*
X192320600Y-87784750D01*
X192320600Y-88015250D01*
X192408808Y-88228204D01*
X192571796Y-88391192D01*
X192784750Y-88479400D01*
X193015250Y-88479400D01*
X193228204Y-88391192D01*
X193391192Y-88228204D01*
X193479400Y-88015250D01*
X193479400Y-87823494D01*
X195544494Y-85758400D01*
X196370814Y-85758400D01*
X196283036Y-85794755D01*
X195922348Y-86111944D01*
X195710499Y-86543018D01*
X195770807Y-86733000D01*
X196773000Y-86733000D01*
X196773000Y-86713000D01*
X197027000Y-86713000D01*
X197027000Y-86733000D01*
X197047000Y-86733000D01*
X197047000Y-86987000D01*
X197027000Y-86987000D01*
X197027000Y-87007000D01*
X196773000Y-87007000D01*
X196773000Y-86987000D01*
X195770807Y-86987000D01*
X195710499Y-87176982D01*
X195922348Y-87608056D01*
X196283036Y-87925245D01*
X196583020Y-88049489D01*
X196678066Y-88019040D01*
X196648553Y-88048553D01*
X196571468Y-88163917D01*
X196551337Y-88265127D01*
X196050000Y-88265127D01*
X195940984Y-88286812D01*
X195848564Y-88348564D01*
X195786812Y-88440984D01*
X195765127Y-88550000D01*
X195765127Y-89070750D01*
X195761517Y-89071468D01*
X195646153Y-89148553D01*
X191142695Y-93652011D01*
X187660983Y-93652011D01*
X188180794Y-93132200D01*
X188372550Y-93132200D01*
X188585504Y-93043992D01*
X188748492Y-92881004D01*
X188836700Y-92668050D01*
X188836700Y-92437550D01*
X188748492Y-92224596D01*
X188585504Y-92061608D01*
X188372550Y-91973400D01*
X188142050Y-91973400D01*
X187929096Y-92061608D01*
X187766108Y-92224596D01*
X187677900Y-92437550D01*
X187677900Y-92629306D01*
X187652419Y-92654787D01*
X187598492Y-92524596D01*
X187435504Y-92361608D01*
X187222550Y-92273400D01*
X186992050Y-92273400D01*
X186779096Y-92361608D01*
X186616108Y-92524596D01*
X186527900Y-92737550D01*
X186527900Y-92929306D01*
X186414816Y-93042390D01*
X179691938Y-93042390D01*
X179698077Y-93039847D01*
X180029847Y-92708077D01*
X180209400Y-92274597D01*
X180209400Y-91805403D01*
X180029847Y-91371923D01*
X179698077Y-91040153D01*
X179264597Y-90860600D01*
X178795403Y-90860600D01*
X178361923Y-91040153D01*
X178030153Y-91371923D01*
X177850600Y-91805403D01*
X177850600Y-92274597D01*
X178030153Y-92708077D01*
X178361923Y-93039847D01*
X178368062Y-93042390D01*
X177151938Y-93042390D01*
X177158077Y-93039847D01*
X177489847Y-92708077D01*
X177669400Y-92274597D01*
X177669400Y-91805403D01*
X177489847Y-91371923D01*
X177158077Y-91040153D01*
X176724597Y-90860600D01*
X176255403Y-90860600D01*
X176233025Y-90869869D01*
X176847485Y-90255409D01*
X177091923Y-90499847D01*
X177525403Y-90679400D01*
X177994597Y-90679400D01*
X178428077Y-90499847D01*
X178759847Y-90168077D01*
X178939400Y-89734597D01*
X178939400Y-89265403D01*
X178759847Y-88831923D01*
X178586324Y-88658400D01*
X179115127Y-88658400D01*
X179115127Y-90400000D01*
X179136812Y-90509016D01*
X179198564Y-90601436D01*
X179290984Y-90663188D01*
X179400000Y-90684873D01*
X180859265Y-90684873D01*
X180827275Y-90716863D01*
X180670550Y-91095230D01*
X180670550Y-91504770D01*
X180827275Y-91883137D01*
X181116863Y-92172725D01*
X181495230Y-92329450D01*
X181904770Y-92329450D01*
X182283137Y-92172725D01*
X182572725Y-91883137D01*
X182729450Y-91504770D01*
X182729450Y-91095230D01*
X182572725Y-90716863D01*
X182283137Y-90427275D01*
X181904770Y-90270550D01*
X181495230Y-90270550D01*
X181484873Y-90274840D01*
X181484873Y-89982600D01*
X182915127Y-89982600D01*
X182915127Y-90045000D01*
X182936812Y-90154016D01*
X182998564Y-90246436D01*
X183090984Y-90308188D01*
X183200000Y-90329873D01*
X185000000Y-90329873D01*
X185109016Y-90308188D01*
X185201436Y-90246436D01*
X185263188Y-90154016D01*
X185284873Y-90045000D01*
X185284873Y-89865600D01*
X185797427Y-89865600D01*
X185797427Y-90032800D01*
X185819112Y-90141816D01*
X185880864Y-90234236D01*
X185973284Y-90295988D01*
X186082300Y-90317673D01*
X186732300Y-90317673D01*
X186841316Y-90295988D01*
X186933736Y-90234236D01*
X186995488Y-90141816D01*
X187017173Y-90032800D01*
X187017173Y-89165567D01*
X187101700Y-89250094D01*
X187101700Y-90252800D01*
X187128768Y-90388883D01*
X187205853Y-90504247D01*
X187505853Y-90804247D01*
X187621217Y-90881332D01*
X187757300Y-90908400D01*
X188957300Y-90908400D01*
X189093383Y-90881332D01*
X189208747Y-90804247D01*
X191058747Y-88954247D01*
X191135832Y-88838883D01*
X191162900Y-88702800D01*
X191162900Y-87999122D01*
X191248794Y-87963543D01*
X191468043Y-87744294D01*
X191586700Y-87457832D01*
X191586700Y-87147768D01*
X191468043Y-86861306D01*
X191248794Y-86642057D01*
X190962332Y-86523400D01*
X190652268Y-86523400D01*
X190365806Y-86642057D01*
X190146557Y-86861306D01*
X190110978Y-86947200D01*
X188917173Y-86947200D01*
X188917173Y-86772800D01*
X188895488Y-86663784D01*
X188833736Y-86571364D01*
X188741316Y-86509612D01*
X188632300Y-86487927D01*
X187982300Y-86487927D01*
X187873284Y-86509612D01*
X187832300Y-86536996D01*
X187791316Y-86509612D01*
X187682300Y-86487927D01*
X187626600Y-86487927D01*
X187626600Y-86417412D01*
X187683736Y-86379236D01*
X187745488Y-86286816D01*
X187767173Y-86177800D01*
X187767173Y-85527800D01*
X187745488Y-85418784D01*
X187683736Y-85326364D01*
X187629363Y-85290033D01*
X187691192Y-85228204D01*
X187779400Y-85015250D01*
X187779400Y-84784750D01*
X187691192Y-84571796D01*
X187528204Y-84408808D01*
X187349412Y-84334750D01*
X205944000Y-84334750D01*
X205944000Y-84475786D01*
X206002004Y-84615820D01*
X206040127Y-84653943D01*
X206040127Y-85175000D01*
X206061812Y-85284016D01*
X206123564Y-85376436D01*
X206215984Y-85438188D01*
X206325000Y-85459873D01*
X206702265Y-85459873D01*
X206812500Y-85481801D01*
X206812505Y-85481800D01*
X207287635Y-85481800D01*
X207239000Y-85599215D01*
X207239000Y-85777750D01*
X207334250Y-85873000D01*
X208023000Y-85873000D01*
X208023000Y-85853000D01*
X208277000Y-85853000D01*
X208277000Y-85873000D01*
X208965750Y-85873000D01*
X209061000Y-85777750D01*
X209061000Y-85619562D01*
X209084750Y-85629400D01*
X209315250Y-85629400D01*
X209528204Y-85541192D01*
X209575000Y-85494396D01*
X209592771Y-85512167D01*
X209556812Y-85565984D01*
X209535127Y-85675000D01*
X209535127Y-86325000D01*
X209556812Y-86434016D01*
X209618564Y-86526436D01*
X209710984Y-86588188D01*
X209820000Y-86609873D01*
X210880000Y-86609873D01*
X210989016Y-86588188D01*
X211081436Y-86526436D01*
X211143188Y-86434016D01*
X211164873Y-86325000D01*
X211164873Y-85675000D01*
X211143188Y-85565984D01*
X211081436Y-85473564D01*
X210989016Y-85411812D01*
X210880000Y-85390127D01*
X210429269Y-85390127D01*
X210441192Y-85378204D01*
X210460413Y-85331800D01*
X211285388Y-85331800D01*
X211323564Y-85388936D01*
X211415984Y-85450688D01*
X211525000Y-85472373D01*
X212175000Y-85472373D01*
X212284016Y-85450688D01*
X212376436Y-85388936D01*
X212438188Y-85296516D01*
X212459873Y-85187500D01*
X212459873Y-84612500D01*
X212452947Y-84577683D01*
X213270600Y-85395336D01*
X213270600Y-85515250D01*
X213358808Y-85728204D01*
X213521796Y-85891192D01*
X213734750Y-85979400D01*
X213965250Y-85979400D01*
X214178204Y-85891192D01*
X214341192Y-85728204D01*
X214429400Y-85515250D01*
X214429400Y-85284750D01*
X214341192Y-85071796D01*
X214178204Y-84908808D01*
X213965250Y-84820600D01*
X213845336Y-84820600D01*
X212862368Y-83837632D01*
X212862170Y-83837500D01*
X212730523Y-83749535D01*
X212575000Y-83718600D01*
X212431584Y-83718600D01*
X212376436Y-83636064D01*
X212284016Y-83574312D01*
X212175000Y-83552627D01*
X211525000Y-83552627D01*
X211415984Y-83574312D01*
X211323564Y-83636064D01*
X211285120Y-83693600D01*
X211148681Y-83693600D01*
X211143188Y-83665984D01*
X211081436Y-83573564D01*
X210989016Y-83511812D01*
X210880000Y-83490127D01*
X209820000Y-83490127D01*
X209710984Y-83511812D01*
X209618564Y-83573564D01*
X209556812Y-83665984D01*
X209535127Y-83775000D01*
X209535127Y-84425000D01*
X209556812Y-84534016D01*
X209592771Y-84587833D01*
X209575000Y-84605604D01*
X209528204Y-84558808D01*
X209315250Y-84470600D01*
X209084750Y-84470600D01*
X209061000Y-84480438D01*
X209061000Y-84322250D01*
X208965750Y-84227000D01*
X208277000Y-84227000D01*
X208277000Y-84247000D01*
X208023000Y-84247000D01*
X208023000Y-84227000D01*
X207334250Y-84227000D01*
X207291250Y-84270000D01*
X207260750Y-84239500D01*
X206777000Y-84239500D01*
X206777000Y-84259500D01*
X206523000Y-84259500D01*
X206523000Y-84239500D01*
X206039250Y-84239500D01*
X205944000Y-84334750D01*
X187349412Y-84334750D01*
X187315250Y-84320600D01*
X187084750Y-84320600D01*
X186871796Y-84408808D01*
X186708808Y-84571796D01*
X186620600Y-84784750D01*
X186620600Y-85015250D01*
X186675090Y-85146800D01*
X186642050Y-85146800D01*
X186546800Y-85242050D01*
X186546800Y-85725800D01*
X186566800Y-85725800D01*
X186566800Y-85979800D01*
X186546800Y-85979800D01*
X186546800Y-86463550D01*
X186552300Y-86469050D01*
X186534300Y-86487050D01*
X186534300Y-87175800D01*
X186554300Y-87175800D01*
X186554300Y-87429800D01*
X186534300Y-87429800D01*
X186534300Y-88118550D01*
X186629550Y-88213800D01*
X186808085Y-88213800D01*
X186948119Y-88155796D01*
X186993884Y-88110031D01*
X187032300Y-88117673D01*
X187682300Y-88117673D01*
X187791316Y-88095988D01*
X187832300Y-88068604D01*
X187873284Y-88095988D01*
X187982300Y-88117673D01*
X188632300Y-88117673D01*
X188741316Y-88095988D01*
X188833736Y-88034236D01*
X188895488Y-87941816D01*
X188917173Y-87832800D01*
X188917173Y-87658400D01*
X190110978Y-87658400D01*
X190146557Y-87744294D01*
X190365806Y-87963543D01*
X190451700Y-87999122D01*
X190451700Y-88555506D01*
X189013300Y-89993906D01*
X189013300Y-89725050D01*
X188918050Y-89629800D01*
X188434300Y-89629800D01*
X188434300Y-89649800D01*
X188180300Y-89649800D01*
X188180300Y-89629800D01*
X188160300Y-89629800D01*
X188160300Y-89375800D01*
X188180300Y-89375800D01*
X188180300Y-88687050D01*
X188434300Y-88687050D01*
X188434300Y-89375800D01*
X188918050Y-89375800D01*
X189013300Y-89280550D01*
X189013300Y-88897014D01*
X188955296Y-88756980D01*
X188848119Y-88649804D01*
X188708085Y-88591800D01*
X188529550Y-88591800D01*
X188434300Y-88687050D01*
X188180300Y-88687050D01*
X188085050Y-88591800D01*
X187906515Y-88591800D01*
X187766481Y-88649804D01*
X187659304Y-88756980D01*
X187646144Y-88788750D01*
X187208747Y-88351353D01*
X187093383Y-88274268D01*
X186957300Y-88247200D01*
X185954594Y-88247200D01*
X185758747Y-88051353D01*
X185643383Y-87974268D01*
X185507300Y-87947200D01*
X167554594Y-87947200D01*
X167132444Y-87525050D01*
X185701300Y-87525050D01*
X185701300Y-87908586D01*
X185759304Y-88048620D01*
X185866481Y-88155796D01*
X186006515Y-88213800D01*
X186185050Y-88213800D01*
X186280300Y-88118550D01*
X186280300Y-87429800D01*
X185796550Y-87429800D01*
X185701300Y-87525050D01*
X167132444Y-87525050D01*
X166329644Y-86722250D01*
X182819000Y-86722250D01*
X182819000Y-87110786D01*
X182877004Y-87250820D01*
X182984181Y-87357996D01*
X183124215Y-87416000D01*
X183877750Y-87416000D01*
X183973000Y-87320750D01*
X183973000Y-86627000D01*
X184227000Y-86627000D01*
X184227000Y-87320750D01*
X184322250Y-87416000D01*
X185075785Y-87416000D01*
X185215819Y-87357996D01*
X185322996Y-87250820D01*
X185381000Y-87110786D01*
X185381000Y-86722250D01*
X185355764Y-86697014D01*
X185701300Y-86697014D01*
X185701300Y-87080550D01*
X185796550Y-87175800D01*
X186280300Y-87175800D01*
X186280300Y-86487050D01*
X186274800Y-86481550D01*
X186292800Y-86463550D01*
X186292800Y-85979800D01*
X185846550Y-85979800D01*
X185751300Y-86075050D01*
X185751300Y-86253585D01*
X185809304Y-86393619D01*
X185865985Y-86450300D01*
X185759304Y-86556980D01*
X185701300Y-86697014D01*
X185355764Y-86697014D01*
X185285750Y-86627000D01*
X184227000Y-86627000D01*
X183973000Y-86627000D01*
X182914250Y-86627000D01*
X182819000Y-86722250D01*
X166329644Y-86722250D01*
X165496608Y-85889214D01*
X182819000Y-85889214D01*
X182819000Y-86277750D01*
X182914250Y-86373000D01*
X183973000Y-86373000D01*
X183973000Y-85679250D01*
X184227000Y-85679250D01*
X184227000Y-86373000D01*
X185285750Y-86373000D01*
X185381000Y-86277750D01*
X185381000Y-85889214D01*
X185322996Y-85749180D01*
X185215819Y-85642004D01*
X185075785Y-85584000D01*
X184322250Y-85584000D01*
X184227000Y-85679250D01*
X183973000Y-85679250D01*
X183877750Y-85584000D01*
X183124215Y-85584000D01*
X182984181Y-85642004D01*
X182877004Y-85749180D01*
X182819000Y-85889214D01*
X165496608Y-85889214D01*
X165059409Y-85452015D01*
X185751300Y-85452015D01*
X185751300Y-85630550D01*
X185846550Y-85725800D01*
X186292800Y-85725800D01*
X186292800Y-85242050D01*
X186197550Y-85146800D01*
X186056514Y-85146800D01*
X185916480Y-85204804D01*
X185809304Y-85311981D01*
X185751300Y-85452015D01*
X165059409Y-85452015D01*
X164103936Y-84496542D01*
X163988572Y-84419457D01*
X163852489Y-84392389D01*
X151512111Y-84392389D01*
X151376028Y-84419457D01*
X151260664Y-84496542D01*
X149283806Y-86473400D01*
X149092050Y-86473400D01*
X148879096Y-86561608D01*
X148716108Y-86724596D01*
X148627900Y-86937550D01*
X148627900Y-87168050D01*
X148716108Y-87381004D01*
X148879096Y-87543992D01*
X149092050Y-87632200D01*
X149322550Y-87632200D01*
X149535504Y-87543992D01*
X149698492Y-87381004D01*
X149786700Y-87168050D01*
X149786700Y-86976294D01*
X151659405Y-85103589D01*
X152143187Y-85103589D01*
X150729819Y-86516957D01*
X150652734Y-86632321D01*
X150630746Y-86742867D01*
X150625666Y-86768404D01*
X150625666Y-89365038D01*
X150490074Y-89500630D01*
X150401866Y-89713584D01*
X150401866Y-89944084D01*
X150490074Y-90157038D01*
X150564035Y-90230999D01*
X150188456Y-90230999D01*
X149992429Y-90034971D01*
X149949404Y-90006223D01*
X149852343Y-89941369D01*
X149763300Y-89923657D01*
X149763300Y-89787550D01*
X149668050Y-89692300D01*
X149184300Y-89692300D01*
X149184300Y-89712300D01*
X148930300Y-89712300D01*
X148930300Y-89692300D01*
X148446550Y-89692300D01*
X148416050Y-89722800D01*
X148323050Y-89629800D01*
X147634300Y-89629800D01*
X147634300Y-89649800D01*
X147380300Y-89649800D01*
X147380300Y-89629800D01*
X146691550Y-89629800D01*
X146596300Y-89725050D01*
X146596300Y-89903585D01*
X146654304Y-90043619D01*
X146700069Y-90089384D01*
X146692427Y-90127800D01*
X146692427Y-90777800D01*
X146714112Y-90886816D01*
X146741496Y-90927800D01*
X146714112Y-90968784D01*
X146692427Y-91077800D01*
X146692427Y-91691643D01*
X146596984Y-91627869D01*
X146460901Y-91600801D01*
X146194051Y-91600801D01*
X146123050Y-91529800D01*
X145434300Y-91529800D01*
X145434300Y-91549800D01*
X145180300Y-91549800D01*
X145180300Y-91529800D01*
X145160300Y-91529800D01*
X145160300Y-91275800D01*
X145180300Y-91275800D01*
X145180300Y-91255800D01*
X145434300Y-91255800D01*
X145434300Y-91275800D01*
X146123050Y-91275800D01*
X146218300Y-91180550D01*
X146218300Y-91002015D01*
X146160296Y-90861981D01*
X146053120Y-90754804D01*
X146027899Y-90744357D01*
X146093383Y-90731332D01*
X146208747Y-90654247D01*
X146458747Y-90404247D01*
X146488545Y-90359652D01*
X146535832Y-90288882D01*
X146562900Y-90152800D01*
X146562900Y-89102015D01*
X146596300Y-89102015D01*
X146596300Y-89280550D01*
X146691550Y-89375800D01*
X147380300Y-89375800D01*
X147380300Y-88892050D01*
X147634300Y-88892050D01*
X147634300Y-89375800D01*
X148323050Y-89375800D01*
X148353550Y-89345300D01*
X148446550Y-89438300D01*
X148930300Y-89438300D01*
X148930300Y-88992050D01*
X149184300Y-88992050D01*
X149184300Y-89438300D01*
X149668050Y-89438300D01*
X149763300Y-89343050D01*
X149763300Y-89202014D01*
X149705296Y-89061980D01*
X149598119Y-88954804D01*
X149458085Y-88896800D01*
X149279550Y-88896800D01*
X149184300Y-88992050D01*
X148930300Y-88992050D01*
X148835050Y-88896800D01*
X148656515Y-88896800D01*
X148516481Y-88954804D01*
X148409304Y-89061980D01*
X148405510Y-89071138D01*
X148360296Y-88961981D01*
X148253120Y-88854804D01*
X148113086Y-88796800D01*
X147729550Y-88796800D01*
X147634300Y-88892050D01*
X147380300Y-88892050D01*
X147285050Y-88796800D01*
X146901514Y-88796800D01*
X146761480Y-88854804D01*
X146654304Y-88961981D01*
X146596300Y-89102015D01*
X146562900Y-89102015D01*
X146562900Y-88952800D01*
X146559575Y-88936082D01*
X146535832Y-88816717D01*
X146458747Y-88701353D01*
X145901360Y-88143966D01*
X147137349Y-86907977D01*
X147214434Y-86792612D01*
X147241502Y-86656530D01*
X147241502Y-85772696D01*
X147233956Y-85734757D01*
X147214434Y-85636613D01*
X147137349Y-85521249D01*
X147020067Y-85403967D01*
X146904703Y-85326882D01*
X146817968Y-85309630D01*
X146672560Y-85164222D01*
X146459606Y-85076014D01*
X146229106Y-85076014D01*
X146016152Y-85164222D01*
X145853164Y-85327210D01*
X145764956Y-85540164D01*
X145764956Y-85770664D01*
X145853164Y-85983618D01*
X145907578Y-86038032D01*
X145866100Y-86079510D01*
X145844888Y-86130720D01*
X145841192Y-86121796D01*
X145678204Y-85958808D01*
X145465250Y-85870600D01*
X145234750Y-85870600D01*
X145021796Y-85958808D01*
X144858808Y-86121796D01*
X144770600Y-86334750D01*
X144770600Y-86526506D01*
X144381000Y-86916106D01*
X144381000Y-86712250D01*
X144285750Y-86617000D01*
X143227000Y-86617000D01*
X143227000Y-86637000D01*
X142973000Y-86637000D01*
X142973000Y-86617000D01*
X141914250Y-86617000D01*
X141819000Y-86712250D01*
X141819000Y-86989590D01*
X131217484Y-86989590D01*
X130107108Y-85879214D01*
X141819000Y-85879214D01*
X141819000Y-86267750D01*
X141914250Y-86363000D01*
X142973000Y-86363000D01*
X142973000Y-85669250D01*
X143227000Y-85669250D01*
X143227000Y-86363000D01*
X144285750Y-86363000D01*
X144381000Y-86267750D01*
X144381000Y-85879214D01*
X144322996Y-85739180D01*
X144215819Y-85632004D01*
X144075785Y-85574000D01*
X143322250Y-85574000D01*
X143227000Y-85669250D01*
X142973000Y-85669250D01*
X142877750Y-85574000D01*
X142124215Y-85574000D01*
X141984181Y-85632004D01*
X141877004Y-85739180D01*
X141819000Y-85879214D01*
X130107108Y-85879214D01*
X129422847Y-85194953D01*
X129307483Y-85117868D01*
X129171400Y-85090800D01*
X128363796Y-85090800D01*
X128228204Y-84955208D01*
X128015250Y-84867000D01*
X127784750Y-84867000D01*
X127571796Y-84955208D01*
X127408808Y-85118196D01*
X127353827Y-85250933D01*
X126701447Y-84598553D01*
X126586083Y-84521468D01*
X126450000Y-84494400D01*
X125459873Y-84494400D01*
X125459873Y-84050000D01*
X125438188Y-83940984D01*
X125376436Y-83848564D01*
X125284016Y-83786812D01*
X125175000Y-83765127D01*
X124625000Y-83765127D01*
X124515984Y-83786812D01*
X124500000Y-83797492D01*
X124484016Y-83786812D01*
X124375000Y-83765127D01*
X123825000Y-83765127D01*
X123715984Y-83786812D01*
X123700000Y-83797492D01*
X123684016Y-83786812D01*
X123575000Y-83765127D01*
X123025000Y-83765127D01*
X122915984Y-83786812D01*
X122900000Y-83797492D01*
X122884016Y-83786812D01*
X122775000Y-83765127D01*
X122225000Y-83765127D01*
X122115984Y-83786812D01*
X122100000Y-83797492D01*
X122084016Y-83786812D01*
X121975000Y-83765127D01*
X121425000Y-83765127D01*
X121315984Y-83786812D01*
X121300000Y-83797492D01*
X121284016Y-83786812D01*
X121175000Y-83765127D01*
X120625000Y-83765127D01*
X120515984Y-83786812D01*
X120500000Y-83797492D01*
X120484016Y-83786812D01*
X120375000Y-83765127D01*
X119825000Y-83765127D01*
X119715984Y-83786812D01*
X119700000Y-83797492D01*
X119684016Y-83786812D01*
X119575000Y-83765127D01*
X119025000Y-83765127D01*
X118915984Y-83786812D01*
X118823564Y-83848564D01*
X118761812Y-83940984D01*
X118756599Y-83967189D01*
X116809873Y-83972898D01*
X116809873Y-83550000D01*
X116788188Y-83440984D01*
X116726436Y-83348564D01*
X116634016Y-83286812D01*
X116525000Y-83265127D01*
X115975000Y-83265127D01*
X115865984Y-83286812D01*
X115773564Y-83348564D01*
X115711812Y-83440984D01*
X115690127Y-83550000D01*
X115690127Y-85050000D01*
X115711812Y-85159016D01*
X115773564Y-85251436D01*
X115865984Y-85313188D01*
X115894400Y-85318840D01*
X115894400Y-86452400D01*
X115921468Y-86588483D01*
X115998553Y-86703847D01*
X116646153Y-87351447D01*
X116667612Y-87365785D01*
X116673454Y-88338463D01*
X116669000Y-88349215D01*
X116669000Y-88477750D01*
X116674322Y-88483072D01*
X116676912Y-88914338D01*
X116669000Y-88922250D01*
X116669000Y-88960187D01*
X116634016Y-88936812D01*
X116525000Y-88915127D01*
X116332215Y-88915127D01*
X116315250Y-88908100D01*
X116084750Y-88908100D01*
X116067785Y-88915127D01*
X115875000Y-88915127D01*
X115765984Y-88936812D01*
X115673564Y-88998564D01*
X115651292Y-89031896D01*
X115628204Y-89008808D01*
X115415250Y-88920600D01*
X115381800Y-88920600D01*
X115381800Y-88210000D01*
X115348931Y-88044757D01*
X115255329Y-87904671D01*
X114884873Y-87534215D01*
X114884873Y-87190000D01*
X114877000Y-87150420D01*
X114877000Y-86950000D01*
X114867333Y-86901399D01*
X114839803Y-86860197D01*
X114798601Y-86832667D01*
X114750000Y-86823000D01*
X114531800Y-86823000D01*
X114531800Y-85875000D01*
X114498931Y-85709757D01*
X114405329Y-85569671D01*
X113559873Y-84724215D01*
X113559873Y-83550000D01*
X113538188Y-83440984D01*
X113476436Y-83348564D01*
X113384016Y-83286812D01*
X113275000Y-83265127D01*
X112725000Y-83265127D01*
X112615984Y-83286812D01*
X112523564Y-83348564D01*
X112461812Y-83440984D01*
X112440127Y-83550000D01*
X112440127Y-85050000D01*
X112461812Y-85159016D01*
X112523564Y-85251436D01*
X112615984Y-85313188D01*
X112725000Y-85334873D01*
X112949215Y-85334873D01*
X113079672Y-85465330D01*
X112965250Y-85417935D01*
X112734750Y-85417935D01*
X112521796Y-85506143D01*
X112400000Y-85627939D01*
X112278204Y-85506143D01*
X112065250Y-85417935D01*
X111834750Y-85417935D01*
X111621796Y-85506143D01*
X111458808Y-85669131D01*
X111370600Y-85882085D01*
X111370600Y-86073840D01*
X111097241Y-86347200D01*
X111095517Y-86347200D01*
X110962289Y-86147810D01*
X110707658Y-85977671D01*
X110407300Y-85917926D01*
X109907300Y-85917926D01*
X109606942Y-85977671D01*
X109352311Y-86147810D01*
X109182172Y-86402441D01*
X109122427Y-86702799D01*
X109122427Y-86702801D01*
X109127400Y-86727801D01*
X109122427Y-86752800D01*
X109122427Y-87252800D01*
X109144112Y-87361816D01*
X109154792Y-87377800D01*
X109144112Y-87393784D01*
X109122427Y-87502800D01*
X109122427Y-88502800D01*
X109144112Y-88611816D01*
X109154792Y-88627800D01*
X109144112Y-88643784D01*
X109122427Y-88752800D01*
X109122427Y-89252800D01*
X109127400Y-89277799D01*
X109122427Y-89302799D01*
X109122427Y-89302801D01*
X109182172Y-89603159D01*
X109352311Y-89857790D01*
X109606942Y-90027929D01*
X109907300Y-90087674D01*
X110407300Y-90087674D01*
X110433974Y-90082368D01*
X110444400Y-90092794D01*
X110444400Y-90465127D01*
X110100000Y-90465127D01*
X109990984Y-90486812D01*
X109898564Y-90548564D01*
X109836812Y-90640984D01*
X109815127Y-90750000D01*
X109815127Y-91204469D01*
X109655329Y-91044671D01*
X109642476Y-91036083D01*
X109584873Y-90997594D01*
X109584873Y-90750000D01*
X109563188Y-90640984D01*
X109501436Y-90548564D01*
X109409016Y-90486812D01*
X109300000Y-90465127D01*
X108225785Y-90465127D01*
X107319709Y-89559051D01*
X107336692Y-89518050D01*
X107336692Y-89287550D01*
X107248484Y-89074596D01*
X107085496Y-88911608D01*
X106984873Y-88869929D01*
X106984873Y-87200000D01*
X106963188Y-87090984D01*
X106901436Y-86998564D01*
X106809016Y-86936812D01*
X106700000Y-86915127D01*
X105100000Y-86915127D01*
X104990984Y-86936812D01*
X104898564Y-86998564D01*
X104836812Y-87090984D01*
X104815127Y-87200000D01*
X104815127Y-88875973D01*
X104729096Y-88911608D01*
X104566108Y-89074596D01*
X104477900Y-89287550D01*
X104477900Y-89518050D01*
X104566108Y-89731004D01*
X104729096Y-89893992D01*
X104864152Y-89949934D01*
X104898564Y-90001436D01*
X104990984Y-90063188D01*
X105100000Y-90084873D01*
X106624215Y-90084873D01*
X107615127Y-91075785D01*
X107615127Y-91446815D01*
X106919015Y-92142927D01*
X106632300Y-92142927D01*
X106612900Y-92146786D01*
X106612900Y-91899122D01*
X106698794Y-91863543D01*
X106918043Y-91644294D01*
X107036700Y-91357832D01*
X107036700Y-91047768D01*
X106918043Y-90761306D01*
X106698794Y-90542057D01*
X106412332Y-90423400D01*
X106102268Y-90423400D01*
X105815806Y-90542057D01*
X105596557Y-90761306D01*
X105477900Y-91047768D01*
X105477900Y-91357832D01*
X105596557Y-91644294D01*
X105815806Y-91863543D01*
X105901700Y-91899122D01*
X105901700Y-92059300D01*
X105779550Y-92059300D01*
X105684300Y-92154550D01*
X105684300Y-92600800D01*
X105704300Y-92600800D01*
X105704300Y-92854800D01*
X105684300Y-92854800D01*
X105684300Y-92874800D01*
X105430300Y-92874800D01*
X105430300Y-92854800D01*
X105410300Y-92854800D01*
X105410300Y-92600800D01*
X105430300Y-92600800D01*
X105430300Y-92154550D01*
X105335050Y-92059300D01*
X105303658Y-92059300D01*
X105225992Y-91871796D01*
X105063004Y-91708808D01*
X104850050Y-91620600D01*
X104811000Y-91620600D01*
X104811000Y-91472250D01*
X104715750Y-91377000D01*
X104027000Y-91377000D01*
X104027000Y-91397000D01*
X103773000Y-91397000D01*
X103773000Y-91377000D01*
X103084250Y-91377000D01*
X102989000Y-91472250D01*
X102989000Y-91650785D01*
X103047004Y-91790819D01*
X103092769Y-91836584D01*
X103085127Y-91875000D01*
X103085127Y-92525000D01*
X103106812Y-92634016D01*
X103134196Y-92675000D01*
X103106812Y-92715984D01*
X103085127Y-92825000D01*
X103085127Y-93475000D01*
X103106812Y-93584016D01*
X103168564Y-93676436D01*
X103260984Y-93738188D01*
X103370000Y-93759873D01*
X103570750Y-93759873D01*
X103571468Y-93763483D01*
X103648553Y-93878847D01*
X104040305Y-94270600D01*
X76073461Y-94270600D01*
X76788918Y-93555143D01*
X76846557Y-93694294D01*
X77065806Y-93913543D01*
X77352268Y-94032200D01*
X77662332Y-94032200D01*
X77948794Y-93913543D01*
X78168043Y-93694294D01*
X78203622Y-93608400D01*
X78214406Y-93608400D01*
X78350489Y-93581332D01*
X78465853Y-93504247D01*
X79174870Y-92795230D01*
X80170550Y-92795230D01*
X80170550Y-93204770D01*
X80327275Y-93583137D01*
X80616863Y-93872725D01*
X80995230Y-94029450D01*
X81404770Y-94029450D01*
X81783137Y-93872725D01*
X82072725Y-93583137D01*
X82201498Y-93272250D01*
X84989000Y-93272250D01*
X84989000Y-93450785D01*
X85047004Y-93590819D01*
X85154180Y-93697996D01*
X85294214Y-93756000D01*
X85677750Y-93756000D01*
X85773000Y-93660750D01*
X85773000Y-93177000D01*
X86027000Y-93177000D01*
X86027000Y-93660750D01*
X86122250Y-93756000D01*
X86505786Y-93756000D01*
X86645820Y-93697996D01*
X86752996Y-93590819D01*
X86811000Y-93450785D01*
X86811000Y-93272250D01*
X86715750Y-93177000D01*
X86027000Y-93177000D01*
X85773000Y-93177000D01*
X85084250Y-93177000D01*
X84989000Y-93272250D01*
X82201498Y-93272250D01*
X82229450Y-93204770D01*
X82229450Y-92795230D01*
X82225160Y-92784873D01*
X83900000Y-92784873D01*
X84009016Y-92763188D01*
X84101436Y-92701436D01*
X84136328Y-92649215D01*
X84989000Y-92649215D01*
X84989000Y-92827750D01*
X85084250Y-92923000D01*
X85773000Y-92923000D01*
X85773000Y-92439250D01*
X86027000Y-92439250D01*
X86027000Y-92923000D01*
X86715750Y-92923000D01*
X86811000Y-92827750D01*
X86811000Y-92649215D01*
X86752996Y-92509181D01*
X86645820Y-92402004D01*
X86505786Y-92344000D01*
X86122250Y-92344000D01*
X86027000Y-92439250D01*
X85773000Y-92439250D01*
X85677750Y-92344000D01*
X85294214Y-92344000D01*
X85154180Y-92402004D01*
X85047004Y-92509181D01*
X84989000Y-92649215D01*
X84136328Y-92649215D01*
X84163188Y-92609016D01*
X84184873Y-92500000D01*
X84184873Y-92082600D01*
X84306400Y-92082600D01*
X84491083Y-92045864D01*
X84647650Y-91941250D01*
X84841250Y-91747650D01*
X84945864Y-91591083D01*
X84982601Y-91406400D01*
X84982600Y-91406395D01*
X84982600Y-89793500D01*
X85019436Y-89756663D01*
X85036812Y-89844016D01*
X85098564Y-89936436D01*
X85190984Y-89998188D01*
X85300000Y-90019873D01*
X85844400Y-90019873D01*
X85844400Y-90052706D01*
X85648553Y-90248553D01*
X85571468Y-90363917D01*
X85551586Y-90463871D01*
X85544400Y-90500000D01*
X85544400Y-90540127D01*
X85370000Y-90540127D01*
X85260984Y-90561812D01*
X85168564Y-90623564D01*
X85106812Y-90715984D01*
X85085127Y-90825000D01*
X85085127Y-91475000D01*
X85106812Y-91584016D01*
X85168564Y-91676436D01*
X85260984Y-91738188D01*
X85370000Y-91759873D01*
X86430000Y-91759873D01*
X86539016Y-91738188D01*
X86631436Y-91676436D01*
X86693188Y-91584016D01*
X86714873Y-91475000D01*
X86714873Y-91372250D01*
X87189000Y-91372250D01*
X87189000Y-91550785D01*
X87247004Y-91690819D01*
X87292769Y-91736584D01*
X87285127Y-91775000D01*
X87285127Y-92425000D01*
X87306812Y-92534016D01*
X87334196Y-92575000D01*
X87306812Y-92615984D01*
X87285127Y-92725000D01*
X87285127Y-93375000D01*
X87306812Y-93484016D01*
X87368564Y-93576436D01*
X87460984Y-93638188D01*
X87570000Y-93659873D01*
X88630000Y-93659873D01*
X88739016Y-93638188D01*
X88831436Y-93576436D01*
X88893188Y-93484016D01*
X88908786Y-93405600D01*
X90324389Y-93405600D01*
X90339257Y-93441494D01*
X90558506Y-93660743D01*
X90844968Y-93779400D01*
X91155032Y-93779400D01*
X91441494Y-93660743D01*
X91660743Y-93441494D01*
X91689424Y-93372250D01*
X100789000Y-93372250D01*
X100789000Y-93550785D01*
X100847004Y-93690819D01*
X100954180Y-93797996D01*
X101094214Y-93856000D01*
X101477750Y-93856000D01*
X101573000Y-93760750D01*
X101573000Y-93277000D01*
X101827000Y-93277000D01*
X101827000Y-93760750D01*
X101922250Y-93856000D01*
X102305786Y-93856000D01*
X102445820Y-93797996D01*
X102552996Y-93690819D01*
X102611000Y-93550785D01*
X102611000Y-93372250D01*
X102515750Y-93277000D01*
X101827000Y-93277000D01*
X101573000Y-93277000D01*
X100884250Y-93277000D01*
X100789000Y-93372250D01*
X91689424Y-93372250D01*
X91779400Y-93155032D01*
X91779400Y-92844968D01*
X91660743Y-92558506D01*
X91449013Y-92346776D01*
X91990385Y-91805403D01*
X93310600Y-91805403D01*
X93310600Y-92274597D01*
X93490153Y-92708077D01*
X93821923Y-93039847D01*
X94255403Y-93219400D01*
X94724597Y-93219400D01*
X95158077Y-93039847D01*
X95489847Y-92708077D01*
X95669400Y-92274597D01*
X95669400Y-91805403D01*
X95850600Y-91805403D01*
X95850600Y-92274597D01*
X96030153Y-92708077D01*
X96361923Y-93039847D01*
X96795403Y-93219400D01*
X97264597Y-93219400D01*
X97698077Y-93039847D01*
X97988709Y-92749215D01*
X100789000Y-92749215D01*
X100789000Y-92927750D01*
X100884250Y-93023000D01*
X101573000Y-93023000D01*
X101573000Y-92539250D01*
X101827000Y-92539250D01*
X101827000Y-93023000D01*
X102515750Y-93023000D01*
X102611000Y-92927750D01*
X102611000Y-92749215D01*
X102552996Y-92609181D01*
X102445820Y-92502004D01*
X102305786Y-92444000D01*
X101922250Y-92444000D01*
X101827000Y-92539250D01*
X101573000Y-92539250D01*
X101477750Y-92444000D01*
X101094214Y-92444000D01*
X100954180Y-92502004D01*
X100847004Y-92609181D01*
X100789000Y-92749215D01*
X97988709Y-92749215D01*
X98029847Y-92708077D01*
X98209400Y-92274597D01*
X98209400Y-91805403D01*
X98029847Y-91371923D01*
X97698077Y-91040153D01*
X97264597Y-90860600D01*
X96795403Y-90860600D01*
X96361923Y-91040153D01*
X96030153Y-91371923D01*
X95850600Y-91805403D01*
X95669400Y-91805403D01*
X95489847Y-91371923D01*
X95158077Y-91040153D01*
X94724597Y-90860600D01*
X94255403Y-90860600D01*
X93821923Y-91040153D01*
X93490153Y-91371923D01*
X93310600Y-91805403D01*
X91990385Y-91805403D01*
X94616107Y-89179681D01*
X94580600Y-89265403D01*
X94580600Y-89734597D01*
X94760153Y-90168077D01*
X95091923Y-90499847D01*
X95525403Y-90679400D01*
X95994597Y-90679400D01*
X96428077Y-90499847D01*
X96759847Y-90168077D01*
X96939400Y-89734597D01*
X96939400Y-89265403D01*
X96809968Y-88952926D01*
X97107294Y-88655600D01*
X97115127Y-88655600D01*
X97115127Y-90400000D01*
X97136812Y-90509016D01*
X97198564Y-90601436D01*
X97290984Y-90663188D01*
X97400000Y-90684873D01*
X98859265Y-90684873D01*
X98827275Y-90716863D01*
X98670550Y-91095230D01*
X98670550Y-91504770D01*
X98827275Y-91883137D01*
X99116863Y-92172725D01*
X99495230Y-92329450D01*
X99904770Y-92329450D01*
X100283137Y-92172725D01*
X100572725Y-91883137D01*
X100729450Y-91504770D01*
X100729450Y-91095230D01*
X100572725Y-90716863D01*
X100283137Y-90427275D01*
X99904770Y-90270550D01*
X99495230Y-90270550D01*
X99484873Y-90274840D01*
X99484873Y-89982600D01*
X100915127Y-89982600D01*
X100915127Y-90035000D01*
X100936812Y-90144016D01*
X100998564Y-90236436D01*
X101090984Y-90298188D01*
X101200000Y-90319873D01*
X101344400Y-90319873D01*
X101344400Y-90640127D01*
X101170000Y-90640127D01*
X101060984Y-90661812D01*
X100968564Y-90723564D01*
X100906812Y-90815984D01*
X100885127Y-90925000D01*
X100885127Y-91575000D01*
X100906812Y-91684016D01*
X100968564Y-91776436D01*
X101060984Y-91838188D01*
X101170000Y-91859873D01*
X102230000Y-91859873D01*
X102339016Y-91838188D01*
X102431436Y-91776436D01*
X102493188Y-91684016D01*
X102514873Y-91575000D01*
X102514873Y-90925000D01*
X102499799Y-90849215D01*
X102989000Y-90849215D01*
X102989000Y-91027750D01*
X103084250Y-91123000D01*
X103773000Y-91123000D01*
X103773000Y-90639250D01*
X104027000Y-90639250D01*
X104027000Y-91123000D01*
X104715750Y-91123000D01*
X104811000Y-91027750D01*
X104811000Y-90849215D01*
X104752996Y-90709181D01*
X104645820Y-90602004D01*
X104505786Y-90544000D01*
X104122250Y-90544000D01*
X104027000Y-90639250D01*
X103773000Y-90639250D01*
X103677750Y-90544000D01*
X103294214Y-90544000D01*
X103154180Y-90602004D01*
X103047004Y-90709181D01*
X102989000Y-90849215D01*
X102499799Y-90849215D01*
X102493188Y-90815984D01*
X102431436Y-90723564D01*
X102339016Y-90661812D01*
X102230000Y-90640127D01*
X102055600Y-90640127D01*
X102055600Y-90319873D01*
X103000000Y-90319873D01*
X103109016Y-90298188D01*
X103201436Y-90236436D01*
X103263188Y-90144016D01*
X103284873Y-90035000D01*
X103284873Y-88965000D01*
X103263188Y-88855984D01*
X103201436Y-88763564D01*
X103109016Y-88701812D01*
X103000000Y-88680127D01*
X102439269Y-88680127D01*
X102491192Y-88628204D01*
X102579400Y-88415250D01*
X102579400Y-88184750D01*
X102491192Y-87971796D01*
X102328204Y-87808808D01*
X102115250Y-87720600D01*
X101884750Y-87720600D01*
X101671796Y-87808808D01*
X101536204Y-87944400D01*
X98691898Y-87944400D01*
X99100011Y-87536287D01*
X99142190Y-87578466D01*
X99355144Y-87666674D01*
X99585644Y-87666674D01*
X99798598Y-87578466D01*
X99961586Y-87415478D01*
X100049794Y-87202524D01*
X100049794Y-86972024D01*
X99961586Y-86759070D01*
X99914766Y-86712250D01*
X100819000Y-86712250D01*
X100819000Y-87100786D01*
X100877004Y-87240820D01*
X100984181Y-87347996D01*
X101124215Y-87406000D01*
X101877750Y-87406000D01*
X101973000Y-87310750D01*
X101973000Y-86617000D01*
X102227000Y-86617000D01*
X102227000Y-87310750D01*
X102322250Y-87406000D01*
X103075785Y-87406000D01*
X103215819Y-87347996D01*
X103322996Y-87240820D01*
X103381000Y-87100786D01*
X103381000Y-86712250D01*
X103285750Y-86617000D01*
X102227000Y-86617000D01*
X101973000Y-86617000D01*
X100914250Y-86617000D01*
X100819000Y-86712250D01*
X99914766Y-86712250D01*
X99798598Y-86596082D01*
X99585644Y-86507874D01*
X99355144Y-86507874D01*
X99142190Y-86596082D01*
X98996782Y-86741490D01*
X98910047Y-86758742D01*
X98794683Y-86835827D01*
X98086110Y-87544400D01*
X95392894Y-87544400D01*
X95256811Y-87571468D01*
X95141447Y-87648553D01*
X91129400Y-91660600D01*
X91129400Y-91584750D01*
X91041192Y-91371796D01*
X90878204Y-91208808D01*
X90665250Y-91120600D01*
X90434750Y-91120600D01*
X90221796Y-91208808D01*
X90141104Y-91289500D01*
X89727000Y-91289500D01*
X89727000Y-91309500D01*
X89473000Y-91309500D01*
X89473000Y-91289500D01*
X88989250Y-91289500D01*
X88958750Y-91320000D01*
X88915750Y-91277000D01*
X88227000Y-91277000D01*
X88227000Y-91297000D01*
X87973000Y-91297000D01*
X87973000Y-91277000D01*
X87284250Y-91277000D01*
X87189000Y-91372250D01*
X86714873Y-91372250D01*
X86714873Y-90825000D01*
X86699799Y-90749215D01*
X87189000Y-90749215D01*
X87189000Y-90927750D01*
X87284250Y-91023000D01*
X87973000Y-91023000D01*
X87973000Y-90539250D01*
X88227000Y-90539250D01*
X88227000Y-91023000D01*
X88915750Y-91023000D01*
X88946250Y-90992500D01*
X88989250Y-91035500D01*
X89473000Y-91035500D01*
X89473000Y-90589250D01*
X89727000Y-90589250D01*
X89727000Y-91035500D01*
X90210750Y-91035500D01*
X90306000Y-90940250D01*
X90306000Y-90799214D01*
X90247996Y-90659180D01*
X90140819Y-90552004D01*
X90000785Y-90494000D01*
X89822250Y-90494000D01*
X89727000Y-90589250D01*
X89473000Y-90589250D01*
X89377750Y-90494000D01*
X89199215Y-90494000D01*
X89059181Y-90552004D01*
X88967350Y-90643834D01*
X88952996Y-90609181D01*
X88845820Y-90502004D01*
X88705786Y-90444000D01*
X88322250Y-90444000D01*
X88227000Y-90539250D01*
X87973000Y-90539250D01*
X87877750Y-90444000D01*
X87494214Y-90444000D01*
X87354180Y-90502004D01*
X87247004Y-90609181D01*
X87189000Y-90749215D01*
X86699799Y-90749215D01*
X86693188Y-90715984D01*
X86631436Y-90623564D01*
X86539016Y-90561812D01*
X86430000Y-90540127D01*
X86362767Y-90540127D01*
X86451447Y-90451447D01*
X86528532Y-90336083D01*
X86555600Y-90200000D01*
X86555600Y-90019873D01*
X87100000Y-90019873D01*
X87209016Y-89998188D01*
X87301436Y-89936436D01*
X87363188Y-89844016D01*
X87384873Y-89735000D01*
X87384873Y-88665000D01*
X87363188Y-88555984D01*
X87301436Y-88463564D01*
X87209016Y-88401812D01*
X87100000Y-88380127D01*
X85300000Y-88380127D01*
X85190984Y-88401812D01*
X85098564Y-88463564D01*
X85036812Y-88555984D01*
X85015127Y-88665000D01*
X85015127Y-88717400D01*
X84893600Y-88717400D01*
X84708917Y-88754136D01*
X84552350Y-88858750D01*
X84552348Y-88858753D01*
X84179400Y-89231700D01*
X84179400Y-88825403D01*
X83999847Y-88391923D01*
X83668077Y-88060153D01*
X83234597Y-87880600D01*
X82765403Y-87880600D01*
X82331923Y-88060153D01*
X82000153Y-88391923D01*
X81820600Y-88825403D01*
X81820600Y-89294597D01*
X82000153Y-89728077D01*
X82331923Y-90059847D01*
X82765403Y-90239400D01*
X83234597Y-90239400D01*
X83668077Y-90059847D01*
X83999847Y-89728077D01*
X84017400Y-89685700D01*
X84017400Y-90442414D01*
X84009016Y-90436812D01*
X83900000Y-90415127D01*
X82100000Y-90415127D01*
X81990984Y-90436812D01*
X81898564Y-90498564D01*
X81836812Y-90590984D01*
X81815127Y-90700000D01*
X81815127Y-92159265D01*
X81783137Y-92127275D01*
X81404770Y-91970550D01*
X80995230Y-91970550D01*
X80616863Y-92127275D01*
X80327275Y-92416863D01*
X80170550Y-92795230D01*
X79174870Y-92795230D01*
X79458747Y-92511353D01*
X79535832Y-92395989D01*
X79562900Y-92259906D01*
X79562900Y-91100824D01*
X79791923Y-91329847D01*
X80225403Y-91509400D01*
X80694597Y-91509400D01*
X81128077Y-91329847D01*
X81459847Y-90998077D01*
X81639400Y-90564597D01*
X81639400Y-90095403D01*
X81459847Y-89661923D01*
X81128077Y-89330153D01*
X80694597Y-89150600D01*
X80225403Y-89150600D01*
X79791923Y-89330153D01*
X79562900Y-89559176D01*
X79562900Y-88560824D01*
X79791923Y-88789847D01*
X80225403Y-88969400D01*
X80694597Y-88969400D01*
X81128077Y-88789847D01*
X81459847Y-88458077D01*
X81639400Y-88024597D01*
X81639400Y-87687794D01*
X81705853Y-87754247D01*
X81821217Y-87831332D01*
X81957300Y-87858400D01*
X87493504Y-87858400D01*
X87629096Y-87993992D01*
X87842050Y-88082200D01*
X88072550Y-88082200D01*
X88285504Y-87993992D01*
X88448492Y-87831004D01*
X88536700Y-87618050D01*
X88536700Y-87387550D01*
X88448492Y-87174596D01*
X88285504Y-87011608D01*
X88072550Y-86923400D01*
X87842050Y-86923400D01*
X87629096Y-87011608D01*
X87493504Y-87147200D01*
X83012779Y-87147200D01*
X83036700Y-87089450D01*
X83036700Y-86858950D01*
X82948492Y-86645996D01*
X82900495Y-86597999D01*
X82948492Y-86550001D01*
X83005550Y-86412250D01*
X84919000Y-86412250D01*
X84919000Y-86800786D01*
X84977004Y-86940820D01*
X85084181Y-87047996D01*
X85224215Y-87106000D01*
X85977750Y-87106000D01*
X86073000Y-87010750D01*
X86073000Y-86317000D01*
X86327000Y-86317000D01*
X86327000Y-87010750D01*
X86422250Y-87106000D01*
X87175785Y-87106000D01*
X87315819Y-87047996D01*
X87422996Y-86940820D01*
X87481000Y-86800786D01*
X87481000Y-86412250D01*
X87385750Y-86317000D01*
X86327000Y-86317000D01*
X86073000Y-86317000D01*
X85014250Y-86317000D01*
X84919000Y-86412250D01*
X83005550Y-86412250D01*
X83036700Y-86337047D01*
X83036700Y-86106547D01*
X82948492Y-85893593D01*
X82785504Y-85730605D01*
X82572550Y-85642397D01*
X82376347Y-85642397D01*
X82281789Y-85579214D01*
X84919000Y-85579214D01*
X84919000Y-85967750D01*
X85014250Y-86063000D01*
X86073000Y-86063000D01*
X86073000Y-85369250D01*
X86327000Y-85369250D01*
X86327000Y-86063000D01*
X87385750Y-86063000D01*
X87481000Y-85967750D01*
X87481000Y-85879214D01*
X100819000Y-85879214D01*
X100819000Y-86267750D01*
X100914250Y-86363000D01*
X101973000Y-86363000D01*
X101973000Y-85669250D01*
X102227000Y-85669250D01*
X102227000Y-86363000D01*
X103285750Y-86363000D01*
X103381000Y-86267750D01*
X103381000Y-85879214D01*
X103322996Y-85739180D01*
X103215819Y-85632004D01*
X103075785Y-85574000D01*
X102322250Y-85574000D01*
X102227000Y-85669250D01*
X101973000Y-85669250D01*
X101877750Y-85574000D01*
X101124215Y-85574000D01*
X100984181Y-85632004D01*
X100877004Y-85739180D01*
X100819000Y-85879214D01*
X87481000Y-85879214D01*
X87481000Y-85579214D01*
X87422996Y-85439180D01*
X87315819Y-85332004D01*
X87175785Y-85274000D01*
X86422250Y-85274000D01*
X86327000Y-85369250D01*
X86073000Y-85369250D01*
X85977750Y-85274000D01*
X85224215Y-85274000D01*
X85084181Y-85332004D01*
X84977004Y-85439180D01*
X84919000Y-85579214D01*
X82281789Y-85579214D01*
X82274386Y-85574268D01*
X82138303Y-85547200D01*
X79657300Y-85547200D01*
X79521217Y-85574268D01*
X79405853Y-85651353D01*
X76151042Y-88906164D01*
X76073957Y-89021528D01*
X76056160Y-89111000D01*
X76046889Y-89157611D01*
X76046889Y-92860317D01*
X75728978Y-93178228D01*
X75668050Y-93117300D01*
X75184300Y-93117300D01*
X75184300Y-93137300D01*
X74930300Y-93137300D01*
X74930300Y-93117300D01*
X74446550Y-93117300D01*
X74351300Y-93212550D01*
X74351300Y-93353586D01*
X74409304Y-93493620D01*
X74458073Y-93542389D01*
X74263300Y-93542389D01*
X74263300Y-93225050D01*
X74168050Y-93129800D01*
X73684300Y-93129800D01*
X73684300Y-93149800D01*
X73430300Y-93149800D01*
X73430300Y-93129800D01*
X73410300Y-93129800D01*
X73410300Y-92875800D01*
X73430300Y-92875800D01*
X73430300Y-92187050D01*
X73684300Y-92187050D01*
X73684300Y-92875800D01*
X74168050Y-92875800D01*
X74263300Y-92780550D01*
X74263300Y-92397014D01*
X74205296Y-92256980D01*
X74098119Y-92149804D01*
X73958085Y-92091800D01*
X73779550Y-92091800D01*
X73684300Y-92187050D01*
X73430300Y-92187050D01*
X73335050Y-92091800D01*
X73156515Y-92091800D01*
X73016481Y-92149804D01*
X72927000Y-92239284D01*
X72927000Y-92069401D01*
X74300743Y-92069401D01*
X74447427Y-92216085D01*
X74447427Y-92448857D01*
X74409304Y-92486980D01*
X74351300Y-92627014D01*
X74351300Y-92768050D01*
X74446550Y-92863300D01*
X74930300Y-92863300D01*
X74930300Y-92843300D01*
X75184300Y-92843300D01*
X75184300Y-92863300D01*
X75668050Y-92863300D01*
X75763300Y-92768050D01*
X75763300Y-92627014D01*
X75705296Y-92486980D01*
X75667173Y-92448857D01*
X75667173Y-91927800D01*
X75645488Y-91818784D01*
X75583736Y-91726364D01*
X75491316Y-91664612D01*
X75382300Y-91642927D01*
X75095585Y-91642927D01*
X74784930Y-91332272D01*
X74767466Y-91320603D01*
X74749783Y-91308788D01*
X74785504Y-91293992D01*
X74948492Y-91131004D01*
X75036700Y-90918050D01*
X75036700Y-90687550D01*
X74948492Y-90474596D01*
X74785504Y-90311608D01*
X74572550Y-90223400D01*
X74342050Y-90223400D01*
X74167173Y-90295836D01*
X74167173Y-90272800D01*
X74145488Y-90163784D01*
X74083736Y-90071364D01*
X73991316Y-90009612D01*
X73882300Y-89987927D01*
X73232300Y-89987927D01*
X73123284Y-90009612D01*
X73082300Y-90036996D01*
X73041316Y-90009612D01*
X73039100Y-90009171D01*
X73039100Y-89477085D01*
X73834531Y-89147606D01*
X74447606Y-88534531D01*
X74779400Y-87733510D01*
X74779400Y-86866490D01*
X74447606Y-86065469D01*
X73834531Y-85452394D01*
X73037494Y-85122250D01*
X104719000Y-85122250D01*
X104719000Y-86275786D01*
X104777004Y-86415820D01*
X104884181Y-86522996D01*
X105024215Y-86581000D01*
X105677750Y-86581000D01*
X105773000Y-86485750D01*
X105773000Y-85027000D01*
X106027000Y-85027000D01*
X106027000Y-86485750D01*
X106122250Y-86581000D01*
X106775785Y-86581000D01*
X106915819Y-86522996D01*
X107022996Y-86415820D01*
X107081000Y-86275786D01*
X107081000Y-85122250D01*
X106985750Y-85027000D01*
X106027000Y-85027000D01*
X105773000Y-85027000D01*
X104814250Y-85027000D01*
X104719000Y-85122250D01*
X73037494Y-85122250D01*
X73033510Y-85120600D01*
X72927000Y-85120600D01*
X72927000Y-80329400D01*
X92593224Y-80329400D01*
X92593224Y-84000000D01*
G36*
X167155853Y-88554247D02*
X167271217Y-88631332D01*
X167407300Y-88658400D01*
X176933676Y-88658400D01*
X176760153Y-88831923D01*
X176580600Y-89265403D01*
X176580600Y-89516506D01*
X174426506Y-91670600D01*
X174234750Y-91670600D01*
X174021796Y-91758808D01*
X173858808Y-91921796D01*
X173853070Y-91935649D01*
X173848492Y-91924596D01*
X173685504Y-91761608D01*
X173472550Y-91673400D01*
X173242050Y-91673400D01*
X173029096Y-91761608D01*
X172866108Y-91924596D01*
X172832300Y-92006216D01*
X172798492Y-91924596D01*
X172635504Y-91761608D01*
X172422550Y-91673400D01*
X172192050Y-91673400D01*
X171979096Y-91761608D01*
X171816108Y-91924596D01*
X171727900Y-92137550D01*
X171727900Y-92368050D01*
X171816108Y-92581004D01*
X171979096Y-92743992D01*
X172192050Y-92832200D01*
X172383806Y-92832200D01*
X173203617Y-93652011D01*
X164164581Y-93652011D01*
X164184873Y-93550000D01*
X164184873Y-91750000D01*
X164163188Y-91640984D01*
X164101436Y-91548564D01*
X164009016Y-91486812D01*
X163900000Y-91465127D01*
X163781800Y-91465127D01*
X163781800Y-89384750D01*
X165319000Y-89384750D01*
X165319000Y-89525786D01*
X165377004Y-89665820D01*
X165415127Y-89703943D01*
X165415127Y-90225000D01*
X165436812Y-90334016D01*
X165498564Y-90426436D01*
X165590984Y-90488188D01*
X165700000Y-90509873D01*
X166350000Y-90509873D01*
X166459016Y-90488188D01*
X166551436Y-90426436D01*
X166613188Y-90334016D01*
X166621327Y-90293100D01*
X167430127Y-90293100D01*
X167430127Y-90425000D01*
X167451812Y-90534016D01*
X167513564Y-90626436D01*
X167605984Y-90688188D01*
X167715000Y-90709873D01*
X168385000Y-90709873D01*
X168494016Y-90688188D01*
X168586436Y-90626436D01*
X168648188Y-90534016D01*
X168669873Y-90425000D01*
X168669873Y-89425000D01*
X169180127Y-89425000D01*
X169180127Y-90425000D01*
X169201812Y-90534016D01*
X169263564Y-90626436D01*
X169355984Y-90688188D01*
X169368200Y-90690618D01*
X169368200Y-90862404D01*
X169308808Y-90921796D01*
X169220600Y-91134750D01*
X169220600Y-91365250D01*
X169308808Y-91578204D01*
X169471796Y-91741192D01*
X169684750Y-91829400D01*
X169915250Y-91829400D01*
X170128204Y-91741192D01*
X170291192Y-91578204D01*
X170379400Y-91365250D01*
X170379400Y-91134750D01*
X170291192Y-90921796D01*
X170231800Y-90862404D01*
X170231800Y-90690618D01*
X170244016Y-90688188D01*
X170336436Y-90626436D01*
X170398188Y-90534016D01*
X170419873Y-90425000D01*
X170419873Y-89425000D01*
X170398188Y-89315984D01*
X170336436Y-89223564D01*
X170244016Y-89161812D01*
X170135000Y-89140127D01*
X169465000Y-89140127D01*
X169355984Y-89161812D01*
X169263564Y-89223564D01*
X169201812Y-89315984D01*
X169180127Y-89425000D01*
X168669873Y-89425000D01*
X168648188Y-89315984D01*
X168586436Y-89223564D01*
X168494016Y-89161812D01*
X168385000Y-89140127D01*
X167715000Y-89140127D01*
X167605984Y-89161812D01*
X167513564Y-89223564D01*
X167451812Y-89315984D01*
X167430127Y-89425000D01*
X167430127Y-89581900D01*
X166707757Y-89581900D01*
X166731000Y-89525786D01*
X166731000Y-89384750D01*
X166635750Y-89289500D01*
X166152000Y-89289500D01*
X166152000Y-89309500D01*
X165898000Y-89309500D01*
X165898000Y-89289500D01*
X165414250Y-89289500D01*
X165319000Y-89384750D01*
X163781800Y-89384750D01*
X163781800Y-88799214D01*
X165319000Y-88799214D01*
X165319000Y-88940250D01*
X165414250Y-89035500D01*
X165898000Y-89035500D01*
X165898000Y-88589250D01*
X166152000Y-88589250D01*
X166152000Y-89035500D01*
X166635750Y-89035500D01*
X166731000Y-88940250D01*
X166731000Y-88799214D01*
X166672996Y-88659180D01*
X166565819Y-88552004D01*
X166425785Y-88494000D01*
X166247250Y-88494000D01*
X166152000Y-88589250D01*
X165898000Y-88589250D01*
X165802750Y-88494000D01*
X165624215Y-88494000D01*
X165484181Y-88552004D01*
X165377004Y-88659180D01*
X165319000Y-88799214D01*
X163781800Y-88799214D01*
X163781800Y-87634873D01*
X163900000Y-87634873D01*
X164009016Y-87613188D01*
X164101436Y-87551436D01*
X164163188Y-87459016D01*
X164184873Y-87350000D01*
X164184873Y-85583267D01*
X167155853Y-88554247D01*
X167155853Y-88554247D01*
G37*
X167155853Y-88554247D02*
X167271217Y-88631332D01*
X167407300Y-88658400D01*
X176933676Y-88658400D01*
X176760153Y-88831923D01*
X176580600Y-89265403D01*
X176580600Y-89516506D01*
X174426506Y-91670600D01*
X174234750Y-91670600D01*
X174021796Y-91758808D01*
X173858808Y-91921796D01*
X173853070Y-91935649D01*
X173848492Y-91924596D01*
X173685504Y-91761608D01*
X173472550Y-91673400D01*
X173242050Y-91673400D01*
X173029096Y-91761608D01*
X172866108Y-91924596D01*
X172832300Y-92006216D01*
X172798492Y-91924596D01*
X172635504Y-91761608D01*
X172422550Y-91673400D01*
X172192050Y-91673400D01*
X171979096Y-91761608D01*
X171816108Y-91924596D01*
X171727900Y-92137550D01*
X171727900Y-92368050D01*
X171816108Y-92581004D01*
X171979096Y-92743992D01*
X172192050Y-92832200D01*
X172383806Y-92832200D01*
X173203617Y-93652011D01*
X164164581Y-93652011D01*
X164184873Y-93550000D01*
X164184873Y-91750000D01*
X164163188Y-91640984D01*
X164101436Y-91548564D01*
X164009016Y-91486812D01*
X163900000Y-91465127D01*
X163781800Y-91465127D01*
X163781800Y-89384750D01*
X165319000Y-89384750D01*
X165319000Y-89525786D01*
X165377004Y-89665820D01*
X165415127Y-89703943D01*
X165415127Y-90225000D01*
X165436812Y-90334016D01*
X165498564Y-90426436D01*
X165590984Y-90488188D01*
X165700000Y-90509873D01*
X166350000Y-90509873D01*
X166459016Y-90488188D01*
X166551436Y-90426436D01*
X166613188Y-90334016D01*
X166621327Y-90293100D01*
X167430127Y-90293100D01*
X167430127Y-90425000D01*
X167451812Y-90534016D01*
X167513564Y-90626436D01*
X167605984Y-90688188D01*
X167715000Y-90709873D01*
X168385000Y-90709873D01*
X168494016Y-90688188D01*
X168586436Y-90626436D01*
X168648188Y-90534016D01*
X168669873Y-90425000D01*
X168669873Y-89425000D01*
X169180127Y-89425000D01*
X169180127Y-90425000D01*
X169201812Y-90534016D01*
X169263564Y-90626436D01*
X169355984Y-90688188D01*
X169368200Y-90690618D01*
X169368200Y-90862404D01*
X169308808Y-90921796D01*
X169220600Y-91134750D01*
X169220600Y-91365250D01*
X169308808Y-91578204D01*
X169471796Y-91741192D01*
X169684750Y-91829400D01*
X169915250Y-91829400D01*
X170128204Y-91741192D01*
X170291192Y-91578204D01*
X170379400Y-91365250D01*
X170379400Y-91134750D01*
X170291192Y-90921796D01*
X170231800Y-90862404D01*
X170231800Y-90690618D01*
X170244016Y-90688188D01*
X170336436Y-90626436D01*
X170398188Y-90534016D01*
X170419873Y-90425000D01*
X170419873Y-89425000D01*
X170398188Y-89315984D01*
X170336436Y-89223564D01*
X170244016Y-89161812D01*
X170135000Y-89140127D01*
X169465000Y-89140127D01*
X169355984Y-89161812D01*
X169263564Y-89223564D01*
X169201812Y-89315984D01*
X169180127Y-89425000D01*
X168669873Y-89425000D01*
X168648188Y-89315984D01*
X168586436Y-89223564D01*
X168494016Y-89161812D01*
X168385000Y-89140127D01*
X167715000Y-89140127D01*
X167605984Y-89161812D01*
X167513564Y-89223564D01*
X167451812Y-89315984D01*
X167430127Y-89425000D01*
X167430127Y-89581900D01*
X166707757Y-89581900D01*
X166731000Y-89525786D01*
X166731000Y-89384750D01*
X166635750Y-89289500D01*
X166152000Y-89289500D01*
X166152000Y-89309500D01*
X165898000Y-89309500D01*
X165898000Y-89289500D01*
X165414250Y-89289500D01*
X165319000Y-89384750D01*
X163781800Y-89384750D01*
X163781800Y-88799214D01*
X165319000Y-88799214D01*
X165319000Y-88940250D01*
X165414250Y-89035500D01*
X165898000Y-89035500D01*
X165898000Y-88589250D01*
X166152000Y-88589250D01*
X166152000Y-89035500D01*
X166635750Y-89035500D01*
X166731000Y-88940250D01*
X166731000Y-88799214D01*
X166672996Y-88659180D01*
X166565819Y-88552004D01*
X166425785Y-88494000D01*
X166247250Y-88494000D01*
X166152000Y-88589250D01*
X165898000Y-88589250D01*
X165802750Y-88494000D01*
X165624215Y-88494000D01*
X165484181Y-88552004D01*
X165377004Y-88659180D01*
X165319000Y-88799214D01*
X163781800Y-88799214D01*
X163781800Y-87634873D01*
X163900000Y-87634873D01*
X164009016Y-87613188D01*
X164101436Y-87551436D01*
X164163188Y-87459016D01*
X164184873Y-87350000D01*
X164184873Y-85583267D01*
X167155853Y-88554247D01*
G36*
X72373000Y-85120600D02*
X72166490Y-85120600D01*
X71365469Y-85452394D01*
X70752394Y-86065469D01*
X70420600Y-86866490D01*
X70420600Y-87733510D01*
X70752394Y-88534531D01*
X71365469Y-89147606D01*
X72166490Y-89479400D01*
X72175500Y-89479400D01*
X72175500Y-89940435D01*
X72058085Y-89891800D01*
X71879550Y-89891800D01*
X71784300Y-89987050D01*
X71784300Y-90675800D01*
X71804300Y-90675800D01*
X71804300Y-90929800D01*
X71784300Y-90929800D01*
X71784300Y-91618550D01*
X71879550Y-91713800D01*
X72058085Y-91713800D01*
X72180566Y-91663067D01*
X72208370Y-91802844D01*
X72301972Y-91942930D01*
X72373000Y-91990389D01*
X72373000Y-92571000D01*
X72267173Y-92571000D01*
X72267173Y-92472800D01*
X72245488Y-92363784D01*
X72183736Y-92271364D01*
X72091316Y-92209612D01*
X71982300Y-92187927D01*
X71332300Y-92187927D01*
X71223284Y-92209612D01*
X71130864Y-92271364D01*
X71069112Y-92363784D01*
X71047427Y-92472800D01*
X71047427Y-93532800D01*
X71049334Y-93542389D01*
X58819883Y-93542389D01*
X58683367Y-93405873D01*
X58723000Y-93405873D01*
X58832016Y-93384188D01*
X58924436Y-93322436D01*
X58986188Y-93230016D01*
X59007873Y-93121000D01*
X59007873Y-92256158D01*
X59093600Y-92256158D01*
X59093600Y-92635842D01*
X59238899Y-92986624D01*
X59507376Y-93255101D01*
X59858158Y-93400400D01*
X60237842Y-93400400D01*
X60588624Y-93255101D01*
X60857101Y-92986624D01*
X61002400Y-92635842D01*
X61002400Y-92256158D01*
X61093600Y-92256158D01*
X61093600Y-92635842D01*
X61238899Y-92986624D01*
X61507376Y-93255101D01*
X61858158Y-93400400D01*
X62237842Y-93400400D01*
X62588624Y-93255101D01*
X62857101Y-92986624D01*
X63002400Y-92635842D01*
X63002400Y-92256158D01*
X63093600Y-92256158D01*
X63093600Y-92635842D01*
X63238899Y-92986624D01*
X63507376Y-93255101D01*
X63858158Y-93400400D01*
X64237842Y-93400400D01*
X64588624Y-93255101D01*
X64857101Y-92986624D01*
X65002400Y-92635842D01*
X65002400Y-92256158D01*
X65093600Y-92256158D01*
X65093600Y-92635842D01*
X65238899Y-92986624D01*
X65507376Y-93255101D01*
X65858158Y-93400400D01*
X66237842Y-93400400D01*
X66588624Y-93255101D01*
X66857101Y-92986624D01*
X67002400Y-92635842D01*
X67002400Y-92256158D01*
X66857101Y-91905376D01*
X66588624Y-91636899D01*
X66237842Y-91491600D01*
X66221160Y-91491600D01*
X66340693Y-91482142D01*
X66573699Y-91385628D01*
X66646344Y-91223949D01*
X66048000Y-90625605D01*
X65449656Y-91223949D01*
X65522301Y-91385628D01*
X65854099Y-91493281D01*
X65507376Y-91636899D01*
X65238899Y-91905376D01*
X65093600Y-92256158D01*
X65002400Y-92256158D01*
X64857101Y-91905376D01*
X64588624Y-91636899D01*
X64237842Y-91491600D01*
X64221160Y-91491600D01*
X64340693Y-91482142D01*
X64573699Y-91385628D01*
X64646344Y-91223949D01*
X64048000Y-90625605D01*
X63449656Y-91223949D01*
X63522301Y-91385628D01*
X63854099Y-91493281D01*
X63507376Y-91636899D01*
X63238899Y-91905376D01*
X63093600Y-92256158D01*
X63002400Y-92256158D01*
X62857101Y-91905376D01*
X62588624Y-91636899D01*
X62237842Y-91491600D01*
X62221160Y-91491600D01*
X62340693Y-91482142D01*
X62573699Y-91385628D01*
X62646344Y-91223949D01*
X62048000Y-90625605D01*
X61449656Y-91223949D01*
X61522301Y-91385628D01*
X61854099Y-91493281D01*
X61507376Y-91636899D01*
X61238899Y-91905376D01*
X61093600Y-92256158D01*
X61002400Y-92256158D01*
X60857101Y-91905376D01*
X60588624Y-91636899D01*
X60237842Y-91491600D01*
X60221160Y-91491600D01*
X60340693Y-91482142D01*
X60573699Y-91385628D01*
X60646344Y-91223949D01*
X60048000Y-90625605D01*
X59449656Y-91223949D01*
X59522301Y-91385628D01*
X59854099Y-91493281D01*
X59507376Y-91636899D01*
X59238899Y-91905376D01*
X59093600Y-92256158D01*
X59007873Y-92256158D01*
X59007873Y-91771000D01*
X58986188Y-91661984D01*
X58924436Y-91569564D01*
X58832016Y-91507812D01*
X58723000Y-91486127D01*
X57510767Y-91486127D01*
X57673134Y-91323760D01*
X57858158Y-91400400D01*
X58237842Y-91400400D01*
X58588624Y-91255101D01*
X58857101Y-90986624D01*
X59002400Y-90635842D01*
X59002400Y-90619160D01*
X59011858Y-90738693D01*
X59108372Y-90971699D01*
X59270051Y-91044344D01*
X59868395Y-90446000D01*
X60227605Y-90446000D01*
X60825949Y-91044344D01*
X60987628Y-90971699D01*
X61040664Y-90808237D01*
X61108372Y-90971699D01*
X61270051Y-91044344D01*
X61868395Y-90446000D01*
X62227605Y-90446000D01*
X62825949Y-91044344D01*
X62987628Y-90971699D01*
X63040664Y-90808237D01*
X63108372Y-90971699D01*
X63270051Y-91044344D01*
X63868395Y-90446000D01*
X64227605Y-90446000D01*
X64825949Y-91044344D01*
X64987628Y-90971699D01*
X65040664Y-90808237D01*
X65108372Y-90971699D01*
X65270051Y-91044344D01*
X65868395Y-90446000D01*
X66227605Y-90446000D01*
X66825949Y-91044344D01*
X66868889Y-91025050D01*
X70951300Y-91025050D01*
X70951300Y-91408586D01*
X71009304Y-91548620D01*
X71116481Y-91655796D01*
X71256515Y-91713800D01*
X71435050Y-91713800D01*
X71530300Y-91618550D01*
X71530300Y-90929800D01*
X71046550Y-90929800D01*
X70951300Y-91025050D01*
X66868889Y-91025050D01*
X66987628Y-90971699D01*
X67117279Y-90572102D01*
X67087601Y-90197014D01*
X70951300Y-90197014D01*
X70951300Y-90580550D01*
X71046550Y-90675800D01*
X71530300Y-90675800D01*
X71530300Y-89987050D01*
X71435050Y-89891800D01*
X71256515Y-89891800D01*
X71116481Y-89949804D01*
X71009304Y-90056980D01*
X70951300Y-90197014D01*
X67087601Y-90197014D01*
X67084142Y-90153307D01*
X66987628Y-89920301D01*
X66825949Y-89847656D01*
X66227605Y-90446000D01*
X65868395Y-90446000D01*
X65270051Y-89847656D01*
X65108372Y-89920301D01*
X65055336Y-90083763D01*
X64987628Y-89920301D01*
X64825949Y-89847656D01*
X64227605Y-90446000D01*
X63868395Y-90446000D01*
X63270051Y-89847656D01*
X63108372Y-89920301D01*
X63055336Y-90083763D01*
X62987628Y-89920301D01*
X62825949Y-89847656D01*
X62227605Y-90446000D01*
X61868395Y-90446000D01*
X61270051Y-89847656D01*
X61108372Y-89920301D01*
X61055336Y-90083763D01*
X60987628Y-89920301D01*
X60825949Y-89847656D01*
X60227605Y-90446000D01*
X59868395Y-90446000D01*
X59270051Y-89847656D01*
X59108372Y-89920301D01*
X59000719Y-90252099D01*
X58857101Y-89905376D01*
X58619776Y-89668051D01*
X59449656Y-89668051D01*
X60048000Y-90266395D01*
X60646344Y-89668051D01*
X61449656Y-89668051D01*
X62048000Y-90266395D01*
X62646344Y-89668051D01*
X63449656Y-89668051D01*
X64048000Y-90266395D01*
X64646344Y-89668051D01*
X65449656Y-89668051D01*
X66048000Y-90266395D01*
X66646344Y-89668051D01*
X66573699Y-89506372D01*
X66174102Y-89376721D01*
X65755307Y-89409858D01*
X65522301Y-89506372D01*
X65449656Y-89668051D01*
X64646344Y-89668051D01*
X64573699Y-89506372D01*
X64174102Y-89376721D01*
X63755307Y-89409858D01*
X63522301Y-89506372D01*
X63449656Y-89668051D01*
X62646344Y-89668051D01*
X62573699Y-89506372D01*
X62174102Y-89376721D01*
X61755307Y-89409858D01*
X61522301Y-89506372D01*
X61449656Y-89668051D01*
X60646344Y-89668051D01*
X60573699Y-89506372D01*
X60174102Y-89376721D01*
X59755307Y-89409858D01*
X59522301Y-89506372D01*
X59449656Y-89668051D01*
X58619776Y-89668051D01*
X58588624Y-89636899D01*
X58237842Y-89491600D01*
X57858158Y-89491600D01*
X57507376Y-89636899D01*
X57238899Y-89905376D01*
X57093600Y-90256158D01*
X57093600Y-90635842D01*
X57170240Y-90820866D01*
X56855853Y-91135253D01*
X56778768Y-91250617D01*
X56778768Y-91250618D01*
X56751700Y-91386700D01*
X56751700Y-93266782D01*
X56778768Y-93402865D01*
X56855853Y-93518229D01*
X57608224Y-94270600D01*
X55329400Y-94270600D01*
X55329400Y-80329400D01*
X72373000Y-80329400D01*
X72373000Y-85120600D01*
X72373000Y-85120600D01*
G37*
X72373000Y-85120600D02*
X72166490Y-85120600D01*
X71365469Y-85452394D01*
X70752394Y-86065469D01*
X70420600Y-86866490D01*
X70420600Y-87733510D01*
X70752394Y-88534531D01*
X71365469Y-89147606D01*
X72166490Y-89479400D01*
X72175500Y-89479400D01*
X72175500Y-89940435D01*
X72058085Y-89891800D01*
X71879550Y-89891800D01*
X71784300Y-89987050D01*
X71784300Y-90675800D01*
X71804300Y-90675800D01*
X71804300Y-90929800D01*
X71784300Y-90929800D01*
X71784300Y-91618550D01*
X71879550Y-91713800D01*
X72058085Y-91713800D01*
X72180566Y-91663067D01*
X72208370Y-91802844D01*
X72301972Y-91942930D01*
X72373000Y-91990389D01*
X72373000Y-92571000D01*
X72267173Y-92571000D01*
X72267173Y-92472800D01*
X72245488Y-92363784D01*
X72183736Y-92271364D01*
X72091316Y-92209612D01*
X71982300Y-92187927D01*
X71332300Y-92187927D01*
X71223284Y-92209612D01*
X71130864Y-92271364D01*
X71069112Y-92363784D01*
X71047427Y-92472800D01*
X71047427Y-93532800D01*
X71049334Y-93542389D01*
X58819883Y-93542389D01*
X58683367Y-93405873D01*
X58723000Y-93405873D01*
X58832016Y-93384188D01*
X58924436Y-93322436D01*
X58986188Y-93230016D01*
X59007873Y-93121000D01*
X59007873Y-92256158D01*
X59093600Y-92256158D01*
X59093600Y-92635842D01*
X59238899Y-92986624D01*
X59507376Y-93255101D01*
X59858158Y-93400400D01*
X60237842Y-93400400D01*
X60588624Y-93255101D01*
X60857101Y-92986624D01*
X61002400Y-92635842D01*
X61002400Y-92256158D01*
X61093600Y-92256158D01*
X61093600Y-92635842D01*
X61238899Y-92986624D01*
X61507376Y-93255101D01*
X61858158Y-93400400D01*
X62237842Y-93400400D01*
X62588624Y-93255101D01*
X62857101Y-92986624D01*
X63002400Y-92635842D01*
X63002400Y-92256158D01*
X63093600Y-92256158D01*
X63093600Y-92635842D01*
X63238899Y-92986624D01*
X63507376Y-93255101D01*
X63858158Y-93400400D01*
X64237842Y-93400400D01*
X64588624Y-93255101D01*
X64857101Y-92986624D01*
X65002400Y-92635842D01*
X65002400Y-92256158D01*
X65093600Y-92256158D01*
X65093600Y-92635842D01*
X65238899Y-92986624D01*
X65507376Y-93255101D01*
X65858158Y-93400400D01*
X66237842Y-93400400D01*
X66588624Y-93255101D01*
X66857101Y-92986624D01*
X67002400Y-92635842D01*
X67002400Y-92256158D01*
X66857101Y-91905376D01*
X66588624Y-91636899D01*
X66237842Y-91491600D01*
X66221160Y-91491600D01*
X66340693Y-91482142D01*
X66573699Y-91385628D01*
X66646344Y-91223949D01*
X66048000Y-90625605D01*
X65449656Y-91223949D01*
X65522301Y-91385628D01*
X65854099Y-91493281D01*
X65507376Y-91636899D01*
X65238899Y-91905376D01*
X65093600Y-92256158D01*
X65002400Y-92256158D01*
X64857101Y-91905376D01*
X64588624Y-91636899D01*
X64237842Y-91491600D01*
X64221160Y-91491600D01*
X64340693Y-91482142D01*
X64573699Y-91385628D01*
X64646344Y-91223949D01*
X64048000Y-90625605D01*
X63449656Y-91223949D01*
X63522301Y-91385628D01*
X63854099Y-91493281D01*
X63507376Y-91636899D01*
X63238899Y-91905376D01*
X63093600Y-92256158D01*
X63002400Y-92256158D01*
X62857101Y-91905376D01*
X62588624Y-91636899D01*
X62237842Y-91491600D01*
X62221160Y-91491600D01*
X62340693Y-91482142D01*
X62573699Y-91385628D01*
X62646344Y-91223949D01*
X62048000Y-90625605D01*
X61449656Y-91223949D01*
X61522301Y-91385628D01*
X61854099Y-91493281D01*
X61507376Y-91636899D01*
X61238899Y-91905376D01*
X61093600Y-92256158D01*
X61002400Y-92256158D01*
X60857101Y-91905376D01*
X60588624Y-91636899D01*
X60237842Y-91491600D01*
X60221160Y-91491600D01*
X60340693Y-91482142D01*
X60573699Y-91385628D01*
X60646344Y-91223949D01*
X60048000Y-90625605D01*
X59449656Y-91223949D01*
X59522301Y-91385628D01*
X59854099Y-91493281D01*
X59507376Y-91636899D01*
X59238899Y-91905376D01*
X59093600Y-92256158D01*
X59007873Y-92256158D01*
X59007873Y-91771000D01*
X58986188Y-91661984D01*
X58924436Y-91569564D01*
X58832016Y-91507812D01*
X58723000Y-91486127D01*
X57510767Y-91486127D01*
X57673134Y-91323760D01*
X57858158Y-91400400D01*
X58237842Y-91400400D01*
X58588624Y-91255101D01*
X58857101Y-90986624D01*
X59002400Y-90635842D01*
X59002400Y-90619160D01*
X59011858Y-90738693D01*
X59108372Y-90971699D01*
X59270051Y-91044344D01*
X59868395Y-90446000D01*
X60227605Y-90446000D01*
X60825949Y-91044344D01*
X60987628Y-90971699D01*
X61040664Y-90808237D01*
X61108372Y-90971699D01*
X61270051Y-91044344D01*
X61868395Y-90446000D01*
X62227605Y-90446000D01*
X62825949Y-91044344D01*
X62987628Y-90971699D01*
X63040664Y-90808237D01*
X63108372Y-90971699D01*
X63270051Y-91044344D01*
X63868395Y-90446000D01*
X64227605Y-90446000D01*
X64825949Y-91044344D01*
X64987628Y-90971699D01*
X65040664Y-90808237D01*
X65108372Y-90971699D01*
X65270051Y-91044344D01*
X65868395Y-90446000D01*
X66227605Y-90446000D01*
X66825949Y-91044344D01*
X66868889Y-91025050D01*
X70951300Y-91025050D01*
X70951300Y-91408586D01*
X71009304Y-91548620D01*
X71116481Y-91655796D01*
X71256515Y-91713800D01*
X71435050Y-91713800D01*
X71530300Y-91618550D01*
X71530300Y-90929800D01*
X71046550Y-90929800D01*
X70951300Y-91025050D01*
X66868889Y-91025050D01*
X66987628Y-90971699D01*
X67117279Y-90572102D01*
X67087601Y-90197014D01*
X70951300Y-90197014D01*
X70951300Y-90580550D01*
X71046550Y-90675800D01*
X71530300Y-90675800D01*
X71530300Y-89987050D01*
X71435050Y-89891800D01*
X71256515Y-89891800D01*
X71116481Y-89949804D01*
X71009304Y-90056980D01*
X70951300Y-90197014D01*
X67087601Y-90197014D01*
X67084142Y-90153307D01*
X66987628Y-89920301D01*
X66825949Y-89847656D01*
X66227605Y-90446000D01*
X65868395Y-90446000D01*
X65270051Y-89847656D01*
X65108372Y-89920301D01*
X65055336Y-90083763D01*
X64987628Y-89920301D01*
X64825949Y-89847656D01*
X64227605Y-90446000D01*
X63868395Y-90446000D01*
X63270051Y-89847656D01*
X63108372Y-89920301D01*
X63055336Y-90083763D01*
X62987628Y-89920301D01*
X62825949Y-89847656D01*
X62227605Y-90446000D01*
X61868395Y-90446000D01*
X61270051Y-89847656D01*
X61108372Y-89920301D01*
X61055336Y-90083763D01*
X60987628Y-89920301D01*
X60825949Y-89847656D01*
X60227605Y-90446000D01*
X59868395Y-90446000D01*
X59270051Y-89847656D01*
X59108372Y-89920301D01*
X59000719Y-90252099D01*
X58857101Y-89905376D01*
X58619776Y-89668051D01*
X59449656Y-89668051D01*
X60048000Y-90266395D01*
X60646344Y-89668051D01*
X61449656Y-89668051D01*
X62048000Y-90266395D01*
X62646344Y-89668051D01*
X63449656Y-89668051D01*
X64048000Y-90266395D01*
X64646344Y-89668051D01*
X65449656Y-89668051D01*
X66048000Y-90266395D01*
X66646344Y-89668051D01*
X66573699Y-89506372D01*
X66174102Y-89376721D01*
X65755307Y-89409858D01*
X65522301Y-89506372D01*
X65449656Y-89668051D01*
X64646344Y-89668051D01*
X64573699Y-89506372D01*
X64174102Y-89376721D01*
X63755307Y-89409858D01*
X63522301Y-89506372D01*
X63449656Y-89668051D01*
X62646344Y-89668051D01*
X62573699Y-89506372D01*
X62174102Y-89376721D01*
X61755307Y-89409858D01*
X61522301Y-89506372D01*
X61449656Y-89668051D01*
X60646344Y-89668051D01*
X60573699Y-89506372D01*
X60174102Y-89376721D01*
X59755307Y-89409858D01*
X59522301Y-89506372D01*
X59449656Y-89668051D01*
X58619776Y-89668051D01*
X58588624Y-89636899D01*
X58237842Y-89491600D01*
X57858158Y-89491600D01*
X57507376Y-89636899D01*
X57238899Y-89905376D01*
X57093600Y-90256158D01*
X57093600Y-90635842D01*
X57170240Y-90820866D01*
X56855853Y-91135253D01*
X56778768Y-91250617D01*
X56778768Y-91250618D01*
X56751700Y-91386700D01*
X56751700Y-93266782D01*
X56778768Y-93402865D01*
X56855853Y-93518229D01*
X57608224Y-94270600D01*
X55329400Y-94270600D01*
X55329400Y-80329400D01*
X72373000Y-80329400D01*
X72373000Y-85120600D01*
M02*
