%TF.GenerationSoftware,KiCad,Pcbnew,(2018-01-21 revision 6b9866de8)-makepkg*%
%TF.CreationDate,2018-04-10T13:45:23+02:00*%
%TF.ProjectId,Arm_interface_board_mirrored,41726D5F696E746572666163655F626F,rev?*%
%TF.SameCoordinates,Original*%
%TF.FileFunction,Profile,NP*%
%FSLAX46Y46*%
G04 Gerber Fmt 4.6, Leading zero omitted, Abs format (unit mm)*
G04 Created by KiCad (PCBNEW (2018-01-21 revision 6b9866de8)-makepkg) date 04/10/18 13:45:23*
%MOMM*%
%LPD*%
G01*
G04 APERTURE LIST*
%ADD10C,0.100000*%
G04 APERTURE END LIST*
D10*
X235800000Y-87300000D02*
G75*
G03X235800000Y-87300000I-1200000J0D01*
G01*
X92922624Y-90600000D02*
X94922624Y-90600000D01*
X92922624Y-94600000D02*
X92922624Y-90600000D01*
X55000000Y-94600000D02*
X92922624Y-94600000D01*
X55000000Y-80000000D02*
X55000000Y-94600000D01*
X244600000Y-80000000D02*
X55000000Y-80000000D01*
X244600000Y-94600000D02*
X244600000Y-80000000D01*
X217922624Y-94600000D02*
X244600000Y-94600000D01*
X217922624Y-90600000D02*
X217922624Y-94600000D01*
X215922624Y-90600000D02*
X217922624Y-90600000D01*
X215922624Y-94600000D02*
X215922624Y-90600000D01*
X176922624Y-94600000D02*
X215922624Y-94600000D01*
X176922624Y-90600000D02*
X176922624Y-94600000D01*
X174922624Y-90600000D02*
X176922624Y-90600000D01*
X174922624Y-94600000D02*
X174922624Y-90600000D01*
X135922624Y-94600000D02*
X174922624Y-94600000D01*
X135922624Y-90600000D02*
X135922624Y-94600000D01*
X133922624Y-90600000D02*
X135922624Y-90600000D01*
X133922624Y-94600000D02*
X133922624Y-90600000D01*
X94922624Y-94600000D02*
X133922624Y-94600000D01*
X94922624Y-90600000D02*
X94922624Y-94600000D01*
X154800000Y-87300000D02*
G75*
G03X154800000Y-87300000I-1200000J0D01*
G01*
X73800000Y-87300000D02*
G75*
G03X73800000Y-87300000I-1200000J0D01*
G01*
M02*
