G04 #@! TF.GenerationSoftware,KiCad,Pcbnew,(2018-01-21 revision 6b9866de8)-makepkg*
G04 #@! TF.CreationDate,2018-04-07T17:45:11+02:00*
G04 #@! TF.ProjectId,Arm_interface_board_mirrored,41726D5F696E746572666163655F626F,rev?*
G04 #@! TF.SameCoordinates,Original*
G04 #@! TF.FileFunction,Copper,L2,Bot,Signal*
G04 #@! TF.FilePolarity,Positive*
%FSLAX46Y46*%
G04 Gerber Fmt 4.6, Leading zero omitted, Abs format (unit mm)*
G04 Created by KiCad (PCBNEW (2018-01-21 revision 6b9866de8)-makepkg) date 04/07/18 17:45:11*
%MOMM*%
%LPD*%
G01*
G04 APERTURE LIST*
%ADD10C,3.800000*%
%ADD11C,1.800000*%
%ADD12R,1.800000X1.800000*%
%ADD13R,1.700000X1.700000*%
%ADD14O,1.700000X1.700000*%
%ADD15C,1.350000*%
%ADD16R,1.350000X1.350000*%
%ADD17R,1.000000X1.000000*%
%ADD18O,1.000000X1.000000*%
%ADD19C,0.600000*%
%ADD20C,0.304800*%
%ADD21C,0.254000*%
%ADD22C,0.152400*%
G04 APERTURE END LIST*
D10*
X234600000Y-87300000D03*
X153600000Y-87300000D03*
X72600000Y-87300000D03*
D11*
X176490000Y-92040000D03*
X177760000Y-89500000D03*
X179030000Y-92040000D03*
D12*
X180300000Y-89500000D03*
D13*
X196900000Y-89400000D03*
D14*
X196900000Y-86860000D03*
X199440000Y-89400000D03*
X199440000Y-86860000D03*
X201980000Y-89400000D03*
X201980000Y-86860000D03*
D12*
X139300000Y-89500000D03*
D11*
X138030000Y-92040000D03*
X136760000Y-89500000D03*
X135490000Y-92040000D03*
D15*
X66048000Y-90446000D03*
X64048000Y-90446000D03*
X62048000Y-90446000D03*
X60048000Y-90446000D03*
X58048000Y-90446000D03*
X66048000Y-92446000D03*
X64048000Y-92446000D03*
X62048000Y-92446000D03*
X60048000Y-92446000D03*
D16*
X58048000Y-92446000D03*
D12*
X83000000Y-91600000D03*
D11*
X80460000Y-90330000D03*
X83000000Y-89060000D03*
X80460000Y-87790000D03*
X94490000Y-92040000D03*
X95760000Y-89500000D03*
X97030000Y-92040000D03*
D12*
X98300000Y-89500000D03*
X221300000Y-89500000D03*
D11*
X220030000Y-92040000D03*
X218760000Y-89500000D03*
X217490000Y-92040000D03*
D17*
X241400000Y-82855000D03*
D18*
X242670000Y-82855000D03*
X241400000Y-84125000D03*
X242670000Y-84125000D03*
X241400000Y-85395000D03*
X242670000Y-85395000D03*
X241400000Y-86665000D03*
X242670000Y-86665000D03*
X241400000Y-87935000D03*
X242670000Y-87935000D03*
X241400000Y-89205000D03*
X242670000Y-89205000D03*
X241400000Y-90475000D03*
X242670000Y-90475000D03*
X241400000Y-91745000D03*
X242670000Y-91745000D03*
D19*
X131125000Y-91375000D03*
X129093766Y-91366334D03*
X165650000Y-85625000D03*
X165325000Y-87150000D03*
X118575000Y-89500000D03*
X122025000Y-89400000D03*
X169800000Y-91250000D03*
X228500000Y-92883822D03*
X72600000Y-88850000D03*
X71050000Y-87300000D03*
X72600000Y-85750000D03*
X74150000Y-87300000D03*
X153600000Y-88850000D03*
X152050000Y-87300000D03*
X153600000Y-85750000D03*
X155150000Y-87300000D03*
X234600000Y-88850000D03*
X234600000Y-85750000D03*
X233050000Y-87300000D03*
X236150000Y-87300000D03*
X187200000Y-84900000D03*
X238600000Y-85600000D03*
X209950000Y-85050000D03*
X209200000Y-85050000D03*
X152627296Y-90362800D03*
X154567300Y-90372800D03*
X153597300Y-90372800D03*
X116200000Y-89487500D03*
X90550000Y-91700000D03*
X104734800Y-92200000D03*
X105907300Y-89402800D03*
X106757292Y-89402800D03*
X105057300Y-89402800D03*
X115300000Y-89500000D03*
X239300000Y-86700000D03*
X237600000Y-93800000D03*
X130063716Y-92336284D03*
X116237500Y-90450000D03*
X117200000Y-93900000D03*
X122484560Y-91951096D03*
X129074988Y-86528622D03*
X235500004Y-90900000D03*
X127900000Y-85446400D03*
X120900000Y-85671400D03*
X119375008Y-89325000D03*
X121024998Y-88850000D03*
X238937667Y-91683400D03*
X124099997Y-91900003D03*
X240882166Y-93371400D03*
X238850000Y-93950002D03*
X120902411Y-92099054D03*
X239500000Y-82250000D03*
X234840740Y-91740740D03*
X119098721Y-90767331D03*
X146344356Y-85655414D03*
X134457300Y-88828610D03*
X211450000Y-88775000D03*
X206950000Y-88775000D03*
X234300000Y-92274165D03*
X119775000Y-87975000D03*
X146357292Y-86407714D03*
X133657300Y-88828610D03*
X211450000Y-89550000D03*
X206950000Y-89550000D03*
X77290721Y-90802800D03*
X74457300Y-90802800D03*
X87957300Y-87502800D03*
X124957292Y-87902800D03*
X206950000Y-91100000D03*
X211450000Y-91100000D03*
X237107300Y-90652800D03*
X82457300Y-86221797D03*
X123300000Y-87500000D03*
X203757301Y-89452800D03*
X237957800Y-90649198D03*
X214807300Y-92552800D03*
X82457300Y-86974200D03*
X122500000Y-87749992D03*
X227900000Y-85450000D03*
X237250000Y-85600000D03*
X213850000Y-85400000D03*
X158750000Y-89000000D03*
X150981266Y-89828834D03*
X192900000Y-87900000D03*
X130926223Y-88923777D03*
X121700000Y-87978593D03*
X221900004Y-86050000D03*
X199457300Y-93502800D03*
X201083516Y-93176584D03*
X124852347Y-91909890D03*
X118350000Y-85350000D03*
X211450000Y-90325000D03*
X206950000Y-90325000D03*
X206950000Y-88000000D03*
X211450000Y-88000000D03*
X145350000Y-86450000D03*
X206950000Y-87225000D03*
X211450000Y-87225000D03*
X111950000Y-85997335D03*
X238653834Y-87503834D03*
X198657302Y-93502800D03*
X239015011Y-90599505D03*
X188257300Y-92552800D03*
X172307300Y-92252800D03*
X145107298Y-92552800D03*
X134057300Y-90202800D03*
X118507300Y-92702800D03*
X99470394Y-87087274D03*
X124950000Y-87100000D03*
X123257300Y-91902792D03*
X102000000Y-88300000D03*
X126357300Y-85743043D03*
X112850000Y-85997335D03*
X106257300Y-91202800D03*
X112847971Y-89264822D03*
X117350000Y-85350000D03*
X144257288Y-92752800D03*
X135007300Y-90202800D03*
X119299992Y-91900000D03*
X174350000Y-92250000D03*
X149207300Y-87052800D03*
X124102411Y-87500049D03*
X202606077Y-93188633D03*
X197197823Y-92264723D03*
X120100000Y-91899998D03*
X127600000Y-93061778D03*
X187107300Y-92852800D03*
X173357300Y-92252800D03*
X229887726Y-92080794D03*
X226700000Y-88950000D03*
X200257300Y-93502800D03*
X146007300Y-92552800D03*
X234250000Y-91199998D03*
X229300000Y-87772554D03*
X230521390Y-90278610D03*
D20*
X129093766Y-91366334D02*
X131116334Y-91366334D01*
X131116334Y-91366334D02*
X131125000Y-91375000D01*
X165325000Y-85950000D02*
X165650000Y-85625000D01*
X165325000Y-87150000D02*
X165325000Y-85950000D01*
X122025000Y-89400000D02*
X121150000Y-90275000D01*
X121150000Y-90275000D02*
X119450000Y-90275000D01*
X119450000Y-90275000D02*
X118675000Y-89500000D01*
X118675000Y-89500000D02*
X118575000Y-89500000D01*
X153597300Y-90372800D02*
X152637296Y-90372800D01*
X152637296Y-90372800D02*
X152627296Y-90362800D01*
X154021564Y-90372800D02*
X154567300Y-90372800D01*
X153597300Y-90372800D02*
X154021564Y-90372800D01*
D21*
X236600000Y-84950000D02*
X228400000Y-84950000D01*
X237250000Y-85600000D02*
X236600000Y-84950000D01*
X228400000Y-84950000D02*
X228199999Y-85150001D01*
X228199999Y-85150001D02*
X227900000Y-85450000D01*
D22*
X130926223Y-88499513D02*
X131125736Y-88300000D01*
X130926223Y-88923777D02*
X130926223Y-88499513D01*
X131125736Y-88300000D02*
X149452432Y-88300000D01*
X149452432Y-88300000D02*
X150681267Y-89528835D01*
X150681267Y-89528835D02*
X150981266Y-89828834D01*
X121999999Y-88278592D02*
X122116991Y-88278592D01*
X130626224Y-89223776D02*
X130926223Y-88923777D01*
X121700000Y-87978593D02*
X121999999Y-88278592D01*
X122116991Y-88278592D02*
X123231577Y-89393178D01*
X130456822Y-89393178D02*
X130626224Y-89223776D01*
X123231577Y-89393178D02*
X130456822Y-89393178D01*
X238710100Y-86700000D02*
X238875736Y-86700000D01*
X238875736Y-86700000D02*
X239300000Y-86700000D01*
X233683556Y-89797990D02*
X235612110Y-89797990D01*
X229935566Y-86050000D02*
X233683556Y-89797990D01*
X235612110Y-89797990D02*
X238710100Y-86700000D01*
X221900004Y-86050000D02*
X229935566Y-86050000D01*
X237899999Y-93500001D02*
X237600000Y-93800000D01*
X241400000Y-87935000D02*
X240100000Y-89235000D01*
X240100000Y-91300000D02*
X237899999Y-93500001D01*
X240100000Y-89235000D02*
X240100000Y-91300000D01*
X130363715Y-92636283D02*
X130063716Y-92336284D01*
X197654832Y-93417402D02*
X131144834Y-93417402D01*
X131144834Y-93417402D02*
X130363715Y-92636283D01*
X198105001Y-92967233D02*
X197654832Y-93417402D01*
X198921733Y-92967233D02*
X198105001Y-92967233D01*
X199457300Y-93502800D02*
X198921733Y-92967233D01*
X239700000Y-88100000D02*
X240404809Y-87395191D01*
X239700000Y-90696846D02*
X239700000Y-88100000D01*
X239264060Y-91132786D02*
X239700000Y-90696846D01*
X238740713Y-91132786D02*
X239264060Y-91132786D01*
X201507300Y-94027024D02*
X235846475Y-94027024D01*
X235846475Y-94027024D02*
X238740713Y-91132786D01*
X240404809Y-87395191D02*
X240404810Y-87026256D01*
X240404810Y-87026256D02*
X240404810Y-85595190D01*
X240404810Y-85595190D02*
X240605000Y-85395000D01*
X240605000Y-85395000D02*
X241400000Y-85395000D01*
X117200000Y-93900000D02*
X117200000Y-92834521D01*
X117200000Y-92834521D02*
X116237500Y-91872021D01*
X116237500Y-91872021D02*
X116237500Y-90450000D01*
X118507300Y-92702800D02*
X118507300Y-91875032D01*
X118507300Y-91875032D02*
X119086400Y-91295932D01*
X133425014Y-90410822D02*
X133633036Y-90202800D01*
X133633036Y-90202800D02*
X134057300Y-90202800D01*
X121984075Y-90410822D02*
X133425014Y-90410822D01*
X121434075Y-90960822D02*
X121984075Y-90410822D01*
X119708404Y-90960822D02*
X121434075Y-90960822D01*
X119086400Y-91295932D02*
X119373294Y-91295932D01*
X119373294Y-91295932D02*
X119708404Y-90960822D01*
X100914911Y-87745189D02*
X116380756Y-87745189D01*
X117812111Y-89176544D02*
X117812111Y-93007611D01*
X122184561Y-92251095D02*
X122484560Y-91951096D01*
X100342867Y-88317233D02*
X100914911Y-87745189D01*
X117812111Y-93007611D02*
X118152489Y-93347989D01*
X95242867Y-88317233D02*
X100342867Y-88317233D01*
X121087667Y-93347989D02*
X122184561Y-92251095D01*
X94500100Y-89060000D02*
X95242867Y-88317233D01*
X83000000Y-89060000D02*
X94500100Y-89060000D01*
X118152489Y-93347989D02*
X121087667Y-93347989D01*
X116380756Y-87745189D02*
X117812111Y-89176544D01*
X118007300Y-93652800D02*
X117507300Y-93152800D01*
X121931556Y-93652800D02*
X118007300Y-93652800D01*
X117507300Y-93152800D02*
X117507300Y-89302800D01*
X116504500Y-88300000D02*
X102424264Y-88300000D01*
X123257300Y-92327056D02*
X121931556Y-93652800D01*
X102424264Y-88300000D02*
X102000000Y-88300000D01*
X123257300Y-91902792D02*
X123257300Y-92327056D01*
X117507300Y-89302800D02*
X116504500Y-88300000D01*
X117350000Y-85350000D02*
X118095189Y-84604811D01*
X129074988Y-86104358D02*
X129074988Y-86528622D01*
X128279075Y-84604811D02*
X129074988Y-85400724D01*
X129074988Y-85400724D02*
X129074988Y-86104358D01*
X118095189Y-84604811D02*
X128279075Y-84604811D01*
X133572914Y-90715633D02*
X122110331Y-90715633D01*
X121560331Y-91265633D02*
X119934359Y-91265633D01*
X122110331Y-90715633D02*
X121560331Y-91265633D01*
X119934359Y-91265633D02*
X119599991Y-91600001D01*
X119599991Y-91600001D02*
X119299992Y-91900000D01*
X135007300Y-90202800D02*
X134478699Y-90731401D01*
X134478699Y-90731401D02*
X133588682Y-90731401D01*
X133588682Y-90731401D02*
X133572914Y-90715633D01*
X121686587Y-91570444D02*
X120429554Y-91570444D01*
X120429554Y-91570444D02*
X120399999Y-91599999D01*
X122236587Y-91020444D02*
X121686587Y-91570444D01*
X120399999Y-91599999D02*
X120100000Y-91899998D01*
X125558666Y-91020444D02*
X122236587Y-91020444D01*
X127600000Y-93061778D02*
X125558666Y-91020444D01*
X212842389Y-86907611D02*
X229931046Y-86907611D01*
X233623430Y-90599995D02*
X235199999Y-90599995D01*
X235199999Y-90599995D02*
X235200005Y-90600001D01*
X229931046Y-86907611D02*
X233623430Y-90599995D01*
X211647200Y-88102800D02*
X212842389Y-86907611D01*
X235200005Y-90600001D02*
X235500004Y-90900000D01*
X121356958Y-85214442D02*
X127339442Y-85214442D01*
X120900000Y-85671400D02*
X121356958Y-85214442D01*
X127339442Y-85214442D02*
X127575000Y-85450000D01*
X127575000Y-85450000D02*
X127896400Y-85450000D01*
X127896400Y-85450000D02*
X127900000Y-85446400D01*
X120549998Y-89325000D02*
X119799272Y-89325000D01*
X119799272Y-89325000D02*
X119375008Y-89325000D01*
X121024998Y-88850000D02*
X120549998Y-89325000D01*
X238637668Y-91983399D02*
X238937667Y-91683400D01*
X236284855Y-94336212D02*
X238637668Y-91983399D01*
X124099997Y-91900003D02*
X124099997Y-92324267D01*
X126111942Y-94336212D02*
X236284855Y-94336212D01*
X124099997Y-92324267D02*
X126111942Y-94336212D01*
X240303564Y-93950002D02*
X240882166Y-93371400D01*
X238850000Y-93950002D02*
X240303564Y-93950002D01*
X198013625Y-93722213D02*
X127422213Y-93722213D01*
X127422213Y-93722213D02*
X125025255Y-91325255D01*
X125025255Y-91325255D02*
X122362843Y-91325255D01*
X122362843Y-91325255D02*
X121589044Y-92099054D01*
X121326675Y-92099054D02*
X120902411Y-92099054D01*
X121589044Y-92099054D02*
X121326675Y-92099054D01*
X198233038Y-93502800D02*
X198013625Y-93722213D01*
X198657302Y-93502800D02*
X198233038Y-93502800D01*
X243703412Y-85631588D02*
X243169999Y-86165001D01*
X243169999Y-86165001D02*
X242670000Y-86665000D01*
X243703412Y-82379015D02*
X243703412Y-85631588D01*
X239500000Y-82250000D02*
X240200000Y-81550000D01*
X240200000Y-81550000D02*
X242874397Y-81550000D01*
X242874397Y-81550000D02*
X243703412Y-82379015D01*
X231988344Y-91745564D02*
X234840740Y-91740740D01*
X234845564Y-91745564D02*
X234840740Y-91740740D01*
X230521390Y-90278610D02*
X231988344Y-91745564D01*
X133179899Y-90106011D02*
X121857819Y-90106011D01*
X121857819Y-90106011D02*
X121307819Y-90656011D01*
X119210041Y-90656011D02*
X119098721Y-90767331D01*
X121307819Y-90656011D02*
X119210041Y-90656011D01*
X134457300Y-88828610D02*
X133179899Y-90106011D01*
X156319244Y-84409622D02*
X147590148Y-84409622D01*
X147590148Y-84409622D02*
X146644355Y-85355415D01*
X146644355Y-85355415D02*
X146344356Y-85655414D01*
X206950000Y-88854826D02*
X205250000Y-87154826D01*
X160219244Y-88309622D02*
X156319244Y-84409622D01*
X175002512Y-88309622D02*
X160219244Y-88309622D01*
X203064646Y-84390378D02*
X195626256Y-84390378D01*
X176552511Y-86759622D02*
X175002512Y-88309622D01*
X193257012Y-86759622D02*
X176552511Y-86759622D01*
X195626256Y-84390378D02*
X193257012Y-86759622D01*
X205250000Y-86575732D02*
X203064646Y-84390378D01*
X205250000Y-87154826D02*
X205250000Y-86575732D01*
X211544797Y-89605203D02*
X213587578Y-87562422D01*
X227016922Y-87562422D02*
X231952490Y-92497990D01*
X213587578Y-87562422D02*
X227016922Y-87562422D01*
X231952490Y-92497990D02*
X233651911Y-92497990D01*
X233651911Y-92497990D02*
X233875736Y-92274165D01*
X233875736Y-92274165D02*
X234300000Y-92274165D01*
X132787921Y-89697989D02*
X123105321Y-89697989D01*
X120932330Y-87975000D02*
X120199264Y-87975000D01*
X123105321Y-89697989D02*
X122278730Y-88871398D01*
X122278730Y-88871398D02*
X121828728Y-88871398D01*
X120199264Y-87975000D02*
X119775000Y-87975000D01*
X121828728Y-88871398D02*
X120932330Y-87975000D01*
X133657300Y-88828610D02*
X132787921Y-89697989D01*
X156069244Y-84714433D02*
X148050573Y-84714433D01*
X148050573Y-84714433D02*
X146657291Y-86107715D01*
X146657291Y-86107715D02*
X146357292Y-86407714D01*
X159969244Y-88614433D02*
X156069244Y-84714433D01*
X175128768Y-88614433D02*
X159969244Y-88614433D01*
X193407012Y-87064433D02*
X176678767Y-87064433D01*
X176678767Y-87064433D02*
X175128768Y-88614433D01*
X195776256Y-84695189D02*
X193407012Y-87064433D01*
X202938390Y-84695189D02*
X195776256Y-84695189D01*
X204900000Y-86656799D02*
X202938390Y-84695189D01*
X206950000Y-89607239D02*
X204900000Y-87557239D01*
X204900000Y-87557239D02*
X204900000Y-86656799D01*
X98350000Y-87400000D02*
X88060100Y-87400000D01*
X99224055Y-86525945D02*
X98350000Y-87400000D01*
X125208277Y-86525945D02*
X99224055Y-86525945D01*
X125478601Y-86796269D02*
X125208277Y-86525945D01*
X124957292Y-87902800D02*
X125478601Y-87381491D01*
X125478601Y-87381491D02*
X125478601Y-86796269D01*
X88060100Y-87400000D02*
X87957300Y-87502800D01*
X74457300Y-90802800D02*
X77290721Y-90802800D01*
X206950000Y-91112065D02*
X204200000Y-88362065D01*
X204200000Y-88362065D02*
X204200000Y-86818933D01*
X204200000Y-86818933D02*
X202835878Y-85454811D01*
X124159292Y-88783556D02*
X123300000Y-87924264D01*
X123300000Y-87924264D02*
X123300000Y-87500000D01*
X129107588Y-87690379D02*
X128014411Y-88783556D01*
X150221445Y-87690379D02*
X129107588Y-87690379D01*
X196266633Y-85454811D02*
X193214230Y-88507214D01*
X152059932Y-89528866D02*
X150221445Y-87690379D01*
X175507536Y-89528866D02*
X152059932Y-89528866D01*
X192166699Y-87978866D02*
X177057535Y-87978866D01*
X202835878Y-85454811D02*
X196266633Y-85454811D01*
X177057535Y-87978866D02*
X175507536Y-89528866D01*
X192695047Y-88507214D02*
X192166699Y-87978866D01*
X128014411Y-88783556D02*
X124159292Y-88783556D01*
X193214230Y-88507214D02*
X192695047Y-88507214D01*
X211597200Y-91152800D02*
X211457300Y-91152800D01*
X237107300Y-90652800D02*
X234652489Y-93107611D01*
X234652489Y-93107611D02*
X231662111Y-93107611D01*
X231662111Y-93107611D02*
X226726544Y-88172044D01*
X226726544Y-88172044D02*
X214438056Y-88172044D01*
X214438056Y-88172044D02*
X211457300Y-91152800D01*
X123300000Y-87500000D02*
X122935567Y-87135567D01*
X122935567Y-87135567D02*
X100204433Y-87135567D01*
X100204433Y-87135567D02*
X99632389Y-87707611D01*
X87107611Y-88407611D02*
X84921797Y-86221797D01*
X94290355Y-88407611D02*
X87107611Y-88407611D01*
X82881564Y-86221797D02*
X82457300Y-86221797D01*
X94990355Y-87707611D02*
X94290355Y-88407611D01*
X84921797Y-86221797D02*
X82881564Y-86221797D01*
X99632389Y-87707611D02*
X94990355Y-87707611D01*
X123838375Y-89088367D02*
X122799999Y-88049991D01*
X203757301Y-86807301D02*
X202709622Y-85759622D01*
X122799999Y-88049991D02*
X122500000Y-87749992D01*
X196392889Y-85759622D02*
X193340486Y-88812025D01*
X192040443Y-88283677D02*
X177183791Y-88283677D01*
X175633792Y-89833677D02*
X151733677Y-89833677D01*
X193340486Y-88812025D02*
X192568791Y-88812025D01*
X203757301Y-89452800D02*
X203757301Y-86807301D01*
X177183791Y-88283677D02*
X175633792Y-89833677D01*
X128140667Y-89088367D02*
X123838375Y-89088367D01*
X129233844Y-87995190D02*
X128140667Y-89088367D01*
X149895190Y-87995190D02*
X129233844Y-87995190D01*
X202709622Y-85759622D02*
X196392889Y-85759622D01*
X151733677Y-89833677D02*
X149895190Y-87995190D01*
X192568791Y-88812025D02*
X192040443Y-88283677D01*
X86981355Y-88712422D02*
X94416612Y-88712422D01*
X99761075Y-88012422D02*
X100333119Y-87440378D01*
X100333119Y-87440378D02*
X122190386Y-87440378D01*
X122190386Y-87440378D02*
X122200001Y-87449993D01*
X122200001Y-87449993D02*
X122500000Y-87749992D01*
X82457300Y-86974200D02*
X85243134Y-86974200D01*
X85243134Y-86974200D02*
X86981355Y-88712422D01*
X95116611Y-88012422D02*
X99761075Y-88012422D01*
X94416612Y-88712422D02*
X95116611Y-88012422D01*
X215666922Y-93412422D02*
X235572639Y-93412422D01*
X237957800Y-91027261D02*
X237957800Y-90649198D01*
X214807300Y-92552800D02*
X215666922Y-93412422D01*
X235572639Y-93412422D02*
X237957800Y-91027261D01*
D21*
X227850000Y-85400000D02*
X227900000Y-85450000D01*
X213850000Y-85400000D02*
X227850000Y-85400000D01*
D22*
X159174264Y-89000000D02*
X158750000Y-89000000D01*
X176931279Y-87674055D02*
X175381280Y-89224055D01*
X159398319Y-89224055D02*
X159174264Y-89000000D01*
X175381280Y-89224055D02*
X159398319Y-89224055D01*
X192900000Y-87900000D02*
X192674055Y-87674055D01*
X192674055Y-87674055D02*
X176931279Y-87674055D01*
X240957301Y-86529999D02*
X240957301Y-86533865D01*
X126973858Y-94031401D02*
X125152346Y-92209889D01*
X201507300Y-94027024D02*
X201502923Y-94031401D01*
X201502923Y-94031401D02*
X126973858Y-94031401D01*
X125152346Y-92209889D02*
X124852347Y-91909890D01*
X201507300Y-94027024D02*
X201507300Y-93600368D01*
X201383515Y-93476583D02*
X201083516Y-93176584D01*
X201507300Y-93600368D02*
X201383515Y-93476583D01*
X240800000Y-82000000D02*
X242893330Y-82000000D01*
X240100000Y-82700000D02*
X240800000Y-82000000D01*
X236078601Y-91250433D02*
X236078601Y-90921399D01*
X240100000Y-86900000D02*
X240100000Y-82700000D01*
X234526233Y-92802801D02*
X236078601Y-91250433D01*
X231807301Y-92802801D02*
X234526233Y-92802801D01*
X243398601Y-83396399D02*
X243169999Y-83625001D01*
X214132767Y-87867233D02*
X226871733Y-87867233D01*
X211642394Y-90357606D02*
X214132767Y-87867233D01*
X226871733Y-87867233D02*
X231807301Y-92802801D01*
X236078601Y-90921399D02*
X240100000Y-86900000D01*
X242893330Y-82000000D02*
X243398601Y-82505271D01*
X243398601Y-82505271D02*
X243398601Y-83396399D01*
X243169999Y-83625001D02*
X242670000Y-84125000D01*
X193921134Y-87369244D02*
X196250000Y-85040378D01*
X159842988Y-88919244D02*
X175255024Y-88919244D01*
X196250000Y-85040378D02*
X202852512Y-85040378D01*
X175255024Y-88919244D02*
X176805023Y-87369244D01*
X155964122Y-85040378D02*
X159842988Y-88919244D01*
X150469722Y-85040378D02*
X155964122Y-85040378D01*
X206650001Y-90059653D02*
X206950000Y-90359652D01*
X204550000Y-86737866D02*
X204550000Y-87959652D01*
X148429343Y-87080757D02*
X150469722Y-85040378D01*
X202852512Y-85040378D02*
X204550000Y-86737866D01*
X118790379Y-84909621D02*
X128134621Y-84909621D01*
X118350000Y-85350000D02*
X118790379Y-84909621D01*
X128134621Y-84909621D02*
X128546387Y-85321387D01*
X128546387Y-85321387D02*
X128546387Y-86782351D01*
X176805023Y-87369244D02*
X193921134Y-87369244D01*
X128546387Y-86782351D02*
X128844793Y-87080757D01*
X128844793Y-87080757D02*
X148429343Y-87080757D01*
X204550000Y-87959652D02*
X206650001Y-90059653D01*
X203190902Y-84085567D02*
X205600000Y-86494665D01*
X176426255Y-86454811D02*
X193130756Y-86454811D01*
X206650001Y-87802414D02*
X206950000Y-88102413D01*
X174876256Y-88004811D02*
X176426255Y-86454811D01*
X205600000Y-86752413D02*
X206650001Y-87802414D01*
X195500000Y-84085567D02*
X203190902Y-84085567D01*
X160542988Y-88004811D02*
X174876256Y-88004811D01*
X156642988Y-84104811D02*
X160542988Y-88004811D01*
X193130756Y-86454811D02*
X195500000Y-84085567D01*
X205600000Y-86494665D02*
X205600000Y-86752413D01*
X145350000Y-86450000D02*
X145350000Y-85902200D01*
X145350000Y-85902200D02*
X147147389Y-84104811D01*
X147147389Y-84104811D02*
X156642988Y-84104811D01*
X206757300Y-87202800D02*
X206757300Y-87252800D01*
X131125946Y-86775946D02*
X128650000Y-84300000D01*
X128650000Y-84300000D02*
X116650000Y-84300000D01*
X206757300Y-87252800D02*
X206854500Y-87350000D01*
X112497335Y-85450000D02*
X111950000Y-85997335D01*
X192930756Y-86150000D02*
X176300000Y-86150000D01*
X116650000Y-84300000D02*
X115500000Y-85450000D01*
X115500000Y-85450000D02*
X112497335Y-85450000D01*
X143824054Y-86775946D02*
X131125946Y-86775946D01*
X206854500Y-87350000D02*
X206950000Y-87350000D01*
X174750000Y-87700000D02*
X160669244Y-87700000D01*
X195300000Y-83780756D02*
X192930756Y-86150000D01*
X146800000Y-83800000D02*
X143824054Y-86775946D01*
X156769244Y-83800000D02*
X146800000Y-83800000D01*
X203380756Y-83780756D02*
X195300000Y-83780756D01*
X160669244Y-87700000D02*
X156769244Y-83800000D01*
X206950000Y-87350000D02*
X203380756Y-83780756D01*
X176300000Y-86150000D02*
X174750000Y-87700000D01*
X211457251Y-87352800D02*
X212231448Y-86578603D01*
X238353835Y-87803833D02*
X238653834Y-87503834D01*
X236054868Y-90102800D02*
X238353835Y-87803833D01*
X233557300Y-90102800D02*
X236054868Y-90102800D01*
X230033103Y-86578603D02*
X233557300Y-90102800D01*
X212231448Y-86578603D02*
X230033103Y-86578603D01*
X188257300Y-92552800D02*
X188681564Y-92552800D01*
X197407301Y-92802799D02*
X197852489Y-92357611D01*
X201012111Y-92357611D02*
X202371733Y-93717233D01*
X197852489Y-92357611D02*
X201012111Y-92357611D01*
X188931563Y-92802799D02*
X197407301Y-92802799D01*
X238842927Y-90599505D02*
X239015011Y-90599505D01*
X202371733Y-93717233D02*
X235725199Y-93717233D01*
X235725199Y-93717233D02*
X238842927Y-90599505D01*
X188681564Y-92552800D02*
X188931563Y-92802799D01*
X145707297Y-91952801D02*
X146657300Y-91952801D01*
X145107298Y-92552800D02*
X145707297Y-91952801D01*
X146657300Y-91952801D02*
X147207299Y-92502800D01*
X147207299Y-92502800D02*
X172057300Y-92502800D01*
X172057300Y-92502800D02*
X172307300Y-92252800D01*
X124525736Y-87100000D02*
X124256492Y-86830756D01*
X124256492Y-86830756D02*
X99726912Y-86830756D01*
X124950000Y-87100000D02*
X124525736Y-87100000D01*
X99726912Y-86830756D02*
X99470394Y-87087274D01*
X112850000Y-85997335D02*
X113274264Y-85997335D01*
X113274264Y-85997335D02*
X113476929Y-86200000D01*
X113476929Y-86200000D02*
X125900343Y-86200000D01*
X126057301Y-86043042D02*
X126357300Y-85743043D01*
X125900343Y-86200000D02*
X126057301Y-86043042D01*
X106257300Y-91202800D02*
X107557298Y-89902802D01*
X112847971Y-89264822D02*
X112209991Y-89902802D01*
X112209991Y-89902802D02*
X107557298Y-89902802D01*
X144616910Y-93112422D02*
X144557287Y-93052799D01*
X144557287Y-93052799D02*
X144257288Y-92752800D01*
X174350000Y-92250000D02*
X173487578Y-93112422D01*
X173487578Y-93112422D02*
X144616910Y-93112422D01*
X148874532Y-87385568D02*
X148907301Y-87352799D01*
X124102411Y-87500049D02*
X124102411Y-87924313D01*
X124102411Y-87924313D02*
X124656843Y-88478745D01*
X124656843Y-88478745D02*
X127888155Y-88478745D01*
X127888155Y-88478745D02*
X128981332Y-87385568D01*
X128981332Y-87385568D02*
X148874532Y-87385568D01*
X148907301Y-87352799D02*
X149207300Y-87052800D01*
X201470244Y-92052800D02*
X197409746Y-92052800D01*
X202606077Y-93188633D02*
X201470244Y-92052800D01*
X197409746Y-92052800D02*
X197197823Y-92264723D01*
X187786375Y-93107611D02*
X187531564Y-92852800D01*
X187531564Y-92852800D02*
X187107300Y-92852800D01*
X197533556Y-93107611D02*
X187786375Y-93107611D01*
X197978745Y-92662422D02*
X197533556Y-93107611D01*
X200257300Y-93502800D02*
X199416922Y-92662422D01*
X199416922Y-92662422D02*
X197978745Y-92662422D01*
X146431564Y-92552800D02*
X146686375Y-92807611D01*
X146007300Y-92552800D02*
X146431564Y-92552800D01*
X146686375Y-92807611D02*
X172802489Y-92807611D01*
X172802489Y-92807611D02*
X173357300Y-92252800D01*
X229830794Y-92080794D02*
X229887726Y-92080794D01*
X226700000Y-88950000D02*
X229830794Y-92080794D01*
X233792366Y-91199998D02*
X233825736Y-91199998D01*
X233825736Y-91199998D02*
X234250000Y-91199998D01*
X229804790Y-87212422D02*
X233792366Y-91199998D01*
X211457300Y-88852800D02*
X211597200Y-88852800D01*
X213097678Y-87212422D02*
X229804790Y-87212422D01*
X211457300Y-88852800D02*
X213097678Y-87212422D01*
X229300000Y-89057220D02*
X229300000Y-88196818D01*
X229300000Y-88196818D02*
X229300000Y-87772554D01*
X230521390Y-90278610D02*
X229300000Y-89057220D01*
D21*
G36*
X92593224Y-84000000D02*
X92618298Y-84126056D01*
X92689703Y-84232921D01*
X92796568Y-84304326D01*
X92922624Y-84329400D01*
X94922624Y-84329400D01*
X95048680Y-84304326D01*
X95155545Y-84232921D01*
X95226950Y-84126056D01*
X95252024Y-84000000D01*
X95252024Y-80329400D01*
X133593224Y-80329400D01*
X133593224Y-84000000D01*
X133618298Y-84126056D01*
X133689703Y-84232921D01*
X133796568Y-84304326D01*
X133922624Y-84329400D01*
X135922624Y-84329400D01*
X136048680Y-84304326D01*
X136155545Y-84232921D01*
X136226950Y-84126056D01*
X136252024Y-84000000D01*
X136252024Y-80329400D01*
X174593224Y-80329400D01*
X174593224Y-84000000D01*
X174618298Y-84126056D01*
X174689703Y-84232921D01*
X174796568Y-84304326D01*
X174922624Y-84329400D01*
X176922624Y-84329400D01*
X177048680Y-84304326D01*
X177155545Y-84232921D01*
X177226950Y-84126056D01*
X177252024Y-84000000D01*
X177252024Y-80329400D01*
X215593224Y-80329400D01*
X215593224Y-84000000D01*
X215618298Y-84126056D01*
X215689703Y-84232921D01*
X215796568Y-84304326D01*
X215922624Y-84329400D01*
X217922624Y-84329400D01*
X218048680Y-84304326D01*
X218155545Y-84232921D01*
X218226950Y-84126056D01*
X218252024Y-84000000D01*
X218252024Y-80329400D01*
X244270600Y-80329400D01*
X244270600Y-94270600D01*
X240451521Y-94270600D01*
X240555011Y-94201449D01*
X240805660Y-93950800D01*
X240997416Y-93950800D01*
X241210370Y-93862592D01*
X241373358Y-93699604D01*
X241461566Y-93486650D01*
X241461566Y-93256150D01*
X241373358Y-93043196D01*
X241210370Y-92880208D01*
X240997416Y-92792000D01*
X240766916Y-92792000D01*
X240553962Y-92880208D01*
X240390974Y-93043196D01*
X240302766Y-93256150D01*
X240302766Y-93447906D01*
X240156270Y-93594402D01*
X239313796Y-93594402D01*
X239178204Y-93458810D01*
X238965250Y-93370602D01*
X238734750Y-93370602D01*
X238521796Y-93458810D01*
X238358808Y-93621798D01*
X238270600Y-93834752D01*
X238270600Y-94065252D01*
X238355658Y-94270600D01*
X237948796Y-94270600D01*
X238091192Y-94128204D01*
X238179400Y-93915250D01*
X238179400Y-93723494D01*
X239896078Y-92006816D01*
X240558802Y-92006816D01*
X240620039Y-92154695D01*
X240836193Y-92421987D01*
X241138182Y-92586214D01*
X241273000Y-92521565D01*
X241273000Y-91872000D01*
X240624581Y-91872000D01*
X240558802Y-92006816D01*
X239896078Y-92006816D01*
X240351447Y-91551447D01*
X240428532Y-91436083D01*
X240455600Y-91300000D01*
X240455600Y-89382294D01*
X240609904Y-89227990D01*
X240665822Y-89509107D01*
X240838084Y-89766916D01*
X240947462Y-89840000D01*
X240838084Y-89913084D01*
X240665822Y-90170893D01*
X240605331Y-90475000D01*
X240665822Y-90779107D01*
X240838084Y-91036916D01*
X240862893Y-91053493D01*
X240836193Y-91068013D01*
X240620039Y-91335305D01*
X240558802Y-91483184D01*
X240624581Y-91618000D01*
X241273000Y-91618000D01*
X241273000Y-91598000D01*
X241527000Y-91598000D01*
X241527000Y-91618000D01*
X241547000Y-91618000D01*
X241547000Y-91872000D01*
X241527000Y-91872000D01*
X241527000Y-92521565D01*
X241661818Y-92586214D01*
X241963807Y-92421987D01*
X242084910Y-92272233D01*
X242108084Y-92306916D01*
X242365893Y-92479178D01*
X242593238Y-92524400D01*
X242746762Y-92524400D01*
X242974107Y-92479178D01*
X243231916Y-92306916D01*
X243404178Y-92049107D01*
X243464669Y-91745000D01*
X243404178Y-91440893D01*
X243231916Y-91183084D01*
X243122538Y-91110000D01*
X243231916Y-91036916D01*
X243404178Y-90779107D01*
X243464669Y-90475000D01*
X243404178Y-90170893D01*
X243231916Y-89913084D01*
X243122538Y-89840000D01*
X243231916Y-89766916D01*
X243404178Y-89509107D01*
X243464669Y-89205000D01*
X243404178Y-88900893D01*
X243231916Y-88643084D01*
X243122538Y-88570000D01*
X243231916Y-88496916D01*
X243404178Y-88239107D01*
X243464669Y-87935000D01*
X243404178Y-87630893D01*
X243231916Y-87373084D01*
X243122538Y-87300000D01*
X243231916Y-87226916D01*
X243404178Y-86969107D01*
X243464669Y-86665000D01*
X243416260Y-86421634D01*
X243954859Y-85883035D01*
X244031944Y-85767671D01*
X244059012Y-85631588D01*
X244059012Y-82379015D01*
X244052127Y-82344400D01*
X244031944Y-82242932D01*
X243954859Y-82127568D01*
X243125844Y-81298553D01*
X243010480Y-81221468D01*
X242874397Y-81194400D01*
X240200000Y-81194400D01*
X240063918Y-81221468D01*
X240063916Y-81221469D01*
X240063917Y-81221469D01*
X239948552Y-81298553D01*
X239576506Y-81670600D01*
X239384750Y-81670600D01*
X239171796Y-81758808D01*
X239008808Y-81921796D01*
X238920600Y-82134750D01*
X238920600Y-82365250D01*
X239008808Y-82578204D01*
X239171796Y-82741192D01*
X239384750Y-82829400D01*
X239615250Y-82829400D01*
X239744400Y-82775905D01*
X239744400Y-86325004D01*
X239628204Y-86208808D01*
X239415250Y-86120600D01*
X239184750Y-86120600D01*
X238971796Y-86208808D01*
X238836204Y-86344400D01*
X238710100Y-86344400D01*
X238574018Y-86371468D01*
X238563937Y-86378204D01*
X238458652Y-86448553D01*
X235464816Y-89442390D01*
X233830850Y-89442390D01*
X231688460Y-87300000D01*
X233070600Y-87300000D01*
X233187019Y-87885276D01*
X233518551Y-88381449D01*
X234014724Y-88712981D01*
X234600000Y-88829400D01*
X235185276Y-88712981D01*
X235681449Y-88381449D01*
X236012981Y-87885276D01*
X236129400Y-87300000D01*
X236012981Y-86714724D01*
X235681449Y-86218551D01*
X235185276Y-85887019D01*
X234600000Y-85770600D01*
X234014724Y-85887019D01*
X233518551Y-86218551D01*
X233187019Y-86714724D01*
X233070600Y-87300000D01*
X231688460Y-87300000D01*
X230187013Y-85798553D01*
X230071649Y-85721468D01*
X229935566Y-85694400D01*
X228425905Y-85694400D01*
X228479400Y-85565250D01*
X228479400Y-85445336D01*
X228568336Y-85356400D01*
X236431664Y-85356400D01*
X236670600Y-85595336D01*
X236670600Y-85715250D01*
X236758808Y-85928204D01*
X236921796Y-86091192D01*
X237134750Y-86179400D01*
X237365250Y-86179400D01*
X237578204Y-86091192D01*
X237741192Y-85928204D01*
X237829400Y-85715250D01*
X237829400Y-85484750D01*
X237741192Y-85271796D01*
X237578204Y-85108808D01*
X237365250Y-85020600D01*
X237245336Y-85020600D01*
X236887368Y-84662632D01*
X236816980Y-84615600D01*
X236755523Y-84574535D01*
X236600000Y-84543600D01*
X228400000Y-84543600D01*
X228244477Y-84574535D01*
X228112632Y-84662632D01*
X227904664Y-84870600D01*
X227784750Y-84870600D01*
X227571796Y-84958808D01*
X227537004Y-84993600D01*
X214262996Y-84993600D01*
X214178204Y-84908808D01*
X213965250Y-84820600D01*
X213734750Y-84820600D01*
X213521796Y-84908808D01*
X213358808Y-85071796D01*
X213270600Y-85284750D01*
X213270600Y-85515250D01*
X213358808Y-85728204D01*
X213521796Y-85891192D01*
X213734750Y-85979400D01*
X213965250Y-85979400D01*
X214178204Y-85891192D01*
X214262996Y-85806400D01*
X221373768Y-85806400D01*
X221320604Y-85934750D01*
X221320604Y-86165250D01*
X221344526Y-86223003D01*
X212231448Y-86223003D01*
X212095365Y-86250071D01*
X211980001Y-86327156D01*
X211633349Y-86673808D01*
X211565250Y-86645600D01*
X211334750Y-86645600D01*
X211121796Y-86733808D01*
X210958808Y-86896796D01*
X210870600Y-87109750D01*
X210870600Y-87340250D01*
X210958808Y-87553204D01*
X211018104Y-87612500D01*
X210958808Y-87671796D01*
X210870600Y-87884750D01*
X210870600Y-88115250D01*
X210958808Y-88328204D01*
X211018104Y-88387500D01*
X210958808Y-88446796D01*
X210870600Y-88659750D01*
X210870600Y-88890250D01*
X210958808Y-89103204D01*
X211018104Y-89162500D01*
X210958808Y-89221796D01*
X210870600Y-89434750D01*
X210870600Y-89665250D01*
X210958808Y-89878204D01*
X211018104Y-89937500D01*
X210958808Y-89996796D01*
X210870600Y-90209750D01*
X210870600Y-90440250D01*
X210958808Y-90653204D01*
X211018104Y-90712500D01*
X210958808Y-90771796D01*
X210870600Y-90984750D01*
X210870600Y-91215250D01*
X210958808Y-91428204D01*
X211121796Y-91591192D01*
X211334750Y-91679400D01*
X211565250Y-91679400D01*
X211778204Y-91591192D01*
X211941192Y-91428204D01*
X212029400Y-91215250D01*
X212029400Y-91098723D01*
X216728328Y-91098723D01*
X217490000Y-91860395D01*
X218251672Y-91098723D01*
X219268328Y-91098723D01*
X220030000Y-91860395D01*
X220791672Y-91098723D01*
X220691321Y-90913704D01*
X220209966Y-90746362D01*
X219701213Y-90775964D01*
X219368679Y-90913704D01*
X219268328Y-91098723D01*
X218251672Y-91098723D01*
X218151321Y-90913704D01*
X217669966Y-90746362D01*
X217161213Y-90775964D01*
X216828679Y-90913704D01*
X216728328Y-91098723D01*
X212029400Y-91098723D01*
X212029400Y-91083594D01*
X214585350Y-88527644D01*
X218064432Y-88527644D01*
X217760153Y-88831923D01*
X217580600Y-89265403D01*
X217580600Y-89734597D01*
X217760153Y-90168077D01*
X218091923Y-90499847D01*
X218525403Y-90679400D01*
X218994597Y-90679400D01*
X219428077Y-90499847D01*
X219759847Y-90168077D01*
X219939400Y-89734597D01*
X219939400Y-89265403D01*
X219759847Y-88831923D01*
X219455568Y-88527644D01*
X220129520Y-88527644D01*
X220115127Y-88600000D01*
X220115127Y-90400000D01*
X220136812Y-90509016D01*
X220198564Y-90601436D01*
X220290984Y-90663188D01*
X220400000Y-90684873D01*
X221859265Y-90684873D01*
X221827275Y-90716863D01*
X221670550Y-91095230D01*
X221670550Y-91504770D01*
X221827275Y-91883137D01*
X222116863Y-92172725D01*
X222495230Y-92329450D01*
X222904770Y-92329450D01*
X223283137Y-92172725D01*
X223572725Y-91883137D01*
X223729450Y-91504770D01*
X223729450Y-91095230D01*
X223572725Y-90716863D01*
X223283137Y-90427275D01*
X222904770Y-90270550D01*
X222495230Y-90270550D01*
X222484873Y-90274840D01*
X222484873Y-88600000D01*
X222470480Y-88527644D01*
X226302960Y-88527644D01*
X226208808Y-88621796D01*
X226120600Y-88834750D01*
X226120600Y-89065250D01*
X226208808Y-89278204D01*
X226371796Y-89441192D01*
X226584750Y-89529400D01*
X226776506Y-89529400D01*
X229308326Y-92061220D01*
X229308326Y-92196044D01*
X229396534Y-92408998D01*
X229559522Y-92571986D01*
X229772476Y-92660194D01*
X230002976Y-92660194D01*
X230215930Y-92571986D01*
X230378918Y-92408998D01*
X230402843Y-92351237D01*
X231108428Y-93056822D01*
X220750698Y-93056822D01*
X220791672Y-92981277D01*
X220030000Y-92219605D01*
X219268328Y-92981277D01*
X219309302Y-93056822D01*
X218210698Y-93056822D01*
X218251672Y-92981277D01*
X217490000Y-92219605D01*
X216728328Y-92981277D01*
X216769302Y-93056822D01*
X215814216Y-93056822D01*
X215386700Y-92629306D01*
X215386700Y-92437550D01*
X215298492Y-92224596D01*
X215135504Y-92061608D01*
X214922550Y-91973400D01*
X214692050Y-91973400D01*
X214479096Y-92061608D01*
X214316108Y-92224596D01*
X214227900Y-92437550D01*
X214227900Y-92668050D01*
X214316108Y-92881004D01*
X214479096Y-93043992D01*
X214692050Y-93132200D01*
X214883806Y-93132200D01*
X215113239Y-93361633D01*
X203161556Y-93361633D01*
X203185477Y-93303883D01*
X203185477Y-93073383D01*
X203097269Y-92860429D01*
X202934281Y-92697441D01*
X202721327Y-92609233D01*
X202529571Y-92609233D01*
X201780372Y-91860034D01*
X216196362Y-91860034D01*
X216225964Y-92368787D01*
X216363704Y-92701321D01*
X216548723Y-92801672D01*
X217310395Y-92040000D01*
X217669605Y-92040000D01*
X218431277Y-92801672D01*
X218616296Y-92701321D01*
X218761080Y-92284853D01*
X218765964Y-92368787D01*
X218903704Y-92701321D01*
X219088723Y-92801672D01*
X219850395Y-92040000D01*
X220209605Y-92040000D01*
X220971277Y-92801672D01*
X221156296Y-92701321D01*
X221323638Y-92219966D01*
X221294036Y-91711213D01*
X221156296Y-91378679D01*
X220971277Y-91278328D01*
X220209605Y-92040000D01*
X219850395Y-92040000D01*
X219088723Y-91278328D01*
X218903704Y-91378679D01*
X218758920Y-91795147D01*
X218754036Y-91711213D01*
X218616296Y-91378679D01*
X218431277Y-91278328D01*
X217669605Y-92040000D01*
X217310395Y-92040000D01*
X216548723Y-91278328D01*
X216363704Y-91378679D01*
X216196362Y-91860034D01*
X201780372Y-91860034D01*
X201721691Y-91801353D01*
X201606327Y-91724268D01*
X201470244Y-91697200D01*
X197409746Y-91697200D01*
X197363807Y-91706338D01*
X197313073Y-91685323D01*
X197082573Y-91685323D01*
X196869619Y-91773531D01*
X196706631Y-91936519D01*
X196618423Y-92149473D01*
X196618423Y-92379973D01*
X196646269Y-92447199D01*
X189078857Y-92447199D01*
X188933011Y-92301353D01*
X188817647Y-92224268D01*
X188730912Y-92207016D01*
X188585504Y-92061608D01*
X188372550Y-91973400D01*
X188142050Y-91973400D01*
X187929096Y-92061608D01*
X187766108Y-92224596D01*
X187677900Y-92437550D01*
X187677900Y-92531119D01*
X187667647Y-92524268D01*
X187580912Y-92507016D01*
X187435504Y-92361608D01*
X187222550Y-92273400D01*
X186992050Y-92273400D01*
X186779096Y-92361608D01*
X186616108Y-92524596D01*
X186527900Y-92737550D01*
X186527900Y-92968050D01*
X186566733Y-93061802D01*
X174041092Y-93061802D01*
X174273494Y-92829400D01*
X174465250Y-92829400D01*
X174678204Y-92741192D01*
X174841192Y-92578204D01*
X174929400Y-92365250D01*
X174929400Y-92134750D01*
X174841192Y-91921796D01*
X174678204Y-91758808D01*
X174465250Y-91670600D01*
X174234750Y-91670600D01*
X174021796Y-91758808D01*
X173858808Y-91921796D01*
X173853070Y-91935649D01*
X173848492Y-91924596D01*
X173685504Y-91761608D01*
X173472550Y-91673400D01*
X173242050Y-91673400D01*
X173029096Y-91761608D01*
X172866108Y-91924596D01*
X172832300Y-92006216D01*
X172798492Y-91924596D01*
X172635504Y-91761608D01*
X172422550Y-91673400D01*
X172192050Y-91673400D01*
X171979096Y-91761608D01*
X171816108Y-91924596D01*
X171727900Y-92137550D01*
X171727900Y-92147200D01*
X147354593Y-92147200D01*
X146908747Y-91701354D01*
X146793383Y-91624269D01*
X146657300Y-91597201D01*
X145707297Y-91597201D01*
X145571214Y-91624269D01*
X145455850Y-91701354D01*
X145183804Y-91973400D01*
X144992048Y-91973400D01*
X144779094Y-92061608D01*
X144616106Y-92224596D01*
X144596299Y-92272415D01*
X144585492Y-92261608D01*
X144372538Y-92173400D01*
X144142038Y-92173400D01*
X143929084Y-92261608D01*
X143766096Y-92424596D01*
X143677888Y-92637550D01*
X143677888Y-92868050D01*
X143758142Y-93061802D01*
X136207997Y-93061802D01*
X136251672Y-92981277D01*
X135490000Y-92219605D01*
X134728328Y-92981277D01*
X134772003Y-93061802D01*
X131292128Y-93061802D01*
X130643116Y-92412790D01*
X130643116Y-92221034D01*
X130554908Y-92008080D01*
X130391920Y-91845092D01*
X130278553Y-91798134D01*
X130728738Y-91798134D01*
X130796796Y-91866192D01*
X131009750Y-91954400D01*
X131240250Y-91954400D01*
X131453204Y-91866192D01*
X131459362Y-91860034D01*
X134196362Y-91860034D01*
X134225964Y-92368787D01*
X134363704Y-92701321D01*
X134548723Y-92801672D01*
X135310395Y-92040000D01*
X135669605Y-92040000D01*
X136431277Y-92801672D01*
X136616296Y-92701321D01*
X136783638Y-92219966D01*
X136754036Y-91711213D01*
X136616296Y-91378679D01*
X136431277Y-91278328D01*
X135669605Y-92040000D01*
X135310395Y-92040000D01*
X134548723Y-91278328D01*
X134363704Y-91378679D01*
X134196362Y-91860034D01*
X131459362Y-91860034D01*
X131616192Y-91703204D01*
X131704400Y-91490250D01*
X131704400Y-91259750D01*
X131637701Y-91098723D01*
X134728328Y-91098723D01*
X135490000Y-91860395D01*
X136251672Y-91098723D01*
X136151321Y-90913704D01*
X135669966Y-90746362D01*
X135161213Y-90775964D01*
X134828679Y-90913704D01*
X134728328Y-91098723D01*
X131637701Y-91098723D01*
X131626314Y-91071233D01*
X133509410Y-91071233D01*
X133588682Y-91087001D01*
X134478699Y-91087001D01*
X134614782Y-91059933D01*
X134730146Y-90982848D01*
X134930794Y-90782200D01*
X135122550Y-90782200D01*
X135335504Y-90693992D01*
X135498492Y-90531004D01*
X135586700Y-90318050D01*
X135586700Y-90087550D01*
X135498492Y-89874596D01*
X135335504Y-89711608D01*
X135122550Y-89623400D01*
X134892050Y-89623400D01*
X134679096Y-89711608D01*
X134532300Y-89858404D01*
X134385504Y-89711608D01*
X134172550Y-89623400D01*
X134165404Y-89623400D01*
X134380794Y-89408010D01*
X134572550Y-89408010D01*
X134785504Y-89319802D01*
X134948492Y-89156814D01*
X135036700Y-88943860D01*
X135036700Y-88713360D01*
X135012775Y-88655600D01*
X135936476Y-88655600D01*
X135760153Y-88831923D01*
X135580600Y-89265403D01*
X135580600Y-89734597D01*
X135760153Y-90168077D01*
X136091923Y-90499847D01*
X136525403Y-90679400D01*
X136994597Y-90679400D01*
X137428077Y-90499847D01*
X137759847Y-90168077D01*
X137939400Y-89734597D01*
X137939400Y-89265403D01*
X137759847Y-88831923D01*
X137583524Y-88655600D01*
X138115127Y-88655600D01*
X138115127Y-90400000D01*
X138136812Y-90509016D01*
X138198564Y-90601436D01*
X138290984Y-90663188D01*
X138400000Y-90684873D01*
X139859265Y-90684873D01*
X139827275Y-90716863D01*
X139670550Y-91095230D01*
X139670550Y-91504770D01*
X139827275Y-91883137D01*
X140116863Y-92172725D01*
X140495230Y-92329450D01*
X140904770Y-92329450D01*
X141283137Y-92172725D01*
X141572725Y-91883137D01*
X141729450Y-91504770D01*
X141729450Y-91095230D01*
X141572725Y-90716863D01*
X141283137Y-90427275D01*
X140904770Y-90270550D01*
X140495230Y-90270550D01*
X140484873Y-90274840D01*
X140484873Y-88655600D01*
X149305138Y-88655600D01*
X150401866Y-89752328D01*
X150401866Y-89944084D01*
X150490074Y-90157038D01*
X150653062Y-90320026D01*
X150866016Y-90408234D01*
X151096516Y-90408234D01*
X151309470Y-90320026D01*
X151472458Y-90157038D01*
X151497907Y-90095599D01*
X151597594Y-90162209D01*
X151733677Y-90189277D01*
X175633792Y-90189277D01*
X175769875Y-90162209D01*
X175885239Y-90085124D01*
X176580600Y-89389763D01*
X176580600Y-89734597D01*
X176760153Y-90168077D01*
X177091923Y-90499847D01*
X177525403Y-90679400D01*
X177994597Y-90679400D01*
X178428077Y-90499847D01*
X178759847Y-90168077D01*
X178939400Y-89734597D01*
X178939400Y-89265403D01*
X178759847Y-88831923D01*
X178567201Y-88639277D01*
X179115127Y-88639277D01*
X179115127Y-90400000D01*
X179136812Y-90509016D01*
X179198564Y-90601436D01*
X179290984Y-90663188D01*
X179400000Y-90684873D01*
X180859265Y-90684873D01*
X180827275Y-90716863D01*
X180670550Y-91095230D01*
X180670550Y-91504770D01*
X180827275Y-91883137D01*
X181116863Y-92172725D01*
X181495230Y-92329450D01*
X181904770Y-92329450D01*
X182283137Y-92172725D01*
X182572725Y-91883137D01*
X182729450Y-91504770D01*
X182729450Y-91095230D01*
X182572725Y-90716863D01*
X182283137Y-90427275D01*
X181904770Y-90270550D01*
X181495230Y-90270550D01*
X181484873Y-90274840D01*
X181484873Y-88639277D01*
X191893149Y-88639277D01*
X192317344Y-89063472D01*
X192432708Y-89140557D01*
X192568791Y-89167625D01*
X193340486Y-89167625D01*
X193476569Y-89140557D01*
X193591933Y-89063472D01*
X194105405Y-88550000D01*
X195765127Y-88550000D01*
X195765127Y-90250000D01*
X195786812Y-90359016D01*
X195848564Y-90451436D01*
X195940984Y-90513188D01*
X196050000Y-90534873D01*
X197750000Y-90534873D01*
X197859016Y-90513188D01*
X197951436Y-90451436D01*
X198013188Y-90359016D01*
X198034873Y-90250000D01*
X198034873Y-89400000D01*
X198288474Y-89400000D01*
X198376129Y-89840670D01*
X198625748Y-90214252D01*
X198999330Y-90463871D01*
X199328765Y-90529400D01*
X199551235Y-90529400D01*
X199880670Y-90463871D01*
X200254252Y-90214252D01*
X200503871Y-89840670D01*
X200591526Y-89400000D01*
X200828474Y-89400000D01*
X200916129Y-89840670D01*
X201165748Y-90214252D01*
X201539330Y-90463871D01*
X201868765Y-90529400D01*
X202091235Y-90529400D01*
X202420670Y-90463871D01*
X202794252Y-90214252D01*
X203043871Y-89840670D01*
X203131526Y-89400000D01*
X203043871Y-88959330D01*
X202794252Y-88585748D01*
X202420670Y-88336129D01*
X202091235Y-88270600D01*
X201868765Y-88270600D01*
X201539330Y-88336129D01*
X201165748Y-88585748D01*
X200916129Y-88959330D01*
X200828474Y-89400000D01*
X200591526Y-89400000D01*
X200503871Y-88959330D01*
X200254252Y-88585748D01*
X199880670Y-88336129D01*
X199551235Y-88270600D01*
X199328765Y-88270600D01*
X198999330Y-88336129D01*
X198625748Y-88585748D01*
X198376129Y-88959330D01*
X198288474Y-89400000D01*
X198034873Y-89400000D01*
X198034873Y-88550000D01*
X198013188Y-88440984D01*
X197951436Y-88348564D01*
X197859016Y-88286812D01*
X197750000Y-88265127D01*
X196050000Y-88265127D01*
X195940984Y-88286812D01*
X195848564Y-88348564D01*
X195786812Y-88440984D01*
X195765127Y-88550000D01*
X194105405Y-88550000D01*
X195756260Y-86899145D01*
X195836129Y-87300670D01*
X196085748Y-87674252D01*
X196459330Y-87923871D01*
X196788765Y-87989400D01*
X197011235Y-87989400D01*
X197340670Y-87923871D01*
X197714252Y-87674252D01*
X197963871Y-87300670D01*
X198051526Y-86860000D01*
X197963871Y-86419330D01*
X197760673Y-86115222D01*
X198579327Y-86115222D01*
X198376129Y-86419330D01*
X198288474Y-86860000D01*
X198376129Y-87300670D01*
X198625748Y-87674252D01*
X198999330Y-87923871D01*
X199328765Y-87989400D01*
X199551235Y-87989400D01*
X199880670Y-87923871D01*
X200254252Y-87674252D01*
X200503871Y-87300670D01*
X200528474Y-87176982D01*
X200790499Y-87176982D01*
X201002348Y-87608056D01*
X201363036Y-87925245D01*
X201663020Y-88049489D01*
X201853000Y-87988627D01*
X201853000Y-86987000D01*
X202107000Y-86987000D01*
X202107000Y-87988627D01*
X202296980Y-88049489D01*
X202596964Y-87925245D01*
X202957652Y-87608056D01*
X203169501Y-87176982D01*
X203109193Y-86987000D01*
X202107000Y-86987000D01*
X201853000Y-86987000D01*
X200850807Y-86987000D01*
X200790499Y-87176982D01*
X200528474Y-87176982D01*
X200591526Y-86860000D01*
X200503871Y-86419330D01*
X200300673Y-86115222D01*
X201000737Y-86115222D01*
X200790499Y-86543018D01*
X200850807Y-86733000D01*
X201853000Y-86733000D01*
X201853000Y-86713000D01*
X202107000Y-86713000D01*
X202107000Y-86733000D01*
X203109193Y-86733000D01*
X203126280Y-86679174D01*
X203401701Y-86954595D01*
X203401701Y-88989004D01*
X203266109Y-89124596D01*
X203177901Y-89337550D01*
X203177901Y-89568050D01*
X203266109Y-89781004D01*
X203429097Y-89943992D01*
X203642051Y-90032200D01*
X203872551Y-90032200D01*
X204085505Y-89943992D01*
X204248493Y-89781004D01*
X204336701Y-89568050D01*
X204336701Y-89337550D01*
X204248493Y-89124596D01*
X204112901Y-88989004D01*
X204112901Y-88777860D01*
X206370600Y-91035559D01*
X206370600Y-91215250D01*
X206458808Y-91428204D01*
X206621796Y-91591192D01*
X206834750Y-91679400D01*
X207065250Y-91679400D01*
X207278204Y-91591192D01*
X207441192Y-91428204D01*
X207529400Y-91215250D01*
X207529400Y-90984750D01*
X207441192Y-90771796D01*
X207381896Y-90712500D01*
X207441192Y-90653204D01*
X207529400Y-90440250D01*
X207529400Y-90209750D01*
X207441192Y-89996796D01*
X207381896Y-89937500D01*
X207441192Y-89878204D01*
X207529400Y-89665250D01*
X207529400Y-89434750D01*
X207441192Y-89221796D01*
X207381896Y-89162500D01*
X207441192Y-89103204D01*
X207529400Y-88890250D01*
X207529400Y-88659750D01*
X207441192Y-88446796D01*
X207381896Y-88387500D01*
X207441192Y-88328204D01*
X207529400Y-88115250D01*
X207529400Y-87884750D01*
X207441192Y-87671796D01*
X207381896Y-87612500D01*
X207441192Y-87553204D01*
X207529400Y-87340250D01*
X207529400Y-87109750D01*
X207441192Y-86896796D01*
X207278204Y-86733808D01*
X207065250Y-86645600D01*
X206834750Y-86645600D01*
X206773758Y-86670864D01*
X203632203Y-83529309D01*
X203516839Y-83452224D01*
X203380756Y-83425156D01*
X195300000Y-83425156D01*
X195163917Y-83452224D01*
X195048553Y-83529309D01*
X192783462Y-85794400D01*
X176300000Y-85794400D01*
X176163917Y-85821468D01*
X176048553Y-85898553D01*
X174602706Y-87344400D01*
X165871615Y-87344400D01*
X165904400Y-87265250D01*
X165904400Y-87034750D01*
X165816192Y-86821796D01*
X165756800Y-86762404D01*
X165756800Y-86204400D01*
X165765250Y-86204400D01*
X165978204Y-86116192D01*
X166141192Y-85953204D01*
X166229400Y-85740250D01*
X166229400Y-85509750D01*
X166141192Y-85296796D01*
X165978204Y-85133808D01*
X165765250Y-85045600D01*
X165534750Y-85045600D01*
X165321796Y-85133808D01*
X165158808Y-85296796D01*
X165070600Y-85509750D01*
X165070600Y-85593742D01*
X165019671Y-85644671D01*
X164926069Y-85784757D01*
X164893200Y-85950000D01*
X164893200Y-86762404D01*
X164833808Y-86821796D01*
X164745600Y-87034750D01*
X164745600Y-87265250D01*
X164778385Y-87344400D01*
X160816538Y-87344400D01*
X157020691Y-83548553D01*
X156905327Y-83471468D01*
X156769244Y-83444400D01*
X146800000Y-83444400D01*
X146663917Y-83471468D01*
X146548553Y-83548553D01*
X143676760Y-86420346D01*
X131273240Y-86420346D01*
X128901447Y-84048553D01*
X128786083Y-83971468D01*
X128650000Y-83944400D01*
X116650000Y-83944400D01*
X116513918Y-83971468D01*
X116398553Y-84048553D01*
X115352706Y-85094400D01*
X112497335Y-85094400D01*
X112361253Y-85121468D01*
X112245888Y-85198553D01*
X112026506Y-85417935D01*
X111834750Y-85417935D01*
X111621796Y-85506143D01*
X111458808Y-85669131D01*
X111370600Y-85882085D01*
X111370600Y-86112585D01*
X111394525Y-86170345D01*
X99224055Y-86170345D01*
X99087973Y-86197413D01*
X99009165Y-86250071D01*
X98972608Y-86274498D01*
X98202706Y-87044400D01*
X88318296Y-87044400D01*
X88285504Y-87011608D01*
X88072550Y-86923400D01*
X87842050Y-86923400D01*
X87629096Y-87011608D01*
X87466108Y-87174596D01*
X87377900Y-87387550D01*
X87377900Y-87618050D01*
X87466108Y-87831004D01*
X87629096Y-87993992D01*
X87769167Y-88052011D01*
X87254905Y-88052011D01*
X85173244Y-85970350D01*
X85057880Y-85893265D01*
X84921797Y-85866197D01*
X82921096Y-85866197D01*
X82785504Y-85730605D01*
X82572550Y-85642397D01*
X82342050Y-85642397D01*
X82129096Y-85730605D01*
X81966108Y-85893593D01*
X81877900Y-86106547D01*
X81877900Y-86337047D01*
X81966108Y-86550001D01*
X82014106Y-86597999D01*
X81966108Y-86645996D01*
X81877900Y-86858950D01*
X81877900Y-87089450D01*
X81966108Y-87302404D01*
X82129096Y-87465392D01*
X82342050Y-87553600D01*
X82572550Y-87553600D01*
X82785504Y-87465392D01*
X82921096Y-87329800D01*
X85095840Y-87329800D01*
X86470438Y-88704400D01*
X84129279Y-88704400D01*
X83999847Y-88391923D01*
X83668077Y-88060153D01*
X83234597Y-87880600D01*
X82765403Y-87880600D01*
X82331923Y-88060153D01*
X82000153Y-88391923D01*
X81820600Y-88825403D01*
X81820600Y-89294597D01*
X82000153Y-89728077D01*
X82331923Y-90059847D01*
X82765403Y-90239400D01*
X83234597Y-90239400D01*
X83668077Y-90059847D01*
X83999847Y-89728077D01*
X84129279Y-89415600D01*
X94500100Y-89415600D01*
X94580600Y-89399588D01*
X94580600Y-89734597D01*
X94760153Y-90168077D01*
X95091923Y-90499847D01*
X95525403Y-90679400D01*
X95994597Y-90679400D01*
X96428077Y-90499847D01*
X96759847Y-90168077D01*
X96939400Y-89734597D01*
X96939400Y-89265403D01*
X96759847Y-88831923D01*
X96600757Y-88672833D01*
X97115127Y-88672833D01*
X97115127Y-90400000D01*
X97136812Y-90509016D01*
X97198564Y-90601436D01*
X97290984Y-90663188D01*
X97400000Y-90684873D01*
X98859265Y-90684873D01*
X98827275Y-90716863D01*
X98670550Y-91095230D01*
X98670550Y-91504770D01*
X98827275Y-91883137D01*
X99116863Y-92172725D01*
X99495230Y-92329450D01*
X99904770Y-92329450D01*
X100283137Y-92172725D01*
X100572725Y-91883137D01*
X100729450Y-91504770D01*
X100729450Y-91095230D01*
X100726269Y-91087550D01*
X105677900Y-91087550D01*
X105677900Y-91318050D01*
X105766108Y-91531004D01*
X105929096Y-91693992D01*
X106142050Y-91782200D01*
X106372550Y-91782200D01*
X106585504Y-91693992D01*
X106748492Y-91531004D01*
X106836700Y-91318050D01*
X106836700Y-91126294D01*
X107704592Y-90258402D01*
X112209991Y-90258402D01*
X112346074Y-90231334D01*
X112461438Y-90154249D01*
X112771465Y-89844222D01*
X112963221Y-89844222D01*
X113176175Y-89756014D01*
X113339163Y-89593026D01*
X113427371Y-89380072D01*
X113427371Y-89149572D01*
X113339163Y-88936618D01*
X113176175Y-88773630D01*
X112963221Y-88685422D01*
X112732721Y-88685422D01*
X112519767Y-88773630D01*
X112356779Y-88936618D01*
X112268571Y-89149572D01*
X112268571Y-89341328D01*
X112062697Y-89547202D01*
X107557298Y-89547202D01*
X107421215Y-89574270D01*
X107305851Y-89651355D01*
X106333806Y-90623400D01*
X106142050Y-90623400D01*
X105929096Y-90711608D01*
X105766108Y-90874596D01*
X105677900Y-91087550D01*
X100726269Y-91087550D01*
X100572725Y-90716863D01*
X100283137Y-90427275D01*
X99904770Y-90270550D01*
X99495230Y-90270550D01*
X99484873Y-90274840D01*
X99484873Y-88672833D01*
X100342867Y-88672833D01*
X100478950Y-88645765D01*
X100594314Y-88568680D01*
X101062205Y-88100789D01*
X101455378Y-88100789D01*
X101420600Y-88184750D01*
X101420600Y-88415250D01*
X101508808Y-88628204D01*
X101671796Y-88791192D01*
X101884750Y-88879400D01*
X102115250Y-88879400D01*
X102328204Y-88791192D01*
X102463796Y-88655600D01*
X116357206Y-88655600D01*
X117151700Y-89450094D01*
X117151700Y-92283327D01*
X116593100Y-91724727D01*
X116593100Y-90913796D01*
X116728692Y-90778204D01*
X116816900Y-90565250D01*
X116816900Y-90334750D01*
X116728692Y-90121796D01*
X116565704Y-89958808D01*
X116352750Y-89870600D01*
X116122250Y-89870600D01*
X115909296Y-89958808D01*
X115746308Y-90121796D01*
X115658100Y-90334750D01*
X115658100Y-90565250D01*
X115746308Y-90778204D01*
X115881900Y-90913796D01*
X115881900Y-91872021D01*
X115908968Y-92008104D01*
X115986053Y-92123468D01*
X116844400Y-92981815D01*
X116844400Y-93436204D01*
X116708808Y-93571796D01*
X116620600Y-93784750D01*
X116620600Y-94015250D01*
X116708808Y-94228204D01*
X116751204Y-94270600D01*
X55329400Y-94270600D01*
X55329400Y-91771000D01*
X57088127Y-91771000D01*
X57088127Y-93121000D01*
X57109812Y-93230016D01*
X57171564Y-93322436D01*
X57263984Y-93384188D01*
X57373000Y-93405873D01*
X58723000Y-93405873D01*
X58832016Y-93384188D01*
X58924436Y-93322436D01*
X58986188Y-93230016D01*
X58987394Y-93223949D01*
X59449656Y-93223949D01*
X59522301Y-93385628D01*
X59921898Y-93515279D01*
X60340693Y-93482142D01*
X60573699Y-93385628D01*
X60646344Y-93223949D01*
X61449656Y-93223949D01*
X61522301Y-93385628D01*
X61921898Y-93515279D01*
X62340693Y-93482142D01*
X62573699Y-93385628D01*
X62646344Y-93223949D01*
X63449656Y-93223949D01*
X63522301Y-93385628D01*
X63921898Y-93515279D01*
X64340693Y-93482142D01*
X64573699Y-93385628D01*
X64646344Y-93223949D01*
X65449656Y-93223949D01*
X65522301Y-93385628D01*
X65921898Y-93515279D01*
X66340693Y-93482142D01*
X66573699Y-93385628D01*
X66646344Y-93223949D01*
X66048000Y-92625605D01*
X65449656Y-93223949D01*
X64646344Y-93223949D01*
X64048000Y-92625605D01*
X63449656Y-93223949D01*
X62646344Y-93223949D01*
X62048000Y-92625605D01*
X61449656Y-93223949D01*
X60646344Y-93223949D01*
X60048000Y-92625605D01*
X59449656Y-93223949D01*
X58987394Y-93223949D01*
X59007873Y-93121000D01*
X59007873Y-92688329D01*
X59011858Y-92738693D01*
X59108372Y-92971699D01*
X59270051Y-93044344D01*
X59868395Y-92446000D01*
X60227605Y-92446000D01*
X60825949Y-93044344D01*
X60987628Y-92971699D01*
X61040664Y-92808237D01*
X61108372Y-92971699D01*
X61270051Y-93044344D01*
X61868395Y-92446000D01*
X62227605Y-92446000D01*
X62825949Y-93044344D01*
X62987628Y-92971699D01*
X63040664Y-92808237D01*
X63108372Y-92971699D01*
X63270051Y-93044344D01*
X63868395Y-92446000D01*
X64227605Y-92446000D01*
X64825949Y-93044344D01*
X64987628Y-92971699D01*
X65040664Y-92808237D01*
X65108372Y-92971699D01*
X65270051Y-93044344D01*
X65868395Y-92446000D01*
X66227605Y-92446000D01*
X66825949Y-93044344D01*
X66987628Y-92971699D01*
X67044884Y-92795230D01*
X80170550Y-92795230D01*
X80170550Y-93204770D01*
X80327275Y-93583137D01*
X80616863Y-93872725D01*
X80995230Y-94029450D01*
X81404770Y-94029450D01*
X81783137Y-93872725D01*
X82072725Y-93583137D01*
X82229450Y-93204770D01*
X82229450Y-92981277D01*
X93728328Y-92981277D01*
X93828679Y-93166296D01*
X94310034Y-93333638D01*
X94818787Y-93304036D01*
X95151321Y-93166296D01*
X95251672Y-92981277D01*
X96268328Y-92981277D01*
X96368679Y-93166296D01*
X96850034Y-93333638D01*
X97358787Y-93304036D01*
X97691321Y-93166296D01*
X97791672Y-92981277D01*
X97030000Y-92219605D01*
X96268328Y-92981277D01*
X95251672Y-92981277D01*
X94490000Y-92219605D01*
X93728328Y-92981277D01*
X82229450Y-92981277D01*
X82229450Y-92795230D01*
X82225160Y-92784873D01*
X83900000Y-92784873D01*
X84009016Y-92763188D01*
X84101436Y-92701436D01*
X84163188Y-92609016D01*
X84184873Y-92500000D01*
X84184873Y-91860034D01*
X93196362Y-91860034D01*
X93225964Y-92368787D01*
X93363704Y-92701321D01*
X93548723Y-92801672D01*
X94310395Y-92040000D01*
X94669605Y-92040000D01*
X95431277Y-92801672D01*
X95616296Y-92701321D01*
X95761080Y-92284853D01*
X95765964Y-92368787D01*
X95903704Y-92701321D01*
X96088723Y-92801672D01*
X96850395Y-92040000D01*
X97209605Y-92040000D01*
X97971277Y-92801672D01*
X98156296Y-92701321D01*
X98323638Y-92219966D01*
X98294036Y-91711213D01*
X98156296Y-91378679D01*
X97971277Y-91278328D01*
X97209605Y-92040000D01*
X96850395Y-92040000D01*
X96088723Y-91278328D01*
X95903704Y-91378679D01*
X95758920Y-91795147D01*
X95754036Y-91711213D01*
X95616296Y-91378679D01*
X95431277Y-91278328D01*
X94669605Y-92040000D01*
X94310395Y-92040000D01*
X93548723Y-91278328D01*
X93363704Y-91378679D01*
X93196362Y-91860034D01*
X84184873Y-91860034D01*
X84184873Y-91098723D01*
X93728328Y-91098723D01*
X94490000Y-91860395D01*
X95251672Y-91098723D01*
X96268328Y-91098723D01*
X97030000Y-91860395D01*
X97791672Y-91098723D01*
X97691321Y-90913704D01*
X97209966Y-90746362D01*
X96701213Y-90775964D01*
X96368679Y-90913704D01*
X96268328Y-91098723D01*
X95251672Y-91098723D01*
X95151321Y-90913704D01*
X94669966Y-90746362D01*
X94161213Y-90775964D01*
X93828679Y-90913704D01*
X93728328Y-91098723D01*
X84184873Y-91098723D01*
X84184873Y-90700000D01*
X84163188Y-90590984D01*
X84101436Y-90498564D01*
X84009016Y-90436812D01*
X83900000Y-90415127D01*
X82100000Y-90415127D01*
X81990984Y-90436812D01*
X81898564Y-90498564D01*
X81836812Y-90590984D01*
X81815127Y-90700000D01*
X81815127Y-92159265D01*
X81783137Y-92127275D01*
X81404770Y-91970550D01*
X80995230Y-91970550D01*
X80616863Y-92127275D01*
X80327275Y-92416863D01*
X80170550Y-92795230D01*
X67044884Y-92795230D01*
X67117279Y-92572102D01*
X67084142Y-92153307D01*
X66987628Y-91920301D01*
X66825949Y-91847656D01*
X66227605Y-92446000D01*
X65868395Y-92446000D01*
X65270051Y-91847656D01*
X65108372Y-91920301D01*
X65055336Y-92083763D01*
X64987628Y-91920301D01*
X64825949Y-91847656D01*
X64227605Y-92446000D01*
X63868395Y-92446000D01*
X63270051Y-91847656D01*
X63108372Y-91920301D01*
X63055336Y-92083763D01*
X62987628Y-91920301D01*
X62825949Y-91847656D01*
X62227605Y-92446000D01*
X61868395Y-92446000D01*
X61270051Y-91847656D01*
X61108372Y-91920301D01*
X61055336Y-92083763D01*
X60987628Y-91920301D01*
X60825949Y-91847656D01*
X60227605Y-92446000D01*
X59868395Y-92446000D01*
X59270051Y-91847656D01*
X59108372Y-91920301D01*
X59007873Y-92230049D01*
X59007873Y-91771000D01*
X58986188Y-91661984D01*
X58924436Y-91569564D01*
X58832016Y-91507812D01*
X58723000Y-91486127D01*
X57373000Y-91486127D01*
X57263984Y-91507812D01*
X57171564Y-91569564D01*
X57109812Y-91661984D01*
X57088127Y-91771000D01*
X55329400Y-91771000D01*
X55329400Y-90256158D01*
X57093600Y-90256158D01*
X57093600Y-90635842D01*
X57238899Y-90986624D01*
X57507376Y-91255101D01*
X57858158Y-91400400D01*
X58237842Y-91400400D01*
X58588624Y-91255101D01*
X58857101Y-90986624D01*
X59002400Y-90635842D01*
X59002400Y-90256158D01*
X59093600Y-90256158D01*
X59093600Y-90635842D01*
X59238899Y-90986624D01*
X59507376Y-91255101D01*
X59858158Y-91400400D01*
X59874840Y-91400400D01*
X59755307Y-91409858D01*
X59522301Y-91506372D01*
X59449656Y-91668051D01*
X60048000Y-92266395D01*
X60646344Y-91668051D01*
X60573699Y-91506372D01*
X60241901Y-91398719D01*
X60588624Y-91255101D01*
X60857101Y-90986624D01*
X61002400Y-90635842D01*
X61002400Y-90256158D01*
X61093600Y-90256158D01*
X61093600Y-90635842D01*
X61238899Y-90986624D01*
X61507376Y-91255101D01*
X61858158Y-91400400D01*
X61874840Y-91400400D01*
X61755307Y-91409858D01*
X61522301Y-91506372D01*
X61449656Y-91668051D01*
X62048000Y-92266395D01*
X62646344Y-91668051D01*
X62573699Y-91506372D01*
X62241901Y-91398719D01*
X62588624Y-91255101D01*
X62857101Y-90986624D01*
X63002400Y-90635842D01*
X63002400Y-90256158D01*
X63093600Y-90256158D01*
X63093600Y-90635842D01*
X63238899Y-90986624D01*
X63507376Y-91255101D01*
X63858158Y-91400400D01*
X63874840Y-91400400D01*
X63755307Y-91409858D01*
X63522301Y-91506372D01*
X63449656Y-91668051D01*
X64048000Y-92266395D01*
X64646344Y-91668051D01*
X64573699Y-91506372D01*
X64241901Y-91398719D01*
X64588624Y-91255101D01*
X64857101Y-90986624D01*
X65002400Y-90635842D01*
X65002400Y-90256158D01*
X65093600Y-90256158D01*
X65093600Y-90635842D01*
X65238899Y-90986624D01*
X65507376Y-91255101D01*
X65858158Y-91400400D01*
X65874840Y-91400400D01*
X65755307Y-91409858D01*
X65522301Y-91506372D01*
X65449656Y-91668051D01*
X66048000Y-92266395D01*
X66646344Y-91668051D01*
X66573699Y-91506372D01*
X66241901Y-91398719D01*
X66588624Y-91255101D01*
X66857101Y-90986624D01*
X66980981Y-90687550D01*
X73877900Y-90687550D01*
X73877900Y-90918050D01*
X73966108Y-91131004D01*
X74129096Y-91293992D01*
X74342050Y-91382200D01*
X74572550Y-91382200D01*
X74785504Y-91293992D01*
X74921096Y-91158400D01*
X76826925Y-91158400D01*
X76962517Y-91293992D01*
X77175471Y-91382200D01*
X77405971Y-91382200D01*
X77618925Y-91293992D01*
X77641640Y-91271277D01*
X79698328Y-91271277D01*
X79798679Y-91456296D01*
X80280034Y-91623638D01*
X80788787Y-91594036D01*
X81121321Y-91456296D01*
X81221672Y-91271277D01*
X80460000Y-90509605D01*
X79698328Y-91271277D01*
X77641640Y-91271277D01*
X77781913Y-91131004D01*
X77870121Y-90918050D01*
X77870121Y-90687550D01*
X77781913Y-90474596D01*
X77618925Y-90311608D01*
X77405971Y-90223400D01*
X77175471Y-90223400D01*
X76962517Y-90311608D01*
X76826925Y-90447200D01*
X74921096Y-90447200D01*
X74785504Y-90311608D01*
X74572550Y-90223400D01*
X74342050Y-90223400D01*
X74129096Y-90311608D01*
X73966108Y-90474596D01*
X73877900Y-90687550D01*
X66980981Y-90687550D01*
X67002400Y-90635842D01*
X67002400Y-90256158D01*
X66958442Y-90150034D01*
X79166362Y-90150034D01*
X79195964Y-90658787D01*
X79333704Y-90991321D01*
X79518723Y-91091672D01*
X80280395Y-90330000D01*
X80639605Y-90330000D01*
X81401277Y-91091672D01*
X81586296Y-90991321D01*
X81753638Y-90509966D01*
X81724036Y-90001213D01*
X81586296Y-89668679D01*
X81401277Y-89568328D01*
X80639605Y-90330000D01*
X80280395Y-90330000D01*
X79518723Y-89568328D01*
X79333704Y-89668679D01*
X79166362Y-90150034D01*
X66958442Y-90150034D01*
X66857101Y-89905376D01*
X66588624Y-89636899D01*
X66237842Y-89491600D01*
X65858158Y-89491600D01*
X65507376Y-89636899D01*
X65238899Y-89905376D01*
X65093600Y-90256158D01*
X65002400Y-90256158D01*
X64857101Y-89905376D01*
X64588624Y-89636899D01*
X64237842Y-89491600D01*
X63858158Y-89491600D01*
X63507376Y-89636899D01*
X63238899Y-89905376D01*
X63093600Y-90256158D01*
X63002400Y-90256158D01*
X62857101Y-89905376D01*
X62588624Y-89636899D01*
X62237842Y-89491600D01*
X61858158Y-89491600D01*
X61507376Y-89636899D01*
X61238899Y-89905376D01*
X61093600Y-90256158D01*
X61002400Y-90256158D01*
X60857101Y-89905376D01*
X60588624Y-89636899D01*
X60237842Y-89491600D01*
X59858158Y-89491600D01*
X59507376Y-89636899D01*
X59238899Y-89905376D01*
X59093600Y-90256158D01*
X59002400Y-90256158D01*
X58857101Y-89905376D01*
X58588624Y-89636899D01*
X58237842Y-89491600D01*
X57858158Y-89491600D01*
X57507376Y-89636899D01*
X57238899Y-89905376D01*
X57093600Y-90256158D01*
X55329400Y-90256158D01*
X55329400Y-87300000D01*
X71070600Y-87300000D01*
X71187019Y-87885276D01*
X71518551Y-88381449D01*
X72014724Y-88712981D01*
X72600000Y-88829400D01*
X73093296Y-88731277D01*
X79698328Y-88731277D01*
X79798679Y-88916296D01*
X80215147Y-89061080D01*
X80131213Y-89065964D01*
X79798679Y-89203704D01*
X79698328Y-89388723D01*
X80460000Y-90150395D01*
X81221672Y-89388723D01*
X81121321Y-89203704D01*
X80704853Y-89058920D01*
X80788787Y-89054036D01*
X81121321Y-88916296D01*
X81221672Y-88731277D01*
X80460000Y-87969605D01*
X79698328Y-88731277D01*
X73093296Y-88731277D01*
X73185276Y-88712981D01*
X73681449Y-88381449D01*
X74012981Y-87885276D01*
X74067730Y-87610034D01*
X79166362Y-87610034D01*
X79195964Y-88118787D01*
X79333704Y-88451321D01*
X79518723Y-88551672D01*
X80280395Y-87790000D01*
X80639605Y-87790000D01*
X81401277Y-88551672D01*
X81586296Y-88451321D01*
X81753638Y-87969966D01*
X81724036Y-87461213D01*
X81586296Y-87128679D01*
X81401277Y-87028328D01*
X80639605Y-87790000D01*
X80280395Y-87790000D01*
X79518723Y-87028328D01*
X79333704Y-87128679D01*
X79166362Y-87610034D01*
X74067730Y-87610034D01*
X74129400Y-87300000D01*
X74039636Y-86848723D01*
X79698328Y-86848723D01*
X80460000Y-87610395D01*
X81221672Y-86848723D01*
X81121321Y-86663704D01*
X80639966Y-86496362D01*
X80131213Y-86525964D01*
X79798679Y-86663704D01*
X79698328Y-86848723D01*
X74039636Y-86848723D01*
X74012981Y-86714724D01*
X73681449Y-86218551D01*
X73185276Y-85887019D01*
X72600000Y-85770600D01*
X72014724Y-85887019D01*
X71518551Y-86218551D01*
X71187019Y-86714724D01*
X71070600Y-87300000D01*
X55329400Y-87300000D01*
X55329400Y-80329400D01*
X92593224Y-80329400D01*
X92593224Y-84000000D01*
X92593224Y-84000000D01*
G37*
X92593224Y-84000000D02*
X92618298Y-84126056D01*
X92689703Y-84232921D01*
X92796568Y-84304326D01*
X92922624Y-84329400D01*
X94922624Y-84329400D01*
X95048680Y-84304326D01*
X95155545Y-84232921D01*
X95226950Y-84126056D01*
X95252024Y-84000000D01*
X95252024Y-80329400D01*
X133593224Y-80329400D01*
X133593224Y-84000000D01*
X133618298Y-84126056D01*
X133689703Y-84232921D01*
X133796568Y-84304326D01*
X133922624Y-84329400D01*
X135922624Y-84329400D01*
X136048680Y-84304326D01*
X136155545Y-84232921D01*
X136226950Y-84126056D01*
X136252024Y-84000000D01*
X136252024Y-80329400D01*
X174593224Y-80329400D01*
X174593224Y-84000000D01*
X174618298Y-84126056D01*
X174689703Y-84232921D01*
X174796568Y-84304326D01*
X174922624Y-84329400D01*
X176922624Y-84329400D01*
X177048680Y-84304326D01*
X177155545Y-84232921D01*
X177226950Y-84126056D01*
X177252024Y-84000000D01*
X177252024Y-80329400D01*
X215593224Y-80329400D01*
X215593224Y-84000000D01*
X215618298Y-84126056D01*
X215689703Y-84232921D01*
X215796568Y-84304326D01*
X215922624Y-84329400D01*
X217922624Y-84329400D01*
X218048680Y-84304326D01*
X218155545Y-84232921D01*
X218226950Y-84126056D01*
X218252024Y-84000000D01*
X218252024Y-80329400D01*
X244270600Y-80329400D01*
X244270600Y-94270600D01*
X240451521Y-94270600D01*
X240555011Y-94201449D01*
X240805660Y-93950800D01*
X240997416Y-93950800D01*
X241210370Y-93862592D01*
X241373358Y-93699604D01*
X241461566Y-93486650D01*
X241461566Y-93256150D01*
X241373358Y-93043196D01*
X241210370Y-92880208D01*
X240997416Y-92792000D01*
X240766916Y-92792000D01*
X240553962Y-92880208D01*
X240390974Y-93043196D01*
X240302766Y-93256150D01*
X240302766Y-93447906D01*
X240156270Y-93594402D01*
X239313796Y-93594402D01*
X239178204Y-93458810D01*
X238965250Y-93370602D01*
X238734750Y-93370602D01*
X238521796Y-93458810D01*
X238358808Y-93621798D01*
X238270600Y-93834752D01*
X238270600Y-94065252D01*
X238355658Y-94270600D01*
X237948796Y-94270600D01*
X238091192Y-94128204D01*
X238179400Y-93915250D01*
X238179400Y-93723494D01*
X239896078Y-92006816D01*
X240558802Y-92006816D01*
X240620039Y-92154695D01*
X240836193Y-92421987D01*
X241138182Y-92586214D01*
X241273000Y-92521565D01*
X241273000Y-91872000D01*
X240624581Y-91872000D01*
X240558802Y-92006816D01*
X239896078Y-92006816D01*
X240351447Y-91551447D01*
X240428532Y-91436083D01*
X240455600Y-91300000D01*
X240455600Y-89382294D01*
X240609904Y-89227990D01*
X240665822Y-89509107D01*
X240838084Y-89766916D01*
X240947462Y-89840000D01*
X240838084Y-89913084D01*
X240665822Y-90170893D01*
X240605331Y-90475000D01*
X240665822Y-90779107D01*
X240838084Y-91036916D01*
X240862893Y-91053493D01*
X240836193Y-91068013D01*
X240620039Y-91335305D01*
X240558802Y-91483184D01*
X240624581Y-91618000D01*
X241273000Y-91618000D01*
X241273000Y-91598000D01*
X241527000Y-91598000D01*
X241527000Y-91618000D01*
X241547000Y-91618000D01*
X241547000Y-91872000D01*
X241527000Y-91872000D01*
X241527000Y-92521565D01*
X241661818Y-92586214D01*
X241963807Y-92421987D01*
X242084910Y-92272233D01*
X242108084Y-92306916D01*
X242365893Y-92479178D01*
X242593238Y-92524400D01*
X242746762Y-92524400D01*
X242974107Y-92479178D01*
X243231916Y-92306916D01*
X243404178Y-92049107D01*
X243464669Y-91745000D01*
X243404178Y-91440893D01*
X243231916Y-91183084D01*
X243122538Y-91110000D01*
X243231916Y-91036916D01*
X243404178Y-90779107D01*
X243464669Y-90475000D01*
X243404178Y-90170893D01*
X243231916Y-89913084D01*
X243122538Y-89840000D01*
X243231916Y-89766916D01*
X243404178Y-89509107D01*
X243464669Y-89205000D01*
X243404178Y-88900893D01*
X243231916Y-88643084D01*
X243122538Y-88570000D01*
X243231916Y-88496916D01*
X243404178Y-88239107D01*
X243464669Y-87935000D01*
X243404178Y-87630893D01*
X243231916Y-87373084D01*
X243122538Y-87300000D01*
X243231916Y-87226916D01*
X243404178Y-86969107D01*
X243464669Y-86665000D01*
X243416260Y-86421634D01*
X243954859Y-85883035D01*
X244031944Y-85767671D01*
X244059012Y-85631588D01*
X244059012Y-82379015D01*
X244052127Y-82344400D01*
X244031944Y-82242932D01*
X243954859Y-82127568D01*
X243125844Y-81298553D01*
X243010480Y-81221468D01*
X242874397Y-81194400D01*
X240200000Y-81194400D01*
X240063918Y-81221468D01*
X240063916Y-81221469D01*
X240063917Y-81221469D01*
X239948552Y-81298553D01*
X239576506Y-81670600D01*
X239384750Y-81670600D01*
X239171796Y-81758808D01*
X239008808Y-81921796D01*
X238920600Y-82134750D01*
X238920600Y-82365250D01*
X239008808Y-82578204D01*
X239171796Y-82741192D01*
X239384750Y-82829400D01*
X239615250Y-82829400D01*
X239744400Y-82775905D01*
X239744400Y-86325004D01*
X239628204Y-86208808D01*
X239415250Y-86120600D01*
X239184750Y-86120600D01*
X238971796Y-86208808D01*
X238836204Y-86344400D01*
X238710100Y-86344400D01*
X238574018Y-86371468D01*
X238563937Y-86378204D01*
X238458652Y-86448553D01*
X235464816Y-89442390D01*
X233830850Y-89442390D01*
X231688460Y-87300000D01*
X233070600Y-87300000D01*
X233187019Y-87885276D01*
X233518551Y-88381449D01*
X234014724Y-88712981D01*
X234600000Y-88829400D01*
X235185276Y-88712981D01*
X235681449Y-88381449D01*
X236012981Y-87885276D01*
X236129400Y-87300000D01*
X236012981Y-86714724D01*
X235681449Y-86218551D01*
X235185276Y-85887019D01*
X234600000Y-85770600D01*
X234014724Y-85887019D01*
X233518551Y-86218551D01*
X233187019Y-86714724D01*
X233070600Y-87300000D01*
X231688460Y-87300000D01*
X230187013Y-85798553D01*
X230071649Y-85721468D01*
X229935566Y-85694400D01*
X228425905Y-85694400D01*
X228479400Y-85565250D01*
X228479400Y-85445336D01*
X228568336Y-85356400D01*
X236431664Y-85356400D01*
X236670600Y-85595336D01*
X236670600Y-85715250D01*
X236758808Y-85928204D01*
X236921796Y-86091192D01*
X237134750Y-86179400D01*
X237365250Y-86179400D01*
X237578204Y-86091192D01*
X237741192Y-85928204D01*
X237829400Y-85715250D01*
X237829400Y-85484750D01*
X237741192Y-85271796D01*
X237578204Y-85108808D01*
X237365250Y-85020600D01*
X237245336Y-85020600D01*
X236887368Y-84662632D01*
X236816980Y-84615600D01*
X236755523Y-84574535D01*
X236600000Y-84543600D01*
X228400000Y-84543600D01*
X228244477Y-84574535D01*
X228112632Y-84662632D01*
X227904664Y-84870600D01*
X227784750Y-84870600D01*
X227571796Y-84958808D01*
X227537004Y-84993600D01*
X214262996Y-84993600D01*
X214178204Y-84908808D01*
X213965250Y-84820600D01*
X213734750Y-84820600D01*
X213521796Y-84908808D01*
X213358808Y-85071796D01*
X213270600Y-85284750D01*
X213270600Y-85515250D01*
X213358808Y-85728204D01*
X213521796Y-85891192D01*
X213734750Y-85979400D01*
X213965250Y-85979400D01*
X214178204Y-85891192D01*
X214262996Y-85806400D01*
X221373768Y-85806400D01*
X221320604Y-85934750D01*
X221320604Y-86165250D01*
X221344526Y-86223003D01*
X212231448Y-86223003D01*
X212095365Y-86250071D01*
X211980001Y-86327156D01*
X211633349Y-86673808D01*
X211565250Y-86645600D01*
X211334750Y-86645600D01*
X211121796Y-86733808D01*
X210958808Y-86896796D01*
X210870600Y-87109750D01*
X210870600Y-87340250D01*
X210958808Y-87553204D01*
X211018104Y-87612500D01*
X210958808Y-87671796D01*
X210870600Y-87884750D01*
X210870600Y-88115250D01*
X210958808Y-88328204D01*
X211018104Y-88387500D01*
X210958808Y-88446796D01*
X210870600Y-88659750D01*
X210870600Y-88890250D01*
X210958808Y-89103204D01*
X211018104Y-89162500D01*
X210958808Y-89221796D01*
X210870600Y-89434750D01*
X210870600Y-89665250D01*
X210958808Y-89878204D01*
X211018104Y-89937500D01*
X210958808Y-89996796D01*
X210870600Y-90209750D01*
X210870600Y-90440250D01*
X210958808Y-90653204D01*
X211018104Y-90712500D01*
X210958808Y-90771796D01*
X210870600Y-90984750D01*
X210870600Y-91215250D01*
X210958808Y-91428204D01*
X211121796Y-91591192D01*
X211334750Y-91679400D01*
X211565250Y-91679400D01*
X211778204Y-91591192D01*
X211941192Y-91428204D01*
X212029400Y-91215250D01*
X212029400Y-91098723D01*
X216728328Y-91098723D01*
X217490000Y-91860395D01*
X218251672Y-91098723D01*
X219268328Y-91098723D01*
X220030000Y-91860395D01*
X220791672Y-91098723D01*
X220691321Y-90913704D01*
X220209966Y-90746362D01*
X219701213Y-90775964D01*
X219368679Y-90913704D01*
X219268328Y-91098723D01*
X218251672Y-91098723D01*
X218151321Y-90913704D01*
X217669966Y-90746362D01*
X217161213Y-90775964D01*
X216828679Y-90913704D01*
X216728328Y-91098723D01*
X212029400Y-91098723D01*
X212029400Y-91083594D01*
X214585350Y-88527644D01*
X218064432Y-88527644D01*
X217760153Y-88831923D01*
X217580600Y-89265403D01*
X217580600Y-89734597D01*
X217760153Y-90168077D01*
X218091923Y-90499847D01*
X218525403Y-90679400D01*
X218994597Y-90679400D01*
X219428077Y-90499847D01*
X219759847Y-90168077D01*
X219939400Y-89734597D01*
X219939400Y-89265403D01*
X219759847Y-88831923D01*
X219455568Y-88527644D01*
X220129520Y-88527644D01*
X220115127Y-88600000D01*
X220115127Y-90400000D01*
X220136812Y-90509016D01*
X220198564Y-90601436D01*
X220290984Y-90663188D01*
X220400000Y-90684873D01*
X221859265Y-90684873D01*
X221827275Y-90716863D01*
X221670550Y-91095230D01*
X221670550Y-91504770D01*
X221827275Y-91883137D01*
X222116863Y-92172725D01*
X222495230Y-92329450D01*
X222904770Y-92329450D01*
X223283137Y-92172725D01*
X223572725Y-91883137D01*
X223729450Y-91504770D01*
X223729450Y-91095230D01*
X223572725Y-90716863D01*
X223283137Y-90427275D01*
X222904770Y-90270550D01*
X222495230Y-90270550D01*
X222484873Y-90274840D01*
X222484873Y-88600000D01*
X222470480Y-88527644D01*
X226302960Y-88527644D01*
X226208808Y-88621796D01*
X226120600Y-88834750D01*
X226120600Y-89065250D01*
X226208808Y-89278204D01*
X226371796Y-89441192D01*
X226584750Y-89529400D01*
X226776506Y-89529400D01*
X229308326Y-92061220D01*
X229308326Y-92196044D01*
X229396534Y-92408998D01*
X229559522Y-92571986D01*
X229772476Y-92660194D01*
X230002976Y-92660194D01*
X230215930Y-92571986D01*
X230378918Y-92408998D01*
X230402843Y-92351237D01*
X231108428Y-93056822D01*
X220750698Y-93056822D01*
X220791672Y-92981277D01*
X220030000Y-92219605D01*
X219268328Y-92981277D01*
X219309302Y-93056822D01*
X218210698Y-93056822D01*
X218251672Y-92981277D01*
X217490000Y-92219605D01*
X216728328Y-92981277D01*
X216769302Y-93056822D01*
X215814216Y-93056822D01*
X215386700Y-92629306D01*
X215386700Y-92437550D01*
X215298492Y-92224596D01*
X215135504Y-92061608D01*
X214922550Y-91973400D01*
X214692050Y-91973400D01*
X214479096Y-92061608D01*
X214316108Y-92224596D01*
X214227900Y-92437550D01*
X214227900Y-92668050D01*
X214316108Y-92881004D01*
X214479096Y-93043992D01*
X214692050Y-93132200D01*
X214883806Y-93132200D01*
X215113239Y-93361633D01*
X203161556Y-93361633D01*
X203185477Y-93303883D01*
X203185477Y-93073383D01*
X203097269Y-92860429D01*
X202934281Y-92697441D01*
X202721327Y-92609233D01*
X202529571Y-92609233D01*
X201780372Y-91860034D01*
X216196362Y-91860034D01*
X216225964Y-92368787D01*
X216363704Y-92701321D01*
X216548723Y-92801672D01*
X217310395Y-92040000D01*
X217669605Y-92040000D01*
X218431277Y-92801672D01*
X218616296Y-92701321D01*
X218761080Y-92284853D01*
X218765964Y-92368787D01*
X218903704Y-92701321D01*
X219088723Y-92801672D01*
X219850395Y-92040000D01*
X220209605Y-92040000D01*
X220971277Y-92801672D01*
X221156296Y-92701321D01*
X221323638Y-92219966D01*
X221294036Y-91711213D01*
X221156296Y-91378679D01*
X220971277Y-91278328D01*
X220209605Y-92040000D01*
X219850395Y-92040000D01*
X219088723Y-91278328D01*
X218903704Y-91378679D01*
X218758920Y-91795147D01*
X218754036Y-91711213D01*
X218616296Y-91378679D01*
X218431277Y-91278328D01*
X217669605Y-92040000D01*
X217310395Y-92040000D01*
X216548723Y-91278328D01*
X216363704Y-91378679D01*
X216196362Y-91860034D01*
X201780372Y-91860034D01*
X201721691Y-91801353D01*
X201606327Y-91724268D01*
X201470244Y-91697200D01*
X197409746Y-91697200D01*
X197363807Y-91706338D01*
X197313073Y-91685323D01*
X197082573Y-91685323D01*
X196869619Y-91773531D01*
X196706631Y-91936519D01*
X196618423Y-92149473D01*
X196618423Y-92379973D01*
X196646269Y-92447199D01*
X189078857Y-92447199D01*
X188933011Y-92301353D01*
X188817647Y-92224268D01*
X188730912Y-92207016D01*
X188585504Y-92061608D01*
X188372550Y-91973400D01*
X188142050Y-91973400D01*
X187929096Y-92061608D01*
X187766108Y-92224596D01*
X187677900Y-92437550D01*
X187677900Y-92531119D01*
X187667647Y-92524268D01*
X187580912Y-92507016D01*
X187435504Y-92361608D01*
X187222550Y-92273400D01*
X186992050Y-92273400D01*
X186779096Y-92361608D01*
X186616108Y-92524596D01*
X186527900Y-92737550D01*
X186527900Y-92968050D01*
X186566733Y-93061802D01*
X174041092Y-93061802D01*
X174273494Y-92829400D01*
X174465250Y-92829400D01*
X174678204Y-92741192D01*
X174841192Y-92578204D01*
X174929400Y-92365250D01*
X174929400Y-92134750D01*
X174841192Y-91921796D01*
X174678204Y-91758808D01*
X174465250Y-91670600D01*
X174234750Y-91670600D01*
X174021796Y-91758808D01*
X173858808Y-91921796D01*
X173853070Y-91935649D01*
X173848492Y-91924596D01*
X173685504Y-91761608D01*
X173472550Y-91673400D01*
X173242050Y-91673400D01*
X173029096Y-91761608D01*
X172866108Y-91924596D01*
X172832300Y-92006216D01*
X172798492Y-91924596D01*
X172635504Y-91761608D01*
X172422550Y-91673400D01*
X172192050Y-91673400D01*
X171979096Y-91761608D01*
X171816108Y-91924596D01*
X171727900Y-92137550D01*
X171727900Y-92147200D01*
X147354593Y-92147200D01*
X146908747Y-91701354D01*
X146793383Y-91624269D01*
X146657300Y-91597201D01*
X145707297Y-91597201D01*
X145571214Y-91624269D01*
X145455850Y-91701354D01*
X145183804Y-91973400D01*
X144992048Y-91973400D01*
X144779094Y-92061608D01*
X144616106Y-92224596D01*
X144596299Y-92272415D01*
X144585492Y-92261608D01*
X144372538Y-92173400D01*
X144142038Y-92173400D01*
X143929084Y-92261608D01*
X143766096Y-92424596D01*
X143677888Y-92637550D01*
X143677888Y-92868050D01*
X143758142Y-93061802D01*
X136207997Y-93061802D01*
X136251672Y-92981277D01*
X135490000Y-92219605D01*
X134728328Y-92981277D01*
X134772003Y-93061802D01*
X131292128Y-93061802D01*
X130643116Y-92412790D01*
X130643116Y-92221034D01*
X130554908Y-92008080D01*
X130391920Y-91845092D01*
X130278553Y-91798134D01*
X130728738Y-91798134D01*
X130796796Y-91866192D01*
X131009750Y-91954400D01*
X131240250Y-91954400D01*
X131453204Y-91866192D01*
X131459362Y-91860034D01*
X134196362Y-91860034D01*
X134225964Y-92368787D01*
X134363704Y-92701321D01*
X134548723Y-92801672D01*
X135310395Y-92040000D01*
X135669605Y-92040000D01*
X136431277Y-92801672D01*
X136616296Y-92701321D01*
X136783638Y-92219966D01*
X136754036Y-91711213D01*
X136616296Y-91378679D01*
X136431277Y-91278328D01*
X135669605Y-92040000D01*
X135310395Y-92040000D01*
X134548723Y-91278328D01*
X134363704Y-91378679D01*
X134196362Y-91860034D01*
X131459362Y-91860034D01*
X131616192Y-91703204D01*
X131704400Y-91490250D01*
X131704400Y-91259750D01*
X131637701Y-91098723D01*
X134728328Y-91098723D01*
X135490000Y-91860395D01*
X136251672Y-91098723D01*
X136151321Y-90913704D01*
X135669966Y-90746362D01*
X135161213Y-90775964D01*
X134828679Y-90913704D01*
X134728328Y-91098723D01*
X131637701Y-91098723D01*
X131626314Y-91071233D01*
X133509410Y-91071233D01*
X133588682Y-91087001D01*
X134478699Y-91087001D01*
X134614782Y-91059933D01*
X134730146Y-90982848D01*
X134930794Y-90782200D01*
X135122550Y-90782200D01*
X135335504Y-90693992D01*
X135498492Y-90531004D01*
X135586700Y-90318050D01*
X135586700Y-90087550D01*
X135498492Y-89874596D01*
X135335504Y-89711608D01*
X135122550Y-89623400D01*
X134892050Y-89623400D01*
X134679096Y-89711608D01*
X134532300Y-89858404D01*
X134385504Y-89711608D01*
X134172550Y-89623400D01*
X134165404Y-89623400D01*
X134380794Y-89408010D01*
X134572550Y-89408010D01*
X134785504Y-89319802D01*
X134948492Y-89156814D01*
X135036700Y-88943860D01*
X135036700Y-88713360D01*
X135012775Y-88655600D01*
X135936476Y-88655600D01*
X135760153Y-88831923D01*
X135580600Y-89265403D01*
X135580600Y-89734597D01*
X135760153Y-90168077D01*
X136091923Y-90499847D01*
X136525403Y-90679400D01*
X136994597Y-90679400D01*
X137428077Y-90499847D01*
X137759847Y-90168077D01*
X137939400Y-89734597D01*
X137939400Y-89265403D01*
X137759847Y-88831923D01*
X137583524Y-88655600D01*
X138115127Y-88655600D01*
X138115127Y-90400000D01*
X138136812Y-90509016D01*
X138198564Y-90601436D01*
X138290984Y-90663188D01*
X138400000Y-90684873D01*
X139859265Y-90684873D01*
X139827275Y-90716863D01*
X139670550Y-91095230D01*
X139670550Y-91504770D01*
X139827275Y-91883137D01*
X140116863Y-92172725D01*
X140495230Y-92329450D01*
X140904770Y-92329450D01*
X141283137Y-92172725D01*
X141572725Y-91883137D01*
X141729450Y-91504770D01*
X141729450Y-91095230D01*
X141572725Y-90716863D01*
X141283137Y-90427275D01*
X140904770Y-90270550D01*
X140495230Y-90270550D01*
X140484873Y-90274840D01*
X140484873Y-88655600D01*
X149305138Y-88655600D01*
X150401866Y-89752328D01*
X150401866Y-89944084D01*
X150490074Y-90157038D01*
X150653062Y-90320026D01*
X150866016Y-90408234D01*
X151096516Y-90408234D01*
X151309470Y-90320026D01*
X151472458Y-90157038D01*
X151497907Y-90095599D01*
X151597594Y-90162209D01*
X151733677Y-90189277D01*
X175633792Y-90189277D01*
X175769875Y-90162209D01*
X175885239Y-90085124D01*
X176580600Y-89389763D01*
X176580600Y-89734597D01*
X176760153Y-90168077D01*
X177091923Y-90499847D01*
X177525403Y-90679400D01*
X177994597Y-90679400D01*
X178428077Y-90499847D01*
X178759847Y-90168077D01*
X178939400Y-89734597D01*
X178939400Y-89265403D01*
X178759847Y-88831923D01*
X178567201Y-88639277D01*
X179115127Y-88639277D01*
X179115127Y-90400000D01*
X179136812Y-90509016D01*
X179198564Y-90601436D01*
X179290984Y-90663188D01*
X179400000Y-90684873D01*
X180859265Y-90684873D01*
X180827275Y-90716863D01*
X180670550Y-91095230D01*
X180670550Y-91504770D01*
X180827275Y-91883137D01*
X181116863Y-92172725D01*
X181495230Y-92329450D01*
X181904770Y-92329450D01*
X182283137Y-92172725D01*
X182572725Y-91883137D01*
X182729450Y-91504770D01*
X182729450Y-91095230D01*
X182572725Y-90716863D01*
X182283137Y-90427275D01*
X181904770Y-90270550D01*
X181495230Y-90270550D01*
X181484873Y-90274840D01*
X181484873Y-88639277D01*
X191893149Y-88639277D01*
X192317344Y-89063472D01*
X192432708Y-89140557D01*
X192568791Y-89167625D01*
X193340486Y-89167625D01*
X193476569Y-89140557D01*
X193591933Y-89063472D01*
X194105405Y-88550000D01*
X195765127Y-88550000D01*
X195765127Y-90250000D01*
X195786812Y-90359016D01*
X195848564Y-90451436D01*
X195940984Y-90513188D01*
X196050000Y-90534873D01*
X197750000Y-90534873D01*
X197859016Y-90513188D01*
X197951436Y-90451436D01*
X198013188Y-90359016D01*
X198034873Y-90250000D01*
X198034873Y-89400000D01*
X198288474Y-89400000D01*
X198376129Y-89840670D01*
X198625748Y-90214252D01*
X198999330Y-90463871D01*
X199328765Y-90529400D01*
X199551235Y-90529400D01*
X199880670Y-90463871D01*
X200254252Y-90214252D01*
X200503871Y-89840670D01*
X200591526Y-89400000D01*
X200828474Y-89400000D01*
X200916129Y-89840670D01*
X201165748Y-90214252D01*
X201539330Y-90463871D01*
X201868765Y-90529400D01*
X202091235Y-90529400D01*
X202420670Y-90463871D01*
X202794252Y-90214252D01*
X203043871Y-89840670D01*
X203131526Y-89400000D01*
X203043871Y-88959330D01*
X202794252Y-88585748D01*
X202420670Y-88336129D01*
X202091235Y-88270600D01*
X201868765Y-88270600D01*
X201539330Y-88336129D01*
X201165748Y-88585748D01*
X200916129Y-88959330D01*
X200828474Y-89400000D01*
X200591526Y-89400000D01*
X200503871Y-88959330D01*
X200254252Y-88585748D01*
X199880670Y-88336129D01*
X199551235Y-88270600D01*
X199328765Y-88270600D01*
X198999330Y-88336129D01*
X198625748Y-88585748D01*
X198376129Y-88959330D01*
X198288474Y-89400000D01*
X198034873Y-89400000D01*
X198034873Y-88550000D01*
X198013188Y-88440984D01*
X197951436Y-88348564D01*
X197859016Y-88286812D01*
X197750000Y-88265127D01*
X196050000Y-88265127D01*
X195940984Y-88286812D01*
X195848564Y-88348564D01*
X195786812Y-88440984D01*
X195765127Y-88550000D01*
X194105405Y-88550000D01*
X195756260Y-86899145D01*
X195836129Y-87300670D01*
X196085748Y-87674252D01*
X196459330Y-87923871D01*
X196788765Y-87989400D01*
X197011235Y-87989400D01*
X197340670Y-87923871D01*
X197714252Y-87674252D01*
X197963871Y-87300670D01*
X198051526Y-86860000D01*
X197963871Y-86419330D01*
X197760673Y-86115222D01*
X198579327Y-86115222D01*
X198376129Y-86419330D01*
X198288474Y-86860000D01*
X198376129Y-87300670D01*
X198625748Y-87674252D01*
X198999330Y-87923871D01*
X199328765Y-87989400D01*
X199551235Y-87989400D01*
X199880670Y-87923871D01*
X200254252Y-87674252D01*
X200503871Y-87300670D01*
X200528474Y-87176982D01*
X200790499Y-87176982D01*
X201002348Y-87608056D01*
X201363036Y-87925245D01*
X201663020Y-88049489D01*
X201853000Y-87988627D01*
X201853000Y-86987000D01*
X202107000Y-86987000D01*
X202107000Y-87988627D01*
X202296980Y-88049489D01*
X202596964Y-87925245D01*
X202957652Y-87608056D01*
X203169501Y-87176982D01*
X203109193Y-86987000D01*
X202107000Y-86987000D01*
X201853000Y-86987000D01*
X200850807Y-86987000D01*
X200790499Y-87176982D01*
X200528474Y-87176982D01*
X200591526Y-86860000D01*
X200503871Y-86419330D01*
X200300673Y-86115222D01*
X201000737Y-86115222D01*
X200790499Y-86543018D01*
X200850807Y-86733000D01*
X201853000Y-86733000D01*
X201853000Y-86713000D01*
X202107000Y-86713000D01*
X202107000Y-86733000D01*
X203109193Y-86733000D01*
X203126280Y-86679174D01*
X203401701Y-86954595D01*
X203401701Y-88989004D01*
X203266109Y-89124596D01*
X203177901Y-89337550D01*
X203177901Y-89568050D01*
X203266109Y-89781004D01*
X203429097Y-89943992D01*
X203642051Y-90032200D01*
X203872551Y-90032200D01*
X204085505Y-89943992D01*
X204248493Y-89781004D01*
X204336701Y-89568050D01*
X204336701Y-89337550D01*
X204248493Y-89124596D01*
X204112901Y-88989004D01*
X204112901Y-88777860D01*
X206370600Y-91035559D01*
X206370600Y-91215250D01*
X206458808Y-91428204D01*
X206621796Y-91591192D01*
X206834750Y-91679400D01*
X207065250Y-91679400D01*
X207278204Y-91591192D01*
X207441192Y-91428204D01*
X207529400Y-91215250D01*
X207529400Y-90984750D01*
X207441192Y-90771796D01*
X207381896Y-90712500D01*
X207441192Y-90653204D01*
X207529400Y-90440250D01*
X207529400Y-90209750D01*
X207441192Y-89996796D01*
X207381896Y-89937500D01*
X207441192Y-89878204D01*
X207529400Y-89665250D01*
X207529400Y-89434750D01*
X207441192Y-89221796D01*
X207381896Y-89162500D01*
X207441192Y-89103204D01*
X207529400Y-88890250D01*
X207529400Y-88659750D01*
X207441192Y-88446796D01*
X207381896Y-88387500D01*
X207441192Y-88328204D01*
X207529400Y-88115250D01*
X207529400Y-87884750D01*
X207441192Y-87671796D01*
X207381896Y-87612500D01*
X207441192Y-87553204D01*
X207529400Y-87340250D01*
X207529400Y-87109750D01*
X207441192Y-86896796D01*
X207278204Y-86733808D01*
X207065250Y-86645600D01*
X206834750Y-86645600D01*
X206773758Y-86670864D01*
X203632203Y-83529309D01*
X203516839Y-83452224D01*
X203380756Y-83425156D01*
X195300000Y-83425156D01*
X195163917Y-83452224D01*
X195048553Y-83529309D01*
X192783462Y-85794400D01*
X176300000Y-85794400D01*
X176163917Y-85821468D01*
X176048553Y-85898553D01*
X174602706Y-87344400D01*
X165871615Y-87344400D01*
X165904400Y-87265250D01*
X165904400Y-87034750D01*
X165816192Y-86821796D01*
X165756800Y-86762404D01*
X165756800Y-86204400D01*
X165765250Y-86204400D01*
X165978204Y-86116192D01*
X166141192Y-85953204D01*
X166229400Y-85740250D01*
X166229400Y-85509750D01*
X166141192Y-85296796D01*
X165978204Y-85133808D01*
X165765250Y-85045600D01*
X165534750Y-85045600D01*
X165321796Y-85133808D01*
X165158808Y-85296796D01*
X165070600Y-85509750D01*
X165070600Y-85593742D01*
X165019671Y-85644671D01*
X164926069Y-85784757D01*
X164893200Y-85950000D01*
X164893200Y-86762404D01*
X164833808Y-86821796D01*
X164745600Y-87034750D01*
X164745600Y-87265250D01*
X164778385Y-87344400D01*
X160816538Y-87344400D01*
X157020691Y-83548553D01*
X156905327Y-83471468D01*
X156769244Y-83444400D01*
X146800000Y-83444400D01*
X146663917Y-83471468D01*
X146548553Y-83548553D01*
X143676760Y-86420346D01*
X131273240Y-86420346D01*
X128901447Y-84048553D01*
X128786083Y-83971468D01*
X128650000Y-83944400D01*
X116650000Y-83944400D01*
X116513918Y-83971468D01*
X116398553Y-84048553D01*
X115352706Y-85094400D01*
X112497335Y-85094400D01*
X112361253Y-85121468D01*
X112245888Y-85198553D01*
X112026506Y-85417935D01*
X111834750Y-85417935D01*
X111621796Y-85506143D01*
X111458808Y-85669131D01*
X111370600Y-85882085D01*
X111370600Y-86112585D01*
X111394525Y-86170345D01*
X99224055Y-86170345D01*
X99087973Y-86197413D01*
X99009165Y-86250071D01*
X98972608Y-86274498D01*
X98202706Y-87044400D01*
X88318296Y-87044400D01*
X88285504Y-87011608D01*
X88072550Y-86923400D01*
X87842050Y-86923400D01*
X87629096Y-87011608D01*
X87466108Y-87174596D01*
X87377900Y-87387550D01*
X87377900Y-87618050D01*
X87466108Y-87831004D01*
X87629096Y-87993992D01*
X87769167Y-88052011D01*
X87254905Y-88052011D01*
X85173244Y-85970350D01*
X85057880Y-85893265D01*
X84921797Y-85866197D01*
X82921096Y-85866197D01*
X82785504Y-85730605D01*
X82572550Y-85642397D01*
X82342050Y-85642397D01*
X82129096Y-85730605D01*
X81966108Y-85893593D01*
X81877900Y-86106547D01*
X81877900Y-86337047D01*
X81966108Y-86550001D01*
X82014106Y-86597999D01*
X81966108Y-86645996D01*
X81877900Y-86858950D01*
X81877900Y-87089450D01*
X81966108Y-87302404D01*
X82129096Y-87465392D01*
X82342050Y-87553600D01*
X82572550Y-87553600D01*
X82785504Y-87465392D01*
X82921096Y-87329800D01*
X85095840Y-87329800D01*
X86470438Y-88704400D01*
X84129279Y-88704400D01*
X83999847Y-88391923D01*
X83668077Y-88060153D01*
X83234597Y-87880600D01*
X82765403Y-87880600D01*
X82331923Y-88060153D01*
X82000153Y-88391923D01*
X81820600Y-88825403D01*
X81820600Y-89294597D01*
X82000153Y-89728077D01*
X82331923Y-90059847D01*
X82765403Y-90239400D01*
X83234597Y-90239400D01*
X83668077Y-90059847D01*
X83999847Y-89728077D01*
X84129279Y-89415600D01*
X94500100Y-89415600D01*
X94580600Y-89399588D01*
X94580600Y-89734597D01*
X94760153Y-90168077D01*
X95091923Y-90499847D01*
X95525403Y-90679400D01*
X95994597Y-90679400D01*
X96428077Y-90499847D01*
X96759847Y-90168077D01*
X96939400Y-89734597D01*
X96939400Y-89265403D01*
X96759847Y-88831923D01*
X96600757Y-88672833D01*
X97115127Y-88672833D01*
X97115127Y-90400000D01*
X97136812Y-90509016D01*
X97198564Y-90601436D01*
X97290984Y-90663188D01*
X97400000Y-90684873D01*
X98859265Y-90684873D01*
X98827275Y-90716863D01*
X98670550Y-91095230D01*
X98670550Y-91504770D01*
X98827275Y-91883137D01*
X99116863Y-92172725D01*
X99495230Y-92329450D01*
X99904770Y-92329450D01*
X100283137Y-92172725D01*
X100572725Y-91883137D01*
X100729450Y-91504770D01*
X100729450Y-91095230D01*
X100726269Y-91087550D01*
X105677900Y-91087550D01*
X105677900Y-91318050D01*
X105766108Y-91531004D01*
X105929096Y-91693992D01*
X106142050Y-91782200D01*
X106372550Y-91782200D01*
X106585504Y-91693992D01*
X106748492Y-91531004D01*
X106836700Y-91318050D01*
X106836700Y-91126294D01*
X107704592Y-90258402D01*
X112209991Y-90258402D01*
X112346074Y-90231334D01*
X112461438Y-90154249D01*
X112771465Y-89844222D01*
X112963221Y-89844222D01*
X113176175Y-89756014D01*
X113339163Y-89593026D01*
X113427371Y-89380072D01*
X113427371Y-89149572D01*
X113339163Y-88936618D01*
X113176175Y-88773630D01*
X112963221Y-88685422D01*
X112732721Y-88685422D01*
X112519767Y-88773630D01*
X112356779Y-88936618D01*
X112268571Y-89149572D01*
X112268571Y-89341328D01*
X112062697Y-89547202D01*
X107557298Y-89547202D01*
X107421215Y-89574270D01*
X107305851Y-89651355D01*
X106333806Y-90623400D01*
X106142050Y-90623400D01*
X105929096Y-90711608D01*
X105766108Y-90874596D01*
X105677900Y-91087550D01*
X100726269Y-91087550D01*
X100572725Y-90716863D01*
X100283137Y-90427275D01*
X99904770Y-90270550D01*
X99495230Y-90270550D01*
X99484873Y-90274840D01*
X99484873Y-88672833D01*
X100342867Y-88672833D01*
X100478950Y-88645765D01*
X100594314Y-88568680D01*
X101062205Y-88100789D01*
X101455378Y-88100789D01*
X101420600Y-88184750D01*
X101420600Y-88415250D01*
X101508808Y-88628204D01*
X101671796Y-88791192D01*
X101884750Y-88879400D01*
X102115250Y-88879400D01*
X102328204Y-88791192D01*
X102463796Y-88655600D01*
X116357206Y-88655600D01*
X117151700Y-89450094D01*
X117151700Y-92283327D01*
X116593100Y-91724727D01*
X116593100Y-90913796D01*
X116728692Y-90778204D01*
X116816900Y-90565250D01*
X116816900Y-90334750D01*
X116728692Y-90121796D01*
X116565704Y-89958808D01*
X116352750Y-89870600D01*
X116122250Y-89870600D01*
X115909296Y-89958808D01*
X115746308Y-90121796D01*
X115658100Y-90334750D01*
X115658100Y-90565250D01*
X115746308Y-90778204D01*
X115881900Y-90913796D01*
X115881900Y-91872021D01*
X115908968Y-92008104D01*
X115986053Y-92123468D01*
X116844400Y-92981815D01*
X116844400Y-93436204D01*
X116708808Y-93571796D01*
X116620600Y-93784750D01*
X116620600Y-94015250D01*
X116708808Y-94228204D01*
X116751204Y-94270600D01*
X55329400Y-94270600D01*
X55329400Y-91771000D01*
X57088127Y-91771000D01*
X57088127Y-93121000D01*
X57109812Y-93230016D01*
X57171564Y-93322436D01*
X57263984Y-93384188D01*
X57373000Y-93405873D01*
X58723000Y-93405873D01*
X58832016Y-93384188D01*
X58924436Y-93322436D01*
X58986188Y-93230016D01*
X58987394Y-93223949D01*
X59449656Y-93223949D01*
X59522301Y-93385628D01*
X59921898Y-93515279D01*
X60340693Y-93482142D01*
X60573699Y-93385628D01*
X60646344Y-93223949D01*
X61449656Y-93223949D01*
X61522301Y-93385628D01*
X61921898Y-93515279D01*
X62340693Y-93482142D01*
X62573699Y-93385628D01*
X62646344Y-93223949D01*
X63449656Y-93223949D01*
X63522301Y-93385628D01*
X63921898Y-93515279D01*
X64340693Y-93482142D01*
X64573699Y-93385628D01*
X64646344Y-93223949D01*
X65449656Y-93223949D01*
X65522301Y-93385628D01*
X65921898Y-93515279D01*
X66340693Y-93482142D01*
X66573699Y-93385628D01*
X66646344Y-93223949D01*
X66048000Y-92625605D01*
X65449656Y-93223949D01*
X64646344Y-93223949D01*
X64048000Y-92625605D01*
X63449656Y-93223949D01*
X62646344Y-93223949D01*
X62048000Y-92625605D01*
X61449656Y-93223949D01*
X60646344Y-93223949D01*
X60048000Y-92625605D01*
X59449656Y-93223949D01*
X58987394Y-93223949D01*
X59007873Y-93121000D01*
X59007873Y-92688329D01*
X59011858Y-92738693D01*
X59108372Y-92971699D01*
X59270051Y-93044344D01*
X59868395Y-92446000D01*
X60227605Y-92446000D01*
X60825949Y-93044344D01*
X60987628Y-92971699D01*
X61040664Y-92808237D01*
X61108372Y-92971699D01*
X61270051Y-93044344D01*
X61868395Y-92446000D01*
X62227605Y-92446000D01*
X62825949Y-93044344D01*
X62987628Y-92971699D01*
X63040664Y-92808237D01*
X63108372Y-92971699D01*
X63270051Y-93044344D01*
X63868395Y-92446000D01*
X64227605Y-92446000D01*
X64825949Y-93044344D01*
X64987628Y-92971699D01*
X65040664Y-92808237D01*
X65108372Y-92971699D01*
X65270051Y-93044344D01*
X65868395Y-92446000D01*
X66227605Y-92446000D01*
X66825949Y-93044344D01*
X66987628Y-92971699D01*
X67044884Y-92795230D01*
X80170550Y-92795230D01*
X80170550Y-93204770D01*
X80327275Y-93583137D01*
X80616863Y-93872725D01*
X80995230Y-94029450D01*
X81404770Y-94029450D01*
X81783137Y-93872725D01*
X82072725Y-93583137D01*
X82229450Y-93204770D01*
X82229450Y-92981277D01*
X93728328Y-92981277D01*
X93828679Y-93166296D01*
X94310034Y-93333638D01*
X94818787Y-93304036D01*
X95151321Y-93166296D01*
X95251672Y-92981277D01*
X96268328Y-92981277D01*
X96368679Y-93166296D01*
X96850034Y-93333638D01*
X97358787Y-93304036D01*
X97691321Y-93166296D01*
X97791672Y-92981277D01*
X97030000Y-92219605D01*
X96268328Y-92981277D01*
X95251672Y-92981277D01*
X94490000Y-92219605D01*
X93728328Y-92981277D01*
X82229450Y-92981277D01*
X82229450Y-92795230D01*
X82225160Y-92784873D01*
X83900000Y-92784873D01*
X84009016Y-92763188D01*
X84101436Y-92701436D01*
X84163188Y-92609016D01*
X84184873Y-92500000D01*
X84184873Y-91860034D01*
X93196362Y-91860034D01*
X93225964Y-92368787D01*
X93363704Y-92701321D01*
X93548723Y-92801672D01*
X94310395Y-92040000D01*
X94669605Y-92040000D01*
X95431277Y-92801672D01*
X95616296Y-92701321D01*
X95761080Y-92284853D01*
X95765964Y-92368787D01*
X95903704Y-92701321D01*
X96088723Y-92801672D01*
X96850395Y-92040000D01*
X97209605Y-92040000D01*
X97971277Y-92801672D01*
X98156296Y-92701321D01*
X98323638Y-92219966D01*
X98294036Y-91711213D01*
X98156296Y-91378679D01*
X97971277Y-91278328D01*
X97209605Y-92040000D01*
X96850395Y-92040000D01*
X96088723Y-91278328D01*
X95903704Y-91378679D01*
X95758920Y-91795147D01*
X95754036Y-91711213D01*
X95616296Y-91378679D01*
X95431277Y-91278328D01*
X94669605Y-92040000D01*
X94310395Y-92040000D01*
X93548723Y-91278328D01*
X93363704Y-91378679D01*
X93196362Y-91860034D01*
X84184873Y-91860034D01*
X84184873Y-91098723D01*
X93728328Y-91098723D01*
X94490000Y-91860395D01*
X95251672Y-91098723D01*
X96268328Y-91098723D01*
X97030000Y-91860395D01*
X97791672Y-91098723D01*
X97691321Y-90913704D01*
X97209966Y-90746362D01*
X96701213Y-90775964D01*
X96368679Y-90913704D01*
X96268328Y-91098723D01*
X95251672Y-91098723D01*
X95151321Y-90913704D01*
X94669966Y-90746362D01*
X94161213Y-90775964D01*
X93828679Y-90913704D01*
X93728328Y-91098723D01*
X84184873Y-91098723D01*
X84184873Y-90700000D01*
X84163188Y-90590984D01*
X84101436Y-90498564D01*
X84009016Y-90436812D01*
X83900000Y-90415127D01*
X82100000Y-90415127D01*
X81990984Y-90436812D01*
X81898564Y-90498564D01*
X81836812Y-90590984D01*
X81815127Y-90700000D01*
X81815127Y-92159265D01*
X81783137Y-92127275D01*
X81404770Y-91970550D01*
X80995230Y-91970550D01*
X80616863Y-92127275D01*
X80327275Y-92416863D01*
X80170550Y-92795230D01*
X67044884Y-92795230D01*
X67117279Y-92572102D01*
X67084142Y-92153307D01*
X66987628Y-91920301D01*
X66825949Y-91847656D01*
X66227605Y-92446000D01*
X65868395Y-92446000D01*
X65270051Y-91847656D01*
X65108372Y-91920301D01*
X65055336Y-92083763D01*
X64987628Y-91920301D01*
X64825949Y-91847656D01*
X64227605Y-92446000D01*
X63868395Y-92446000D01*
X63270051Y-91847656D01*
X63108372Y-91920301D01*
X63055336Y-92083763D01*
X62987628Y-91920301D01*
X62825949Y-91847656D01*
X62227605Y-92446000D01*
X61868395Y-92446000D01*
X61270051Y-91847656D01*
X61108372Y-91920301D01*
X61055336Y-92083763D01*
X60987628Y-91920301D01*
X60825949Y-91847656D01*
X60227605Y-92446000D01*
X59868395Y-92446000D01*
X59270051Y-91847656D01*
X59108372Y-91920301D01*
X59007873Y-92230049D01*
X59007873Y-91771000D01*
X58986188Y-91661984D01*
X58924436Y-91569564D01*
X58832016Y-91507812D01*
X58723000Y-91486127D01*
X57373000Y-91486127D01*
X57263984Y-91507812D01*
X57171564Y-91569564D01*
X57109812Y-91661984D01*
X57088127Y-91771000D01*
X55329400Y-91771000D01*
X55329400Y-90256158D01*
X57093600Y-90256158D01*
X57093600Y-90635842D01*
X57238899Y-90986624D01*
X57507376Y-91255101D01*
X57858158Y-91400400D01*
X58237842Y-91400400D01*
X58588624Y-91255101D01*
X58857101Y-90986624D01*
X59002400Y-90635842D01*
X59002400Y-90256158D01*
X59093600Y-90256158D01*
X59093600Y-90635842D01*
X59238899Y-90986624D01*
X59507376Y-91255101D01*
X59858158Y-91400400D01*
X59874840Y-91400400D01*
X59755307Y-91409858D01*
X59522301Y-91506372D01*
X59449656Y-91668051D01*
X60048000Y-92266395D01*
X60646344Y-91668051D01*
X60573699Y-91506372D01*
X60241901Y-91398719D01*
X60588624Y-91255101D01*
X60857101Y-90986624D01*
X61002400Y-90635842D01*
X61002400Y-90256158D01*
X61093600Y-90256158D01*
X61093600Y-90635842D01*
X61238899Y-90986624D01*
X61507376Y-91255101D01*
X61858158Y-91400400D01*
X61874840Y-91400400D01*
X61755307Y-91409858D01*
X61522301Y-91506372D01*
X61449656Y-91668051D01*
X62048000Y-92266395D01*
X62646344Y-91668051D01*
X62573699Y-91506372D01*
X62241901Y-91398719D01*
X62588624Y-91255101D01*
X62857101Y-90986624D01*
X63002400Y-90635842D01*
X63002400Y-90256158D01*
X63093600Y-90256158D01*
X63093600Y-90635842D01*
X63238899Y-90986624D01*
X63507376Y-91255101D01*
X63858158Y-91400400D01*
X63874840Y-91400400D01*
X63755307Y-91409858D01*
X63522301Y-91506372D01*
X63449656Y-91668051D01*
X64048000Y-92266395D01*
X64646344Y-91668051D01*
X64573699Y-91506372D01*
X64241901Y-91398719D01*
X64588624Y-91255101D01*
X64857101Y-90986624D01*
X65002400Y-90635842D01*
X65002400Y-90256158D01*
X65093600Y-90256158D01*
X65093600Y-90635842D01*
X65238899Y-90986624D01*
X65507376Y-91255101D01*
X65858158Y-91400400D01*
X65874840Y-91400400D01*
X65755307Y-91409858D01*
X65522301Y-91506372D01*
X65449656Y-91668051D01*
X66048000Y-92266395D01*
X66646344Y-91668051D01*
X66573699Y-91506372D01*
X66241901Y-91398719D01*
X66588624Y-91255101D01*
X66857101Y-90986624D01*
X66980981Y-90687550D01*
X73877900Y-90687550D01*
X73877900Y-90918050D01*
X73966108Y-91131004D01*
X74129096Y-91293992D01*
X74342050Y-91382200D01*
X74572550Y-91382200D01*
X74785504Y-91293992D01*
X74921096Y-91158400D01*
X76826925Y-91158400D01*
X76962517Y-91293992D01*
X77175471Y-91382200D01*
X77405971Y-91382200D01*
X77618925Y-91293992D01*
X77641640Y-91271277D01*
X79698328Y-91271277D01*
X79798679Y-91456296D01*
X80280034Y-91623638D01*
X80788787Y-91594036D01*
X81121321Y-91456296D01*
X81221672Y-91271277D01*
X80460000Y-90509605D01*
X79698328Y-91271277D01*
X77641640Y-91271277D01*
X77781913Y-91131004D01*
X77870121Y-90918050D01*
X77870121Y-90687550D01*
X77781913Y-90474596D01*
X77618925Y-90311608D01*
X77405971Y-90223400D01*
X77175471Y-90223400D01*
X76962517Y-90311608D01*
X76826925Y-90447200D01*
X74921096Y-90447200D01*
X74785504Y-90311608D01*
X74572550Y-90223400D01*
X74342050Y-90223400D01*
X74129096Y-90311608D01*
X73966108Y-90474596D01*
X73877900Y-90687550D01*
X66980981Y-90687550D01*
X67002400Y-90635842D01*
X67002400Y-90256158D01*
X66958442Y-90150034D01*
X79166362Y-90150034D01*
X79195964Y-90658787D01*
X79333704Y-90991321D01*
X79518723Y-91091672D01*
X80280395Y-90330000D01*
X80639605Y-90330000D01*
X81401277Y-91091672D01*
X81586296Y-90991321D01*
X81753638Y-90509966D01*
X81724036Y-90001213D01*
X81586296Y-89668679D01*
X81401277Y-89568328D01*
X80639605Y-90330000D01*
X80280395Y-90330000D01*
X79518723Y-89568328D01*
X79333704Y-89668679D01*
X79166362Y-90150034D01*
X66958442Y-90150034D01*
X66857101Y-89905376D01*
X66588624Y-89636899D01*
X66237842Y-89491600D01*
X65858158Y-89491600D01*
X65507376Y-89636899D01*
X65238899Y-89905376D01*
X65093600Y-90256158D01*
X65002400Y-90256158D01*
X64857101Y-89905376D01*
X64588624Y-89636899D01*
X64237842Y-89491600D01*
X63858158Y-89491600D01*
X63507376Y-89636899D01*
X63238899Y-89905376D01*
X63093600Y-90256158D01*
X63002400Y-90256158D01*
X62857101Y-89905376D01*
X62588624Y-89636899D01*
X62237842Y-89491600D01*
X61858158Y-89491600D01*
X61507376Y-89636899D01*
X61238899Y-89905376D01*
X61093600Y-90256158D01*
X61002400Y-90256158D01*
X60857101Y-89905376D01*
X60588624Y-89636899D01*
X60237842Y-89491600D01*
X59858158Y-89491600D01*
X59507376Y-89636899D01*
X59238899Y-89905376D01*
X59093600Y-90256158D01*
X59002400Y-90256158D01*
X58857101Y-89905376D01*
X58588624Y-89636899D01*
X58237842Y-89491600D01*
X57858158Y-89491600D01*
X57507376Y-89636899D01*
X57238899Y-89905376D01*
X57093600Y-90256158D01*
X55329400Y-90256158D01*
X55329400Y-87300000D01*
X71070600Y-87300000D01*
X71187019Y-87885276D01*
X71518551Y-88381449D01*
X72014724Y-88712981D01*
X72600000Y-88829400D01*
X73093296Y-88731277D01*
X79698328Y-88731277D01*
X79798679Y-88916296D01*
X80215147Y-89061080D01*
X80131213Y-89065964D01*
X79798679Y-89203704D01*
X79698328Y-89388723D01*
X80460000Y-90150395D01*
X81221672Y-89388723D01*
X81121321Y-89203704D01*
X80704853Y-89058920D01*
X80788787Y-89054036D01*
X81121321Y-88916296D01*
X81221672Y-88731277D01*
X80460000Y-87969605D01*
X79698328Y-88731277D01*
X73093296Y-88731277D01*
X73185276Y-88712981D01*
X73681449Y-88381449D01*
X74012981Y-87885276D01*
X74067730Y-87610034D01*
X79166362Y-87610034D01*
X79195964Y-88118787D01*
X79333704Y-88451321D01*
X79518723Y-88551672D01*
X80280395Y-87790000D01*
X80639605Y-87790000D01*
X81401277Y-88551672D01*
X81586296Y-88451321D01*
X81753638Y-87969966D01*
X81724036Y-87461213D01*
X81586296Y-87128679D01*
X81401277Y-87028328D01*
X80639605Y-87790000D01*
X80280395Y-87790000D01*
X79518723Y-87028328D01*
X79333704Y-87128679D01*
X79166362Y-87610034D01*
X74067730Y-87610034D01*
X74129400Y-87300000D01*
X74039636Y-86848723D01*
X79698328Y-86848723D01*
X80460000Y-87610395D01*
X81221672Y-86848723D01*
X81121321Y-86663704D01*
X80639966Y-86496362D01*
X80131213Y-86525964D01*
X79798679Y-86663704D01*
X79698328Y-86848723D01*
X74039636Y-86848723D01*
X74012981Y-86714724D01*
X73681449Y-86218551D01*
X73185276Y-85887019D01*
X72600000Y-85770600D01*
X72014724Y-85887019D01*
X71518551Y-86218551D01*
X71187019Y-86714724D01*
X71070600Y-87300000D01*
X55329400Y-87300000D01*
X55329400Y-80329400D01*
X92593224Y-80329400D01*
X92593224Y-84000000D01*
G36*
X234933164Y-86495670D02*
X235215607Y-86684393D01*
X235404330Y-86966836D01*
X235470600Y-87300000D01*
X235404330Y-87633164D01*
X235215607Y-87915607D01*
X234933164Y-88104330D01*
X234600000Y-88170600D01*
X234266836Y-88104330D01*
X233984393Y-87915607D01*
X233795670Y-87633164D01*
X233729400Y-87300000D01*
X233795670Y-86966836D01*
X233984393Y-86684393D01*
X234266836Y-86495670D01*
X234600000Y-86429400D01*
X234933164Y-86495670D01*
X234933164Y-86495670D01*
G37*
X234933164Y-86495670D02*
X235215607Y-86684393D01*
X235404330Y-86966836D01*
X235470600Y-87300000D01*
X235404330Y-87633164D01*
X235215607Y-87915607D01*
X234933164Y-88104330D01*
X234600000Y-88170600D01*
X234266836Y-88104330D01*
X233984393Y-87915607D01*
X233795670Y-87633164D01*
X233729400Y-87300000D01*
X233795670Y-86966836D01*
X233984393Y-86684393D01*
X234266836Y-86495670D01*
X234600000Y-86429400D01*
X234933164Y-86495670D01*
G36*
X72933164Y-86495670D02*
X73215607Y-86684393D01*
X73404330Y-86966836D01*
X73470600Y-87300000D01*
X73404330Y-87633164D01*
X73215607Y-87915607D01*
X72933164Y-88104330D01*
X72600000Y-88170600D01*
X72266836Y-88104330D01*
X71984393Y-87915607D01*
X71795670Y-87633164D01*
X71729400Y-87300000D01*
X71795670Y-86966836D01*
X71984393Y-86684393D01*
X72266836Y-86495670D01*
X72600000Y-86429400D01*
X72933164Y-86495670D01*
X72933164Y-86495670D01*
G37*
X72933164Y-86495670D02*
X73215607Y-86684393D01*
X73404330Y-86966836D01*
X73470600Y-87300000D01*
X73404330Y-87633164D01*
X73215607Y-87915607D01*
X72933164Y-88104330D01*
X72600000Y-88170600D01*
X72266836Y-88104330D01*
X71984393Y-87915607D01*
X71795670Y-87633164D01*
X71729400Y-87300000D01*
X71795670Y-86966836D01*
X71984393Y-86684393D01*
X72266836Y-86495670D01*
X72600000Y-86429400D01*
X72933164Y-86495670D01*
G36*
X158841450Y-88420600D02*
X158634750Y-88420600D01*
X158421796Y-88508808D01*
X158258808Y-88671796D01*
X158170600Y-88884750D01*
X158170600Y-89115250D01*
X158194631Y-89173266D01*
X152207226Y-89173266D01*
X150472892Y-87438932D01*
X150357528Y-87361847D01*
X150221445Y-87334779D01*
X149717639Y-87334779D01*
X149732044Y-87300000D01*
X152070600Y-87300000D01*
X152187019Y-87885276D01*
X152518551Y-88381449D01*
X153014724Y-88712981D01*
X153600000Y-88829400D01*
X154185276Y-88712981D01*
X154681449Y-88381449D01*
X155012981Y-87885276D01*
X155129400Y-87300000D01*
X155012981Y-86714724D01*
X154681449Y-86218551D01*
X154185276Y-85887019D01*
X153600000Y-85770600D01*
X153014724Y-85887019D01*
X152518551Y-86218551D01*
X152187019Y-86714724D01*
X152070600Y-87300000D01*
X149732044Y-87300000D01*
X149786700Y-87168050D01*
X149786700Y-86937550D01*
X149698492Y-86724596D01*
X149535504Y-86561608D01*
X149476024Y-86536970D01*
X150617016Y-85395978D01*
X155816828Y-85395978D01*
X158841450Y-88420600D01*
X158841450Y-88420600D01*
G37*
X158841450Y-88420600D02*
X158634750Y-88420600D01*
X158421796Y-88508808D01*
X158258808Y-88671796D01*
X158170600Y-88884750D01*
X158170600Y-89115250D01*
X158194631Y-89173266D01*
X152207226Y-89173266D01*
X150472892Y-87438932D01*
X150357528Y-87361847D01*
X150221445Y-87334779D01*
X149717639Y-87334779D01*
X149732044Y-87300000D01*
X152070600Y-87300000D01*
X152187019Y-87885276D01*
X152518551Y-88381449D01*
X153014724Y-88712981D01*
X153600000Y-88829400D01*
X154185276Y-88712981D01*
X154681449Y-88381449D01*
X155012981Y-87885276D01*
X155129400Y-87300000D01*
X155012981Y-86714724D01*
X154681449Y-86218551D01*
X154185276Y-85887019D01*
X153600000Y-85770600D01*
X153014724Y-85887019D01*
X152518551Y-86218551D01*
X152187019Y-86714724D01*
X152070600Y-87300000D01*
X149732044Y-87300000D01*
X149786700Y-87168050D01*
X149786700Y-86937550D01*
X149698492Y-86724596D01*
X149535504Y-86561608D01*
X149476024Y-86536970D01*
X150617016Y-85395978D01*
X155816828Y-85395978D01*
X158841450Y-88420600D01*
G36*
X153933164Y-86495670D02*
X154215607Y-86684393D01*
X154404330Y-86966836D01*
X154470600Y-87300000D01*
X154404330Y-87633164D01*
X154215607Y-87915607D01*
X153933164Y-88104330D01*
X153600000Y-88170600D01*
X153266836Y-88104330D01*
X152984393Y-87915607D01*
X152795670Y-87633164D01*
X152729400Y-87300000D01*
X152795670Y-86966836D01*
X152984393Y-86684393D01*
X153266836Y-86495670D01*
X153600000Y-86429400D01*
X153933164Y-86495670D01*
X153933164Y-86495670D01*
G37*
X153933164Y-86495670D02*
X154215607Y-86684393D01*
X154404330Y-86966836D01*
X154470600Y-87300000D01*
X154404330Y-87633164D01*
X154215607Y-87915607D01*
X153933164Y-88104330D01*
X153600000Y-88170600D01*
X153266836Y-88104330D01*
X152984393Y-87915607D01*
X152795670Y-87633164D01*
X152729400Y-87300000D01*
X152795670Y-86966836D01*
X152984393Y-86684393D01*
X153266836Y-86495670D01*
X153600000Y-86429400D01*
X153933164Y-86495670D01*
M02*
