G04 #@! TF.GenerationSoftware,KiCad,Pcbnew,(2018-01-21 revision 6b9866de8)-makepkg*
G04 #@! TF.CreationDate,2018-04-07T17:45:11+02:00*
G04 #@! TF.ProjectId,Arm_interface_board_mirrored,41726D5F696E746572666163655F626F,rev?*
G04 #@! TF.SameCoordinates,Original*
G04 #@! TF.FileFunction,Legend,Top*
G04 #@! TF.FilePolarity,Positive*
%FSLAX46Y46*%
G04 Gerber Fmt 4.6, Leading zero omitted, Abs format (unit mm)*
G04 Created by KiCad (PCBNEW (2018-01-21 revision 6b9866de8)-makepkg) date 04/07/18 17:45:11*
%MOMM*%
%LPD*%
G01*
G04 APERTURE LIST*
%ADD10C,0.150000*%
%ADD11C,0.200000*%
%ADD12C,0.120000*%
%ADD13C,0.100000*%
%ADD14C,0.010000*%
G04 APERTURE END LIST*
D10*
X115800000Y-91700000D02*
X115800000Y-91100000D01*
X115800000Y-91600000D02*
X115800000Y-91700000D01*
X114500000Y-91600000D02*
X115800000Y-91600000D01*
X114500000Y-91400000D02*
X114500000Y-91600000D01*
X114300000Y-91300000D02*
X114700000Y-91000000D01*
X114300000Y-91000000D02*
X114700000Y-91300000D01*
X114500000Y-91000000D02*
X114500000Y-91400000D01*
X117100000Y-83000000D02*
X117100000Y-83100000D01*
X116900000Y-83100000D02*
X117300000Y-82800000D01*
X116900000Y-82800000D02*
X117300000Y-83100000D01*
X117100000Y-81700000D02*
X117100000Y-83000000D01*
X112000000Y-81700000D02*
X117100000Y-81700000D01*
D11*
X167375000Y-93317857D02*
X167375000Y-92117857D01*
X167832142Y-92117857D01*
X167946428Y-92175000D01*
X168003571Y-92232142D01*
X168060714Y-92346428D01*
X168060714Y-92517857D01*
X168003571Y-92632142D01*
X167946428Y-92689285D01*
X167832142Y-92746428D01*
X167375000Y-92746428D01*
X168460714Y-92117857D02*
X168746428Y-93317857D01*
X168975000Y-92460714D01*
X169203571Y-93317857D01*
X169489285Y-92117857D01*
X170632142Y-93317857D02*
X170232142Y-92746428D01*
X169946428Y-93317857D02*
X169946428Y-92117857D01*
X170403571Y-92117857D01*
X170517857Y-92175000D01*
X170575000Y-92232142D01*
X170632142Y-92346428D01*
X170632142Y-92517857D01*
X170575000Y-92632142D01*
X170517857Y-92689285D01*
X170403571Y-92746428D01*
X169946428Y-92746428D01*
D10*
X130213095Y-93366666D02*
X130689285Y-93366666D01*
X130117857Y-93652380D02*
X130451190Y-92652380D01*
X130784523Y-93652380D01*
X131117857Y-93652380D02*
X131117857Y-92985714D01*
X131117857Y-93176190D02*
X131165476Y-93080952D01*
X131213095Y-93033333D01*
X131308333Y-92985714D01*
X131403571Y-92985714D01*
X132117857Y-93604761D02*
X132022619Y-93652380D01*
X131832142Y-93652380D01*
X131736904Y-93604761D01*
X131689285Y-93509523D01*
X131689285Y-93128571D01*
X131736904Y-93033333D01*
X131832142Y-92985714D01*
X132022619Y-92985714D01*
X132117857Y-93033333D01*
X132165476Y-93128571D01*
X132165476Y-93223809D01*
X131689285Y-93319047D01*
X132451190Y-92985714D02*
X132832142Y-92985714D01*
X132594047Y-93652380D02*
X132594047Y-92795238D01*
X132641666Y-92700000D01*
X132736904Y-92652380D01*
X132832142Y-92652380D01*
X77904761Y-90341666D02*
X77952380Y-90198809D01*
X77952380Y-89960714D01*
X77904761Y-89865476D01*
X77857142Y-89817857D01*
X77761904Y-89770238D01*
X77666666Y-89770238D01*
X77571428Y-89817857D01*
X77523809Y-89865476D01*
X77476190Y-89960714D01*
X77428571Y-90151190D01*
X77380952Y-90246428D01*
X77333333Y-90294047D01*
X77238095Y-90341666D01*
X77142857Y-90341666D01*
X77047619Y-90294047D01*
X77000000Y-90246428D01*
X76952380Y-90151190D01*
X76952380Y-89913095D01*
X77000000Y-89770238D01*
X77571428Y-89341666D02*
X77571428Y-88579761D01*
X77952380Y-88103571D02*
X76952380Y-88103571D01*
X77952380Y-87627380D02*
X76952380Y-87627380D01*
X77952380Y-87055952D01*
X76952380Y-87055952D01*
X107400000Y-94200000D02*
X111600000Y-94200000D01*
X100600000Y-94200000D02*
X107400000Y-94200000D01*
X100600000Y-93800000D02*
X100600000Y-94200000D01*
X100600000Y-85000000D02*
X100600000Y-93800000D01*
X95200000Y-85000000D02*
X100600000Y-85000000D01*
X92000000Y-88750000D02*
X92000000Y-92500000D01*
X78250000Y-86750000D02*
X78250000Y-92500000D01*
D12*
X112975000Y-85500000D02*
X112975000Y-85300000D01*
X116275000Y-85500000D02*
X112975000Y-85500000D01*
X116275000Y-85300000D02*
X116275000Y-85500000D01*
X112975000Y-83100000D02*
X112975000Y-83300000D01*
X116275000Y-83100000D02*
X112975000Y-83100000D01*
X116275000Y-83300000D02*
X116275000Y-83100000D01*
X182145000Y-87970000D02*
X182145000Y-89500000D01*
X180300000Y-87970000D02*
X182145000Y-87970000D01*
X179030000Y-90770000D02*
X179030000Y-88900000D01*
X180900000Y-90770000D02*
X179030000Y-90770000D01*
X182145000Y-92040000D02*
X182145000Y-93570000D01*
X182145000Y-93570000D02*
X174645000Y-93570000D01*
X174645000Y-87970000D02*
X174645000Y-93570000D01*
X177760000Y-87970000D02*
X174645000Y-87970000D01*
X203310000Y-90730000D02*
X203310000Y-85530000D01*
X198170000Y-90730000D02*
X203310000Y-90730000D01*
X195570000Y-85530000D02*
X203310000Y-85530000D01*
X198170000Y-90730000D02*
X198170000Y-88130000D01*
X198170000Y-88130000D02*
X195570000Y-88130000D01*
X195570000Y-88130000D02*
X195570000Y-85530000D01*
X196900000Y-90730000D02*
X195570000Y-90730000D01*
X195570000Y-90730000D02*
X195570000Y-89400000D01*
X136760000Y-87970000D02*
X133645000Y-87970000D01*
X133645000Y-87970000D02*
X133645000Y-93570000D01*
X141145000Y-93570000D02*
X133645000Y-93570000D01*
X141145000Y-92040000D02*
X141145000Y-93570000D01*
X139900000Y-90770000D02*
X138030000Y-90770000D01*
X138030000Y-90770000D02*
X138030000Y-88900000D01*
X139300000Y-87970000D02*
X141145000Y-87970000D01*
X141145000Y-87970000D02*
X141145000Y-89500000D01*
D10*
X118475000Y-85475000D02*
X118475000Y-85700000D01*
X125725000Y-85475000D02*
X125725000Y-85800000D01*
X125725000Y-92725000D02*
X125725000Y-92400000D01*
X118475000Y-92725000D02*
X118475000Y-92400000D01*
X118475000Y-85475000D02*
X118800000Y-85475000D01*
X118475000Y-92725000D02*
X118800000Y-92725000D01*
X125725000Y-92725000D02*
X125400000Y-92725000D01*
X125725000Y-85475000D02*
X125400000Y-85475000D01*
X118475000Y-85700000D02*
X117050000Y-85700000D01*
D12*
X111700000Y-93850000D02*
X111700000Y-90550000D01*
X111700000Y-90550000D02*
X107700000Y-90550000D01*
D10*
X58348000Y-94046000D02*
X58048000Y-93446000D01*
X57748000Y-94046000D02*
X58348000Y-94046000D01*
X58048000Y-93446000D02*
X57748000Y-94046000D01*
X56098000Y-92946000D02*
X57098000Y-92946000D01*
X67998000Y-92946000D02*
X67998000Y-83446000D01*
X56098000Y-92946000D02*
X56098000Y-83446000D01*
X56098000Y-81146000D02*
X67998000Y-81146000D01*
X67998000Y-92946000D02*
X66998000Y-92946000D01*
X56098000Y-83446000D02*
X57098000Y-83446000D01*
X66998000Y-83446000D02*
X67998000Y-83446000D01*
D12*
X78207300Y-93252800D02*
G75*
G03X78207300Y-93252800I-700000J0D01*
G01*
X133057300Y-91652800D02*
G75*
G03X133057300Y-91652800I-700000J0D01*
G01*
X91700000Y-93000000D02*
G75*
G03X91700000Y-93000000I-700000J0D01*
G01*
X106957300Y-91202800D02*
G75*
G03X106957300Y-91202800I-700000J0D01*
G01*
X148207300Y-93002800D02*
G75*
G03X148207300Y-93002800I-700000J0D01*
G01*
X191507300Y-87302800D02*
G75*
G03X191507300Y-87302800I-700000J0D01*
G01*
X230607300Y-93150000D02*
G75*
G03X230607300Y-93150000I-700000J0D01*
G01*
X84530000Y-89060000D02*
X84530000Y-85945000D01*
X84530000Y-85945000D02*
X78930000Y-85945000D01*
X78930000Y-93445000D02*
X78930000Y-85945000D01*
X80460000Y-93445000D02*
X78930000Y-93445000D01*
X81730000Y-92200000D02*
X81730000Y-90330000D01*
X81730000Y-90330000D02*
X83600000Y-90330000D01*
X84530000Y-91600000D02*
X84530000Y-93445000D01*
X84530000Y-93445000D02*
X83000000Y-93445000D01*
X100145000Y-87970000D02*
X100145000Y-89500000D01*
X98300000Y-87970000D02*
X100145000Y-87970000D01*
X97030000Y-90770000D02*
X97030000Y-88900000D01*
X98900000Y-90770000D02*
X97030000Y-90770000D01*
X100145000Y-92040000D02*
X100145000Y-93570000D01*
X100145000Y-93570000D02*
X92645000Y-93570000D01*
X92645000Y-87970000D02*
X92645000Y-93570000D01*
X95760000Y-87970000D02*
X92645000Y-87970000D01*
X218760000Y-87970000D02*
X215645000Y-87970000D01*
X215645000Y-87970000D02*
X215645000Y-93570000D01*
X223145000Y-93570000D02*
X215645000Y-93570000D01*
X223145000Y-92040000D02*
X223145000Y-93570000D01*
X221900000Y-90770000D02*
X220030000Y-90770000D01*
X220030000Y-90770000D02*
X220030000Y-88900000D01*
X221300000Y-87970000D02*
X223145000Y-87970000D01*
X223145000Y-87970000D02*
X223145000Y-89500000D01*
X110457300Y-85952800D02*
G75*
G02X111157300Y-86652800I0J-700000D01*
G01*
X109157300Y-86652800D02*
G75*
G02X109857300Y-85952800I700000J0D01*
G01*
X109857300Y-90052800D02*
G75*
G02X109157300Y-89352800I0J700000D01*
G01*
X111157300Y-89352800D02*
G75*
G02X110457300Y-90052800I-700000J0D01*
G01*
X111157300Y-86602800D02*
X111157300Y-89402800D01*
X110457300Y-90052800D02*
X109857300Y-90052800D01*
X109157300Y-89402800D02*
X109157300Y-86602800D01*
X109857300Y-85952800D02*
X110457300Y-85952800D01*
X108957300Y-86802800D02*
X108657300Y-86502800D01*
X108657300Y-86502800D02*
X108657300Y-87102800D01*
X108957300Y-86802800D02*
X108657300Y-87102800D01*
X113057300Y-94102800D02*
X113357300Y-94402800D01*
X112757300Y-94402800D02*
X113357300Y-94402800D01*
X113057300Y-94102800D02*
X112757300Y-94402800D01*
X112207300Y-93202800D02*
X112207300Y-92602800D01*
X115657300Y-93902800D02*
X112857300Y-93902800D01*
X116307300Y-92602800D02*
X116307300Y-93202800D01*
X112857300Y-91902800D02*
X115657300Y-91902800D01*
X115607300Y-91902800D02*
G75*
G02X116307300Y-92602800I0J-700000D01*
G01*
X116307300Y-93202800D02*
G75*
G02X115607300Y-93902800I-700000J0D01*
G01*
X112907300Y-93902800D02*
G75*
G02X112207300Y-93202800I0J700000D01*
G01*
X112207300Y-92602800D02*
G75*
G02X112907300Y-91902800I700000J0D01*
G01*
X85290000Y-88345000D02*
X85290000Y-87045000D01*
X87110000Y-88345000D02*
X87110000Y-87045000D01*
X103010000Y-88645000D02*
X103010000Y-87345000D01*
X101190000Y-88645000D02*
X101190000Y-87345000D01*
X142190000Y-88645000D02*
X142190000Y-87345000D01*
X144010000Y-88645000D02*
X144010000Y-87345000D01*
X185010000Y-88655000D02*
X185010000Y-87355000D01*
X183190000Y-88655000D02*
X183190000Y-87355000D01*
X224190000Y-88645000D02*
X224190000Y-87345000D01*
X226010000Y-88645000D02*
X226010000Y-87345000D01*
X158800000Y-91000000D02*
X158800000Y-88100000D01*
X159250000Y-91450000D02*
X158800000Y-91000000D01*
X162500000Y-92250000D02*
X160500000Y-92250000D01*
X164200000Y-91000000D02*
X163750000Y-91450000D01*
X164200000Y-88100000D02*
X164200000Y-91000000D01*
X163750000Y-87650000D02*
X164200000Y-88100000D01*
X160500000Y-86850000D02*
X162500000Y-86850000D01*
X158800000Y-88100000D02*
X159250000Y-87650000D01*
X74217300Y-92802800D02*
X74217300Y-90352800D01*
X70997300Y-91002800D02*
X70997300Y-92802800D01*
X232107300Y-93052800D02*
X232107300Y-92052800D01*
X233707300Y-93052800D02*
X233707300Y-91852800D01*
X210150000Y-83440000D02*
X207700000Y-83440000D01*
X208350000Y-86660000D02*
X210150000Y-86660000D01*
X87900000Y-90490000D02*
X86100000Y-90490000D01*
X86100000Y-93710000D02*
X88550000Y-93710000D01*
X101900000Y-93810000D02*
X104350000Y-93810000D01*
X103700000Y-90590000D02*
X101900000Y-90590000D01*
X147307300Y-88842800D02*
X145507300Y-88842800D01*
X145507300Y-92062800D02*
X147957300Y-92062800D01*
X188967300Y-89302800D02*
X188967300Y-86852800D01*
X185747300Y-87502800D02*
X185747300Y-89302800D01*
X226800000Y-90590000D02*
X225000000Y-90590000D01*
X225000000Y-93810000D02*
X227450000Y-93810000D01*
D13*
X228200000Y-89000000D02*
X228200000Y-88180000D01*
X230900000Y-88900000D02*
X230900000Y-88180000D01*
X230900000Y-88900000D02*
X230680000Y-88900000D01*
X230680000Y-85700000D02*
X230900000Y-85700000D01*
X230900000Y-85700000D02*
X230900000Y-86420000D01*
X228200000Y-86420000D02*
X228200000Y-85700000D01*
X228200000Y-85700000D02*
X228420000Y-85700000D01*
D12*
X73312300Y-82962800D02*
X72012300Y-82962800D01*
X73312300Y-81142800D02*
X72012300Y-81142800D01*
X107420000Y-84410000D02*
X107020000Y-84410000D01*
X108190000Y-88990000D02*
X107020000Y-88990000D01*
X103610000Y-88990000D02*
X104780000Y-88990000D01*
X104380000Y-84410000D02*
X104780000Y-84410000D01*
X103610000Y-85180000D02*
X103610000Y-88990000D01*
X103610000Y-85180000D02*
X104380000Y-84410000D01*
X108190000Y-85180000D02*
X108190000Y-88990000D01*
X108190000Y-85180000D02*
X107420000Y-84410000D01*
D14*
G36*
X141778201Y-82579738D02*
X141798348Y-82581965D01*
X141815863Y-82585564D01*
X141831188Y-82591308D01*
X141844766Y-82599971D01*
X141857039Y-82612324D01*
X141868450Y-82629140D01*
X141879440Y-82651193D01*
X141890453Y-82679255D01*
X141901931Y-82714099D01*
X141914316Y-82756498D01*
X141928050Y-82807225D01*
X141943577Y-82867052D01*
X141944299Y-82869867D01*
X141961506Y-82942474D01*
X141975540Y-83014276D01*
X141986689Y-83087443D01*
X141995238Y-83164150D01*
X142001474Y-83246569D01*
X142005609Y-83334760D01*
X142006717Y-83368405D01*
X142007222Y-83394525D01*
X142006933Y-83415749D01*
X142005658Y-83434703D01*
X142003208Y-83454014D01*
X141999391Y-83476309D01*
X141994016Y-83504217D01*
X141992872Y-83510020D01*
X141976391Y-83588711D01*
X141958865Y-83663406D01*
X141940546Y-83733339D01*
X141921687Y-83797741D01*
X141902541Y-83855845D01*
X141883359Y-83906882D01*
X141864394Y-83950085D01*
X141845900Y-83984686D01*
X141828657Y-84009293D01*
X141817953Y-84022749D01*
X141803677Y-84041717D01*
X141787975Y-84063311D01*
X141777487Y-84078152D01*
X141751986Y-84112275D01*
X141728222Y-84139201D01*
X141706922Y-84158184D01*
X141689823Y-84168106D01*
X141677848Y-84170698D01*
X141660149Y-84172358D01*
X141645639Y-84172712D01*
X141629049Y-84171866D01*
X141613769Y-84169024D01*
X141596746Y-84163303D01*
X141574929Y-84153818D01*
X141565960Y-84149618D01*
X141543192Y-84137894D01*
X141521706Y-84125181D01*
X141504652Y-84113418D01*
X141498199Y-84107955D01*
X141475298Y-84079710D01*
X141455228Y-84041883D01*
X141437972Y-83994420D01*
X141423507Y-83937269D01*
X141414959Y-83891020D01*
X141412442Y-83873764D01*
X141410422Y-83855587D01*
X141408848Y-83835174D01*
X141407672Y-83811208D01*
X141406843Y-83782375D01*
X141406312Y-83747359D01*
X141406029Y-83704844D01*
X141405945Y-83653516D01*
X141405945Y-83652260D01*
X141406068Y-83595778D01*
X141406514Y-83547431D01*
X141407403Y-83505192D01*
X141408857Y-83467037D01*
X141410997Y-83430942D01*
X141413942Y-83394882D01*
X141417814Y-83356833D01*
X141422734Y-83314769D01*
X141428823Y-83266667D01*
X141429068Y-83264778D01*
X141438126Y-83207754D01*
X141450976Y-83145299D01*
X141467031Y-83079301D01*
X141485706Y-83011648D01*
X141506413Y-82944227D01*
X141528565Y-82878927D01*
X141551577Y-82817635D01*
X141574862Y-82762239D01*
X141597832Y-82714626D01*
X141603030Y-82704937D01*
X141630897Y-82660835D01*
X141661983Y-82623517D01*
X141662588Y-82622896D01*
X141685380Y-82601619D01*
X141706068Y-82587902D01*
X141727763Y-82580583D01*
X141753575Y-82578502D01*
X141778201Y-82579738D01*
X141778201Y-82579738D01*
G37*
X141778201Y-82579738D02*
X141798348Y-82581965D01*
X141815863Y-82585564D01*
X141831188Y-82591308D01*
X141844766Y-82599971D01*
X141857039Y-82612324D01*
X141868450Y-82629140D01*
X141879440Y-82651193D01*
X141890453Y-82679255D01*
X141901931Y-82714099D01*
X141914316Y-82756498D01*
X141928050Y-82807225D01*
X141943577Y-82867052D01*
X141944299Y-82869867D01*
X141961506Y-82942474D01*
X141975540Y-83014276D01*
X141986689Y-83087443D01*
X141995238Y-83164150D01*
X142001474Y-83246569D01*
X142005609Y-83334760D01*
X142006717Y-83368405D01*
X142007222Y-83394525D01*
X142006933Y-83415749D01*
X142005658Y-83434703D01*
X142003208Y-83454014D01*
X141999391Y-83476309D01*
X141994016Y-83504217D01*
X141992872Y-83510020D01*
X141976391Y-83588711D01*
X141958865Y-83663406D01*
X141940546Y-83733339D01*
X141921687Y-83797741D01*
X141902541Y-83855845D01*
X141883359Y-83906882D01*
X141864394Y-83950085D01*
X141845900Y-83984686D01*
X141828657Y-84009293D01*
X141817953Y-84022749D01*
X141803677Y-84041717D01*
X141787975Y-84063311D01*
X141777487Y-84078152D01*
X141751986Y-84112275D01*
X141728222Y-84139201D01*
X141706922Y-84158184D01*
X141689823Y-84168106D01*
X141677848Y-84170698D01*
X141660149Y-84172358D01*
X141645639Y-84172712D01*
X141629049Y-84171866D01*
X141613769Y-84169024D01*
X141596746Y-84163303D01*
X141574929Y-84153818D01*
X141565960Y-84149618D01*
X141543192Y-84137894D01*
X141521706Y-84125181D01*
X141504652Y-84113418D01*
X141498199Y-84107955D01*
X141475298Y-84079710D01*
X141455228Y-84041883D01*
X141437972Y-83994420D01*
X141423507Y-83937269D01*
X141414959Y-83891020D01*
X141412442Y-83873764D01*
X141410422Y-83855587D01*
X141408848Y-83835174D01*
X141407672Y-83811208D01*
X141406843Y-83782375D01*
X141406312Y-83747359D01*
X141406029Y-83704844D01*
X141405945Y-83653516D01*
X141405945Y-83652260D01*
X141406068Y-83595778D01*
X141406514Y-83547431D01*
X141407403Y-83505192D01*
X141408857Y-83467037D01*
X141410997Y-83430942D01*
X141413942Y-83394882D01*
X141417814Y-83356833D01*
X141422734Y-83314769D01*
X141428823Y-83266667D01*
X141429068Y-83264778D01*
X141438126Y-83207754D01*
X141450976Y-83145299D01*
X141467031Y-83079301D01*
X141485706Y-83011648D01*
X141506413Y-82944227D01*
X141528565Y-82878927D01*
X141551577Y-82817635D01*
X141574862Y-82762239D01*
X141597832Y-82714626D01*
X141603030Y-82704937D01*
X141630897Y-82660835D01*
X141661983Y-82623517D01*
X141662588Y-82622896D01*
X141685380Y-82601619D01*
X141706068Y-82587902D01*
X141727763Y-82580583D01*
X141753575Y-82578502D01*
X141778201Y-82579738D01*
D12*
X170395000Y-89165000D02*
X168125000Y-89165000D01*
X170395000Y-90685000D02*
X170395000Y-89165000D01*
X168125000Y-90685000D02*
X170395000Y-90685000D01*
D14*
G36*
X146875155Y-81811012D02*
X146880398Y-81818427D01*
X146889708Y-81833627D01*
X146902427Y-81855404D01*
X146917896Y-81882549D01*
X146935454Y-81913853D01*
X146954444Y-81948110D01*
X146974204Y-81984109D01*
X146994078Y-82020644D01*
X147013404Y-82056505D01*
X147031524Y-82090484D01*
X147047779Y-82121372D01*
X147061508Y-82147963D01*
X147072054Y-82169046D01*
X147078757Y-82183414D01*
X147080037Y-82186538D01*
X147085620Y-82199472D01*
X147090223Y-82207257D01*
X147091599Y-82208280D01*
X147095101Y-82203987D01*
X147101179Y-82192721D01*
X147108532Y-82176899D01*
X147108694Y-82176530D01*
X147116609Y-82159493D01*
X147128101Y-82136303D01*
X147142531Y-82108133D01*
X147159255Y-82076158D01*
X147177632Y-82041551D01*
X147197021Y-82005487D01*
X147216780Y-81969140D01*
X147236269Y-81933685D01*
X147254844Y-81900295D01*
X147271865Y-81870145D01*
X147286691Y-81844409D01*
X147298679Y-81824261D01*
X147307188Y-81810876D01*
X147311368Y-81805561D01*
X147316921Y-81802206D01*
X147324264Y-81799852D01*
X147335032Y-81798371D01*
X147350862Y-81797633D01*
X147373390Y-81797511D01*
X147404253Y-81797876D01*
X147408310Y-81797941D01*
X147493214Y-81799340D01*
X147333267Y-82070689D01*
X147173320Y-82342039D01*
X147173320Y-82670560D01*
X147005680Y-82670560D01*
X147005680Y-82335098D01*
X146848200Y-82068742D01*
X146820170Y-82021289D01*
X146793736Y-81976451D01*
X146769342Y-81934988D01*
X146747433Y-81897659D01*
X146728454Y-81865226D01*
X146712850Y-81838447D01*
X146701064Y-81818083D01*
X146693542Y-81804894D01*
X146690729Y-81799640D01*
X146690720Y-81799593D01*
X146695523Y-81798672D01*
X146708827Y-81797878D01*
X146728975Y-81797267D01*
X146754306Y-81796893D01*
X146776129Y-81796800D01*
X146861539Y-81796800D01*
X146875155Y-81811012D01*
X146875155Y-81811012D01*
G37*
X146875155Y-81811012D02*
X146880398Y-81818427D01*
X146889708Y-81833627D01*
X146902427Y-81855404D01*
X146917896Y-81882549D01*
X146935454Y-81913853D01*
X146954444Y-81948110D01*
X146974204Y-81984109D01*
X146994078Y-82020644D01*
X147013404Y-82056505D01*
X147031524Y-82090484D01*
X147047779Y-82121372D01*
X147061508Y-82147963D01*
X147072054Y-82169046D01*
X147078757Y-82183414D01*
X147080037Y-82186538D01*
X147085620Y-82199472D01*
X147090223Y-82207257D01*
X147091599Y-82208280D01*
X147095101Y-82203987D01*
X147101179Y-82192721D01*
X147108532Y-82176899D01*
X147108694Y-82176530D01*
X147116609Y-82159493D01*
X147128101Y-82136303D01*
X147142531Y-82108133D01*
X147159255Y-82076158D01*
X147177632Y-82041551D01*
X147197021Y-82005487D01*
X147216780Y-81969140D01*
X147236269Y-81933685D01*
X147254844Y-81900295D01*
X147271865Y-81870145D01*
X147286691Y-81844409D01*
X147298679Y-81824261D01*
X147307188Y-81810876D01*
X147311368Y-81805561D01*
X147316921Y-81802206D01*
X147324264Y-81799852D01*
X147335032Y-81798371D01*
X147350862Y-81797633D01*
X147373390Y-81797511D01*
X147404253Y-81797876D01*
X147408310Y-81797941D01*
X147493214Y-81799340D01*
X147333267Y-82070689D01*
X147173320Y-82342039D01*
X147173320Y-82670560D01*
X147005680Y-82670560D01*
X147005680Y-82335098D01*
X146848200Y-82068742D01*
X146820170Y-82021289D01*
X146793736Y-81976451D01*
X146769342Y-81934988D01*
X146747433Y-81897659D01*
X146728454Y-81865226D01*
X146712850Y-81838447D01*
X146701064Y-81818083D01*
X146693542Y-81804894D01*
X146690729Y-81799640D01*
X146690720Y-81799593D01*
X146695523Y-81798672D01*
X146708827Y-81797878D01*
X146728975Y-81797267D01*
X146754306Y-81796893D01*
X146776129Y-81796800D01*
X146861539Y-81796800D01*
X146875155Y-81811012D01*
G36*
X145289910Y-81798039D02*
X145341831Y-81798519D01*
X145384682Y-81798995D01*
X145419554Y-81799525D01*
X145447535Y-81800168D01*
X145469716Y-81800983D01*
X145487187Y-81802029D01*
X145501037Y-81803364D01*
X145512357Y-81805048D01*
X145522237Y-81807139D01*
X145531766Y-81809696D01*
X145537543Y-81811411D01*
X145586002Y-81829941D01*
X145626664Y-81853722D01*
X145659075Y-81882405D01*
X145682776Y-81915645D01*
X145687593Y-81925291D01*
X145700381Y-81962931D01*
X145706614Y-82003799D01*
X145706315Y-82045135D01*
X145699505Y-82084178D01*
X145686206Y-82118168D01*
X145686071Y-82118417D01*
X145667348Y-82144959D01*
X145641593Y-82170560D01*
X145611778Y-82192532D01*
X145592088Y-82203377D01*
X145576574Y-82210934D01*
X145569222Y-82215451D01*
X145568967Y-82218143D01*
X145574746Y-82220223D01*
X145576848Y-82220750D01*
X145604196Y-82230219D01*
X145633473Y-82244828D01*
X145660970Y-82262414D01*
X145682975Y-82280819D01*
X145686619Y-82284663D01*
X145706909Y-82311269D01*
X145720432Y-82339466D01*
X145728041Y-82371755D01*
X145730589Y-82410636D01*
X145730600Y-82413757D01*
X145726482Y-82465496D01*
X145714055Y-82511573D01*
X145693203Y-82552142D01*
X145663811Y-82587353D01*
X145625767Y-82617360D01*
X145578955Y-82642312D01*
X145549701Y-82653840D01*
X145509620Y-82668007D01*
X145080360Y-82671161D01*
X145080360Y-82289560D01*
X145248000Y-82289560D01*
X145248000Y-82545078D01*
X145350870Y-82542172D01*
X145390108Y-82540850D01*
X145420743Y-82539277D01*
X145444331Y-82537312D01*
X145462427Y-82534808D01*
X145476588Y-82531625D01*
X145481490Y-82530132D01*
X145509643Y-82516657D01*
X145530541Y-82500529D01*
X145549775Y-82475824D01*
X145561750Y-82447062D01*
X145566555Y-82416273D01*
X145564277Y-82385491D01*
X145555002Y-82356748D01*
X145538819Y-82332075D01*
X145522693Y-82317803D01*
X145507135Y-82308584D01*
X145489487Y-82301488D01*
X145468283Y-82296282D01*
X145442056Y-82292732D01*
X145409339Y-82290603D01*
X145368665Y-82289660D01*
X145345992Y-82289560D01*
X145248000Y-82289560D01*
X145080360Y-82289560D01*
X145080360Y-82174318D01*
X145248000Y-82174318D01*
X145338170Y-82171156D01*
X145376489Y-82169380D01*
X145409140Y-82166993D01*
X145434680Y-82164128D01*
X145451665Y-82160918D01*
X145452963Y-82160546D01*
X145486808Y-82146693D01*
X145511908Y-82127946D01*
X145528730Y-82103700D01*
X145537740Y-82073347D01*
X145539650Y-82047850D01*
X145538782Y-82024510D01*
X145535272Y-82006495D01*
X145528149Y-81989106D01*
X145527032Y-81986890D01*
X145515552Y-81969397D01*
X145500157Y-81955196D01*
X145479898Y-81944018D01*
X145453829Y-81935595D01*
X145421003Y-81929658D01*
X145380472Y-81925938D01*
X145331289Y-81924166D01*
X145305150Y-81923931D01*
X145248000Y-81923800D01*
X145248000Y-82174318D01*
X145080360Y-82174318D01*
X145080360Y-81796186D01*
X145289910Y-81798039D01*
X145289910Y-81798039D01*
G37*
X145289910Y-81798039D02*
X145341831Y-81798519D01*
X145384682Y-81798995D01*
X145419554Y-81799525D01*
X145447535Y-81800168D01*
X145469716Y-81800983D01*
X145487187Y-81802029D01*
X145501037Y-81803364D01*
X145512357Y-81805048D01*
X145522237Y-81807139D01*
X145531766Y-81809696D01*
X145537543Y-81811411D01*
X145586002Y-81829941D01*
X145626664Y-81853722D01*
X145659075Y-81882405D01*
X145682776Y-81915645D01*
X145687593Y-81925291D01*
X145700381Y-81962931D01*
X145706614Y-82003799D01*
X145706315Y-82045135D01*
X145699505Y-82084178D01*
X145686206Y-82118168D01*
X145686071Y-82118417D01*
X145667348Y-82144959D01*
X145641593Y-82170560D01*
X145611778Y-82192532D01*
X145592088Y-82203377D01*
X145576574Y-82210934D01*
X145569222Y-82215451D01*
X145568967Y-82218143D01*
X145574746Y-82220223D01*
X145576848Y-82220750D01*
X145604196Y-82230219D01*
X145633473Y-82244828D01*
X145660970Y-82262414D01*
X145682975Y-82280819D01*
X145686619Y-82284663D01*
X145706909Y-82311269D01*
X145720432Y-82339466D01*
X145728041Y-82371755D01*
X145730589Y-82410636D01*
X145730600Y-82413757D01*
X145726482Y-82465496D01*
X145714055Y-82511573D01*
X145693203Y-82552142D01*
X145663811Y-82587353D01*
X145625767Y-82617360D01*
X145578955Y-82642312D01*
X145549701Y-82653840D01*
X145509620Y-82668007D01*
X145080360Y-82671161D01*
X145080360Y-82289560D01*
X145248000Y-82289560D01*
X145248000Y-82545078D01*
X145350870Y-82542172D01*
X145390108Y-82540850D01*
X145420743Y-82539277D01*
X145444331Y-82537312D01*
X145462427Y-82534808D01*
X145476588Y-82531625D01*
X145481490Y-82530132D01*
X145509643Y-82516657D01*
X145530541Y-82500529D01*
X145549775Y-82475824D01*
X145561750Y-82447062D01*
X145566555Y-82416273D01*
X145564277Y-82385491D01*
X145555002Y-82356748D01*
X145538819Y-82332075D01*
X145522693Y-82317803D01*
X145507135Y-82308584D01*
X145489487Y-82301488D01*
X145468283Y-82296282D01*
X145442056Y-82292732D01*
X145409339Y-82290603D01*
X145368665Y-82289660D01*
X145345992Y-82289560D01*
X145248000Y-82289560D01*
X145080360Y-82289560D01*
X145080360Y-82174318D01*
X145248000Y-82174318D01*
X145338170Y-82171156D01*
X145376489Y-82169380D01*
X145409140Y-82166993D01*
X145434680Y-82164128D01*
X145451665Y-82160918D01*
X145452963Y-82160546D01*
X145486808Y-82146693D01*
X145511908Y-82127946D01*
X145528730Y-82103700D01*
X145537740Y-82073347D01*
X145539650Y-82047850D01*
X145538782Y-82024510D01*
X145535272Y-82006495D01*
X145528149Y-81989106D01*
X145527032Y-81986890D01*
X145515552Y-81969397D01*
X145500157Y-81955196D01*
X145479898Y-81944018D01*
X145453829Y-81935595D01*
X145421003Y-81929658D01*
X145380472Y-81925938D01*
X145331289Y-81924166D01*
X145305150Y-81923931D01*
X145248000Y-81923800D01*
X145248000Y-82174318D01*
X145080360Y-82174318D01*
X145080360Y-81796186D01*
X145289910Y-81798039D01*
G36*
X143550010Y-81798143D02*
X143602775Y-81798761D01*
X143646596Y-81799460D01*
X143682687Y-81800395D01*
X143712263Y-81801722D01*
X143736539Y-81803600D01*
X143756730Y-81806183D01*
X143774050Y-81809629D01*
X143789716Y-81814094D01*
X143804941Y-81819734D01*
X143820941Y-81826706D01*
X143838930Y-81835166D01*
X143839471Y-81835425D01*
X143880157Y-81860127D01*
X143913389Y-81891624D01*
X143938858Y-81929487D01*
X143956251Y-81973284D01*
X143963412Y-82006949D01*
X143966333Y-82059377D01*
X143959847Y-82109388D01*
X143944460Y-82156057D01*
X143920676Y-82198456D01*
X143889001Y-82235659D01*
X143849941Y-82266742D01*
X143809897Y-82288279D01*
X143781494Y-82300686D01*
X143803084Y-82321793D01*
X143809224Y-82329094D01*
X143820045Y-82343337D01*
X143834792Y-82363439D01*
X143852715Y-82388320D01*
X143873058Y-82416897D01*
X143895070Y-82448087D01*
X143917998Y-82480810D01*
X143941089Y-82513984D01*
X143963589Y-82546525D01*
X143984746Y-82577353D01*
X144003807Y-82605386D01*
X144020018Y-82629541D01*
X144032628Y-82648736D01*
X144040883Y-82661890D01*
X144044030Y-82667921D01*
X144044040Y-82668030D01*
X144039289Y-82669446D01*
X144026325Y-82670376D01*
X144007082Y-82670858D01*
X143983495Y-82670927D01*
X143957497Y-82670620D01*
X143931021Y-82669974D01*
X143906003Y-82669024D01*
X143884375Y-82667807D01*
X143868072Y-82666360D01*
X143859028Y-82664718D01*
X143858590Y-82664542D01*
X143851686Y-82658404D01*
X143839800Y-82643986D01*
X143822891Y-82621228D01*
X143800919Y-82590072D01*
X143773842Y-82550458D01*
X143741619Y-82502328D01*
X143704211Y-82445623D01*
X143664466Y-82384733D01*
X143652320Y-82367343D01*
X143640543Y-82352648D01*
X143631369Y-82343402D01*
X143630155Y-82342521D01*
X143617920Y-82337915D01*
X143597516Y-82334156D01*
X143572030Y-82331686D01*
X143525880Y-82328696D01*
X143525880Y-82670560D01*
X143358240Y-82670560D01*
X143358240Y-82214445D01*
X143525880Y-82214445D01*
X143603350Y-82212242D01*
X143635242Y-82211121D01*
X143659204Y-82209648D01*
X143677466Y-82207534D01*
X143692257Y-82204491D01*
X143705809Y-82200229D01*
X143710826Y-82198336D01*
X143744667Y-82180383D01*
X143770596Y-82156091D01*
X143788500Y-82125636D01*
X143798265Y-82089191D01*
X143800200Y-82060965D01*
X143795620Y-82024409D01*
X143782394Y-81992518D01*
X143761293Y-81966250D01*
X143733088Y-81946566D01*
X143698551Y-81934424D01*
X143698472Y-81934407D01*
X143683859Y-81932146D01*
X143661815Y-81929813D01*
X143635063Y-81927648D01*
X143606328Y-81925896D01*
X143599329Y-81925559D01*
X143525880Y-81922222D01*
X143525880Y-82214445D01*
X143358240Y-82214445D01*
X143358240Y-81796045D01*
X143550010Y-81798143D01*
X143550010Y-81798143D01*
G37*
X143550010Y-81798143D02*
X143602775Y-81798761D01*
X143646596Y-81799460D01*
X143682687Y-81800395D01*
X143712263Y-81801722D01*
X143736539Y-81803600D01*
X143756730Y-81806183D01*
X143774050Y-81809629D01*
X143789716Y-81814094D01*
X143804941Y-81819734D01*
X143820941Y-81826706D01*
X143838930Y-81835166D01*
X143839471Y-81835425D01*
X143880157Y-81860127D01*
X143913389Y-81891624D01*
X143938858Y-81929487D01*
X143956251Y-81973284D01*
X143963412Y-82006949D01*
X143966333Y-82059377D01*
X143959847Y-82109388D01*
X143944460Y-82156057D01*
X143920676Y-82198456D01*
X143889001Y-82235659D01*
X143849941Y-82266742D01*
X143809897Y-82288279D01*
X143781494Y-82300686D01*
X143803084Y-82321793D01*
X143809224Y-82329094D01*
X143820045Y-82343337D01*
X143834792Y-82363439D01*
X143852715Y-82388320D01*
X143873058Y-82416897D01*
X143895070Y-82448087D01*
X143917998Y-82480810D01*
X143941089Y-82513984D01*
X143963589Y-82546525D01*
X143984746Y-82577353D01*
X144003807Y-82605386D01*
X144020018Y-82629541D01*
X144032628Y-82648736D01*
X144040883Y-82661890D01*
X144044030Y-82667921D01*
X144044040Y-82668030D01*
X144039289Y-82669446D01*
X144026325Y-82670376D01*
X144007082Y-82670858D01*
X143983495Y-82670927D01*
X143957497Y-82670620D01*
X143931021Y-82669974D01*
X143906003Y-82669024D01*
X143884375Y-82667807D01*
X143868072Y-82666360D01*
X143859028Y-82664718D01*
X143858590Y-82664542D01*
X143851686Y-82658404D01*
X143839800Y-82643986D01*
X143822891Y-82621228D01*
X143800919Y-82590072D01*
X143773842Y-82550458D01*
X143741619Y-82502328D01*
X143704211Y-82445623D01*
X143664466Y-82384733D01*
X143652320Y-82367343D01*
X143640543Y-82352648D01*
X143631369Y-82343402D01*
X143630155Y-82342521D01*
X143617920Y-82337915D01*
X143597516Y-82334156D01*
X143572030Y-82331686D01*
X143525880Y-82328696D01*
X143525880Y-82670560D01*
X143358240Y-82670560D01*
X143358240Y-82214445D01*
X143525880Y-82214445D01*
X143603350Y-82212242D01*
X143635242Y-82211121D01*
X143659204Y-82209648D01*
X143677466Y-82207534D01*
X143692257Y-82204491D01*
X143705809Y-82200229D01*
X143710826Y-82198336D01*
X143744667Y-82180383D01*
X143770596Y-82156091D01*
X143788500Y-82125636D01*
X143798265Y-82089191D01*
X143800200Y-82060965D01*
X143795620Y-82024409D01*
X143782394Y-81992518D01*
X143761293Y-81966250D01*
X143733088Y-81946566D01*
X143698551Y-81934424D01*
X143698472Y-81934407D01*
X143683859Y-81932146D01*
X143661815Y-81929813D01*
X143635063Y-81927648D01*
X143606328Y-81925896D01*
X143599329Y-81925559D01*
X143525880Y-81922222D01*
X143525880Y-82214445D01*
X143358240Y-82214445D01*
X143358240Y-81796045D01*
X143550010Y-81798143D01*
G36*
X146308064Y-81787437D02*
X146331325Y-81788815D01*
X146352337Y-81791500D01*
X146366226Y-81794046D01*
X146429983Y-81811768D01*
X146489123Y-81838078D01*
X146542805Y-81872525D01*
X146589120Y-81913551D01*
X146628721Y-81961609D01*
X146660550Y-82015013D01*
X146684611Y-82072600D01*
X146700908Y-82133207D01*
X146709445Y-82195670D01*
X146710228Y-82258826D01*
X146703261Y-82321511D01*
X146688549Y-82382562D01*
X146666095Y-82440815D01*
X146635906Y-82495106D01*
X146597985Y-82544273D01*
X146586580Y-82556357D01*
X146537444Y-82599210D01*
X146483182Y-82633308D01*
X146424038Y-82658521D01*
X146366758Y-82673523D01*
X146341782Y-82676900D01*
X146310317Y-82679082D01*
X146275234Y-82680076D01*
X146239400Y-82679885D01*
X146205685Y-82678515D01*
X146176956Y-82675970D01*
X146159860Y-82673174D01*
X146095916Y-82654532D01*
X146038299Y-82628156D01*
X145986390Y-82593729D01*
X145958432Y-82569739D01*
X145913914Y-82521872D01*
X145878319Y-82469956D01*
X145851461Y-82413532D01*
X145833151Y-82352142D01*
X145823203Y-82285327D01*
X145821140Y-82234324D01*
X145992736Y-82234324D01*
X145993773Y-82271399D01*
X145996799Y-82305373D01*
X146001427Y-82331435D01*
X146018623Y-82382627D01*
X146043304Y-82427780D01*
X146074881Y-82466260D01*
X146112767Y-82497433D01*
X146156372Y-82520663D01*
X146186231Y-82530856D01*
X146208772Y-82534985D01*
X146237654Y-82537351D01*
X146269482Y-82537966D01*
X146300859Y-82536839D01*
X146328387Y-82533981D01*
X146345627Y-82530375D01*
X146392562Y-82511635D01*
X146434081Y-82484953D01*
X146469177Y-82451183D01*
X146496842Y-82411182D01*
X146504968Y-82395029D01*
X146516925Y-82366918D01*
X146525438Y-82341407D01*
X146531035Y-82315686D01*
X146534242Y-82286944D01*
X146535587Y-82252371D01*
X146535726Y-82231140D01*
X146535438Y-82200068D01*
X146534430Y-82176427D01*
X146532408Y-82157496D01*
X146529074Y-82140555D01*
X146524132Y-82122883D01*
X146523834Y-82121920D01*
X146503606Y-82070186D01*
X146477480Y-82026624D01*
X146445168Y-81990937D01*
X146406385Y-81962827D01*
X146360843Y-81941997D01*
X146345627Y-81937066D01*
X146322252Y-81932419D01*
X146292441Y-81929752D01*
X146259726Y-81929083D01*
X146227640Y-81930430D01*
X146199716Y-81933812D01*
X146188465Y-81936260D01*
X146140575Y-81953860D01*
X146098906Y-81979466D01*
X146063542Y-82012991D01*
X146034565Y-82054344D01*
X146012058Y-82103438D01*
X146001538Y-82137160D01*
X145996620Y-82163938D01*
X145993686Y-82197415D01*
X145992736Y-82234324D01*
X145821140Y-82234324D01*
X145821113Y-82233680D01*
X145825121Y-82162883D01*
X145837291Y-82097884D01*
X145857845Y-82038147D01*
X145887001Y-81983133D01*
X145924980Y-81932305D01*
X145959152Y-81896829D01*
X145984394Y-81874577D01*
X146008697Y-81856930D01*
X146036399Y-81840902D01*
X146051823Y-81833083D01*
X146083406Y-81818190D01*
X146110695Y-81807135D01*
X146136414Y-81799281D01*
X146163290Y-81793991D01*
X146194048Y-81790628D01*
X146231413Y-81788554D01*
X146244306Y-81788088D01*
X146279932Y-81787237D01*
X146308064Y-81787437D01*
X146308064Y-81787437D01*
G37*
X146308064Y-81787437D02*
X146331325Y-81788815D01*
X146352337Y-81791500D01*
X146366226Y-81794046D01*
X146429983Y-81811768D01*
X146489123Y-81838078D01*
X146542805Y-81872525D01*
X146589120Y-81913551D01*
X146628721Y-81961609D01*
X146660550Y-82015013D01*
X146684611Y-82072600D01*
X146700908Y-82133207D01*
X146709445Y-82195670D01*
X146710228Y-82258826D01*
X146703261Y-82321511D01*
X146688549Y-82382562D01*
X146666095Y-82440815D01*
X146635906Y-82495106D01*
X146597985Y-82544273D01*
X146586580Y-82556357D01*
X146537444Y-82599210D01*
X146483182Y-82633308D01*
X146424038Y-82658521D01*
X146366758Y-82673523D01*
X146341782Y-82676900D01*
X146310317Y-82679082D01*
X146275234Y-82680076D01*
X146239400Y-82679885D01*
X146205685Y-82678515D01*
X146176956Y-82675970D01*
X146159860Y-82673174D01*
X146095916Y-82654532D01*
X146038299Y-82628156D01*
X145986390Y-82593729D01*
X145958432Y-82569739D01*
X145913914Y-82521872D01*
X145878319Y-82469956D01*
X145851461Y-82413532D01*
X145833151Y-82352142D01*
X145823203Y-82285327D01*
X145821140Y-82234324D01*
X145992736Y-82234324D01*
X145993773Y-82271399D01*
X145996799Y-82305373D01*
X146001427Y-82331435D01*
X146018623Y-82382627D01*
X146043304Y-82427780D01*
X146074881Y-82466260D01*
X146112767Y-82497433D01*
X146156372Y-82520663D01*
X146186231Y-82530856D01*
X146208772Y-82534985D01*
X146237654Y-82537351D01*
X146269482Y-82537966D01*
X146300859Y-82536839D01*
X146328387Y-82533981D01*
X146345627Y-82530375D01*
X146392562Y-82511635D01*
X146434081Y-82484953D01*
X146469177Y-82451183D01*
X146496842Y-82411182D01*
X146504968Y-82395029D01*
X146516925Y-82366918D01*
X146525438Y-82341407D01*
X146531035Y-82315686D01*
X146534242Y-82286944D01*
X146535587Y-82252371D01*
X146535726Y-82231140D01*
X146535438Y-82200068D01*
X146534430Y-82176427D01*
X146532408Y-82157496D01*
X146529074Y-82140555D01*
X146524132Y-82122883D01*
X146523834Y-82121920D01*
X146503606Y-82070186D01*
X146477480Y-82026624D01*
X146445168Y-81990937D01*
X146406385Y-81962827D01*
X146360843Y-81941997D01*
X146345627Y-81937066D01*
X146322252Y-81932419D01*
X146292441Y-81929752D01*
X146259726Y-81929083D01*
X146227640Y-81930430D01*
X146199716Y-81933812D01*
X146188465Y-81936260D01*
X146140575Y-81953860D01*
X146098906Y-81979466D01*
X146063542Y-82012991D01*
X146034565Y-82054344D01*
X146012058Y-82103438D01*
X146001538Y-82137160D01*
X145996620Y-82163938D01*
X145993686Y-82197415D01*
X145992736Y-82234324D01*
X145821140Y-82234324D01*
X145821113Y-82233680D01*
X145825121Y-82162883D01*
X145837291Y-82097884D01*
X145857845Y-82038147D01*
X145887001Y-81983133D01*
X145924980Y-81932305D01*
X145959152Y-81896829D01*
X145984394Y-81874577D01*
X146008697Y-81856930D01*
X146036399Y-81840902D01*
X146051823Y-81833083D01*
X146083406Y-81818190D01*
X146110695Y-81807135D01*
X146136414Y-81799281D01*
X146163290Y-81793991D01*
X146194048Y-81790628D01*
X146231413Y-81788554D01*
X146244306Y-81788088D01*
X146279932Y-81787237D01*
X146308064Y-81787437D01*
G36*
X144555464Y-81787437D02*
X144578725Y-81788815D01*
X144599737Y-81791500D01*
X144613626Y-81794046D01*
X144677383Y-81811768D01*
X144736523Y-81838078D01*
X144790205Y-81872525D01*
X144836520Y-81913551D01*
X144876121Y-81961609D01*
X144907950Y-82015013D01*
X144932011Y-82072600D01*
X144948308Y-82133207D01*
X144956845Y-82195670D01*
X144957628Y-82258826D01*
X144950661Y-82321511D01*
X144935949Y-82382562D01*
X144913495Y-82440815D01*
X144883306Y-82495106D01*
X144845385Y-82544273D01*
X144833980Y-82556357D01*
X144784844Y-82599210D01*
X144730582Y-82633308D01*
X144671438Y-82658521D01*
X144614158Y-82673523D01*
X144589182Y-82676900D01*
X144557717Y-82679082D01*
X144522634Y-82680076D01*
X144486800Y-82679885D01*
X144453085Y-82678515D01*
X144424356Y-82675970D01*
X144407260Y-82673174D01*
X144343316Y-82654532D01*
X144285699Y-82628156D01*
X144233790Y-82593729D01*
X144205832Y-82569739D01*
X144161314Y-82521872D01*
X144125719Y-82469956D01*
X144098861Y-82413532D01*
X144080551Y-82352142D01*
X144070603Y-82285327D01*
X144068540Y-82234324D01*
X144240136Y-82234324D01*
X144241173Y-82271399D01*
X144244199Y-82305373D01*
X144248827Y-82331435D01*
X144266023Y-82382627D01*
X144290704Y-82427780D01*
X144322281Y-82466260D01*
X144360167Y-82497433D01*
X144403772Y-82520663D01*
X144433631Y-82530856D01*
X144456172Y-82534985D01*
X144485054Y-82537351D01*
X144516882Y-82537966D01*
X144548259Y-82536839D01*
X144575787Y-82533981D01*
X144593027Y-82530375D01*
X144639962Y-82511635D01*
X144681481Y-82484953D01*
X144716577Y-82451183D01*
X144744242Y-82411182D01*
X144752368Y-82395029D01*
X144764325Y-82366918D01*
X144772838Y-82341407D01*
X144778435Y-82315686D01*
X144781642Y-82286944D01*
X144782987Y-82252371D01*
X144783126Y-82231140D01*
X144782838Y-82200068D01*
X144781830Y-82176427D01*
X144779808Y-82157496D01*
X144776474Y-82140555D01*
X144771532Y-82122883D01*
X144771234Y-82121920D01*
X144751006Y-82070186D01*
X144724880Y-82026624D01*
X144692568Y-81990937D01*
X144653785Y-81962827D01*
X144608243Y-81941997D01*
X144593027Y-81937066D01*
X144569652Y-81932419D01*
X144539841Y-81929752D01*
X144507126Y-81929083D01*
X144475040Y-81930430D01*
X144447116Y-81933812D01*
X144435865Y-81936260D01*
X144387975Y-81953860D01*
X144346306Y-81979466D01*
X144310942Y-82012991D01*
X144281965Y-82054344D01*
X144259458Y-82103438D01*
X144248938Y-82137160D01*
X144244020Y-82163938D01*
X144241086Y-82197415D01*
X144240136Y-82234324D01*
X144068540Y-82234324D01*
X144068513Y-82233680D01*
X144072521Y-82162883D01*
X144084691Y-82097884D01*
X144105245Y-82038147D01*
X144134401Y-81983133D01*
X144172380Y-81932305D01*
X144206552Y-81896829D01*
X144231794Y-81874577D01*
X144256097Y-81856930D01*
X144283799Y-81840902D01*
X144299223Y-81833083D01*
X144330806Y-81818190D01*
X144358095Y-81807135D01*
X144383814Y-81799281D01*
X144410690Y-81793991D01*
X144441448Y-81790628D01*
X144478813Y-81788554D01*
X144491706Y-81788088D01*
X144527332Y-81787237D01*
X144555464Y-81787437D01*
X144555464Y-81787437D01*
G37*
X144555464Y-81787437D02*
X144578725Y-81788815D01*
X144599737Y-81791500D01*
X144613626Y-81794046D01*
X144677383Y-81811768D01*
X144736523Y-81838078D01*
X144790205Y-81872525D01*
X144836520Y-81913551D01*
X144876121Y-81961609D01*
X144907950Y-82015013D01*
X144932011Y-82072600D01*
X144948308Y-82133207D01*
X144956845Y-82195670D01*
X144957628Y-82258826D01*
X144950661Y-82321511D01*
X144935949Y-82382562D01*
X144913495Y-82440815D01*
X144883306Y-82495106D01*
X144845385Y-82544273D01*
X144833980Y-82556357D01*
X144784844Y-82599210D01*
X144730582Y-82633308D01*
X144671438Y-82658521D01*
X144614158Y-82673523D01*
X144589182Y-82676900D01*
X144557717Y-82679082D01*
X144522634Y-82680076D01*
X144486800Y-82679885D01*
X144453085Y-82678515D01*
X144424356Y-82675970D01*
X144407260Y-82673174D01*
X144343316Y-82654532D01*
X144285699Y-82628156D01*
X144233790Y-82593729D01*
X144205832Y-82569739D01*
X144161314Y-82521872D01*
X144125719Y-82469956D01*
X144098861Y-82413532D01*
X144080551Y-82352142D01*
X144070603Y-82285327D01*
X144068540Y-82234324D01*
X144240136Y-82234324D01*
X144241173Y-82271399D01*
X144244199Y-82305373D01*
X144248827Y-82331435D01*
X144266023Y-82382627D01*
X144290704Y-82427780D01*
X144322281Y-82466260D01*
X144360167Y-82497433D01*
X144403772Y-82520663D01*
X144433631Y-82530856D01*
X144456172Y-82534985D01*
X144485054Y-82537351D01*
X144516882Y-82537966D01*
X144548259Y-82536839D01*
X144575787Y-82533981D01*
X144593027Y-82530375D01*
X144639962Y-82511635D01*
X144681481Y-82484953D01*
X144716577Y-82451183D01*
X144744242Y-82411182D01*
X144752368Y-82395029D01*
X144764325Y-82366918D01*
X144772838Y-82341407D01*
X144778435Y-82315686D01*
X144781642Y-82286944D01*
X144782987Y-82252371D01*
X144783126Y-82231140D01*
X144782838Y-82200068D01*
X144781830Y-82176427D01*
X144779808Y-82157496D01*
X144776474Y-82140555D01*
X144771532Y-82122883D01*
X144771234Y-82121920D01*
X144751006Y-82070186D01*
X144724880Y-82026624D01*
X144692568Y-81990937D01*
X144653785Y-81962827D01*
X144608243Y-81941997D01*
X144593027Y-81937066D01*
X144569652Y-81932419D01*
X144539841Y-81929752D01*
X144507126Y-81929083D01*
X144475040Y-81930430D01*
X144447116Y-81933812D01*
X144435865Y-81936260D01*
X144387975Y-81953860D01*
X144346306Y-81979466D01*
X144310942Y-82012991D01*
X144281965Y-82054344D01*
X144259458Y-82103438D01*
X144248938Y-82137160D01*
X144244020Y-82163938D01*
X144241086Y-82197415D01*
X144240136Y-82234324D01*
X144068540Y-82234324D01*
X144068513Y-82233680D01*
X144072521Y-82162883D01*
X144084691Y-82097884D01*
X144105245Y-82038147D01*
X144134401Y-81983133D01*
X144172380Y-81932305D01*
X144206552Y-81896829D01*
X144231794Y-81874577D01*
X144256097Y-81856930D01*
X144283799Y-81840902D01*
X144299223Y-81833083D01*
X144330806Y-81818190D01*
X144358095Y-81807135D01*
X144383814Y-81799281D01*
X144410690Y-81793991D01*
X144441448Y-81790628D01*
X144478813Y-81788554D01*
X144491706Y-81788088D01*
X144527332Y-81787237D01*
X144555464Y-81787437D01*
D12*
X114860000Y-89200000D02*
X114860000Y-86930000D01*
X114860000Y-86930000D02*
X113340000Y-86930000D01*
X113340000Y-86930000D02*
X113340000Y-89200000D01*
X240270000Y-92440000D02*
X241092470Y-92440000D01*
X242977530Y-92440000D02*
X243800000Y-92440000D01*
X241707530Y-92440000D02*
X242362470Y-92440000D01*
X240270000Y-83615000D02*
X240270000Y-92440000D01*
X243800000Y-82160000D02*
X243800000Y-92440000D01*
X240270000Y-83615000D02*
X240836529Y-83615000D01*
X241963471Y-83615000D02*
X242106529Y-83615000D01*
X242160000Y-83561529D02*
X242160000Y-83418471D01*
X242160000Y-82291529D02*
X242160000Y-82160000D01*
X242160000Y-82160000D02*
X242362470Y-82160000D01*
X242977530Y-82160000D02*
X243800000Y-82160000D01*
X240270000Y-82855000D02*
X240270000Y-82095000D01*
X240270000Y-82095000D02*
X241400000Y-82095000D01*
D10*
X112254761Y-85633333D02*
X112302380Y-85490476D01*
X112302380Y-85252380D01*
X112254761Y-85157142D01*
X112207142Y-85109523D01*
X112111904Y-85061904D01*
X112016666Y-85061904D01*
X111921428Y-85109523D01*
X111873809Y-85157142D01*
X111826190Y-85252380D01*
X111778571Y-85442857D01*
X111730952Y-85538095D01*
X111683333Y-85585714D01*
X111588095Y-85633333D01*
X111492857Y-85633333D01*
X111397619Y-85585714D01*
X111350000Y-85538095D01*
X111302380Y-85442857D01*
X111302380Y-85204761D01*
X111350000Y-85061904D01*
X111302380Y-84728571D02*
X112302380Y-84490476D01*
X111588095Y-84300000D01*
X112302380Y-84109523D01*
X111302380Y-83871428D01*
X111397619Y-83538095D02*
X111350000Y-83490476D01*
X111302380Y-83395238D01*
X111302380Y-83157142D01*
X111350000Y-83061904D01*
X111397619Y-83014285D01*
X111492857Y-82966666D01*
X111588095Y-82966666D01*
X111730952Y-83014285D01*
X112302380Y-83585714D01*
X112302380Y-82966666D01*
X177902976Y-86552380D02*
X177902976Y-87266666D01*
X177855357Y-87409523D01*
X177760119Y-87504761D01*
X177617261Y-87552380D01*
X177522023Y-87552380D01*
X178902976Y-87552380D02*
X178331547Y-87552380D01*
X178617261Y-87552380D02*
X178617261Y-86552380D01*
X178522023Y-86695238D01*
X178426785Y-86790476D01*
X178331547Y-86838095D01*
X179379166Y-87552380D02*
X179569642Y-87552380D01*
X179664880Y-87504761D01*
X179712500Y-87457142D01*
X179807738Y-87314285D01*
X179855357Y-87123809D01*
X179855357Y-86742857D01*
X179807738Y-86647619D01*
X179760119Y-86600000D01*
X179664880Y-86552380D01*
X179474404Y-86552380D01*
X179379166Y-86600000D01*
X179331547Y-86647619D01*
X179283928Y-86742857D01*
X179283928Y-86980952D01*
X179331547Y-87076190D01*
X179379166Y-87123809D01*
X179474404Y-87171428D01*
X179664880Y-87171428D01*
X179760119Y-87123809D01*
X179807738Y-87076190D01*
X179855357Y-86980952D01*
X194022380Y-88463333D02*
X194736666Y-88463333D01*
X194879523Y-88510952D01*
X194974761Y-88606190D01*
X195022380Y-88749047D01*
X195022380Y-88844285D01*
X194022380Y-88082380D02*
X194022380Y-87463333D01*
X194403333Y-87796666D01*
X194403333Y-87653809D01*
X194450952Y-87558571D01*
X194498571Y-87510952D01*
X194593809Y-87463333D01*
X194831904Y-87463333D01*
X194927142Y-87510952D01*
X194974761Y-87558571D01*
X195022380Y-87653809D01*
X195022380Y-87939523D01*
X194974761Y-88034761D01*
X194927142Y-88082380D01*
X136890476Y-86452380D02*
X136890476Y-87166666D01*
X136842857Y-87309523D01*
X136747619Y-87404761D01*
X136604761Y-87452380D01*
X136509523Y-87452380D01*
X137890476Y-87452380D02*
X137319047Y-87452380D01*
X137604761Y-87452380D02*
X137604761Y-86452380D01*
X137509523Y-86595238D01*
X137414285Y-86690476D01*
X137319047Y-86738095D01*
X138461904Y-86880952D02*
X138366666Y-86833333D01*
X138319047Y-86785714D01*
X138271428Y-86690476D01*
X138271428Y-86642857D01*
X138319047Y-86547619D01*
X138366666Y-86500000D01*
X138461904Y-86452380D01*
X138652380Y-86452380D01*
X138747619Y-86500000D01*
X138795238Y-86547619D01*
X138842857Y-86642857D01*
X138842857Y-86690476D01*
X138795238Y-86785714D01*
X138747619Y-86833333D01*
X138652380Y-86880952D01*
X138461904Y-86880952D01*
X138366666Y-86928571D01*
X138319047Y-86976190D01*
X138271428Y-87071428D01*
X138271428Y-87261904D01*
X138319047Y-87357142D01*
X138366666Y-87404761D01*
X138461904Y-87452380D01*
X138652380Y-87452380D01*
X138747619Y-87404761D01*
X138795238Y-87357142D01*
X138842857Y-87261904D01*
X138842857Y-87071428D01*
X138795238Y-86976190D01*
X138747619Y-86928571D01*
X138652380Y-86880952D01*
X121338095Y-82502380D02*
X121338095Y-83311904D01*
X121385714Y-83407142D01*
X121433333Y-83454761D01*
X121528571Y-83502380D01*
X121719047Y-83502380D01*
X121814285Y-83454761D01*
X121861904Y-83407142D01*
X121909523Y-83311904D01*
X121909523Y-82502380D01*
X122814285Y-82835714D02*
X122814285Y-83502380D01*
X122576190Y-82454761D02*
X122338095Y-83169047D01*
X122957142Y-83169047D01*
X100323809Y-82776190D02*
X100323809Y-83252380D01*
X99990476Y-82252380D02*
X100323809Y-82776190D01*
X100657142Y-82252380D01*
X101514285Y-83252380D02*
X100942857Y-83252380D01*
X101228571Y-83252380D02*
X101228571Y-82252380D01*
X101133333Y-82395238D01*
X101038095Y-82490476D01*
X100942857Y-82538095D01*
X61714666Y-86752380D02*
X61714666Y-87466666D01*
X61667047Y-87609523D01*
X61571809Y-87704761D01*
X61428952Y-87752380D01*
X61333714Y-87752380D01*
X62619428Y-86752380D02*
X62428952Y-86752380D01*
X62333714Y-86800000D01*
X62286095Y-86847619D01*
X62190857Y-86990476D01*
X62143238Y-87180952D01*
X62143238Y-87561904D01*
X62190857Y-87657142D01*
X62238476Y-87704761D01*
X62333714Y-87752380D01*
X62524190Y-87752380D01*
X62619428Y-87704761D01*
X62667047Y-87657142D01*
X62714666Y-87561904D01*
X62714666Y-87323809D01*
X62667047Y-87228571D01*
X62619428Y-87180952D01*
X62524190Y-87133333D01*
X62333714Y-87133333D01*
X62238476Y-87180952D01*
X62190857Y-87228571D01*
X62143238Y-87323809D01*
X76107142Y-90916666D02*
X76154761Y-90964285D01*
X76202380Y-91107142D01*
X76202380Y-91202380D01*
X76154761Y-91345238D01*
X76059523Y-91440476D01*
X75964285Y-91488095D01*
X75773809Y-91535714D01*
X75630952Y-91535714D01*
X75440476Y-91488095D01*
X75345238Y-91440476D01*
X75250000Y-91345238D01*
X75202380Y-91202380D01*
X75202380Y-91107142D01*
X75250000Y-90964285D01*
X75297619Y-90916666D01*
X76202380Y-89964285D02*
X76202380Y-90535714D01*
X76202380Y-90250000D02*
X75202380Y-90250000D01*
X75345238Y-90345238D01*
X75440476Y-90440476D01*
X75488095Y-90535714D01*
X116157142Y-86766666D02*
X116204761Y-86814285D01*
X116252380Y-86957142D01*
X116252380Y-87052380D01*
X116204761Y-87195238D01*
X116109523Y-87290476D01*
X116014285Y-87338095D01*
X115823809Y-87385714D01*
X115680952Y-87385714D01*
X115490476Y-87338095D01*
X115395238Y-87290476D01*
X115300000Y-87195238D01*
X115252380Y-87052380D01*
X115252380Y-86957142D01*
X115300000Y-86814285D01*
X115347619Y-86766666D01*
X115252380Y-86433333D02*
X115252380Y-85814285D01*
X115633333Y-86147619D01*
X115633333Y-86004761D01*
X115680952Y-85909523D01*
X115728571Y-85861904D01*
X115823809Y-85814285D01*
X116061904Y-85814285D01*
X116157142Y-85861904D01*
X116204761Y-85909523D01*
X116252380Y-86004761D01*
X116252380Y-86290476D01*
X116204761Y-86385714D01*
X116157142Y-86433333D01*
X112083333Y-90057142D02*
X112035714Y-90104761D01*
X111892857Y-90152380D01*
X111797619Y-90152380D01*
X111654761Y-90104761D01*
X111559523Y-90009523D01*
X111511904Y-89914285D01*
X111464285Y-89723809D01*
X111464285Y-89580952D01*
X111511904Y-89390476D01*
X111559523Y-89295238D01*
X111654761Y-89200000D01*
X111797619Y-89152380D01*
X111892857Y-89152380D01*
X112035714Y-89200000D01*
X112083333Y-89247619D01*
X112940476Y-89485714D02*
X112940476Y-90152380D01*
X112702380Y-89104761D02*
X112464285Y-89819047D01*
X113083333Y-89819047D01*
X99757142Y-83566666D02*
X99804761Y-83614285D01*
X99852380Y-83757142D01*
X99852380Y-83852380D01*
X99804761Y-83995238D01*
X99709523Y-84090476D01*
X99614285Y-84138095D01*
X99423809Y-84185714D01*
X99280952Y-84185714D01*
X99090476Y-84138095D01*
X98995238Y-84090476D01*
X98900000Y-83995238D01*
X98852380Y-83852380D01*
X98852380Y-83757142D01*
X98900000Y-83614285D01*
X98947619Y-83566666D01*
X98852380Y-82661904D02*
X98852380Y-83138095D01*
X99328571Y-83185714D01*
X99280952Y-83138095D01*
X99233333Y-83042857D01*
X99233333Y-82804761D01*
X99280952Y-82709523D01*
X99328571Y-82661904D01*
X99423809Y-82614285D01*
X99661904Y-82614285D01*
X99757142Y-82661904D01*
X99804761Y-82709523D01*
X99852380Y-82804761D01*
X99852380Y-83042857D01*
X99804761Y-83138095D01*
X99757142Y-83185714D01*
X205557142Y-84666666D02*
X205604761Y-84714285D01*
X205652380Y-84857142D01*
X205652380Y-84952380D01*
X205604761Y-85095238D01*
X205509523Y-85190476D01*
X205414285Y-85238095D01*
X205223809Y-85285714D01*
X205080952Y-85285714D01*
X204890476Y-85238095D01*
X204795238Y-85190476D01*
X204700000Y-85095238D01*
X204652380Y-84952380D01*
X204652380Y-84857142D01*
X204700000Y-84714285D01*
X204747619Y-84666666D01*
X204652380Y-83809523D02*
X204652380Y-84000000D01*
X204700000Y-84095238D01*
X204747619Y-84142857D01*
X204890476Y-84238095D01*
X205080952Y-84285714D01*
X205461904Y-84285714D01*
X205557142Y-84238095D01*
X205604761Y-84190476D01*
X205652380Y-84095238D01*
X205652380Y-83904761D01*
X205604761Y-83809523D01*
X205557142Y-83761904D01*
X205461904Y-83714285D01*
X205223809Y-83714285D01*
X205128571Y-83761904D01*
X205080952Y-83809523D01*
X205033333Y-83904761D01*
X205033333Y-84095238D01*
X205080952Y-84190476D01*
X205128571Y-84238095D01*
X205223809Y-84285714D01*
X213657142Y-84266666D02*
X213704761Y-84314285D01*
X213752380Y-84457142D01*
X213752380Y-84552380D01*
X213704761Y-84695238D01*
X213609523Y-84790476D01*
X213514285Y-84838095D01*
X213323809Y-84885714D01*
X213180952Y-84885714D01*
X212990476Y-84838095D01*
X212895238Y-84790476D01*
X212800000Y-84695238D01*
X212752380Y-84552380D01*
X212752380Y-84457142D01*
X212800000Y-84314285D01*
X212847619Y-84266666D01*
X212752380Y-83933333D02*
X212752380Y-83266666D01*
X213752380Y-83695238D01*
X128507142Y-87316666D02*
X128554761Y-87364285D01*
X128602380Y-87507142D01*
X128602380Y-87602380D01*
X128554761Y-87745238D01*
X128459523Y-87840476D01*
X128364285Y-87888095D01*
X128173809Y-87935714D01*
X128030952Y-87935714D01*
X127840476Y-87888095D01*
X127745238Y-87840476D01*
X127650000Y-87745238D01*
X127602380Y-87602380D01*
X127602380Y-87507142D01*
X127650000Y-87364285D01*
X127697619Y-87316666D01*
X128030952Y-86745238D02*
X127983333Y-86840476D01*
X127935714Y-86888095D01*
X127840476Y-86935714D01*
X127792857Y-86935714D01*
X127697619Y-86888095D01*
X127650000Y-86840476D01*
X127602380Y-86745238D01*
X127602380Y-86554761D01*
X127650000Y-86459523D01*
X127697619Y-86411904D01*
X127792857Y-86364285D01*
X127840476Y-86364285D01*
X127935714Y-86411904D01*
X127983333Y-86459523D01*
X128030952Y-86554761D01*
X128030952Y-86745238D01*
X128078571Y-86840476D01*
X128126190Y-86888095D01*
X128221428Y-86935714D01*
X128411904Y-86935714D01*
X128507142Y-86888095D01*
X128554761Y-86840476D01*
X128602380Y-86745238D01*
X128602380Y-86554761D01*
X128554761Y-86459523D01*
X128507142Y-86411904D01*
X128411904Y-86364285D01*
X128221428Y-86364285D01*
X128126190Y-86411904D01*
X128078571Y-86459523D01*
X128030952Y-86554761D01*
X232683333Y-90207142D02*
X232635714Y-90254761D01*
X232492857Y-90302380D01*
X232397619Y-90302380D01*
X232254761Y-90254761D01*
X232159523Y-90159523D01*
X232111904Y-90064285D01*
X232064285Y-89873809D01*
X232064285Y-89730952D01*
X232111904Y-89540476D01*
X232159523Y-89445238D01*
X232254761Y-89350000D01*
X232397619Y-89302380D01*
X232492857Y-89302380D01*
X232635714Y-89350000D01*
X232683333Y-89397619D01*
X233159523Y-90302380D02*
X233350000Y-90302380D01*
X233445238Y-90254761D01*
X233492857Y-90207142D01*
X233588095Y-90064285D01*
X233635714Y-89873809D01*
X233635714Y-89492857D01*
X233588095Y-89397619D01*
X233540476Y-89350000D01*
X233445238Y-89302380D01*
X233254761Y-89302380D01*
X233159523Y-89350000D01*
X233111904Y-89397619D01*
X233064285Y-89492857D01*
X233064285Y-89730952D01*
X233111904Y-89826190D01*
X233159523Y-89873809D01*
X233254761Y-89921428D01*
X233445238Y-89921428D01*
X233540476Y-89873809D01*
X233588095Y-89826190D01*
X233635714Y-89730952D01*
X232107142Y-85692857D02*
X232154761Y-85740476D01*
X232202380Y-85883333D01*
X232202380Y-85978571D01*
X232154761Y-86121428D01*
X232059523Y-86216666D01*
X231964285Y-86264285D01*
X231773809Y-86311904D01*
X231630952Y-86311904D01*
X231440476Y-86264285D01*
X231345238Y-86216666D01*
X231250000Y-86121428D01*
X231202380Y-85978571D01*
X231202380Y-85883333D01*
X231250000Y-85740476D01*
X231297619Y-85692857D01*
X232202380Y-84740476D02*
X232202380Y-85311904D01*
X232202380Y-85026190D02*
X231202380Y-85026190D01*
X231345238Y-85121428D01*
X231440476Y-85216666D01*
X231488095Y-85311904D01*
X231202380Y-84121428D02*
X231202380Y-84026190D01*
X231250000Y-83930952D01*
X231297619Y-83883333D01*
X231392857Y-83835714D01*
X231583333Y-83788095D01*
X231821428Y-83788095D01*
X232011904Y-83835714D01*
X232107142Y-83883333D01*
X232154761Y-83930952D01*
X232202380Y-84026190D01*
X232202380Y-84121428D01*
X232154761Y-84216666D01*
X232107142Y-84264285D01*
X232011904Y-84311904D01*
X231821428Y-84359523D01*
X231583333Y-84359523D01*
X231392857Y-84311904D01*
X231297619Y-84264285D01*
X231250000Y-84216666D01*
X231202380Y-84121428D01*
X131007142Y-87607142D02*
X130959523Y-87654761D01*
X130816666Y-87702380D01*
X130721428Y-87702380D01*
X130578571Y-87654761D01*
X130483333Y-87559523D01*
X130435714Y-87464285D01*
X130388095Y-87273809D01*
X130388095Y-87130952D01*
X130435714Y-86940476D01*
X130483333Y-86845238D01*
X130578571Y-86750000D01*
X130721428Y-86702380D01*
X130816666Y-86702380D01*
X130959523Y-86750000D01*
X131007142Y-86797619D01*
X131959523Y-87702380D02*
X131388095Y-87702380D01*
X131673809Y-87702380D02*
X131673809Y-86702380D01*
X131578571Y-86845238D01*
X131483333Y-86940476D01*
X131388095Y-86988095D01*
X132911904Y-87702380D02*
X132340476Y-87702380D01*
X132626190Y-87702380D02*
X132626190Y-86702380D01*
X132530952Y-86845238D01*
X132435714Y-86940476D01*
X132340476Y-86988095D01*
X90107142Y-89642857D02*
X90154761Y-89690476D01*
X90202380Y-89833333D01*
X90202380Y-89928571D01*
X90154761Y-90071428D01*
X90059523Y-90166666D01*
X89964285Y-90214285D01*
X89773809Y-90261904D01*
X89630952Y-90261904D01*
X89440476Y-90214285D01*
X89345238Y-90166666D01*
X89250000Y-90071428D01*
X89202380Y-89928571D01*
X89202380Y-89833333D01*
X89250000Y-89690476D01*
X89297619Y-89642857D01*
X90202380Y-88690476D02*
X90202380Y-89261904D01*
X90202380Y-88976190D02*
X89202380Y-88976190D01*
X89345238Y-89071428D01*
X89440476Y-89166666D01*
X89488095Y-89261904D01*
X89297619Y-88309523D02*
X89250000Y-88261904D01*
X89202380Y-88166666D01*
X89202380Y-87928571D01*
X89250000Y-87833333D01*
X89297619Y-87785714D01*
X89392857Y-87738095D01*
X89488095Y-87738095D01*
X89630952Y-87785714D01*
X90202380Y-88357142D01*
X90202380Y-87738095D01*
X98357142Y-84242857D02*
X98404761Y-84290476D01*
X98452380Y-84433333D01*
X98452380Y-84528571D01*
X98404761Y-84671428D01*
X98309523Y-84766666D01*
X98214285Y-84814285D01*
X98023809Y-84861904D01*
X97880952Y-84861904D01*
X97690476Y-84814285D01*
X97595238Y-84766666D01*
X97500000Y-84671428D01*
X97452380Y-84528571D01*
X97452380Y-84433333D01*
X97500000Y-84290476D01*
X97547619Y-84242857D01*
X98452380Y-83290476D02*
X98452380Y-83861904D01*
X98452380Y-83576190D02*
X97452380Y-83576190D01*
X97595238Y-83671428D01*
X97690476Y-83766666D01*
X97738095Y-83861904D01*
X97452380Y-82957142D02*
X97452380Y-82338095D01*
X97833333Y-82671428D01*
X97833333Y-82528571D01*
X97880952Y-82433333D01*
X97928571Y-82385714D01*
X98023809Y-82338095D01*
X98261904Y-82338095D01*
X98357142Y-82385714D01*
X98404761Y-82433333D01*
X98452380Y-82528571D01*
X98452380Y-82814285D01*
X98404761Y-82909523D01*
X98357142Y-82957142D01*
X150914442Y-90595657D02*
X150962061Y-90643276D01*
X151009680Y-90786133D01*
X151009680Y-90881371D01*
X150962061Y-91024228D01*
X150866823Y-91119466D01*
X150771585Y-91167085D01*
X150581109Y-91214704D01*
X150438252Y-91214704D01*
X150247776Y-91167085D01*
X150152538Y-91119466D01*
X150057300Y-91024228D01*
X150009680Y-90881371D01*
X150009680Y-90786133D01*
X150057300Y-90643276D01*
X150104919Y-90595657D01*
X151009680Y-89643276D02*
X151009680Y-90214704D01*
X151009680Y-89928990D02*
X150009680Y-89928990D01*
X150152538Y-90024228D01*
X150247776Y-90119466D01*
X150295395Y-90214704D01*
X150343014Y-88786133D02*
X151009680Y-88786133D01*
X149962061Y-89024228D02*
X150676347Y-89262323D01*
X150676347Y-88643276D01*
X186164442Y-84007142D02*
X186116823Y-84054761D01*
X185973966Y-84102380D01*
X185878728Y-84102380D01*
X185735871Y-84054761D01*
X185640633Y-83959523D01*
X185593014Y-83864285D01*
X185545395Y-83673809D01*
X185545395Y-83530952D01*
X185593014Y-83340476D01*
X185640633Y-83245238D01*
X185735871Y-83150000D01*
X185878728Y-83102380D01*
X185973966Y-83102380D01*
X186116823Y-83150000D01*
X186164442Y-83197619D01*
X187116823Y-84102380D02*
X186545395Y-84102380D01*
X186831109Y-84102380D02*
X186831109Y-83102380D01*
X186735871Y-83245238D01*
X186640633Y-83340476D01*
X186545395Y-83388095D01*
X188021585Y-83102380D02*
X187545395Y-83102380D01*
X187497776Y-83578571D01*
X187545395Y-83530952D01*
X187640633Y-83483333D01*
X187878728Y-83483333D01*
X187973966Y-83530952D01*
X188021585Y-83578571D01*
X188069204Y-83673809D01*
X188069204Y-83911904D01*
X188021585Y-84007142D01*
X187973966Y-84054761D01*
X187878728Y-84102380D01*
X187640633Y-84102380D01*
X187545395Y-84054761D01*
X187497776Y-84007142D01*
X229807142Y-91557142D02*
X229759523Y-91604761D01*
X229616666Y-91652380D01*
X229521428Y-91652380D01*
X229378571Y-91604761D01*
X229283333Y-91509523D01*
X229235714Y-91414285D01*
X229188095Y-91223809D01*
X229188095Y-91080952D01*
X229235714Y-90890476D01*
X229283333Y-90795238D01*
X229378571Y-90700000D01*
X229521428Y-90652380D01*
X229616666Y-90652380D01*
X229759523Y-90700000D01*
X229807142Y-90747619D01*
X230759523Y-91652380D02*
X230188095Y-91652380D01*
X230473809Y-91652380D02*
X230473809Y-90652380D01*
X230378571Y-90795238D01*
X230283333Y-90890476D01*
X230188095Y-90938095D01*
X231616666Y-90652380D02*
X231426190Y-90652380D01*
X231330952Y-90700000D01*
X231283333Y-90747619D01*
X231188095Y-90890476D01*
X231140476Y-91080952D01*
X231140476Y-91461904D01*
X231188095Y-91557142D01*
X231235714Y-91604761D01*
X231330952Y-91652380D01*
X231521428Y-91652380D01*
X231616666Y-91604761D01*
X231664285Y-91557142D01*
X231711904Y-91461904D01*
X231711904Y-91223809D01*
X231664285Y-91128571D01*
X231616666Y-91080952D01*
X231521428Y-91033333D01*
X231330952Y-91033333D01*
X231235714Y-91080952D01*
X231188095Y-91128571D01*
X231140476Y-91223809D01*
X91654761Y-90261904D02*
X91702380Y-90119047D01*
X91702380Y-89880952D01*
X91654761Y-89785714D01*
X91607142Y-89738095D01*
X91511904Y-89690476D01*
X91416666Y-89690476D01*
X91321428Y-89738095D01*
X91273809Y-89785714D01*
X91226190Y-89880952D01*
X91178571Y-90071428D01*
X91130952Y-90166666D01*
X91083333Y-90214285D01*
X90988095Y-90261904D01*
X90892857Y-90261904D01*
X90797619Y-90214285D01*
X90750000Y-90166666D01*
X90702380Y-90071428D01*
X90702380Y-89833333D01*
X90750000Y-89690476D01*
X91702380Y-88738095D02*
X91702380Y-89309523D01*
X91702380Y-89023809D02*
X90702380Y-89023809D01*
X90845238Y-89119047D01*
X90940476Y-89214285D01*
X90988095Y-89309523D01*
X97838095Y-82004761D02*
X97980952Y-82052380D01*
X98219047Y-82052380D01*
X98314285Y-82004761D01*
X98361904Y-81957142D01*
X98409523Y-81861904D01*
X98409523Y-81766666D01*
X98361904Y-81671428D01*
X98314285Y-81623809D01*
X98219047Y-81576190D01*
X98028571Y-81528571D01*
X97933333Y-81480952D01*
X97885714Y-81433333D01*
X97838095Y-81338095D01*
X97838095Y-81242857D01*
X97885714Y-81147619D01*
X97933333Y-81100000D01*
X98028571Y-81052380D01*
X98266666Y-81052380D01*
X98409523Y-81100000D01*
X98790476Y-81147619D02*
X98838095Y-81100000D01*
X98933333Y-81052380D01*
X99171428Y-81052380D01*
X99266666Y-81100000D01*
X99314285Y-81147619D01*
X99361904Y-81242857D01*
X99361904Y-81338095D01*
X99314285Y-81480952D01*
X98742857Y-82052380D01*
X99361904Y-82052380D01*
X149238095Y-93404761D02*
X149380952Y-93452380D01*
X149619047Y-93452380D01*
X149714285Y-93404761D01*
X149761904Y-93357142D01*
X149809523Y-93261904D01*
X149809523Y-93166666D01*
X149761904Y-93071428D01*
X149714285Y-93023809D01*
X149619047Y-92976190D01*
X149428571Y-92928571D01*
X149333333Y-92880952D01*
X149285714Y-92833333D01*
X149238095Y-92738095D01*
X149238095Y-92642857D01*
X149285714Y-92547619D01*
X149333333Y-92500000D01*
X149428571Y-92452380D01*
X149666666Y-92452380D01*
X149809523Y-92500000D01*
X150142857Y-92452380D02*
X150761904Y-92452380D01*
X150428571Y-92833333D01*
X150571428Y-92833333D01*
X150666666Y-92880952D01*
X150714285Y-92928571D01*
X150761904Y-93023809D01*
X150761904Y-93261904D01*
X150714285Y-93357142D01*
X150666666Y-93404761D01*
X150571428Y-93452380D01*
X150285714Y-93452380D01*
X150190476Y-93404761D01*
X150142857Y-93357142D01*
X190045395Y-86259561D02*
X190188252Y-86307180D01*
X190426347Y-86307180D01*
X190521585Y-86259561D01*
X190569204Y-86211942D01*
X190616823Y-86116704D01*
X190616823Y-86021466D01*
X190569204Y-85926228D01*
X190521585Y-85878609D01*
X190426347Y-85830990D01*
X190235871Y-85783371D01*
X190140633Y-85735752D01*
X190093014Y-85688133D01*
X190045395Y-85592895D01*
X190045395Y-85497657D01*
X190093014Y-85402419D01*
X190140633Y-85354800D01*
X190235871Y-85307180D01*
X190473966Y-85307180D01*
X190616823Y-85354800D01*
X191473966Y-85640514D02*
X191473966Y-86307180D01*
X191235871Y-85259561D02*
X190997776Y-85973847D01*
X191616823Y-85973847D01*
X230888095Y-94254761D02*
X231030952Y-94302380D01*
X231269047Y-94302380D01*
X231364285Y-94254761D01*
X231411904Y-94207142D01*
X231459523Y-94111904D01*
X231459523Y-94016666D01*
X231411904Y-93921428D01*
X231364285Y-93873809D01*
X231269047Y-93826190D01*
X231078571Y-93778571D01*
X230983333Y-93730952D01*
X230935714Y-93683333D01*
X230888095Y-93588095D01*
X230888095Y-93492857D01*
X230935714Y-93397619D01*
X230983333Y-93350000D01*
X231078571Y-93302380D01*
X231316666Y-93302380D01*
X231459523Y-93350000D01*
X232364285Y-93302380D02*
X231888095Y-93302380D01*
X231840476Y-93778571D01*
X231888095Y-93730952D01*
X231983333Y-93683333D01*
X232221428Y-93683333D01*
X232316666Y-93730952D01*
X232364285Y-93778571D01*
X232411904Y-93873809D01*
X232411904Y-94111904D01*
X232364285Y-94207142D01*
X232316666Y-94254761D01*
X232221428Y-94302380D01*
X231983333Y-94302380D01*
X231888095Y-94254761D01*
X231840476Y-94207142D01*
X80940476Y-84702380D02*
X80940476Y-85416666D01*
X80892857Y-85559523D01*
X80797619Y-85654761D01*
X80654761Y-85702380D01*
X80559523Y-85702380D01*
X81940476Y-85702380D02*
X81369047Y-85702380D01*
X81654761Y-85702380D02*
X81654761Y-84702380D01*
X81559523Y-84845238D01*
X81464285Y-84940476D01*
X81369047Y-84988095D01*
X82797619Y-84702380D02*
X82607142Y-84702380D01*
X82511904Y-84750000D01*
X82464285Y-84797619D01*
X82369047Y-84940476D01*
X82321428Y-85130952D01*
X82321428Y-85511904D01*
X82369047Y-85607142D01*
X82416666Y-85654761D01*
X82511904Y-85702380D01*
X82702380Y-85702380D01*
X82797619Y-85654761D01*
X82845238Y-85607142D01*
X82892857Y-85511904D01*
X82892857Y-85273809D01*
X82845238Y-85178571D01*
X82797619Y-85130952D01*
X82702380Y-85083333D01*
X82511904Y-85083333D01*
X82416666Y-85130952D01*
X82369047Y-85178571D01*
X82321428Y-85273809D01*
X95902976Y-86702380D02*
X95902976Y-87416666D01*
X95855357Y-87559523D01*
X95760119Y-87654761D01*
X95617261Y-87702380D01*
X95522023Y-87702380D01*
X96902976Y-87702380D02*
X96331547Y-87702380D01*
X96617261Y-87702380D02*
X96617261Y-86702380D01*
X96522023Y-86845238D01*
X96426785Y-86940476D01*
X96331547Y-86988095D01*
X97236309Y-86702380D02*
X97902976Y-86702380D01*
X97474404Y-87702380D01*
X218940476Y-86552380D02*
X218940476Y-87266666D01*
X218892857Y-87409523D01*
X218797619Y-87504761D01*
X218654761Y-87552380D01*
X218559523Y-87552380D01*
X219369047Y-86647619D02*
X219416666Y-86600000D01*
X219511904Y-86552380D01*
X219750000Y-86552380D01*
X219845238Y-86600000D01*
X219892857Y-86647619D01*
X219940476Y-86742857D01*
X219940476Y-86838095D01*
X219892857Y-86980952D01*
X219321428Y-87552380D01*
X219940476Y-87552380D01*
X220559523Y-86552380D02*
X220654761Y-86552380D01*
X220750000Y-86600000D01*
X220797619Y-86647619D01*
X220845238Y-86742857D01*
X220892857Y-86933333D01*
X220892857Y-87171428D01*
X220845238Y-87361904D01*
X220797619Y-87457142D01*
X220750000Y-87504761D01*
X220654761Y-87552380D01*
X220559523Y-87552380D01*
X220464285Y-87504761D01*
X220416666Y-87457142D01*
X220369047Y-87361904D01*
X220321428Y-87171428D01*
X220321428Y-86933333D01*
X220369047Y-86742857D01*
X220416666Y-86647619D01*
X220464285Y-86600000D01*
X220559523Y-86552380D01*
X109652380Y-85233333D02*
X110366666Y-85233333D01*
X110509523Y-85280952D01*
X110604761Y-85376190D01*
X110652380Y-85519047D01*
X110652380Y-85614285D01*
X110652380Y-84757142D02*
X109652380Y-84757142D01*
X109652380Y-84376190D01*
X109700000Y-84280952D01*
X109747619Y-84233333D01*
X109842857Y-84185714D01*
X109985714Y-84185714D01*
X110080952Y-84233333D01*
X110128571Y-84280952D01*
X110176190Y-84376190D01*
X110176190Y-84757142D01*
X110652380Y-83233333D02*
X110652380Y-83804761D01*
X110652380Y-83519047D02*
X109652380Y-83519047D01*
X109795238Y-83614285D01*
X109890476Y-83709523D01*
X109938095Y-83804761D01*
X112466666Y-80452380D02*
X112466666Y-81166666D01*
X112419047Y-81309523D01*
X112323809Y-81404761D01*
X112180952Y-81452380D01*
X112085714Y-81452380D01*
X112942857Y-81452380D02*
X112942857Y-80452380D01*
X113323809Y-80452380D01*
X113419047Y-80500000D01*
X113466666Y-80547619D01*
X113514285Y-80642857D01*
X113514285Y-80785714D01*
X113466666Y-80880952D01*
X113419047Y-80928571D01*
X113323809Y-80976190D01*
X112942857Y-80976190D01*
X113895238Y-80547619D02*
X113942857Y-80500000D01*
X114038095Y-80452380D01*
X114276190Y-80452380D01*
X114371428Y-80500000D01*
X114419047Y-80547619D01*
X114466666Y-80642857D01*
X114466666Y-80738095D01*
X114419047Y-80880952D01*
X113847619Y-81452380D01*
X114466666Y-81452380D01*
X131433333Y-90502380D02*
X131100000Y-90026190D01*
X130861904Y-90502380D02*
X130861904Y-89502380D01*
X131242857Y-89502380D01*
X131338095Y-89550000D01*
X131385714Y-89597619D01*
X131433333Y-89692857D01*
X131433333Y-89835714D01*
X131385714Y-89930952D01*
X131338095Y-89978571D01*
X131242857Y-90026190D01*
X130861904Y-90026190D01*
X131814285Y-89597619D02*
X131861904Y-89550000D01*
X131957142Y-89502380D01*
X132195238Y-89502380D01*
X132290476Y-89550000D01*
X132338095Y-89597619D01*
X132385714Y-89692857D01*
X132385714Y-89788095D01*
X132338095Y-89930952D01*
X131766666Y-90502380D01*
X132385714Y-90502380D01*
X86702380Y-84166666D02*
X86226190Y-84500000D01*
X86702380Y-84738095D02*
X85702380Y-84738095D01*
X85702380Y-84357142D01*
X85750000Y-84261904D01*
X85797619Y-84214285D01*
X85892857Y-84166666D01*
X86035714Y-84166666D01*
X86130952Y-84214285D01*
X86178571Y-84261904D01*
X86226190Y-84357142D01*
X86226190Y-84738095D01*
X85702380Y-83833333D02*
X85702380Y-83214285D01*
X86083333Y-83547619D01*
X86083333Y-83404761D01*
X86130952Y-83309523D01*
X86178571Y-83261904D01*
X86273809Y-83214285D01*
X86511904Y-83214285D01*
X86607142Y-83261904D01*
X86654761Y-83309523D01*
X86702380Y-83404761D01*
X86702380Y-83690476D01*
X86654761Y-83785714D01*
X86607142Y-83833333D01*
X102652380Y-84566666D02*
X102176190Y-84900000D01*
X102652380Y-85138095D02*
X101652380Y-85138095D01*
X101652380Y-84757142D01*
X101700000Y-84661904D01*
X101747619Y-84614285D01*
X101842857Y-84566666D01*
X101985714Y-84566666D01*
X102080952Y-84614285D01*
X102128571Y-84661904D01*
X102176190Y-84757142D01*
X102176190Y-85138095D01*
X101985714Y-83709523D02*
X102652380Y-83709523D01*
X101604761Y-83947619D02*
X102319047Y-84185714D01*
X102319047Y-83566666D01*
X143552380Y-91666666D02*
X143076190Y-92000000D01*
X143552380Y-92238095D02*
X142552380Y-92238095D01*
X142552380Y-91857142D01*
X142600000Y-91761904D01*
X142647619Y-91714285D01*
X142742857Y-91666666D01*
X142885714Y-91666666D01*
X142980952Y-91714285D01*
X143028571Y-91761904D01*
X143076190Y-91857142D01*
X143076190Y-92238095D01*
X142552380Y-90761904D02*
X142552380Y-91238095D01*
X143028571Y-91285714D01*
X142980952Y-91238095D01*
X142933333Y-91142857D01*
X142933333Y-90904761D01*
X142980952Y-90809523D01*
X143028571Y-90761904D01*
X143123809Y-90714285D01*
X143361904Y-90714285D01*
X143457142Y-90761904D01*
X143504761Y-90809523D01*
X143552380Y-90904761D01*
X143552380Y-91142857D01*
X143504761Y-91238095D01*
X143457142Y-91285714D01*
X184602380Y-84866666D02*
X184126190Y-85200000D01*
X184602380Y-85438095D02*
X183602380Y-85438095D01*
X183602380Y-85057142D01*
X183650000Y-84961904D01*
X183697619Y-84914285D01*
X183792857Y-84866666D01*
X183935714Y-84866666D01*
X184030952Y-84914285D01*
X184078571Y-84961904D01*
X184126190Y-85057142D01*
X184126190Y-85438095D01*
X183602380Y-84009523D02*
X183602380Y-84200000D01*
X183650000Y-84295238D01*
X183697619Y-84342857D01*
X183840476Y-84438095D01*
X184030952Y-84485714D01*
X184411904Y-84485714D01*
X184507142Y-84438095D01*
X184554761Y-84390476D01*
X184602380Y-84295238D01*
X184602380Y-84104761D01*
X184554761Y-84009523D01*
X184507142Y-83961904D01*
X184411904Y-83914285D01*
X184173809Y-83914285D01*
X184078571Y-83961904D01*
X184030952Y-84009523D01*
X183983333Y-84104761D01*
X183983333Y-84295238D01*
X184030952Y-84390476D01*
X184078571Y-84438095D01*
X184173809Y-84485714D01*
X225552380Y-84666666D02*
X225076190Y-85000000D01*
X225552380Y-85238095D02*
X224552380Y-85238095D01*
X224552380Y-84857142D01*
X224600000Y-84761904D01*
X224647619Y-84714285D01*
X224742857Y-84666666D01*
X224885714Y-84666666D01*
X224980952Y-84714285D01*
X225028571Y-84761904D01*
X225076190Y-84857142D01*
X225076190Y-85238095D01*
X224552380Y-84333333D02*
X224552380Y-83666666D01*
X225552380Y-84095238D01*
X158304761Y-90883333D02*
X158352380Y-90740476D01*
X158352380Y-90502380D01*
X158304761Y-90407142D01*
X158257142Y-90359523D01*
X158161904Y-90311904D01*
X158066666Y-90311904D01*
X157971428Y-90359523D01*
X157923809Y-90407142D01*
X157876190Y-90502380D01*
X157828571Y-90692857D01*
X157780952Y-90788095D01*
X157733333Y-90835714D01*
X157638095Y-90883333D01*
X157542857Y-90883333D01*
X157447619Y-90835714D01*
X157400000Y-90788095D01*
X157352380Y-90692857D01*
X157352380Y-90454761D01*
X157400000Y-90311904D01*
X157352380Y-89978571D02*
X158352380Y-89740476D01*
X157638095Y-89550000D01*
X158352380Y-89359523D01*
X157352380Y-89121428D01*
X158352380Y-88216666D02*
X158352380Y-88788095D01*
X158352380Y-88502380D02*
X157352380Y-88502380D01*
X157495238Y-88597619D01*
X157590476Y-88692857D01*
X157638095Y-88788095D01*
X69452380Y-92664704D02*
X70261904Y-92664704D01*
X70357142Y-92617085D01*
X70404761Y-92569466D01*
X70452380Y-92474228D01*
X70452380Y-92283752D01*
X70404761Y-92188514D01*
X70357142Y-92140895D01*
X70261904Y-92093276D01*
X69452380Y-92093276D01*
X70452380Y-91093276D02*
X70452380Y-91664704D01*
X70452380Y-91378990D02*
X69452380Y-91378990D01*
X69595238Y-91474228D01*
X69690476Y-91569466D01*
X69738095Y-91664704D01*
X234145395Y-92402380D02*
X234145395Y-93211904D01*
X234193014Y-93307142D01*
X234240633Y-93354761D01*
X234335871Y-93402380D01*
X234526347Y-93402380D01*
X234621585Y-93354761D01*
X234669204Y-93307142D01*
X234716823Y-93211904D01*
X234716823Y-92402380D01*
X235097776Y-92402380D02*
X235716823Y-92402380D01*
X235383490Y-92783333D01*
X235526347Y-92783333D01*
X235621585Y-92830952D01*
X235669204Y-92878571D01*
X235716823Y-92973809D01*
X235716823Y-93211904D01*
X235669204Y-93307142D01*
X235621585Y-93354761D01*
X235526347Y-93402380D01*
X235240633Y-93402380D01*
X235145395Y-93354761D01*
X235097776Y-93307142D01*
X208488095Y-81602380D02*
X208488095Y-82411904D01*
X208535714Y-82507142D01*
X208583333Y-82554761D01*
X208678571Y-82602380D01*
X208869047Y-82602380D01*
X208964285Y-82554761D01*
X209011904Y-82507142D01*
X209059523Y-82411904D01*
X209059523Y-81602380D01*
X210011904Y-81602380D02*
X209535714Y-81602380D01*
X209488095Y-82078571D01*
X209535714Y-82030952D01*
X209630952Y-81983333D01*
X209869047Y-81983333D01*
X209964285Y-82030952D01*
X210011904Y-82078571D01*
X210059523Y-82173809D01*
X210059523Y-82411904D01*
X210011904Y-82507142D01*
X209964285Y-82554761D01*
X209869047Y-82602380D01*
X209630952Y-82602380D01*
X209535714Y-82554761D01*
X209488095Y-82507142D01*
X87702380Y-90011904D02*
X88511904Y-90011904D01*
X88607142Y-89964285D01*
X88654761Y-89916666D01*
X88702380Y-89821428D01*
X88702380Y-89630952D01*
X88654761Y-89535714D01*
X88607142Y-89488095D01*
X88511904Y-89440476D01*
X87702380Y-89440476D01*
X87702380Y-89059523D02*
X87702380Y-88392857D01*
X88702380Y-88821428D01*
X95438095Y-82452380D02*
X95438095Y-83261904D01*
X95485714Y-83357142D01*
X95533333Y-83404761D01*
X95628571Y-83452380D01*
X95819047Y-83452380D01*
X95914285Y-83404761D01*
X95961904Y-83357142D01*
X96009523Y-83261904D01*
X96009523Y-82452380D01*
X96628571Y-82880952D02*
X96533333Y-82833333D01*
X96485714Y-82785714D01*
X96438095Y-82690476D01*
X96438095Y-82642857D01*
X96485714Y-82547619D01*
X96533333Y-82500000D01*
X96628571Y-82452380D01*
X96819047Y-82452380D01*
X96914285Y-82500000D01*
X96961904Y-82547619D01*
X97009523Y-82642857D01*
X97009523Y-82690476D01*
X96961904Y-82785714D01*
X96914285Y-82833333D01*
X96819047Y-82880952D01*
X96628571Y-82880952D01*
X96533333Y-82928571D01*
X96485714Y-82976190D01*
X96438095Y-83071428D01*
X96438095Y-83261904D01*
X96485714Y-83357142D01*
X96533333Y-83404761D01*
X96628571Y-83452380D01*
X96819047Y-83452380D01*
X96914285Y-83404761D01*
X96961904Y-83357142D01*
X97009523Y-83261904D01*
X97009523Y-83071428D01*
X96961904Y-82976190D01*
X96914285Y-82928571D01*
X96819047Y-82880952D01*
X145645395Y-87402380D02*
X145645395Y-88211904D01*
X145693014Y-88307142D01*
X145740633Y-88354761D01*
X145835871Y-88402380D01*
X146026347Y-88402380D01*
X146121585Y-88354761D01*
X146169204Y-88307142D01*
X146216823Y-88211904D01*
X146216823Y-87402380D01*
X146740633Y-88402380D02*
X146931109Y-88402380D01*
X147026347Y-88354761D01*
X147073966Y-88307142D01*
X147169204Y-88164285D01*
X147216823Y-87973809D01*
X147216823Y-87592857D01*
X147169204Y-87497619D01*
X147121585Y-87450000D01*
X147026347Y-87402380D01*
X146835871Y-87402380D01*
X146740633Y-87450000D01*
X146693014Y-87497619D01*
X146645395Y-87592857D01*
X146645395Y-87830952D01*
X146693014Y-87926190D01*
X146740633Y-87973809D01*
X146835871Y-88021428D01*
X147026347Y-88021428D01*
X147121585Y-87973809D01*
X147169204Y-87926190D01*
X147216823Y-87830952D01*
X186111904Y-90602380D02*
X186111904Y-91411904D01*
X186159523Y-91507142D01*
X186207142Y-91554761D01*
X186302380Y-91602380D01*
X186492857Y-91602380D01*
X186588095Y-91554761D01*
X186635714Y-91507142D01*
X186683333Y-91411904D01*
X186683333Y-90602380D01*
X187683333Y-91602380D02*
X187111904Y-91602380D01*
X187397619Y-91602380D02*
X187397619Y-90602380D01*
X187302380Y-90745238D01*
X187207142Y-90840476D01*
X187111904Y-90888095D01*
X188302380Y-90602380D02*
X188397619Y-90602380D01*
X188492857Y-90650000D01*
X188540476Y-90697619D01*
X188588095Y-90792857D01*
X188635714Y-90983333D01*
X188635714Y-91221428D01*
X188588095Y-91411904D01*
X188540476Y-91507142D01*
X188492857Y-91554761D01*
X188397619Y-91602380D01*
X188302380Y-91602380D01*
X188207142Y-91554761D01*
X188159523Y-91507142D01*
X188111904Y-91411904D01*
X188064285Y-91221428D01*
X188064285Y-90983333D01*
X188111904Y-90792857D01*
X188159523Y-90697619D01*
X188207142Y-90650000D01*
X188302380Y-90602380D01*
X226411904Y-89402380D02*
X226411904Y-90211904D01*
X226459523Y-90307142D01*
X226507142Y-90354761D01*
X226602380Y-90402380D01*
X226792857Y-90402380D01*
X226888095Y-90354761D01*
X226935714Y-90307142D01*
X226983333Y-90211904D01*
X226983333Y-89402380D01*
X227983333Y-90402380D02*
X227411904Y-90402380D01*
X227697619Y-90402380D02*
X227697619Y-89402380D01*
X227602380Y-89545238D01*
X227507142Y-89640476D01*
X227411904Y-89688095D01*
X228935714Y-90402380D02*
X228364285Y-90402380D01*
X228650000Y-90402380D02*
X228650000Y-89402380D01*
X228554761Y-89545238D01*
X228459523Y-89640476D01*
X228364285Y-89688095D01*
X228788095Y-84002380D02*
X228788095Y-84811904D01*
X228835714Y-84907142D01*
X228883333Y-84954761D01*
X228978571Y-85002380D01*
X229169047Y-85002380D01*
X229264285Y-84954761D01*
X229311904Y-84907142D01*
X229359523Y-84811904D01*
X229359523Y-84002380D01*
X229788095Y-84097619D02*
X229835714Y-84050000D01*
X229930952Y-84002380D01*
X230169047Y-84002380D01*
X230264285Y-84050000D01*
X230311904Y-84097619D01*
X230359523Y-84192857D01*
X230359523Y-84288095D01*
X230311904Y-84430952D01*
X229740476Y-85002380D01*
X230359523Y-85002380D01*
X73833333Y-84702380D02*
X73500000Y-84226190D01*
X73261904Y-84702380D02*
X73261904Y-83702380D01*
X73642857Y-83702380D01*
X73738095Y-83750000D01*
X73785714Y-83797619D01*
X73833333Y-83892857D01*
X73833333Y-84035714D01*
X73785714Y-84130952D01*
X73738095Y-84178571D01*
X73642857Y-84226190D01*
X73261904Y-84226190D01*
X74785714Y-84702380D02*
X74214285Y-84702380D01*
X74500000Y-84702380D02*
X74500000Y-83702380D01*
X74404761Y-83845238D01*
X74309523Y-83940476D01*
X74214285Y-83988095D01*
X105633333Y-82957142D02*
X105585714Y-83004761D01*
X105442857Y-83052380D01*
X105347619Y-83052380D01*
X105204761Y-83004761D01*
X105109523Y-82909523D01*
X105061904Y-82814285D01*
X105014285Y-82623809D01*
X105014285Y-82480952D01*
X105061904Y-82290476D01*
X105109523Y-82195238D01*
X105204761Y-82100000D01*
X105347619Y-82052380D01*
X105442857Y-82052380D01*
X105585714Y-82100000D01*
X105633333Y-82147619D01*
X106014285Y-82147619D02*
X106061904Y-82100000D01*
X106157142Y-82052380D01*
X106395238Y-82052380D01*
X106490476Y-82100000D01*
X106538095Y-82147619D01*
X106585714Y-82242857D01*
X106585714Y-82338095D01*
X106538095Y-82480952D01*
X105966666Y-83052380D01*
X106585714Y-83052380D01*
X103961428Y-84310952D02*
X103961428Y-83549047D01*
X104342380Y-83930000D02*
X103580476Y-83930000D01*
X170786904Y-90377380D02*
X170786904Y-89377380D01*
X171025000Y-89377380D01*
X171167857Y-89425000D01*
X171263095Y-89520238D01*
X171310714Y-89615476D01*
X171358333Y-89805952D01*
X171358333Y-89948809D01*
X171310714Y-90139285D01*
X171263095Y-90234523D01*
X171167857Y-90329761D01*
X171025000Y-90377380D01*
X170786904Y-90377380D01*
X172310714Y-90377380D02*
X171739285Y-90377380D01*
X172025000Y-90377380D02*
X172025000Y-89377380D01*
X171929761Y-89520238D01*
X171834523Y-89615476D01*
X171739285Y-89663095D01*
X166477380Y-91866666D02*
X166001190Y-92200000D01*
X166477380Y-92438095D02*
X165477380Y-92438095D01*
X165477380Y-92057142D01*
X165525000Y-91961904D01*
X165572619Y-91914285D01*
X165667857Y-91866666D01*
X165810714Y-91866666D01*
X165905952Y-91914285D01*
X165953571Y-91961904D01*
X166001190Y-92057142D01*
X166001190Y-92438095D01*
X165905952Y-91295238D02*
X165858333Y-91390476D01*
X165810714Y-91438095D01*
X165715476Y-91485714D01*
X165667857Y-91485714D01*
X165572619Y-91438095D01*
X165525000Y-91390476D01*
X165477380Y-91295238D01*
X165477380Y-91104761D01*
X165525000Y-91009523D01*
X165572619Y-90961904D01*
X165667857Y-90914285D01*
X165715476Y-90914285D01*
X165810714Y-90961904D01*
X165858333Y-91009523D01*
X165905952Y-91104761D01*
X165905952Y-91295238D01*
X165953571Y-91390476D01*
X166001190Y-91438095D01*
X166096428Y-91485714D01*
X166286904Y-91485714D01*
X166382142Y-91438095D01*
X166429761Y-91390476D01*
X166477380Y-91295238D01*
X166477380Y-91104761D01*
X166429761Y-91009523D01*
X166382142Y-90961904D01*
X166286904Y-90914285D01*
X166096428Y-90914285D01*
X166001190Y-90961904D01*
X165953571Y-91009523D01*
X165905952Y-91104761D01*
X112752380Y-88538095D02*
X111752380Y-88538095D01*
X111752380Y-88300000D01*
X111800000Y-88157142D01*
X111895238Y-88061904D01*
X111990476Y-88014285D01*
X112180952Y-87966666D01*
X112323809Y-87966666D01*
X112514285Y-88014285D01*
X112609523Y-88061904D01*
X112704761Y-88157142D01*
X112752380Y-88300000D01*
X112752380Y-88538095D01*
X111847619Y-87585714D02*
X111800000Y-87538095D01*
X111752380Y-87442857D01*
X111752380Y-87204761D01*
X111800000Y-87109523D01*
X111847619Y-87061904D01*
X111942857Y-87014285D01*
X112038095Y-87014285D01*
X112180952Y-87061904D01*
X112752380Y-87633333D01*
X112752380Y-87014285D01*
X115683333Y-81452380D02*
X115350000Y-80976190D01*
X115111904Y-81452380D02*
X115111904Y-80452380D01*
X115492857Y-80452380D01*
X115588095Y-80500000D01*
X115635714Y-80547619D01*
X115683333Y-80642857D01*
X115683333Y-80785714D01*
X115635714Y-80880952D01*
X115588095Y-80928571D01*
X115492857Y-80976190D01*
X115111904Y-80976190D01*
X116159523Y-81452380D02*
X116350000Y-81452380D01*
X116445238Y-81404761D01*
X116492857Y-81357142D01*
X116588095Y-81214285D01*
X116635714Y-81023809D01*
X116635714Y-80642857D01*
X116588095Y-80547619D01*
X116540476Y-80500000D01*
X116445238Y-80452380D01*
X116254761Y-80452380D01*
X116159523Y-80500000D01*
X116111904Y-80547619D01*
X116064285Y-80642857D01*
X116064285Y-80880952D01*
X116111904Y-80976190D01*
X116159523Y-81023809D01*
X116254761Y-81071428D01*
X116445238Y-81071428D01*
X116540476Y-81023809D01*
X116588095Y-80976190D01*
X116635714Y-80880952D01*
X241701666Y-80612380D02*
X241701666Y-81326666D01*
X241654047Y-81469523D01*
X241558809Y-81564761D01*
X241415952Y-81612380D01*
X241320714Y-81612380D01*
X242701666Y-81612380D02*
X242130238Y-81612380D01*
X242415952Y-81612380D02*
X242415952Y-80612380D01*
X242320714Y-80755238D01*
X242225476Y-80850476D01*
X242130238Y-80898095D01*
M02*
