G04 #@! TF.GenerationSoftware,KiCad,Pcbnew,(2018-01-21 revision 6b9866de8)-makepkg*
G04 #@! TF.CreationDate,2018-04-10T18:06:55+02:00*
G04 #@! TF.ProjectId,Arm_interface_board_panel,41726D5F696E746572666163655F626F,rev?*
G04 #@! TF.SameCoordinates,Original*
G04 #@! TF.FileFunction,Soldermask,Bot*
G04 #@! TF.FilePolarity,Negative*
%FSLAX46Y46*%
G04 Gerber Fmt 4.6, Leading zero omitted, Abs format (unit mm)*
G04 Created by KiCad (PCBNEW (2018-01-21 revision 6b9866de8)-makepkg) date 04/10/18 18:06:55*
%MOMM*%
%LPD*%
G01*
G04 APERTURE LIST*
%ADD10C,0.150000*%
%ADD11C,4.003200*%
%ADD12C,1.703300*%
%ADD13C,2.003200*%
%ADD14R,2.003200X2.003200*%
%ADD15R,1.903200X1.903200*%
%ADD16O,1.903200X1.903200*%
%ADD17C,1.553200*%
%ADD18R,1.553200X1.553200*%
%ADD19R,1.203200X1.203200*%
%ADD20O,1.203200X1.203200*%
G04 APERTURE END LIST*
D10*
G36*
X172750000Y-85050000D02*
X175150000Y-85050000D01*
X175150000Y-86850000D01*
X172750000Y-86850000D01*
X172750000Y-85050000D01*
G37*
X172750000Y-85050000D02*
X175150000Y-85050000D01*
X175150000Y-86850000D01*
X172750000Y-86850000D01*
X172750000Y-85050000D01*
G36*
X177057300Y-92902800D02*
X177057300Y-94102800D01*
X182707300Y-94102800D01*
X182707300Y-92902800D01*
X177057300Y-92902800D01*
G37*
X177057300Y-92902800D02*
X177057300Y-94102800D01*
X182707300Y-94102800D01*
X182707300Y-92902800D01*
X177057300Y-92902800D01*
D11*
X232600000Y-88300000D03*
X151600000Y-88300000D03*
X70600000Y-88300000D03*
D12*
X179700000Y-92300000D03*
D13*
X174490000Y-93040000D03*
X175760000Y-90500000D03*
X177030000Y-93040000D03*
D14*
X178300000Y-90500000D03*
D15*
X194900000Y-90400000D03*
D16*
X194900000Y-87860000D03*
X197440000Y-90400000D03*
X197440000Y-87860000D03*
X199980000Y-90400000D03*
X199980000Y-87860000D03*
D14*
X137300000Y-90500000D03*
D13*
X136030000Y-93040000D03*
X134760000Y-90500000D03*
X133490000Y-93040000D03*
D12*
X138700000Y-92300000D03*
D17*
X64048000Y-91446000D03*
X62048000Y-91446000D03*
X60048000Y-91446000D03*
X58048000Y-91446000D03*
X56048000Y-91446000D03*
X64048000Y-93446000D03*
X62048000Y-93446000D03*
X60048000Y-93446000D03*
X58048000Y-93446000D03*
D18*
X56048000Y-93446000D03*
D14*
X81000000Y-92600000D03*
D13*
X78460000Y-91330000D03*
X81000000Y-90060000D03*
X78460000Y-88790000D03*
D12*
X79200000Y-94000000D03*
X97700000Y-92300000D03*
D13*
X92490000Y-93040000D03*
X93760000Y-90500000D03*
X95030000Y-93040000D03*
D14*
X96300000Y-90500000D03*
X219300000Y-90500000D03*
D13*
X218030000Y-93040000D03*
X216760000Y-90500000D03*
X215490000Y-93040000D03*
D12*
X220700000Y-92300000D03*
D19*
X239400000Y-83855000D03*
D20*
X240670000Y-83855000D03*
X239400000Y-85125000D03*
X240670000Y-85125000D03*
X239400000Y-86395000D03*
X240670000Y-86395000D03*
X239400000Y-87665000D03*
X240670000Y-87665000D03*
X239400000Y-88935000D03*
X240670000Y-88935000D03*
X239400000Y-90205000D03*
X240670000Y-90205000D03*
X239400000Y-91475000D03*
X240670000Y-91475000D03*
X239400000Y-92745000D03*
X240670000Y-92745000D03*
D19*
X239400000Y-101005000D03*
D20*
X240670000Y-101005000D03*
X239400000Y-102275000D03*
X240670000Y-102275000D03*
X239400000Y-103545000D03*
X240670000Y-103545000D03*
X239400000Y-104815000D03*
X240670000Y-104815000D03*
X239400000Y-106085000D03*
X240670000Y-106085000D03*
X239400000Y-107355000D03*
X240670000Y-107355000D03*
X239400000Y-108625000D03*
X240670000Y-108625000D03*
X239400000Y-109895000D03*
X240670000Y-109895000D03*
D12*
X220700000Y-102510000D03*
D13*
X215490000Y-103250000D03*
X216760000Y-100710000D03*
X218030000Y-103250000D03*
D14*
X219300000Y-100710000D03*
D12*
X138700000Y-102510000D03*
D13*
X133490000Y-103250000D03*
X134760000Y-100710000D03*
X136030000Y-103250000D03*
D14*
X137300000Y-100710000D03*
D17*
X56048000Y-102304000D03*
X58048000Y-102304000D03*
X60048000Y-102304000D03*
X62048000Y-102304000D03*
X64048000Y-102304000D03*
X56048000Y-100304000D03*
X58048000Y-100304000D03*
X60048000Y-100304000D03*
X62048000Y-100304000D03*
D18*
X64048000Y-100304000D03*
D12*
X97700000Y-102510000D03*
D13*
X92490000Y-103250000D03*
X93760000Y-100710000D03*
X95030000Y-103250000D03*
D14*
X96300000Y-100710000D03*
D12*
X79200000Y-106360000D03*
D13*
X78460000Y-101150000D03*
X81000000Y-102420000D03*
X78460000Y-103690000D03*
D14*
X81000000Y-104960000D03*
D12*
X179700000Y-102510000D03*
D13*
X174490000Y-103250000D03*
X175760000Y-100710000D03*
X177030000Y-103250000D03*
D14*
X178300000Y-100710000D03*
D11*
X232600000Y-105450000D03*
X151600000Y-105450000D03*
X70600000Y-105450000D03*
D15*
X192100000Y-105850000D03*
D16*
X192100000Y-103310000D03*
X194640000Y-105850000D03*
X194640000Y-103310000D03*
X197180000Y-105850000D03*
X197180000Y-103310000D03*
M02*
