G04 #@! TF.GenerationSoftware,KiCad,Pcbnew,(2018-01-21 revision 6b9866de8)-makepkg*
G04 #@! TF.CreationDate,2018-04-10T18:06:55+02:00*
G04 #@! TF.ProjectId,Arm_interface_board_panel,41726D5F696E746572666163655F626F,rev?*
G04 #@! TF.SameCoordinates,Original*
G04 #@! TF.FileFunction,Profile,NP*
%FSLAX46Y46*%
G04 Gerber Fmt 4.6, Leading zero omitted, Abs format (unit mm)*
G04 Created by KiCad (PCBNEW (2018-01-21 revision 6b9866de8)-makepkg) date 04/10/18 18:06:55*
%MOMM*%
%LPD*%
G01*
G04 APERTURE LIST*
%ADD10C,0.100000*%
G04 APERTURE END LIST*
D10*
X75600000Y-98150000D02*
X53000000Y-98150000D01*
X75600000Y-95600000D02*
X53000000Y-95600000D01*
X143700000Y-98150000D02*
X83800000Y-98150000D01*
X211800000Y-98150000D02*
X151900000Y-98150000D01*
X242600000Y-98150000D02*
X220000000Y-98150000D01*
X220000000Y-95600000D02*
X242600000Y-95600000D01*
X151900000Y-95600000D02*
X211800000Y-95600000D01*
X83800000Y-95600000D02*
X143700000Y-95600000D01*
X143700000Y-98150000D02*
G75*
G03X143700000Y-95600000I0J1275000D01*
G01*
X151900000Y-98150000D02*
G75*
G02X151900000Y-95600000I0J1275000D01*
G01*
X211800000Y-98150000D02*
G75*
G03X211800000Y-95600000I0J1275000D01*
G01*
X220000000Y-98150000D02*
G75*
G02X220000000Y-95600000I0J1275000D01*
G01*
X83800000Y-98150000D02*
G75*
G02X83800000Y-95600000I0J1275000D01*
G01*
X75600000Y-98150000D02*
G75*
G03X75600000Y-95600000I0J1275000D01*
G01*
X233800000Y-88300000D02*
G75*
G03X233800000Y-88300000I-1200000J0D01*
G01*
X90922624Y-85000000D02*
X92922624Y-85000000D01*
X90922624Y-81000000D02*
X90922624Y-85000000D01*
X53000000Y-81000000D02*
X90922624Y-81000000D01*
X53000000Y-95600000D02*
X53000000Y-81000000D01*
X242600000Y-81000000D02*
X242600000Y-95600000D01*
X215922624Y-81000000D02*
X242600000Y-81000000D01*
X215922624Y-85000000D02*
X215922624Y-81000000D01*
X213922624Y-85000000D02*
X215922624Y-85000000D01*
X213922624Y-81000000D02*
X213922624Y-85000000D01*
X174922624Y-81000000D02*
X213922624Y-81000000D01*
X174922624Y-85000000D02*
X174922624Y-81000000D01*
X172922624Y-85000000D02*
X174922624Y-85000000D01*
X172922624Y-81000000D02*
X172922624Y-85000000D01*
X133922624Y-81000000D02*
X172922624Y-81000000D01*
X133922624Y-85000000D02*
X133922624Y-81000000D01*
X131922624Y-85000000D02*
X133922624Y-85000000D01*
X131922624Y-81000000D02*
X131922624Y-85000000D01*
X92922624Y-81000000D02*
X131922624Y-81000000D01*
X92922624Y-85000000D02*
X92922624Y-81000000D01*
X152800000Y-88300000D02*
G75*
G03X152800000Y-88300000I-1200000J0D01*
G01*
X71800000Y-88300000D02*
G75*
G03X71800000Y-88300000I-1200000J0D01*
G01*
X233800000Y-105450000D02*
G75*
G03X233800000Y-105450000I-1200000J0D01*
G01*
X90922624Y-108750000D02*
X92922624Y-108750000D01*
X90922624Y-112750000D02*
X90922624Y-108750000D01*
X53000000Y-112750000D02*
X90922624Y-112750000D01*
X53000000Y-98150000D02*
X53000000Y-112750000D01*
X242600000Y-112750000D02*
X242600000Y-98150000D01*
X215922624Y-112750000D02*
X242600000Y-112750000D01*
X215922624Y-108750000D02*
X215922624Y-112750000D01*
X213922624Y-108750000D02*
X215922624Y-108750000D01*
X213922624Y-112750000D02*
X213922624Y-108750000D01*
X174922624Y-112750000D02*
X213922624Y-112750000D01*
X174922624Y-108750000D02*
X174922624Y-112750000D01*
X172922624Y-108750000D02*
X174922624Y-108750000D01*
X172922624Y-112750000D02*
X172922624Y-108750000D01*
X133922624Y-112750000D02*
X172922624Y-112750000D01*
X133922624Y-108750000D02*
X133922624Y-112750000D01*
X131922624Y-108750000D02*
X133922624Y-108750000D01*
X131922624Y-112750000D02*
X131922624Y-108750000D01*
X92922624Y-112750000D02*
X131922624Y-112750000D01*
X92922624Y-108750000D02*
X92922624Y-112750000D01*
X152800000Y-105450000D02*
G75*
G03X152800000Y-105450000I-1200000J0D01*
G01*
X71800000Y-105450000D02*
G75*
G03X71800000Y-105450000I-1200000J0D01*
G01*
M02*
