G04 #@! TF.GenerationSoftware,KiCad,Pcbnew,(2018-01-21 revision 6b9866de8)-makepkg*
G04 #@! TF.CreationDate,2018-04-10T18:06:55+02:00*
G04 #@! TF.ProjectId,Arm_interface_board_panel,41726D5F696E746572666163655F626F,rev?*
G04 #@! TF.SameCoordinates,Original*
G04 #@! TF.FileFunction,Paste,Top*
G04 #@! TF.FilePolarity,Positive*
%FSLAX46Y46*%
G04 Gerber Fmt 4.6, Leading zero omitted, Abs format (unit mm)*
G04 Created by KiCad (PCBNEW (2018-01-21 revision 6b9866de8)-makepkg) date 04/10/18 18:06:55*
%MOMM*%
%LPD*%
G01*
G04 APERTURE LIST*
%ADD10R,0.397600X1.347600*%
%ADD11R,1.447600X0.397600*%
%ADD12R,0.397600X1.447600*%
%ADD13R,1.247600X1.047600*%
%ADD14R,0.497600X0.422600*%
%ADD15R,0.422600X0.497600*%
%ADD16R,1.647600X0.917600*%
%ADD17R,0.947600X1.647600*%
%ADD18R,0.497600X0.907600*%
%ADD19R,0.047600X0.377600*%
%ADD20R,0.907600X0.497600*%
%ADD21R,0.522600X0.097600*%
%ADD22R,0.097600X0.522600*%
%ADD23R,0.917600X1.647600*%
%ADD24R,1.447600X2.447600*%
%ADD25R,0.517600X0.847600*%
%ADD26R,0.847600X0.517600*%
%ADD27R,0.377600X0.047600*%
G04 APERTURE END LIST*
D10*
X111000000Y-85300000D03*
X114250000Y-85300000D03*
D11*
X115850000Y-87300000D03*
X115850000Y-88100000D03*
X115850000Y-88900000D03*
X115850000Y-89700000D03*
X115850000Y-90500000D03*
X115850000Y-91300000D03*
X115850000Y-92100000D03*
X115850000Y-92900000D03*
D12*
X117300000Y-94350000D03*
X118100000Y-94350000D03*
X118900000Y-94350000D03*
X119700000Y-94350000D03*
X120500000Y-94350000D03*
X121300000Y-94350000D03*
X122100000Y-94350000D03*
X122900000Y-94350000D03*
D11*
X124350000Y-92900000D03*
X124350000Y-92100000D03*
X124350000Y-91300000D03*
X124350000Y-90500000D03*
X124350000Y-89700000D03*
X124350000Y-88900000D03*
X124350000Y-88100000D03*
X124350000Y-87300000D03*
D12*
X122900000Y-85850000D03*
X122100000Y-85850000D03*
X121300000Y-85850000D03*
X120500000Y-85850000D03*
X119700000Y-85850000D03*
X118900000Y-85850000D03*
X118100000Y-85850000D03*
X117300000Y-85850000D03*
D13*
X108800000Y-92350000D03*
X106600000Y-92350000D03*
X106600000Y-94050000D03*
X108800000Y-94050000D03*
D14*
X73057300Y-93990300D03*
X73057300Y-93215300D03*
X114200000Y-90487500D03*
X114200000Y-89712500D03*
D15*
X110657300Y-91902800D03*
X111432300Y-91902800D03*
D14*
X104957300Y-93715300D03*
X104957300Y-94490300D03*
X204650000Y-85112500D03*
X204650000Y-85887500D03*
X209850000Y-85900000D03*
X209850000Y-85125000D03*
X126000000Y-90500000D03*
X126000000Y-89725000D03*
D15*
X230462500Y-92000000D03*
X231237500Y-92000000D03*
D14*
X229750000Y-88112500D03*
X229750000Y-88887500D03*
D15*
X128037500Y-89500000D03*
X127262500Y-89500000D03*
D14*
X87600000Y-92937500D03*
X87600000Y-92162500D03*
X103557300Y-93727800D03*
X103557300Y-94502800D03*
X147057300Y-91340300D03*
X147057300Y-90565300D03*
D15*
X184419800Y-86852800D03*
X185194800Y-86852800D03*
D14*
X226500000Y-93087500D03*
X226500000Y-92312500D03*
D15*
X128037500Y-90700000D03*
X127262500Y-90700000D03*
D16*
X84200000Y-90200000D03*
X84200000Y-87190000D03*
X100100000Y-87490000D03*
X100100000Y-90500000D03*
X141100000Y-90500000D03*
X141100000Y-87490000D03*
X182100000Y-87500000D03*
X182100000Y-90510000D03*
X223100000Y-90500000D03*
X223100000Y-87490000D03*
D17*
X157650000Y-93650000D03*
X157650000Y-87450000D03*
X161350000Y-93650000D03*
X161350000Y-87450000D03*
D18*
X71557300Y-94002800D03*
X69657300Y-94002800D03*
X69657300Y-91802800D03*
X70607300Y-91802800D03*
X71557300Y-91802800D03*
D19*
X231432300Y-93217800D03*
X231082300Y-93217800D03*
X230732300Y-93217800D03*
X230382300Y-93217800D03*
X230382300Y-93887800D03*
X230732300Y-93887800D03*
X231082300Y-93887800D03*
X231432300Y-93887800D03*
D20*
X208350000Y-85100000D03*
X208350000Y-87000000D03*
X206150000Y-87000000D03*
X206150000Y-86050000D03*
X206150000Y-85100000D03*
X86100000Y-94050000D03*
X86100000Y-93100000D03*
X86100000Y-92150000D03*
X83900000Y-92150000D03*
X83900000Y-94050000D03*
X99700000Y-94150000D03*
X99700000Y-92250000D03*
X101900000Y-92250000D03*
X101900000Y-93200000D03*
X101900000Y-94150000D03*
X145507300Y-92402800D03*
X145507300Y-91452800D03*
X145507300Y-90502800D03*
X143307300Y-90502800D03*
X143307300Y-92402800D03*
D18*
X186307300Y-90502800D03*
X184407300Y-90502800D03*
X184407300Y-88302800D03*
X185357300Y-88302800D03*
X186307300Y-88302800D03*
D20*
X225000000Y-94150000D03*
X225000000Y-93200000D03*
X225000000Y-92250000D03*
X222800000Y-92250000D03*
X222800000Y-94150000D03*
D21*
X226537500Y-88300000D03*
X226537500Y-88800000D03*
X226537500Y-87800000D03*
X228562500Y-88800000D03*
X228562500Y-88300000D03*
X228562500Y-87800000D03*
D22*
X226800000Y-89562500D03*
X227300000Y-89562500D03*
X227800000Y-89562500D03*
X228300000Y-89562500D03*
X228300000Y-87037500D03*
X227800000Y-87037500D03*
X227300000Y-87037500D03*
X226800000Y-87037500D03*
D23*
X72167300Y-83052800D03*
X69157300Y-83052800D03*
D24*
X103900000Y-85900000D03*
X103900000Y-89500000D03*
D25*
X166050000Y-90925000D03*
X167800000Y-90925000D03*
D14*
X164025000Y-90937500D03*
X164025000Y-90162500D03*
D26*
X112100000Y-88525000D03*
X112100000Y-90275000D03*
D15*
X113462500Y-91450000D03*
X114237500Y-91450000D03*
D13*
X125900000Y-102100000D03*
X128100000Y-102100000D03*
X128100000Y-100400000D03*
X125900000Y-100400000D03*
D14*
X103200000Y-101337500D03*
X103200000Y-100562500D03*
D10*
X122925000Y-107650000D03*
X119675000Y-107650000D03*
D11*
X118050000Y-106450000D03*
X118050000Y-105650000D03*
X118050000Y-104850000D03*
X118050000Y-104050000D03*
X118050000Y-103250000D03*
X118050000Y-102450000D03*
X118050000Y-101650000D03*
X118050000Y-100850000D03*
D12*
X116600000Y-99400000D03*
X115800000Y-99400000D03*
X115000000Y-99400000D03*
X114200000Y-99400000D03*
X113400000Y-99400000D03*
X112600000Y-99400000D03*
X111800000Y-99400000D03*
X111000000Y-99400000D03*
D11*
X109550000Y-100850000D03*
X109550000Y-101650000D03*
X109550000Y-102450000D03*
X109550000Y-103250000D03*
X109550000Y-104050000D03*
X109550000Y-104850000D03*
X109550000Y-105650000D03*
X109550000Y-106450000D03*
D12*
X111000000Y-107900000D03*
X111800000Y-107900000D03*
X112600000Y-107900000D03*
X113400000Y-107900000D03*
X114200000Y-107900000D03*
X115000000Y-107900000D03*
X115800000Y-107900000D03*
X116600000Y-107900000D03*
D14*
X73057300Y-101625000D03*
X73057300Y-100850000D03*
X119700000Y-103262500D03*
X119700000Y-104037500D03*
X124300000Y-103187500D03*
X124300000Y-102412500D03*
X129700000Y-100737500D03*
X129700000Y-99962500D03*
X203725000Y-103262500D03*
X203725000Y-104037500D03*
X208950000Y-104037500D03*
X208950000Y-103262500D03*
X107900000Y-103262500D03*
X107900000Y-104037500D03*
X231025000Y-101437500D03*
X231025000Y-100662500D03*
X229750000Y-104862500D03*
X229750000Y-105637500D03*
D15*
X121712500Y-105050000D03*
X122487500Y-105050000D03*
D14*
X87200000Y-100962500D03*
X87200000Y-101737500D03*
X146500000Y-101862500D03*
X146500000Y-102637500D03*
X187500000Y-102337500D03*
X187500000Y-101562500D03*
X226200000Y-100562500D03*
X226200000Y-101337500D03*
D15*
X120812500Y-104050000D03*
X121587500Y-104050000D03*
D16*
X84200000Y-103550000D03*
X84200000Y-106560000D03*
X100100000Y-106355000D03*
X100100000Y-103345000D03*
X141000000Y-100545000D03*
X141000000Y-103555000D03*
X182000000Y-103555000D03*
X182000000Y-100545000D03*
X223150000Y-104470000D03*
X223150000Y-107480000D03*
D17*
X157650000Y-106300000D03*
X157650000Y-100100000D03*
X161350000Y-106300000D03*
X161350000Y-100100000D03*
D18*
X71557300Y-101947200D03*
X69657300Y-101947200D03*
X69657300Y-99747200D03*
X70607300Y-99747200D03*
X71557300Y-99747200D03*
D27*
X232215000Y-100525000D03*
X232215000Y-100875000D03*
X232215000Y-101225000D03*
X232215000Y-101575000D03*
X232885000Y-101575000D03*
X232885000Y-101225000D03*
X232885000Y-100875000D03*
X232885000Y-100525000D03*
D20*
X207450000Y-103250000D03*
X207450000Y-105150000D03*
X205250000Y-105150000D03*
X205250000Y-104200000D03*
X205250000Y-103250000D03*
D18*
X85750000Y-99650000D03*
X84800000Y-99650000D03*
X83850000Y-99650000D03*
X83850000Y-101850000D03*
X85750000Y-101850000D03*
X101750000Y-101650000D03*
X99850000Y-101650000D03*
X99850000Y-99450000D03*
X100800000Y-99450000D03*
X101750000Y-99450000D03*
X145050000Y-100550000D03*
X144100000Y-100550000D03*
X143150000Y-100550000D03*
X143150000Y-102750000D03*
X145050000Y-102750000D03*
X186050000Y-102750000D03*
X184150000Y-102750000D03*
X184150000Y-100550000D03*
X185100000Y-100550000D03*
X186050000Y-100550000D03*
X224750000Y-100525000D03*
X223800000Y-100525000D03*
X222850000Y-100525000D03*
X222850000Y-102725000D03*
X224750000Y-102725000D03*
D21*
X226537500Y-105450000D03*
X226537500Y-105950000D03*
X226537500Y-104950000D03*
X228562500Y-105950000D03*
X228562500Y-105450000D03*
X228562500Y-104950000D03*
D22*
X226800000Y-106712500D03*
X227300000Y-106712500D03*
X227800000Y-106712500D03*
X228300000Y-106712500D03*
X228300000Y-104187500D03*
X227800000Y-104187500D03*
X227300000Y-104187500D03*
X226800000Y-104187500D03*
D23*
X72167300Y-110697200D03*
X69157300Y-110697200D03*
D24*
X103900000Y-107850000D03*
X103900000Y-104250000D03*
D26*
X163800000Y-106775000D03*
X163800000Y-105025000D03*
D14*
X165525000Y-106112500D03*
X165525000Y-106887500D03*
D26*
X107300000Y-105775000D03*
X107300000Y-107525000D03*
D15*
X107687500Y-108750000D03*
X106912500Y-108750000D03*
D14*
X234075000Y-100637500D03*
X234075000Y-101412500D03*
M02*
