M48
METRIC,TZ
T1C0.400
T2C0.650
T3C0.800
T4C0.800
T5C1.000
T6C2.200
T7C1.500
%
G90
G05
T1
X69050Y-88300
X69050Y-105450
X70600Y-86750
X70600Y-89850
X70600Y-103900
X70600Y-107000
X72150Y-88300
X72150Y-105450
X72457Y-91803
X75291Y-91803
X77000Y-95850
X77000Y-97900
X77600Y-95850
X77600Y-97900
X78200Y-95850
X78200Y-97900
X78800Y-95850
X78800Y-97900
X79400Y-95850
X79400Y-97900
X80000Y-95850
X80000Y-97900
X80457Y-87222
X80457Y-87974
X80600Y-95850
X80600Y-97900
X81200Y-95850
X81200Y-97900
X81800Y-95850
X81800Y-97900
X82400Y-95850
X82400Y-97900
X85957Y-88503
X88325Y-103175
X88550Y-92700
X89000Y-99750
X89700Y-102050
X89700Y-103150
X92900Y-99050
X97470Y-88087
X100000Y-89300
X101500Y-104350
X101500Y-105102
X102735Y-93200
X103057Y-90403
X103100Y-103350
X103900Y-103350
X103907Y-90403
X104257Y-92203
X104700Y-103350
X104757Y-90403
X104900Y-101450
X105700Y-103350
X105700Y-105150
X108881Y-99583
X109100Y-107250
X109950Y-86997
X110800Y-105650
X110848Y-90265
X110850Y-86997
X111000Y-106550
X111329Y-104850
X111900Y-103350
X112214Y-106204
X112500Y-103950
X112600Y-100750
X112600Y-106850
X113300Y-90500
X113400Y-106850
X113452Y-100944
X113700Y-102350
X113700Y-103102
X113836Y-105072
X114200Y-90488
X114238Y-91450
X114374Y-101624
X115000Y-106850
X115059Y-105072
X115200Y-94900
X115350Y-86350
X115800Y-106850
X115850Y-105072
X116224Y-103461
X116350Y-86350
X116507Y-93703
X116575Y-90500
X116600Y-102121
X117099Y-91767
X117300Y-92900
X117375Y-90325
X117775Y-88975
X117800Y-107850
X118100Y-92900
X118900Y-86671
X118902Y-93099
X118930Y-106480
X119025Y-89850
X119298Y-99897
X119700Y-88979
X119900Y-100850
X120025Y-90400
X120050Y-99893
X120485Y-92951
X120500Y-88750
X121100Y-100750
X121100Y-102404
X121257Y-92903
X121300Y-88500
X122100Y-92900
X122102Y-88500
X122243Y-104038
X122852Y-92910
X122950Y-88100
X122957Y-88903
X123700Y-100750
X124357Y-86743
X124900Y-105521
X125600Y-94062
X125900Y-86446
X127075Y-87529
X127094Y-92366
X128064Y-93336
X128100Y-100400
X128100Y-101825
X128926Y-89924
X129125Y-92375
X129138Y-105350
X129700Y-104850
X129725Y-101700
X130450Y-104650
X131232Y-101740
X131300Y-104350
X131301Y-102798
X131309Y-103550
X131657Y-89829
X132050Y-102650
X132057Y-91203
X132457Y-89829
X132600Y-100200
X133007Y-91203
X134750Y-102650
X137550Y-103950
X138170Y-107380
X138759Y-106439
X138820Y-104912
X139083Y-107521
X139325Y-105510
X139513Y-104390
X139687Y-106195
X142257Y-93753
X143107Y-93553
X143350Y-87450
X144007Y-93553
X144344Y-86655
X144357Y-87408
X145100Y-95850
X145100Y-97900
X145700Y-95850
X145700Y-97900
X146300Y-95850
X146300Y-97900
X146900Y-95850
X146900Y-97900
X147207Y-88053
X147500Y-95850
X147500Y-97900
X148100Y-95850
X148100Y-97900
X148700Y-95850
X148700Y-97900
X148981Y-90829
X149300Y-95850
X149300Y-97900
X149900Y-95850
X149900Y-97900
X150050Y-88300
X150050Y-105450
X150500Y-95850
X150500Y-97900
X150627Y-91363
X151597Y-91373
X151600Y-86750
X151600Y-89850
X151600Y-103900
X151600Y-107000
X152567Y-91373
X153150Y-88300
X153150Y-105450
X156750Y-90000
X159400Y-100247
X161350Y-104625
X163325Y-88150
X163650Y-86625
X164700Y-100198
X167800Y-92250
X168858Y-103471
X169531Y-103133
X170253Y-102875
X170307Y-93253
X171125Y-102528
X171357Y-93253
X171928Y-102473
X172350Y-93250
X172600Y-100552
X172635Y-102183
X173400Y-101350
X178491Y-103549
X178500Y-105300
X178852Y-104209
X179150Y-104900
X179150Y-105700
X180035Y-106079
X180446Y-103754
X185107Y-93853
X185200Y-85900
X185428Y-107492
X186257Y-93553
X186350Y-107675
X187625Y-105262
X187625Y-104475
X187625Y-106014
X187736Y-107071
X188802Y-107177
X189850Y-102225
X190900Y-88900
X190900Y-99589
X195198Y-93265
X196657Y-94503
X197457Y-94503
X198257Y-94503
X199084Y-94177
X200606Y-94189
X201757Y-90453
X204950Y-88225
X204950Y-89000
X204950Y-89775
X204950Y-90550
X204950Y-91325
X204950Y-92100
X206150Y-104200
X206800Y-104200
X207200Y-86050
X207950Y-86050
X209450Y-88225
X209450Y-89000
X209450Y-89775
X209450Y-90550
X209450Y-91325
X209450Y-92100
X210701Y-99976
X210805Y-101742
X211185Y-99284
X211724Y-106630
X211725Y-103550
X211725Y-104350
X211725Y-105102
X211727Y-105877
X211850Y-86400
X211875Y-98979
X212000Y-101525
X212807Y-93553
X213170Y-99875
X213200Y-95850
X213200Y-97900
X213800Y-95850
X213800Y-97900
X213923Y-99875
X214400Y-95850
X214400Y-97900
X214675Y-99875
X215000Y-95850
X215000Y-97900
X215427Y-99875
X215600Y-95850
X215600Y-97900
X216200Y-95850
X216200Y-97900
X216800Y-95850
X216800Y-97900
X217400Y-95850
X217400Y-97900
X217502Y-106557
X218000Y-95850
X218000Y-97900
X218600Y-95850
X218600Y-97900
X219400Y-104625
X219581Y-108775
X219900Y-87050
X220152Y-104617
X220423Y-109100
X220850Y-108375
X220905Y-104600
X221275Y-109100
X223825Y-101200
X224700Y-89950
X225900Y-86450
X226325Y-103225
X226500Y-93884
X227125Y-103229
X227300Y-88773
X227446Y-105425
X227888Y-93081
X228100Y-99892
X228521Y-91279
X228975Y-103833
X230273Y-102350
X231025Y-102325
X231050Y-88300
X231050Y-105450
X231975Y-102325
X232138Y-99902
X232250Y-92200
X232300Y-93274
X232550Y-109675
X232600Y-86750
X232600Y-89850
X232600Y-103900
X232600Y-107000
X232841Y-92741
X232890Y-99890
X232943Y-112036
X233125Y-102325
X233350Y-109725
X233500Y-91900
X234075Y-102025
X234093Y-100192
X234150Y-88300
X234150Y-105450
X235107Y-91653
X235114Y-101986
X235250Y-86600
X235600Y-94800
X235958Y-91649
X236125Y-109575
X236132Y-110398
X236417Y-99500
X236417Y-100350
X236417Y-101225
X236417Y-102017
X236600Y-86600
X236654Y-88504
X236850Y-94950
X236938Y-92683
X237015Y-91600
X237300Y-87700
X237500Y-83250
X238400Y-109250
X238882Y-94371
T2
X239400Y-86395
X239400Y-109895
X239400Y-83855
X239400Y-85125
X239400Y-101005
X239400Y-103545
X239400Y-104815
X239400Y-106085
X239400Y-107355
X240670Y-83855
X239400Y-108625
X240670Y-85125
X239400Y-102275
X239400Y-87665
X239400Y-88935
X239400Y-90205
X239400Y-91475
X239400Y-92745
X240670Y-86395
X240670Y-87665
X240670Y-88935
X240670Y-90205
X240670Y-91475
X240670Y-92745
X240670Y-101005
X240670Y-102275
X240670Y-103545
X240670Y-104815
X240670Y-106085
X240670Y-107355
X240670Y-108625
X240670Y-109895
T3
X56048Y-91446
X56048Y-93446
X58048Y-91446
X58048Y-93446
X60048Y-91446
X60048Y-93446
X62048Y-91446
X62048Y-93446
X64048Y-91446
X64048Y-93446
X56048Y-100304
X56048Y-102304
X58048Y-100304
X58048Y-102304
X60048Y-100304
X60048Y-102304
X62048Y-100304
X62048Y-102304
X64048Y-100304
X64048Y-102304
T4
X174490Y-93040
X175760Y-90500
X177030Y-93040
X178300Y-90500
X215490Y-103250
X216760Y-100710
X218030Y-103250
X219300Y-100710
X215490Y-93040
X216760Y-90500
X218030Y-93040
X219300Y-90500
X92490Y-93040
X93760Y-90500
X95030Y-93040
X96300Y-90500
X78460Y-88790
X78460Y-91330
X81000Y-90060
X81000Y-92600
X78460Y-101150
X133490Y-93040
X136030Y-93040
X137300Y-90500
X174490Y-103250
X175760Y-100710
X177030Y-103250
X178300Y-100710
X78460Y-103690
X81000Y-104960
X134760Y-90500
X81000Y-102420
X92490Y-103250
X136030Y-103250
X137300Y-100710
X93760Y-100710
X95030Y-103250
X96300Y-100710
X133490Y-103250
X134760Y-100710
T5
X192100Y-103310
X192100Y-105850
X194640Y-103310
X194640Y-105850
X197180Y-103310
X197180Y-105850
X194900Y-87860
X194900Y-90400
X197440Y-87860
X197440Y-90400
X199980Y-87860
X199980Y-90400
T6
X232600Y-88300
X151600Y-88300
X70600Y-88300
X232600Y-105450
X151600Y-105450
X70600Y-105450
T7
X97700Y-92300
X79200Y-106360
X138700Y-92300
X97700Y-102510
X138700Y-102510
X179700Y-92300
X179700Y-102510
X220700Y-102510
X79200Y-94000
X220700Y-92300
T0
M30
