%TF.GenerationSoftware,KiCad,Pcbnew,(2018-01-21 revision 6b9866de8)-makepkg*%
%TF.CreationDate,2018-04-10T17:10:11+02:00*%
%TF.ProjectId,Arm_interface_board_panel,41726D5F696E746572666163655F626F,rev?*%
%TF.SameCoordinates,Original*%
%TF.FileFunction,Soldermask,Top*%
%TF.FilePolarity,Negative*%
%FSLAX46Y46*%
G04 Gerber Fmt 4.6, Leading zero omitted, Abs format (unit mm)*
G04 Created by KiCad (PCBNEW (2018-01-21 revision 6b9866de8)-makepkg) date 04/10/18 17:10:11*
%MOMM*%
%LPD*%
G01*
G04 APERTURE LIST*
%ADD10C,0.150000*%
%ADD11C,0.010000*%
%ADD12R,0.753200X1.703200*%
%ADD13C,4.003200*%
%ADD14C,1.703300*%
%ADD15C,2.003200*%
%ADD16R,2.003200X2.003200*%
%ADD17R,1.903200X1.903200*%
%ADD18O,1.903200X1.903200*%
%ADD19R,1.803200X0.753200*%
%ADD20R,0.753200X1.803200*%
%ADD21R,1.603200X1.403200*%
%ADD22C,1.553200*%
%ADD23R,1.553200X1.553200*%
%ADD24R,0.853200X0.778200*%
%ADD25R,0.778200X0.853200*%
%ADD26C,1.203200*%
%ADD27R,1.703200X0.703200*%
%ADD28C,0.100000*%
%ADD29R,1.703200X1.203200*%
%ADD30R,0.703200X1.703200*%
%ADD31R,1.203200X1.703200*%
%ADD32R,2.003200X1.273200*%
%ADD33R,1.303200X2.003200*%
%ADD34R,0.853200X1.263200*%
%ADD35R,0.403200X0.733200*%
%ADD36R,1.263200X0.853200*%
%ADD37R,0.878200X0.453200*%
%ADD38R,0.453200X0.878200*%
%ADD39R,1.273200X2.003200*%
%ADD40R,1.803200X2.803200*%
%ADD41R,0.873200X1.203200*%
%ADD42R,1.203200X0.873200*%
%ADD43R,1.203200X1.203200*%
%ADD44O,1.203200X1.203200*%
%ADD45R,0.733200X0.403200*%
G04 APERTURE END LIST*
D10*
G36*
X131725000Y-108550000D02*
X134125000Y-108550000D01*
X134125000Y-106750000D01*
X131725000Y-106750000D01*
X131725000Y-108550000D01*
G37*
X131725000Y-108550000D02*
X134125000Y-108550000D01*
X134125000Y-106750000D01*
X131725000Y-106750000D01*
X131725000Y-108550000D01*
G36*
X172750000Y-108700000D02*
X175150000Y-108700000D01*
X175150000Y-106900000D01*
X172750000Y-106900000D01*
X172750000Y-108700000D01*
G37*
X172750000Y-108700000D02*
X175150000Y-108700000D01*
X175150000Y-106900000D01*
X172750000Y-106900000D01*
X172750000Y-108700000D01*
D11*
G36*
X137711411Y-81597658D02*
X137760303Y-81599034D01*
X137801791Y-81601227D01*
X137804248Y-81601404D01*
X137970730Y-81618617D01*
X138134856Y-81645619D01*
X138296263Y-81682236D01*
X138454589Y-81728297D01*
X138609470Y-81783628D01*
X138760545Y-81848056D01*
X138907451Y-81921410D01*
X139049824Y-82003515D01*
X139187304Y-82094199D01*
X139319526Y-82193290D01*
X139446128Y-82300614D01*
X139566748Y-82415999D01*
X139611488Y-82462506D01*
X139722388Y-82587802D01*
X139824852Y-82718680D01*
X139918766Y-82854894D01*
X140004014Y-82996197D01*
X140080485Y-83142344D01*
X140148064Y-83293091D01*
X140206637Y-83448190D01*
X140256090Y-83607396D01*
X140296310Y-83770465D01*
X140327184Y-83937149D01*
X140341027Y-84037580D01*
X140343688Y-84065614D01*
X140346056Y-84102158D01*
X140348107Y-84145565D01*
X140349818Y-84194188D01*
X140351168Y-84246379D01*
X140352131Y-84300493D01*
X140352687Y-84354881D01*
X140352810Y-84407898D01*
X140352479Y-84457897D01*
X140351671Y-84503229D01*
X140350362Y-84542250D01*
X140348529Y-84573311D01*
X140348521Y-84573409D01*
X140330425Y-84737738D01*
X140302523Y-84899947D01*
X140265024Y-85059636D01*
X140218137Y-85216405D01*
X140162068Y-85369853D01*
X140097026Y-85519580D01*
X140023220Y-85665186D01*
X139940858Y-85806271D01*
X139850147Y-85942433D01*
X139751295Y-86073273D01*
X139644512Y-86198391D01*
X139530005Y-86317385D01*
X139407982Y-86429856D01*
X139363827Y-86467365D01*
X139232339Y-86570164D01*
X139095556Y-86664370D01*
X138953820Y-86749844D01*
X138807475Y-86826444D01*
X138656863Y-86894030D01*
X138502328Y-86952462D01*
X138344213Y-87001599D01*
X138182861Y-87041300D01*
X138018615Y-87071425D01*
X137851818Y-87091834D01*
X137836220Y-87093230D01*
X137804605Y-87095421D01*
X137765273Y-87097283D01*
X137720337Y-87098791D01*
X137671909Y-87099916D01*
X137622102Y-87100634D01*
X137573029Y-87100917D01*
X137526802Y-87100740D01*
X137485534Y-87100076D01*
X137451338Y-87098899D01*
X137438694Y-87098187D01*
X137269062Y-87082042D01*
X137102378Y-87056308D01*
X136938908Y-87021099D01*
X136778916Y-86976529D01*
X136622667Y-86922712D01*
X136470427Y-86859763D01*
X136322461Y-86787796D01*
X136179033Y-86706925D01*
X136040408Y-86617265D01*
X135906852Y-86518929D01*
X135778630Y-86412031D01*
X135717269Y-86356036D01*
X135598879Y-86237867D01*
X135488479Y-86113571D01*
X135386241Y-85983510D01*
X135292338Y-85848048D01*
X135206943Y-85707546D01*
X135130229Y-85562369D01*
X135062370Y-85412880D01*
X135003537Y-85259441D01*
X134953904Y-85102416D01*
X134913644Y-84942168D01*
X134882930Y-84779060D01*
X134861935Y-84613454D01*
X134856484Y-84549168D01*
X134854235Y-84508243D01*
X134852806Y-84459784D01*
X134852158Y-84405741D01*
X134852254Y-84348065D01*
X134852845Y-84304280D01*
X136535866Y-84304280D01*
X136536087Y-84364867D01*
X136536800Y-84417255D01*
X136538154Y-84463398D01*
X136540296Y-84505249D01*
X136543376Y-84544763D01*
X136547541Y-84583895D01*
X136552939Y-84624598D01*
X136559719Y-84668827D01*
X136566683Y-84710680D01*
X136591321Y-84835767D01*
X136623172Y-84965784D01*
X136661644Y-85099155D01*
X136706146Y-85234306D01*
X136756085Y-85369660D01*
X136810869Y-85503644D01*
X136869907Y-85634683D01*
X136932605Y-85761201D01*
X136998373Y-85881623D01*
X137022138Y-85922260D01*
X137047850Y-85964150D01*
X137072392Y-86001070D01*
X137097458Y-86035163D01*
X137124739Y-86068577D01*
X137155927Y-86103455D01*
X137192714Y-86141944D01*
X137206237Y-86155668D01*
X137274539Y-86222063D01*
X137340032Y-86280339D01*
X137404180Y-86331594D01*
X137468445Y-86376927D01*
X137534292Y-86417436D01*
X137603183Y-86454220D01*
X137605625Y-86455432D01*
X137672865Y-86486631D01*
X137740523Y-86513591D01*
X137809818Y-86536574D01*
X137881972Y-86555841D01*
X137958208Y-86571653D01*
X138039746Y-86584271D01*
X138127807Y-86593955D01*
X138223614Y-86600968D01*
X138304301Y-86604743D01*
X138318468Y-86604065D01*
X138339174Y-86601605D01*
X138363042Y-86597805D01*
X138376346Y-86595295D01*
X138482126Y-86568969D01*
X138586227Y-86532724D01*
X138688740Y-86486520D01*
X138789759Y-86430316D01*
X138868715Y-86378715D01*
X138904948Y-86352443D01*
X138945856Y-86321048D01*
X138990005Y-86285764D01*
X139035964Y-86247826D01*
X139082299Y-86208467D01*
X139127577Y-86168921D01*
X139170365Y-86130423D01*
X139209230Y-86094207D01*
X139242740Y-86061506D01*
X139269357Y-86033669D01*
X139319078Y-85976571D01*
X139368026Y-85915833D01*
X139415342Y-85852772D01*
X139460168Y-85788702D01*
X139501646Y-85724939D01*
X139538916Y-85662800D01*
X139571120Y-85603600D01*
X139597399Y-85548654D01*
X139615547Y-85503160D01*
X139627166Y-85466683D01*
X139633669Y-85436920D01*
X139635291Y-85411946D01*
X139632266Y-85389838D01*
X139630229Y-85382655D01*
X139621899Y-85349183D01*
X139615174Y-85305850D01*
X139610045Y-85252582D01*
X139608557Y-85230480D01*
X139606914Y-85207285D01*
X139605091Y-85187827D01*
X139603327Y-85174354D01*
X139602048Y-85169279D01*
X139595985Y-85165091D01*
X139583461Y-85158816D01*
X139571213Y-85153494D01*
X139535191Y-85135805D01*
X139505050Y-85114111D01*
X139480055Y-85087333D01*
X139459472Y-85054396D01*
X139442567Y-85014221D01*
X139428606Y-84965733D01*
X139421731Y-84934200D01*
X139413109Y-84879984D01*
X139406872Y-84817299D01*
X139403003Y-84747547D01*
X139401488Y-84672131D01*
X139402310Y-84592453D01*
X139405454Y-84509917D01*
X139410904Y-84425924D01*
X139418644Y-84341878D01*
X139428658Y-84259181D01*
X139429391Y-84253857D01*
X139437683Y-84202621D01*
X139448851Y-84148523D01*
X139463299Y-84089881D01*
X139481436Y-84025012D01*
X139497507Y-83971894D01*
X139508001Y-83936596D01*
X139514749Y-83910223D01*
X139517856Y-83892298D01*
X139517630Y-83882994D01*
X139516992Y-83875817D01*
X139516273Y-83859339D01*
X139515490Y-83834422D01*
X139514662Y-83801926D01*
X139513807Y-83762708D01*
X139512943Y-83717631D01*
X139512087Y-83667553D01*
X139511258Y-83613335D01*
X139510474Y-83555836D01*
X139510024Y-83519420D01*
X139509099Y-83444866D01*
X139508178Y-83379436D01*
X139507209Y-83322094D01*
X139506143Y-83271802D01*
X139504928Y-83227525D01*
X139503514Y-83188228D01*
X139501851Y-83152872D01*
X139499886Y-83120422D01*
X139497570Y-83089843D01*
X139494853Y-83060097D01*
X139491682Y-83030148D01*
X139488009Y-82998961D01*
X139483781Y-82965498D01*
X139482415Y-82954995D01*
X139473450Y-82892533D01*
X139462637Y-82827182D01*
X139450663Y-82762772D01*
X139438216Y-82703131D01*
X139433201Y-82681220D01*
X139427194Y-82655740D01*
X139421859Y-82633078D01*
X139417719Y-82615465D01*
X139415300Y-82605135D01*
X139415099Y-82604273D01*
X139409514Y-82594596D01*
X139396770Y-82580140D01*
X139378059Y-82561912D01*
X139354573Y-82540920D01*
X139327505Y-82518170D01*
X139298047Y-82494671D01*
X139267391Y-82471430D01*
X139236729Y-82449454D01*
X139212900Y-82433398D01*
X139119663Y-82378561D01*
X139020366Y-82331665D01*
X138914885Y-82292665D01*
X138803099Y-82261515D01*
X138684885Y-82238173D01*
X138674420Y-82236529D01*
X138629797Y-82230994D01*
X138577546Y-82226733D01*
X138520123Y-82223789D01*
X138459984Y-82222208D01*
X138399587Y-82222036D01*
X138341389Y-82223316D01*
X138287846Y-82226094D01*
X138255320Y-82228864D01*
X138118305Y-82246876D01*
X137986889Y-82272248D01*
X137861374Y-82304863D01*
X137742065Y-82344607D01*
X137629262Y-82391362D01*
X137523270Y-82445014D01*
X137424391Y-82505447D01*
X137332928Y-82572544D01*
X137312307Y-82589465D01*
X137279118Y-82618484D01*
X137246726Y-82649428D01*
X137213635Y-82683870D01*
X137178349Y-82723378D01*
X137139372Y-82769524D01*
X137130517Y-82780280D01*
X137026906Y-82912732D01*
X136933379Y-83045187D01*
X136849858Y-83177797D01*
X136776268Y-83310716D01*
X136712533Y-83444098D01*
X136658577Y-83578098D01*
X136614324Y-83712867D01*
X136579697Y-83848561D01*
X136564339Y-83925820D01*
X136556862Y-83968964D01*
X136550787Y-84007561D01*
X136545975Y-84043452D01*
X136542287Y-84078477D01*
X136539585Y-84114477D01*
X136537730Y-84153291D01*
X136536585Y-84196762D01*
X136536009Y-84246729D01*
X136535866Y-84304280D01*
X134852845Y-84304280D01*
X134853056Y-84288704D01*
X134854526Y-84229611D01*
X134856624Y-84172735D01*
X134859314Y-84120027D01*
X134862556Y-84073437D01*
X134866314Y-84034915D01*
X134866582Y-84032680D01*
X134892056Y-83863148D01*
X134926728Y-83697926D01*
X134970629Y-83536938D01*
X135023792Y-83380112D01*
X135086249Y-83227374D01*
X135158030Y-83078650D01*
X135239169Y-82933866D01*
X135329697Y-82792948D01*
X135429646Y-82655822D01*
X135497157Y-82571718D01*
X135522254Y-82542734D01*
X135553460Y-82508564D01*
X135589254Y-82470728D01*
X135628116Y-82430747D01*
X135668523Y-82390143D01*
X135708955Y-82350438D01*
X135747890Y-82313151D01*
X135783808Y-82279805D01*
X135815186Y-82251920D01*
X135826798Y-82242077D01*
X135943126Y-82149763D01*
X136060135Y-82066075D01*
X136179986Y-81989586D01*
X136304836Y-81918870D01*
X136357940Y-81891230D01*
X136503201Y-81822517D01*
X136650453Y-81763076D01*
X136800545Y-81712650D01*
X136954324Y-81670984D01*
X137112640Y-81637823D01*
X137276342Y-81612911D01*
X137287760Y-81611502D01*
X137325674Y-81607711D01*
X137371787Y-81604433D01*
X137424148Y-81601705D01*
X137480806Y-81599566D01*
X137539812Y-81598054D01*
X137599215Y-81597206D01*
X137657065Y-81597062D01*
X137711411Y-81597658D01*
X137711411Y-81597658D01*
G37*
X137711411Y-81597658D02*
X137760303Y-81599034D01*
X137801791Y-81601227D01*
X137804248Y-81601404D01*
X137970730Y-81618617D01*
X138134856Y-81645619D01*
X138296263Y-81682236D01*
X138454589Y-81728297D01*
X138609470Y-81783628D01*
X138760545Y-81848056D01*
X138907451Y-81921410D01*
X139049824Y-82003515D01*
X139187304Y-82094199D01*
X139319526Y-82193290D01*
X139446128Y-82300614D01*
X139566748Y-82415999D01*
X139611488Y-82462506D01*
X139722388Y-82587802D01*
X139824852Y-82718680D01*
X139918766Y-82854894D01*
X140004014Y-82996197D01*
X140080485Y-83142344D01*
X140148064Y-83293091D01*
X140206637Y-83448190D01*
X140256090Y-83607396D01*
X140296310Y-83770465D01*
X140327184Y-83937149D01*
X140341027Y-84037580D01*
X140343688Y-84065614D01*
X140346056Y-84102158D01*
X140348107Y-84145565D01*
X140349818Y-84194188D01*
X140351168Y-84246379D01*
X140352131Y-84300493D01*
X140352687Y-84354881D01*
X140352810Y-84407898D01*
X140352479Y-84457897D01*
X140351671Y-84503229D01*
X140350362Y-84542250D01*
X140348529Y-84573311D01*
X140348521Y-84573409D01*
X140330425Y-84737738D01*
X140302523Y-84899947D01*
X140265024Y-85059636D01*
X140218137Y-85216405D01*
X140162068Y-85369853D01*
X140097026Y-85519580D01*
X140023220Y-85665186D01*
X139940858Y-85806271D01*
X139850147Y-85942433D01*
X139751295Y-86073273D01*
X139644512Y-86198391D01*
X139530005Y-86317385D01*
X139407982Y-86429856D01*
X139363827Y-86467365D01*
X139232339Y-86570164D01*
X139095556Y-86664370D01*
X138953820Y-86749844D01*
X138807475Y-86826444D01*
X138656863Y-86894030D01*
X138502328Y-86952462D01*
X138344213Y-87001599D01*
X138182861Y-87041300D01*
X138018615Y-87071425D01*
X137851818Y-87091834D01*
X137836220Y-87093230D01*
X137804605Y-87095421D01*
X137765273Y-87097283D01*
X137720337Y-87098791D01*
X137671909Y-87099916D01*
X137622102Y-87100634D01*
X137573029Y-87100917D01*
X137526802Y-87100740D01*
X137485534Y-87100076D01*
X137451338Y-87098899D01*
X137438694Y-87098187D01*
X137269062Y-87082042D01*
X137102378Y-87056308D01*
X136938908Y-87021099D01*
X136778916Y-86976529D01*
X136622667Y-86922712D01*
X136470427Y-86859763D01*
X136322461Y-86787796D01*
X136179033Y-86706925D01*
X136040408Y-86617265D01*
X135906852Y-86518929D01*
X135778630Y-86412031D01*
X135717269Y-86356036D01*
X135598879Y-86237867D01*
X135488479Y-86113571D01*
X135386241Y-85983510D01*
X135292338Y-85848048D01*
X135206943Y-85707546D01*
X135130229Y-85562369D01*
X135062370Y-85412880D01*
X135003537Y-85259441D01*
X134953904Y-85102416D01*
X134913644Y-84942168D01*
X134882930Y-84779060D01*
X134861935Y-84613454D01*
X134856484Y-84549168D01*
X134854235Y-84508243D01*
X134852806Y-84459784D01*
X134852158Y-84405741D01*
X134852254Y-84348065D01*
X134852845Y-84304280D01*
X136535866Y-84304280D01*
X136536087Y-84364867D01*
X136536800Y-84417255D01*
X136538154Y-84463398D01*
X136540296Y-84505249D01*
X136543376Y-84544763D01*
X136547541Y-84583895D01*
X136552939Y-84624598D01*
X136559719Y-84668827D01*
X136566683Y-84710680D01*
X136591321Y-84835767D01*
X136623172Y-84965784D01*
X136661644Y-85099155D01*
X136706146Y-85234306D01*
X136756085Y-85369660D01*
X136810869Y-85503644D01*
X136869907Y-85634683D01*
X136932605Y-85761201D01*
X136998373Y-85881623D01*
X137022138Y-85922260D01*
X137047850Y-85964150D01*
X137072392Y-86001070D01*
X137097458Y-86035163D01*
X137124739Y-86068577D01*
X137155927Y-86103455D01*
X137192714Y-86141944D01*
X137206237Y-86155668D01*
X137274539Y-86222063D01*
X137340032Y-86280339D01*
X137404180Y-86331594D01*
X137468445Y-86376927D01*
X137534292Y-86417436D01*
X137603183Y-86454220D01*
X137605625Y-86455432D01*
X137672865Y-86486631D01*
X137740523Y-86513591D01*
X137809818Y-86536574D01*
X137881972Y-86555841D01*
X137958208Y-86571653D01*
X138039746Y-86584271D01*
X138127807Y-86593955D01*
X138223614Y-86600968D01*
X138304301Y-86604743D01*
X138318468Y-86604065D01*
X138339174Y-86601605D01*
X138363042Y-86597805D01*
X138376346Y-86595295D01*
X138482126Y-86568969D01*
X138586227Y-86532724D01*
X138688740Y-86486520D01*
X138789759Y-86430316D01*
X138868715Y-86378715D01*
X138904948Y-86352443D01*
X138945856Y-86321048D01*
X138990005Y-86285764D01*
X139035964Y-86247826D01*
X139082299Y-86208467D01*
X139127577Y-86168921D01*
X139170365Y-86130423D01*
X139209230Y-86094207D01*
X139242740Y-86061506D01*
X139269357Y-86033669D01*
X139319078Y-85976571D01*
X139368026Y-85915833D01*
X139415342Y-85852772D01*
X139460168Y-85788702D01*
X139501646Y-85724939D01*
X139538916Y-85662800D01*
X139571120Y-85603600D01*
X139597399Y-85548654D01*
X139615547Y-85503160D01*
X139627166Y-85466683D01*
X139633669Y-85436920D01*
X139635291Y-85411946D01*
X139632266Y-85389838D01*
X139630229Y-85382655D01*
X139621899Y-85349183D01*
X139615174Y-85305850D01*
X139610045Y-85252582D01*
X139608557Y-85230480D01*
X139606914Y-85207285D01*
X139605091Y-85187827D01*
X139603327Y-85174354D01*
X139602048Y-85169279D01*
X139595985Y-85165091D01*
X139583461Y-85158816D01*
X139571213Y-85153494D01*
X139535191Y-85135805D01*
X139505050Y-85114111D01*
X139480055Y-85087333D01*
X139459472Y-85054396D01*
X139442567Y-85014221D01*
X139428606Y-84965733D01*
X139421731Y-84934200D01*
X139413109Y-84879984D01*
X139406872Y-84817299D01*
X139403003Y-84747547D01*
X139401488Y-84672131D01*
X139402310Y-84592453D01*
X139405454Y-84509917D01*
X139410904Y-84425924D01*
X139418644Y-84341878D01*
X139428658Y-84259181D01*
X139429391Y-84253857D01*
X139437683Y-84202621D01*
X139448851Y-84148523D01*
X139463299Y-84089881D01*
X139481436Y-84025012D01*
X139497507Y-83971894D01*
X139508001Y-83936596D01*
X139514749Y-83910223D01*
X139517856Y-83892298D01*
X139517630Y-83882994D01*
X139516992Y-83875817D01*
X139516273Y-83859339D01*
X139515490Y-83834422D01*
X139514662Y-83801926D01*
X139513807Y-83762708D01*
X139512943Y-83717631D01*
X139512087Y-83667553D01*
X139511258Y-83613335D01*
X139510474Y-83555836D01*
X139510024Y-83519420D01*
X139509099Y-83444866D01*
X139508178Y-83379436D01*
X139507209Y-83322094D01*
X139506143Y-83271802D01*
X139504928Y-83227525D01*
X139503514Y-83188228D01*
X139501851Y-83152872D01*
X139499886Y-83120422D01*
X139497570Y-83089843D01*
X139494853Y-83060097D01*
X139491682Y-83030148D01*
X139488009Y-82998961D01*
X139483781Y-82965498D01*
X139482415Y-82954995D01*
X139473450Y-82892533D01*
X139462637Y-82827182D01*
X139450663Y-82762772D01*
X139438216Y-82703131D01*
X139433201Y-82681220D01*
X139427194Y-82655740D01*
X139421859Y-82633078D01*
X139417719Y-82615465D01*
X139415300Y-82605135D01*
X139415099Y-82604273D01*
X139409514Y-82594596D01*
X139396770Y-82580140D01*
X139378059Y-82561912D01*
X139354573Y-82540920D01*
X139327505Y-82518170D01*
X139298047Y-82494671D01*
X139267391Y-82471430D01*
X139236729Y-82449454D01*
X139212900Y-82433398D01*
X139119663Y-82378561D01*
X139020366Y-82331665D01*
X138914885Y-82292665D01*
X138803099Y-82261515D01*
X138684885Y-82238173D01*
X138674420Y-82236529D01*
X138629797Y-82230994D01*
X138577546Y-82226733D01*
X138520123Y-82223789D01*
X138459984Y-82222208D01*
X138399587Y-82222036D01*
X138341389Y-82223316D01*
X138287846Y-82226094D01*
X138255320Y-82228864D01*
X138118305Y-82246876D01*
X137986889Y-82272248D01*
X137861374Y-82304863D01*
X137742065Y-82344607D01*
X137629262Y-82391362D01*
X137523270Y-82445014D01*
X137424391Y-82505447D01*
X137332928Y-82572544D01*
X137312307Y-82589465D01*
X137279118Y-82618484D01*
X137246726Y-82649428D01*
X137213635Y-82683870D01*
X137178349Y-82723378D01*
X137139372Y-82769524D01*
X137130517Y-82780280D01*
X137026906Y-82912732D01*
X136933379Y-83045187D01*
X136849858Y-83177797D01*
X136776268Y-83310716D01*
X136712533Y-83444098D01*
X136658577Y-83578098D01*
X136614324Y-83712867D01*
X136579697Y-83848561D01*
X136564339Y-83925820D01*
X136556862Y-83968964D01*
X136550787Y-84007561D01*
X136545975Y-84043452D01*
X136542287Y-84078477D01*
X136539585Y-84114477D01*
X136537730Y-84153291D01*
X136536585Y-84196762D01*
X136536009Y-84246729D01*
X136535866Y-84304280D01*
X134852845Y-84304280D01*
X134853056Y-84288704D01*
X134854526Y-84229611D01*
X134856624Y-84172735D01*
X134859314Y-84120027D01*
X134862556Y-84073437D01*
X134866314Y-84034915D01*
X134866582Y-84032680D01*
X134892056Y-83863148D01*
X134926728Y-83697926D01*
X134970629Y-83536938D01*
X135023792Y-83380112D01*
X135086249Y-83227374D01*
X135158030Y-83078650D01*
X135239169Y-82933866D01*
X135329697Y-82792948D01*
X135429646Y-82655822D01*
X135497157Y-82571718D01*
X135522254Y-82542734D01*
X135553460Y-82508564D01*
X135589254Y-82470728D01*
X135628116Y-82430747D01*
X135668523Y-82390143D01*
X135708955Y-82350438D01*
X135747890Y-82313151D01*
X135783808Y-82279805D01*
X135815186Y-82251920D01*
X135826798Y-82242077D01*
X135943126Y-82149763D01*
X136060135Y-82066075D01*
X136179986Y-81989586D01*
X136304836Y-81918870D01*
X136357940Y-81891230D01*
X136503201Y-81822517D01*
X136650453Y-81763076D01*
X136800545Y-81712650D01*
X136954324Y-81670984D01*
X137112640Y-81637823D01*
X137276342Y-81612911D01*
X137287760Y-81611502D01*
X137325674Y-81607711D01*
X137371787Y-81604433D01*
X137424148Y-81601705D01*
X137480806Y-81599566D01*
X137539812Y-81598054D01*
X137599215Y-81597206D01*
X137657065Y-81597062D01*
X137711411Y-81597658D01*
G36*
X137124466Y-85279926D02*
X137139554Y-85291333D01*
X137141789Y-85293610D01*
X137157997Y-85314076D01*
X137171303Y-85337188D01*
X137181395Y-85361348D01*
X137187961Y-85384960D01*
X137190691Y-85406426D01*
X137189274Y-85424150D01*
X137183397Y-85436535D01*
X137172750Y-85441983D01*
X137170740Y-85442103D01*
X137163319Y-85439690D01*
X137151818Y-85433702D01*
X137150097Y-85432671D01*
X137133099Y-85417908D01*
X137117367Y-85396401D01*
X137103917Y-85370683D01*
X137093764Y-85343289D01*
X137087921Y-85316754D01*
X137087405Y-85293613D01*
X137090003Y-85282595D01*
X137097422Y-85275074D01*
X137109666Y-85274345D01*
X137124466Y-85279926D01*
X137124466Y-85279926D01*
G37*
X137124466Y-85279926D02*
X137139554Y-85291333D01*
X137141789Y-85293610D01*
X137157997Y-85314076D01*
X137171303Y-85337188D01*
X137181395Y-85361348D01*
X137187961Y-85384960D01*
X137190691Y-85406426D01*
X137189274Y-85424150D01*
X137183397Y-85436535D01*
X137172750Y-85441983D01*
X137170740Y-85442103D01*
X137163319Y-85439690D01*
X137151818Y-85433702D01*
X137150097Y-85432671D01*
X137133099Y-85417908D01*
X137117367Y-85396401D01*
X137103917Y-85370683D01*
X137093764Y-85343289D01*
X137087921Y-85316754D01*
X137087405Y-85293613D01*
X137090003Y-85282595D01*
X137097422Y-85275074D01*
X137109666Y-85274345D01*
X137124466Y-85279926D01*
G36*
X138563667Y-85001102D02*
X138576744Y-85004493D01*
X138588048Y-85011622D01*
X138590392Y-85013545D01*
X138609692Y-85035382D01*
X138619619Y-85059859D01*
X138619926Y-85085768D01*
X138610441Y-85111765D01*
X138596012Y-85130859D01*
X138577537Y-85142325D01*
X138553024Y-85147210D01*
X138542228Y-85147560D01*
X138524829Y-85146947D01*
X138513155Y-85143934D01*
X138502794Y-85136758D01*
X138493903Y-85128259D01*
X138477278Y-85105369D01*
X138469936Y-85080434D01*
X138471832Y-85055206D01*
X138482919Y-85031436D01*
X138496859Y-85015951D01*
X138508713Y-85006754D01*
X138520030Y-85002033D01*
X138535130Y-85000369D01*
X138544667Y-85000240D01*
X138563667Y-85001102D01*
X138563667Y-85001102D01*
G37*
X138563667Y-85001102D02*
X138576744Y-85004493D01*
X138588048Y-85011622D01*
X138590392Y-85013545D01*
X138609692Y-85035382D01*
X138619619Y-85059859D01*
X138619926Y-85085768D01*
X138610441Y-85111765D01*
X138596012Y-85130859D01*
X138577537Y-85142325D01*
X138553024Y-85147210D01*
X138542228Y-85147560D01*
X138524829Y-85146947D01*
X138513155Y-85143934D01*
X138502794Y-85136758D01*
X138493903Y-85128259D01*
X138477278Y-85105369D01*
X138469936Y-85080434D01*
X138471832Y-85055206D01*
X138482919Y-85031436D01*
X138496859Y-85015951D01*
X138508713Y-85006754D01*
X138520030Y-85002033D01*
X138535130Y-85000369D01*
X138544667Y-85000240D01*
X138563667Y-85001102D01*
G36*
X138224692Y-86381830D02*
X138228884Y-86387238D01*
X138229842Y-86395434D01*
X138225424Y-86400854D01*
X138213375Y-86408710D01*
X138195655Y-86418093D01*
X138174225Y-86428090D01*
X138151046Y-86437791D01*
X138128078Y-86446284D01*
X138107282Y-86452659D01*
X138105917Y-86453013D01*
X138062856Y-86460486D01*
X138014361Y-86462860D01*
X137963785Y-86460138D01*
X137917500Y-86452965D01*
X137890200Y-86447186D01*
X137871309Y-86442973D01*
X137859286Y-86439840D01*
X137852588Y-86437302D01*
X137849673Y-86434876D01*
X137848999Y-86432076D01*
X137848997Y-86431433D01*
X137850026Y-86423727D01*
X137853898Y-86419084D01*
X137862140Y-86417369D01*
X137876276Y-86418449D01*
X137897832Y-86422190D01*
X137914960Y-86425657D01*
X137973922Y-86435109D01*
X138027388Y-86437441D01*
X138077312Y-86432442D01*
X138125646Y-86419901D01*
X138174342Y-86399609D01*
X138179221Y-86397188D01*
X138201207Y-86386758D01*
X138215915Y-86381654D01*
X138224692Y-86381830D01*
X138224692Y-86381830D01*
G37*
X138224692Y-86381830D02*
X138228884Y-86387238D01*
X138229842Y-86395434D01*
X138225424Y-86400854D01*
X138213375Y-86408710D01*
X138195655Y-86418093D01*
X138174225Y-86428090D01*
X138151046Y-86437791D01*
X138128078Y-86446284D01*
X138107282Y-86452659D01*
X138105917Y-86453013D01*
X138062856Y-86460486D01*
X138014361Y-86462860D01*
X137963785Y-86460138D01*
X137917500Y-86452965D01*
X137890200Y-86447186D01*
X137871309Y-86442973D01*
X137859286Y-86439840D01*
X137852588Y-86437302D01*
X137849673Y-86434876D01*
X137848999Y-86432076D01*
X137848997Y-86431433D01*
X137850026Y-86423727D01*
X137853898Y-86419084D01*
X137862140Y-86417369D01*
X137876276Y-86418449D01*
X137897832Y-86422190D01*
X137914960Y-86425657D01*
X137973922Y-86435109D01*
X138027388Y-86437441D01*
X138077312Y-86432442D01*
X138125646Y-86419901D01*
X138174342Y-86399609D01*
X138179221Y-86397188D01*
X138201207Y-86386758D01*
X138215915Y-86381654D01*
X138224692Y-86381830D01*
G36*
X136893665Y-84942400D02*
X136911199Y-84944815D01*
X136927879Y-84950076D01*
X136946678Y-84958404D01*
X136996544Y-84986810D01*
X137046028Y-85024026D01*
X137094186Y-85068713D01*
X137140077Y-85119536D01*
X137182757Y-85175158D01*
X137221285Y-85234244D01*
X137254717Y-85295456D01*
X137282112Y-85357459D01*
X137302526Y-85418917D01*
X137315018Y-85478492D01*
X137315381Y-85481129D01*
X137318149Y-85524196D01*
X137314456Y-85562257D01*
X137304593Y-85594427D01*
X137288853Y-85619822D01*
X137267525Y-85637556D01*
X137263187Y-85639832D01*
X137235219Y-85648318D01*
X137203409Y-85649581D01*
X137171189Y-85643488D01*
X137170740Y-85643346D01*
X137127203Y-85625057D01*
X137082270Y-85597842D01*
X137036881Y-85562665D01*
X136991976Y-85520487D01*
X136948495Y-85472272D01*
X136907378Y-85418982D01*
X136869565Y-85361579D01*
X136835996Y-85301026D01*
X136835540Y-85300119D01*
X136810181Y-85245845D01*
X136801711Y-85223574D01*
X136955284Y-85223574D01*
X136955543Y-85251315D01*
X136958121Y-85279311D01*
X136962567Y-85302702D01*
X136972407Y-85332865D01*
X136986999Y-85367156D01*
X137004535Y-85401944D01*
X137023208Y-85433596D01*
X137038382Y-85455022D01*
X137069895Y-85490806D01*
X137101152Y-85518895D01*
X137131506Y-85539000D01*
X137160309Y-85550834D01*
X137186913Y-85554109D01*
X137210670Y-85548538D01*
X137226133Y-85538466D01*
X137240767Y-85521999D01*
X137250019Y-85502003D01*
X137254606Y-85476313D01*
X137255402Y-85450316D01*
X137251584Y-85411085D01*
X137241587Y-85370767D01*
X137226265Y-85330451D01*
X137206466Y-85291228D01*
X137183042Y-85254188D01*
X137156844Y-85220421D01*
X137128723Y-85191018D01*
X137099529Y-85167069D01*
X137070113Y-85149664D01*
X137041326Y-85139894D01*
X137014019Y-85138849D01*
X137012521Y-85139075D01*
X136990226Y-85147610D01*
X136971870Y-85164429D01*
X136961805Y-85181686D01*
X136957365Y-85199295D01*
X136955284Y-85223574D01*
X136801711Y-85223574D01*
X136791505Y-85196742D01*
X136778956Y-85150850D01*
X136771980Y-85106209D01*
X136770024Y-85068820D01*
X136770147Y-85043734D01*
X136771356Y-85025780D01*
X136774108Y-85011950D01*
X136778861Y-84999235D01*
X136781443Y-84993751D01*
X136792212Y-84976421D01*
X136805671Y-84960733D01*
X136811471Y-84955651D01*
X136821774Y-84948608D01*
X136831873Y-84944452D01*
X136844939Y-84942443D01*
X136864145Y-84941838D01*
X136870641Y-84941820D01*
X136893665Y-84942400D01*
X136893665Y-84942400D01*
G37*
X136893665Y-84942400D02*
X136911199Y-84944815D01*
X136927879Y-84950076D01*
X136946678Y-84958404D01*
X136996544Y-84986810D01*
X137046028Y-85024026D01*
X137094186Y-85068713D01*
X137140077Y-85119536D01*
X137182757Y-85175158D01*
X137221285Y-85234244D01*
X137254717Y-85295456D01*
X137282112Y-85357459D01*
X137302526Y-85418917D01*
X137315018Y-85478492D01*
X137315381Y-85481129D01*
X137318149Y-85524196D01*
X137314456Y-85562257D01*
X137304593Y-85594427D01*
X137288853Y-85619822D01*
X137267525Y-85637556D01*
X137263187Y-85639832D01*
X137235219Y-85648318D01*
X137203409Y-85649581D01*
X137171189Y-85643488D01*
X137170740Y-85643346D01*
X137127203Y-85625057D01*
X137082270Y-85597842D01*
X137036881Y-85562665D01*
X136991976Y-85520487D01*
X136948495Y-85472272D01*
X136907378Y-85418982D01*
X136869565Y-85361579D01*
X136835996Y-85301026D01*
X136835540Y-85300119D01*
X136810181Y-85245845D01*
X136801711Y-85223574D01*
X136955284Y-85223574D01*
X136955543Y-85251315D01*
X136958121Y-85279311D01*
X136962567Y-85302702D01*
X136972407Y-85332865D01*
X136986999Y-85367156D01*
X137004535Y-85401944D01*
X137023208Y-85433596D01*
X137038382Y-85455022D01*
X137069895Y-85490806D01*
X137101152Y-85518895D01*
X137131506Y-85539000D01*
X137160309Y-85550834D01*
X137186913Y-85554109D01*
X137210670Y-85548538D01*
X137226133Y-85538466D01*
X137240767Y-85521999D01*
X137250019Y-85502003D01*
X137254606Y-85476313D01*
X137255402Y-85450316D01*
X137251584Y-85411085D01*
X137241587Y-85370767D01*
X137226265Y-85330451D01*
X137206466Y-85291228D01*
X137183042Y-85254188D01*
X137156844Y-85220421D01*
X137128723Y-85191018D01*
X137099529Y-85167069D01*
X137070113Y-85149664D01*
X137041326Y-85139894D01*
X137014019Y-85138849D01*
X137012521Y-85139075D01*
X136990226Y-85147610D01*
X136971870Y-85164429D01*
X136961805Y-85181686D01*
X136957365Y-85199295D01*
X136955284Y-85223574D01*
X136801711Y-85223574D01*
X136791505Y-85196742D01*
X136778956Y-85150850D01*
X136771980Y-85106209D01*
X136770024Y-85068820D01*
X136770147Y-85043734D01*
X136771356Y-85025780D01*
X136774108Y-85011950D01*
X136778861Y-84999235D01*
X136781443Y-84993751D01*
X136792212Y-84976421D01*
X136805671Y-84960733D01*
X136811471Y-84955651D01*
X136821774Y-84948608D01*
X136831873Y-84944452D01*
X136844939Y-84942443D01*
X136864145Y-84941838D01*
X136870641Y-84941820D01*
X136893665Y-84942400D01*
G36*
X138518423Y-84751777D02*
X138556263Y-84755066D01*
X138576759Y-84758897D01*
X138628390Y-84775874D01*
X138673060Y-84799654D01*
X138710646Y-84829527D01*
X138741024Y-84864781D01*
X138764071Y-84904703D01*
X138779661Y-84948583D01*
X138787672Y-84995708D01*
X138787980Y-85045366D01*
X138780461Y-85096846D01*
X138764990Y-85149436D01*
X138741445Y-85202424D01*
X138709701Y-85255099D01*
X138671669Y-85304398D01*
X138622024Y-85355506D01*
X138567034Y-85400255D01*
X138507863Y-85438142D01*
X138445678Y-85468666D01*
X138381645Y-85491325D01*
X138316929Y-85505617D01*
X138252695Y-85511041D01*
X138198218Y-85508169D01*
X138143393Y-85497107D01*
X138094297Y-85478036D01*
X138051371Y-85451148D01*
X138032887Y-85435333D01*
X138001140Y-85401436D01*
X137978000Y-85366962D01*
X137962118Y-85329320D01*
X137952141Y-85285916D01*
X137950986Y-85278145D01*
X137948426Y-85223755D01*
X137955286Y-85168691D01*
X137970934Y-85113752D01*
X137984275Y-85083475D01*
X138349164Y-85083475D01*
X138351545Y-85105112D01*
X138364506Y-85149304D01*
X138385689Y-85188657D01*
X138414198Y-85222122D01*
X138449137Y-85248653D01*
X138489610Y-85267204D01*
X138490453Y-85267481D01*
X138510411Y-85271460D01*
X138537461Y-85273152D01*
X138555684Y-85272976D01*
X138579938Y-85271571D01*
X138598324Y-85268634D01*
X138615122Y-85263176D01*
X138632690Y-85255155D01*
X138669679Y-85231788D01*
X138700282Y-85201948D01*
X138723754Y-85167048D01*
X138739349Y-85128504D01*
X138746322Y-85087728D01*
X138743925Y-85046134D01*
X138743670Y-85044722D01*
X138730966Y-85002824D01*
X138709644Y-84964438D01*
X138680985Y-84931215D01*
X138646270Y-84904806D01*
X138627445Y-84894858D01*
X138597518Y-84885350D01*
X138562396Y-84880786D01*
X138525790Y-84881225D01*
X138491413Y-84886724D01*
X138473531Y-84892426D01*
X138438383Y-84911486D01*
X138407691Y-84937944D01*
X138382440Y-84970087D01*
X138363613Y-85006199D01*
X138352193Y-85044567D01*
X138349164Y-85083475D01*
X137984275Y-85083475D01*
X137994736Y-85059736D01*
X138026061Y-85007441D01*
X138064274Y-84957666D01*
X138108745Y-84911207D01*
X138158840Y-84868864D01*
X138213926Y-84831434D01*
X138273370Y-84799716D01*
X138336541Y-84774507D01*
X138354886Y-84768701D01*
X138391263Y-84760238D01*
X138432757Y-84754503D01*
X138476199Y-84751636D01*
X138518423Y-84751777D01*
X138518423Y-84751777D01*
G37*
X138518423Y-84751777D02*
X138556263Y-84755066D01*
X138576759Y-84758897D01*
X138628390Y-84775874D01*
X138673060Y-84799654D01*
X138710646Y-84829527D01*
X138741024Y-84864781D01*
X138764071Y-84904703D01*
X138779661Y-84948583D01*
X138787672Y-84995708D01*
X138787980Y-85045366D01*
X138780461Y-85096846D01*
X138764990Y-85149436D01*
X138741445Y-85202424D01*
X138709701Y-85255099D01*
X138671669Y-85304398D01*
X138622024Y-85355506D01*
X138567034Y-85400255D01*
X138507863Y-85438142D01*
X138445678Y-85468666D01*
X138381645Y-85491325D01*
X138316929Y-85505617D01*
X138252695Y-85511041D01*
X138198218Y-85508169D01*
X138143393Y-85497107D01*
X138094297Y-85478036D01*
X138051371Y-85451148D01*
X138032887Y-85435333D01*
X138001140Y-85401436D01*
X137978000Y-85366962D01*
X137962118Y-85329320D01*
X137952141Y-85285916D01*
X137950986Y-85278145D01*
X137948426Y-85223755D01*
X137955286Y-85168691D01*
X137970934Y-85113752D01*
X137984275Y-85083475D01*
X138349164Y-85083475D01*
X138351545Y-85105112D01*
X138364506Y-85149304D01*
X138385689Y-85188657D01*
X138414198Y-85222122D01*
X138449137Y-85248653D01*
X138489610Y-85267204D01*
X138490453Y-85267481D01*
X138510411Y-85271460D01*
X138537461Y-85273152D01*
X138555684Y-85272976D01*
X138579938Y-85271571D01*
X138598324Y-85268634D01*
X138615122Y-85263176D01*
X138632690Y-85255155D01*
X138669679Y-85231788D01*
X138700282Y-85201948D01*
X138723754Y-85167048D01*
X138739349Y-85128504D01*
X138746322Y-85087728D01*
X138743925Y-85046134D01*
X138743670Y-85044722D01*
X138730966Y-85002824D01*
X138709644Y-84964438D01*
X138680985Y-84931215D01*
X138646270Y-84904806D01*
X138627445Y-84894858D01*
X138597518Y-84885350D01*
X138562396Y-84880786D01*
X138525790Y-84881225D01*
X138491413Y-84886724D01*
X138473531Y-84892426D01*
X138438383Y-84911486D01*
X138407691Y-84937944D01*
X138382440Y-84970087D01*
X138363613Y-85006199D01*
X138352193Y-85044567D01*
X138349164Y-85083475D01*
X137984275Y-85083475D01*
X137994736Y-85059736D01*
X138026061Y-85007441D01*
X138064274Y-84957666D01*
X138108745Y-84911207D01*
X138158840Y-84868864D01*
X138213926Y-84831434D01*
X138273370Y-84799716D01*
X138336541Y-84774507D01*
X138354886Y-84768701D01*
X138391263Y-84760238D01*
X138432757Y-84754503D01*
X138476199Y-84751636D01*
X138518423Y-84751777D01*
G36*
X145611411Y-105897658D02*
X145660303Y-105899034D01*
X145701791Y-105901227D01*
X145704248Y-105901404D01*
X145870730Y-105918617D01*
X146034856Y-105945619D01*
X146196263Y-105982236D01*
X146354589Y-106028297D01*
X146509470Y-106083628D01*
X146660545Y-106148056D01*
X146807451Y-106221410D01*
X146949824Y-106303515D01*
X147087304Y-106394199D01*
X147219526Y-106493290D01*
X147346128Y-106600614D01*
X147466748Y-106715999D01*
X147511488Y-106762506D01*
X147622388Y-106887802D01*
X147724852Y-107018680D01*
X147818766Y-107154894D01*
X147904014Y-107296197D01*
X147980485Y-107442344D01*
X148048064Y-107593091D01*
X148106637Y-107748190D01*
X148156090Y-107907396D01*
X148196310Y-108070465D01*
X148227184Y-108237149D01*
X148241027Y-108337580D01*
X148243688Y-108365614D01*
X148246056Y-108402158D01*
X148248107Y-108445565D01*
X148249818Y-108494188D01*
X148251168Y-108546379D01*
X148252131Y-108600493D01*
X148252687Y-108654881D01*
X148252810Y-108707898D01*
X148252479Y-108757897D01*
X148251671Y-108803229D01*
X148250362Y-108842250D01*
X148248529Y-108873311D01*
X148248521Y-108873409D01*
X148230425Y-109037738D01*
X148202523Y-109199947D01*
X148165024Y-109359636D01*
X148118137Y-109516405D01*
X148062068Y-109669853D01*
X147997026Y-109819580D01*
X147923220Y-109965186D01*
X147840858Y-110106271D01*
X147750147Y-110242433D01*
X147651295Y-110373273D01*
X147544512Y-110498391D01*
X147430005Y-110617385D01*
X147307982Y-110729856D01*
X147263827Y-110767365D01*
X147132339Y-110870164D01*
X146995556Y-110964370D01*
X146853820Y-111049844D01*
X146707475Y-111126444D01*
X146556863Y-111194030D01*
X146402328Y-111252462D01*
X146244213Y-111301599D01*
X146082861Y-111341300D01*
X145918615Y-111371425D01*
X145751818Y-111391834D01*
X145736220Y-111393230D01*
X145704605Y-111395421D01*
X145665273Y-111397283D01*
X145620337Y-111398791D01*
X145571909Y-111399916D01*
X145522102Y-111400634D01*
X145473029Y-111400917D01*
X145426802Y-111400740D01*
X145385534Y-111400076D01*
X145351338Y-111398899D01*
X145338694Y-111398187D01*
X145169062Y-111382042D01*
X145002378Y-111356308D01*
X144838908Y-111321099D01*
X144678916Y-111276529D01*
X144522667Y-111222712D01*
X144370427Y-111159763D01*
X144222461Y-111087796D01*
X144079033Y-111006925D01*
X143940408Y-110917265D01*
X143806852Y-110818929D01*
X143678630Y-110712031D01*
X143617269Y-110656036D01*
X143498879Y-110537867D01*
X143388479Y-110413571D01*
X143286241Y-110283510D01*
X143192338Y-110148048D01*
X143106943Y-110007546D01*
X143030229Y-109862369D01*
X142962370Y-109712880D01*
X142903537Y-109559441D01*
X142853904Y-109402416D01*
X142813644Y-109242168D01*
X142782930Y-109079060D01*
X142761935Y-108913454D01*
X142756484Y-108849168D01*
X142754235Y-108808243D01*
X142752806Y-108759784D01*
X142752158Y-108705741D01*
X142752254Y-108648065D01*
X142752845Y-108604280D01*
X144435866Y-108604280D01*
X144436087Y-108664867D01*
X144436800Y-108717255D01*
X144438154Y-108763398D01*
X144440296Y-108805249D01*
X144443376Y-108844763D01*
X144447541Y-108883895D01*
X144452939Y-108924598D01*
X144459719Y-108968827D01*
X144466683Y-109010680D01*
X144491321Y-109135767D01*
X144523172Y-109265784D01*
X144561644Y-109399155D01*
X144606146Y-109534306D01*
X144656085Y-109669660D01*
X144710869Y-109803644D01*
X144769907Y-109934683D01*
X144832605Y-110061201D01*
X144898373Y-110181623D01*
X144922138Y-110222260D01*
X144947850Y-110264150D01*
X144972392Y-110301070D01*
X144997458Y-110335163D01*
X145024739Y-110368577D01*
X145055927Y-110403455D01*
X145092714Y-110441944D01*
X145106237Y-110455668D01*
X145174539Y-110522063D01*
X145240032Y-110580339D01*
X145304180Y-110631594D01*
X145368445Y-110676927D01*
X145434292Y-110717436D01*
X145503183Y-110754220D01*
X145505625Y-110755432D01*
X145572865Y-110786631D01*
X145640523Y-110813591D01*
X145709818Y-110836574D01*
X145781972Y-110855841D01*
X145858208Y-110871653D01*
X145939746Y-110884271D01*
X146027807Y-110893955D01*
X146123614Y-110900968D01*
X146204301Y-110904743D01*
X146218468Y-110904065D01*
X146239174Y-110901605D01*
X146263042Y-110897805D01*
X146276346Y-110895295D01*
X146382126Y-110868969D01*
X146486227Y-110832724D01*
X146588740Y-110786520D01*
X146689759Y-110730316D01*
X146768715Y-110678715D01*
X146804948Y-110652443D01*
X146845856Y-110621048D01*
X146890005Y-110585764D01*
X146935964Y-110547826D01*
X146982299Y-110508467D01*
X147027577Y-110468921D01*
X147070365Y-110430423D01*
X147109230Y-110394207D01*
X147142740Y-110361506D01*
X147169357Y-110333669D01*
X147219078Y-110276571D01*
X147268026Y-110215833D01*
X147315342Y-110152772D01*
X147360168Y-110088702D01*
X147401646Y-110024939D01*
X147438916Y-109962800D01*
X147471120Y-109903600D01*
X147497399Y-109848654D01*
X147515547Y-109803160D01*
X147527166Y-109766683D01*
X147533669Y-109736920D01*
X147535291Y-109711946D01*
X147532266Y-109689838D01*
X147530229Y-109682655D01*
X147521899Y-109649183D01*
X147515174Y-109605850D01*
X147510045Y-109552582D01*
X147508557Y-109530480D01*
X147506914Y-109507285D01*
X147505091Y-109487827D01*
X147503327Y-109474354D01*
X147502048Y-109469279D01*
X147495985Y-109465091D01*
X147483461Y-109458816D01*
X147471213Y-109453494D01*
X147435191Y-109435805D01*
X147405050Y-109414111D01*
X147380055Y-109387333D01*
X147359472Y-109354396D01*
X147342567Y-109314221D01*
X147328606Y-109265733D01*
X147321731Y-109234200D01*
X147313109Y-109179984D01*
X147306872Y-109117299D01*
X147303003Y-109047547D01*
X147301488Y-108972131D01*
X147302310Y-108892453D01*
X147305454Y-108809917D01*
X147310904Y-108725924D01*
X147318644Y-108641878D01*
X147328658Y-108559181D01*
X147329391Y-108553857D01*
X147337683Y-108502621D01*
X147348851Y-108448523D01*
X147363299Y-108389881D01*
X147381436Y-108325012D01*
X147397507Y-108271894D01*
X147408001Y-108236596D01*
X147414749Y-108210223D01*
X147417856Y-108192298D01*
X147417630Y-108182994D01*
X147416992Y-108175817D01*
X147416273Y-108159339D01*
X147415490Y-108134422D01*
X147414662Y-108101926D01*
X147413807Y-108062708D01*
X147412943Y-108017631D01*
X147412087Y-107967553D01*
X147411258Y-107913335D01*
X147410474Y-107855836D01*
X147410024Y-107819420D01*
X147409099Y-107744866D01*
X147408178Y-107679436D01*
X147407209Y-107622094D01*
X147406143Y-107571802D01*
X147404928Y-107527525D01*
X147403514Y-107488228D01*
X147401851Y-107452872D01*
X147399886Y-107420422D01*
X147397570Y-107389843D01*
X147394853Y-107360097D01*
X147391682Y-107330148D01*
X147388009Y-107298961D01*
X147383781Y-107265498D01*
X147382415Y-107254995D01*
X147373450Y-107192533D01*
X147362637Y-107127182D01*
X147350663Y-107062772D01*
X147338216Y-107003131D01*
X147333201Y-106981220D01*
X147327194Y-106955740D01*
X147321859Y-106933078D01*
X147317719Y-106915465D01*
X147315300Y-106905135D01*
X147315099Y-106904273D01*
X147309514Y-106894596D01*
X147296770Y-106880140D01*
X147278059Y-106861912D01*
X147254573Y-106840920D01*
X147227505Y-106818170D01*
X147198047Y-106794671D01*
X147167391Y-106771430D01*
X147136729Y-106749454D01*
X147112900Y-106733398D01*
X147019663Y-106678561D01*
X146920366Y-106631665D01*
X146814885Y-106592665D01*
X146703099Y-106561515D01*
X146584885Y-106538173D01*
X146574420Y-106536529D01*
X146529797Y-106530994D01*
X146477546Y-106526733D01*
X146420123Y-106523789D01*
X146359984Y-106522208D01*
X146299587Y-106522036D01*
X146241389Y-106523316D01*
X146187846Y-106526094D01*
X146155320Y-106528864D01*
X146018305Y-106546876D01*
X145886889Y-106572248D01*
X145761374Y-106604863D01*
X145642065Y-106644607D01*
X145529262Y-106691362D01*
X145423270Y-106745014D01*
X145324391Y-106805447D01*
X145232928Y-106872544D01*
X145212307Y-106889465D01*
X145179118Y-106918484D01*
X145146726Y-106949428D01*
X145113635Y-106983870D01*
X145078349Y-107023378D01*
X145039372Y-107069524D01*
X145030517Y-107080280D01*
X144926906Y-107212732D01*
X144833379Y-107345187D01*
X144749858Y-107477797D01*
X144676268Y-107610716D01*
X144612533Y-107744098D01*
X144558577Y-107878098D01*
X144514324Y-108012867D01*
X144479697Y-108148561D01*
X144464339Y-108225820D01*
X144456862Y-108268964D01*
X144450787Y-108307561D01*
X144445975Y-108343452D01*
X144442287Y-108378477D01*
X144439585Y-108414477D01*
X144437730Y-108453291D01*
X144436585Y-108496762D01*
X144436009Y-108546729D01*
X144435866Y-108604280D01*
X142752845Y-108604280D01*
X142753056Y-108588704D01*
X142754526Y-108529611D01*
X142756624Y-108472735D01*
X142759314Y-108420027D01*
X142762556Y-108373437D01*
X142766314Y-108334915D01*
X142766582Y-108332680D01*
X142792056Y-108163148D01*
X142826728Y-107997926D01*
X142870629Y-107836938D01*
X142923792Y-107680112D01*
X142986249Y-107527374D01*
X143058030Y-107378650D01*
X143139169Y-107233866D01*
X143229697Y-107092948D01*
X143329646Y-106955822D01*
X143397157Y-106871718D01*
X143422254Y-106842734D01*
X143453460Y-106808564D01*
X143489254Y-106770728D01*
X143528116Y-106730747D01*
X143568523Y-106690143D01*
X143608955Y-106650438D01*
X143647890Y-106613151D01*
X143683808Y-106579805D01*
X143715186Y-106551920D01*
X143726798Y-106542077D01*
X143843126Y-106449763D01*
X143960135Y-106366075D01*
X144079986Y-106289586D01*
X144204836Y-106218870D01*
X144257940Y-106191230D01*
X144403201Y-106122517D01*
X144550453Y-106063076D01*
X144700545Y-106012650D01*
X144854324Y-105970984D01*
X145012640Y-105937823D01*
X145176342Y-105912911D01*
X145187760Y-105911502D01*
X145225674Y-105907711D01*
X145271787Y-105904433D01*
X145324148Y-105901705D01*
X145380806Y-105899566D01*
X145439812Y-105898054D01*
X145499215Y-105897206D01*
X145557065Y-105897062D01*
X145611411Y-105897658D01*
X145611411Y-105897658D01*
G37*
X145611411Y-105897658D02*
X145660303Y-105899034D01*
X145701791Y-105901227D01*
X145704248Y-105901404D01*
X145870730Y-105918617D01*
X146034856Y-105945619D01*
X146196263Y-105982236D01*
X146354589Y-106028297D01*
X146509470Y-106083628D01*
X146660545Y-106148056D01*
X146807451Y-106221410D01*
X146949824Y-106303515D01*
X147087304Y-106394199D01*
X147219526Y-106493290D01*
X147346128Y-106600614D01*
X147466748Y-106715999D01*
X147511488Y-106762506D01*
X147622388Y-106887802D01*
X147724852Y-107018680D01*
X147818766Y-107154894D01*
X147904014Y-107296197D01*
X147980485Y-107442344D01*
X148048064Y-107593091D01*
X148106637Y-107748190D01*
X148156090Y-107907396D01*
X148196310Y-108070465D01*
X148227184Y-108237149D01*
X148241027Y-108337580D01*
X148243688Y-108365614D01*
X148246056Y-108402158D01*
X148248107Y-108445565D01*
X148249818Y-108494188D01*
X148251168Y-108546379D01*
X148252131Y-108600493D01*
X148252687Y-108654881D01*
X148252810Y-108707898D01*
X148252479Y-108757897D01*
X148251671Y-108803229D01*
X148250362Y-108842250D01*
X148248529Y-108873311D01*
X148248521Y-108873409D01*
X148230425Y-109037738D01*
X148202523Y-109199947D01*
X148165024Y-109359636D01*
X148118137Y-109516405D01*
X148062068Y-109669853D01*
X147997026Y-109819580D01*
X147923220Y-109965186D01*
X147840858Y-110106271D01*
X147750147Y-110242433D01*
X147651295Y-110373273D01*
X147544512Y-110498391D01*
X147430005Y-110617385D01*
X147307982Y-110729856D01*
X147263827Y-110767365D01*
X147132339Y-110870164D01*
X146995556Y-110964370D01*
X146853820Y-111049844D01*
X146707475Y-111126444D01*
X146556863Y-111194030D01*
X146402328Y-111252462D01*
X146244213Y-111301599D01*
X146082861Y-111341300D01*
X145918615Y-111371425D01*
X145751818Y-111391834D01*
X145736220Y-111393230D01*
X145704605Y-111395421D01*
X145665273Y-111397283D01*
X145620337Y-111398791D01*
X145571909Y-111399916D01*
X145522102Y-111400634D01*
X145473029Y-111400917D01*
X145426802Y-111400740D01*
X145385534Y-111400076D01*
X145351338Y-111398899D01*
X145338694Y-111398187D01*
X145169062Y-111382042D01*
X145002378Y-111356308D01*
X144838908Y-111321099D01*
X144678916Y-111276529D01*
X144522667Y-111222712D01*
X144370427Y-111159763D01*
X144222461Y-111087796D01*
X144079033Y-111006925D01*
X143940408Y-110917265D01*
X143806852Y-110818929D01*
X143678630Y-110712031D01*
X143617269Y-110656036D01*
X143498879Y-110537867D01*
X143388479Y-110413571D01*
X143286241Y-110283510D01*
X143192338Y-110148048D01*
X143106943Y-110007546D01*
X143030229Y-109862369D01*
X142962370Y-109712880D01*
X142903537Y-109559441D01*
X142853904Y-109402416D01*
X142813644Y-109242168D01*
X142782930Y-109079060D01*
X142761935Y-108913454D01*
X142756484Y-108849168D01*
X142754235Y-108808243D01*
X142752806Y-108759784D01*
X142752158Y-108705741D01*
X142752254Y-108648065D01*
X142752845Y-108604280D01*
X144435866Y-108604280D01*
X144436087Y-108664867D01*
X144436800Y-108717255D01*
X144438154Y-108763398D01*
X144440296Y-108805249D01*
X144443376Y-108844763D01*
X144447541Y-108883895D01*
X144452939Y-108924598D01*
X144459719Y-108968827D01*
X144466683Y-109010680D01*
X144491321Y-109135767D01*
X144523172Y-109265784D01*
X144561644Y-109399155D01*
X144606146Y-109534306D01*
X144656085Y-109669660D01*
X144710869Y-109803644D01*
X144769907Y-109934683D01*
X144832605Y-110061201D01*
X144898373Y-110181623D01*
X144922138Y-110222260D01*
X144947850Y-110264150D01*
X144972392Y-110301070D01*
X144997458Y-110335163D01*
X145024739Y-110368577D01*
X145055927Y-110403455D01*
X145092714Y-110441944D01*
X145106237Y-110455668D01*
X145174539Y-110522063D01*
X145240032Y-110580339D01*
X145304180Y-110631594D01*
X145368445Y-110676927D01*
X145434292Y-110717436D01*
X145503183Y-110754220D01*
X145505625Y-110755432D01*
X145572865Y-110786631D01*
X145640523Y-110813591D01*
X145709818Y-110836574D01*
X145781972Y-110855841D01*
X145858208Y-110871653D01*
X145939746Y-110884271D01*
X146027807Y-110893955D01*
X146123614Y-110900968D01*
X146204301Y-110904743D01*
X146218468Y-110904065D01*
X146239174Y-110901605D01*
X146263042Y-110897805D01*
X146276346Y-110895295D01*
X146382126Y-110868969D01*
X146486227Y-110832724D01*
X146588740Y-110786520D01*
X146689759Y-110730316D01*
X146768715Y-110678715D01*
X146804948Y-110652443D01*
X146845856Y-110621048D01*
X146890005Y-110585764D01*
X146935964Y-110547826D01*
X146982299Y-110508467D01*
X147027577Y-110468921D01*
X147070365Y-110430423D01*
X147109230Y-110394207D01*
X147142740Y-110361506D01*
X147169357Y-110333669D01*
X147219078Y-110276571D01*
X147268026Y-110215833D01*
X147315342Y-110152772D01*
X147360168Y-110088702D01*
X147401646Y-110024939D01*
X147438916Y-109962800D01*
X147471120Y-109903600D01*
X147497399Y-109848654D01*
X147515547Y-109803160D01*
X147527166Y-109766683D01*
X147533669Y-109736920D01*
X147535291Y-109711946D01*
X147532266Y-109689838D01*
X147530229Y-109682655D01*
X147521899Y-109649183D01*
X147515174Y-109605850D01*
X147510045Y-109552582D01*
X147508557Y-109530480D01*
X147506914Y-109507285D01*
X147505091Y-109487827D01*
X147503327Y-109474354D01*
X147502048Y-109469279D01*
X147495985Y-109465091D01*
X147483461Y-109458816D01*
X147471213Y-109453494D01*
X147435191Y-109435805D01*
X147405050Y-109414111D01*
X147380055Y-109387333D01*
X147359472Y-109354396D01*
X147342567Y-109314221D01*
X147328606Y-109265733D01*
X147321731Y-109234200D01*
X147313109Y-109179984D01*
X147306872Y-109117299D01*
X147303003Y-109047547D01*
X147301488Y-108972131D01*
X147302310Y-108892453D01*
X147305454Y-108809917D01*
X147310904Y-108725924D01*
X147318644Y-108641878D01*
X147328658Y-108559181D01*
X147329391Y-108553857D01*
X147337683Y-108502621D01*
X147348851Y-108448523D01*
X147363299Y-108389881D01*
X147381436Y-108325012D01*
X147397507Y-108271894D01*
X147408001Y-108236596D01*
X147414749Y-108210223D01*
X147417856Y-108192298D01*
X147417630Y-108182994D01*
X147416992Y-108175817D01*
X147416273Y-108159339D01*
X147415490Y-108134422D01*
X147414662Y-108101926D01*
X147413807Y-108062708D01*
X147412943Y-108017631D01*
X147412087Y-107967553D01*
X147411258Y-107913335D01*
X147410474Y-107855836D01*
X147410024Y-107819420D01*
X147409099Y-107744866D01*
X147408178Y-107679436D01*
X147407209Y-107622094D01*
X147406143Y-107571802D01*
X147404928Y-107527525D01*
X147403514Y-107488228D01*
X147401851Y-107452872D01*
X147399886Y-107420422D01*
X147397570Y-107389843D01*
X147394853Y-107360097D01*
X147391682Y-107330148D01*
X147388009Y-107298961D01*
X147383781Y-107265498D01*
X147382415Y-107254995D01*
X147373450Y-107192533D01*
X147362637Y-107127182D01*
X147350663Y-107062772D01*
X147338216Y-107003131D01*
X147333201Y-106981220D01*
X147327194Y-106955740D01*
X147321859Y-106933078D01*
X147317719Y-106915465D01*
X147315300Y-106905135D01*
X147315099Y-106904273D01*
X147309514Y-106894596D01*
X147296770Y-106880140D01*
X147278059Y-106861912D01*
X147254573Y-106840920D01*
X147227505Y-106818170D01*
X147198047Y-106794671D01*
X147167391Y-106771430D01*
X147136729Y-106749454D01*
X147112900Y-106733398D01*
X147019663Y-106678561D01*
X146920366Y-106631665D01*
X146814885Y-106592665D01*
X146703099Y-106561515D01*
X146584885Y-106538173D01*
X146574420Y-106536529D01*
X146529797Y-106530994D01*
X146477546Y-106526733D01*
X146420123Y-106523789D01*
X146359984Y-106522208D01*
X146299587Y-106522036D01*
X146241389Y-106523316D01*
X146187846Y-106526094D01*
X146155320Y-106528864D01*
X146018305Y-106546876D01*
X145886889Y-106572248D01*
X145761374Y-106604863D01*
X145642065Y-106644607D01*
X145529262Y-106691362D01*
X145423270Y-106745014D01*
X145324391Y-106805447D01*
X145232928Y-106872544D01*
X145212307Y-106889465D01*
X145179118Y-106918484D01*
X145146726Y-106949428D01*
X145113635Y-106983870D01*
X145078349Y-107023378D01*
X145039372Y-107069524D01*
X145030517Y-107080280D01*
X144926906Y-107212732D01*
X144833379Y-107345187D01*
X144749858Y-107477797D01*
X144676268Y-107610716D01*
X144612533Y-107744098D01*
X144558577Y-107878098D01*
X144514324Y-108012867D01*
X144479697Y-108148561D01*
X144464339Y-108225820D01*
X144456862Y-108268964D01*
X144450787Y-108307561D01*
X144445975Y-108343452D01*
X144442287Y-108378477D01*
X144439585Y-108414477D01*
X144437730Y-108453291D01*
X144436585Y-108496762D01*
X144436009Y-108546729D01*
X144435866Y-108604280D01*
X142752845Y-108604280D01*
X142753056Y-108588704D01*
X142754526Y-108529611D01*
X142756624Y-108472735D01*
X142759314Y-108420027D01*
X142762556Y-108373437D01*
X142766314Y-108334915D01*
X142766582Y-108332680D01*
X142792056Y-108163148D01*
X142826728Y-107997926D01*
X142870629Y-107836938D01*
X142923792Y-107680112D01*
X142986249Y-107527374D01*
X143058030Y-107378650D01*
X143139169Y-107233866D01*
X143229697Y-107092948D01*
X143329646Y-106955822D01*
X143397157Y-106871718D01*
X143422254Y-106842734D01*
X143453460Y-106808564D01*
X143489254Y-106770728D01*
X143528116Y-106730747D01*
X143568523Y-106690143D01*
X143608955Y-106650438D01*
X143647890Y-106613151D01*
X143683808Y-106579805D01*
X143715186Y-106551920D01*
X143726798Y-106542077D01*
X143843126Y-106449763D01*
X143960135Y-106366075D01*
X144079986Y-106289586D01*
X144204836Y-106218870D01*
X144257940Y-106191230D01*
X144403201Y-106122517D01*
X144550453Y-106063076D01*
X144700545Y-106012650D01*
X144854324Y-105970984D01*
X145012640Y-105937823D01*
X145176342Y-105912911D01*
X145187760Y-105911502D01*
X145225674Y-105907711D01*
X145271787Y-105904433D01*
X145324148Y-105901705D01*
X145380806Y-105899566D01*
X145439812Y-105898054D01*
X145499215Y-105897206D01*
X145557065Y-105897062D01*
X145611411Y-105897658D01*
G36*
X145024466Y-109579926D02*
X145039554Y-109591333D01*
X145041789Y-109593610D01*
X145057997Y-109614076D01*
X145071303Y-109637188D01*
X145081395Y-109661348D01*
X145087961Y-109684960D01*
X145090691Y-109706426D01*
X145089274Y-109724150D01*
X145083397Y-109736535D01*
X145072750Y-109741983D01*
X145070740Y-109742103D01*
X145063319Y-109739690D01*
X145051818Y-109733702D01*
X145050097Y-109732671D01*
X145033099Y-109717908D01*
X145017367Y-109696401D01*
X145003917Y-109670683D01*
X144993764Y-109643289D01*
X144987921Y-109616754D01*
X144987405Y-109593613D01*
X144990003Y-109582595D01*
X144997422Y-109575074D01*
X145009666Y-109574345D01*
X145024466Y-109579926D01*
X145024466Y-109579926D01*
G37*
X145024466Y-109579926D02*
X145039554Y-109591333D01*
X145041789Y-109593610D01*
X145057997Y-109614076D01*
X145071303Y-109637188D01*
X145081395Y-109661348D01*
X145087961Y-109684960D01*
X145090691Y-109706426D01*
X145089274Y-109724150D01*
X145083397Y-109736535D01*
X145072750Y-109741983D01*
X145070740Y-109742103D01*
X145063319Y-109739690D01*
X145051818Y-109733702D01*
X145050097Y-109732671D01*
X145033099Y-109717908D01*
X145017367Y-109696401D01*
X145003917Y-109670683D01*
X144993764Y-109643289D01*
X144987921Y-109616754D01*
X144987405Y-109593613D01*
X144990003Y-109582595D01*
X144997422Y-109575074D01*
X145009666Y-109574345D01*
X145024466Y-109579926D01*
G36*
X146463667Y-109301102D02*
X146476744Y-109304493D01*
X146488048Y-109311622D01*
X146490392Y-109313545D01*
X146509692Y-109335382D01*
X146519619Y-109359859D01*
X146519926Y-109385768D01*
X146510441Y-109411765D01*
X146496012Y-109430859D01*
X146477537Y-109442325D01*
X146453024Y-109447210D01*
X146442228Y-109447560D01*
X146424829Y-109446947D01*
X146413155Y-109443934D01*
X146402794Y-109436758D01*
X146393903Y-109428259D01*
X146377278Y-109405369D01*
X146369936Y-109380434D01*
X146371832Y-109355206D01*
X146382919Y-109331436D01*
X146396859Y-109315951D01*
X146408713Y-109306754D01*
X146420030Y-109302033D01*
X146435130Y-109300369D01*
X146444667Y-109300240D01*
X146463667Y-109301102D01*
X146463667Y-109301102D01*
G37*
X146463667Y-109301102D02*
X146476744Y-109304493D01*
X146488048Y-109311622D01*
X146490392Y-109313545D01*
X146509692Y-109335382D01*
X146519619Y-109359859D01*
X146519926Y-109385768D01*
X146510441Y-109411765D01*
X146496012Y-109430859D01*
X146477537Y-109442325D01*
X146453024Y-109447210D01*
X146442228Y-109447560D01*
X146424829Y-109446947D01*
X146413155Y-109443934D01*
X146402794Y-109436758D01*
X146393903Y-109428259D01*
X146377278Y-109405369D01*
X146369936Y-109380434D01*
X146371832Y-109355206D01*
X146382919Y-109331436D01*
X146396859Y-109315951D01*
X146408713Y-109306754D01*
X146420030Y-109302033D01*
X146435130Y-109300369D01*
X146444667Y-109300240D01*
X146463667Y-109301102D01*
G36*
X146124692Y-110681830D02*
X146128884Y-110687238D01*
X146129842Y-110695434D01*
X146125424Y-110700854D01*
X146113375Y-110708710D01*
X146095655Y-110718093D01*
X146074225Y-110728090D01*
X146051046Y-110737791D01*
X146028078Y-110746284D01*
X146007282Y-110752659D01*
X146005917Y-110753013D01*
X145962856Y-110760486D01*
X145914361Y-110762860D01*
X145863785Y-110760138D01*
X145817500Y-110752965D01*
X145790200Y-110747186D01*
X145771309Y-110742973D01*
X145759286Y-110739840D01*
X145752588Y-110737302D01*
X145749673Y-110734876D01*
X145748999Y-110732076D01*
X145748997Y-110731433D01*
X145750026Y-110723727D01*
X145753898Y-110719084D01*
X145762140Y-110717369D01*
X145776276Y-110718449D01*
X145797832Y-110722190D01*
X145814960Y-110725657D01*
X145873922Y-110735109D01*
X145927388Y-110737441D01*
X145977312Y-110732442D01*
X146025646Y-110719901D01*
X146074342Y-110699609D01*
X146079221Y-110697188D01*
X146101207Y-110686758D01*
X146115915Y-110681654D01*
X146124692Y-110681830D01*
X146124692Y-110681830D01*
G37*
X146124692Y-110681830D02*
X146128884Y-110687238D01*
X146129842Y-110695434D01*
X146125424Y-110700854D01*
X146113375Y-110708710D01*
X146095655Y-110718093D01*
X146074225Y-110728090D01*
X146051046Y-110737791D01*
X146028078Y-110746284D01*
X146007282Y-110752659D01*
X146005917Y-110753013D01*
X145962856Y-110760486D01*
X145914361Y-110762860D01*
X145863785Y-110760138D01*
X145817500Y-110752965D01*
X145790200Y-110747186D01*
X145771309Y-110742973D01*
X145759286Y-110739840D01*
X145752588Y-110737302D01*
X145749673Y-110734876D01*
X145748999Y-110732076D01*
X145748997Y-110731433D01*
X145750026Y-110723727D01*
X145753898Y-110719084D01*
X145762140Y-110717369D01*
X145776276Y-110718449D01*
X145797832Y-110722190D01*
X145814960Y-110725657D01*
X145873922Y-110735109D01*
X145927388Y-110737441D01*
X145977312Y-110732442D01*
X146025646Y-110719901D01*
X146074342Y-110699609D01*
X146079221Y-110697188D01*
X146101207Y-110686758D01*
X146115915Y-110681654D01*
X146124692Y-110681830D01*
G36*
X144793665Y-109242400D02*
X144811199Y-109244815D01*
X144827879Y-109250076D01*
X144846678Y-109258404D01*
X144896544Y-109286810D01*
X144946028Y-109324026D01*
X144994186Y-109368713D01*
X145040077Y-109419536D01*
X145082757Y-109475158D01*
X145121285Y-109534244D01*
X145154717Y-109595456D01*
X145182112Y-109657459D01*
X145202526Y-109718917D01*
X145215018Y-109778492D01*
X145215381Y-109781129D01*
X145218149Y-109824196D01*
X145214456Y-109862257D01*
X145204593Y-109894427D01*
X145188853Y-109919822D01*
X145167525Y-109937556D01*
X145163187Y-109939832D01*
X145135219Y-109948318D01*
X145103409Y-109949581D01*
X145071189Y-109943488D01*
X145070740Y-109943346D01*
X145027203Y-109925057D01*
X144982270Y-109897842D01*
X144936881Y-109862665D01*
X144891976Y-109820487D01*
X144848495Y-109772272D01*
X144807378Y-109718982D01*
X144769565Y-109661579D01*
X144735996Y-109601026D01*
X144735540Y-109600119D01*
X144710181Y-109545845D01*
X144701711Y-109523574D01*
X144855284Y-109523574D01*
X144855543Y-109551315D01*
X144858121Y-109579311D01*
X144862567Y-109602702D01*
X144872407Y-109632865D01*
X144886999Y-109667156D01*
X144904535Y-109701944D01*
X144923208Y-109733596D01*
X144938382Y-109755022D01*
X144969895Y-109790806D01*
X145001152Y-109818895D01*
X145031506Y-109839000D01*
X145060309Y-109850834D01*
X145086913Y-109854109D01*
X145110670Y-109848538D01*
X145126133Y-109838466D01*
X145140767Y-109821999D01*
X145150019Y-109802003D01*
X145154606Y-109776313D01*
X145155402Y-109750316D01*
X145151584Y-109711085D01*
X145141587Y-109670767D01*
X145126265Y-109630451D01*
X145106466Y-109591228D01*
X145083042Y-109554188D01*
X145056844Y-109520421D01*
X145028723Y-109491018D01*
X144999529Y-109467069D01*
X144970113Y-109449664D01*
X144941326Y-109439894D01*
X144914019Y-109438849D01*
X144912521Y-109439075D01*
X144890226Y-109447610D01*
X144871870Y-109464429D01*
X144861805Y-109481686D01*
X144857365Y-109499295D01*
X144855284Y-109523574D01*
X144701711Y-109523574D01*
X144691505Y-109496742D01*
X144678956Y-109450850D01*
X144671980Y-109406209D01*
X144670024Y-109368820D01*
X144670147Y-109343734D01*
X144671356Y-109325780D01*
X144674108Y-109311950D01*
X144678861Y-109299235D01*
X144681443Y-109293751D01*
X144692212Y-109276421D01*
X144705671Y-109260733D01*
X144711471Y-109255651D01*
X144721774Y-109248608D01*
X144731873Y-109244452D01*
X144744939Y-109242443D01*
X144764145Y-109241838D01*
X144770641Y-109241820D01*
X144793665Y-109242400D01*
X144793665Y-109242400D01*
G37*
X144793665Y-109242400D02*
X144811199Y-109244815D01*
X144827879Y-109250076D01*
X144846678Y-109258404D01*
X144896544Y-109286810D01*
X144946028Y-109324026D01*
X144994186Y-109368713D01*
X145040077Y-109419536D01*
X145082757Y-109475158D01*
X145121285Y-109534244D01*
X145154717Y-109595456D01*
X145182112Y-109657459D01*
X145202526Y-109718917D01*
X145215018Y-109778492D01*
X145215381Y-109781129D01*
X145218149Y-109824196D01*
X145214456Y-109862257D01*
X145204593Y-109894427D01*
X145188853Y-109919822D01*
X145167525Y-109937556D01*
X145163187Y-109939832D01*
X145135219Y-109948318D01*
X145103409Y-109949581D01*
X145071189Y-109943488D01*
X145070740Y-109943346D01*
X145027203Y-109925057D01*
X144982270Y-109897842D01*
X144936881Y-109862665D01*
X144891976Y-109820487D01*
X144848495Y-109772272D01*
X144807378Y-109718982D01*
X144769565Y-109661579D01*
X144735996Y-109601026D01*
X144735540Y-109600119D01*
X144710181Y-109545845D01*
X144701711Y-109523574D01*
X144855284Y-109523574D01*
X144855543Y-109551315D01*
X144858121Y-109579311D01*
X144862567Y-109602702D01*
X144872407Y-109632865D01*
X144886999Y-109667156D01*
X144904535Y-109701944D01*
X144923208Y-109733596D01*
X144938382Y-109755022D01*
X144969895Y-109790806D01*
X145001152Y-109818895D01*
X145031506Y-109839000D01*
X145060309Y-109850834D01*
X145086913Y-109854109D01*
X145110670Y-109848538D01*
X145126133Y-109838466D01*
X145140767Y-109821999D01*
X145150019Y-109802003D01*
X145154606Y-109776313D01*
X145155402Y-109750316D01*
X145151584Y-109711085D01*
X145141587Y-109670767D01*
X145126265Y-109630451D01*
X145106466Y-109591228D01*
X145083042Y-109554188D01*
X145056844Y-109520421D01*
X145028723Y-109491018D01*
X144999529Y-109467069D01*
X144970113Y-109449664D01*
X144941326Y-109439894D01*
X144914019Y-109438849D01*
X144912521Y-109439075D01*
X144890226Y-109447610D01*
X144871870Y-109464429D01*
X144861805Y-109481686D01*
X144857365Y-109499295D01*
X144855284Y-109523574D01*
X144701711Y-109523574D01*
X144691505Y-109496742D01*
X144678956Y-109450850D01*
X144671980Y-109406209D01*
X144670024Y-109368820D01*
X144670147Y-109343734D01*
X144671356Y-109325780D01*
X144674108Y-109311950D01*
X144678861Y-109299235D01*
X144681443Y-109293751D01*
X144692212Y-109276421D01*
X144705671Y-109260733D01*
X144711471Y-109255651D01*
X144721774Y-109248608D01*
X144731873Y-109244452D01*
X144744939Y-109242443D01*
X144764145Y-109241838D01*
X144770641Y-109241820D01*
X144793665Y-109242400D01*
G36*
X146418423Y-109051777D02*
X146456263Y-109055066D01*
X146476759Y-109058897D01*
X146528390Y-109075874D01*
X146573060Y-109099654D01*
X146610646Y-109129527D01*
X146641024Y-109164781D01*
X146664071Y-109204703D01*
X146679661Y-109248583D01*
X146687672Y-109295708D01*
X146687980Y-109345366D01*
X146680461Y-109396846D01*
X146664990Y-109449436D01*
X146641445Y-109502424D01*
X146609701Y-109555099D01*
X146571669Y-109604398D01*
X146522024Y-109655506D01*
X146467034Y-109700255D01*
X146407863Y-109738142D01*
X146345678Y-109768666D01*
X146281645Y-109791325D01*
X146216929Y-109805617D01*
X146152695Y-109811041D01*
X146098218Y-109808169D01*
X146043393Y-109797107D01*
X145994297Y-109778036D01*
X145951371Y-109751148D01*
X145932887Y-109735333D01*
X145901140Y-109701436D01*
X145878000Y-109666962D01*
X145862118Y-109629320D01*
X145852141Y-109585916D01*
X145850986Y-109578145D01*
X145848426Y-109523755D01*
X145855286Y-109468691D01*
X145870934Y-109413752D01*
X145884275Y-109383475D01*
X146249164Y-109383475D01*
X146251545Y-109405112D01*
X146264506Y-109449304D01*
X146285689Y-109488657D01*
X146314198Y-109522122D01*
X146349137Y-109548653D01*
X146389610Y-109567204D01*
X146390453Y-109567481D01*
X146410411Y-109571460D01*
X146437461Y-109573152D01*
X146455684Y-109572976D01*
X146479938Y-109571571D01*
X146498324Y-109568634D01*
X146515122Y-109563176D01*
X146532690Y-109555155D01*
X146569679Y-109531788D01*
X146600282Y-109501948D01*
X146623754Y-109467048D01*
X146639349Y-109428504D01*
X146646322Y-109387728D01*
X146643925Y-109346134D01*
X146643670Y-109344722D01*
X146630966Y-109302824D01*
X146609644Y-109264438D01*
X146580985Y-109231215D01*
X146546270Y-109204806D01*
X146527445Y-109194858D01*
X146497518Y-109185350D01*
X146462396Y-109180786D01*
X146425790Y-109181225D01*
X146391413Y-109186724D01*
X146373531Y-109192426D01*
X146338383Y-109211486D01*
X146307691Y-109237944D01*
X146282440Y-109270087D01*
X146263613Y-109306199D01*
X146252193Y-109344567D01*
X146249164Y-109383475D01*
X145884275Y-109383475D01*
X145894736Y-109359736D01*
X145926061Y-109307441D01*
X145964274Y-109257666D01*
X146008745Y-109211207D01*
X146058840Y-109168864D01*
X146113926Y-109131434D01*
X146173370Y-109099716D01*
X146236541Y-109074507D01*
X146254886Y-109068701D01*
X146291263Y-109060238D01*
X146332757Y-109054503D01*
X146376199Y-109051636D01*
X146418423Y-109051777D01*
X146418423Y-109051777D01*
G37*
X146418423Y-109051777D02*
X146456263Y-109055066D01*
X146476759Y-109058897D01*
X146528390Y-109075874D01*
X146573060Y-109099654D01*
X146610646Y-109129527D01*
X146641024Y-109164781D01*
X146664071Y-109204703D01*
X146679661Y-109248583D01*
X146687672Y-109295708D01*
X146687980Y-109345366D01*
X146680461Y-109396846D01*
X146664990Y-109449436D01*
X146641445Y-109502424D01*
X146609701Y-109555099D01*
X146571669Y-109604398D01*
X146522024Y-109655506D01*
X146467034Y-109700255D01*
X146407863Y-109738142D01*
X146345678Y-109768666D01*
X146281645Y-109791325D01*
X146216929Y-109805617D01*
X146152695Y-109811041D01*
X146098218Y-109808169D01*
X146043393Y-109797107D01*
X145994297Y-109778036D01*
X145951371Y-109751148D01*
X145932887Y-109735333D01*
X145901140Y-109701436D01*
X145878000Y-109666962D01*
X145862118Y-109629320D01*
X145852141Y-109585916D01*
X145850986Y-109578145D01*
X145848426Y-109523755D01*
X145855286Y-109468691D01*
X145870934Y-109413752D01*
X145884275Y-109383475D01*
X146249164Y-109383475D01*
X146251545Y-109405112D01*
X146264506Y-109449304D01*
X146285689Y-109488657D01*
X146314198Y-109522122D01*
X146349137Y-109548653D01*
X146389610Y-109567204D01*
X146390453Y-109567481D01*
X146410411Y-109571460D01*
X146437461Y-109573152D01*
X146455684Y-109572976D01*
X146479938Y-109571571D01*
X146498324Y-109568634D01*
X146515122Y-109563176D01*
X146532690Y-109555155D01*
X146569679Y-109531788D01*
X146600282Y-109501948D01*
X146623754Y-109467048D01*
X146639349Y-109428504D01*
X146646322Y-109387728D01*
X146643925Y-109346134D01*
X146643670Y-109344722D01*
X146630966Y-109302824D01*
X146609644Y-109264438D01*
X146580985Y-109231215D01*
X146546270Y-109204806D01*
X146527445Y-109194858D01*
X146497518Y-109185350D01*
X146462396Y-109180786D01*
X146425790Y-109181225D01*
X146391413Y-109186724D01*
X146373531Y-109192426D01*
X146338383Y-109211486D01*
X146307691Y-109237944D01*
X146282440Y-109270087D01*
X146263613Y-109306199D01*
X146252193Y-109344567D01*
X146249164Y-109383475D01*
X145884275Y-109383475D01*
X145894736Y-109359736D01*
X145926061Y-109307441D01*
X145964274Y-109257666D01*
X146008745Y-109211207D01*
X146058840Y-109168864D01*
X146113926Y-109131434D01*
X146173370Y-109099716D01*
X146236541Y-109074507D01*
X146254886Y-109068701D01*
X146291263Y-109060238D01*
X146332757Y-109054503D01*
X146376199Y-109051636D01*
X146418423Y-109051777D01*
D12*
X111000000Y-85300000D03*
X114250000Y-85300000D03*
D13*
X232600000Y-88300000D03*
X151600000Y-88300000D03*
X70600000Y-88300000D03*
D14*
X179700000Y-92300000D03*
D15*
X174490000Y-93040000D03*
X175760000Y-90500000D03*
X177030000Y-93040000D03*
D16*
X178300000Y-90500000D03*
D17*
X194900000Y-90400000D03*
D18*
X194900000Y-87860000D03*
X197440000Y-90400000D03*
X197440000Y-87860000D03*
X199980000Y-90400000D03*
X199980000Y-87860000D03*
D16*
X137300000Y-90500000D03*
D15*
X136030000Y-93040000D03*
X134760000Y-90500000D03*
X133490000Y-93040000D03*
D14*
X138700000Y-92300000D03*
D19*
X115850000Y-87300000D03*
X115850000Y-88100000D03*
X115850000Y-88900000D03*
X115850000Y-89700000D03*
X115850000Y-90500000D03*
X115850000Y-91300000D03*
X115850000Y-92100000D03*
X115850000Y-92900000D03*
D20*
X117300000Y-94350000D03*
X118100000Y-94350000D03*
X118900000Y-94350000D03*
X119700000Y-94350000D03*
X120500000Y-94350000D03*
X121300000Y-94350000D03*
X122100000Y-94350000D03*
X122900000Y-94350000D03*
D19*
X124350000Y-92900000D03*
X124350000Y-92100000D03*
X124350000Y-91300000D03*
X124350000Y-90500000D03*
X124350000Y-89700000D03*
X124350000Y-88900000D03*
X124350000Y-88100000D03*
X124350000Y-87300000D03*
D20*
X122900000Y-85850000D03*
X122100000Y-85850000D03*
X121300000Y-85850000D03*
X120500000Y-85850000D03*
X119700000Y-85850000D03*
X118900000Y-85850000D03*
X118100000Y-85850000D03*
X117300000Y-85850000D03*
D21*
X108800000Y-92350000D03*
X106600000Y-92350000D03*
X106600000Y-94050000D03*
X108800000Y-94050000D03*
D22*
X64048000Y-91446000D03*
X62048000Y-91446000D03*
X60048000Y-91446000D03*
X58048000Y-91446000D03*
X56048000Y-91446000D03*
X64048000Y-93446000D03*
X62048000Y-93446000D03*
X60048000Y-93446000D03*
X58048000Y-93446000D03*
D23*
X56048000Y-93446000D03*
D24*
X73057300Y-93990300D03*
X73057300Y-93215300D03*
X114200000Y-90487500D03*
X114200000Y-89712500D03*
D25*
X110657300Y-91902800D03*
X111432300Y-91902800D03*
D24*
X104957300Y-93715300D03*
X104957300Y-94490300D03*
X204650000Y-85112500D03*
X204650000Y-85887500D03*
X209850000Y-85900000D03*
X209850000Y-85125000D03*
X126000000Y-90500000D03*
X126000000Y-89725000D03*
D25*
X230462500Y-92000000D03*
X231237500Y-92000000D03*
D24*
X229750000Y-88112500D03*
X229750000Y-88887500D03*
D25*
X128037500Y-89500000D03*
X127262500Y-89500000D03*
D24*
X87600000Y-92937500D03*
X87600000Y-92162500D03*
X103557300Y-93727800D03*
X103557300Y-94502800D03*
X147057300Y-91340300D03*
X147057300Y-90565300D03*
D25*
X184419800Y-86852800D03*
X185194800Y-86852800D03*
D24*
X226500000Y-93087500D03*
X226500000Y-92312500D03*
D26*
X75507300Y-94252800D03*
X130357300Y-92652800D03*
X89000000Y-94000000D03*
X104257300Y-92202800D03*
X145507300Y-94002800D03*
X188807300Y-88302800D03*
X227907300Y-94150000D03*
D16*
X81000000Y-92600000D03*
D15*
X78460000Y-91330000D03*
X81000000Y-90060000D03*
X78460000Y-88790000D03*
D14*
X79200000Y-94000000D03*
X97700000Y-92300000D03*
D15*
X92490000Y-93040000D03*
X93760000Y-90500000D03*
X95030000Y-93040000D03*
D16*
X96300000Y-90500000D03*
X219300000Y-90500000D03*
D15*
X218030000Y-93040000D03*
X216760000Y-90500000D03*
X215490000Y-93040000D03*
D14*
X220700000Y-92300000D03*
D27*
X108157300Y-90002800D03*
D28*
G36*
X108466267Y-89704096D02*
X108524666Y-89712759D01*
X108581935Y-89727104D01*
X108637522Y-89746993D01*
X108690892Y-89772235D01*
X108741531Y-89802587D01*
X108788951Y-89837756D01*
X108832695Y-89877404D01*
X108872343Y-89921148D01*
X108907512Y-89968568D01*
X108937864Y-90019207D01*
X108963106Y-90072577D01*
X108982995Y-90128164D01*
X108997340Y-90185433D01*
X109006003Y-90243832D01*
X109008900Y-90302799D01*
X109008900Y-90302801D01*
X109006003Y-90361768D01*
X108997340Y-90420167D01*
X108982995Y-90477436D01*
X108963106Y-90533023D01*
X108937864Y-90586393D01*
X108907512Y-90637032D01*
X108872343Y-90684452D01*
X108832695Y-90728196D01*
X108788951Y-90767844D01*
X108741531Y-90803013D01*
X108690892Y-90833365D01*
X108637522Y-90858607D01*
X108581935Y-90878496D01*
X108524666Y-90892841D01*
X108466267Y-90901504D01*
X108407300Y-90904401D01*
X107907300Y-90904401D01*
X107848333Y-90901504D01*
X107789934Y-90892841D01*
X107732665Y-90878496D01*
X107677078Y-90858607D01*
X107623708Y-90833365D01*
X107573069Y-90803013D01*
X107525649Y-90767844D01*
X107481905Y-90728196D01*
X107442257Y-90684452D01*
X107407088Y-90637032D01*
X107376736Y-90586393D01*
X107351494Y-90533023D01*
X107331605Y-90477436D01*
X107317260Y-90420167D01*
X107308597Y-90361768D01*
X107305700Y-90302801D01*
X107305700Y-90302799D01*
X107308597Y-90243832D01*
X107317260Y-90185433D01*
X107331605Y-90128164D01*
X107351494Y-90072577D01*
X107376736Y-90019207D01*
X107407088Y-89968568D01*
X107442257Y-89921148D01*
X107481905Y-89877404D01*
X107525649Y-89837756D01*
X107573069Y-89802587D01*
X107623708Y-89772235D01*
X107677078Y-89746993D01*
X107732665Y-89727104D01*
X107789934Y-89712759D01*
X107848333Y-89704096D01*
X107907300Y-89701199D01*
X108407300Y-89701199D01*
X108466267Y-89704096D01*
X108466267Y-89704096D01*
G37*
D26*
X108157300Y-90302800D03*
D29*
X108157300Y-89002800D03*
D27*
X108157300Y-88002800D03*
D28*
G36*
X108466267Y-87104096D02*
X108524666Y-87112759D01*
X108581935Y-87127104D01*
X108637522Y-87146993D01*
X108690892Y-87172235D01*
X108741531Y-87202587D01*
X108788951Y-87237756D01*
X108832695Y-87277404D01*
X108872343Y-87321148D01*
X108907512Y-87368568D01*
X108937864Y-87419207D01*
X108963106Y-87472577D01*
X108982995Y-87528164D01*
X108997340Y-87585433D01*
X109006003Y-87643832D01*
X109008900Y-87702799D01*
X109008900Y-87702801D01*
X109006003Y-87761768D01*
X108997340Y-87820167D01*
X108982995Y-87877436D01*
X108963106Y-87933023D01*
X108937864Y-87986393D01*
X108907512Y-88037032D01*
X108872343Y-88084452D01*
X108832695Y-88128196D01*
X108788951Y-88167844D01*
X108741531Y-88203013D01*
X108690892Y-88233365D01*
X108637522Y-88258607D01*
X108581935Y-88278496D01*
X108524666Y-88292841D01*
X108466267Y-88301504D01*
X108407300Y-88304401D01*
X107907300Y-88304401D01*
X107848333Y-88301504D01*
X107789934Y-88292841D01*
X107732665Y-88278496D01*
X107677078Y-88258607D01*
X107623708Y-88233365D01*
X107573069Y-88203013D01*
X107525649Y-88167844D01*
X107481905Y-88128196D01*
X107442257Y-88084452D01*
X107407088Y-88037032D01*
X107376736Y-87986393D01*
X107351494Y-87933023D01*
X107331605Y-87877436D01*
X107317260Y-87820167D01*
X107308597Y-87761768D01*
X107305700Y-87702801D01*
X107305700Y-87702799D01*
X107308597Y-87643832D01*
X107317260Y-87585433D01*
X107331605Y-87528164D01*
X107351494Y-87472577D01*
X107376736Y-87419207D01*
X107407088Y-87368568D01*
X107442257Y-87321148D01*
X107481905Y-87277404D01*
X107525649Y-87237756D01*
X107573069Y-87202587D01*
X107623708Y-87172235D01*
X107677078Y-87146993D01*
X107732665Y-87127104D01*
X107789934Y-87112759D01*
X107848333Y-87104096D01*
X107907300Y-87101199D01*
X108407300Y-87101199D01*
X108466267Y-87104096D01*
X108466267Y-87104096D01*
G37*
D26*
X108157300Y-87702800D03*
D28*
G36*
X111016268Y-93054097D02*
X111074667Y-93062760D01*
X111131936Y-93077105D01*
X111187523Y-93096994D01*
X111240893Y-93122236D01*
X111291532Y-93152588D01*
X111338952Y-93187757D01*
X111382696Y-93227405D01*
X111422344Y-93271149D01*
X111457513Y-93318569D01*
X111487865Y-93369208D01*
X111513107Y-93422578D01*
X111532996Y-93478165D01*
X111547341Y-93535434D01*
X111556004Y-93593833D01*
X111558901Y-93652800D01*
X111558901Y-94152800D01*
X111556004Y-94211767D01*
X111547341Y-94270166D01*
X111532996Y-94327435D01*
X111513107Y-94383022D01*
X111487865Y-94436392D01*
X111457513Y-94487031D01*
X111422344Y-94534451D01*
X111382696Y-94578195D01*
X111338952Y-94617843D01*
X111291532Y-94653012D01*
X111240893Y-94683364D01*
X111187523Y-94708606D01*
X111131936Y-94728495D01*
X111074667Y-94742840D01*
X111016268Y-94751503D01*
X110957301Y-94754400D01*
X110957299Y-94754400D01*
X110898332Y-94751503D01*
X110839933Y-94742840D01*
X110782664Y-94728495D01*
X110727077Y-94708606D01*
X110673707Y-94683364D01*
X110623068Y-94653012D01*
X110575648Y-94617843D01*
X110531904Y-94578195D01*
X110492256Y-94534451D01*
X110457087Y-94487031D01*
X110426735Y-94436392D01*
X110401493Y-94383022D01*
X110381604Y-94327435D01*
X110367259Y-94270166D01*
X110358596Y-94211767D01*
X110355699Y-94152800D01*
X110355699Y-93652800D01*
X110358596Y-93593833D01*
X110367259Y-93535434D01*
X110381604Y-93478165D01*
X110401493Y-93422578D01*
X110426735Y-93369208D01*
X110457087Y-93318569D01*
X110492256Y-93271149D01*
X110531904Y-93227405D01*
X110575648Y-93187757D01*
X110623068Y-93152588D01*
X110673707Y-93122236D01*
X110727077Y-93096994D01*
X110782664Y-93077105D01*
X110839933Y-93062760D01*
X110898332Y-93054097D01*
X110957299Y-93051200D01*
X110957301Y-93051200D01*
X111016268Y-93054097D01*
X111016268Y-93054097D01*
G37*
D26*
X110957300Y-93902800D03*
D30*
X111257300Y-93902800D03*
D31*
X112257300Y-93902800D03*
D28*
G36*
X113616268Y-93054097D02*
X113674667Y-93062760D01*
X113731936Y-93077105D01*
X113787523Y-93096994D01*
X113840893Y-93122236D01*
X113891532Y-93152588D01*
X113938952Y-93187757D01*
X113982696Y-93227405D01*
X114022344Y-93271149D01*
X114057513Y-93318569D01*
X114087865Y-93369208D01*
X114113107Y-93422578D01*
X114132996Y-93478165D01*
X114147341Y-93535434D01*
X114156004Y-93593833D01*
X114158901Y-93652800D01*
X114158901Y-94152800D01*
X114156004Y-94211767D01*
X114147341Y-94270166D01*
X114132996Y-94327435D01*
X114113107Y-94383022D01*
X114087865Y-94436392D01*
X114057513Y-94487031D01*
X114022344Y-94534451D01*
X113982696Y-94578195D01*
X113938952Y-94617843D01*
X113891532Y-94653012D01*
X113840893Y-94683364D01*
X113787523Y-94708606D01*
X113731936Y-94728495D01*
X113674667Y-94742840D01*
X113616268Y-94751503D01*
X113557301Y-94754400D01*
X113557299Y-94754400D01*
X113498332Y-94751503D01*
X113439933Y-94742840D01*
X113382664Y-94728495D01*
X113327077Y-94708606D01*
X113273707Y-94683364D01*
X113223068Y-94653012D01*
X113175648Y-94617843D01*
X113131904Y-94578195D01*
X113092256Y-94534451D01*
X113057087Y-94487031D01*
X113026735Y-94436392D01*
X113001493Y-94383022D01*
X112981604Y-94327435D01*
X112967259Y-94270166D01*
X112958596Y-94211767D01*
X112955699Y-94152800D01*
X112955699Y-93652800D01*
X112958596Y-93593833D01*
X112967259Y-93535434D01*
X112981604Y-93478165D01*
X113001493Y-93422578D01*
X113026735Y-93369208D01*
X113057087Y-93318569D01*
X113092256Y-93271149D01*
X113131904Y-93227405D01*
X113175648Y-93187757D01*
X113223068Y-93152588D01*
X113273707Y-93122236D01*
X113327077Y-93096994D01*
X113382664Y-93077105D01*
X113439933Y-93062760D01*
X113498332Y-93054097D01*
X113557299Y-93051200D01*
X113557301Y-93051200D01*
X113616268Y-93054097D01*
X113616268Y-93054097D01*
G37*
D26*
X113557300Y-93902800D03*
D30*
X113257300Y-93902800D03*
D25*
X128037500Y-90700000D03*
X127262500Y-90700000D03*
D32*
X84200000Y-90200000D03*
X84200000Y-87190000D03*
X100100000Y-87490000D03*
X100100000Y-90500000D03*
X141100000Y-90500000D03*
X141100000Y-87490000D03*
X182100000Y-87500000D03*
X182100000Y-90510000D03*
X223100000Y-90500000D03*
X223100000Y-87490000D03*
D33*
X157650000Y-93650000D03*
X157650000Y-87450000D03*
X161350000Y-93650000D03*
X161350000Y-87450000D03*
D34*
X71557300Y-94002800D03*
X69657300Y-94002800D03*
X69657300Y-91802800D03*
X70607300Y-91802800D03*
X71557300Y-91802800D03*
D35*
X231432300Y-93217800D03*
X231082300Y-93217800D03*
X230732300Y-93217800D03*
X230382300Y-93217800D03*
X230382300Y-93887800D03*
X230732300Y-93887800D03*
X231082300Y-93887800D03*
X231432300Y-93887800D03*
D36*
X208350000Y-85100000D03*
X208350000Y-87000000D03*
X206150000Y-87000000D03*
X206150000Y-86050000D03*
X206150000Y-85100000D03*
X86100000Y-94050000D03*
X86100000Y-93100000D03*
X86100000Y-92150000D03*
X83900000Y-92150000D03*
X83900000Y-94050000D03*
X99700000Y-94150000D03*
X99700000Y-92250000D03*
X101900000Y-92250000D03*
X101900000Y-93200000D03*
X101900000Y-94150000D03*
X145507300Y-92402800D03*
X145507300Y-91452800D03*
X145507300Y-90502800D03*
X143307300Y-90502800D03*
X143307300Y-92402800D03*
D34*
X186307300Y-90502800D03*
X184407300Y-90502800D03*
X184407300Y-88302800D03*
X185357300Y-88302800D03*
X186307300Y-88302800D03*
D36*
X225000000Y-94150000D03*
X225000000Y-93200000D03*
X225000000Y-92250000D03*
X222800000Y-92250000D03*
X222800000Y-94150000D03*
D37*
X226537500Y-88300000D03*
X226537500Y-88800000D03*
X226537500Y-87800000D03*
X228562500Y-88800000D03*
X228562500Y-88300000D03*
X228562500Y-87800000D03*
D38*
X226800000Y-89562500D03*
X227300000Y-89562500D03*
X227800000Y-89562500D03*
X228300000Y-89562500D03*
X228300000Y-87037500D03*
X227800000Y-87037500D03*
X227300000Y-87037500D03*
X226800000Y-87037500D03*
D39*
X72167300Y-83052800D03*
X69157300Y-83052800D03*
D40*
X103900000Y-85900000D03*
X103900000Y-89500000D03*
D41*
X166050000Y-90925000D03*
X167800000Y-90925000D03*
D24*
X164025000Y-90937500D03*
X164025000Y-90162500D03*
D42*
X112100000Y-88525000D03*
X112100000Y-90275000D03*
D25*
X113462500Y-91450000D03*
X114237500Y-91450000D03*
D43*
X239400000Y-83855000D03*
D44*
X240670000Y-83855000D03*
X239400000Y-85125000D03*
X240670000Y-85125000D03*
X239400000Y-86395000D03*
X240670000Y-86395000D03*
X239400000Y-87665000D03*
X240670000Y-87665000D03*
X239400000Y-88935000D03*
X240670000Y-88935000D03*
X239400000Y-90205000D03*
X240670000Y-90205000D03*
X239400000Y-91475000D03*
X240670000Y-91475000D03*
X239400000Y-92745000D03*
X240670000Y-92745000D03*
D43*
X239400000Y-101005000D03*
D44*
X240670000Y-101005000D03*
X239400000Y-102275000D03*
X240670000Y-102275000D03*
X239400000Y-103545000D03*
X240670000Y-103545000D03*
X239400000Y-104815000D03*
X240670000Y-104815000D03*
X239400000Y-106085000D03*
X240670000Y-106085000D03*
X239400000Y-107355000D03*
X240670000Y-107355000D03*
X239400000Y-108625000D03*
X240670000Y-108625000D03*
X239400000Y-109895000D03*
X240670000Y-109895000D03*
D14*
X220700000Y-102510000D03*
D15*
X215490000Y-103250000D03*
X216760000Y-100710000D03*
X218030000Y-103250000D03*
D16*
X219300000Y-100710000D03*
D21*
X125900000Y-102100000D03*
X128100000Y-102100000D03*
X128100000Y-100400000D03*
X125900000Y-100400000D03*
D14*
X138700000Y-102510000D03*
D15*
X133490000Y-103250000D03*
X134760000Y-100710000D03*
X136030000Y-103250000D03*
D16*
X137300000Y-100710000D03*
D24*
X103200000Y-101337500D03*
X103200000Y-100562500D03*
D22*
X56048000Y-102304000D03*
X58048000Y-102304000D03*
X60048000Y-102304000D03*
X62048000Y-102304000D03*
X64048000Y-102304000D03*
X56048000Y-100304000D03*
X58048000Y-100304000D03*
X60048000Y-100304000D03*
X62048000Y-100304000D03*
D23*
X64048000Y-100304000D03*
D14*
X97700000Y-102510000D03*
D15*
X92490000Y-103250000D03*
X93760000Y-100710000D03*
X95030000Y-103250000D03*
D16*
X96300000Y-100710000D03*
D14*
X79200000Y-106360000D03*
D15*
X78460000Y-101150000D03*
X81000000Y-102420000D03*
X78460000Y-103690000D03*
D16*
X81000000Y-104960000D03*
D14*
X179700000Y-102510000D03*
D15*
X174490000Y-103250000D03*
X175760000Y-100710000D03*
X177030000Y-103250000D03*
D16*
X178300000Y-100710000D03*
D12*
X122925000Y-107650000D03*
X119675000Y-107650000D03*
D13*
X232600000Y-105450000D03*
X151600000Y-105450000D03*
X70600000Y-105450000D03*
D17*
X192100000Y-105850000D03*
D18*
X192100000Y-103310000D03*
X194640000Y-105850000D03*
X194640000Y-103310000D03*
X197180000Y-105850000D03*
X197180000Y-103310000D03*
D19*
X118050000Y-106450000D03*
X118050000Y-105650000D03*
X118050000Y-104850000D03*
X118050000Y-104050000D03*
X118050000Y-103250000D03*
X118050000Y-102450000D03*
X118050000Y-101650000D03*
X118050000Y-100850000D03*
D20*
X116600000Y-99400000D03*
X115800000Y-99400000D03*
X115000000Y-99400000D03*
X114200000Y-99400000D03*
X113400000Y-99400000D03*
X112600000Y-99400000D03*
X111800000Y-99400000D03*
X111000000Y-99400000D03*
D19*
X109550000Y-100850000D03*
X109550000Y-101650000D03*
X109550000Y-102450000D03*
X109550000Y-103250000D03*
X109550000Y-104050000D03*
X109550000Y-104850000D03*
X109550000Y-105650000D03*
X109550000Y-106450000D03*
D20*
X111000000Y-107900000D03*
X111800000Y-107900000D03*
X112600000Y-107900000D03*
X113400000Y-107900000D03*
X114200000Y-107900000D03*
X115000000Y-107900000D03*
X115800000Y-107900000D03*
X116600000Y-107900000D03*
D24*
X73057300Y-101625000D03*
X73057300Y-100850000D03*
X119700000Y-103262500D03*
X119700000Y-104037500D03*
X124300000Y-103187500D03*
X124300000Y-102412500D03*
X129700000Y-100737500D03*
X129700000Y-99962500D03*
X203725000Y-103262500D03*
X203725000Y-104037500D03*
X208950000Y-104037500D03*
X208950000Y-103262500D03*
X107900000Y-103262500D03*
X107900000Y-104037500D03*
X231025000Y-101437500D03*
X231025000Y-100662500D03*
X229750000Y-104862500D03*
X229750000Y-105637500D03*
D25*
X121712500Y-105050000D03*
X122487500Y-105050000D03*
D24*
X87200000Y-100962500D03*
X87200000Y-101737500D03*
X146500000Y-101862500D03*
X146500000Y-102637500D03*
X187500000Y-102337500D03*
X187500000Y-101562500D03*
X226200000Y-100562500D03*
X226200000Y-101337500D03*
D26*
X75507300Y-99497200D03*
X107500000Y-101150000D03*
X89000000Y-99750000D03*
X104900000Y-101450000D03*
X148100000Y-100450000D03*
X189400000Y-100550000D03*
X228100000Y-100600000D03*
D30*
X125800000Y-104350000D03*
D28*
G36*
X125558968Y-103501297D02*
X125617367Y-103509960D01*
X125674636Y-103524305D01*
X125730223Y-103544194D01*
X125783593Y-103569436D01*
X125834232Y-103599788D01*
X125881652Y-103634957D01*
X125925396Y-103674605D01*
X125965044Y-103718349D01*
X126000213Y-103765769D01*
X126030565Y-103816408D01*
X126055807Y-103869778D01*
X126075696Y-103925365D01*
X126090041Y-103982634D01*
X126098704Y-104041033D01*
X126101601Y-104100000D01*
X126101601Y-104600000D01*
X126098704Y-104658967D01*
X126090041Y-104717366D01*
X126075696Y-104774635D01*
X126055807Y-104830222D01*
X126030565Y-104883592D01*
X126000213Y-104934231D01*
X125965044Y-104981651D01*
X125925396Y-105025395D01*
X125881652Y-105065043D01*
X125834232Y-105100212D01*
X125783593Y-105130564D01*
X125730223Y-105155806D01*
X125674636Y-105175695D01*
X125617367Y-105190040D01*
X125558968Y-105198703D01*
X125500001Y-105201600D01*
X125499999Y-105201600D01*
X125441032Y-105198703D01*
X125382633Y-105190040D01*
X125325364Y-105175695D01*
X125269777Y-105155806D01*
X125216407Y-105130564D01*
X125165768Y-105100212D01*
X125118348Y-105065043D01*
X125074604Y-105025395D01*
X125034956Y-104981651D01*
X124999787Y-104934231D01*
X124969435Y-104883592D01*
X124944193Y-104830222D01*
X124924304Y-104774635D01*
X124909959Y-104717366D01*
X124901296Y-104658967D01*
X124898399Y-104600000D01*
X124898399Y-104100000D01*
X124901296Y-104041033D01*
X124909959Y-103982634D01*
X124924304Y-103925365D01*
X124944193Y-103869778D01*
X124969435Y-103816408D01*
X124999787Y-103765769D01*
X125034956Y-103718349D01*
X125074604Y-103674605D01*
X125118348Y-103634957D01*
X125165768Y-103599788D01*
X125216407Y-103569436D01*
X125269777Y-103544194D01*
X125325364Y-103524305D01*
X125382633Y-103509960D01*
X125441032Y-103501297D01*
X125499999Y-103498400D01*
X125500001Y-103498400D01*
X125558968Y-103501297D01*
X125558968Y-103501297D01*
G37*
D26*
X125500000Y-104350000D03*
D31*
X126800000Y-104350000D03*
D30*
X127800000Y-104350000D03*
D28*
G36*
X128158968Y-103501297D02*
X128217367Y-103509960D01*
X128274636Y-103524305D01*
X128330223Y-103544194D01*
X128383593Y-103569436D01*
X128434232Y-103599788D01*
X128481652Y-103634957D01*
X128525396Y-103674605D01*
X128565044Y-103718349D01*
X128600213Y-103765769D01*
X128630565Y-103816408D01*
X128655807Y-103869778D01*
X128675696Y-103925365D01*
X128690041Y-103982634D01*
X128698704Y-104041033D01*
X128701601Y-104100000D01*
X128701601Y-104600000D01*
X128698704Y-104658967D01*
X128690041Y-104717366D01*
X128675696Y-104774635D01*
X128655807Y-104830222D01*
X128630565Y-104883592D01*
X128600213Y-104934231D01*
X128565044Y-104981651D01*
X128525396Y-105025395D01*
X128481652Y-105065043D01*
X128434232Y-105100212D01*
X128383593Y-105130564D01*
X128330223Y-105155806D01*
X128274636Y-105175695D01*
X128217367Y-105190040D01*
X128158968Y-105198703D01*
X128100001Y-105201600D01*
X128099999Y-105201600D01*
X128041032Y-105198703D01*
X127982633Y-105190040D01*
X127925364Y-105175695D01*
X127869777Y-105155806D01*
X127816407Y-105130564D01*
X127765768Y-105100212D01*
X127718348Y-105065043D01*
X127674604Y-105025395D01*
X127634956Y-104981651D01*
X127599787Y-104934231D01*
X127569435Y-104883592D01*
X127544193Y-104830222D01*
X127524304Y-104774635D01*
X127509959Y-104717366D01*
X127501296Y-104658967D01*
X127498399Y-104600000D01*
X127498399Y-104100000D01*
X127501296Y-104041033D01*
X127509959Y-103982634D01*
X127524304Y-103925365D01*
X127544193Y-103869778D01*
X127569435Y-103816408D01*
X127599787Y-103765769D01*
X127634956Y-103718349D01*
X127674604Y-103674605D01*
X127718348Y-103634957D01*
X127765768Y-103599788D01*
X127816407Y-103569436D01*
X127869777Y-103544194D01*
X127925364Y-103524305D01*
X127982633Y-103509960D01*
X128041032Y-103501297D01*
X128099999Y-103498400D01*
X128100001Y-103498400D01*
X128158968Y-103501297D01*
X128158968Y-103501297D01*
G37*
D26*
X128100000Y-104350000D03*
D28*
G36*
X123758968Y-99901297D02*
X123817367Y-99909960D01*
X123874636Y-99924305D01*
X123930223Y-99944194D01*
X123983593Y-99969436D01*
X124034232Y-99999788D01*
X124081652Y-100034957D01*
X124125396Y-100074605D01*
X124165044Y-100118349D01*
X124200213Y-100165769D01*
X124230565Y-100216408D01*
X124255807Y-100269778D01*
X124275696Y-100325365D01*
X124290041Y-100382634D01*
X124298704Y-100441033D01*
X124301601Y-100500000D01*
X124301601Y-101000000D01*
X124298704Y-101058967D01*
X124290041Y-101117366D01*
X124275696Y-101174635D01*
X124255807Y-101230222D01*
X124230565Y-101283592D01*
X124200213Y-101334231D01*
X124165044Y-101381651D01*
X124125396Y-101425395D01*
X124081652Y-101465043D01*
X124034232Y-101500212D01*
X123983593Y-101530564D01*
X123930223Y-101555806D01*
X123874636Y-101575695D01*
X123817367Y-101590040D01*
X123758968Y-101598703D01*
X123700001Y-101601600D01*
X123699999Y-101601600D01*
X123641032Y-101598703D01*
X123582633Y-101590040D01*
X123525364Y-101575695D01*
X123469777Y-101555806D01*
X123416407Y-101530564D01*
X123365768Y-101500212D01*
X123318348Y-101465043D01*
X123274604Y-101425395D01*
X123234956Y-101381651D01*
X123199787Y-101334231D01*
X123169435Y-101283592D01*
X123144193Y-101230222D01*
X123124304Y-101174635D01*
X123109959Y-101117366D01*
X123101296Y-101058967D01*
X123098399Y-101000000D01*
X123098399Y-100500000D01*
X123101296Y-100441033D01*
X123109959Y-100382634D01*
X123124304Y-100325365D01*
X123144193Y-100269778D01*
X123169435Y-100216408D01*
X123199787Y-100165769D01*
X123234956Y-100118349D01*
X123274604Y-100074605D01*
X123318348Y-100034957D01*
X123365768Y-99999788D01*
X123416407Y-99969436D01*
X123469777Y-99944194D01*
X123525364Y-99924305D01*
X123582633Y-99909960D01*
X123641032Y-99901297D01*
X123699999Y-99898400D01*
X123700001Y-99898400D01*
X123758968Y-99901297D01*
X123758968Y-99901297D01*
G37*
D26*
X123700000Y-100750000D03*
D30*
X123400000Y-100750000D03*
D31*
X122400000Y-100750000D03*
D28*
G36*
X121158968Y-99901297D02*
X121217367Y-99909960D01*
X121274636Y-99924305D01*
X121330223Y-99944194D01*
X121383593Y-99969436D01*
X121434232Y-99999788D01*
X121481652Y-100034957D01*
X121525396Y-100074605D01*
X121565044Y-100118349D01*
X121600213Y-100165769D01*
X121630565Y-100216408D01*
X121655807Y-100269778D01*
X121675696Y-100325365D01*
X121690041Y-100382634D01*
X121698704Y-100441033D01*
X121701601Y-100500000D01*
X121701601Y-101000000D01*
X121698704Y-101058967D01*
X121690041Y-101117366D01*
X121675696Y-101174635D01*
X121655807Y-101230222D01*
X121630565Y-101283592D01*
X121600213Y-101334231D01*
X121565044Y-101381651D01*
X121525396Y-101425395D01*
X121481652Y-101465043D01*
X121434232Y-101500212D01*
X121383593Y-101530564D01*
X121330223Y-101555806D01*
X121274636Y-101575695D01*
X121217367Y-101590040D01*
X121158968Y-101598703D01*
X121100001Y-101601600D01*
X121099999Y-101601600D01*
X121041032Y-101598703D01*
X120982633Y-101590040D01*
X120925364Y-101575695D01*
X120869777Y-101555806D01*
X120816407Y-101530564D01*
X120765768Y-101500212D01*
X120718348Y-101465043D01*
X120674604Y-101425395D01*
X120634956Y-101381651D01*
X120599787Y-101334231D01*
X120569435Y-101283592D01*
X120544193Y-101230222D01*
X120524304Y-101174635D01*
X120509959Y-101117366D01*
X120501296Y-101058967D01*
X120498399Y-101000000D01*
X120498399Y-100500000D01*
X120501296Y-100441033D01*
X120509959Y-100382634D01*
X120524304Y-100325365D01*
X120544193Y-100269778D01*
X120569435Y-100216408D01*
X120599787Y-100165769D01*
X120634956Y-100118349D01*
X120674604Y-100074605D01*
X120718348Y-100034957D01*
X120765768Y-99999788D01*
X120816407Y-99969436D01*
X120869777Y-99944194D01*
X120925364Y-99924305D01*
X120982633Y-99909960D01*
X121041032Y-99901297D01*
X121099999Y-99898400D01*
X121100001Y-99898400D01*
X121158968Y-99901297D01*
X121158968Y-99901297D01*
G37*
D26*
X121100000Y-100750000D03*
D30*
X121400000Y-100750000D03*
D25*
X120812500Y-104050000D03*
X121587500Y-104050000D03*
D32*
X84200000Y-103550000D03*
X84200000Y-106560000D03*
X100100000Y-106355000D03*
X100100000Y-103345000D03*
X141000000Y-100545000D03*
X141000000Y-103555000D03*
X182000000Y-103555000D03*
X182000000Y-100545000D03*
X223150000Y-104470000D03*
X223150000Y-107480000D03*
D33*
X157650000Y-106300000D03*
X157650000Y-100100000D03*
X161350000Y-106300000D03*
X161350000Y-100100000D03*
D34*
X71557300Y-101947200D03*
X69657300Y-101947200D03*
X69657300Y-99747200D03*
X70607300Y-99747200D03*
X71557300Y-99747200D03*
D45*
X232215000Y-100525000D03*
X232215000Y-100875000D03*
X232215000Y-101225000D03*
X232215000Y-101575000D03*
X232885000Y-101575000D03*
X232885000Y-101225000D03*
X232885000Y-100875000D03*
X232885000Y-100525000D03*
D36*
X207450000Y-103250000D03*
X207450000Y-105150000D03*
X205250000Y-105150000D03*
X205250000Y-104200000D03*
X205250000Y-103250000D03*
D34*
X85750000Y-99650000D03*
X84800000Y-99650000D03*
X83850000Y-99650000D03*
X83850000Y-101850000D03*
X85750000Y-101850000D03*
X101750000Y-101650000D03*
X99850000Y-101650000D03*
X99850000Y-99450000D03*
X100800000Y-99450000D03*
X101750000Y-99450000D03*
X145050000Y-100550000D03*
X144100000Y-100550000D03*
X143150000Y-100550000D03*
X143150000Y-102750000D03*
X145050000Y-102750000D03*
X186050000Y-102750000D03*
X184150000Y-102750000D03*
X184150000Y-100550000D03*
X185100000Y-100550000D03*
X186050000Y-100550000D03*
X224750000Y-100525000D03*
X223800000Y-100525000D03*
X222850000Y-100525000D03*
X222850000Y-102725000D03*
X224750000Y-102725000D03*
D37*
X226537500Y-105450000D03*
X226537500Y-105950000D03*
X226537500Y-104950000D03*
X228562500Y-105950000D03*
X228562500Y-105450000D03*
X228562500Y-104950000D03*
D38*
X226800000Y-106712500D03*
X227300000Y-106712500D03*
X227800000Y-106712500D03*
X228300000Y-106712500D03*
X228300000Y-104187500D03*
X227800000Y-104187500D03*
X227300000Y-104187500D03*
X226800000Y-104187500D03*
D39*
X72167300Y-110697200D03*
X69157300Y-110697200D03*
D40*
X103900000Y-107850000D03*
X103900000Y-104250000D03*
D42*
X163800000Y-106775000D03*
X163800000Y-105025000D03*
D24*
X165525000Y-106112500D03*
X165525000Y-106887500D03*
D42*
X107300000Y-105775000D03*
X107300000Y-107525000D03*
D25*
X107687500Y-108750000D03*
X106912500Y-108750000D03*
D24*
X234075000Y-100637500D03*
X234075000Y-101412500D03*
M02*
