%TF.GenerationSoftware,KiCad,Pcbnew,(2018-01-21 revision 6b9866de8)-makepkg*%
%TF.CreationDate,2018-04-10T13:48:17+02:00*%
%TF.ProjectId,Arm_interface_board,41726D5F696E746572666163655F626F,rev?*%
%TF.SameCoordinates,Original*%
%TF.FileFunction,Soldermask,Bot*%
%TF.FilePolarity,Negative*%
%FSLAX46Y46*%
G04 Gerber Fmt 4.6, Leading zero omitted, Abs format (unit mm)*
G04 Created by KiCad (PCBNEW (2018-01-21 revision 6b9866de8)-makepkg) date 04/10/18 13:48:17*
%MOMM*%
%LPD*%
G01*
G04 APERTURE LIST*
%ADD10C,0.150000*%
%ADD11C,4.003200*%
%ADD12C,1.703300*%
%ADD13C,2.003200*%
%ADD14R,2.003200X2.003200*%
%ADD15R,1.903200X1.903200*%
%ADD16O,1.903200X1.903200*%
%ADD17C,1.553200*%
%ADD18R,1.553200X1.553200*%
%ADD19R,1.203200X1.203200*%
%ADD20O,1.203200X1.203200*%
G04 APERTURE END LIST*
D10*
G36*
X172892700Y-85147200D02*
X175292700Y-85147200D01*
X175292700Y-86947200D01*
X172892700Y-86947200D01*
X172892700Y-85147200D01*
G37*
X172892700Y-85147200D02*
X175292700Y-85147200D01*
X175292700Y-86947200D01*
X172892700Y-86947200D01*
X172892700Y-85147200D01*
G36*
X177200000Y-93000000D02*
X177200000Y-94200000D01*
X182850000Y-94200000D01*
X182850000Y-93000000D01*
X177200000Y-93000000D01*
G37*
X177200000Y-93000000D02*
X177200000Y-94200000D01*
X182850000Y-94200000D01*
X182850000Y-93000000D01*
X177200000Y-93000000D01*
D11*
X232742700Y-88397200D03*
X151742700Y-88397200D03*
X70742700Y-88397200D03*
D12*
X179842700Y-92397200D03*
D13*
X174632700Y-93137200D03*
X175902700Y-90597200D03*
X177172700Y-93137200D03*
D14*
X178442700Y-90597200D03*
D15*
X195042700Y-90497200D03*
D16*
X195042700Y-87957200D03*
X197582700Y-90497200D03*
X197582700Y-87957200D03*
X200122700Y-90497200D03*
X200122700Y-87957200D03*
D14*
X137442700Y-90597200D03*
D13*
X136172700Y-93137200D03*
X134902700Y-90597200D03*
X133632700Y-93137200D03*
D12*
X138842700Y-92397200D03*
D17*
X64190700Y-91543200D03*
X62190700Y-91543200D03*
X60190700Y-91543200D03*
X58190700Y-91543200D03*
X56190700Y-91543200D03*
X64190700Y-93543200D03*
X62190700Y-93543200D03*
X60190700Y-93543200D03*
X58190700Y-93543200D03*
D18*
X56190700Y-93543200D03*
D14*
X81142700Y-92697200D03*
D13*
X78602700Y-91427200D03*
X81142700Y-90157200D03*
X78602700Y-88887200D03*
D12*
X79342700Y-94097200D03*
X97842700Y-92397200D03*
D13*
X92632700Y-93137200D03*
X93902700Y-90597200D03*
X95172700Y-93137200D03*
D14*
X96442700Y-90597200D03*
X219442700Y-90597200D03*
D13*
X218172700Y-93137200D03*
X216902700Y-90597200D03*
X215632700Y-93137200D03*
D12*
X220842700Y-92397200D03*
D19*
X239542700Y-83952200D03*
D20*
X240812700Y-83952200D03*
X239542700Y-85222200D03*
X240812700Y-85222200D03*
X239542700Y-86492200D03*
X240812700Y-86492200D03*
X239542700Y-87762200D03*
X240812700Y-87762200D03*
X239542700Y-89032200D03*
X240812700Y-89032200D03*
X239542700Y-90302200D03*
X240812700Y-90302200D03*
X239542700Y-91572200D03*
X240812700Y-91572200D03*
X239542700Y-92842200D03*
X240812700Y-92842200D03*
M02*
