%TF.GenerationSoftware,KiCad,Pcbnew,(2018-01-21 revision 6b9866de8)-makepkg*%
%TF.CreationDate,2018-04-10T13:48:17+02:00*%
%TF.ProjectId,Arm_interface_board,41726D5F696E746572666163655F626F,rev?*%
%TF.SameCoordinates,Original*%
%TF.FileFunction,Legend,Top*%
%TF.FilePolarity,Positive*%
%FSLAX46Y46*%
G04 Gerber Fmt 4.6, Leading zero omitted, Abs format (unit mm)*
G04 Created by KiCad (PCBNEW (2018-01-21 revision 6b9866de8)-makepkg) date 04/10/18 13:48:17*
%MOMM*%
%LPD*%
G01*
G04 APERTURE LIST*
%ADD10C,0.150000*%
%ADD11C,0.200000*%
%ADD12C,0.120000*%
%ADD13C,0.100000*%
%ADD14C,0.010000*%
G04 APERTURE END LIST*
D10*
X113942700Y-92797200D02*
X113942700Y-92197200D01*
X113942700Y-92697200D02*
X113942700Y-92797200D01*
X112642700Y-92697200D02*
X113942700Y-92697200D01*
X112642700Y-92497200D02*
X112642700Y-92697200D01*
X112442700Y-92397200D02*
X112842700Y-92097200D01*
X112442700Y-92097200D02*
X112842700Y-92397200D01*
X112642700Y-92097200D02*
X112642700Y-92497200D01*
X115242700Y-84097200D02*
X115242700Y-84197200D01*
X115042700Y-84197200D02*
X115442700Y-83897200D01*
X115042700Y-83897200D02*
X115442700Y-84197200D01*
X115242700Y-82797200D02*
X115242700Y-84097200D01*
X110142700Y-82797200D02*
X115242700Y-82797200D01*
D11*
X165517700Y-94415057D02*
X165517700Y-93215057D01*
X165974842Y-93215057D01*
X166089128Y-93272200D01*
X166146271Y-93329342D01*
X166203414Y-93443628D01*
X166203414Y-93615057D01*
X166146271Y-93729342D01*
X166089128Y-93786485D01*
X165974842Y-93843628D01*
X165517700Y-93843628D01*
X166603414Y-93215057D02*
X166889128Y-94415057D01*
X167117700Y-93557914D01*
X167346271Y-94415057D01*
X167631985Y-93215057D01*
X168774842Y-94415057D02*
X168374842Y-93843628D01*
X168089128Y-94415057D02*
X168089128Y-93215057D01*
X168546271Y-93215057D01*
X168660557Y-93272200D01*
X168717700Y-93329342D01*
X168774842Y-93443628D01*
X168774842Y-93615057D01*
X168717700Y-93729342D01*
X168660557Y-93786485D01*
X168546271Y-93843628D01*
X168089128Y-93843628D01*
D10*
X128355795Y-94463866D02*
X128831985Y-94463866D01*
X128260557Y-94749580D02*
X128593890Y-93749580D01*
X128927223Y-94749580D01*
X129260557Y-94749580D02*
X129260557Y-94082914D01*
X129260557Y-94273390D02*
X129308176Y-94178152D01*
X129355795Y-94130533D01*
X129451033Y-94082914D01*
X129546271Y-94082914D01*
X130260557Y-94701961D02*
X130165319Y-94749580D01*
X129974842Y-94749580D01*
X129879604Y-94701961D01*
X129831985Y-94606723D01*
X129831985Y-94225771D01*
X129879604Y-94130533D01*
X129974842Y-94082914D01*
X130165319Y-94082914D01*
X130260557Y-94130533D01*
X130308176Y-94225771D01*
X130308176Y-94321009D01*
X129831985Y-94416247D01*
X130593890Y-94082914D02*
X130974842Y-94082914D01*
X130736747Y-94749580D02*
X130736747Y-93892438D01*
X130784366Y-93797200D01*
X130879604Y-93749580D01*
X130974842Y-93749580D01*
X76047461Y-91438866D02*
X76095080Y-91296009D01*
X76095080Y-91057914D01*
X76047461Y-90962676D01*
X75999842Y-90915057D01*
X75904604Y-90867438D01*
X75809366Y-90867438D01*
X75714128Y-90915057D01*
X75666509Y-90962676D01*
X75618890Y-91057914D01*
X75571271Y-91248390D01*
X75523652Y-91343628D01*
X75476033Y-91391247D01*
X75380795Y-91438866D01*
X75285557Y-91438866D01*
X75190319Y-91391247D01*
X75142700Y-91343628D01*
X75095080Y-91248390D01*
X75095080Y-91010295D01*
X75142700Y-90867438D01*
X75714128Y-90438866D02*
X75714128Y-89676961D01*
X76095080Y-89200771D02*
X75095080Y-89200771D01*
X76095080Y-88724580D02*
X75095080Y-88724580D01*
X76095080Y-88153152D01*
X75095080Y-88153152D01*
X105542700Y-95297200D02*
X109742700Y-95297200D01*
X98742700Y-95297200D02*
X105542700Y-95297200D01*
X98742700Y-94897200D02*
X98742700Y-95297200D01*
X98742700Y-86097200D02*
X98742700Y-94897200D01*
X93342700Y-86097200D02*
X98742700Y-86097200D01*
X90142700Y-89847200D02*
X90142700Y-93597200D01*
X76392700Y-87847200D02*
X76392700Y-93597200D01*
D12*
X111117700Y-86597200D02*
X111117700Y-86397200D01*
X114417700Y-86597200D02*
X111117700Y-86597200D01*
X114417700Y-86397200D02*
X114417700Y-86597200D01*
X111117700Y-84197200D02*
X111117700Y-84397200D01*
X114417700Y-84197200D02*
X111117700Y-84197200D01*
X114417700Y-84397200D02*
X114417700Y-84197200D01*
X180287700Y-89067200D02*
X180287700Y-90597200D01*
X178442700Y-89067200D02*
X180287700Y-89067200D01*
X177172700Y-91867200D02*
X177172700Y-89997200D01*
X179042700Y-91867200D02*
X177172700Y-91867200D01*
X180287700Y-93137200D02*
X180287700Y-94667200D01*
X180287700Y-94667200D02*
X172787700Y-94667200D01*
X172787700Y-89067200D02*
X172787700Y-94667200D01*
X175902700Y-89067200D02*
X172787700Y-89067200D01*
X201452700Y-91827200D02*
X201452700Y-86627200D01*
X196312700Y-91827200D02*
X201452700Y-91827200D01*
X193712700Y-86627200D02*
X201452700Y-86627200D01*
X196312700Y-91827200D02*
X196312700Y-89227200D01*
X196312700Y-89227200D02*
X193712700Y-89227200D01*
X193712700Y-89227200D02*
X193712700Y-86627200D01*
X195042700Y-91827200D02*
X193712700Y-91827200D01*
X193712700Y-91827200D02*
X193712700Y-90497200D01*
X134902700Y-89067200D02*
X131787700Y-89067200D01*
X131787700Y-89067200D02*
X131787700Y-94667200D01*
X139287700Y-94667200D02*
X131787700Y-94667200D01*
X139287700Y-93137200D02*
X139287700Y-94667200D01*
X138042700Y-91867200D02*
X136172700Y-91867200D01*
X136172700Y-91867200D02*
X136172700Y-89997200D01*
X137442700Y-89067200D02*
X139287700Y-89067200D01*
X139287700Y-89067200D02*
X139287700Y-90597200D01*
D10*
X116617700Y-86572200D02*
X116617700Y-86797200D01*
X123867700Y-86572200D02*
X123867700Y-86897200D01*
X123867700Y-93822200D02*
X123867700Y-93497200D01*
X116617700Y-93822200D02*
X116617700Y-93497200D01*
X116617700Y-86572200D02*
X116942700Y-86572200D01*
X116617700Y-93822200D02*
X116942700Y-93822200D01*
X123867700Y-93822200D02*
X123542700Y-93822200D01*
X123867700Y-86572200D02*
X123542700Y-86572200D01*
X116617700Y-86797200D02*
X115192700Y-86797200D01*
D12*
X109842700Y-94947200D02*
X109842700Y-91647200D01*
X109842700Y-91647200D02*
X105842700Y-91647200D01*
D10*
X56490700Y-95143200D02*
X56190700Y-94543200D01*
X55890700Y-95143200D02*
X56490700Y-95143200D01*
X56190700Y-94543200D02*
X55890700Y-95143200D01*
X54240700Y-94043200D02*
X55240700Y-94043200D01*
X66140700Y-94043200D02*
X66140700Y-84543200D01*
X54240700Y-94043200D02*
X54240700Y-84543200D01*
X54240700Y-82243200D02*
X66140700Y-82243200D01*
X66140700Y-94043200D02*
X65140700Y-94043200D01*
X54240700Y-84543200D02*
X55240700Y-84543200D01*
X65140700Y-84543200D02*
X66140700Y-84543200D01*
D12*
X76350000Y-94350000D02*
G75*
G03X76350000Y-94350000I-700000J0D01*
G01*
X131200000Y-92750000D02*
G75*
G03X131200000Y-92750000I-700000J0D01*
G01*
X89842700Y-94097200D02*
G75*
G03X89842700Y-94097200I-700000J0D01*
G01*
X105100000Y-92300000D02*
G75*
G03X105100000Y-92300000I-700000J0D01*
G01*
X146350000Y-94100000D02*
G75*
G03X146350000Y-94100000I-700000J0D01*
G01*
X189650000Y-88400000D02*
G75*
G03X189650000Y-88400000I-700000J0D01*
G01*
X228750000Y-94247200D02*
G75*
G03X228750000Y-94247200I-700000J0D01*
G01*
X82672700Y-90157200D02*
X82672700Y-87042200D01*
X82672700Y-87042200D02*
X77072700Y-87042200D01*
X77072700Y-94542200D02*
X77072700Y-87042200D01*
X78602700Y-94542200D02*
X77072700Y-94542200D01*
X79872700Y-93297200D02*
X79872700Y-91427200D01*
X79872700Y-91427200D02*
X81742700Y-91427200D01*
X82672700Y-92697200D02*
X82672700Y-94542200D01*
X82672700Y-94542200D02*
X81142700Y-94542200D01*
X98287700Y-89067200D02*
X98287700Y-90597200D01*
X96442700Y-89067200D02*
X98287700Y-89067200D01*
X95172700Y-91867200D02*
X95172700Y-89997200D01*
X97042700Y-91867200D02*
X95172700Y-91867200D01*
X98287700Y-93137200D02*
X98287700Y-94667200D01*
X98287700Y-94667200D02*
X90787700Y-94667200D01*
X90787700Y-89067200D02*
X90787700Y-94667200D01*
X93902700Y-89067200D02*
X90787700Y-89067200D01*
X216902700Y-89067200D02*
X213787700Y-89067200D01*
X213787700Y-89067200D02*
X213787700Y-94667200D01*
X221287700Y-94667200D02*
X213787700Y-94667200D01*
X221287700Y-93137200D02*
X221287700Y-94667200D01*
X220042700Y-91867200D02*
X218172700Y-91867200D01*
X218172700Y-91867200D02*
X218172700Y-89997200D01*
X219442700Y-89067200D02*
X221287700Y-89067200D01*
X221287700Y-89067200D02*
X221287700Y-90597200D01*
X108600000Y-87050000D02*
G75*
G02X109300000Y-87750000I0J-700000D01*
G01*
X107300000Y-87750000D02*
G75*
G02X108000000Y-87050000I700000J0D01*
G01*
X108000000Y-91150000D02*
G75*
G02X107300000Y-90450000I0J700000D01*
G01*
X109300000Y-90450000D02*
G75*
G02X108600000Y-91150000I-700000J0D01*
G01*
X109300000Y-87700000D02*
X109300000Y-90500000D01*
X108600000Y-91150000D02*
X108000000Y-91150000D01*
X107300000Y-90500000D02*
X107300000Y-87700000D01*
X108000000Y-87050000D02*
X108600000Y-87050000D01*
X107100000Y-87900000D02*
X106800000Y-87600000D01*
X106800000Y-87600000D02*
X106800000Y-88200000D01*
X107100000Y-87900000D02*
X106800000Y-88200000D01*
X111200000Y-95200000D02*
X111500000Y-95500000D01*
X110900000Y-95500000D02*
X111500000Y-95500000D01*
X111200000Y-95200000D02*
X110900000Y-95500000D01*
X110350000Y-94300000D02*
X110350000Y-93700000D01*
X113800000Y-95000000D02*
X111000000Y-95000000D01*
X114450000Y-93700000D02*
X114450000Y-94300000D01*
X111000000Y-93000000D02*
X113800000Y-93000000D01*
X113750000Y-93000000D02*
G75*
G02X114450000Y-93700000I0J-700000D01*
G01*
X114450000Y-94300000D02*
G75*
G02X113750000Y-95000000I-700000J0D01*
G01*
X111050000Y-95000000D02*
G75*
G02X110350000Y-94300000I0J700000D01*
G01*
X110350000Y-93700000D02*
G75*
G02X111050000Y-93000000I700000J0D01*
G01*
X83432700Y-89442200D02*
X83432700Y-88142200D01*
X85252700Y-89442200D02*
X85252700Y-88142200D01*
X101152700Y-89742200D02*
X101152700Y-88442200D01*
X99332700Y-89742200D02*
X99332700Y-88442200D01*
X140332700Y-89742200D02*
X140332700Y-88442200D01*
X142152700Y-89742200D02*
X142152700Y-88442200D01*
X183152700Y-89752200D02*
X183152700Y-88452200D01*
X181332700Y-89752200D02*
X181332700Y-88452200D01*
X222332700Y-89742200D02*
X222332700Y-88442200D01*
X224152700Y-89742200D02*
X224152700Y-88442200D01*
X156942700Y-92097200D02*
X156942700Y-89197200D01*
X157392700Y-92547200D02*
X156942700Y-92097200D01*
X160642700Y-93347200D02*
X158642700Y-93347200D01*
X162342700Y-92097200D02*
X161892700Y-92547200D01*
X162342700Y-89197200D02*
X162342700Y-92097200D01*
X161892700Y-88747200D02*
X162342700Y-89197200D01*
X158642700Y-87947200D02*
X160642700Y-87947200D01*
X156942700Y-89197200D02*
X157392700Y-88747200D01*
X72360000Y-93900000D02*
X72360000Y-91450000D01*
X69140000Y-92100000D02*
X69140000Y-93900000D01*
X230250000Y-94150000D02*
X230250000Y-93150000D01*
X231850000Y-94150000D02*
X231850000Y-92950000D01*
X208292700Y-84537200D02*
X205842700Y-84537200D01*
X206492700Y-87757200D02*
X208292700Y-87757200D01*
X86042700Y-91587200D02*
X84242700Y-91587200D01*
X84242700Y-94807200D02*
X86692700Y-94807200D01*
X100042700Y-94907200D02*
X102492700Y-94907200D01*
X101842700Y-91687200D02*
X100042700Y-91687200D01*
X145450000Y-89940000D02*
X143650000Y-89940000D01*
X143650000Y-93160000D02*
X146100000Y-93160000D01*
X187110000Y-90400000D02*
X187110000Y-87950000D01*
X183890000Y-88600000D02*
X183890000Y-90400000D01*
X224942700Y-91687200D02*
X223142700Y-91687200D01*
X223142700Y-94907200D02*
X225592700Y-94907200D01*
D13*
X226342700Y-90097200D02*
X226342700Y-89277200D01*
X229042700Y-89997200D02*
X229042700Y-89277200D01*
X229042700Y-89997200D02*
X228822700Y-89997200D01*
X228822700Y-86797200D02*
X229042700Y-86797200D01*
X229042700Y-86797200D02*
X229042700Y-87517200D01*
X226342700Y-87517200D02*
X226342700Y-86797200D01*
X226342700Y-86797200D02*
X226562700Y-86797200D01*
D12*
X71455000Y-84060000D02*
X70155000Y-84060000D01*
X71455000Y-82240000D02*
X70155000Y-82240000D01*
X105562700Y-85507200D02*
X105162700Y-85507200D01*
X106332700Y-90087200D02*
X105162700Y-90087200D01*
X101752700Y-90087200D02*
X102922700Y-90087200D01*
X102522700Y-85507200D02*
X102922700Y-85507200D01*
X101752700Y-86277200D02*
X101752700Y-90087200D01*
X101752700Y-86277200D02*
X102522700Y-85507200D01*
X106332700Y-86277200D02*
X106332700Y-90087200D01*
X106332700Y-86277200D02*
X105562700Y-85507200D01*
D14*
G36*
X139920901Y-83676938D02*
X139941048Y-83679165D01*
X139958563Y-83682764D01*
X139973888Y-83688508D01*
X139987466Y-83697171D01*
X139999739Y-83709524D01*
X140011150Y-83726340D01*
X140022140Y-83748393D01*
X140033153Y-83776455D01*
X140044631Y-83811299D01*
X140057016Y-83853698D01*
X140070750Y-83904425D01*
X140086277Y-83964252D01*
X140086999Y-83967067D01*
X140104206Y-84039674D01*
X140118240Y-84111476D01*
X140129389Y-84184643D01*
X140137938Y-84261350D01*
X140144174Y-84343769D01*
X140148309Y-84431960D01*
X140149417Y-84465605D01*
X140149922Y-84491725D01*
X140149633Y-84512949D01*
X140148358Y-84531903D01*
X140145908Y-84551214D01*
X140142091Y-84573509D01*
X140136716Y-84601417D01*
X140135572Y-84607220D01*
X140119091Y-84685911D01*
X140101565Y-84760606D01*
X140083246Y-84830539D01*
X140064387Y-84894941D01*
X140045241Y-84953045D01*
X140026059Y-85004082D01*
X140007094Y-85047285D01*
X139988600Y-85081886D01*
X139971357Y-85106493D01*
X139960653Y-85119949D01*
X139946377Y-85138917D01*
X139930675Y-85160511D01*
X139920187Y-85175352D01*
X139894686Y-85209475D01*
X139870922Y-85236401D01*
X139849622Y-85255384D01*
X139832523Y-85265306D01*
X139820548Y-85267898D01*
X139802849Y-85269558D01*
X139788339Y-85269912D01*
X139771749Y-85269066D01*
X139756469Y-85266224D01*
X139739446Y-85260503D01*
X139717629Y-85251018D01*
X139708660Y-85246818D01*
X139685892Y-85235094D01*
X139664406Y-85222381D01*
X139647352Y-85210618D01*
X139640899Y-85205155D01*
X139617998Y-85176910D01*
X139597928Y-85139083D01*
X139580672Y-85091620D01*
X139566207Y-85034469D01*
X139557659Y-84988220D01*
X139555142Y-84970964D01*
X139553122Y-84952787D01*
X139551548Y-84932374D01*
X139550372Y-84908408D01*
X139549543Y-84879575D01*
X139549012Y-84844559D01*
X139548729Y-84802044D01*
X139548645Y-84750716D01*
X139548645Y-84749460D01*
X139548768Y-84692978D01*
X139549214Y-84644631D01*
X139550103Y-84602392D01*
X139551557Y-84564237D01*
X139553697Y-84528142D01*
X139556642Y-84492082D01*
X139560514Y-84454033D01*
X139565434Y-84411969D01*
X139571523Y-84363867D01*
X139571768Y-84361978D01*
X139580826Y-84304954D01*
X139593676Y-84242499D01*
X139609731Y-84176501D01*
X139628406Y-84108848D01*
X139649113Y-84041427D01*
X139671265Y-83976127D01*
X139694277Y-83914835D01*
X139717562Y-83859439D01*
X139740532Y-83811826D01*
X139745730Y-83802137D01*
X139773597Y-83758035D01*
X139804683Y-83720717D01*
X139805288Y-83720096D01*
X139828080Y-83698819D01*
X139848768Y-83685102D01*
X139870463Y-83677783D01*
X139896275Y-83675702D01*
X139920901Y-83676938D01*
X139920901Y-83676938D01*
G37*
X139920901Y-83676938D02*
X139941048Y-83679165D01*
X139958563Y-83682764D01*
X139973888Y-83688508D01*
X139987466Y-83697171D01*
X139999739Y-83709524D01*
X140011150Y-83726340D01*
X140022140Y-83748393D01*
X140033153Y-83776455D01*
X140044631Y-83811299D01*
X140057016Y-83853698D01*
X140070750Y-83904425D01*
X140086277Y-83964252D01*
X140086999Y-83967067D01*
X140104206Y-84039674D01*
X140118240Y-84111476D01*
X140129389Y-84184643D01*
X140137938Y-84261350D01*
X140144174Y-84343769D01*
X140148309Y-84431960D01*
X140149417Y-84465605D01*
X140149922Y-84491725D01*
X140149633Y-84512949D01*
X140148358Y-84531903D01*
X140145908Y-84551214D01*
X140142091Y-84573509D01*
X140136716Y-84601417D01*
X140135572Y-84607220D01*
X140119091Y-84685911D01*
X140101565Y-84760606D01*
X140083246Y-84830539D01*
X140064387Y-84894941D01*
X140045241Y-84953045D01*
X140026059Y-85004082D01*
X140007094Y-85047285D01*
X139988600Y-85081886D01*
X139971357Y-85106493D01*
X139960653Y-85119949D01*
X139946377Y-85138917D01*
X139930675Y-85160511D01*
X139920187Y-85175352D01*
X139894686Y-85209475D01*
X139870922Y-85236401D01*
X139849622Y-85255384D01*
X139832523Y-85265306D01*
X139820548Y-85267898D01*
X139802849Y-85269558D01*
X139788339Y-85269912D01*
X139771749Y-85269066D01*
X139756469Y-85266224D01*
X139739446Y-85260503D01*
X139717629Y-85251018D01*
X139708660Y-85246818D01*
X139685892Y-85235094D01*
X139664406Y-85222381D01*
X139647352Y-85210618D01*
X139640899Y-85205155D01*
X139617998Y-85176910D01*
X139597928Y-85139083D01*
X139580672Y-85091620D01*
X139566207Y-85034469D01*
X139557659Y-84988220D01*
X139555142Y-84970964D01*
X139553122Y-84952787D01*
X139551548Y-84932374D01*
X139550372Y-84908408D01*
X139549543Y-84879575D01*
X139549012Y-84844559D01*
X139548729Y-84802044D01*
X139548645Y-84750716D01*
X139548645Y-84749460D01*
X139548768Y-84692978D01*
X139549214Y-84644631D01*
X139550103Y-84602392D01*
X139551557Y-84564237D01*
X139553697Y-84528142D01*
X139556642Y-84492082D01*
X139560514Y-84454033D01*
X139565434Y-84411969D01*
X139571523Y-84363867D01*
X139571768Y-84361978D01*
X139580826Y-84304954D01*
X139593676Y-84242499D01*
X139609731Y-84176501D01*
X139628406Y-84108848D01*
X139649113Y-84041427D01*
X139671265Y-83976127D01*
X139694277Y-83914835D01*
X139717562Y-83859439D01*
X139740532Y-83811826D01*
X139745730Y-83802137D01*
X139773597Y-83758035D01*
X139804683Y-83720717D01*
X139805288Y-83720096D01*
X139828080Y-83698819D01*
X139848768Y-83685102D01*
X139870463Y-83677783D01*
X139896275Y-83675702D01*
X139920901Y-83676938D01*
D12*
X168537700Y-90262200D02*
X166267700Y-90262200D01*
X168537700Y-91782200D02*
X168537700Y-90262200D01*
X166267700Y-91782200D02*
X168537700Y-91782200D01*
D14*
G36*
X145017855Y-82908212D02*
X145023098Y-82915627D01*
X145032408Y-82930827D01*
X145045127Y-82952604D01*
X145060596Y-82979749D01*
X145078154Y-83011053D01*
X145097144Y-83045310D01*
X145116904Y-83081309D01*
X145136778Y-83117844D01*
X145156104Y-83153705D01*
X145174224Y-83187684D01*
X145190479Y-83218572D01*
X145204208Y-83245163D01*
X145214754Y-83266246D01*
X145221457Y-83280614D01*
X145222737Y-83283738D01*
X145228320Y-83296672D01*
X145232923Y-83304457D01*
X145234299Y-83305480D01*
X145237801Y-83301187D01*
X145243879Y-83289921D01*
X145251232Y-83274099D01*
X145251394Y-83273730D01*
X145259309Y-83256693D01*
X145270801Y-83233503D01*
X145285231Y-83205333D01*
X145301955Y-83173358D01*
X145320332Y-83138751D01*
X145339721Y-83102687D01*
X145359480Y-83066340D01*
X145378969Y-83030885D01*
X145397544Y-82997495D01*
X145414565Y-82967345D01*
X145429391Y-82941609D01*
X145441379Y-82921461D01*
X145449888Y-82908076D01*
X145454068Y-82902761D01*
X145459621Y-82899406D01*
X145466964Y-82897052D01*
X145477732Y-82895571D01*
X145493562Y-82894833D01*
X145516090Y-82894711D01*
X145546953Y-82895076D01*
X145551010Y-82895141D01*
X145635914Y-82896540D01*
X145475967Y-83167889D01*
X145316020Y-83439239D01*
X145316020Y-83767760D01*
X145148380Y-83767760D01*
X145148380Y-83432298D01*
X144990900Y-83165942D01*
X144962870Y-83118489D01*
X144936436Y-83073651D01*
X144912042Y-83032188D01*
X144890133Y-82994859D01*
X144871154Y-82962426D01*
X144855550Y-82935647D01*
X144843764Y-82915283D01*
X144836242Y-82902094D01*
X144833429Y-82896840D01*
X144833420Y-82896793D01*
X144838223Y-82895872D01*
X144851527Y-82895078D01*
X144871675Y-82894467D01*
X144897006Y-82894093D01*
X144918829Y-82894000D01*
X145004239Y-82894000D01*
X145017855Y-82908212D01*
X145017855Y-82908212D01*
G37*
X145017855Y-82908212D02*
X145023098Y-82915627D01*
X145032408Y-82930827D01*
X145045127Y-82952604D01*
X145060596Y-82979749D01*
X145078154Y-83011053D01*
X145097144Y-83045310D01*
X145116904Y-83081309D01*
X145136778Y-83117844D01*
X145156104Y-83153705D01*
X145174224Y-83187684D01*
X145190479Y-83218572D01*
X145204208Y-83245163D01*
X145214754Y-83266246D01*
X145221457Y-83280614D01*
X145222737Y-83283738D01*
X145228320Y-83296672D01*
X145232923Y-83304457D01*
X145234299Y-83305480D01*
X145237801Y-83301187D01*
X145243879Y-83289921D01*
X145251232Y-83274099D01*
X145251394Y-83273730D01*
X145259309Y-83256693D01*
X145270801Y-83233503D01*
X145285231Y-83205333D01*
X145301955Y-83173358D01*
X145320332Y-83138751D01*
X145339721Y-83102687D01*
X145359480Y-83066340D01*
X145378969Y-83030885D01*
X145397544Y-82997495D01*
X145414565Y-82967345D01*
X145429391Y-82941609D01*
X145441379Y-82921461D01*
X145449888Y-82908076D01*
X145454068Y-82902761D01*
X145459621Y-82899406D01*
X145466964Y-82897052D01*
X145477732Y-82895571D01*
X145493562Y-82894833D01*
X145516090Y-82894711D01*
X145546953Y-82895076D01*
X145551010Y-82895141D01*
X145635914Y-82896540D01*
X145475967Y-83167889D01*
X145316020Y-83439239D01*
X145316020Y-83767760D01*
X145148380Y-83767760D01*
X145148380Y-83432298D01*
X144990900Y-83165942D01*
X144962870Y-83118489D01*
X144936436Y-83073651D01*
X144912042Y-83032188D01*
X144890133Y-82994859D01*
X144871154Y-82962426D01*
X144855550Y-82935647D01*
X144843764Y-82915283D01*
X144836242Y-82902094D01*
X144833429Y-82896840D01*
X144833420Y-82896793D01*
X144838223Y-82895872D01*
X144851527Y-82895078D01*
X144871675Y-82894467D01*
X144897006Y-82894093D01*
X144918829Y-82894000D01*
X145004239Y-82894000D01*
X145017855Y-82908212D01*
G36*
X143432610Y-82895239D02*
X143484531Y-82895719D01*
X143527382Y-82896195D01*
X143562254Y-82896725D01*
X143590235Y-82897368D01*
X143612416Y-82898183D01*
X143629887Y-82899229D01*
X143643737Y-82900564D01*
X143655057Y-82902248D01*
X143664937Y-82904339D01*
X143674466Y-82906896D01*
X143680243Y-82908611D01*
X143728702Y-82927141D01*
X143769364Y-82950922D01*
X143801775Y-82979605D01*
X143825476Y-83012845D01*
X143830293Y-83022491D01*
X143843081Y-83060131D01*
X143849314Y-83100999D01*
X143849015Y-83142335D01*
X143842205Y-83181378D01*
X143828906Y-83215368D01*
X143828771Y-83215617D01*
X143810048Y-83242159D01*
X143784293Y-83267760D01*
X143754478Y-83289732D01*
X143734788Y-83300577D01*
X143719274Y-83308134D01*
X143711922Y-83312651D01*
X143711667Y-83315343D01*
X143717446Y-83317423D01*
X143719548Y-83317950D01*
X143746896Y-83327419D01*
X143776173Y-83342028D01*
X143803670Y-83359614D01*
X143825675Y-83378019D01*
X143829319Y-83381863D01*
X143849609Y-83408469D01*
X143863132Y-83436666D01*
X143870741Y-83468955D01*
X143873289Y-83507836D01*
X143873300Y-83510957D01*
X143869182Y-83562696D01*
X143856755Y-83608773D01*
X143835903Y-83649342D01*
X143806511Y-83684553D01*
X143768467Y-83714560D01*
X143721655Y-83739512D01*
X143692401Y-83751040D01*
X143652320Y-83765207D01*
X143223060Y-83768361D01*
X143223060Y-83386760D01*
X143390700Y-83386760D01*
X143390700Y-83642278D01*
X143493570Y-83639372D01*
X143532808Y-83638050D01*
X143563443Y-83636477D01*
X143587031Y-83634512D01*
X143605127Y-83632008D01*
X143619288Y-83628825D01*
X143624190Y-83627332D01*
X143652343Y-83613857D01*
X143673241Y-83597729D01*
X143692475Y-83573024D01*
X143704450Y-83544262D01*
X143709255Y-83513473D01*
X143706977Y-83482691D01*
X143697702Y-83453948D01*
X143681519Y-83429275D01*
X143665393Y-83415003D01*
X143649835Y-83405784D01*
X143632187Y-83398688D01*
X143610983Y-83393482D01*
X143584756Y-83389932D01*
X143552039Y-83387803D01*
X143511365Y-83386860D01*
X143488692Y-83386760D01*
X143390700Y-83386760D01*
X143223060Y-83386760D01*
X143223060Y-83271518D01*
X143390700Y-83271518D01*
X143480870Y-83268356D01*
X143519189Y-83266580D01*
X143551840Y-83264193D01*
X143577380Y-83261328D01*
X143594365Y-83258118D01*
X143595663Y-83257746D01*
X143629508Y-83243893D01*
X143654608Y-83225146D01*
X143671430Y-83200900D01*
X143680440Y-83170547D01*
X143682350Y-83145050D01*
X143681482Y-83121710D01*
X143677972Y-83103695D01*
X143670849Y-83086306D01*
X143669732Y-83084090D01*
X143658252Y-83066597D01*
X143642857Y-83052396D01*
X143622598Y-83041218D01*
X143596529Y-83032795D01*
X143563703Y-83026858D01*
X143523172Y-83023138D01*
X143473989Y-83021366D01*
X143447850Y-83021131D01*
X143390700Y-83021000D01*
X143390700Y-83271518D01*
X143223060Y-83271518D01*
X143223060Y-82893386D01*
X143432610Y-82895239D01*
X143432610Y-82895239D01*
G37*
X143432610Y-82895239D02*
X143484531Y-82895719D01*
X143527382Y-82896195D01*
X143562254Y-82896725D01*
X143590235Y-82897368D01*
X143612416Y-82898183D01*
X143629887Y-82899229D01*
X143643737Y-82900564D01*
X143655057Y-82902248D01*
X143664937Y-82904339D01*
X143674466Y-82906896D01*
X143680243Y-82908611D01*
X143728702Y-82927141D01*
X143769364Y-82950922D01*
X143801775Y-82979605D01*
X143825476Y-83012845D01*
X143830293Y-83022491D01*
X143843081Y-83060131D01*
X143849314Y-83100999D01*
X143849015Y-83142335D01*
X143842205Y-83181378D01*
X143828906Y-83215368D01*
X143828771Y-83215617D01*
X143810048Y-83242159D01*
X143784293Y-83267760D01*
X143754478Y-83289732D01*
X143734788Y-83300577D01*
X143719274Y-83308134D01*
X143711922Y-83312651D01*
X143711667Y-83315343D01*
X143717446Y-83317423D01*
X143719548Y-83317950D01*
X143746896Y-83327419D01*
X143776173Y-83342028D01*
X143803670Y-83359614D01*
X143825675Y-83378019D01*
X143829319Y-83381863D01*
X143849609Y-83408469D01*
X143863132Y-83436666D01*
X143870741Y-83468955D01*
X143873289Y-83507836D01*
X143873300Y-83510957D01*
X143869182Y-83562696D01*
X143856755Y-83608773D01*
X143835903Y-83649342D01*
X143806511Y-83684553D01*
X143768467Y-83714560D01*
X143721655Y-83739512D01*
X143692401Y-83751040D01*
X143652320Y-83765207D01*
X143223060Y-83768361D01*
X143223060Y-83386760D01*
X143390700Y-83386760D01*
X143390700Y-83642278D01*
X143493570Y-83639372D01*
X143532808Y-83638050D01*
X143563443Y-83636477D01*
X143587031Y-83634512D01*
X143605127Y-83632008D01*
X143619288Y-83628825D01*
X143624190Y-83627332D01*
X143652343Y-83613857D01*
X143673241Y-83597729D01*
X143692475Y-83573024D01*
X143704450Y-83544262D01*
X143709255Y-83513473D01*
X143706977Y-83482691D01*
X143697702Y-83453948D01*
X143681519Y-83429275D01*
X143665393Y-83415003D01*
X143649835Y-83405784D01*
X143632187Y-83398688D01*
X143610983Y-83393482D01*
X143584756Y-83389932D01*
X143552039Y-83387803D01*
X143511365Y-83386860D01*
X143488692Y-83386760D01*
X143390700Y-83386760D01*
X143223060Y-83386760D01*
X143223060Y-83271518D01*
X143390700Y-83271518D01*
X143480870Y-83268356D01*
X143519189Y-83266580D01*
X143551840Y-83264193D01*
X143577380Y-83261328D01*
X143594365Y-83258118D01*
X143595663Y-83257746D01*
X143629508Y-83243893D01*
X143654608Y-83225146D01*
X143671430Y-83200900D01*
X143680440Y-83170547D01*
X143682350Y-83145050D01*
X143681482Y-83121710D01*
X143677972Y-83103695D01*
X143670849Y-83086306D01*
X143669732Y-83084090D01*
X143658252Y-83066597D01*
X143642857Y-83052396D01*
X143622598Y-83041218D01*
X143596529Y-83032795D01*
X143563703Y-83026858D01*
X143523172Y-83023138D01*
X143473989Y-83021366D01*
X143447850Y-83021131D01*
X143390700Y-83021000D01*
X143390700Y-83271518D01*
X143223060Y-83271518D01*
X143223060Y-82893386D01*
X143432610Y-82895239D01*
G36*
X141692710Y-82895343D02*
X141745475Y-82895961D01*
X141789296Y-82896660D01*
X141825387Y-82897595D01*
X141854963Y-82898922D01*
X141879239Y-82900800D01*
X141899430Y-82903383D01*
X141916750Y-82906829D01*
X141932416Y-82911294D01*
X141947641Y-82916934D01*
X141963641Y-82923906D01*
X141981630Y-82932366D01*
X141982171Y-82932625D01*
X142022857Y-82957327D01*
X142056089Y-82988824D01*
X142081558Y-83026687D01*
X142098951Y-83070484D01*
X142106112Y-83104149D01*
X142109033Y-83156577D01*
X142102547Y-83206588D01*
X142087160Y-83253257D01*
X142063376Y-83295656D01*
X142031701Y-83332859D01*
X141992641Y-83363942D01*
X141952597Y-83385479D01*
X141924194Y-83397886D01*
X141945784Y-83418993D01*
X141951924Y-83426294D01*
X141962745Y-83440537D01*
X141977492Y-83460639D01*
X141995415Y-83485520D01*
X142015758Y-83514097D01*
X142037770Y-83545287D01*
X142060698Y-83578010D01*
X142083789Y-83611184D01*
X142106289Y-83643725D01*
X142127446Y-83674553D01*
X142146507Y-83702586D01*
X142162718Y-83726741D01*
X142175328Y-83745936D01*
X142183583Y-83759090D01*
X142186730Y-83765121D01*
X142186740Y-83765230D01*
X142181989Y-83766646D01*
X142169025Y-83767576D01*
X142149782Y-83768058D01*
X142126195Y-83768127D01*
X142100197Y-83767820D01*
X142073721Y-83767174D01*
X142048703Y-83766224D01*
X142027075Y-83765007D01*
X142010772Y-83763560D01*
X142001728Y-83761918D01*
X142001290Y-83761742D01*
X141994386Y-83755604D01*
X141982500Y-83741186D01*
X141965591Y-83718428D01*
X141943619Y-83687272D01*
X141916542Y-83647658D01*
X141884319Y-83599528D01*
X141846911Y-83542823D01*
X141807166Y-83481933D01*
X141795020Y-83464543D01*
X141783243Y-83449848D01*
X141774069Y-83440602D01*
X141772855Y-83439721D01*
X141760620Y-83435115D01*
X141740216Y-83431356D01*
X141714730Y-83428886D01*
X141668580Y-83425896D01*
X141668580Y-83767760D01*
X141500940Y-83767760D01*
X141500940Y-83311645D01*
X141668580Y-83311645D01*
X141746050Y-83309442D01*
X141777942Y-83308321D01*
X141801904Y-83306848D01*
X141820166Y-83304734D01*
X141834957Y-83301691D01*
X141848509Y-83297429D01*
X141853526Y-83295536D01*
X141887367Y-83277583D01*
X141913296Y-83253291D01*
X141931200Y-83222836D01*
X141940965Y-83186391D01*
X141942900Y-83158165D01*
X141938320Y-83121609D01*
X141925094Y-83089718D01*
X141903993Y-83063450D01*
X141875788Y-83043766D01*
X141841251Y-83031624D01*
X141841172Y-83031607D01*
X141826559Y-83029346D01*
X141804515Y-83027013D01*
X141777763Y-83024848D01*
X141749028Y-83023096D01*
X141742029Y-83022759D01*
X141668580Y-83019422D01*
X141668580Y-83311645D01*
X141500940Y-83311645D01*
X141500940Y-82893245D01*
X141692710Y-82895343D01*
X141692710Y-82895343D01*
G37*
X141692710Y-82895343D02*
X141745475Y-82895961D01*
X141789296Y-82896660D01*
X141825387Y-82897595D01*
X141854963Y-82898922D01*
X141879239Y-82900800D01*
X141899430Y-82903383D01*
X141916750Y-82906829D01*
X141932416Y-82911294D01*
X141947641Y-82916934D01*
X141963641Y-82923906D01*
X141981630Y-82932366D01*
X141982171Y-82932625D01*
X142022857Y-82957327D01*
X142056089Y-82988824D01*
X142081558Y-83026687D01*
X142098951Y-83070484D01*
X142106112Y-83104149D01*
X142109033Y-83156577D01*
X142102547Y-83206588D01*
X142087160Y-83253257D01*
X142063376Y-83295656D01*
X142031701Y-83332859D01*
X141992641Y-83363942D01*
X141952597Y-83385479D01*
X141924194Y-83397886D01*
X141945784Y-83418993D01*
X141951924Y-83426294D01*
X141962745Y-83440537D01*
X141977492Y-83460639D01*
X141995415Y-83485520D01*
X142015758Y-83514097D01*
X142037770Y-83545287D01*
X142060698Y-83578010D01*
X142083789Y-83611184D01*
X142106289Y-83643725D01*
X142127446Y-83674553D01*
X142146507Y-83702586D01*
X142162718Y-83726741D01*
X142175328Y-83745936D01*
X142183583Y-83759090D01*
X142186730Y-83765121D01*
X142186740Y-83765230D01*
X142181989Y-83766646D01*
X142169025Y-83767576D01*
X142149782Y-83768058D01*
X142126195Y-83768127D01*
X142100197Y-83767820D01*
X142073721Y-83767174D01*
X142048703Y-83766224D01*
X142027075Y-83765007D01*
X142010772Y-83763560D01*
X142001728Y-83761918D01*
X142001290Y-83761742D01*
X141994386Y-83755604D01*
X141982500Y-83741186D01*
X141965591Y-83718428D01*
X141943619Y-83687272D01*
X141916542Y-83647658D01*
X141884319Y-83599528D01*
X141846911Y-83542823D01*
X141807166Y-83481933D01*
X141795020Y-83464543D01*
X141783243Y-83449848D01*
X141774069Y-83440602D01*
X141772855Y-83439721D01*
X141760620Y-83435115D01*
X141740216Y-83431356D01*
X141714730Y-83428886D01*
X141668580Y-83425896D01*
X141668580Y-83767760D01*
X141500940Y-83767760D01*
X141500940Y-83311645D01*
X141668580Y-83311645D01*
X141746050Y-83309442D01*
X141777942Y-83308321D01*
X141801904Y-83306848D01*
X141820166Y-83304734D01*
X141834957Y-83301691D01*
X141848509Y-83297429D01*
X141853526Y-83295536D01*
X141887367Y-83277583D01*
X141913296Y-83253291D01*
X141931200Y-83222836D01*
X141940965Y-83186391D01*
X141942900Y-83158165D01*
X141938320Y-83121609D01*
X141925094Y-83089718D01*
X141903993Y-83063450D01*
X141875788Y-83043766D01*
X141841251Y-83031624D01*
X141841172Y-83031607D01*
X141826559Y-83029346D01*
X141804515Y-83027013D01*
X141777763Y-83024848D01*
X141749028Y-83023096D01*
X141742029Y-83022759D01*
X141668580Y-83019422D01*
X141668580Y-83311645D01*
X141500940Y-83311645D01*
X141500940Y-82893245D01*
X141692710Y-82895343D01*
G36*
X144450764Y-82884637D02*
X144474025Y-82886015D01*
X144495037Y-82888700D01*
X144508926Y-82891246D01*
X144572683Y-82908968D01*
X144631823Y-82935278D01*
X144685505Y-82969725D01*
X144731820Y-83010751D01*
X144771421Y-83058809D01*
X144803250Y-83112213D01*
X144827311Y-83169800D01*
X144843608Y-83230407D01*
X144852145Y-83292870D01*
X144852928Y-83356026D01*
X144845961Y-83418711D01*
X144831249Y-83479762D01*
X144808795Y-83538015D01*
X144778606Y-83592306D01*
X144740685Y-83641473D01*
X144729280Y-83653557D01*
X144680144Y-83696410D01*
X144625882Y-83730508D01*
X144566738Y-83755721D01*
X144509458Y-83770723D01*
X144484482Y-83774100D01*
X144453017Y-83776282D01*
X144417934Y-83777276D01*
X144382100Y-83777085D01*
X144348385Y-83775715D01*
X144319656Y-83773170D01*
X144302560Y-83770374D01*
X144238616Y-83751732D01*
X144180999Y-83725356D01*
X144129090Y-83690929D01*
X144101132Y-83666939D01*
X144056614Y-83619072D01*
X144021019Y-83567156D01*
X143994161Y-83510732D01*
X143975851Y-83449342D01*
X143965903Y-83382527D01*
X143963840Y-83331524D01*
X144135436Y-83331524D01*
X144136473Y-83368599D01*
X144139499Y-83402573D01*
X144144127Y-83428635D01*
X144161323Y-83479827D01*
X144186004Y-83524980D01*
X144217581Y-83563460D01*
X144255467Y-83594633D01*
X144299072Y-83617863D01*
X144328931Y-83628056D01*
X144351472Y-83632185D01*
X144380354Y-83634551D01*
X144412182Y-83635166D01*
X144443559Y-83634039D01*
X144471087Y-83631181D01*
X144488327Y-83627575D01*
X144535262Y-83608835D01*
X144576781Y-83582153D01*
X144611877Y-83548383D01*
X144639542Y-83508382D01*
X144647668Y-83492229D01*
X144659625Y-83464118D01*
X144668138Y-83438607D01*
X144673735Y-83412886D01*
X144676942Y-83384144D01*
X144678287Y-83349571D01*
X144678426Y-83328340D01*
X144678138Y-83297268D01*
X144677130Y-83273627D01*
X144675108Y-83254696D01*
X144671774Y-83237755D01*
X144666832Y-83220083D01*
X144666534Y-83219120D01*
X144646306Y-83167386D01*
X144620180Y-83123824D01*
X144587868Y-83088137D01*
X144549085Y-83060027D01*
X144503543Y-83039197D01*
X144488327Y-83034266D01*
X144464952Y-83029619D01*
X144435141Y-83026952D01*
X144402426Y-83026283D01*
X144370340Y-83027630D01*
X144342416Y-83031012D01*
X144331165Y-83033460D01*
X144283275Y-83051060D01*
X144241606Y-83076666D01*
X144206242Y-83110191D01*
X144177265Y-83151544D01*
X144154758Y-83200638D01*
X144144238Y-83234360D01*
X144139320Y-83261138D01*
X144136386Y-83294615D01*
X144135436Y-83331524D01*
X143963840Y-83331524D01*
X143963813Y-83330880D01*
X143967821Y-83260083D01*
X143979991Y-83195084D01*
X144000545Y-83135347D01*
X144029701Y-83080333D01*
X144067680Y-83029505D01*
X144101852Y-82994029D01*
X144127094Y-82971777D01*
X144151397Y-82954130D01*
X144179099Y-82938102D01*
X144194523Y-82930283D01*
X144226106Y-82915390D01*
X144253395Y-82904335D01*
X144279114Y-82896481D01*
X144305990Y-82891191D01*
X144336748Y-82887828D01*
X144374113Y-82885754D01*
X144387006Y-82885288D01*
X144422632Y-82884437D01*
X144450764Y-82884637D01*
X144450764Y-82884637D01*
G37*
X144450764Y-82884637D02*
X144474025Y-82886015D01*
X144495037Y-82888700D01*
X144508926Y-82891246D01*
X144572683Y-82908968D01*
X144631823Y-82935278D01*
X144685505Y-82969725D01*
X144731820Y-83010751D01*
X144771421Y-83058809D01*
X144803250Y-83112213D01*
X144827311Y-83169800D01*
X144843608Y-83230407D01*
X144852145Y-83292870D01*
X144852928Y-83356026D01*
X144845961Y-83418711D01*
X144831249Y-83479762D01*
X144808795Y-83538015D01*
X144778606Y-83592306D01*
X144740685Y-83641473D01*
X144729280Y-83653557D01*
X144680144Y-83696410D01*
X144625882Y-83730508D01*
X144566738Y-83755721D01*
X144509458Y-83770723D01*
X144484482Y-83774100D01*
X144453017Y-83776282D01*
X144417934Y-83777276D01*
X144382100Y-83777085D01*
X144348385Y-83775715D01*
X144319656Y-83773170D01*
X144302560Y-83770374D01*
X144238616Y-83751732D01*
X144180999Y-83725356D01*
X144129090Y-83690929D01*
X144101132Y-83666939D01*
X144056614Y-83619072D01*
X144021019Y-83567156D01*
X143994161Y-83510732D01*
X143975851Y-83449342D01*
X143965903Y-83382527D01*
X143963840Y-83331524D01*
X144135436Y-83331524D01*
X144136473Y-83368599D01*
X144139499Y-83402573D01*
X144144127Y-83428635D01*
X144161323Y-83479827D01*
X144186004Y-83524980D01*
X144217581Y-83563460D01*
X144255467Y-83594633D01*
X144299072Y-83617863D01*
X144328931Y-83628056D01*
X144351472Y-83632185D01*
X144380354Y-83634551D01*
X144412182Y-83635166D01*
X144443559Y-83634039D01*
X144471087Y-83631181D01*
X144488327Y-83627575D01*
X144535262Y-83608835D01*
X144576781Y-83582153D01*
X144611877Y-83548383D01*
X144639542Y-83508382D01*
X144647668Y-83492229D01*
X144659625Y-83464118D01*
X144668138Y-83438607D01*
X144673735Y-83412886D01*
X144676942Y-83384144D01*
X144678287Y-83349571D01*
X144678426Y-83328340D01*
X144678138Y-83297268D01*
X144677130Y-83273627D01*
X144675108Y-83254696D01*
X144671774Y-83237755D01*
X144666832Y-83220083D01*
X144666534Y-83219120D01*
X144646306Y-83167386D01*
X144620180Y-83123824D01*
X144587868Y-83088137D01*
X144549085Y-83060027D01*
X144503543Y-83039197D01*
X144488327Y-83034266D01*
X144464952Y-83029619D01*
X144435141Y-83026952D01*
X144402426Y-83026283D01*
X144370340Y-83027630D01*
X144342416Y-83031012D01*
X144331165Y-83033460D01*
X144283275Y-83051060D01*
X144241606Y-83076666D01*
X144206242Y-83110191D01*
X144177265Y-83151544D01*
X144154758Y-83200638D01*
X144144238Y-83234360D01*
X144139320Y-83261138D01*
X144136386Y-83294615D01*
X144135436Y-83331524D01*
X143963840Y-83331524D01*
X143963813Y-83330880D01*
X143967821Y-83260083D01*
X143979991Y-83195084D01*
X144000545Y-83135347D01*
X144029701Y-83080333D01*
X144067680Y-83029505D01*
X144101852Y-82994029D01*
X144127094Y-82971777D01*
X144151397Y-82954130D01*
X144179099Y-82938102D01*
X144194523Y-82930283D01*
X144226106Y-82915390D01*
X144253395Y-82904335D01*
X144279114Y-82896481D01*
X144305990Y-82891191D01*
X144336748Y-82887828D01*
X144374113Y-82885754D01*
X144387006Y-82885288D01*
X144422632Y-82884437D01*
X144450764Y-82884637D01*
G36*
X142698164Y-82884637D02*
X142721425Y-82886015D01*
X142742437Y-82888700D01*
X142756326Y-82891246D01*
X142820083Y-82908968D01*
X142879223Y-82935278D01*
X142932905Y-82969725D01*
X142979220Y-83010751D01*
X143018821Y-83058809D01*
X143050650Y-83112213D01*
X143074711Y-83169800D01*
X143091008Y-83230407D01*
X143099545Y-83292870D01*
X143100328Y-83356026D01*
X143093361Y-83418711D01*
X143078649Y-83479762D01*
X143056195Y-83538015D01*
X143026006Y-83592306D01*
X142988085Y-83641473D01*
X142976680Y-83653557D01*
X142927544Y-83696410D01*
X142873282Y-83730508D01*
X142814138Y-83755721D01*
X142756858Y-83770723D01*
X142731882Y-83774100D01*
X142700417Y-83776282D01*
X142665334Y-83777276D01*
X142629500Y-83777085D01*
X142595785Y-83775715D01*
X142567056Y-83773170D01*
X142549960Y-83770374D01*
X142486016Y-83751732D01*
X142428399Y-83725356D01*
X142376490Y-83690929D01*
X142348532Y-83666939D01*
X142304014Y-83619072D01*
X142268419Y-83567156D01*
X142241561Y-83510732D01*
X142223251Y-83449342D01*
X142213303Y-83382527D01*
X142211240Y-83331524D01*
X142382836Y-83331524D01*
X142383873Y-83368599D01*
X142386899Y-83402573D01*
X142391527Y-83428635D01*
X142408723Y-83479827D01*
X142433404Y-83524980D01*
X142464981Y-83563460D01*
X142502867Y-83594633D01*
X142546472Y-83617863D01*
X142576331Y-83628056D01*
X142598872Y-83632185D01*
X142627754Y-83634551D01*
X142659582Y-83635166D01*
X142690959Y-83634039D01*
X142718487Y-83631181D01*
X142735727Y-83627575D01*
X142782662Y-83608835D01*
X142824181Y-83582153D01*
X142859277Y-83548383D01*
X142886942Y-83508382D01*
X142895068Y-83492229D01*
X142907025Y-83464118D01*
X142915538Y-83438607D01*
X142921135Y-83412886D01*
X142924342Y-83384144D01*
X142925687Y-83349571D01*
X142925826Y-83328340D01*
X142925538Y-83297268D01*
X142924530Y-83273627D01*
X142922508Y-83254696D01*
X142919174Y-83237755D01*
X142914232Y-83220083D01*
X142913934Y-83219120D01*
X142893706Y-83167386D01*
X142867580Y-83123824D01*
X142835268Y-83088137D01*
X142796485Y-83060027D01*
X142750943Y-83039197D01*
X142735727Y-83034266D01*
X142712352Y-83029619D01*
X142682541Y-83026952D01*
X142649826Y-83026283D01*
X142617740Y-83027630D01*
X142589816Y-83031012D01*
X142578565Y-83033460D01*
X142530675Y-83051060D01*
X142489006Y-83076666D01*
X142453642Y-83110191D01*
X142424665Y-83151544D01*
X142402158Y-83200638D01*
X142391638Y-83234360D01*
X142386720Y-83261138D01*
X142383786Y-83294615D01*
X142382836Y-83331524D01*
X142211240Y-83331524D01*
X142211213Y-83330880D01*
X142215221Y-83260083D01*
X142227391Y-83195084D01*
X142247945Y-83135347D01*
X142277101Y-83080333D01*
X142315080Y-83029505D01*
X142349252Y-82994029D01*
X142374494Y-82971777D01*
X142398797Y-82954130D01*
X142426499Y-82938102D01*
X142441923Y-82930283D01*
X142473506Y-82915390D01*
X142500795Y-82904335D01*
X142526514Y-82896481D01*
X142553390Y-82891191D01*
X142584148Y-82887828D01*
X142621513Y-82885754D01*
X142634406Y-82885288D01*
X142670032Y-82884437D01*
X142698164Y-82884637D01*
X142698164Y-82884637D01*
G37*
X142698164Y-82884637D02*
X142721425Y-82886015D01*
X142742437Y-82888700D01*
X142756326Y-82891246D01*
X142820083Y-82908968D01*
X142879223Y-82935278D01*
X142932905Y-82969725D01*
X142979220Y-83010751D01*
X143018821Y-83058809D01*
X143050650Y-83112213D01*
X143074711Y-83169800D01*
X143091008Y-83230407D01*
X143099545Y-83292870D01*
X143100328Y-83356026D01*
X143093361Y-83418711D01*
X143078649Y-83479762D01*
X143056195Y-83538015D01*
X143026006Y-83592306D01*
X142988085Y-83641473D01*
X142976680Y-83653557D01*
X142927544Y-83696410D01*
X142873282Y-83730508D01*
X142814138Y-83755721D01*
X142756858Y-83770723D01*
X142731882Y-83774100D01*
X142700417Y-83776282D01*
X142665334Y-83777276D01*
X142629500Y-83777085D01*
X142595785Y-83775715D01*
X142567056Y-83773170D01*
X142549960Y-83770374D01*
X142486016Y-83751732D01*
X142428399Y-83725356D01*
X142376490Y-83690929D01*
X142348532Y-83666939D01*
X142304014Y-83619072D01*
X142268419Y-83567156D01*
X142241561Y-83510732D01*
X142223251Y-83449342D01*
X142213303Y-83382527D01*
X142211240Y-83331524D01*
X142382836Y-83331524D01*
X142383873Y-83368599D01*
X142386899Y-83402573D01*
X142391527Y-83428635D01*
X142408723Y-83479827D01*
X142433404Y-83524980D01*
X142464981Y-83563460D01*
X142502867Y-83594633D01*
X142546472Y-83617863D01*
X142576331Y-83628056D01*
X142598872Y-83632185D01*
X142627754Y-83634551D01*
X142659582Y-83635166D01*
X142690959Y-83634039D01*
X142718487Y-83631181D01*
X142735727Y-83627575D01*
X142782662Y-83608835D01*
X142824181Y-83582153D01*
X142859277Y-83548383D01*
X142886942Y-83508382D01*
X142895068Y-83492229D01*
X142907025Y-83464118D01*
X142915538Y-83438607D01*
X142921135Y-83412886D01*
X142924342Y-83384144D01*
X142925687Y-83349571D01*
X142925826Y-83328340D01*
X142925538Y-83297268D01*
X142924530Y-83273627D01*
X142922508Y-83254696D01*
X142919174Y-83237755D01*
X142914232Y-83220083D01*
X142913934Y-83219120D01*
X142893706Y-83167386D01*
X142867580Y-83123824D01*
X142835268Y-83088137D01*
X142796485Y-83060027D01*
X142750943Y-83039197D01*
X142735727Y-83034266D01*
X142712352Y-83029619D01*
X142682541Y-83026952D01*
X142649826Y-83026283D01*
X142617740Y-83027630D01*
X142589816Y-83031012D01*
X142578565Y-83033460D01*
X142530675Y-83051060D01*
X142489006Y-83076666D01*
X142453642Y-83110191D01*
X142424665Y-83151544D01*
X142402158Y-83200638D01*
X142391638Y-83234360D01*
X142386720Y-83261138D01*
X142383786Y-83294615D01*
X142382836Y-83331524D01*
X142211240Y-83331524D01*
X142211213Y-83330880D01*
X142215221Y-83260083D01*
X142227391Y-83195084D01*
X142247945Y-83135347D01*
X142277101Y-83080333D01*
X142315080Y-83029505D01*
X142349252Y-82994029D01*
X142374494Y-82971777D01*
X142398797Y-82954130D01*
X142426499Y-82938102D01*
X142441923Y-82930283D01*
X142473506Y-82915390D01*
X142500795Y-82904335D01*
X142526514Y-82896481D01*
X142553390Y-82891191D01*
X142584148Y-82887828D01*
X142621513Y-82885754D01*
X142634406Y-82885288D01*
X142670032Y-82884437D01*
X142698164Y-82884637D01*
D12*
X113002700Y-90297200D02*
X113002700Y-88027200D01*
X113002700Y-88027200D02*
X111482700Y-88027200D01*
X111482700Y-88027200D02*
X111482700Y-90297200D01*
X238412700Y-93537200D02*
X239235170Y-93537200D01*
X241120230Y-93537200D02*
X241942700Y-93537200D01*
X239850230Y-93537200D02*
X240505170Y-93537200D01*
X238412700Y-84712200D02*
X238412700Y-93537200D01*
X241942700Y-83257200D02*
X241942700Y-93537200D01*
X238412700Y-84712200D02*
X238979229Y-84712200D01*
X240106171Y-84712200D02*
X240249229Y-84712200D01*
X240302700Y-84658729D02*
X240302700Y-84515671D01*
X240302700Y-83388729D02*
X240302700Y-83257200D01*
X240302700Y-83257200D02*
X240505170Y-83257200D01*
X241120230Y-83257200D02*
X241942700Y-83257200D01*
X238412700Y-83952200D02*
X238412700Y-83192200D01*
X238412700Y-83192200D02*
X239542700Y-83192200D01*
D10*
X110397461Y-86730533D02*
X110445080Y-86587676D01*
X110445080Y-86349580D01*
X110397461Y-86254342D01*
X110349842Y-86206723D01*
X110254604Y-86159104D01*
X110159366Y-86159104D01*
X110064128Y-86206723D01*
X110016509Y-86254342D01*
X109968890Y-86349580D01*
X109921271Y-86540057D01*
X109873652Y-86635295D01*
X109826033Y-86682914D01*
X109730795Y-86730533D01*
X109635557Y-86730533D01*
X109540319Y-86682914D01*
X109492700Y-86635295D01*
X109445080Y-86540057D01*
X109445080Y-86301961D01*
X109492700Y-86159104D01*
X109445080Y-85825771D02*
X110445080Y-85587676D01*
X109730795Y-85397200D01*
X110445080Y-85206723D01*
X109445080Y-84968628D01*
X109540319Y-84635295D02*
X109492700Y-84587676D01*
X109445080Y-84492438D01*
X109445080Y-84254342D01*
X109492700Y-84159104D01*
X109540319Y-84111485D01*
X109635557Y-84063866D01*
X109730795Y-84063866D01*
X109873652Y-84111485D01*
X110445080Y-84682914D01*
X110445080Y-84063866D01*
X176045676Y-87649580D02*
X176045676Y-88363866D01*
X175998057Y-88506723D01*
X175902819Y-88601961D01*
X175759961Y-88649580D01*
X175664723Y-88649580D01*
X177045676Y-88649580D02*
X176474247Y-88649580D01*
X176759961Y-88649580D02*
X176759961Y-87649580D01*
X176664723Y-87792438D01*
X176569485Y-87887676D01*
X176474247Y-87935295D01*
X177521866Y-88649580D02*
X177712342Y-88649580D01*
X177807580Y-88601961D01*
X177855200Y-88554342D01*
X177950438Y-88411485D01*
X177998057Y-88221009D01*
X177998057Y-87840057D01*
X177950438Y-87744819D01*
X177902819Y-87697200D01*
X177807580Y-87649580D01*
X177617104Y-87649580D01*
X177521866Y-87697200D01*
X177474247Y-87744819D01*
X177426628Y-87840057D01*
X177426628Y-88078152D01*
X177474247Y-88173390D01*
X177521866Y-88221009D01*
X177617104Y-88268628D01*
X177807580Y-88268628D01*
X177902819Y-88221009D01*
X177950438Y-88173390D01*
X177998057Y-88078152D01*
X192165080Y-89560533D02*
X192879366Y-89560533D01*
X193022223Y-89608152D01*
X193117461Y-89703390D01*
X193165080Y-89846247D01*
X193165080Y-89941485D01*
X192165080Y-89179580D02*
X192165080Y-88560533D01*
X192546033Y-88893866D01*
X192546033Y-88751009D01*
X192593652Y-88655771D01*
X192641271Y-88608152D01*
X192736509Y-88560533D01*
X192974604Y-88560533D01*
X193069842Y-88608152D01*
X193117461Y-88655771D01*
X193165080Y-88751009D01*
X193165080Y-89036723D01*
X193117461Y-89131961D01*
X193069842Y-89179580D01*
X135033176Y-87549580D02*
X135033176Y-88263866D01*
X134985557Y-88406723D01*
X134890319Y-88501961D01*
X134747461Y-88549580D01*
X134652223Y-88549580D01*
X136033176Y-88549580D02*
X135461747Y-88549580D01*
X135747461Y-88549580D02*
X135747461Y-87549580D01*
X135652223Y-87692438D01*
X135556985Y-87787676D01*
X135461747Y-87835295D01*
X136604604Y-87978152D02*
X136509366Y-87930533D01*
X136461747Y-87882914D01*
X136414128Y-87787676D01*
X136414128Y-87740057D01*
X136461747Y-87644819D01*
X136509366Y-87597200D01*
X136604604Y-87549580D01*
X136795080Y-87549580D01*
X136890319Y-87597200D01*
X136937938Y-87644819D01*
X136985557Y-87740057D01*
X136985557Y-87787676D01*
X136937938Y-87882914D01*
X136890319Y-87930533D01*
X136795080Y-87978152D01*
X136604604Y-87978152D01*
X136509366Y-88025771D01*
X136461747Y-88073390D01*
X136414128Y-88168628D01*
X136414128Y-88359104D01*
X136461747Y-88454342D01*
X136509366Y-88501961D01*
X136604604Y-88549580D01*
X136795080Y-88549580D01*
X136890319Y-88501961D01*
X136937938Y-88454342D01*
X136985557Y-88359104D01*
X136985557Y-88168628D01*
X136937938Y-88073390D01*
X136890319Y-88025771D01*
X136795080Y-87978152D01*
X119480795Y-83599580D02*
X119480795Y-84409104D01*
X119528414Y-84504342D01*
X119576033Y-84551961D01*
X119671271Y-84599580D01*
X119861747Y-84599580D01*
X119956985Y-84551961D01*
X120004604Y-84504342D01*
X120052223Y-84409104D01*
X120052223Y-83599580D01*
X120956985Y-83932914D02*
X120956985Y-84599580D01*
X120718890Y-83551961D02*
X120480795Y-84266247D01*
X121099842Y-84266247D01*
X98466509Y-83873390D02*
X98466509Y-84349580D01*
X98133176Y-83349580D02*
X98466509Y-83873390D01*
X98799842Y-83349580D01*
X99656985Y-84349580D02*
X99085557Y-84349580D01*
X99371271Y-84349580D02*
X99371271Y-83349580D01*
X99276033Y-83492438D01*
X99180795Y-83587676D01*
X99085557Y-83635295D01*
X59857366Y-87849580D02*
X59857366Y-88563866D01*
X59809747Y-88706723D01*
X59714509Y-88801961D01*
X59571652Y-88849580D01*
X59476414Y-88849580D01*
X60762128Y-87849580D02*
X60571652Y-87849580D01*
X60476414Y-87897200D01*
X60428795Y-87944819D01*
X60333557Y-88087676D01*
X60285938Y-88278152D01*
X60285938Y-88659104D01*
X60333557Y-88754342D01*
X60381176Y-88801961D01*
X60476414Y-88849580D01*
X60666890Y-88849580D01*
X60762128Y-88801961D01*
X60809747Y-88754342D01*
X60857366Y-88659104D01*
X60857366Y-88421009D01*
X60809747Y-88325771D01*
X60762128Y-88278152D01*
X60666890Y-88230533D01*
X60476414Y-88230533D01*
X60381176Y-88278152D01*
X60333557Y-88325771D01*
X60285938Y-88421009D01*
X74249842Y-92013866D02*
X74297461Y-92061485D01*
X74345080Y-92204342D01*
X74345080Y-92299580D01*
X74297461Y-92442438D01*
X74202223Y-92537676D01*
X74106985Y-92585295D01*
X73916509Y-92632914D01*
X73773652Y-92632914D01*
X73583176Y-92585295D01*
X73487938Y-92537676D01*
X73392700Y-92442438D01*
X73345080Y-92299580D01*
X73345080Y-92204342D01*
X73392700Y-92061485D01*
X73440319Y-92013866D01*
X74345080Y-91061485D02*
X74345080Y-91632914D01*
X74345080Y-91347200D02*
X73345080Y-91347200D01*
X73487938Y-91442438D01*
X73583176Y-91537676D01*
X73630795Y-91632914D01*
X114299842Y-87863866D02*
X114347461Y-87911485D01*
X114395080Y-88054342D01*
X114395080Y-88149580D01*
X114347461Y-88292438D01*
X114252223Y-88387676D01*
X114156985Y-88435295D01*
X113966509Y-88482914D01*
X113823652Y-88482914D01*
X113633176Y-88435295D01*
X113537938Y-88387676D01*
X113442700Y-88292438D01*
X113395080Y-88149580D01*
X113395080Y-88054342D01*
X113442700Y-87911485D01*
X113490319Y-87863866D01*
X113395080Y-87530533D02*
X113395080Y-86911485D01*
X113776033Y-87244819D01*
X113776033Y-87101961D01*
X113823652Y-87006723D01*
X113871271Y-86959104D01*
X113966509Y-86911485D01*
X114204604Y-86911485D01*
X114299842Y-86959104D01*
X114347461Y-87006723D01*
X114395080Y-87101961D01*
X114395080Y-87387676D01*
X114347461Y-87482914D01*
X114299842Y-87530533D01*
X110226033Y-91154342D02*
X110178414Y-91201961D01*
X110035557Y-91249580D01*
X109940319Y-91249580D01*
X109797461Y-91201961D01*
X109702223Y-91106723D01*
X109654604Y-91011485D01*
X109606985Y-90821009D01*
X109606985Y-90678152D01*
X109654604Y-90487676D01*
X109702223Y-90392438D01*
X109797461Y-90297200D01*
X109940319Y-90249580D01*
X110035557Y-90249580D01*
X110178414Y-90297200D01*
X110226033Y-90344819D01*
X111083176Y-90582914D02*
X111083176Y-91249580D01*
X110845080Y-90201961D02*
X110606985Y-90916247D01*
X111226033Y-90916247D01*
X97899842Y-84663866D02*
X97947461Y-84711485D01*
X97995080Y-84854342D01*
X97995080Y-84949580D01*
X97947461Y-85092438D01*
X97852223Y-85187676D01*
X97756985Y-85235295D01*
X97566509Y-85282914D01*
X97423652Y-85282914D01*
X97233176Y-85235295D01*
X97137938Y-85187676D01*
X97042700Y-85092438D01*
X96995080Y-84949580D01*
X96995080Y-84854342D01*
X97042700Y-84711485D01*
X97090319Y-84663866D01*
X96995080Y-83759104D02*
X96995080Y-84235295D01*
X97471271Y-84282914D01*
X97423652Y-84235295D01*
X97376033Y-84140057D01*
X97376033Y-83901961D01*
X97423652Y-83806723D01*
X97471271Y-83759104D01*
X97566509Y-83711485D01*
X97804604Y-83711485D01*
X97899842Y-83759104D01*
X97947461Y-83806723D01*
X97995080Y-83901961D01*
X97995080Y-84140057D01*
X97947461Y-84235295D01*
X97899842Y-84282914D01*
X203699842Y-85763866D02*
X203747461Y-85811485D01*
X203795080Y-85954342D01*
X203795080Y-86049580D01*
X203747461Y-86192438D01*
X203652223Y-86287676D01*
X203556985Y-86335295D01*
X203366509Y-86382914D01*
X203223652Y-86382914D01*
X203033176Y-86335295D01*
X202937938Y-86287676D01*
X202842700Y-86192438D01*
X202795080Y-86049580D01*
X202795080Y-85954342D01*
X202842700Y-85811485D01*
X202890319Y-85763866D01*
X202795080Y-84906723D02*
X202795080Y-85097200D01*
X202842700Y-85192438D01*
X202890319Y-85240057D01*
X203033176Y-85335295D01*
X203223652Y-85382914D01*
X203604604Y-85382914D01*
X203699842Y-85335295D01*
X203747461Y-85287676D01*
X203795080Y-85192438D01*
X203795080Y-85001961D01*
X203747461Y-84906723D01*
X203699842Y-84859104D01*
X203604604Y-84811485D01*
X203366509Y-84811485D01*
X203271271Y-84859104D01*
X203223652Y-84906723D01*
X203176033Y-85001961D01*
X203176033Y-85192438D01*
X203223652Y-85287676D01*
X203271271Y-85335295D01*
X203366509Y-85382914D01*
X211799842Y-85363866D02*
X211847461Y-85411485D01*
X211895080Y-85554342D01*
X211895080Y-85649580D01*
X211847461Y-85792438D01*
X211752223Y-85887676D01*
X211656985Y-85935295D01*
X211466509Y-85982914D01*
X211323652Y-85982914D01*
X211133176Y-85935295D01*
X211037938Y-85887676D01*
X210942700Y-85792438D01*
X210895080Y-85649580D01*
X210895080Y-85554342D01*
X210942700Y-85411485D01*
X210990319Y-85363866D01*
X210895080Y-85030533D02*
X210895080Y-84363866D01*
X211895080Y-84792438D01*
X126649842Y-88413866D02*
X126697461Y-88461485D01*
X126745080Y-88604342D01*
X126745080Y-88699580D01*
X126697461Y-88842438D01*
X126602223Y-88937676D01*
X126506985Y-88985295D01*
X126316509Y-89032914D01*
X126173652Y-89032914D01*
X125983176Y-88985295D01*
X125887938Y-88937676D01*
X125792700Y-88842438D01*
X125745080Y-88699580D01*
X125745080Y-88604342D01*
X125792700Y-88461485D01*
X125840319Y-88413866D01*
X126173652Y-87842438D02*
X126126033Y-87937676D01*
X126078414Y-87985295D01*
X125983176Y-88032914D01*
X125935557Y-88032914D01*
X125840319Y-87985295D01*
X125792700Y-87937676D01*
X125745080Y-87842438D01*
X125745080Y-87651961D01*
X125792700Y-87556723D01*
X125840319Y-87509104D01*
X125935557Y-87461485D01*
X125983176Y-87461485D01*
X126078414Y-87509104D01*
X126126033Y-87556723D01*
X126173652Y-87651961D01*
X126173652Y-87842438D01*
X126221271Y-87937676D01*
X126268890Y-87985295D01*
X126364128Y-88032914D01*
X126554604Y-88032914D01*
X126649842Y-87985295D01*
X126697461Y-87937676D01*
X126745080Y-87842438D01*
X126745080Y-87651961D01*
X126697461Y-87556723D01*
X126649842Y-87509104D01*
X126554604Y-87461485D01*
X126364128Y-87461485D01*
X126268890Y-87509104D01*
X126221271Y-87556723D01*
X126173652Y-87651961D01*
X230826033Y-91304342D02*
X230778414Y-91351961D01*
X230635557Y-91399580D01*
X230540319Y-91399580D01*
X230397461Y-91351961D01*
X230302223Y-91256723D01*
X230254604Y-91161485D01*
X230206985Y-90971009D01*
X230206985Y-90828152D01*
X230254604Y-90637676D01*
X230302223Y-90542438D01*
X230397461Y-90447200D01*
X230540319Y-90399580D01*
X230635557Y-90399580D01*
X230778414Y-90447200D01*
X230826033Y-90494819D01*
X231302223Y-91399580D02*
X231492700Y-91399580D01*
X231587938Y-91351961D01*
X231635557Y-91304342D01*
X231730795Y-91161485D01*
X231778414Y-90971009D01*
X231778414Y-90590057D01*
X231730795Y-90494819D01*
X231683176Y-90447200D01*
X231587938Y-90399580D01*
X231397461Y-90399580D01*
X231302223Y-90447200D01*
X231254604Y-90494819D01*
X231206985Y-90590057D01*
X231206985Y-90828152D01*
X231254604Y-90923390D01*
X231302223Y-90971009D01*
X231397461Y-91018628D01*
X231587938Y-91018628D01*
X231683176Y-90971009D01*
X231730795Y-90923390D01*
X231778414Y-90828152D01*
X230249842Y-86790057D02*
X230297461Y-86837676D01*
X230345080Y-86980533D01*
X230345080Y-87075771D01*
X230297461Y-87218628D01*
X230202223Y-87313866D01*
X230106985Y-87361485D01*
X229916509Y-87409104D01*
X229773652Y-87409104D01*
X229583176Y-87361485D01*
X229487938Y-87313866D01*
X229392700Y-87218628D01*
X229345080Y-87075771D01*
X229345080Y-86980533D01*
X229392700Y-86837676D01*
X229440319Y-86790057D01*
X230345080Y-85837676D02*
X230345080Y-86409104D01*
X230345080Y-86123390D02*
X229345080Y-86123390D01*
X229487938Y-86218628D01*
X229583176Y-86313866D01*
X229630795Y-86409104D01*
X229345080Y-85218628D02*
X229345080Y-85123390D01*
X229392700Y-85028152D01*
X229440319Y-84980533D01*
X229535557Y-84932914D01*
X229726033Y-84885295D01*
X229964128Y-84885295D01*
X230154604Y-84932914D01*
X230249842Y-84980533D01*
X230297461Y-85028152D01*
X230345080Y-85123390D01*
X230345080Y-85218628D01*
X230297461Y-85313866D01*
X230249842Y-85361485D01*
X230154604Y-85409104D01*
X229964128Y-85456723D01*
X229726033Y-85456723D01*
X229535557Y-85409104D01*
X229440319Y-85361485D01*
X229392700Y-85313866D01*
X229345080Y-85218628D01*
X129149842Y-88704342D02*
X129102223Y-88751961D01*
X128959366Y-88799580D01*
X128864128Y-88799580D01*
X128721271Y-88751961D01*
X128626033Y-88656723D01*
X128578414Y-88561485D01*
X128530795Y-88371009D01*
X128530795Y-88228152D01*
X128578414Y-88037676D01*
X128626033Y-87942438D01*
X128721271Y-87847200D01*
X128864128Y-87799580D01*
X128959366Y-87799580D01*
X129102223Y-87847200D01*
X129149842Y-87894819D01*
X130102223Y-88799580D02*
X129530795Y-88799580D01*
X129816509Y-88799580D02*
X129816509Y-87799580D01*
X129721271Y-87942438D01*
X129626033Y-88037676D01*
X129530795Y-88085295D01*
X131054604Y-88799580D02*
X130483176Y-88799580D01*
X130768890Y-88799580D02*
X130768890Y-87799580D01*
X130673652Y-87942438D01*
X130578414Y-88037676D01*
X130483176Y-88085295D01*
X88249842Y-90740057D02*
X88297461Y-90787676D01*
X88345080Y-90930533D01*
X88345080Y-91025771D01*
X88297461Y-91168628D01*
X88202223Y-91263866D01*
X88106985Y-91311485D01*
X87916509Y-91359104D01*
X87773652Y-91359104D01*
X87583176Y-91311485D01*
X87487938Y-91263866D01*
X87392700Y-91168628D01*
X87345080Y-91025771D01*
X87345080Y-90930533D01*
X87392700Y-90787676D01*
X87440319Y-90740057D01*
X88345080Y-89787676D02*
X88345080Y-90359104D01*
X88345080Y-90073390D02*
X87345080Y-90073390D01*
X87487938Y-90168628D01*
X87583176Y-90263866D01*
X87630795Y-90359104D01*
X87440319Y-89406723D02*
X87392700Y-89359104D01*
X87345080Y-89263866D01*
X87345080Y-89025771D01*
X87392700Y-88930533D01*
X87440319Y-88882914D01*
X87535557Y-88835295D01*
X87630795Y-88835295D01*
X87773652Y-88882914D01*
X88345080Y-89454342D01*
X88345080Y-88835295D01*
X96499842Y-85340057D02*
X96547461Y-85387676D01*
X96595080Y-85530533D01*
X96595080Y-85625771D01*
X96547461Y-85768628D01*
X96452223Y-85863866D01*
X96356985Y-85911485D01*
X96166509Y-85959104D01*
X96023652Y-85959104D01*
X95833176Y-85911485D01*
X95737938Y-85863866D01*
X95642700Y-85768628D01*
X95595080Y-85625771D01*
X95595080Y-85530533D01*
X95642700Y-85387676D01*
X95690319Y-85340057D01*
X96595080Y-84387676D02*
X96595080Y-84959104D01*
X96595080Y-84673390D02*
X95595080Y-84673390D01*
X95737938Y-84768628D01*
X95833176Y-84863866D01*
X95880795Y-84959104D01*
X95595080Y-84054342D02*
X95595080Y-83435295D01*
X95976033Y-83768628D01*
X95976033Y-83625771D01*
X96023652Y-83530533D01*
X96071271Y-83482914D01*
X96166509Y-83435295D01*
X96404604Y-83435295D01*
X96499842Y-83482914D01*
X96547461Y-83530533D01*
X96595080Y-83625771D01*
X96595080Y-83911485D01*
X96547461Y-84006723D01*
X96499842Y-84054342D01*
X149057142Y-91692857D02*
X149104761Y-91740476D01*
X149152380Y-91883333D01*
X149152380Y-91978571D01*
X149104761Y-92121428D01*
X149009523Y-92216666D01*
X148914285Y-92264285D01*
X148723809Y-92311904D01*
X148580952Y-92311904D01*
X148390476Y-92264285D01*
X148295238Y-92216666D01*
X148200000Y-92121428D01*
X148152380Y-91978571D01*
X148152380Y-91883333D01*
X148200000Y-91740476D01*
X148247619Y-91692857D01*
X149152380Y-90740476D02*
X149152380Y-91311904D01*
X149152380Y-91026190D02*
X148152380Y-91026190D01*
X148295238Y-91121428D01*
X148390476Y-91216666D01*
X148438095Y-91311904D01*
X148485714Y-89883333D02*
X149152380Y-89883333D01*
X148104761Y-90121428D02*
X148819047Y-90359523D01*
X148819047Y-89740476D01*
X184307142Y-85104342D02*
X184259523Y-85151961D01*
X184116666Y-85199580D01*
X184021428Y-85199580D01*
X183878571Y-85151961D01*
X183783333Y-85056723D01*
X183735714Y-84961485D01*
X183688095Y-84771009D01*
X183688095Y-84628152D01*
X183735714Y-84437676D01*
X183783333Y-84342438D01*
X183878571Y-84247200D01*
X184021428Y-84199580D01*
X184116666Y-84199580D01*
X184259523Y-84247200D01*
X184307142Y-84294819D01*
X185259523Y-85199580D02*
X184688095Y-85199580D01*
X184973809Y-85199580D02*
X184973809Y-84199580D01*
X184878571Y-84342438D01*
X184783333Y-84437676D01*
X184688095Y-84485295D01*
X186164285Y-84199580D02*
X185688095Y-84199580D01*
X185640476Y-84675771D01*
X185688095Y-84628152D01*
X185783333Y-84580533D01*
X186021428Y-84580533D01*
X186116666Y-84628152D01*
X186164285Y-84675771D01*
X186211904Y-84771009D01*
X186211904Y-85009104D01*
X186164285Y-85104342D01*
X186116666Y-85151961D01*
X186021428Y-85199580D01*
X185783333Y-85199580D01*
X185688095Y-85151961D01*
X185640476Y-85104342D01*
X227949842Y-92654342D02*
X227902223Y-92701961D01*
X227759366Y-92749580D01*
X227664128Y-92749580D01*
X227521271Y-92701961D01*
X227426033Y-92606723D01*
X227378414Y-92511485D01*
X227330795Y-92321009D01*
X227330795Y-92178152D01*
X227378414Y-91987676D01*
X227426033Y-91892438D01*
X227521271Y-91797200D01*
X227664128Y-91749580D01*
X227759366Y-91749580D01*
X227902223Y-91797200D01*
X227949842Y-91844819D01*
X228902223Y-92749580D02*
X228330795Y-92749580D01*
X228616509Y-92749580D02*
X228616509Y-91749580D01*
X228521271Y-91892438D01*
X228426033Y-91987676D01*
X228330795Y-92035295D01*
X229759366Y-91749580D02*
X229568890Y-91749580D01*
X229473652Y-91797200D01*
X229426033Y-91844819D01*
X229330795Y-91987676D01*
X229283176Y-92178152D01*
X229283176Y-92559104D01*
X229330795Y-92654342D01*
X229378414Y-92701961D01*
X229473652Y-92749580D01*
X229664128Y-92749580D01*
X229759366Y-92701961D01*
X229806985Y-92654342D01*
X229854604Y-92559104D01*
X229854604Y-92321009D01*
X229806985Y-92225771D01*
X229759366Y-92178152D01*
X229664128Y-92130533D01*
X229473652Y-92130533D01*
X229378414Y-92178152D01*
X229330795Y-92225771D01*
X229283176Y-92321009D01*
X89797461Y-91359104D02*
X89845080Y-91216247D01*
X89845080Y-90978152D01*
X89797461Y-90882914D01*
X89749842Y-90835295D01*
X89654604Y-90787676D01*
X89559366Y-90787676D01*
X89464128Y-90835295D01*
X89416509Y-90882914D01*
X89368890Y-90978152D01*
X89321271Y-91168628D01*
X89273652Y-91263866D01*
X89226033Y-91311485D01*
X89130795Y-91359104D01*
X89035557Y-91359104D01*
X88940319Y-91311485D01*
X88892700Y-91263866D01*
X88845080Y-91168628D01*
X88845080Y-90930533D01*
X88892700Y-90787676D01*
X89845080Y-89835295D02*
X89845080Y-90406723D01*
X89845080Y-90121009D02*
X88845080Y-90121009D01*
X88987938Y-90216247D01*
X89083176Y-90311485D01*
X89130795Y-90406723D01*
X95980795Y-83101961D02*
X96123652Y-83149580D01*
X96361747Y-83149580D01*
X96456985Y-83101961D01*
X96504604Y-83054342D01*
X96552223Y-82959104D01*
X96552223Y-82863866D01*
X96504604Y-82768628D01*
X96456985Y-82721009D01*
X96361747Y-82673390D01*
X96171271Y-82625771D01*
X96076033Y-82578152D01*
X96028414Y-82530533D01*
X95980795Y-82435295D01*
X95980795Y-82340057D01*
X96028414Y-82244819D01*
X96076033Y-82197200D01*
X96171271Y-82149580D01*
X96409366Y-82149580D01*
X96552223Y-82197200D01*
X96933176Y-82244819D02*
X96980795Y-82197200D01*
X97076033Y-82149580D01*
X97314128Y-82149580D01*
X97409366Y-82197200D01*
X97456985Y-82244819D01*
X97504604Y-82340057D01*
X97504604Y-82435295D01*
X97456985Y-82578152D01*
X96885557Y-83149580D01*
X97504604Y-83149580D01*
X147380795Y-94501961D02*
X147523652Y-94549580D01*
X147761747Y-94549580D01*
X147856985Y-94501961D01*
X147904604Y-94454342D01*
X147952223Y-94359104D01*
X147952223Y-94263866D01*
X147904604Y-94168628D01*
X147856985Y-94121009D01*
X147761747Y-94073390D01*
X147571271Y-94025771D01*
X147476033Y-93978152D01*
X147428414Y-93930533D01*
X147380795Y-93835295D01*
X147380795Y-93740057D01*
X147428414Y-93644819D01*
X147476033Y-93597200D01*
X147571271Y-93549580D01*
X147809366Y-93549580D01*
X147952223Y-93597200D01*
X148285557Y-93549580D02*
X148904604Y-93549580D01*
X148571271Y-93930533D01*
X148714128Y-93930533D01*
X148809366Y-93978152D01*
X148856985Y-94025771D01*
X148904604Y-94121009D01*
X148904604Y-94359104D01*
X148856985Y-94454342D01*
X148809366Y-94501961D01*
X148714128Y-94549580D01*
X148428414Y-94549580D01*
X148333176Y-94501961D01*
X148285557Y-94454342D01*
X188188095Y-87356761D02*
X188330952Y-87404380D01*
X188569047Y-87404380D01*
X188664285Y-87356761D01*
X188711904Y-87309142D01*
X188759523Y-87213904D01*
X188759523Y-87118666D01*
X188711904Y-87023428D01*
X188664285Y-86975809D01*
X188569047Y-86928190D01*
X188378571Y-86880571D01*
X188283333Y-86832952D01*
X188235714Y-86785333D01*
X188188095Y-86690095D01*
X188188095Y-86594857D01*
X188235714Y-86499619D01*
X188283333Y-86452000D01*
X188378571Y-86404380D01*
X188616666Y-86404380D01*
X188759523Y-86452000D01*
X189616666Y-86737714D02*
X189616666Y-87404380D01*
X189378571Y-86356761D02*
X189140476Y-87071047D01*
X189759523Y-87071047D01*
X229030795Y-95351961D02*
X229173652Y-95399580D01*
X229411747Y-95399580D01*
X229506985Y-95351961D01*
X229554604Y-95304342D01*
X229602223Y-95209104D01*
X229602223Y-95113866D01*
X229554604Y-95018628D01*
X229506985Y-94971009D01*
X229411747Y-94923390D01*
X229221271Y-94875771D01*
X229126033Y-94828152D01*
X229078414Y-94780533D01*
X229030795Y-94685295D01*
X229030795Y-94590057D01*
X229078414Y-94494819D01*
X229126033Y-94447200D01*
X229221271Y-94399580D01*
X229459366Y-94399580D01*
X229602223Y-94447200D01*
X230506985Y-94399580D02*
X230030795Y-94399580D01*
X229983176Y-94875771D01*
X230030795Y-94828152D01*
X230126033Y-94780533D01*
X230364128Y-94780533D01*
X230459366Y-94828152D01*
X230506985Y-94875771D01*
X230554604Y-94971009D01*
X230554604Y-95209104D01*
X230506985Y-95304342D01*
X230459366Y-95351961D01*
X230364128Y-95399580D01*
X230126033Y-95399580D01*
X230030795Y-95351961D01*
X229983176Y-95304342D01*
X79083176Y-85799580D02*
X79083176Y-86513866D01*
X79035557Y-86656723D01*
X78940319Y-86751961D01*
X78797461Y-86799580D01*
X78702223Y-86799580D01*
X80083176Y-86799580D02*
X79511747Y-86799580D01*
X79797461Y-86799580D02*
X79797461Y-85799580D01*
X79702223Y-85942438D01*
X79606985Y-86037676D01*
X79511747Y-86085295D01*
X80940319Y-85799580D02*
X80749842Y-85799580D01*
X80654604Y-85847200D01*
X80606985Y-85894819D01*
X80511747Y-86037676D01*
X80464128Y-86228152D01*
X80464128Y-86609104D01*
X80511747Y-86704342D01*
X80559366Y-86751961D01*
X80654604Y-86799580D01*
X80845080Y-86799580D01*
X80940319Y-86751961D01*
X80987938Y-86704342D01*
X81035557Y-86609104D01*
X81035557Y-86371009D01*
X80987938Y-86275771D01*
X80940319Y-86228152D01*
X80845080Y-86180533D01*
X80654604Y-86180533D01*
X80559366Y-86228152D01*
X80511747Y-86275771D01*
X80464128Y-86371009D01*
X94045676Y-87799580D02*
X94045676Y-88513866D01*
X93998057Y-88656723D01*
X93902819Y-88751961D01*
X93759961Y-88799580D01*
X93664723Y-88799580D01*
X95045676Y-88799580D02*
X94474247Y-88799580D01*
X94759961Y-88799580D02*
X94759961Y-87799580D01*
X94664723Y-87942438D01*
X94569485Y-88037676D01*
X94474247Y-88085295D01*
X95379009Y-87799580D02*
X96045676Y-87799580D01*
X95617104Y-88799580D01*
X217083176Y-87649580D02*
X217083176Y-88363866D01*
X217035557Y-88506723D01*
X216940319Y-88601961D01*
X216797461Y-88649580D01*
X216702223Y-88649580D01*
X217511747Y-87744819D02*
X217559366Y-87697200D01*
X217654604Y-87649580D01*
X217892700Y-87649580D01*
X217987938Y-87697200D01*
X218035557Y-87744819D01*
X218083176Y-87840057D01*
X218083176Y-87935295D01*
X218035557Y-88078152D01*
X217464128Y-88649580D01*
X218083176Y-88649580D01*
X218702223Y-87649580D02*
X218797461Y-87649580D01*
X218892700Y-87697200D01*
X218940319Y-87744819D01*
X218987938Y-87840057D01*
X219035557Y-88030533D01*
X219035557Y-88268628D01*
X218987938Y-88459104D01*
X218940319Y-88554342D01*
X218892700Y-88601961D01*
X218797461Y-88649580D01*
X218702223Y-88649580D01*
X218606985Y-88601961D01*
X218559366Y-88554342D01*
X218511747Y-88459104D01*
X218464128Y-88268628D01*
X218464128Y-88030533D01*
X218511747Y-87840057D01*
X218559366Y-87744819D01*
X218606985Y-87697200D01*
X218702223Y-87649580D01*
X107795080Y-86330533D02*
X108509366Y-86330533D01*
X108652223Y-86378152D01*
X108747461Y-86473390D01*
X108795080Y-86616247D01*
X108795080Y-86711485D01*
X108795080Y-85854342D02*
X107795080Y-85854342D01*
X107795080Y-85473390D01*
X107842700Y-85378152D01*
X107890319Y-85330533D01*
X107985557Y-85282914D01*
X108128414Y-85282914D01*
X108223652Y-85330533D01*
X108271271Y-85378152D01*
X108318890Y-85473390D01*
X108318890Y-85854342D01*
X108795080Y-84330533D02*
X108795080Y-84901961D01*
X108795080Y-84616247D02*
X107795080Y-84616247D01*
X107937938Y-84711485D01*
X108033176Y-84806723D01*
X108080795Y-84901961D01*
X110609366Y-81549580D02*
X110609366Y-82263866D01*
X110561747Y-82406723D01*
X110466509Y-82501961D01*
X110323652Y-82549580D01*
X110228414Y-82549580D01*
X111085557Y-82549580D02*
X111085557Y-81549580D01*
X111466509Y-81549580D01*
X111561747Y-81597200D01*
X111609366Y-81644819D01*
X111656985Y-81740057D01*
X111656985Y-81882914D01*
X111609366Y-81978152D01*
X111561747Y-82025771D01*
X111466509Y-82073390D01*
X111085557Y-82073390D01*
X112037938Y-81644819D02*
X112085557Y-81597200D01*
X112180795Y-81549580D01*
X112418890Y-81549580D01*
X112514128Y-81597200D01*
X112561747Y-81644819D01*
X112609366Y-81740057D01*
X112609366Y-81835295D01*
X112561747Y-81978152D01*
X111990319Y-82549580D01*
X112609366Y-82549580D01*
X129576033Y-91599580D02*
X129242700Y-91123390D01*
X129004604Y-91599580D02*
X129004604Y-90599580D01*
X129385557Y-90599580D01*
X129480795Y-90647200D01*
X129528414Y-90694819D01*
X129576033Y-90790057D01*
X129576033Y-90932914D01*
X129528414Y-91028152D01*
X129480795Y-91075771D01*
X129385557Y-91123390D01*
X129004604Y-91123390D01*
X129956985Y-90694819D02*
X130004604Y-90647200D01*
X130099842Y-90599580D01*
X130337938Y-90599580D01*
X130433176Y-90647200D01*
X130480795Y-90694819D01*
X130528414Y-90790057D01*
X130528414Y-90885295D01*
X130480795Y-91028152D01*
X129909366Y-91599580D01*
X130528414Y-91599580D01*
X84845080Y-85263866D02*
X84368890Y-85597200D01*
X84845080Y-85835295D02*
X83845080Y-85835295D01*
X83845080Y-85454342D01*
X83892700Y-85359104D01*
X83940319Y-85311485D01*
X84035557Y-85263866D01*
X84178414Y-85263866D01*
X84273652Y-85311485D01*
X84321271Y-85359104D01*
X84368890Y-85454342D01*
X84368890Y-85835295D01*
X83845080Y-84930533D02*
X83845080Y-84311485D01*
X84226033Y-84644819D01*
X84226033Y-84501961D01*
X84273652Y-84406723D01*
X84321271Y-84359104D01*
X84416509Y-84311485D01*
X84654604Y-84311485D01*
X84749842Y-84359104D01*
X84797461Y-84406723D01*
X84845080Y-84501961D01*
X84845080Y-84787676D01*
X84797461Y-84882914D01*
X84749842Y-84930533D01*
X100795080Y-85663866D02*
X100318890Y-85997200D01*
X100795080Y-86235295D02*
X99795080Y-86235295D01*
X99795080Y-85854342D01*
X99842700Y-85759104D01*
X99890319Y-85711485D01*
X99985557Y-85663866D01*
X100128414Y-85663866D01*
X100223652Y-85711485D01*
X100271271Y-85759104D01*
X100318890Y-85854342D01*
X100318890Y-86235295D01*
X100128414Y-84806723D02*
X100795080Y-84806723D01*
X99747461Y-85044819D02*
X100461747Y-85282914D01*
X100461747Y-84663866D01*
X141695080Y-92763866D02*
X141218890Y-93097200D01*
X141695080Y-93335295D02*
X140695080Y-93335295D01*
X140695080Y-92954342D01*
X140742700Y-92859104D01*
X140790319Y-92811485D01*
X140885557Y-92763866D01*
X141028414Y-92763866D01*
X141123652Y-92811485D01*
X141171271Y-92859104D01*
X141218890Y-92954342D01*
X141218890Y-93335295D01*
X140695080Y-91859104D02*
X140695080Y-92335295D01*
X141171271Y-92382914D01*
X141123652Y-92335295D01*
X141076033Y-92240057D01*
X141076033Y-92001961D01*
X141123652Y-91906723D01*
X141171271Y-91859104D01*
X141266509Y-91811485D01*
X141504604Y-91811485D01*
X141599842Y-91859104D01*
X141647461Y-91906723D01*
X141695080Y-92001961D01*
X141695080Y-92240057D01*
X141647461Y-92335295D01*
X141599842Y-92382914D01*
X182745080Y-85963866D02*
X182268890Y-86297200D01*
X182745080Y-86535295D02*
X181745080Y-86535295D01*
X181745080Y-86154342D01*
X181792700Y-86059104D01*
X181840319Y-86011485D01*
X181935557Y-85963866D01*
X182078414Y-85963866D01*
X182173652Y-86011485D01*
X182221271Y-86059104D01*
X182268890Y-86154342D01*
X182268890Y-86535295D01*
X181745080Y-85106723D02*
X181745080Y-85297200D01*
X181792700Y-85392438D01*
X181840319Y-85440057D01*
X181983176Y-85535295D01*
X182173652Y-85582914D01*
X182554604Y-85582914D01*
X182649842Y-85535295D01*
X182697461Y-85487676D01*
X182745080Y-85392438D01*
X182745080Y-85201961D01*
X182697461Y-85106723D01*
X182649842Y-85059104D01*
X182554604Y-85011485D01*
X182316509Y-85011485D01*
X182221271Y-85059104D01*
X182173652Y-85106723D01*
X182126033Y-85201961D01*
X182126033Y-85392438D01*
X182173652Y-85487676D01*
X182221271Y-85535295D01*
X182316509Y-85582914D01*
X223695080Y-85763866D02*
X223218890Y-86097200D01*
X223695080Y-86335295D02*
X222695080Y-86335295D01*
X222695080Y-85954342D01*
X222742700Y-85859104D01*
X222790319Y-85811485D01*
X222885557Y-85763866D01*
X223028414Y-85763866D01*
X223123652Y-85811485D01*
X223171271Y-85859104D01*
X223218890Y-85954342D01*
X223218890Y-86335295D01*
X222695080Y-85430533D02*
X222695080Y-84763866D01*
X223695080Y-85192438D01*
X156447461Y-91980533D02*
X156495080Y-91837676D01*
X156495080Y-91599580D01*
X156447461Y-91504342D01*
X156399842Y-91456723D01*
X156304604Y-91409104D01*
X156209366Y-91409104D01*
X156114128Y-91456723D01*
X156066509Y-91504342D01*
X156018890Y-91599580D01*
X155971271Y-91790057D01*
X155923652Y-91885295D01*
X155876033Y-91932914D01*
X155780795Y-91980533D01*
X155685557Y-91980533D01*
X155590319Y-91932914D01*
X155542700Y-91885295D01*
X155495080Y-91790057D01*
X155495080Y-91551961D01*
X155542700Y-91409104D01*
X155495080Y-91075771D02*
X156495080Y-90837676D01*
X155780795Y-90647200D01*
X156495080Y-90456723D01*
X155495080Y-90218628D01*
X156495080Y-89313866D02*
X156495080Y-89885295D01*
X156495080Y-89599580D02*
X155495080Y-89599580D01*
X155637938Y-89694819D01*
X155733176Y-89790057D01*
X155780795Y-89885295D01*
X67595080Y-93761904D02*
X68404604Y-93761904D01*
X68499842Y-93714285D01*
X68547461Y-93666666D01*
X68595080Y-93571428D01*
X68595080Y-93380952D01*
X68547461Y-93285714D01*
X68499842Y-93238095D01*
X68404604Y-93190476D01*
X67595080Y-93190476D01*
X68595080Y-92190476D02*
X68595080Y-92761904D01*
X68595080Y-92476190D02*
X67595080Y-92476190D01*
X67737938Y-92571428D01*
X67833176Y-92666666D01*
X67880795Y-92761904D01*
X232288095Y-93499580D02*
X232288095Y-94309104D01*
X232335714Y-94404342D01*
X232383333Y-94451961D01*
X232478571Y-94499580D01*
X232669047Y-94499580D01*
X232764285Y-94451961D01*
X232811904Y-94404342D01*
X232859523Y-94309104D01*
X232859523Y-93499580D01*
X233240476Y-93499580D02*
X233859523Y-93499580D01*
X233526190Y-93880533D01*
X233669047Y-93880533D01*
X233764285Y-93928152D01*
X233811904Y-93975771D01*
X233859523Y-94071009D01*
X233859523Y-94309104D01*
X233811904Y-94404342D01*
X233764285Y-94451961D01*
X233669047Y-94499580D01*
X233383333Y-94499580D01*
X233288095Y-94451961D01*
X233240476Y-94404342D01*
X206630795Y-82699580D02*
X206630795Y-83509104D01*
X206678414Y-83604342D01*
X206726033Y-83651961D01*
X206821271Y-83699580D01*
X207011747Y-83699580D01*
X207106985Y-83651961D01*
X207154604Y-83604342D01*
X207202223Y-83509104D01*
X207202223Y-82699580D01*
X208154604Y-82699580D02*
X207678414Y-82699580D01*
X207630795Y-83175771D01*
X207678414Y-83128152D01*
X207773652Y-83080533D01*
X208011747Y-83080533D01*
X208106985Y-83128152D01*
X208154604Y-83175771D01*
X208202223Y-83271009D01*
X208202223Y-83509104D01*
X208154604Y-83604342D01*
X208106985Y-83651961D01*
X208011747Y-83699580D01*
X207773652Y-83699580D01*
X207678414Y-83651961D01*
X207630795Y-83604342D01*
X85845080Y-91109104D02*
X86654604Y-91109104D01*
X86749842Y-91061485D01*
X86797461Y-91013866D01*
X86845080Y-90918628D01*
X86845080Y-90728152D01*
X86797461Y-90632914D01*
X86749842Y-90585295D01*
X86654604Y-90537676D01*
X85845080Y-90537676D01*
X85845080Y-90156723D02*
X85845080Y-89490057D01*
X86845080Y-89918628D01*
X93580795Y-83549580D02*
X93580795Y-84359104D01*
X93628414Y-84454342D01*
X93676033Y-84501961D01*
X93771271Y-84549580D01*
X93961747Y-84549580D01*
X94056985Y-84501961D01*
X94104604Y-84454342D01*
X94152223Y-84359104D01*
X94152223Y-83549580D01*
X94771271Y-83978152D02*
X94676033Y-83930533D01*
X94628414Y-83882914D01*
X94580795Y-83787676D01*
X94580795Y-83740057D01*
X94628414Y-83644819D01*
X94676033Y-83597200D01*
X94771271Y-83549580D01*
X94961747Y-83549580D01*
X95056985Y-83597200D01*
X95104604Y-83644819D01*
X95152223Y-83740057D01*
X95152223Y-83787676D01*
X95104604Y-83882914D01*
X95056985Y-83930533D01*
X94961747Y-83978152D01*
X94771271Y-83978152D01*
X94676033Y-84025771D01*
X94628414Y-84073390D01*
X94580795Y-84168628D01*
X94580795Y-84359104D01*
X94628414Y-84454342D01*
X94676033Y-84501961D01*
X94771271Y-84549580D01*
X94961747Y-84549580D01*
X95056985Y-84501961D01*
X95104604Y-84454342D01*
X95152223Y-84359104D01*
X95152223Y-84168628D01*
X95104604Y-84073390D01*
X95056985Y-84025771D01*
X94961747Y-83978152D01*
X143788095Y-88499580D02*
X143788095Y-89309104D01*
X143835714Y-89404342D01*
X143883333Y-89451961D01*
X143978571Y-89499580D01*
X144169047Y-89499580D01*
X144264285Y-89451961D01*
X144311904Y-89404342D01*
X144359523Y-89309104D01*
X144359523Y-88499580D01*
X144883333Y-89499580D02*
X145073809Y-89499580D01*
X145169047Y-89451961D01*
X145216666Y-89404342D01*
X145311904Y-89261485D01*
X145359523Y-89071009D01*
X145359523Y-88690057D01*
X145311904Y-88594819D01*
X145264285Y-88547200D01*
X145169047Y-88499580D01*
X144978571Y-88499580D01*
X144883333Y-88547200D01*
X144835714Y-88594819D01*
X144788095Y-88690057D01*
X144788095Y-88928152D01*
X144835714Y-89023390D01*
X144883333Y-89071009D01*
X144978571Y-89118628D01*
X145169047Y-89118628D01*
X145264285Y-89071009D01*
X145311904Y-89023390D01*
X145359523Y-88928152D01*
X184254604Y-91699580D02*
X184254604Y-92509104D01*
X184302223Y-92604342D01*
X184349842Y-92651961D01*
X184445080Y-92699580D01*
X184635557Y-92699580D01*
X184730795Y-92651961D01*
X184778414Y-92604342D01*
X184826033Y-92509104D01*
X184826033Y-91699580D01*
X185826033Y-92699580D02*
X185254604Y-92699580D01*
X185540319Y-92699580D02*
X185540319Y-91699580D01*
X185445080Y-91842438D01*
X185349842Y-91937676D01*
X185254604Y-91985295D01*
X186445080Y-91699580D02*
X186540319Y-91699580D01*
X186635557Y-91747200D01*
X186683176Y-91794819D01*
X186730795Y-91890057D01*
X186778414Y-92080533D01*
X186778414Y-92318628D01*
X186730795Y-92509104D01*
X186683176Y-92604342D01*
X186635557Y-92651961D01*
X186540319Y-92699580D01*
X186445080Y-92699580D01*
X186349842Y-92651961D01*
X186302223Y-92604342D01*
X186254604Y-92509104D01*
X186206985Y-92318628D01*
X186206985Y-92080533D01*
X186254604Y-91890057D01*
X186302223Y-91794819D01*
X186349842Y-91747200D01*
X186445080Y-91699580D01*
X224554604Y-90499580D02*
X224554604Y-91309104D01*
X224602223Y-91404342D01*
X224649842Y-91451961D01*
X224745080Y-91499580D01*
X224935557Y-91499580D01*
X225030795Y-91451961D01*
X225078414Y-91404342D01*
X225126033Y-91309104D01*
X225126033Y-90499580D01*
X226126033Y-91499580D02*
X225554604Y-91499580D01*
X225840319Y-91499580D02*
X225840319Y-90499580D01*
X225745080Y-90642438D01*
X225649842Y-90737676D01*
X225554604Y-90785295D01*
X227078414Y-91499580D02*
X226506985Y-91499580D01*
X226792700Y-91499580D02*
X226792700Y-90499580D01*
X226697461Y-90642438D01*
X226602223Y-90737676D01*
X226506985Y-90785295D01*
X226930795Y-85099580D02*
X226930795Y-85909104D01*
X226978414Y-86004342D01*
X227026033Y-86051961D01*
X227121271Y-86099580D01*
X227311747Y-86099580D01*
X227406985Y-86051961D01*
X227454604Y-86004342D01*
X227502223Y-85909104D01*
X227502223Y-85099580D01*
X227930795Y-85194819D02*
X227978414Y-85147200D01*
X228073652Y-85099580D01*
X228311747Y-85099580D01*
X228406985Y-85147200D01*
X228454604Y-85194819D01*
X228502223Y-85290057D01*
X228502223Y-85385295D01*
X228454604Y-85528152D01*
X227883176Y-86099580D01*
X228502223Y-86099580D01*
X71976033Y-85799580D02*
X71642700Y-85323390D01*
X71404604Y-85799580D02*
X71404604Y-84799580D01*
X71785557Y-84799580D01*
X71880795Y-84847200D01*
X71928414Y-84894819D01*
X71976033Y-84990057D01*
X71976033Y-85132914D01*
X71928414Y-85228152D01*
X71880795Y-85275771D01*
X71785557Y-85323390D01*
X71404604Y-85323390D01*
X72928414Y-85799580D02*
X72356985Y-85799580D01*
X72642700Y-85799580D02*
X72642700Y-84799580D01*
X72547461Y-84942438D01*
X72452223Y-85037676D01*
X72356985Y-85085295D01*
X103776033Y-84054342D02*
X103728414Y-84101961D01*
X103585557Y-84149580D01*
X103490319Y-84149580D01*
X103347461Y-84101961D01*
X103252223Y-84006723D01*
X103204604Y-83911485D01*
X103156985Y-83721009D01*
X103156985Y-83578152D01*
X103204604Y-83387676D01*
X103252223Y-83292438D01*
X103347461Y-83197200D01*
X103490319Y-83149580D01*
X103585557Y-83149580D01*
X103728414Y-83197200D01*
X103776033Y-83244819D01*
X104156985Y-83244819D02*
X104204604Y-83197200D01*
X104299842Y-83149580D01*
X104537938Y-83149580D01*
X104633176Y-83197200D01*
X104680795Y-83244819D01*
X104728414Y-83340057D01*
X104728414Y-83435295D01*
X104680795Y-83578152D01*
X104109366Y-84149580D01*
X104728414Y-84149580D01*
X102104128Y-85408152D02*
X102104128Y-84646247D01*
X102485080Y-85027200D02*
X101723176Y-85027200D01*
X168929604Y-91474580D02*
X168929604Y-90474580D01*
X169167700Y-90474580D01*
X169310557Y-90522200D01*
X169405795Y-90617438D01*
X169453414Y-90712676D01*
X169501033Y-90903152D01*
X169501033Y-91046009D01*
X169453414Y-91236485D01*
X169405795Y-91331723D01*
X169310557Y-91426961D01*
X169167700Y-91474580D01*
X168929604Y-91474580D01*
X170453414Y-91474580D02*
X169881985Y-91474580D01*
X170167700Y-91474580D02*
X170167700Y-90474580D01*
X170072461Y-90617438D01*
X169977223Y-90712676D01*
X169881985Y-90760295D01*
X164620080Y-92963866D02*
X164143890Y-93297200D01*
X164620080Y-93535295D02*
X163620080Y-93535295D01*
X163620080Y-93154342D01*
X163667700Y-93059104D01*
X163715319Y-93011485D01*
X163810557Y-92963866D01*
X163953414Y-92963866D01*
X164048652Y-93011485D01*
X164096271Y-93059104D01*
X164143890Y-93154342D01*
X164143890Y-93535295D01*
X164048652Y-92392438D02*
X164001033Y-92487676D01*
X163953414Y-92535295D01*
X163858176Y-92582914D01*
X163810557Y-92582914D01*
X163715319Y-92535295D01*
X163667700Y-92487676D01*
X163620080Y-92392438D01*
X163620080Y-92201961D01*
X163667700Y-92106723D01*
X163715319Y-92059104D01*
X163810557Y-92011485D01*
X163858176Y-92011485D01*
X163953414Y-92059104D01*
X164001033Y-92106723D01*
X164048652Y-92201961D01*
X164048652Y-92392438D01*
X164096271Y-92487676D01*
X164143890Y-92535295D01*
X164239128Y-92582914D01*
X164429604Y-92582914D01*
X164524842Y-92535295D01*
X164572461Y-92487676D01*
X164620080Y-92392438D01*
X164620080Y-92201961D01*
X164572461Y-92106723D01*
X164524842Y-92059104D01*
X164429604Y-92011485D01*
X164239128Y-92011485D01*
X164143890Y-92059104D01*
X164096271Y-92106723D01*
X164048652Y-92201961D01*
X110895080Y-89635295D02*
X109895080Y-89635295D01*
X109895080Y-89397200D01*
X109942700Y-89254342D01*
X110037938Y-89159104D01*
X110133176Y-89111485D01*
X110323652Y-89063866D01*
X110466509Y-89063866D01*
X110656985Y-89111485D01*
X110752223Y-89159104D01*
X110847461Y-89254342D01*
X110895080Y-89397200D01*
X110895080Y-89635295D01*
X109990319Y-88682914D02*
X109942700Y-88635295D01*
X109895080Y-88540057D01*
X109895080Y-88301961D01*
X109942700Y-88206723D01*
X109990319Y-88159104D01*
X110085557Y-88111485D01*
X110180795Y-88111485D01*
X110323652Y-88159104D01*
X110895080Y-88730533D01*
X110895080Y-88111485D01*
X113826033Y-82549580D02*
X113492700Y-82073390D01*
X113254604Y-82549580D02*
X113254604Y-81549580D01*
X113635557Y-81549580D01*
X113730795Y-81597200D01*
X113778414Y-81644819D01*
X113826033Y-81740057D01*
X113826033Y-81882914D01*
X113778414Y-81978152D01*
X113730795Y-82025771D01*
X113635557Y-82073390D01*
X113254604Y-82073390D01*
X114302223Y-82549580D02*
X114492700Y-82549580D01*
X114587938Y-82501961D01*
X114635557Y-82454342D01*
X114730795Y-82311485D01*
X114778414Y-82121009D01*
X114778414Y-81740057D01*
X114730795Y-81644819D01*
X114683176Y-81597200D01*
X114587938Y-81549580D01*
X114397461Y-81549580D01*
X114302223Y-81597200D01*
X114254604Y-81644819D01*
X114206985Y-81740057D01*
X114206985Y-81978152D01*
X114254604Y-82073390D01*
X114302223Y-82121009D01*
X114397461Y-82168628D01*
X114587938Y-82168628D01*
X114683176Y-82121009D01*
X114730795Y-82073390D01*
X114778414Y-81978152D01*
X239844366Y-81709580D02*
X239844366Y-82423866D01*
X239796747Y-82566723D01*
X239701509Y-82661961D01*
X239558652Y-82709580D01*
X239463414Y-82709580D01*
X240844366Y-82709580D02*
X240272938Y-82709580D01*
X240558652Y-82709580D02*
X240558652Y-81709580D01*
X240463414Y-81852438D01*
X240368176Y-81947676D01*
X240272938Y-81995295D01*
M02*
