M48
METRIC,TZ
T1C0.400
T2C0.650
T3C0.800
T4C0.800
T5C1.000
T6C2.200
T7C1.500
%
G90
G05
T1
X69050Y-88300
X69050Y-105450
X70600Y-86750
X70600Y-89850
X70600Y-103900
X70600Y-107000
X72150Y-88300
X72150Y-105450
X72457Y-91803
X72457Y-101947
X75291Y-91803
X75291Y-101947
X77000Y-95875
X77000Y-97900
X77600Y-95875
X77600Y-97900
X78200Y-95875
X78200Y-97900
X78800Y-95875
X78800Y-97900
X79400Y-95875
X79400Y-97900
X80000Y-95875
X80000Y-97900
X80457Y-87222
X80457Y-87974
X80457Y-105776
X80457Y-106528
X80600Y-95875
X80600Y-97900
X81200Y-95875
X81200Y-97900
X81800Y-95875
X81800Y-97900
X82400Y-95875
X82400Y-97900
X85957Y-88503
X85957Y-105247
X88550Y-92700
X88550Y-101050
X97470Y-88087
X97470Y-105663
X100000Y-89300
X100000Y-104450
X102735Y-93200
X102735Y-100550
X103057Y-90403
X103057Y-103347
X103907Y-90403
X103907Y-103347
X104257Y-92203
X104257Y-101547
X104757Y-90403
X104757Y-103347
X109950Y-86997
X109950Y-106753
X110848Y-90265
X110848Y-103485
X110850Y-86997
X110850Y-106753
X113300Y-90500
X113300Y-103250
X114200Y-90488
X114200Y-103263
X114350Y-86350
X114350Y-107400
X115350Y-86350
X115350Y-107400
X116350Y-86350
X116350Y-107400
X116507Y-93703
X116507Y-100047
X117300Y-92900
X117300Y-100850
X118100Y-89000
X118100Y-92900
X118100Y-100850
X118100Y-104750
X118900Y-88979
X118900Y-104771
X118902Y-92900
X118902Y-100850
X119700Y-88979
X119700Y-104771
X120457Y-92903
X120457Y-100847
X120500Y-88750
X120500Y-105000
X121257Y-92903
X121257Y-100847
X121300Y-88500
X121300Y-105250
X122100Y-92900
X122100Y-100850
X122102Y-88500
X122102Y-105250
X122852Y-92910
X122852Y-100840
X122950Y-88100
X122950Y-105650
X122957Y-88903
X122957Y-104847
X124357Y-86743
X124357Y-107007
X125600Y-94062
X125600Y-99688
X126050Y-86168
X126050Y-107582
X127100Y-87350
X127100Y-106400
X127107Y-92353
X127107Y-101397
X128100Y-93300
X128100Y-100450
X128926Y-89924
X128926Y-103826
X128957Y-92403
X128957Y-101347
X131657Y-89829
X131657Y-103921
X132057Y-91203
X132057Y-102547
X132457Y-89829
X132457Y-103921
X133007Y-91203
X133007Y-102547
X142257Y-93753
X142257Y-99997
X143107Y-93553
X143107Y-100197
X143350Y-87450
X143350Y-106300
X144007Y-93553
X144007Y-100197
X144344Y-86655
X144344Y-107095
X144357Y-87408
X144357Y-106342
X145100Y-95875
X145100Y-97900
X145700Y-95875
X145700Y-97900
X146300Y-95875
X146300Y-97900
X146900Y-95875
X146900Y-97900
X147207Y-88053
X147207Y-105697
X147500Y-95875
X147500Y-97900
X148100Y-95875
X148100Y-97900
X148700Y-95875
X148700Y-97900
X148981Y-90829
X148981Y-102921
X149300Y-95875
X149300Y-97900
X149900Y-95875
X149900Y-97900
X150050Y-88300
X150050Y-105450
X150500Y-95875
X150500Y-97900
X150627Y-91363
X150627Y-102387
X151597Y-91373
X151597Y-102377
X151600Y-86750
X151600Y-89850
X151600Y-103900
X151600Y-107000
X152567Y-91373
X152567Y-102377
X153150Y-88300
X153150Y-105450
X156750Y-90000
X156750Y-103750
X163325Y-88150
X163325Y-105600
X163650Y-86625
X163650Y-107125
X167800Y-92250
X167800Y-101500
X170307Y-93253
X170307Y-100497
X171357Y-93253
X171357Y-100497
X172350Y-93250
X172350Y-100500
X185107Y-93853
X185107Y-99897
X185200Y-85900
X185200Y-107850
X186257Y-93553
X186257Y-100197
X190900Y-88900
X190900Y-104850
X195198Y-93265
X195198Y-100485
X196657Y-94503
X196657Y-99247
X197457Y-94503
X197457Y-99247
X198257Y-94503
X198257Y-99247
X199084Y-94177
X199084Y-99573
X200606Y-94189
X200606Y-99561
X201757Y-90453
X201757Y-103297
X204950Y-88225
X204950Y-89000
X204950Y-89775
X204950Y-90550
X204950Y-91325
X204950Y-92100
X204950Y-101650
X204950Y-102425
X204950Y-103200
X204950Y-103975
X204950Y-104750
X204950Y-105525
X207200Y-86050
X207200Y-107700
X207950Y-86050
X207950Y-107700
X209450Y-88225
X209450Y-89000
X209450Y-89775
X209450Y-90550
X209450Y-91325
X209450Y-92100
X209450Y-101650
X209450Y-102425
X209450Y-103200
X209450Y-103975
X209450Y-104750
X209450Y-105525
X211850Y-86400
X211850Y-107350
X212807Y-93553
X212807Y-100197
X213200Y-95875
X213200Y-97900
X213800Y-95875
X213800Y-97900
X214400Y-95875
X214400Y-97900
X215000Y-95875
X215000Y-97900
X215600Y-95875
X215600Y-97900
X216200Y-95875
X216200Y-97900
X216800Y-95875
X216800Y-97900
X217400Y-95875
X217400Y-97900
X218000Y-95875
X218000Y-97900
X218600Y-95875
X218600Y-97900
X219900Y-87050
X219900Y-106700
X224700Y-89950
X224700Y-103800
X225900Y-86450
X225900Y-107300
X226500Y-93884
X226500Y-99866
X227300Y-88773
X227300Y-104977
X227888Y-93081
X227888Y-100669
X228521Y-91279
X228521Y-102471
X231050Y-88300
X231050Y-105450
X232250Y-92200
X232250Y-101550
X232389Y-92947
X232389Y-100803
X232600Y-86750
X232600Y-89850
X232600Y-103900
X232600Y-107000
X233052Y-92178
X233052Y-101572
X234150Y-88300
X234150Y-105450
X235107Y-91653
X235107Y-102097
X235250Y-86600
X235250Y-107150
X235958Y-91649
X235958Y-102101
X236600Y-86600
X236600Y-107150
X236654Y-88504
X236654Y-105246
X236907Y-94703
X236907Y-99047
X236938Y-92683
X236938Y-101067
X237015Y-91600
X237015Y-102150
X237690Y-87540
X237690Y-106210
X240157Y-94353
X240157Y-99397
X241220Y-94328
X241220Y-99422
T2
X239457Y-84490
X239457Y-85760
X239457Y-87030
X239457Y-88300
X239457Y-89570
X239457Y-90840
X239457Y-92110
X240727Y-84490
X240727Y-85760
X240727Y-87030
X240727Y-88300
X240727Y-89570
X240727Y-90840
X240727Y-92110
X239457Y-101640
X239457Y-102910
X239457Y-104180
X239457Y-105450
X239457Y-106720
X239457Y-107990
X239457Y-109260
X240727Y-101640
X240727Y-102910
X240727Y-104180
X240727Y-105450
X240727Y-106720
X240727Y-107990
X240727Y-109260
T3
X56048Y-100304
X56048Y-102304
X58048Y-100304
X58048Y-102304
X60048Y-100304
X60048Y-102304
X62048Y-100304
X62048Y-102304
X64048Y-100304
X64048Y-102304
X56048Y-91446
X56048Y-93446
X58048Y-91446
X58048Y-93446
X60048Y-91446
X60048Y-93446
X62048Y-91446
X62048Y-93446
X64048Y-91446
X64048Y-93446
T4
X78460Y-102420
X78460Y-104960
X81000Y-101150
X81000Y-103690
X92490Y-100710
X93760Y-103250
X95030Y-100710
X96300Y-103250
X215490Y-100710
X216760Y-103250
X218030Y-100710
X219300Y-103250
X175760Y-103250
X133490Y-93040
X134760Y-90500
X136030Y-93040
X137300Y-90500
X174490Y-100710
X78460Y-88790
X78460Y-91330
X81000Y-90060
X81000Y-92600
X215490Y-93040
X93760Y-90500
X137300Y-103250
X177030Y-100710
X178300Y-103250
X133490Y-100710
X134760Y-103250
X136030Y-100710
X174490Y-93040
X175760Y-90500
X177030Y-93040
X178300Y-90500
X92490Y-93040
X219300Y-90500
X95030Y-93040
X96300Y-90500
X216760Y-90500
X218030Y-93040
T5
X194900Y-103350
X194900Y-105890
X197440Y-103350
X197440Y-105890
X199980Y-103350
X199980Y-105890
X194900Y-87860
X194900Y-90400
X197440Y-87860
X197440Y-90400
X199980Y-87860
X199980Y-90400
T6
X232600Y-105450
X151600Y-105450
X151600Y-88300
X70600Y-105450
X232600Y-88300
X70600Y-88300
T7
X179700Y-92300
X97700Y-92300
X97700Y-101450
X220700Y-101450
X138700Y-92300
X79200Y-94000
X138700Y-101450
X179700Y-101450
X79200Y-99750
X220700Y-92300
T0
M30
