G04 #@! TF.GenerationSoftware,KiCad,Pcbnew,(2018-01-21 revision 6b9866de8)-makepkg*
G04 #@! TF.CreationDate,2018-02-06T18:12:56+01:00*
G04 #@! TF.ProjectId,Arm_interface_panel,41726D5F696E746572666163655F7061,rev?*
G04 #@! TF.SameCoordinates,Original*
G04 #@! TF.FileFunction,Soldermask,Top*
G04 #@! TF.FilePolarity,Negative*
%FSLAX46Y46*%
G04 Gerber Fmt 4.6, Leading zero omitted, Abs format (unit mm)*
G04 Created by KiCad (PCBNEW (2018-01-21 revision 6b9866de8)-makepkg) date 02/06/18 18:12:56*
%MOMM*%
%LPD*%
G01*
G04 APERTURE LIST*
%ADD10C,0.150000*%
%ADD11C,0.010000*%
%ADD12C,4.003200*%
%ADD13C,1.703300*%
%ADD14C,2.003200*%
%ADD15R,2.003200X2.003200*%
%ADD16O,1.903200X1.903200*%
%ADD17R,1.903200X1.903200*%
%ADD18R,1.553200X1.553200*%
%ADD19C,1.553200*%
%ADD20O,1.203200X1.203200*%
%ADD21R,1.203200X1.203200*%
%ADD22R,1.803200X0.753200*%
%ADD23R,0.753200X1.803200*%
%ADD24R,1.603200X1.403200*%
%ADD25R,0.853200X0.778200*%
%ADD26R,0.778200X0.853200*%
%ADD27C,1.203200*%
%ADD28R,1.703200X0.703200*%
%ADD29C,0.100000*%
%ADD30R,1.703200X1.203200*%
%ADD31R,0.703200X1.703200*%
%ADD32R,1.203200X1.703200*%
%ADD33R,2.003200X1.273200*%
%ADD34R,1.303200X2.003200*%
%ADD35R,0.853200X1.263200*%
%ADD36R,0.403200X0.733200*%
%ADD37R,1.263200X0.853200*%
%ADD38R,0.878200X0.453200*%
%ADD39R,0.453200X0.878200*%
%ADD40R,1.273200X2.003200*%
%ADD41R,1.803200X2.803200*%
%ADD42R,0.873200X1.203200*%
G04 APERTURE END LIST*
D10*
G36*
X177057300Y-100847200D02*
X177057300Y-99647200D01*
X182707300Y-99647200D01*
X182707300Y-100847200D01*
X177057300Y-100847200D01*
G37*
X177057300Y-100847200D02*
X177057300Y-99647200D01*
X182707300Y-99647200D01*
X182707300Y-100847200D01*
X177057300Y-100847200D01*
G36*
X172750000Y-108700000D02*
X175150000Y-108700000D01*
X175150000Y-106900000D01*
X172750000Y-106900000D01*
X172750000Y-108700000D01*
G37*
X172750000Y-108700000D02*
X175150000Y-108700000D01*
X175150000Y-106900000D01*
X172750000Y-106900000D01*
X172750000Y-108700000D01*
D11*
G36*
X160630464Y-84337437D02*
X160653725Y-84338815D01*
X160674737Y-84341500D01*
X160688626Y-84344046D01*
X160752383Y-84361768D01*
X160811523Y-84388078D01*
X160865205Y-84422525D01*
X160911520Y-84463551D01*
X160951121Y-84511609D01*
X160982950Y-84565013D01*
X161007011Y-84622600D01*
X161023308Y-84683207D01*
X161031845Y-84745670D01*
X161032628Y-84808826D01*
X161025661Y-84871511D01*
X161010949Y-84932562D01*
X160988495Y-84990815D01*
X160958306Y-85045106D01*
X160920385Y-85094273D01*
X160908980Y-85106357D01*
X160859844Y-85149210D01*
X160805582Y-85183308D01*
X160746438Y-85208521D01*
X160689158Y-85223523D01*
X160664182Y-85226900D01*
X160632717Y-85229082D01*
X160597634Y-85230076D01*
X160561800Y-85229885D01*
X160528085Y-85228515D01*
X160499356Y-85225970D01*
X160482260Y-85223174D01*
X160418316Y-85204532D01*
X160360699Y-85178156D01*
X160308790Y-85143729D01*
X160280832Y-85119739D01*
X160236314Y-85071872D01*
X160200719Y-85019956D01*
X160173861Y-84963532D01*
X160155551Y-84902142D01*
X160145603Y-84835327D01*
X160143540Y-84784324D01*
X160315136Y-84784324D01*
X160316173Y-84821399D01*
X160319199Y-84855373D01*
X160323827Y-84881435D01*
X160341023Y-84932627D01*
X160365704Y-84977780D01*
X160397281Y-85016260D01*
X160435167Y-85047433D01*
X160478772Y-85070663D01*
X160508631Y-85080856D01*
X160531172Y-85084985D01*
X160560054Y-85087351D01*
X160591882Y-85087966D01*
X160623259Y-85086839D01*
X160650787Y-85083981D01*
X160668027Y-85080375D01*
X160714962Y-85061635D01*
X160756481Y-85034953D01*
X160791577Y-85001183D01*
X160819242Y-84961182D01*
X160827368Y-84945029D01*
X160839325Y-84916918D01*
X160847838Y-84891407D01*
X160853435Y-84865686D01*
X160856642Y-84836944D01*
X160857987Y-84802371D01*
X160858126Y-84781140D01*
X160857838Y-84750068D01*
X160856830Y-84726427D01*
X160854808Y-84707496D01*
X160851474Y-84690555D01*
X160846532Y-84672883D01*
X160846234Y-84671920D01*
X160826006Y-84620186D01*
X160799880Y-84576624D01*
X160767568Y-84540937D01*
X160728785Y-84512827D01*
X160683243Y-84491997D01*
X160668027Y-84487066D01*
X160644652Y-84482419D01*
X160614841Y-84479752D01*
X160582126Y-84479083D01*
X160550040Y-84480430D01*
X160522116Y-84483812D01*
X160510865Y-84486260D01*
X160462975Y-84503860D01*
X160421306Y-84529466D01*
X160385942Y-84562991D01*
X160356965Y-84604344D01*
X160334458Y-84653438D01*
X160323938Y-84687160D01*
X160319020Y-84713938D01*
X160316086Y-84747415D01*
X160315136Y-84784324D01*
X160143540Y-84784324D01*
X160143513Y-84783680D01*
X160147521Y-84712883D01*
X160159691Y-84647884D01*
X160180245Y-84588147D01*
X160209401Y-84533133D01*
X160247380Y-84482305D01*
X160281552Y-84446829D01*
X160306794Y-84424577D01*
X160331097Y-84406930D01*
X160358799Y-84390902D01*
X160374223Y-84383083D01*
X160405806Y-84368190D01*
X160433095Y-84357135D01*
X160458814Y-84349281D01*
X160485690Y-84343991D01*
X160516448Y-84340628D01*
X160553813Y-84338554D01*
X160566706Y-84338088D01*
X160602332Y-84337237D01*
X160630464Y-84337437D01*
X160630464Y-84337437D01*
G37*
X160630464Y-84337437D02*
X160653725Y-84338815D01*
X160674737Y-84341500D01*
X160688626Y-84344046D01*
X160752383Y-84361768D01*
X160811523Y-84388078D01*
X160865205Y-84422525D01*
X160911520Y-84463551D01*
X160951121Y-84511609D01*
X160982950Y-84565013D01*
X161007011Y-84622600D01*
X161023308Y-84683207D01*
X161031845Y-84745670D01*
X161032628Y-84808826D01*
X161025661Y-84871511D01*
X161010949Y-84932562D01*
X160988495Y-84990815D01*
X160958306Y-85045106D01*
X160920385Y-85094273D01*
X160908980Y-85106357D01*
X160859844Y-85149210D01*
X160805582Y-85183308D01*
X160746438Y-85208521D01*
X160689158Y-85223523D01*
X160664182Y-85226900D01*
X160632717Y-85229082D01*
X160597634Y-85230076D01*
X160561800Y-85229885D01*
X160528085Y-85228515D01*
X160499356Y-85225970D01*
X160482260Y-85223174D01*
X160418316Y-85204532D01*
X160360699Y-85178156D01*
X160308790Y-85143729D01*
X160280832Y-85119739D01*
X160236314Y-85071872D01*
X160200719Y-85019956D01*
X160173861Y-84963532D01*
X160155551Y-84902142D01*
X160145603Y-84835327D01*
X160143540Y-84784324D01*
X160315136Y-84784324D01*
X160316173Y-84821399D01*
X160319199Y-84855373D01*
X160323827Y-84881435D01*
X160341023Y-84932627D01*
X160365704Y-84977780D01*
X160397281Y-85016260D01*
X160435167Y-85047433D01*
X160478772Y-85070663D01*
X160508631Y-85080856D01*
X160531172Y-85084985D01*
X160560054Y-85087351D01*
X160591882Y-85087966D01*
X160623259Y-85086839D01*
X160650787Y-85083981D01*
X160668027Y-85080375D01*
X160714962Y-85061635D01*
X160756481Y-85034953D01*
X160791577Y-85001183D01*
X160819242Y-84961182D01*
X160827368Y-84945029D01*
X160839325Y-84916918D01*
X160847838Y-84891407D01*
X160853435Y-84865686D01*
X160856642Y-84836944D01*
X160857987Y-84802371D01*
X160858126Y-84781140D01*
X160857838Y-84750068D01*
X160856830Y-84726427D01*
X160854808Y-84707496D01*
X160851474Y-84690555D01*
X160846532Y-84672883D01*
X160846234Y-84671920D01*
X160826006Y-84620186D01*
X160799880Y-84576624D01*
X160767568Y-84540937D01*
X160728785Y-84512827D01*
X160683243Y-84491997D01*
X160668027Y-84487066D01*
X160644652Y-84482419D01*
X160614841Y-84479752D01*
X160582126Y-84479083D01*
X160550040Y-84480430D01*
X160522116Y-84483812D01*
X160510865Y-84486260D01*
X160462975Y-84503860D01*
X160421306Y-84529466D01*
X160385942Y-84562991D01*
X160356965Y-84604344D01*
X160334458Y-84653438D01*
X160323938Y-84687160D01*
X160319020Y-84713938D01*
X160316086Y-84747415D01*
X160315136Y-84784324D01*
X160143540Y-84784324D01*
X160143513Y-84783680D01*
X160147521Y-84712883D01*
X160159691Y-84647884D01*
X160180245Y-84588147D01*
X160209401Y-84533133D01*
X160247380Y-84482305D01*
X160281552Y-84446829D01*
X160306794Y-84424577D01*
X160331097Y-84406930D01*
X160358799Y-84390902D01*
X160374223Y-84383083D01*
X160405806Y-84368190D01*
X160433095Y-84357135D01*
X160458814Y-84349281D01*
X160485690Y-84343991D01*
X160516448Y-84340628D01*
X160553813Y-84338554D01*
X160566706Y-84338088D01*
X160602332Y-84337237D01*
X160630464Y-84337437D01*
G36*
X162383064Y-84337437D02*
X162406325Y-84338815D01*
X162427337Y-84341500D01*
X162441226Y-84344046D01*
X162504983Y-84361768D01*
X162564123Y-84388078D01*
X162617805Y-84422525D01*
X162664120Y-84463551D01*
X162703721Y-84511609D01*
X162735550Y-84565013D01*
X162759611Y-84622600D01*
X162775908Y-84683207D01*
X162784445Y-84745670D01*
X162785228Y-84808826D01*
X162778261Y-84871511D01*
X162763549Y-84932562D01*
X162741095Y-84990815D01*
X162710906Y-85045106D01*
X162672985Y-85094273D01*
X162661580Y-85106357D01*
X162612444Y-85149210D01*
X162558182Y-85183308D01*
X162499038Y-85208521D01*
X162441758Y-85223523D01*
X162416782Y-85226900D01*
X162385317Y-85229082D01*
X162350234Y-85230076D01*
X162314400Y-85229885D01*
X162280685Y-85228515D01*
X162251956Y-85225970D01*
X162234860Y-85223174D01*
X162170916Y-85204532D01*
X162113299Y-85178156D01*
X162061390Y-85143729D01*
X162033432Y-85119739D01*
X161988914Y-85071872D01*
X161953319Y-85019956D01*
X161926461Y-84963532D01*
X161908151Y-84902142D01*
X161898203Y-84835327D01*
X161896140Y-84784324D01*
X162067736Y-84784324D01*
X162068773Y-84821399D01*
X162071799Y-84855373D01*
X162076427Y-84881435D01*
X162093623Y-84932627D01*
X162118304Y-84977780D01*
X162149881Y-85016260D01*
X162187767Y-85047433D01*
X162231372Y-85070663D01*
X162261231Y-85080856D01*
X162283772Y-85084985D01*
X162312654Y-85087351D01*
X162344482Y-85087966D01*
X162375859Y-85086839D01*
X162403387Y-85083981D01*
X162420627Y-85080375D01*
X162467562Y-85061635D01*
X162509081Y-85034953D01*
X162544177Y-85001183D01*
X162571842Y-84961182D01*
X162579968Y-84945029D01*
X162591925Y-84916918D01*
X162600438Y-84891407D01*
X162606035Y-84865686D01*
X162609242Y-84836944D01*
X162610587Y-84802371D01*
X162610726Y-84781140D01*
X162610438Y-84750068D01*
X162609430Y-84726427D01*
X162607408Y-84707496D01*
X162604074Y-84690555D01*
X162599132Y-84672883D01*
X162598834Y-84671920D01*
X162578606Y-84620186D01*
X162552480Y-84576624D01*
X162520168Y-84540937D01*
X162481385Y-84512827D01*
X162435843Y-84491997D01*
X162420627Y-84487066D01*
X162397252Y-84482419D01*
X162367441Y-84479752D01*
X162334726Y-84479083D01*
X162302640Y-84480430D01*
X162274716Y-84483812D01*
X162263465Y-84486260D01*
X162215575Y-84503860D01*
X162173906Y-84529466D01*
X162138542Y-84562991D01*
X162109565Y-84604344D01*
X162087058Y-84653438D01*
X162076538Y-84687160D01*
X162071620Y-84713938D01*
X162068686Y-84747415D01*
X162067736Y-84784324D01*
X161896140Y-84784324D01*
X161896113Y-84783680D01*
X161900121Y-84712883D01*
X161912291Y-84647884D01*
X161932845Y-84588147D01*
X161962001Y-84533133D01*
X161999980Y-84482305D01*
X162034152Y-84446829D01*
X162059394Y-84424577D01*
X162083697Y-84406930D01*
X162111399Y-84390902D01*
X162126823Y-84383083D01*
X162158406Y-84368190D01*
X162185695Y-84357135D01*
X162211414Y-84349281D01*
X162238290Y-84343991D01*
X162269048Y-84340628D01*
X162306413Y-84338554D01*
X162319306Y-84338088D01*
X162354932Y-84337237D01*
X162383064Y-84337437D01*
X162383064Y-84337437D01*
G37*
X162383064Y-84337437D02*
X162406325Y-84338815D01*
X162427337Y-84341500D01*
X162441226Y-84344046D01*
X162504983Y-84361768D01*
X162564123Y-84388078D01*
X162617805Y-84422525D01*
X162664120Y-84463551D01*
X162703721Y-84511609D01*
X162735550Y-84565013D01*
X162759611Y-84622600D01*
X162775908Y-84683207D01*
X162784445Y-84745670D01*
X162785228Y-84808826D01*
X162778261Y-84871511D01*
X162763549Y-84932562D01*
X162741095Y-84990815D01*
X162710906Y-85045106D01*
X162672985Y-85094273D01*
X162661580Y-85106357D01*
X162612444Y-85149210D01*
X162558182Y-85183308D01*
X162499038Y-85208521D01*
X162441758Y-85223523D01*
X162416782Y-85226900D01*
X162385317Y-85229082D01*
X162350234Y-85230076D01*
X162314400Y-85229885D01*
X162280685Y-85228515D01*
X162251956Y-85225970D01*
X162234860Y-85223174D01*
X162170916Y-85204532D01*
X162113299Y-85178156D01*
X162061390Y-85143729D01*
X162033432Y-85119739D01*
X161988914Y-85071872D01*
X161953319Y-85019956D01*
X161926461Y-84963532D01*
X161908151Y-84902142D01*
X161898203Y-84835327D01*
X161896140Y-84784324D01*
X162067736Y-84784324D01*
X162068773Y-84821399D01*
X162071799Y-84855373D01*
X162076427Y-84881435D01*
X162093623Y-84932627D01*
X162118304Y-84977780D01*
X162149881Y-85016260D01*
X162187767Y-85047433D01*
X162231372Y-85070663D01*
X162261231Y-85080856D01*
X162283772Y-85084985D01*
X162312654Y-85087351D01*
X162344482Y-85087966D01*
X162375859Y-85086839D01*
X162403387Y-85083981D01*
X162420627Y-85080375D01*
X162467562Y-85061635D01*
X162509081Y-85034953D01*
X162544177Y-85001183D01*
X162571842Y-84961182D01*
X162579968Y-84945029D01*
X162591925Y-84916918D01*
X162600438Y-84891407D01*
X162606035Y-84865686D01*
X162609242Y-84836944D01*
X162610587Y-84802371D01*
X162610726Y-84781140D01*
X162610438Y-84750068D01*
X162609430Y-84726427D01*
X162607408Y-84707496D01*
X162604074Y-84690555D01*
X162599132Y-84672883D01*
X162598834Y-84671920D01*
X162578606Y-84620186D01*
X162552480Y-84576624D01*
X162520168Y-84540937D01*
X162481385Y-84512827D01*
X162435843Y-84491997D01*
X162420627Y-84487066D01*
X162397252Y-84482419D01*
X162367441Y-84479752D01*
X162334726Y-84479083D01*
X162302640Y-84480430D01*
X162274716Y-84483812D01*
X162263465Y-84486260D01*
X162215575Y-84503860D01*
X162173906Y-84529466D01*
X162138542Y-84562991D01*
X162109565Y-84604344D01*
X162087058Y-84653438D01*
X162076538Y-84687160D01*
X162071620Y-84713938D01*
X162068686Y-84747415D01*
X162067736Y-84784324D01*
X161896140Y-84784324D01*
X161896113Y-84783680D01*
X161900121Y-84712883D01*
X161912291Y-84647884D01*
X161932845Y-84588147D01*
X161962001Y-84533133D01*
X161999980Y-84482305D01*
X162034152Y-84446829D01*
X162059394Y-84424577D01*
X162083697Y-84406930D01*
X162111399Y-84390902D01*
X162126823Y-84383083D01*
X162158406Y-84368190D01*
X162185695Y-84357135D01*
X162211414Y-84349281D01*
X162238290Y-84343991D01*
X162269048Y-84340628D01*
X162306413Y-84338554D01*
X162319306Y-84338088D01*
X162354932Y-84337237D01*
X162383064Y-84337437D01*
G36*
X159625010Y-84348143D02*
X159677775Y-84348761D01*
X159721596Y-84349460D01*
X159757687Y-84350395D01*
X159787263Y-84351722D01*
X159811539Y-84353600D01*
X159831730Y-84356183D01*
X159849050Y-84359629D01*
X159864716Y-84364094D01*
X159879941Y-84369734D01*
X159895941Y-84376706D01*
X159913930Y-84385166D01*
X159914471Y-84385425D01*
X159955157Y-84410127D01*
X159988389Y-84441624D01*
X160013858Y-84479487D01*
X160031251Y-84523284D01*
X160038412Y-84556949D01*
X160041333Y-84609377D01*
X160034847Y-84659388D01*
X160019460Y-84706057D01*
X159995676Y-84748456D01*
X159964001Y-84785659D01*
X159924941Y-84816742D01*
X159884897Y-84838279D01*
X159856494Y-84850686D01*
X159878084Y-84871793D01*
X159884224Y-84879094D01*
X159895045Y-84893337D01*
X159909792Y-84913439D01*
X159927715Y-84938320D01*
X159948058Y-84966897D01*
X159970070Y-84998087D01*
X159992998Y-85030810D01*
X160016089Y-85063984D01*
X160038589Y-85096525D01*
X160059746Y-85127353D01*
X160078807Y-85155386D01*
X160095018Y-85179541D01*
X160107628Y-85198736D01*
X160115883Y-85211890D01*
X160119030Y-85217921D01*
X160119040Y-85218030D01*
X160114289Y-85219446D01*
X160101325Y-85220376D01*
X160082082Y-85220858D01*
X160058495Y-85220927D01*
X160032497Y-85220620D01*
X160006021Y-85219974D01*
X159981003Y-85219024D01*
X159959375Y-85217807D01*
X159943072Y-85216360D01*
X159934028Y-85214718D01*
X159933590Y-85214542D01*
X159926686Y-85208404D01*
X159914800Y-85193986D01*
X159897891Y-85171228D01*
X159875919Y-85140072D01*
X159848842Y-85100458D01*
X159816619Y-85052328D01*
X159779211Y-84995623D01*
X159739466Y-84934733D01*
X159727320Y-84917343D01*
X159715543Y-84902648D01*
X159706369Y-84893402D01*
X159705155Y-84892521D01*
X159692920Y-84887915D01*
X159672516Y-84884156D01*
X159647030Y-84881686D01*
X159600880Y-84878696D01*
X159600880Y-85220560D01*
X159433240Y-85220560D01*
X159433240Y-84764445D01*
X159600880Y-84764445D01*
X159678350Y-84762242D01*
X159710242Y-84761121D01*
X159734204Y-84759648D01*
X159752466Y-84757534D01*
X159767257Y-84754491D01*
X159780809Y-84750229D01*
X159785826Y-84748336D01*
X159819667Y-84730383D01*
X159845596Y-84706091D01*
X159863500Y-84675636D01*
X159873265Y-84639191D01*
X159875200Y-84610965D01*
X159870620Y-84574409D01*
X159857394Y-84542518D01*
X159836293Y-84516250D01*
X159808088Y-84496566D01*
X159773551Y-84484424D01*
X159773472Y-84484407D01*
X159758859Y-84482146D01*
X159736815Y-84479813D01*
X159710063Y-84477648D01*
X159681328Y-84475896D01*
X159674329Y-84475559D01*
X159600880Y-84472222D01*
X159600880Y-84764445D01*
X159433240Y-84764445D01*
X159433240Y-84346045D01*
X159625010Y-84348143D01*
X159625010Y-84348143D01*
G37*
X159625010Y-84348143D02*
X159677775Y-84348761D01*
X159721596Y-84349460D01*
X159757687Y-84350395D01*
X159787263Y-84351722D01*
X159811539Y-84353600D01*
X159831730Y-84356183D01*
X159849050Y-84359629D01*
X159864716Y-84364094D01*
X159879941Y-84369734D01*
X159895941Y-84376706D01*
X159913930Y-84385166D01*
X159914471Y-84385425D01*
X159955157Y-84410127D01*
X159988389Y-84441624D01*
X160013858Y-84479487D01*
X160031251Y-84523284D01*
X160038412Y-84556949D01*
X160041333Y-84609377D01*
X160034847Y-84659388D01*
X160019460Y-84706057D01*
X159995676Y-84748456D01*
X159964001Y-84785659D01*
X159924941Y-84816742D01*
X159884897Y-84838279D01*
X159856494Y-84850686D01*
X159878084Y-84871793D01*
X159884224Y-84879094D01*
X159895045Y-84893337D01*
X159909792Y-84913439D01*
X159927715Y-84938320D01*
X159948058Y-84966897D01*
X159970070Y-84998087D01*
X159992998Y-85030810D01*
X160016089Y-85063984D01*
X160038589Y-85096525D01*
X160059746Y-85127353D01*
X160078807Y-85155386D01*
X160095018Y-85179541D01*
X160107628Y-85198736D01*
X160115883Y-85211890D01*
X160119030Y-85217921D01*
X160119040Y-85218030D01*
X160114289Y-85219446D01*
X160101325Y-85220376D01*
X160082082Y-85220858D01*
X160058495Y-85220927D01*
X160032497Y-85220620D01*
X160006021Y-85219974D01*
X159981003Y-85219024D01*
X159959375Y-85217807D01*
X159943072Y-85216360D01*
X159934028Y-85214718D01*
X159933590Y-85214542D01*
X159926686Y-85208404D01*
X159914800Y-85193986D01*
X159897891Y-85171228D01*
X159875919Y-85140072D01*
X159848842Y-85100458D01*
X159816619Y-85052328D01*
X159779211Y-84995623D01*
X159739466Y-84934733D01*
X159727320Y-84917343D01*
X159715543Y-84902648D01*
X159706369Y-84893402D01*
X159705155Y-84892521D01*
X159692920Y-84887915D01*
X159672516Y-84884156D01*
X159647030Y-84881686D01*
X159600880Y-84878696D01*
X159600880Y-85220560D01*
X159433240Y-85220560D01*
X159433240Y-84764445D01*
X159600880Y-84764445D01*
X159678350Y-84762242D01*
X159710242Y-84761121D01*
X159734204Y-84759648D01*
X159752466Y-84757534D01*
X159767257Y-84754491D01*
X159780809Y-84750229D01*
X159785826Y-84748336D01*
X159819667Y-84730383D01*
X159845596Y-84706091D01*
X159863500Y-84675636D01*
X159873265Y-84639191D01*
X159875200Y-84610965D01*
X159870620Y-84574409D01*
X159857394Y-84542518D01*
X159836293Y-84516250D01*
X159808088Y-84496566D01*
X159773551Y-84484424D01*
X159773472Y-84484407D01*
X159758859Y-84482146D01*
X159736815Y-84479813D01*
X159710063Y-84477648D01*
X159681328Y-84475896D01*
X159674329Y-84475559D01*
X159600880Y-84472222D01*
X159600880Y-84764445D01*
X159433240Y-84764445D01*
X159433240Y-84346045D01*
X159625010Y-84348143D01*
G36*
X161364910Y-84348039D02*
X161416831Y-84348519D01*
X161459682Y-84348995D01*
X161494554Y-84349525D01*
X161522535Y-84350168D01*
X161544716Y-84350983D01*
X161562187Y-84352029D01*
X161576037Y-84353364D01*
X161587357Y-84355048D01*
X161597237Y-84357139D01*
X161606766Y-84359696D01*
X161612543Y-84361411D01*
X161661002Y-84379941D01*
X161701664Y-84403722D01*
X161734075Y-84432405D01*
X161757776Y-84465645D01*
X161762593Y-84475291D01*
X161775381Y-84512931D01*
X161781614Y-84553799D01*
X161781315Y-84595135D01*
X161774505Y-84634178D01*
X161761206Y-84668168D01*
X161761071Y-84668417D01*
X161742348Y-84694959D01*
X161716593Y-84720560D01*
X161686778Y-84742532D01*
X161667088Y-84753377D01*
X161651574Y-84760934D01*
X161644222Y-84765451D01*
X161643967Y-84768143D01*
X161649746Y-84770223D01*
X161651848Y-84770750D01*
X161679196Y-84780219D01*
X161708473Y-84794828D01*
X161735970Y-84812414D01*
X161757975Y-84830819D01*
X161761619Y-84834663D01*
X161781909Y-84861269D01*
X161795432Y-84889466D01*
X161803041Y-84921755D01*
X161805589Y-84960636D01*
X161805600Y-84963757D01*
X161801482Y-85015496D01*
X161789055Y-85061573D01*
X161768203Y-85102142D01*
X161738811Y-85137353D01*
X161700767Y-85167360D01*
X161653955Y-85192312D01*
X161624701Y-85203840D01*
X161584620Y-85218007D01*
X161155360Y-85221161D01*
X161155360Y-84839560D01*
X161323000Y-84839560D01*
X161323000Y-85095078D01*
X161425870Y-85092172D01*
X161465108Y-85090850D01*
X161495743Y-85089277D01*
X161519331Y-85087312D01*
X161537427Y-85084808D01*
X161551588Y-85081625D01*
X161556490Y-85080132D01*
X161584643Y-85066657D01*
X161605541Y-85050529D01*
X161624775Y-85025824D01*
X161636750Y-84997062D01*
X161641555Y-84966273D01*
X161639277Y-84935491D01*
X161630002Y-84906748D01*
X161613819Y-84882075D01*
X161597693Y-84867803D01*
X161582135Y-84858584D01*
X161564487Y-84851488D01*
X161543283Y-84846282D01*
X161517056Y-84842732D01*
X161484339Y-84840603D01*
X161443665Y-84839660D01*
X161420992Y-84839560D01*
X161323000Y-84839560D01*
X161155360Y-84839560D01*
X161155360Y-84724318D01*
X161323000Y-84724318D01*
X161413170Y-84721156D01*
X161451489Y-84719380D01*
X161484140Y-84716993D01*
X161509680Y-84714128D01*
X161526665Y-84710918D01*
X161527963Y-84710546D01*
X161561808Y-84696693D01*
X161586908Y-84677946D01*
X161603730Y-84653700D01*
X161612740Y-84623347D01*
X161614650Y-84597850D01*
X161613782Y-84574510D01*
X161610272Y-84556495D01*
X161603149Y-84539106D01*
X161602032Y-84536890D01*
X161590552Y-84519397D01*
X161575157Y-84505196D01*
X161554898Y-84494018D01*
X161528829Y-84485595D01*
X161496003Y-84479658D01*
X161455472Y-84475938D01*
X161406289Y-84474166D01*
X161380150Y-84473931D01*
X161323000Y-84473800D01*
X161323000Y-84724318D01*
X161155360Y-84724318D01*
X161155360Y-84346186D01*
X161364910Y-84348039D01*
X161364910Y-84348039D01*
G37*
X161364910Y-84348039D02*
X161416831Y-84348519D01*
X161459682Y-84348995D01*
X161494554Y-84349525D01*
X161522535Y-84350168D01*
X161544716Y-84350983D01*
X161562187Y-84352029D01*
X161576037Y-84353364D01*
X161587357Y-84355048D01*
X161597237Y-84357139D01*
X161606766Y-84359696D01*
X161612543Y-84361411D01*
X161661002Y-84379941D01*
X161701664Y-84403722D01*
X161734075Y-84432405D01*
X161757776Y-84465645D01*
X161762593Y-84475291D01*
X161775381Y-84512931D01*
X161781614Y-84553799D01*
X161781315Y-84595135D01*
X161774505Y-84634178D01*
X161761206Y-84668168D01*
X161761071Y-84668417D01*
X161742348Y-84694959D01*
X161716593Y-84720560D01*
X161686778Y-84742532D01*
X161667088Y-84753377D01*
X161651574Y-84760934D01*
X161644222Y-84765451D01*
X161643967Y-84768143D01*
X161649746Y-84770223D01*
X161651848Y-84770750D01*
X161679196Y-84780219D01*
X161708473Y-84794828D01*
X161735970Y-84812414D01*
X161757975Y-84830819D01*
X161761619Y-84834663D01*
X161781909Y-84861269D01*
X161795432Y-84889466D01*
X161803041Y-84921755D01*
X161805589Y-84960636D01*
X161805600Y-84963757D01*
X161801482Y-85015496D01*
X161789055Y-85061573D01*
X161768203Y-85102142D01*
X161738811Y-85137353D01*
X161700767Y-85167360D01*
X161653955Y-85192312D01*
X161624701Y-85203840D01*
X161584620Y-85218007D01*
X161155360Y-85221161D01*
X161155360Y-84839560D01*
X161323000Y-84839560D01*
X161323000Y-85095078D01*
X161425870Y-85092172D01*
X161465108Y-85090850D01*
X161495743Y-85089277D01*
X161519331Y-85087312D01*
X161537427Y-85084808D01*
X161551588Y-85081625D01*
X161556490Y-85080132D01*
X161584643Y-85066657D01*
X161605541Y-85050529D01*
X161624775Y-85025824D01*
X161636750Y-84997062D01*
X161641555Y-84966273D01*
X161639277Y-84935491D01*
X161630002Y-84906748D01*
X161613819Y-84882075D01*
X161597693Y-84867803D01*
X161582135Y-84858584D01*
X161564487Y-84851488D01*
X161543283Y-84846282D01*
X161517056Y-84842732D01*
X161484339Y-84840603D01*
X161443665Y-84839660D01*
X161420992Y-84839560D01*
X161323000Y-84839560D01*
X161155360Y-84839560D01*
X161155360Y-84724318D01*
X161323000Y-84724318D01*
X161413170Y-84721156D01*
X161451489Y-84719380D01*
X161484140Y-84716993D01*
X161509680Y-84714128D01*
X161526665Y-84710918D01*
X161527963Y-84710546D01*
X161561808Y-84696693D01*
X161586908Y-84677946D01*
X161603730Y-84653700D01*
X161612740Y-84623347D01*
X161614650Y-84597850D01*
X161613782Y-84574510D01*
X161610272Y-84556495D01*
X161603149Y-84539106D01*
X161602032Y-84536890D01*
X161590552Y-84519397D01*
X161575157Y-84505196D01*
X161554898Y-84494018D01*
X161528829Y-84485595D01*
X161496003Y-84479658D01*
X161455472Y-84475938D01*
X161406289Y-84474166D01*
X161380150Y-84473931D01*
X161323000Y-84473800D01*
X161323000Y-84724318D01*
X161155360Y-84724318D01*
X161155360Y-84346186D01*
X161364910Y-84348039D01*
G36*
X162950155Y-84361012D02*
X162955398Y-84368427D01*
X162964708Y-84383627D01*
X162977427Y-84405404D01*
X162992896Y-84432549D01*
X163010454Y-84463853D01*
X163029444Y-84498110D01*
X163049204Y-84534109D01*
X163069078Y-84570644D01*
X163088404Y-84606505D01*
X163106524Y-84640484D01*
X163122779Y-84671372D01*
X163136508Y-84697963D01*
X163147054Y-84719046D01*
X163153757Y-84733414D01*
X163155037Y-84736538D01*
X163160620Y-84749472D01*
X163165223Y-84757257D01*
X163166599Y-84758280D01*
X163170101Y-84753987D01*
X163176179Y-84742721D01*
X163183532Y-84726899D01*
X163183694Y-84726530D01*
X163191609Y-84709493D01*
X163203101Y-84686303D01*
X163217531Y-84658133D01*
X163234255Y-84626158D01*
X163252632Y-84591551D01*
X163272021Y-84555487D01*
X163291780Y-84519140D01*
X163311269Y-84483685D01*
X163329844Y-84450295D01*
X163346865Y-84420145D01*
X163361691Y-84394409D01*
X163373679Y-84374261D01*
X163382188Y-84360876D01*
X163386368Y-84355561D01*
X163391921Y-84352206D01*
X163399264Y-84349852D01*
X163410032Y-84348371D01*
X163425862Y-84347633D01*
X163448390Y-84347511D01*
X163479253Y-84347876D01*
X163483310Y-84347941D01*
X163568214Y-84349340D01*
X163408267Y-84620689D01*
X163248320Y-84892039D01*
X163248320Y-85220560D01*
X163080680Y-85220560D01*
X163080680Y-84885098D01*
X162923200Y-84618742D01*
X162895170Y-84571289D01*
X162868736Y-84526451D01*
X162844342Y-84484988D01*
X162822433Y-84447659D01*
X162803454Y-84415226D01*
X162787850Y-84388447D01*
X162776064Y-84368083D01*
X162768542Y-84354894D01*
X162765729Y-84349640D01*
X162765720Y-84349593D01*
X162770523Y-84348672D01*
X162783827Y-84347878D01*
X162803975Y-84347267D01*
X162829306Y-84346893D01*
X162851129Y-84346800D01*
X162936539Y-84346800D01*
X162950155Y-84361012D01*
X162950155Y-84361012D01*
G37*
X162950155Y-84361012D02*
X162955398Y-84368427D01*
X162964708Y-84383627D01*
X162977427Y-84405404D01*
X162992896Y-84432549D01*
X163010454Y-84463853D01*
X163029444Y-84498110D01*
X163049204Y-84534109D01*
X163069078Y-84570644D01*
X163088404Y-84606505D01*
X163106524Y-84640484D01*
X163122779Y-84671372D01*
X163136508Y-84697963D01*
X163147054Y-84719046D01*
X163153757Y-84733414D01*
X163155037Y-84736538D01*
X163160620Y-84749472D01*
X163165223Y-84757257D01*
X163166599Y-84758280D01*
X163170101Y-84753987D01*
X163176179Y-84742721D01*
X163183532Y-84726899D01*
X163183694Y-84726530D01*
X163191609Y-84709493D01*
X163203101Y-84686303D01*
X163217531Y-84658133D01*
X163234255Y-84626158D01*
X163252632Y-84591551D01*
X163272021Y-84555487D01*
X163291780Y-84519140D01*
X163311269Y-84483685D01*
X163329844Y-84450295D01*
X163346865Y-84420145D01*
X163361691Y-84394409D01*
X163373679Y-84374261D01*
X163382188Y-84360876D01*
X163386368Y-84355561D01*
X163391921Y-84352206D01*
X163399264Y-84349852D01*
X163410032Y-84348371D01*
X163425862Y-84347633D01*
X163448390Y-84347511D01*
X163479253Y-84347876D01*
X163483310Y-84347941D01*
X163568214Y-84349340D01*
X163408267Y-84620689D01*
X163248320Y-84892039D01*
X163248320Y-85220560D01*
X163080680Y-85220560D01*
X163080680Y-84885098D01*
X162923200Y-84618742D01*
X162895170Y-84571289D01*
X162868736Y-84526451D01*
X162844342Y-84484988D01*
X162822433Y-84447659D01*
X162803454Y-84415226D01*
X162787850Y-84388447D01*
X162776064Y-84368083D01*
X162768542Y-84354894D01*
X162765729Y-84349640D01*
X162765720Y-84349593D01*
X162770523Y-84348672D01*
X162783827Y-84347878D01*
X162803975Y-84347267D01*
X162829306Y-84346893D01*
X162851129Y-84346800D01*
X162936539Y-84346800D01*
X162950155Y-84361012D01*
G36*
X167111411Y-82747658D02*
X167160303Y-82749034D01*
X167201791Y-82751227D01*
X167204248Y-82751404D01*
X167370730Y-82768617D01*
X167534856Y-82795619D01*
X167696263Y-82832236D01*
X167854589Y-82878297D01*
X168009470Y-82933628D01*
X168160545Y-82998056D01*
X168307451Y-83071410D01*
X168449824Y-83153515D01*
X168587304Y-83244199D01*
X168719526Y-83343290D01*
X168846128Y-83450614D01*
X168966748Y-83565999D01*
X169011488Y-83612506D01*
X169122388Y-83737802D01*
X169224852Y-83868680D01*
X169318766Y-84004894D01*
X169404014Y-84146197D01*
X169480485Y-84292344D01*
X169548064Y-84443091D01*
X169606637Y-84598190D01*
X169656090Y-84757396D01*
X169696310Y-84920465D01*
X169727184Y-85087149D01*
X169741027Y-85187580D01*
X169743688Y-85215614D01*
X169746056Y-85252158D01*
X169748107Y-85295565D01*
X169749818Y-85344188D01*
X169751168Y-85396379D01*
X169752131Y-85450493D01*
X169752687Y-85504881D01*
X169752810Y-85557898D01*
X169752479Y-85607897D01*
X169751671Y-85653229D01*
X169750362Y-85692250D01*
X169748529Y-85723311D01*
X169748521Y-85723409D01*
X169730425Y-85887738D01*
X169702523Y-86049947D01*
X169665024Y-86209636D01*
X169618137Y-86366405D01*
X169562068Y-86519853D01*
X169497026Y-86669580D01*
X169423220Y-86815186D01*
X169340858Y-86956271D01*
X169250147Y-87092433D01*
X169151295Y-87223273D01*
X169044512Y-87348391D01*
X168930005Y-87467385D01*
X168807982Y-87579856D01*
X168763827Y-87617365D01*
X168632339Y-87720164D01*
X168495556Y-87814370D01*
X168353820Y-87899844D01*
X168207475Y-87976444D01*
X168056863Y-88044030D01*
X167902328Y-88102462D01*
X167744213Y-88151599D01*
X167582861Y-88191300D01*
X167418615Y-88221425D01*
X167251818Y-88241834D01*
X167236220Y-88243230D01*
X167204605Y-88245421D01*
X167165273Y-88247283D01*
X167120337Y-88248791D01*
X167071909Y-88249916D01*
X167022102Y-88250634D01*
X166973029Y-88250917D01*
X166926802Y-88250740D01*
X166885534Y-88250076D01*
X166851338Y-88248899D01*
X166838694Y-88248187D01*
X166669062Y-88232042D01*
X166502378Y-88206308D01*
X166338908Y-88171099D01*
X166178916Y-88126529D01*
X166022667Y-88072712D01*
X165870427Y-88009763D01*
X165722461Y-87937796D01*
X165579033Y-87856925D01*
X165440408Y-87767265D01*
X165306852Y-87668929D01*
X165178630Y-87562031D01*
X165117269Y-87506036D01*
X164998879Y-87387867D01*
X164888479Y-87263571D01*
X164786241Y-87133510D01*
X164692338Y-86998048D01*
X164606943Y-86857546D01*
X164530229Y-86712369D01*
X164462370Y-86562880D01*
X164403537Y-86409441D01*
X164353904Y-86252416D01*
X164313644Y-86092168D01*
X164282930Y-85929060D01*
X164261935Y-85763454D01*
X164256484Y-85699168D01*
X164254235Y-85658243D01*
X164252806Y-85609784D01*
X164252158Y-85555741D01*
X164252254Y-85498065D01*
X164252845Y-85454280D01*
X165935866Y-85454280D01*
X165936087Y-85514867D01*
X165936800Y-85567255D01*
X165938154Y-85613398D01*
X165940296Y-85655249D01*
X165943376Y-85694763D01*
X165947541Y-85733895D01*
X165952939Y-85774598D01*
X165959719Y-85818827D01*
X165966683Y-85860680D01*
X165991321Y-85985767D01*
X166023172Y-86115784D01*
X166061644Y-86249155D01*
X166106146Y-86384306D01*
X166156085Y-86519660D01*
X166210869Y-86653644D01*
X166269907Y-86784683D01*
X166332605Y-86911201D01*
X166398373Y-87031623D01*
X166422138Y-87072260D01*
X166447850Y-87114150D01*
X166472392Y-87151070D01*
X166497458Y-87185163D01*
X166524739Y-87218577D01*
X166555927Y-87253455D01*
X166592714Y-87291944D01*
X166606237Y-87305668D01*
X166674539Y-87372063D01*
X166740032Y-87430339D01*
X166804180Y-87481594D01*
X166868445Y-87526927D01*
X166934292Y-87567436D01*
X167003183Y-87604220D01*
X167005625Y-87605432D01*
X167072865Y-87636631D01*
X167140523Y-87663591D01*
X167209818Y-87686574D01*
X167281972Y-87705841D01*
X167358208Y-87721653D01*
X167439746Y-87734271D01*
X167527807Y-87743955D01*
X167623614Y-87750968D01*
X167704301Y-87754743D01*
X167718468Y-87754065D01*
X167739174Y-87751605D01*
X167763042Y-87747805D01*
X167776346Y-87745295D01*
X167882126Y-87718969D01*
X167986227Y-87682724D01*
X168088740Y-87636520D01*
X168189759Y-87580316D01*
X168268715Y-87528715D01*
X168304948Y-87502443D01*
X168345856Y-87471048D01*
X168390005Y-87435764D01*
X168435964Y-87397826D01*
X168482299Y-87358467D01*
X168527577Y-87318921D01*
X168570365Y-87280423D01*
X168609230Y-87244207D01*
X168642740Y-87211506D01*
X168669357Y-87183669D01*
X168719078Y-87126571D01*
X168768026Y-87065833D01*
X168815342Y-87002772D01*
X168860168Y-86938702D01*
X168901646Y-86874939D01*
X168938916Y-86812800D01*
X168971120Y-86753600D01*
X168997399Y-86698654D01*
X169015547Y-86653160D01*
X169027166Y-86616683D01*
X169033669Y-86586920D01*
X169035291Y-86561946D01*
X169032266Y-86539838D01*
X169030229Y-86532655D01*
X169021899Y-86499183D01*
X169015174Y-86455850D01*
X169010045Y-86402582D01*
X169008557Y-86380480D01*
X169006914Y-86357285D01*
X169005091Y-86337827D01*
X169003327Y-86324354D01*
X169002048Y-86319279D01*
X168995985Y-86315091D01*
X168983461Y-86308816D01*
X168971213Y-86303494D01*
X168935191Y-86285805D01*
X168905050Y-86264111D01*
X168880055Y-86237333D01*
X168859472Y-86204396D01*
X168842567Y-86164221D01*
X168828606Y-86115733D01*
X168821731Y-86084200D01*
X168813109Y-86029984D01*
X168806872Y-85967299D01*
X168803003Y-85897547D01*
X168801488Y-85822131D01*
X168802310Y-85742453D01*
X168805454Y-85659917D01*
X168810904Y-85575924D01*
X168818644Y-85491878D01*
X168828658Y-85409181D01*
X168829391Y-85403857D01*
X168837683Y-85352621D01*
X168848851Y-85298523D01*
X168863299Y-85239881D01*
X168881436Y-85175012D01*
X168897507Y-85121894D01*
X168908001Y-85086596D01*
X168914749Y-85060223D01*
X168917856Y-85042298D01*
X168917630Y-85032994D01*
X168916992Y-85025817D01*
X168916273Y-85009339D01*
X168915490Y-84984422D01*
X168914662Y-84951926D01*
X168913807Y-84912708D01*
X168912943Y-84867631D01*
X168912087Y-84817553D01*
X168911258Y-84763335D01*
X168910474Y-84705836D01*
X168910024Y-84669420D01*
X168909099Y-84594866D01*
X168908178Y-84529436D01*
X168907209Y-84472094D01*
X168906143Y-84421802D01*
X168904928Y-84377525D01*
X168903514Y-84338228D01*
X168901851Y-84302872D01*
X168899886Y-84270422D01*
X168897570Y-84239843D01*
X168894853Y-84210097D01*
X168891682Y-84180148D01*
X168888009Y-84148961D01*
X168883781Y-84115498D01*
X168882415Y-84104995D01*
X168873450Y-84042533D01*
X168862637Y-83977182D01*
X168850663Y-83912772D01*
X168838216Y-83853131D01*
X168833201Y-83831220D01*
X168827194Y-83805740D01*
X168821859Y-83783078D01*
X168817719Y-83765465D01*
X168815300Y-83755135D01*
X168815099Y-83754273D01*
X168809514Y-83744596D01*
X168796770Y-83730140D01*
X168778059Y-83711912D01*
X168754573Y-83690920D01*
X168727505Y-83668170D01*
X168698047Y-83644671D01*
X168667391Y-83621430D01*
X168636729Y-83599454D01*
X168612900Y-83583398D01*
X168519663Y-83528561D01*
X168420366Y-83481665D01*
X168314885Y-83442665D01*
X168203099Y-83411515D01*
X168084885Y-83388173D01*
X168074420Y-83386529D01*
X168029797Y-83380994D01*
X167977546Y-83376733D01*
X167920123Y-83373789D01*
X167859984Y-83372208D01*
X167799587Y-83372036D01*
X167741389Y-83373316D01*
X167687846Y-83376094D01*
X167655320Y-83378864D01*
X167518305Y-83396876D01*
X167386889Y-83422248D01*
X167261374Y-83454863D01*
X167142065Y-83494607D01*
X167029262Y-83541362D01*
X166923270Y-83595014D01*
X166824391Y-83655447D01*
X166732928Y-83722544D01*
X166712307Y-83739465D01*
X166679118Y-83768484D01*
X166646726Y-83799428D01*
X166613635Y-83833870D01*
X166578349Y-83873378D01*
X166539372Y-83919524D01*
X166530517Y-83930280D01*
X166426906Y-84062732D01*
X166333379Y-84195187D01*
X166249858Y-84327797D01*
X166176268Y-84460716D01*
X166112533Y-84594098D01*
X166058577Y-84728098D01*
X166014324Y-84862867D01*
X165979697Y-84998561D01*
X165964339Y-85075820D01*
X165956862Y-85118964D01*
X165950787Y-85157561D01*
X165945975Y-85193452D01*
X165942287Y-85228477D01*
X165939585Y-85264477D01*
X165937730Y-85303291D01*
X165936585Y-85346762D01*
X165936009Y-85396729D01*
X165935866Y-85454280D01*
X164252845Y-85454280D01*
X164253056Y-85438704D01*
X164254526Y-85379611D01*
X164256624Y-85322735D01*
X164259314Y-85270027D01*
X164262556Y-85223437D01*
X164266314Y-85184915D01*
X164266582Y-85182680D01*
X164292056Y-85013148D01*
X164326728Y-84847926D01*
X164370629Y-84686938D01*
X164423792Y-84530112D01*
X164486249Y-84377374D01*
X164558030Y-84228650D01*
X164639169Y-84083866D01*
X164729697Y-83942948D01*
X164829646Y-83805822D01*
X164897157Y-83721718D01*
X164922254Y-83692734D01*
X164953460Y-83658564D01*
X164989254Y-83620728D01*
X165028116Y-83580747D01*
X165068523Y-83540143D01*
X165108955Y-83500438D01*
X165147890Y-83463151D01*
X165183808Y-83429805D01*
X165215186Y-83401920D01*
X165226798Y-83392077D01*
X165343126Y-83299763D01*
X165460135Y-83216075D01*
X165579986Y-83139586D01*
X165704836Y-83068870D01*
X165757940Y-83041230D01*
X165903201Y-82972517D01*
X166050453Y-82913076D01*
X166200545Y-82862650D01*
X166354324Y-82820984D01*
X166512640Y-82787823D01*
X166676342Y-82762911D01*
X166687760Y-82761502D01*
X166725674Y-82757711D01*
X166771787Y-82754433D01*
X166824148Y-82751705D01*
X166880806Y-82749566D01*
X166939812Y-82748054D01*
X166999215Y-82747206D01*
X167057065Y-82747062D01*
X167111411Y-82747658D01*
X167111411Y-82747658D01*
G37*
X167111411Y-82747658D02*
X167160303Y-82749034D01*
X167201791Y-82751227D01*
X167204248Y-82751404D01*
X167370730Y-82768617D01*
X167534856Y-82795619D01*
X167696263Y-82832236D01*
X167854589Y-82878297D01*
X168009470Y-82933628D01*
X168160545Y-82998056D01*
X168307451Y-83071410D01*
X168449824Y-83153515D01*
X168587304Y-83244199D01*
X168719526Y-83343290D01*
X168846128Y-83450614D01*
X168966748Y-83565999D01*
X169011488Y-83612506D01*
X169122388Y-83737802D01*
X169224852Y-83868680D01*
X169318766Y-84004894D01*
X169404014Y-84146197D01*
X169480485Y-84292344D01*
X169548064Y-84443091D01*
X169606637Y-84598190D01*
X169656090Y-84757396D01*
X169696310Y-84920465D01*
X169727184Y-85087149D01*
X169741027Y-85187580D01*
X169743688Y-85215614D01*
X169746056Y-85252158D01*
X169748107Y-85295565D01*
X169749818Y-85344188D01*
X169751168Y-85396379D01*
X169752131Y-85450493D01*
X169752687Y-85504881D01*
X169752810Y-85557898D01*
X169752479Y-85607897D01*
X169751671Y-85653229D01*
X169750362Y-85692250D01*
X169748529Y-85723311D01*
X169748521Y-85723409D01*
X169730425Y-85887738D01*
X169702523Y-86049947D01*
X169665024Y-86209636D01*
X169618137Y-86366405D01*
X169562068Y-86519853D01*
X169497026Y-86669580D01*
X169423220Y-86815186D01*
X169340858Y-86956271D01*
X169250147Y-87092433D01*
X169151295Y-87223273D01*
X169044512Y-87348391D01*
X168930005Y-87467385D01*
X168807982Y-87579856D01*
X168763827Y-87617365D01*
X168632339Y-87720164D01*
X168495556Y-87814370D01*
X168353820Y-87899844D01*
X168207475Y-87976444D01*
X168056863Y-88044030D01*
X167902328Y-88102462D01*
X167744213Y-88151599D01*
X167582861Y-88191300D01*
X167418615Y-88221425D01*
X167251818Y-88241834D01*
X167236220Y-88243230D01*
X167204605Y-88245421D01*
X167165273Y-88247283D01*
X167120337Y-88248791D01*
X167071909Y-88249916D01*
X167022102Y-88250634D01*
X166973029Y-88250917D01*
X166926802Y-88250740D01*
X166885534Y-88250076D01*
X166851338Y-88248899D01*
X166838694Y-88248187D01*
X166669062Y-88232042D01*
X166502378Y-88206308D01*
X166338908Y-88171099D01*
X166178916Y-88126529D01*
X166022667Y-88072712D01*
X165870427Y-88009763D01*
X165722461Y-87937796D01*
X165579033Y-87856925D01*
X165440408Y-87767265D01*
X165306852Y-87668929D01*
X165178630Y-87562031D01*
X165117269Y-87506036D01*
X164998879Y-87387867D01*
X164888479Y-87263571D01*
X164786241Y-87133510D01*
X164692338Y-86998048D01*
X164606943Y-86857546D01*
X164530229Y-86712369D01*
X164462370Y-86562880D01*
X164403537Y-86409441D01*
X164353904Y-86252416D01*
X164313644Y-86092168D01*
X164282930Y-85929060D01*
X164261935Y-85763454D01*
X164256484Y-85699168D01*
X164254235Y-85658243D01*
X164252806Y-85609784D01*
X164252158Y-85555741D01*
X164252254Y-85498065D01*
X164252845Y-85454280D01*
X165935866Y-85454280D01*
X165936087Y-85514867D01*
X165936800Y-85567255D01*
X165938154Y-85613398D01*
X165940296Y-85655249D01*
X165943376Y-85694763D01*
X165947541Y-85733895D01*
X165952939Y-85774598D01*
X165959719Y-85818827D01*
X165966683Y-85860680D01*
X165991321Y-85985767D01*
X166023172Y-86115784D01*
X166061644Y-86249155D01*
X166106146Y-86384306D01*
X166156085Y-86519660D01*
X166210869Y-86653644D01*
X166269907Y-86784683D01*
X166332605Y-86911201D01*
X166398373Y-87031623D01*
X166422138Y-87072260D01*
X166447850Y-87114150D01*
X166472392Y-87151070D01*
X166497458Y-87185163D01*
X166524739Y-87218577D01*
X166555927Y-87253455D01*
X166592714Y-87291944D01*
X166606237Y-87305668D01*
X166674539Y-87372063D01*
X166740032Y-87430339D01*
X166804180Y-87481594D01*
X166868445Y-87526927D01*
X166934292Y-87567436D01*
X167003183Y-87604220D01*
X167005625Y-87605432D01*
X167072865Y-87636631D01*
X167140523Y-87663591D01*
X167209818Y-87686574D01*
X167281972Y-87705841D01*
X167358208Y-87721653D01*
X167439746Y-87734271D01*
X167527807Y-87743955D01*
X167623614Y-87750968D01*
X167704301Y-87754743D01*
X167718468Y-87754065D01*
X167739174Y-87751605D01*
X167763042Y-87747805D01*
X167776346Y-87745295D01*
X167882126Y-87718969D01*
X167986227Y-87682724D01*
X168088740Y-87636520D01*
X168189759Y-87580316D01*
X168268715Y-87528715D01*
X168304948Y-87502443D01*
X168345856Y-87471048D01*
X168390005Y-87435764D01*
X168435964Y-87397826D01*
X168482299Y-87358467D01*
X168527577Y-87318921D01*
X168570365Y-87280423D01*
X168609230Y-87244207D01*
X168642740Y-87211506D01*
X168669357Y-87183669D01*
X168719078Y-87126571D01*
X168768026Y-87065833D01*
X168815342Y-87002772D01*
X168860168Y-86938702D01*
X168901646Y-86874939D01*
X168938916Y-86812800D01*
X168971120Y-86753600D01*
X168997399Y-86698654D01*
X169015547Y-86653160D01*
X169027166Y-86616683D01*
X169033669Y-86586920D01*
X169035291Y-86561946D01*
X169032266Y-86539838D01*
X169030229Y-86532655D01*
X169021899Y-86499183D01*
X169015174Y-86455850D01*
X169010045Y-86402582D01*
X169008557Y-86380480D01*
X169006914Y-86357285D01*
X169005091Y-86337827D01*
X169003327Y-86324354D01*
X169002048Y-86319279D01*
X168995985Y-86315091D01*
X168983461Y-86308816D01*
X168971213Y-86303494D01*
X168935191Y-86285805D01*
X168905050Y-86264111D01*
X168880055Y-86237333D01*
X168859472Y-86204396D01*
X168842567Y-86164221D01*
X168828606Y-86115733D01*
X168821731Y-86084200D01*
X168813109Y-86029984D01*
X168806872Y-85967299D01*
X168803003Y-85897547D01*
X168801488Y-85822131D01*
X168802310Y-85742453D01*
X168805454Y-85659917D01*
X168810904Y-85575924D01*
X168818644Y-85491878D01*
X168828658Y-85409181D01*
X168829391Y-85403857D01*
X168837683Y-85352621D01*
X168848851Y-85298523D01*
X168863299Y-85239881D01*
X168881436Y-85175012D01*
X168897507Y-85121894D01*
X168908001Y-85086596D01*
X168914749Y-85060223D01*
X168917856Y-85042298D01*
X168917630Y-85032994D01*
X168916992Y-85025817D01*
X168916273Y-85009339D01*
X168915490Y-84984422D01*
X168914662Y-84951926D01*
X168913807Y-84912708D01*
X168912943Y-84867631D01*
X168912087Y-84817553D01*
X168911258Y-84763335D01*
X168910474Y-84705836D01*
X168910024Y-84669420D01*
X168909099Y-84594866D01*
X168908178Y-84529436D01*
X168907209Y-84472094D01*
X168906143Y-84421802D01*
X168904928Y-84377525D01*
X168903514Y-84338228D01*
X168901851Y-84302872D01*
X168899886Y-84270422D01*
X168897570Y-84239843D01*
X168894853Y-84210097D01*
X168891682Y-84180148D01*
X168888009Y-84148961D01*
X168883781Y-84115498D01*
X168882415Y-84104995D01*
X168873450Y-84042533D01*
X168862637Y-83977182D01*
X168850663Y-83912772D01*
X168838216Y-83853131D01*
X168833201Y-83831220D01*
X168827194Y-83805740D01*
X168821859Y-83783078D01*
X168817719Y-83765465D01*
X168815300Y-83755135D01*
X168815099Y-83754273D01*
X168809514Y-83744596D01*
X168796770Y-83730140D01*
X168778059Y-83711912D01*
X168754573Y-83690920D01*
X168727505Y-83668170D01*
X168698047Y-83644671D01*
X168667391Y-83621430D01*
X168636729Y-83599454D01*
X168612900Y-83583398D01*
X168519663Y-83528561D01*
X168420366Y-83481665D01*
X168314885Y-83442665D01*
X168203099Y-83411515D01*
X168084885Y-83388173D01*
X168074420Y-83386529D01*
X168029797Y-83380994D01*
X167977546Y-83376733D01*
X167920123Y-83373789D01*
X167859984Y-83372208D01*
X167799587Y-83372036D01*
X167741389Y-83373316D01*
X167687846Y-83376094D01*
X167655320Y-83378864D01*
X167518305Y-83396876D01*
X167386889Y-83422248D01*
X167261374Y-83454863D01*
X167142065Y-83494607D01*
X167029262Y-83541362D01*
X166923270Y-83595014D01*
X166824391Y-83655447D01*
X166732928Y-83722544D01*
X166712307Y-83739465D01*
X166679118Y-83768484D01*
X166646726Y-83799428D01*
X166613635Y-83833870D01*
X166578349Y-83873378D01*
X166539372Y-83919524D01*
X166530517Y-83930280D01*
X166426906Y-84062732D01*
X166333379Y-84195187D01*
X166249858Y-84327797D01*
X166176268Y-84460716D01*
X166112533Y-84594098D01*
X166058577Y-84728098D01*
X166014324Y-84862867D01*
X165979697Y-84998561D01*
X165964339Y-85075820D01*
X165956862Y-85118964D01*
X165950787Y-85157561D01*
X165945975Y-85193452D01*
X165942287Y-85228477D01*
X165939585Y-85264477D01*
X165937730Y-85303291D01*
X165936585Y-85346762D01*
X165936009Y-85396729D01*
X165935866Y-85454280D01*
X164252845Y-85454280D01*
X164253056Y-85438704D01*
X164254526Y-85379611D01*
X164256624Y-85322735D01*
X164259314Y-85270027D01*
X164262556Y-85223437D01*
X164266314Y-85184915D01*
X164266582Y-85182680D01*
X164292056Y-85013148D01*
X164326728Y-84847926D01*
X164370629Y-84686938D01*
X164423792Y-84530112D01*
X164486249Y-84377374D01*
X164558030Y-84228650D01*
X164639169Y-84083866D01*
X164729697Y-83942948D01*
X164829646Y-83805822D01*
X164897157Y-83721718D01*
X164922254Y-83692734D01*
X164953460Y-83658564D01*
X164989254Y-83620728D01*
X165028116Y-83580747D01*
X165068523Y-83540143D01*
X165108955Y-83500438D01*
X165147890Y-83463151D01*
X165183808Y-83429805D01*
X165215186Y-83401920D01*
X165226798Y-83392077D01*
X165343126Y-83299763D01*
X165460135Y-83216075D01*
X165579986Y-83139586D01*
X165704836Y-83068870D01*
X165757940Y-83041230D01*
X165903201Y-82972517D01*
X166050453Y-82913076D01*
X166200545Y-82862650D01*
X166354324Y-82820984D01*
X166512640Y-82787823D01*
X166676342Y-82762911D01*
X166687760Y-82761502D01*
X166725674Y-82757711D01*
X166771787Y-82754433D01*
X166824148Y-82751705D01*
X166880806Y-82749566D01*
X166939812Y-82748054D01*
X166999215Y-82747206D01*
X167057065Y-82747062D01*
X167111411Y-82747658D01*
G36*
X166524466Y-86429926D02*
X166539554Y-86441333D01*
X166541789Y-86443610D01*
X166557997Y-86464076D01*
X166571303Y-86487188D01*
X166581395Y-86511348D01*
X166587961Y-86534960D01*
X166590691Y-86556426D01*
X166589274Y-86574150D01*
X166583397Y-86586535D01*
X166572750Y-86591983D01*
X166570740Y-86592103D01*
X166563319Y-86589690D01*
X166551818Y-86583702D01*
X166550097Y-86582671D01*
X166533099Y-86567908D01*
X166517367Y-86546401D01*
X166503917Y-86520683D01*
X166493764Y-86493289D01*
X166487921Y-86466754D01*
X166487405Y-86443613D01*
X166490003Y-86432595D01*
X166497422Y-86425074D01*
X166509666Y-86424345D01*
X166524466Y-86429926D01*
X166524466Y-86429926D01*
G37*
X166524466Y-86429926D02*
X166539554Y-86441333D01*
X166541789Y-86443610D01*
X166557997Y-86464076D01*
X166571303Y-86487188D01*
X166581395Y-86511348D01*
X166587961Y-86534960D01*
X166590691Y-86556426D01*
X166589274Y-86574150D01*
X166583397Y-86586535D01*
X166572750Y-86591983D01*
X166570740Y-86592103D01*
X166563319Y-86589690D01*
X166551818Y-86583702D01*
X166550097Y-86582671D01*
X166533099Y-86567908D01*
X166517367Y-86546401D01*
X166503917Y-86520683D01*
X166493764Y-86493289D01*
X166487921Y-86466754D01*
X166487405Y-86443613D01*
X166490003Y-86432595D01*
X166497422Y-86425074D01*
X166509666Y-86424345D01*
X166524466Y-86429926D01*
G36*
X167963667Y-86151102D02*
X167976744Y-86154493D01*
X167988048Y-86161622D01*
X167990392Y-86163545D01*
X168009692Y-86185382D01*
X168019619Y-86209859D01*
X168019926Y-86235768D01*
X168010441Y-86261765D01*
X167996012Y-86280859D01*
X167977537Y-86292325D01*
X167953024Y-86297210D01*
X167942228Y-86297560D01*
X167924829Y-86296947D01*
X167913155Y-86293934D01*
X167902794Y-86286758D01*
X167893903Y-86278259D01*
X167877278Y-86255369D01*
X167869936Y-86230434D01*
X167871832Y-86205206D01*
X167882919Y-86181436D01*
X167896859Y-86165951D01*
X167908713Y-86156754D01*
X167920030Y-86152033D01*
X167935130Y-86150369D01*
X167944667Y-86150240D01*
X167963667Y-86151102D01*
X167963667Y-86151102D01*
G37*
X167963667Y-86151102D02*
X167976744Y-86154493D01*
X167988048Y-86161622D01*
X167990392Y-86163545D01*
X168009692Y-86185382D01*
X168019619Y-86209859D01*
X168019926Y-86235768D01*
X168010441Y-86261765D01*
X167996012Y-86280859D01*
X167977537Y-86292325D01*
X167953024Y-86297210D01*
X167942228Y-86297560D01*
X167924829Y-86296947D01*
X167913155Y-86293934D01*
X167902794Y-86286758D01*
X167893903Y-86278259D01*
X167877278Y-86255369D01*
X167869936Y-86230434D01*
X167871832Y-86205206D01*
X167882919Y-86181436D01*
X167896859Y-86165951D01*
X167908713Y-86156754D01*
X167920030Y-86152033D01*
X167935130Y-86150369D01*
X167944667Y-86150240D01*
X167963667Y-86151102D01*
G36*
X167624692Y-87531830D02*
X167628884Y-87537238D01*
X167629842Y-87545434D01*
X167625424Y-87550854D01*
X167613375Y-87558710D01*
X167595655Y-87568093D01*
X167574225Y-87578090D01*
X167551046Y-87587791D01*
X167528078Y-87596284D01*
X167507282Y-87602659D01*
X167505917Y-87603013D01*
X167462856Y-87610486D01*
X167414361Y-87612860D01*
X167363785Y-87610138D01*
X167317500Y-87602965D01*
X167290200Y-87597186D01*
X167271309Y-87592973D01*
X167259286Y-87589840D01*
X167252588Y-87587302D01*
X167249673Y-87584876D01*
X167248999Y-87582076D01*
X167248997Y-87581433D01*
X167250026Y-87573727D01*
X167253898Y-87569084D01*
X167262140Y-87567369D01*
X167276276Y-87568449D01*
X167297832Y-87572190D01*
X167314960Y-87575657D01*
X167373922Y-87585109D01*
X167427388Y-87587441D01*
X167477312Y-87582442D01*
X167525646Y-87569901D01*
X167574342Y-87549609D01*
X167579221Y-87547188D01*
X167601207Y-87536758D01*
X167615915Y-87531654D01*
X167624692Y-87531830D01*
X167624692Y-87531830D01*
G37*
X167624692Y-87531830D02*
X167628884Y-87537238D01*
X167629842Y-87545434D01*
X167625424Y-87550854D01*
X167613375Y-87558710D01*
X167595655Y-87568093D01*
X167574225Y-87578090D01*
X167551046Y-87587791D01*
X167528078Y-87596284D01*
X167507282Y-87602659D01*
X167505917Y-87603013D01*
X167462856Y-87610486D01*
X167414361Y-87612860D01*
X167363785Y-87610138D01*
X167317500Y-87602965D01*
X167290200Y-87597186D01*
X167271309Y-87592973D01*
X167259286Y-87589840D01*
X167252588Y-87587302D01*
X167249673Y-87584876D01*
X167248999Y-87582076D01*
X167248997Y-87581433D01*
X167250026Y-87573727D01*
X167253898Y-87569084D01*
X167262140Y-87567369D01*
X167276276Y-87568449D01*
X167297832Y-87572190D01*
X167314960Y-87575657D01*
X167373922Y-87585109D01*
X167427388Y-87587441D01*
X167477312Y-87582442D01*
X167525646Y-87569901D01*
X167574342Y-87549609D01*
X167579221Y-87547188D01*
X167601207Y-87536758D01*
X167615915Y-87531654D01*
X167624692Y-87531830D01*
G36*
X166293665Y-86092400D02*
X166311199Y-86094815D01*
X166327879Y-86100076D01*
X166346678Y-86108404D01*
X166396544Y-86136810D01*
X166446028Y-86174026D01*
X166494186Y-86218713D01*
X166540077Y-86269536D01*
X166582757Y-86325158D01*
X166621285Y-86384244D01*
X166654717Y-86445456D01*
X166682112Y-86507459D01*
X166702526Y-86568917D01*
X166715018Y-86628492D01*
X166715381Y-86631129D01*
X166718149Y-86674196D01*
X166714456Y-86712257D01*
X166704593Y-86744427D01*
X166688853Y-86769822D01*
X166667525Y-86787556D01*
X166663187Y-86789832D01*
X166635219Y-86798318D01*
X166603409Y-86799581D01*
X166571189Y-86793488D01*
X166570740Y-86793346D01*
X166527203Y-86775057D01*
X166482270Y-86747842D01*
X166436881Y-86712665D01*
X166391976Y-86670487D01*
X166348495Y-86622272D01*
X166307378Y-86568982D01*
X166269565Y-86511579D01*
X166235996Y-86451026D01*
X166235540Y-86450119D01*
X166210181Y-86395845D01*
X166201711Y-86373574D01*
X166355284Y-86373574D01*
X166355543Y-86401315D01*
X166358121Y-86429311D01*
X166362567Y-86452702D01*
X166372407Y-86482865D01*
X166386999Y-86517156D01*
X166404535Y-86551944D01*
X166423208Y-86583596D01*
X166438382Y-86605022D01*
X166469895Y-86640806D01*
X166501152Y-86668895D01*
X166531506Y-86689000D01*
X166560309Y-86700834D01*
X166586913Y-86704109D01*
X166610670Y-86698538D01*
X166626133Y-86688466D01*
X166640767Y-86671999D01*
X166650019Y-86652003D01*
X166654606Y-86626313D01*
X166655402Y-86600316D01*
X166651584Y-86561085D01*
X166641587Y-86520767D01*
X166626265Y-86480451D01*
X166606466Y-86441228D01*
X166583042Y-86404188D01*
X166556844Y-86370421D01*
X166528723Y-86341018D01*
X166499529Y-86317069D01*
X166470113Y-86299664D01*
X166441326Y-86289894D01*
X166414019Y-86288849D01*
X166412521Y-86289075D01*
X166390226Y-86297610D01*
X166371870Y-86314429D01*
X166361805Y-86331686D01*
X166357365Y-86349295D01*
X166355284Y-86373574D01*
X166201711Y-86373574D01*
X166191505Y-86346742D01*
X166178956Y-86300850D01*
X166171980Y-86256209D01*
X166170024Y-86218820D01*
X166170147Y-86193734D01*
X166171356Y-86175780D01*
X166174108Y-86161950D01*
X166178861Y-86149235D01*
X166181443Y-86143751D01*
X166192212Y-86126421D01*
X166205671Y-86110733D01*
X166211471Y-86105651D01*
X166221774Y-86098608D01*
X166231873Y-86094452D01*
X166244939Y-86092443D01*
X166264145Y-86091838D01*
X166270641Y-86091820D01*
X166293665Y-86092400D01*
X166293665Y-86092400D01*
G37*
X166293665Y-86092400D02*
X166311199Y-86094815D01*
X166327879Y-86100076D01*
X166346678Y-86108404D01*
X166396544Y-86136810D01*
X166446028Y-86174026D01*
X166494186Y-86218713D01*
X166540077Y-86269536D01*
X166582757Y-86325158D01*
X166621285Y-86384244D01*
X166654717Y-86445456D01*
X166682112Y-86507459D01*
X166702526Y-86568917D01*
X166715018Y-86628492D01*
X166715381Y-86631129D01*
X166718149Y-86674196D01*
X166714456Y-86712257D01*
X166704593Y-86744427D01*
X166688853Y-86769822D01*
X166667525Y-86787556D01*
X166663187Y-86789832D01*
X166635219Y-86798318D01*
X166603409Y-86799581D01*
X166571189Y-86793488D01*
X166570740Y-86793346D01*
X166527203Y-86775057D01*
X166482270Y-86747842D01*
X166436881Y-86712665D01*
X166391976Y-86670487D01*
X166348495Y-86622272D01*
X166307378Y-86568982D01*
X166269565Y-86511579D01*
X166235996Y-86451026D01*
X166235540Y-86450119D01*
X166210181Y-86395845D01*
X166201711Y-86373574D01*
X166355284Y-86373574D01*
X166355543Y-86401315D01*
X166358121Y-86429311D01*
X166362567Y-86452702D01*
X166372407Y-86482865D01*
X166386999Y-86517156D01*
X166404535Y-86551944D01*
X166423208Y-86583596D01*
X166438382Y-86605022D01*
X166469895Y-86640806D01*
X166501152Y-86668895D01*
X166531506Y-86689000D01*
X166560309Y-86700834D01*
X166586913Y-86704109D01*
X166610670Y-86698538D01*
X166626133Y-86688466D01*
X166640767Y-86671999D01*
X166650019Y-86652003D01*
X166654606Y-86626313D01*
X166655402Y-86600316D01*
X166651584Y-86561085D01*
X166641587Y-86520767D01*
X166626265Y-86480451D01*
X166606466Y-86441228D01*
X166583042Y-86404188D01*
X166556844Y-86370421D01*
X166528723Y-86341018D01*
X166499529Y-86317069D01*
X166470113Y-86299664D01*
X166441326Y-86289894D01*
X166414019Y-86288849D01*
X166412521Y-86289075D01*
X166390226Y-86297610D01*
X166371870Y-86314429D01*
X166361805Y-86331686D01*
X166357365Y-86349295D01*
X166355284Y-86373574D01*
X166201711Y-86373574D01*
X166191505Y-86346742D01*
X166178956Y-86300850D01*
X166171980Y-86256209D01*
X166170024Y-86218820D01*
X166170147Y-86193734D01*
X166171356Y-86175780D01*
X166174108Y-86161950D01*
X166178861Y-86149235D01*
X166181443Y-86143751D01*
X166192212Y-86126421D01*
X166205671Y-86110733D01*
X166211471Y-86105651D01*
X166221774Y-86098608D01*
X166231873Y-86094452D01*
X166244939Y-86092443D01*
X166264145Y-86091838D01*
X166270641Y-86091820D01*
X166293665Y-86092400D01*
G36*
X167918423Y-85901777D02*
X167956263Y-85905066D01*
X167976759Y-85908897D01*
X168028390Y-85925874D01*
X168073060Y-85949654D01*
X168110646Y-85979527D01*
X168141024Y-86014781D01*
X168164071Y-86054703D01*
X168179661Y-86098583D01*
X168187672Y-86145708D01*
X168187980Y-86195366D01*
X168180461Y-86246846D01*
X168164990Y-86299436D01*
X168141445Y-86352424D01*
X168109701Y-86405099D01*
X168071669Y-86454398D01*
X168022024Y-86505506D01*
X167967034Y-86550255D01*
X167907863Y-86588142D01*
X167845678Y-86618666D01*
X167781645Y-86641325D01*
X167716929Y-86655617D01*
X167652695Y-86661041D01*
X167598218Y-86658169D01*
X167543393Y-86647107D01*
X167494297Y-86628036D01*
X167451371Y-86601148D01*
X167432887Y-86585333D01*
X167401140Y-86551436D01*
X167378000Y-86516962D01*
X167362118Y-86479320D01*
X167352141Y-86435916D01*
X167350986Y-86428145D01*
X167348426Y-86373755D01*
X167355286Y-86318691D01*
X167370934Y-86263752D01*
X167384275Y-86233475D01*
X167749164Y-86233475D01*
X167751545Y-86255112D01*
X167764506Y-86299304D01*
X167785689Y-86338657D01*
X167814198Y-86372122D01*
X167849137Y-86398653D01*
X167889610Y-86417204D01*
X167890453Y-86417481D01*
X167910411Y-86421460D01*
X167937461Y-86423152D01*
X167955684Y-86422976D01*
X167979938Y-86421571D01*
X167998324Y-86418634D01*
X168015122Y-86413176D01*
X168032690Y-86405155D01*
X168069679Y-86381788D01*
X168100282Y-86351948D01*
X168123754Y-86317048D01*
X168139349Y-86278504D01*
X168146322Y-86237728D01*
X168143925Y-86196134D01*
X168143670Y-86194722D01*
X168130966Y-86152824D01*
X168109644Y-86114438D01*
X168080985Y-86081215D01*
X168046270Y-86054806D01*
X168027445Y-86044858D01*
X167997518Y-86035350D01*
X167962396Y-86030786D01*
X167925790Y-86031225D01*
X167891413Y-86036724D01*
X167873531Y-86042426D01*
X167838383Y-86061486D01*
X167807691Y-86087944D01*
X167782440Y-86120087D01*
X167763613Y-86156199D01*
X167752193Y-86194567D01*
X167749164Y-86233475D01*
X167384275Y-86233475D01*
X167394736Y-86209736D01*
X167426061Y-86157441D01*
X167464274Y-86107666D01*
X167508745Y-86061207D01*
X167558840Y-86018864D01*
X167613926Y-85981434D01*
X167673370Y-85949716D01*
X167736541Y-85924507D01*
X167754886Y-85918701D01*
X167791263Y-85910238D01*
X167832757Y-85904503D01*
X167876199Y-85901636D01*
X167918423Y-85901777D01*
X167918423Y-85901777D01*
G37*
X167918423Y-85901777D02*
X167956263Y-85905066D01*
X167976759Y-85908897D01*
X168028390Y-85925874D01*
X168073060Y-85949654D01*
X168110646Y-85979527D01*
X168141024Y-86014781D01*
X168164071Y-86054703D01*
X168179661Y-86098583D01*
X168187672Y-86145708D01*
X168187980Y-86195366D01*
X168180461Y-86246846D01*
X168164990Y-86299436D01*
X168141445Y-86352424D01*
X168109701Y-86405099D01*
X168071669Y-86454398D01*
X168022024Y-86505506D01*
X167967034Y-86550255D01*
X167907863Y-86588142D01*
X167845678Y-86618666D01*
X167781645Y-86641325D01*
X167716929Y-86655617D01*
X167652695Y-86661041D01*
X167598218Y-86658169D01*
X167543393Y-86647107D01*
X167494297Y-86628036D01*
X167451371Y-86601148D01*
X167432887Y-86585333D01*
X167401140Y-86551436D01*
X167378000Y-86516962D01*
X167362118Y-86479320D01*
X167352141Y-86435916D01*
X167350986Y-86428145D01*
X167348426Y-86373755D01*
X167355286Y-86318691D01*
X167370934Y-86263752D01*
X167384275Y-86233475D01*
X167749164Y-86233475D01*
X167751545Y-86255112D01*
X167764506Y-86299304D01*
X167785689Y-86338657D01*
X167814198Y-86372122D01*
X167849137Y-86398653D01*
X167889610Y-86417204D01*
X167890453Y-86417481D01*
X167910411Y-86421460D01*
X167937461Y-86423152D01*
X167955684Y-86422976D01*
X167979938Y-86421571D01*
X167998324Y-86418634D01*
X168015122Y-86413176D01*
X168032690Y-86405155D01*
X168069679Y-86381788D01*
X168100282Y-86351948D01*
X168123754Y-86317048D01*
X168139349Y-86278504D01*
X168146322Y-86237728D01*
X168143925Y-86196134D01*
X168143670Y-86194722D01*
X168130966Y-86152824D01*
X168109644Y-86114438D01*
X168080985Y-86081215D01*
X168046270Y-86054806D01*
X168027445Y-86044858D01*
X167997518Y-86035350D01*
X167962396Y-86030786D01*
X167925790Y-86031225D01*
X167891413Y-86036724D01*
X167873531Y-86042426D01*
X167838383Y-86061486D01*
X167807691Y-86087944D01*
X167782440Y-86120087D01*
X167763613Y-86156199D01*
X167752193Y-86194567D01*
X167749164Y-86233475D01*
X167384275Y-86233475D01*
X167394736Y-86209736D01*
X167426061Y-86157441D01*
X167464274Y-86107666D01*
X167508745Y-86061207D01*
X167558840Y-86018864D01*
X167613926Y-85981434D01*
X167673370Y-85949716D01*
X167736541Y-85924507D01*
X167754886Y-85918701D01*
X167791263Y-85910238D01*
X167832757Y-85904503D01*
X167876199Y-85901636D01*
X167918423Y-85901777D01*
D12*
X232600000Y-105450000D03*
D13*
X138700000Y-101450000D03*
D14*
X133490000Y-100710000D03*
X134760000Y-103250000D03*
X136030000Y-100710000D03*
D15*
X137300000Y-103250000D03*
D16*
X199980000Y-105890000D03*
X199980000Y-103350000D03*
X197440000Y-105890000D03*
X197440000Y-103350000D03*
X194900000Y-105890000D03*
D17*
X194900000Y-103350000D03*
D18*
X56048000Y-100304000D03*
D19*
X58048000Y-100304000D03*
X60048000Y-100304000D03*
X62048000Y-100304000D03*
X64048000Y-100304000D03*
X56048000Y-102304000D03*
X58048000Y-102304000D03*
X60048000Y-102304000D03*
X62048000Y-102304000D03*
X64048000Y-102304000D03*
D15*
X178300000Y-103250000D03*
D14*
X177030000Y-100710000D03*
X175760000Y-103250000D03*
X174490000Y-100710000D03*
D13*
X179700000Y-101450000D03*
D12*
X70600000Y-105450000D03*
X151600000Y-105450000D03*
D20*
X240727300Y-101640000D03*
X239457300Y-101640000D03*
X240727300Y-102910000D03*
X239457300Y-102910000D03*
X240727300Y-104180000D03*
X239457300Y-104180000D03*
X240727300Y-105450000D03*
X239457300Y-105450000D03*
X240727300Y-106720000D03*
X239457300Y-106720000D03*
X240727300Y-107990000D03*
X239457300Y-107990000D03*
X240727300Y-109260000D03*
D21*
X239457300Y-109260000D03*
D13*
X220700000Y-101450000D03*
D14*
X215490000Y-100710000D03*
X216760000Y-103250000D03*
X218030000Y-100710000D03*
D15*
X219300000Y-103250000D03*
D13*
X79200000Y-99750000D03*
D14*
X78460000Y-104960000D03*
X81000000Y-103690000D03*
X78460000Y-102420000D03*
D15*
X81000000Y-101150000D03*
X96300000Y-103250000D03*
D14*
X95030000Y-100710000D03*
X93760000Y-103250000D03*
X92490000Y-100710000D03*
D13*
X97700000Y-101450000D03*
D12*
X232600000Y-88300000D03*
X151600000Y-88300000D03*
X70600000Y-88300000D03*
D13*
X179700000Y-92300000D03*
D14*
X174490000Y-93040000D03*
X175760000Y-90500000D03*
X177030000Y-93040000D03*
D15*
X178300000Y-90500000D03*
D17*
X194900000Y-90400000D03*
D16*
X194900000Y-87860000D03*
X197440000Y-90400000D03*
X197440000Y-87860000D03*
X199980000Y-90400000D03*
X199980000Y-87860000D03*
D15*
X137300000Y-90500000D03*
D14*
X136030000Y-93040000D03*
X134760000Y-90500000D03*
X133490000Y-93040000D03*
D13*
X138700000Y-92300000D03*
D22*
X115850000Y-87300000D03*
X115850000Y-88100000D03*
X115850000Y-88900000D03*
X115850000Y-89700000D03*
X115850000Y-90500000D03*
X115850000Y-91300000D03*
X115850000Y-92100000D03*
X115850000Y-92900000D03*
D23*
X117300000Y-94350000D03*
X118100000Y-94350000D03*
X118900000Y-94350000D03*
X119700000Y-94350000D03*
X120500000Y-94350000D03*
X121300000Y-94350000D03*
X122100000Y-94350000D03*
X122900000Y-94350000D03*
D22*
X124350000Y-92900000D03*
X124350000Y-92100000D03*
X124350000Y-91300000D03*
X124350000Y-90500000D03*
X124350000Y-89700000D03*
X124350000Y-88900000D03*
X124350000Y-88100000D03*
X124350000Y-87300000D03*
D23*
X122900000Y-85850000D03*
X122100000Y-85850000D03*
X121300000Y-85850000D03*
X120500000Y-85850000D03*
X119700000Y-85850000D03*
X118900000Y-85850000D03*
X118100000Y-85850000D03*
X117300000Y-85850000D03*
D24*
X108800000Y-92350000D03*
X106600000Y-92350000D03*
X106600000Y-94050000D03*
X108800000Y-94050000D03*
D19*
X64048000Y-91446000D03*
X62048000Y-91446000D03*
X60048000Y-91446000D03*
X58048000Y-91446000D03*
X56048000Y-91446000D03*
X64048000Y-93446000D03*
X62048000Y-93446000D03*
X60048000Y-93446000D03*
X58048000Y-93446000D03*
D18*
X56048000Y-93446000D03*
D25*
X73057300Y-93990300D03*
X73057300Y-93215300D03*
X114200000Y-90487500D03*
X114200000Y-89712500D03*
D26*
X110657300Y-91902800D03*
X111432300Y-91902800D03*
D25*
X104957300Y-93715300D03*
X104957300Y-94490300D03*
X204650000Y-85112500D03*
X204650000Y-85887500D03*
X209850000Y-85900000D03*
X209850000Y-85125000D03*
X126000000Y-90500000D03*
X126000000Y-89725000D03*
D26*
X230462500Y-92000000D03*
X231237500Y-92000000D03*
D25*
X229750000Y-88112500D03*
X229750000Y-88887500D03*
D26*
X128037500Y-89500000D03*
X127262500Y-89500000D03*
D25*
X87600000Y-92937500D03*
X87600000Y-92162500D03*
X103557300Y-93727800D03*
X103557300Y-94502800D03*
X147057300Y-91340300D03*
X147057300Y-90565300D03*
D26*
X184419800Y-86852800D03*
X185194800Y-86852800D03*
D25*
X226500000Y-93087500D03*
X226500000Y-92312500D03*
D27*
X75507300Y-94252800D03*
X130357300Y-92652800D03*
D21*
X239457300Y-84490000D03*
D20*
X240727300Y-84490000D03*
X239457300Y-85760000D03*
X240727300Y-85760000D03*
X239457300Y-87030000D03*
X240727300Y-87030000D03*
X239457300Y-88300000D03*
X240727300Y-88300000D03*
X239457300Y-89570000D03*
X240727300Y-89570000D03*
X239457300Y-90840000D03*
X240727300Y-90840000D03*
X239457300Y-92110000D03*
X240727300Y-92110000D03*
D27*
X89000000Y-94000000D03*
X104257300Y-92202800D03*
X145507300Y-94002800D03*
X188807300Y-88302800D03*
X227907300Y-94150000D03*
D15*
X81000000Y-92600000D03*
D14*
X78460000Y-91330000D03*
X81000000Y-90060000D03*
X78460000Y-88790000D03*
D13*
X79200000Y-94000000D03*
X97700000Y-92300000D03*
D14*
X92490000Y-93040000D03*
X93760000Y-90500000D03*
X95030000Y-93040000D03*
D15*
X96300000Y-90500000D03*
X219300000Y-90500000D03*
D14*
X218030000Y-93040000D03*
X216760000Y-90500000D03*
X215490000Y-93040000D03*
D13*
X220700000Y-92300000D03*
D28*
X108157300Y-90002800D03*
D29*
G36*
X108466267Y-89704096D02*
X108524666Y-89712759D01*
X108581935Y-89727104D01*
X108637522Y-89746993D01*
X108690892Y-89772235D01*
X108741531Y-89802587D01*
X108788951Y-89837756D01*
X108832695Y-89877404D01*
X108872343Y-89921148D01*
X108907512Y-89968568D01*
X108937864Y-90019207D01*
X108963106Y-90072577D01*
X108982995Y-90128164D01*
X108997340Y-90185433D01*
X109006003Y-90243832D01*
X109008900Y-90302799D01*
X109008900Y-90302801D01*
X109006003Y-90361768D01*
X108997340Y-90420167D01*
X108982995Y-90477436D01*
X108963106Y-90533023D01*
X108937864Y-90586393D01*
X108907512Y-90637032D01*
X108872343Y-90684452D01*
X108832695Y-90728196D01*
X108788951Y-90767844D01*
X108741531Y-90803013D01*
X108690892Y-90833365D01*
X108637522Y-90858607D01*
X108581935Y-90878496D01*
X108524666Y-90892841D01*
X108466267Y-90901504D01*
X108407300Y-90904401D01*
X107907300Y-90904401D01*
X107848333Y-90901504D01*
X107789934Y-90892841D01*
X107732665Y-90878496D01*
X107677078Y-90858607D01*
X107623708Y-90833365D01*
X107573069Y-90803013D01*
X107525649Y-90767844D01*
X107481905Y-90728196D01*
X107442257Y-90684452D01*
X107407088Y-90637032D01*
X107376736Y-90586393D01*
X107351494Y-90533023D01*
X107331605Y-90477436D01*
X107317260Y-90420167D01*
X107308597Y-90361768D01*
X107305700Y-90302801D01*
X107305700Y-90302799D01*
X107308597Y-90243832D01*
X107317260Y-90185433D01*
X107331605Y-90128164D01*
X107351494Y-90072577D01*
X107376736Y-90019207D01*
X107407088Y-89968568D01*
X107442257Y-89921148D01*
X107481905Y-89877404D01*
X107525649Y-89837756D01*
X107573069Y-89802587D01*
X107623708Y-89772235D01*
X107677078Y-89746993D01*
X107732665Y-89727104D01*
X107789934Y-89712759D01*
X107848333Y-89704096D01*
X107907300Y-89701199D01*
X108407300Y-89701199D01*
X108466267Y-89704096D01*
X108466267Y-89704096D01*
G37*
D27*
X108157300Y-90302800D03*
D30*
X108157300Y-89002800D03*
D28*
X108157300Y-88002800D03*
D29*
G36*
X108466267Y-87104096D02*
X108524666Y-87112759D01*
X108581935Y-87127104D01*
X108637522Y-87146993D01*
X108690892Y-87172235D01*
X108741531Y-87202587D01*
X108788951Y-87237756D01*
X108832695Y-87277404D01*
X108872343Y-87321148D01*
X108907512Y-87368568D01*
X108937864Y-87419207D01*
X108963106Y-87472577D01*
X108982995Y-87528164D01*
X108997340Y-87585433D01*
X109006003Y-87643832D01*
X109008900Y-87702799D01*
X109008900Y-87702801D01*
X109006003Y-87761768D01*
X108997340Y-87820167D01*
X108982995Y-87877436D01*
X108963106Y-87933023D01*
X108937864Y-87986393D01*
X108907512Y-88037032D01*
X108872343Y-88084452D01*
X108832695Y-88128196D01*
X108788951Y-88167844D01*
X108741531Y-88203013D01*
X108690892Y-88233365D01*
X108637522Y-88258607D01*
X108581935Y-88278496D01*
X108524666Y-88292841D01*
X108466267Y-88301504D01*
X108407300Y-88304401D01*
X107907300Y-88304401D01*
X107848333Y-88301504D01*
X107789934Y-88292841D01*
X107732665Y-88278496D01*
X107677078Y-88258607D01*
X107623708Y-88233365D01*
X107573069Y-88203013D01*
X107525649Y-88167844D01*
X107481905Y-88128196D01*
X107442257Y-88084452D01*
X107407088Y-88037032D01*
X107376736Y-87986393D01*
X107351494Y-87933023D01*
X107331605Y-87877436D01*
X107317260Y-87820167D01*
X107308597Y-87761768D01*
X107305700Y-87702801D01*
X107305700Y-87702799D01*
X107308597Y-87643832D01*
X107317260Y-87585433D01*
X107331605Y-87528164D01*
X107351494Y-87472577D01*
X107376736Y-87419207D01*
X107407088Y-87368568D01*
X107442257Y-87321148D01*
X107481905Y-87277404D01*
X107525649Y-87237756D01*
X107573069Y-87202587D01*
X107623708Y-87172235D01*
X107677078Y-87146993D01*
X107732665Y-87127104D01*
X107789934Y-87112759D01*
X107848333Y-87104096D01*
X107907300Y-87101199D01*
X108407300Y-87101199D01*
X108466267Y-87104096D01*
X108466267Y-87104096D01*
G37*
D27*
X108157300Y-87702800D03*
D29*
G36*
X111016268Y-93054097D02*
X111074667Y-93062760D01*
X111131936Y-93077105D01*
X111187523Y-93096994D01*
X111240893Y-93122236D01*
X111291532Y-93152588D01*
X111338952Y-93187757D01*
X111382696Y-93227405D01*
X111422344Y-93271149D01*
X111457513Y-93318569D01*
X111487865Y-93369208D01*
X111513107Y-93422578D01*
X111532996Y-93478165D01*
X111547341Y-93535434D01*
X111556004Y-93593833D01*
X111558901Y-93652800D01*
X111558901Y-94152800D01*
X111556004Y-94211767D01*
X111547341Y-94270166D01*
X111532996Y-94327435D01*
X111513107Y-94383022D01*
X111487865Y-94436392D01*
X111457513Y-94487031D01*
X111422344Y-94534451D01*
X111382696Y-94578195D01*
X111338952Y-94617843D01*
X111291532Y-94653012D01*
X111240893Y-94683364D01*
X111187523Y-94708606D01*
X111131936Y-94728495D01*
X111074667Y-94742840D01*
X111016268Y-94751503D01*
X110957301Y-94754400D01*
X110957299Y-94754400D01*
X110898332Y-94751503D01*
X110839933Y-94742840D01*
X110782664Y-94728495D01*
X110727077Y-94708606D01*
X110673707Y-94683364D01*
X110623068Y-94653012D01*
X110575648Y-94617843D01*
X110531904Y-94578195D01*
X110492256Y-94534451D01*
X110457087Y-94487031D01*
X110426735Y-94436392D01*
X110401493Y-94383022D01*
X110381604Y-94327435D01*
X110367259Y-94270166D01*
X110358596Y-94211767D01*
X110355699Y-94152800D01*
X110355699Y-93652800D01*
X110358596Y-93593833D01*
X110367259Y-93535434D01*
X110381604Y-93478165D01*
X110401493Y-93422578D01*
X110426735Y-93369208D01*
X110457087Y-93318569D01*
X110492256Y-93271149D01*
X110531904Y-93227405D01*
X110575648Y-93187757D01*
X110623068Y-93152588D01*
X110673707Y-93122236D01*
X110727077Y-93096994D01*
X110782664Y-93077105D01*
X110839933Y-93062760D01*
X110898332Y-93054097D01*
X110957299Y-93051200D01*
X110957301Y-93051200D01*
X111016268Y-93054097D01*
X111016268Y-93054097D01*
G37*
D27*
X110957300Y-93902800D03*
D31*
X111257300Y-93902800D03*
D32*
X112257300Y-93902800D03*
D29*
G36*
X113616268Y-93054097D02*
X113674667Y-93062760D01*
X113731936Y-93077105D01*
X113787523Y-93096994D01*
X113840893Y-93122236D01*
X113891532Y-93152588D01*
X113938952Y-93187757D01*
X113982696Y-93227405D01*
X114022344Y-93271149D01*
X114057513Y-93318569D01*
X114087865Y-93369208D01*
X114113107Y-93422578D01*
X114132996Y-93478165D01*
X114147341Y-93535434D01*
X114156004Y-93593833D01*
X114158901Y-93652800D01*
X114158901Y-94152800D01*
X114156004Y-94211767D01*
X114147341Y-94270166D01*
X114132996Y-94327435D01*
X114113107Y-94383022D01*
X114087865Y-94436392D01*
X114057513Y-94487031D01*
X114022344Y-94534451D01*
X113982696Y-94578195D01*
X113938952Y-94617843D01*
X113891532Y-94653012D01*
X113840893Y-94683364D01*
X113787523Y-94708606D01*
X113731936Y-94728495D01*
X113674667Y-94742840D01*
X113616268Y-94751503D01*
X113557301Y-94754400D01*
X113557299Y-94754400D01*
X113498332Y-94751503D01*
X113439933Y-94742840D01*
X113382664Y-94728495D01*
X113327077Y-94708606D01*
X113273707Y-94683364D01*
X113223068Y-94653012D01*
X113175648Y-94617843D01*
X113131904Y-94578195D01*
X113092256Y-94534451D01*
X113057087Y-94487031D01*
X113026735Y-94436392D01*
X113001493Y-94383022D01*
X112981604Y-94327435D01*
X112967259Y-94270166D01*
X112958596Y-94211767D01*
X112955699Y-94152800D01*
X112955699Y-93652800D01*
X112958596Y-93593833D01*
X112967259Y-93535434D01*
X112981604Y-93478165D01*
X113001493Y-93422578D01*
X113026735Y-93369208D01*
X113057087Y-93318569D01*
X113092256Y-93271149D01*
X113131904Y-93227405D01*
X113175648Y-93187757D01*
X113223068Y-93152588D01*
X113273707Y-93122236D01*
X113327077Y-93096994D01*
X113382664Y-93077105D01*
X113439933Y-93062760D01*
X113498332Y-93054097D01*
X113557299Y-93051200D01*
X113557301Y-93051200D01*
X113616268Y-93054097D01*
X113616268Y-93054097D01*
G37*
D27*
X113557300Y-93902800D03*
D31*
X113257300Y-93902800D03*
D26*
X128037500Y-90700000D03*
X127262500Y-90700000D03*
D33*
X84200000Y-90200000D03*
X84200000Y-87190000D03*
X100100000Y-87490000D03*
X100100000Y-90500000D03*
X141100000Y-90500000D03*
X141100000Y-87490000D03*
X182100000Y-87500000D03*
X182100000Y-90510000D03*
X223100000Y-90500000D03*
X223100000Y-87490000D03*
D34*
X157650000Y-93650000D03*
X157650000Y-87450000D03*
X161350000Y-93650000D03*
X161350000Y-87450000D03*
D35*
X71557300Y-94002800D03*
X69657300Y-94002800D03*
X69657300Y-91802800D03*
X70607300Y-91802800D03*
X71557300Y-91802800D03*
D36*
X231432300Y-93217800D03*
X231082300Y-93217800D03*
X230732300Y-93217800D03*
X230382300Y-93217800D03*
X230382300Y-93887800D03*
X230732300Y-93887800D03*
X231082300Y-93887800D03*
X231432300Y-93887800D03*
D37*
X208350000Y-85100000D03*
X208350000Y-87000000D03*
X206150000Y-87000000D03*
X206150000Y-86050000D03*
X206150000Y-85100000D03*
X86100000Y-94050000D03*
X86100000Y-93100000D03*
X86100000Y-92150000D03*
X83900000Y-92150000D03*
X83900000Y-94050000D03*
X99700000Y-94150000D03*
X99700000Y-92250000D03*
X101900000Y-92250000D03*
X101900000Y-93200000D03*
X101900000Y-94150000D03*
X145507300Y-92402800D03*
X145507300Y-91452800D03*
X145507300Y-90502800D03*
X143307300Y-90502800D03*
X143307300Y-92402800D03*
D35*
X186307300Y-90502800D03*
X184407300Y-90502800D03*
X184407300Y-88302800D03*
X185357300Y-88302800D03*
X186307300Y-88302800D03*
D37*
X225000000Y-94150000D03*
X225000000Y-93200000D03*
X225000000Y-92250000D03*
X222800000Y-92250000D03*
X222800000Y-94150000D03*
D38*
X226537500Y-88300000D03*
X226537500Y-88800000D03*
X226537500Y-87800000D03*
X228562500Y-88800000D03*
X228562500Y-88300000D03*
X228562500Y-87800000D03*
D39*
X226800000Y-89562500D03*
X227300000Y-89562500D03*
X227800000Y-89562500D03*
X228300000Y-89562500D03*
X228300000Y-87037500D03*
X227800000Y-87037500D03*
X227300000Y-87037500D03*
X226800000Y-87037500D03*
D40*
X72167300Y-83052800D03*
X69157300Y-83052800D03*
D41*
X103900000Y-85900000D03*
X103900000Y-89500000D03*
D42*
X166050000Y-90925000D03*
X167800000Y-90925000D03*
D25*
X164025000Y-90937500D03*
X164025000Y-90162500D03*
M02*
