G04 #@! TF.GenerationSoftware,KiCad,Pcbnew,(2018-01-21 revision 6b9866de8)-makepkg*
G04 #@! TF.CreationDate,2018-02-06T18:12:56+01:00*
G04 #@! TF.ProjectId,Arm_interface_panel,41726D5F696E746572666163655F7061,rev?*
G04 #@! TF.SameCoordinates,Original*
G04 #@! TF.FileFunction,Legend,Top*
G04 #@! TF.FilePolarity,Positive*
%FSLAX46Y46*%
G04 Gerber Fmt 4.6, Leading zero omitted, Abs format (unit mm)*
G04 Created by KiCad (PCBNEW (2018-01-21 revision 6b9866de8)-makepkg) date 02/06/18 18:12:56*
%MOMM*%
%LPD*%
G01*
G04 APERTURE LIST*
%ADD10C,0.200000*%
%ADD11C,0.150000*%
%ADD12C,0.120000*%
%ADD13C,0.100000*%
%ADD14C,0.010000*%
G04 APERTURE END LIST*
D10*
X165375000Y-94317857D02*
X165375000Y-93117857D01*
X165832142Y-93117857D01*
X165946428Y-93175000D01*
X166003571Y-93232142D01*
X166060714Y-93346428D01*
X166060714Y-93517857D01*
X166003571Y-93632142D01*
X165946428Y-93689285D01*
X165832142Y-93746428D01*
X165375000Y-93746428D01*
X166460714Y-93117857D02*
X166746428Y-94317857D01*
X166975000Y-93460714D01*
X167203571Y-94317857D01*
X167489285Y-93117857D01*
X168632142Y-94317857D02*
X168232142Y-93746428D01*
X167946428Y-94317857D02*
X167946428Y-93117857D01*
X168403571Y-93117857D01*
X168517857Y-93175000D01*
X168575000Y-93232142D01*
X168632142Y-93346428D01*
X168632142Y-93517857D01*
X168575000Y-93632142D01*
X168517857Y-93689285D01*
X168403571Y-93746428D01*
X167946428Y-93746428D01*
D11*
X128213095Y-94366666D02*
X128689285Y-94366666D01*
X128117857Y-94652380D02*
X128451190Y-93652380D01*
X128784523Y-94652380D01*
X129117857Y-94652380D02*
X129117857Y-93985714D01*
X129117857Y-94176190D02*
X129165476Y-94080952D01*
X129213095Y-94033333D01*
X129308333Y-93985714D01*
X129403571Y-93985714D01*
X130117857Y-94604761D02*
X130022619Y-94652380D01*
X129832142Y-94652380D01*
X129736904Y-94604761D01*
X129689285Y-94509523D01*
X129689285Y-94128571D01*
X129736904Y-94033333D01*
X129832142Y-93985714D01*
X130022619Y-93985714D01*
X130117857Y-94033333D01*
X130165476Y-94128571D01*
X130165476Y-94223809D01*
X129689285Y-94319047D01*
X130451190Y-93985714D02*
X130832142Y-93985714D01*
X130594047Y-94652380D02*
X130594047Y-93795238D01*
X130641666Y-93700000D01*
X130736904Y-93652380D01*
X130832142Y-93652380D01*
X75904761Y-91341666D02*
X75952380Y-91198809D01*
X75952380Y-90960714D01*
X75904761Y-90865476D01*
X75857142Y-90817857D01*
X75761904Y-90770238D01*
X75666666Y-90770238D01*
X75571428Y-90817857D01*
X75523809Y-90865476D01*
X75476190Y-90960714D01*
X75428571Y-91151190D01*
X75380952Y-91246428D01*
X75333333Y-91294047D01*
X75238095Y-91341666D01*
X75142857Y-91341666D01*
X75047619Y-91294047D01*
X75000000Y-91246428D01*
X74952380Y-91151190D01*
X74952380Y-90913095D01*
X75000000Y-90770238D01*
X75571428Y-90341666D02*
X75571428Y-89579761D01*
X75952380Y-89103571D02*
X74952380Y-89103571D01*
X75952380Y-88627380D02*
X74952380Y-88627380D01*
X75952380Y-88055952D01*
X74952380Y-88055952D01*
X105400000Y-95200000D02*
X109600000Y-95200000D01*
X98600000Y-95200000D02*
X105400000Y-95200000D01*
X98600000Y-94800000D02*
X98600000Y-95200000D01*
X98600000Y-86000000D02*
X98600000Y-94800000D01*
X93200000Y-86000000D02*
X98600000Y-86000000D01*
X90000000Y-89750000D02*
X90000000Y-93500000D01*
X76250000Y-87750000D02*
X76250000Y-93500000D01*
D12*
X180145000Y-88970000D02*
X180145000Y-90500000D01*
X178300000Y-88970000D02*
X180145000Y-88970000D01*
X177030000Y-91770000D02*
X177030000Y-89900000D01*
X178900000Y-91770000D02*
X177030000Y-91770000D01*
X180145000Y-93040000D02*
X180145000Y-94570000D01*
X180145000Y-94570000D02*
X172645000Y-94570000D01*
X172645000Y-88970000D02*
X172645000Y-94570000D01*
X175760000Y-88970000D02*
X172645000Y-88970000D01*
X201310000Y-91730000D02*
X201310000Y-86530000D01*
X196170000Y-91730000D02*
X201310000Y-91730000D01*
X193570000Y-86530000D02*
X201310000Y-86530000D01*
X196170000Y-91730000D02*
X196170000Y-89130000D01*
X196170000Y-89130000D02*
X193570000Y-89130000D01*
X193570000Y-89130000D02*
X193570000Y-86530000D01*
X194900000Y-91730000D02*
X193570000Y-91730000D01*
X193570000Y-91730000D02*
X193570000Y-90400000D01*
X134760000Y-88970000D02*
X131645000Y-88970000D01*
X131645000Y-88970000D02*
X131645000Y-94570000D01*
X139145000Y-94570000D02*
X131645000Y-94570000D01*
X139145000Y-93040000D02*
X139145000Y-94570000D01*
X137900000Y-91770000D02*
X136030000Y-91770000D01*
X136030000Y-91770000D02*
X136030000Y-89900000D01*
X137300000Y-88970000D02*
X139145000Y-88970000D01*
X139145000Y-88970000D02*
X139145000Y-90500000D01*
D11*
X116475000Y-86475000D02*
X116475000Y-86700000D01*
X123725000Y-86475000D02*
X123725000Y-86800000D01*
X123725000Y-93725000D02*
X123725000Y-93400000D01*
X116475000Y-93725000D02*
X116475000Y-93400000D01*
X116475000Y-86475000D02*
X116800000Y-86475000D01*
X116475000Y-93725000D02*
X116800000Y-93725000D01*
X123725000Y-93725000D02*
X123400000Y-93725000D01*
X123725000Y-86475000D02*
X123400000Y-86475000D01*
X116475000Y-86700000D02*
X115050000Y-86700000D01*
D12*
X109700000Y-94850000D02*
X109700000Y-91550000D01*
X109700000Y-91550000D02*
X105700000Y-91550000D01*
D11*
X56348000Y-95046000D02*
X56048000Y-94446000D01*
X55748000Y-95046000D02*
X56348000Y-95046000D01*
X56048000Y-94446000D02*
X55748000Y-95046000D01*
X54098000Y-93946000D02*
X55098000Y-93946000D01*
X65998000Y-93946000D02*
X65998000Y-84446000D01*
X54098000Y-93946000D02*
X54098000Y-84446000D01*
X54098000Y-82146000D02*
X65998000Y-82146000D01*
X65998000Y-93946000D02*
X64998000Y-93946000D01*
X54098000Y-84446000D02*
X55098000Y-84446000D01*
X64998000Y-84446000D02*
X65998000Y-84446000D01*
D12*
X76207300Y-94252800D02*
G75*
G03X76207300Y-94252800I-700000J0D01*
G01*
X131057300Y-92652800D02*
G75*
G03X131057300Y-92652800I-700000J0D01*
G01*
X238327300Y-92805000D02*
X239149770Y-92805000D01*
X241034830Y-92805000D02*
X241857300Y-92805000D01*
X239764830Y-92805000D02*
X240419770Y-92805000D01*
X238327300Y-85250000D02*
X238327300Y-92805000D01*
X241857300Y-83795000D02*
X241857300Y-92805000D01*
X238327300Y-85250000D02*
X238893829Y-85250000D01*
X240020771Y-85250000D02*
X240163829Y-85250000D01*
X240217300Y-85196529D02*
X240217300Y-85053471D01*
X240217300Y-83926529D02*
X240217300Y-83795000D01*
X240217300Y-83795000D02*
X240419770Y-83795000D01*
X241034830Y-83795000D02*
X241857300Y-83795000D01*
X238327300Y-84490000D02*
X238327300Y-83730000D01*
X238327300Y-83730000D02*
X239457300Y-83730000D01*
X89700000Y-94000000D02*
G75*
G03X89700000Y-94000000I-700000J0D01*
G01*
X104957300Y-92202800D02*
G75*
G03X104957300Y-92202800I-700000J0D01*
G01*
X146207300Y-94002800D02*
G75*
G03X146207300Y-94002800I-700000J0D01*
G01*
X189507300Y-88302800D02*
G75*
G03X189507300Y-88302800I-700000J0D01*
G01*
X228607300Y-94150000D02*
G75*
G03X228607300Y-94150000I-700000J0D01*
G01*
X82530000Y-90060000D02*
X82530000Y-86945000D01*
X82530000Y-86945000D02*
X76930000Y-86945000D01*
X76930000Y-94445000D02*
X76930000Y-86945000D01*
X78460000Y-94445000D02*
X76930000Y-94445000D01*
X79730000Y-93200000D02*
X79730000Y-91330000D01*
X79730000Y-91330000D02*
X81600000Y-91330000D01*
X82530000Y-92600000D02*
X82530000Y-94445000D01*
X82530000Y-94445000D02*
X81000000Y-94445000D01*
X98145000Y-88970000D02*
X98145000Y-90500000D01*
X96300000Y-88970000D02*
X98145000Y-88970000D01*
X95030000Y-91770000D02*
X95030000Y-89900000D01*
X96900000Y-91770000D02*
X95030000Y-91770000D01*
X98145000Y-93040000D02*
X98145000Y-94570000D01*
X98145000Y-94570000D02*
X90645000Y-94570000D01*
X90645000Y-88970000D02*
X90645000Y-94570000D01*
X93760000Y-88970000D02*
X90645000Y-88970000D01*
X216760000Y-88970000D02*
X213645000Y-88970000D01*
X213645000Y-88970000D02*
X213645000Y-94570000D01*
X221145000Y-94570000D02*
X213645000Y-94570000D01*
X221145000Y-93040000D02*
X221145000Y-94570000D01*
X219900000Y-91770000D02*
X218030000Y-91770000D01*
X218030000Y-91770000D02*
X218030000Y-89900000D01*
X219300000Y-88970000D02*
X221145000Y-88970000D01*
X221145000Y-88970000D02*
X221145000Y-90500000D01*
X108457300Y-86952800D02*
G75*
G02X109157300Y-87652800I0J-700000D01*
G01*
X107157300Y-87652800D02*
G75*
G02X107857300Y-86952800I700000J0D01*
G01*
X107857300Y-91052800D02*
G75*
G02X107157300Y-90352800I0J700000D01*
G01*
X109157300Y-90352800D02*
G75*
G02X108457300Y-91052800I-700000J0D01*
G01*
X109157300Y-87602800D02*
X109157300Y-90402800D01*
X108457300Y-91052800D02*
X107857300Y-91052800D01*
X107157300Y-90402800D02*
X107157300Y-87602800D01*
X107857300Y-86952800D02*
X108457300Y-86952800D01*
X106957300Y-87802800D02*
X106657300Y-87502800D01*
X106657300Y-87502800D02*
X106657300Y-88102800D01*
X106957300Y-87802800D02*
X106657300Y-88102800D01*
X111057300Y-95102800D02*
X111357300Y-95402800D01*
X110757300Y-95402800D02*
X111357300Y-95402800D01*
X111057300Y-95102800D02*
X110757300Y-95402800D01*
X110207300Y-94202800D02*
X110207300Y-93602800D01*
X113657300Y-94902800D02*
X110857300Y-94902800D01*
X114307300Y-93602800D02*
X114307300Y-94202800D01*
X110857300Y-92902800D02*
X113657300Y-92902800D01*
X113607300Y-92902800D02*
G75*
G02X114307300Y-93602800I0J-700000D01*
G01*
X114307300Y-94202800D02*
G75*
G02X113607300Y-94902800I-700000J0D01*
G01*
X110907300Y-94902800D02*
G75*
G02X110207300Y-94202800I0J700000D01*
G01*
X110207300Y-93602800D02*
G75*
G02X110907300Y-92902800I700000J0D01*
G01*
X83290000Y-89345000D02*
X83290000Y-88045000D01*
X85110000Y-89345000D02*
X85110000Y-88045000D01*
X101010000Y-89645000D02*
X101010000Y-88345000D01*
X99190000Y-89645000D02*
X99190000Y-88345000D01*
X140190000Y-89645000D02*
X140190000Y-88345000D01*
X142010000Y-89645000D02*
X142010000Y-88345000D01*
X183010000Y-89655000D02*
X183010000Y-88355000D01*
X181190000Y-89655000D02*
X181190000Y-88355000D01*
X222190000Y-89645000D02*
X222190000Y-88345000D01*
X224010000Y-89645000D02*
X224010000Y-88345000D01*
X156800000Y-92000000D02*
X156800000Y-89100000D01*
X157250000Y-92450000D02*
X156800000Y-92000000D01*
X160500000Y-93250000D02*
X158500000Y-93250000D01*
X162200000Y-92000000D02*
X161750000Y-92450000D01*
X162200000Y-89100000D02*
X162200000Y-92000000D01*
X161750000Y-88650000D02*
X162200000Y-89100000D01*
X158500000Y-87850000D02*
X160500000Y-87850000D01*
X156800000Y-89100000D02*
X157250000Y-88650000D01*
X72217300Y-93802800D02*
X72217300Y-91352800D01*
X68997300Y-92002800D02*
X68997300Y-93802800D01*
X230107300Y-94052800D02*
X230107300Y-93052800D01*
X231707300Y-94052800D02*
X231707300Y-92852800D01*
X208150000Y-84440000D02*
X205700000Y-84440000D01*
X206350000Y-87660000D02*
X208150000Y-87660000D01*
X85900000Y-91490000D02*
X84100000Y-91490000D01*
X84100000Y-94710000D02*
X86550000Y-94710000D01*
X99900000Y-94810000D02*
X102350000Y-94810000D01*
X101700000Y-91590000D02*
X99900000Y-91590000D01*
X145307300Y-89842800D02*
X143507300Y-89842800D01*
X143507300Y-93062800D02*
X145957300Y-93062800D01*
X186967300Y-90302800D02*
X186967300Y-87852800D01*
X183747300Y-88502800D02*
X183747300Y-90302800D01*
X224800000Y-91590000D02*
X223000000Y-91590000D01*
X223000000Y-94810000D02*
X225450000Y-94810000D01*
D13*
X226200000Y-90000000D02*
X226200000Y-89180000D01*
X228900000Y-89900000D02*
X228900000Y-89180000D01*
X228900000Y-89900000D02*
X228680000Y-89900000D01*
X228680000Y-86700000D02*
X228900000Y-86700000D01*
X228900000Y-86700000D02*
X228900000Y-87420000D01*
X226200000Y-87420000D02*
X226200000Y-86700000D01*
X226200000Y-86700000D02*
X226420000Y-86700000D01*
D12*
X71312300Y-83962800D02*
X70012300Y-83962800D01*
X71312300Y-82142800D02*
X70012300Y-82142800D01*
X105420000Y-85410000D02*
X105020000Y-85410000D01*
X106190000Y-89990000D02*
X105020000Y-89990000D01*
X101610000Y-89990000D02*
X102780000Y-89990000D01*
X102380000Y-85410000D02*
X102780000Y-85410000D01*
X101610000Y-86180000D02*
X101610000Y-89990000D01*
X101610000Y-86180000D02*
X102380000Y-85410000D01*
X106190000Y-86180000D02*
X106190000Y-89990000D01*
X106190000Y-86180000D02*
X105420000Y-85410000D01*
D14*
G36*
X169178201Y-84729738D02*
X169198348Y-84731965D01*
X169215863Y-84735564D01*
X169231188Y-84741308D01*
X169244766Y-84749971D01*
X169257039Y-84762324D01*
X169268450Y-84779140D01*
X169279440Y-84801193D01*
X169290453Y-84829255D01*
X169301931Y-84864099D01*
X169314316Y-84906498D01*
X169328050Y-84957225D01*
X169343577Y-85017052D01*
X169344299Y-85019867D01*
X169361506Y-85092474D01*
X169375540Y-85164276D01*
X169386689Y-85237443D01*
X169395238Y-85314150D01*
X169401474Y-85396569D01*
X169405609Y-85484760D01*
X169406717Y-85518405D01*
X169407222Y-85544525D01*
X169406933Y-85565749D01*
X169405658Y-85584703D01*
X169403208Y-85604014D01*
X169399391Y-85626309D01*
X169394016Y-85654217D01*
X169392872Y-85660020D01*
X169376391Y-85738711D01*
X169358865Y-85813406D01*
X169340546Y-85883339D01*
X169321687Y-85947741D01*
X169302541Y-86005845D01*
X169283359Y-86056882D01*
X169264394Y-86100085D01*
X169245900Y-86134686D01*
X169228657Y-86159293D01*
X169217953Y-86172749D01*
X169203677Y-86191717D01*
X169187975Y-86213311D01*
X169177487Y-86228152D01*
X169151986Y-86262275D01*
X169128222Y-86289201D01*
X169106922Y-86308184D01*
X169089823Y-86318106D01*
X169077848Y-86320698D01*
X169060149Y-86322358D01*
X169045639Y-86322712D01*
X169029049Y-86321866D01*
X169013769Y-86319024D01*
X168996746Y-86313303D01*
X168974929Y-86303818D01*
X168965960Y-86299618D01*
X168943192Y-86287894D01*
X168921706Y-86275181D01*
X168904652Y-86263418D01*
X168898199Y-86257955D01*
X168875298Y-86229710D01*
X168855228Y-86191883D01*
X168837972Y-86144420D01*
X168823507Y-86087269D01*
X168814959Y-86041020D01*
X168812442Y-86023764D01*
X168810422Y-86005587D01*
X168808848Y-85985174D01*
X168807672Y-85961208D01*
X168806843Y-85932375D01*
X168806312Y-85897359D01*
X168806029Y-85854844D01*
X168805945Y-85803516D01*
X168805945Y-85802260D01*
X168806068Y-85745778D01*
X168806514Y-85697431D01*
X168807403Y-85655192D01*
X168808857Y-85617037D01*
X168810997Y-85580942D01*
X168813942Y-85544882D01*
X168817814Y-85506833D01*
X168822734Y-85464769D01*
X168828823Y-85416667D01*
X168829068Y-85414778D01*
X168838126Y-85357754D01*
X168850976Y-85295299D01*
X168867031Y-85229301D01*
X168885706Y-85161648D01*
X168906413Y-85094227D01*
X168928565Y-85028927D01*
X168951577Y-84967635D01*
X168974862Y-84912239D01*
X168997832Y-84864626D01*
X169003030Y-84854937D01*
X169030897Y-84810835D01*
X169061983Y-84773517D01*
X169062588Y-84772896D01*
X169085380Y-84751619D01*
X169106068Y-84737902D01*
X169127763Y-84730583D01*
X169153575Y-84728502D01*
X169178201Y-84729738D01*
X169178201Y-84729738D01*
G37*
X169178201Y-84729738D02*
X169198348Y-84731965D01*
X169215863Y-84735564D01*
X169231188Y-84741308D01*
X169244766Y-84749971D01*
X169257039Y-84762324D01*
X169268450Y-84779140D01*
X169279440Y-84801193D01*
X169290453Y-84829255D01*
X169301931Y-84864099D01*
X169314316Y-84906498D01*
X169328050Y-84957225D01*
X169343577Y-85017052D01*
X169344299Y-85019867D01*
X169361506Y-85092474D01*
X169375540Y-85164276D01*
X169386689Y-85237443D01*
X169395238Y-85314150D01*
X169401474Y-85396569D01*
X169405609Y-85484760D01*
X169406717Y-85518405D01*
X169407222Y-85544525D01*
X169406933Y-85565749D01*
X169405658Y-85584703D01*
X169403208Y-85604014D01*
X169399391Y-85626309D01*
X169394016Y-85654217D01*
X169392872Y-85660020D01*
X169376391Y-85738711D01*
X169358865Y-85813406D01*
X169340546Y-85883339D01*
X169321687Y-85947741D01*
X169302541Y-86005845D01*
X169283359Y-86056882D01*
X169264394Y-86100085D01*
X169245900Y-86134686D01*
X169228657Y-86159293D01*
X169217953Y-86172749D01*
X169203677Y-86191717D01*
X169187975Y-86213311D01*
X169177487Y-86228152D01*
X169151986Y-86262275D01*
X169128222Y-86289201D01*
X169106922Y-86308184D01*
X169089823Y-86318106D01*
X169077848Y-86320698D01*
X169060149Y-86322358D01*
X169045639Y-86322712D01*
X169029049Y-86321866D01*
X169013769Y-86319024D01*
X168996746Y-86313303D01*
X168974929Y-86303818D01*
X168965960Y-86299618D01*
X168943192Y-86287894D01*
X168921706Y-86275181D01*
X168904652Y-86263418D01*
X168898199Y-86257955D01*
X168875298Y-86229710D01*
X168855228Y-86191883D01*
X168837972Y-86144420D01*
X168823507Y-86087269D01*
X168814959Y-86041020D01*
X168812442Y-86023764D01*
X168810422Y-86005587D01*
X168808848Y-85985174D01*
X168807672Y-85961208D01*
X168806843Y-85932375D01*
X168806312Y-85897359D01*
X168806029Y-85854844D01*
X168805945Y-85803516D01*
X168805945Y-85802260D01*
X168806068Y-85745778D01*
X168806514Y-85697431D01*
X168807403Y-85655192D01*
X168808857Y-85617037D01*
X168810997Y-85580942D01*
X168813942Y-85544882D01*
X168817814Y-85506833D01*
X168822734Y-85464769D01*
X168828823Y-85416667D01*
X168829068Y-85414778D01*
X168838126Y-85357754D01*
X168850976Y-85295299D01*
X168867031Y-85229301D01*
X168885706Y-85161648D01*
X168906413Y-85094227D01*
X168928565Y-85028927D01*
X168951577Y-84967635D01*
X168974862Y-84912239D01*
X168997832Y-84864626D01*
X169003030Y-84854937D01*
X169030897Y-84810835D01*
X169061983Y-84773517D01*
X169062588Y-84772896D01*
X169085380Y-84751619D01*
X169106068Y-84737902D01*
X169127763Y-84730583D01*
X169153575Y-84728502D01*
X169178201Y-84729738D01*
D12*
X168395000Y-90165000D02*
X166125000Y-90165000D01*
X168395000Y-91685000D02*
X168395000Y-90165000D01*
X166125000Y-91685000D02*
X168395000Y-91685000D01*
D11*
X175902976Y-87552380D02*
X175902976Y-88266666D01*
X175855357Y-88409523D01*
X175760119Y-88504761D01*
X175617261Y-88552380D01*
X175522023Y-88552380D01*
X176902976Y-88552380D02*
X176331547Y-88552380D01*
X176617261Y-88552380D02*
X176617261Y-87552380D01*
X176522023Y-87695238D01*
X176426785Y-87790476D01*
X176331547Y-87838095D01*
X177379166Y-88552380D02*
X177569642Y-88552380D01*
X177664880Y-88504761D01*
X177712500Y-88457142D01*
X177807738Y-88314285D01*
X177855357Y-88123809D01*
X177855357Y-87742857D01*
X177807738Y-87647619D01*
X177760119Y-87600000D01*
X177664880Y-87552380D01*
X177474404Y-87552380D01*
X177379166Y-87600000D01*
X177331547Y-87647619D01*
X177283928Y-87742857D01*
X177283928Y-87980952D01*
X177331547Y-88076190D01*
X177379166Y-88123809D01*
X177474404Y-88171428D01*
X177664880Y-88171428D01*
X177760119Y-88123809D01*
X177807738Y-88076190D01*
X177855357Y-87980952D01*
X192022380Y-89463333D02*
X192736666Y-89463333D01*
X192879523Y-89510952D01*
X192974761Y-89606190D01*
X193022380Y-89749047D01*
X193022380Y-89844285D01*
X192022380Y-89082380D02*
X192022380Y-88463333D01*
X192403333Y-88796666D01*
X192403333Y-88653809D01*
X192450952Y-88558571D01*
X192498571Y-88510952D01*
X192593809Y-88463333D01*
X192831904Y-88463333D01*
X192927142Y-88510952D01*
X192974761Y-88558571D01*
X193022380Y-88653809D01*
X193022380Y-88939523D01*
X192974761Y-89034761D01*
X192927142Y-89082380D01*
X134890476Y-87452380D02*
X134890476Y-88166666D01*
X134842857Y-88309523D01*
X134747619Y-88404761D01*
X134604761Y-88452380D01*
X134509523Y-88452380D01*
X135890476Y-88452380D02*
X135319047Y-88452380D01*
X135604761Y-88452380D02*
X135604761Y-87452380D01*
X135509523Y-87595238D01*
X135414285Y-87690476D01*
X135319047Y-87738095D01*
X136461904Y-87880952D02*
X136366666Y-87833333D01*
X136319047Y-87785714D01*
X136271428Y-87690476D01*
X136271428Y-87642857D01*
X136319047Y-87547619D01*
X136366666Y-87500000D01*
X136461904Y-87452380D01*
X136652380Y-87452380D01*
X136747619Y-87500000D01*
X136795238Y-87547619D01*
X136842857Y-87642857D01*
X136842857Y-87690476D01*
X136795238Y-87785714D01*
X136747619Y-87833333D01*
X136652380Y-87880952D01*
X136461904Y-87880952D01*
X136366666Y-87928571D01*
X136319047Y-87976190D01*
X136271428Y-88071428D01*
X136271428Y-88261904D01*
X136319047Y-88357142D01*
X136366666Y-88404761D01*
X136461904Y-88452380D01*
X136652380Y-88452380D01*
X136747619Y-88404761D01*
X136795238Y-88357142D01*
X136842857Y-88261904D01*
X136842857Y-88071428D01*
X136795238Y-87976190D01*
X136747619Y-87928571D01*
X136652380Y-87880952D01*
X119338095Y-83502380D02*
X119338095Y-84311904D01*
X119385714Y-84407142D01*
X119433333Y-84454761D01*
X119528571Y-84502380D01*
X119719047Y-84502380D01*
X119814285Y-84454761D01*
X119861904Y-84407142D01*
X119909523Y-84311904D01*
X119909523Y-83502380D01*
X120814285Y-83835714D02*
X120814285Y-84502380D01*
X120576190Y-83454761D02*
X120338095Y-84169047D01*
X120957142Y-84169047D01*
X98323809Y-83776190D02*
X98323809Y-84252380D01*
X97990476Y-83252380D02*
X98323809Y-83776190D01*
X98657142Y-83252380D01*
X99514285Y-84252380D02*
X98942857Y-84252380D01*
X99228571Y-84252380D02*
X99228571Y-83252380D01*
X99133333Y-83395238D01*
X99038095Y-83490476D01*
X98942857Y-83538095D01*
X59714666Y-87752380D02*
X59714666Y-88466666D01*
X59667047Y-88609523D01*
X59571809Y-88704761D01*
X59428952Y-88752380D01*
X59333714Y-88752380D01*
X60619428Y-87752380D02*
X60428952Y-87752380D01*
X60333714Y-87800000D01*
X60286095Y-87847619D01*
X60190857Y-87990476D01*
X60143238Y-88180952D01*
X60143238Y-88561904D01*
X60190857Y-88657142D01*
X60238476Y-88704761D01*
X60333714Y-88752380D01*
X60524190Y-88752380D01*
X60619428Y-88704761D01*
X60667047Y-88657142D01*
X60714666Y-88561904D01*
X60714666Y-88323809D01*
X60667047Y-88228571D01*
X60619428Y-88180952D01*
X60524190Y-88133333D01*
X60333714Y-88133333D01*
X60238476Y-88180952D01*
X60190857Y-88228571D01*
X60143238Y-88323809D01*
X74107142Y-91916666D02*
X74154761Y-91964285D01*
X74202380Y-92107142D01*
X74202380Y-92202380D01*
X74154761Y-92345238D01*
X74059523Y-92440476D01*
X73964285Y-92488095D01*
X73773809Y-92535714D01*
X73630952Y-92535714D01*
X73440476Y-92488095D01*
X73345238Y-92440476D01*
X73250000Y-92345238D01*
X73202380Y-92202380D01*
X73202380Y-92107142D01*
X73250000Y-91964285D01*
X73297619Y-91916666D01*
X74202380Y-90964285D02*
X74202380Y-91535714D01*
X74202380Y-91250000D02*
X73202380Y-91250000D01*
X73345238Y-91345238D01*
X73440476Y-91440476D01*
X73488095Y-91535714D01*
X113657142Y-88116666D02*
X113704761Y-88164285D01*
X113752380Y-88307142D01*
X113752380Y-88402380D01*
X113704761Y-88545238D01*
X113609523Y-88640476D01*
X113514285Y-88688095D01*
X113323809Y-88735714D01*
X113180952Y-88735714D01*
X112990476Y-88688095D01*
X112895238Y-88640476D01*
X112800000Y-88545238D01*
X112752380Y-88402380D01*
X112752380Y-88307142D01*
X112800000Y-88164285D01*
X112847619Y-88116666D01*
X112752380Y-87783333D02*
X112752380Y-87164285D01*
X113133333Y-87497619D01*
X113133333Y-87354761D01*
X113180952Y-87259523D01*
X113228571Y-87211904D01*
X113323809Y-87164285D01*
X113561904Y-87164285D01*
X113657142Y-87211904D01*
X113704761Y-87259523D01*
X113752380Y-87354761D01*
X113752380Y-87640476D01*
X113704761Y-87735714D01*
X113657142Y-87783333D01*
X112407142Y-90366666D02*
X112454761Y-90414285D01*
X112502380Y-90557142D01*
X112502380Y-90652380D01*
X112454761Y-90795238D01*
X112359523Y-90890476D01*
X112264285Y-90938095D01*
X112073809Y-90985714D01*
X111930952Y-90985714D01*
X111740476Y-90938095D01*
X111645238Y-90890476D01*
X111550000Y-90795238D01*
X111502380Y-90652380D01*
X111502380Y-90557142D01*
X111550000Y-90414285D01*
X111597619Y-90366666D01*
X111835714Y-89509523D02*
X112502380Y-89509523D01*
X111454761Y-89747619D02*
X112169047Y-89985714D01*
X112169047Y-89366666D01*
X97757142Y-84566666D02*
X97804761Y-84614285D01*
X97852380Y-84757142D01*
X97852380Y-84852380D01*
X97804761Y-84995238D01*
X97709523Y-85090476D01*
X97614285Y-85138095D01*
X97423809Y-85185714D01*
X97280952Y-85185714D01*
X97090476Y-85138095D01*
X96995238Y-85090476D01*
X96900000Y-84995238D01*
X96852380Y-84852380D01*
X96852380Y-84757142D01*
X96900000Y-84614285D01*
X96947619Y-84566666D01*
X96852380Y-83661904D02*
X96852380Y-84138095D01*
X97328571Y-84185714D01*
X97280952Y-84138095D01*
X97233333Y-84042857D01*
X97233333Y-83804761D01*
X97280952Y-83709523D01*
X97328571Y-83661904D01*
X97423809Y-83614285D01*
X97661904Y-83614285D01*
X97757142Y-83661904D01*
X97804761Y-83709523D01*
X97852380Y-83804761D01*
X97852380Y-84042857D01*
X97804761Y-84138095D01*
X97757142Y-84185714D01*
X203557142Y-85666666D02*
X203604761Y-85714285D01*
X203652380Y-85857142D01*
X203652380Y-85952380D01*
X203604761Y-86095238D01*
X203509523Y-86190476D01*
X203414285Y-86238095D01*
X203223809Y-86285714D01*
X203080952Y-86285714D01*
X202890476Y-86238095D01*
X202795238Y-86190476D01*
X202700000Y-86095238D01*
X202652380Y-85952380D01*
X202652380Y-85857142D01*
X202700000Y-85714285D01*
X202747619Y-85666666D01*
X202652380Y-84809523D02*
X202652380Y-85000000D01*
X202700000Y-85095238D01*
X202747619Y-85142857D01*
X202890476Y-85238095D01*
X203080952Y-85285714D01*
X203461904Y-85285714D01*
X203557142Y-85238095D01*
X203604761Y-85190476D01*
X203652380Y-85095238D01*
X203652380Y-84904761D01*
X203604761Y-84809523D01*
X203557142Y-84761904D01*
X203461904Y-84714285D01*
X203223809Y-84714285D01*
X203128571Y-84761904D01*
X203080952Y-84809523D01*
X203033333Y-84904761D01*
X203033333Y-85095238D01*
X203080952Y-85190476D01*
X203128571Y-85238095D01*
X203223809Y-85285714D01*
X211657142Y-85266666D02*
X211704761Y-85314285D01*
X211752380Y-85457142D01*
X211752380Y-85552380D01*
X211704761Y-85695238D01*
X211609523Y-85790476D01*
X211514285Y-85838095D01*
X211323809Y-85885714D01*
X211180952Y-85885714D01*
X210990476Y-85838095D01*
X210895238Y-85790476D01*
X210800000Y-85695238D01*
X210752380Y-85552380D01*
X210752380Y-85457142D01*
X210800000Y-85314285D01*
X210847619Y-85266666D01*
X210752380Y-84933333D02*
X210752380Y-84266666D01*
X211752380Y-84695238D01*
X126507142Y-88316666D02*
X126554761Y-88364285D01*
X126602380Y-88507142D01*
X126602380Y-88602380D01*
X126554761Y-88745238D01*
X126459523Y-88840476D01*
X126364285Y-88888095D01*
X126173809Y-88935714D01*
X126030952Y-88935714D01*
X125840476Y-88888095D01*
X125745238Y-88840476D01*
X125650000Y-88745238D01*
X125602380Y-88602380D01*
X125602380Y-88507142D01*
X125650000Y-88364285D01*
X125697619Y-88316666D01*
X126030952Y-87745238D02*
X125983333Y-87840476D01*
X125935714Y-87888095D01*
X125840476Y-87935714D01*
X125792857Y-87935714D01*
X125697619Y-87888095D01*
X125650000Y-87840476D01*
X125602380Y-87745238D01*
X125602380Y-87554761D01*
X125650000Y-87459523D01*
X125697619Y-87411904D01*
X125792857Y-87364285D01*
X125840476Y-87364285D01*
X125935714Y-87411904D01*
X125983333Y-87459523D01*
X126030952Y-87554761D01*
X126030952Y-87745238D01*
X126078571Y-87840476D01*
X126126190Y-87888095D01*
X126221428Y-87935714D01*
X126411904Y-87935714D01*
X126507142Y-87888095D01*
X126554761Y-87840476D01*
X126602380Y-87745238D01*
X126602380Y-87554761D01*
X126554761Y-87459523D01*
X126507142Y-87411904D01*
X126411904Y-87364285D01*
X126221428Y-87364285D01*
X126126190Y-87411904D01*
X126078571Y-87459523D01*
X126030952Y-87554761D01*
X230683333Y-91207142D02*
X230635714Y-91254761D01*
X230492857Y-91302380D01*
X230397619Y-91302380D01*
X230254761Y-91254761D01*
X230159523Y-91159523D01*
X230111904Y-91064285D01*
X230064285Y-90873809D01*
X230064285Y-90730952D01*
X230111904Y-90540476D01*
X230159523Y-90445238D01*
X230254761Y-90350000D01*
X230397619Y-90302380D01*
X230492857Y-90302380D01*
X230635714Y-90350000D01*
X230683333Y-90397619D01*
X231159523Y-91302380D02*
X231350000Y-91302380D01*
X231445238Y-91254761D01*
X231492857Y-91207142D01*
X231588095Y-91064285D01*
X231635714Y-90873809D01*
X231635714Y-90492857D01*
X231588095Y-90397619D01*
X231540476Y-90350000D01*
X231445238Y-90302380D01*
X231254761Y-90302380D01*
X231159523Y-90350000D01*
X231111904Y-90397619D01*
X231064285Y-90492857D01*
X231064285Y-90730952D01*
X231111904Y-90826190D01*
X231159523Y-90873809D01*
X231254761Y-90921428D01*
X231445238Y-90921428D01*
X231540476Y-90873809D01*
X231588095Y-90826190D01*
X231635714Y-90730952D01*
X230107142Y-86692857D02*
X230154761Y-86740476D01*
X230202380Y-86883333D01*
X230202380Y-86978571D01*
X230154761Y-87121428D01*
X230059523Y-87216666D01*
X229964285Y-87264285D01*
X229773809Y-87311904D01*
X229630952Y-87311904D01*
X229440476Y-87264285D01*
X229345238Y-87216666D01*
X229250000Y-87121428D01*
X229202380Y-86978571D01*
X229202380Y-86883333D01*
X229250000Y-86740476D01*
X229297619Y-86692857D01*
X230202380Y-85740476D02*
X230202380Y-86311904D01*
X230202380Y-86026190D02*
X229202380Y-86026190D01*
X229345238Y-86121428D01*
X229440476Y-86216666D01*
X229488095Y-86311904D01*
X229202380Y-85121428D02*
X229202380Y-85026190D01*
X229250000Y-84930952D01*
X229297619Y-84883333D01*
X229392857Y-84835714D01*
X229583333Y-84788095D01*
X229821428Y-84788095D01*
X230011904Y-84835714D01*
X230107142Y-84883333D01*
X230154761Y-84930952D01*
X230202380Y-85026190D01*
X230202380Y-85121428D01*
X230154761Y-85216666D01*
X230107142Y-85264285D01*
X230011904Y-85311904D01*
X229821428Y-85359523D01*
X229583333Y-85359523D01*
X229392857Y-85311904D01*
X229297619Y-85264285D01*
X229250000Y-85216666D01*
X229202380Y-85121428D01*
X129007142Y-88607142D02*
X128959523Y-88654761D01*
X128816666Y-88702380D01*
X128721428Y-88702380D01*
X128578571Y-88654761D01*
X128483333Y-88559523D01*
X128435714Y-88464285D01*
X128388095Y-88273809D01*
X128388095Y-88130952D01*
X128435714Y-87940476D01*
X128483333Y-87845238D01*
X128578571Y-87750000D01*
X128721428Y-87702380D01*
X128816666Y-87702380D01*
X128959523Y-87750000D01*
X129007142Y-87797619D01*
X129959523Y-88702380D02*
X129388095Y-88702380D01*
X129673809Y-88702380D02*
X129673809Y-87702380D01*
X129578571Y-87845238D01*
X129483333Y-87940476D01*
X129388095Y-87988095D01*
X130911904Y-88702380D02*
X130340476Y-88702380D01*
X130626190Y-88702380D02*
X130626190Y-87702380D01*
X130530952Y-87845238D01*
X130435714Y-87940476D01*
X130340476Y-87988095D01*
X88107142Y-90642857D02*
X88154761Y-90690476D01*
X88202380Y-90833333D01*
X88202380Y-90928571D01*
X88154761Y-91071428D01*
X88059523Y-91166666D01*
X87964285Y-91214285D01*
X87773809Y-91261904D01*
X87630952Y-91261904D01*
X87440476Y-91214285D01*
X87345238Y-91166666D01*
X87250000Y-91071428D01*
X87202380Y-90928571D01*
X87202380Y-90833333D01*
X87250000Y-90690476D01*
X87297619Y-90642857D01*
X88202380Y-89690476D02*
X88202380Y-90261904D01*
X88202380Y-89976190D02*
X87202380Y-89976190D01*
X87345238Y-90071428D01*
X87440476Y-90166666D01*
X87488095Y-90261904D01*
X87297619Y-89309523D02*
X87250000Y-89261904D01*
X87202380Y-89166666D01*
X87202380Y-88928571D01*
X87250000Y-88833333D01*
X87297619Y-88785714D01*
X87392857Y-88738095D01*
X87488095Y-88738095D01*
X87630952Y-88785714D01*
X88202380Y-89357142D01*
X88202380Y-88738095D01*
X96357142Y-85242857D02*
X96404761Y-85290476D01*
X96452380Y-85433333D01*
X96452380Y-85528571D01*
X96404761Y-85671428D01*
X96309523Y-85766666D01*
X96214285Y-85814285D01*
X96023809Y-85861904D01*
X95880952Y-85861904D01*
X95690476Y-85814285D01*
X95595238Y-85766666D01*
X95500000Y-85671428D01*
X95452380Y-85528571D01*
X95452380Y-85433333D01*
X95500000Y-85290476D01*
X95547619Y-85242857D01*
X96452380Y-84290476D02*
X96452380Y-84861904D01*
X96452380Y-84576190D02*
X95452380Y-84576190D01*
X95595238Y-84671428D01*
X95690476Y-84766666D01*
X95738095Y-84861904D01*
X95452380Y-83957142D02*
X95452380Y-83338095D01*
X95833333Y-83671428D01*
X95833333Y-83528571D01*
X95880952Y-83433333D01*
X95928571Y-83385714D01*
X96023809Y-83338095D01*
X96261904Y-83338095D01*
X96357142Y-83385714D01*
X96404761Y-83433333D01*
X96452380Y-83528571D01*
X96452380Y-83814285D01*
X96404761Y-83909523D01*
X96357142Y-83957142D01*
X148914442Y-91595657D02*
X148962061Y-91643276D01*
X149009680Y-91786133D01*
X149009680Y-91881371D01*
X148962061Y-92024228D01*
X148866823Y-92119466D01*
X148771585Y-92167085D01*
X148581109Y-92214704D01*
X148438252Y-92214704D01*
X148247776Y-92167085D01*
X148152538Y-92119466D01*
X148057300Y-92024228D01*
X148009680Y-91881371D01*
X148009680Y-91786133D01*
X148057300Y-91643276D01*
X148104919Y-91595657D01*
X149009680Y-90643276D02*
X149009680Y-91214704D01*
X149009680Y-90928990D02*
X148009680Y-90928990D01*
X148152538Y-91024228D01*
X148247776Y-91119466D01*
X148295395Y-91214704D01*
X148343014Y-89786133D02*
X149009680Y-89786133D01*
X147962061Y-90024228D02*
X148676347Y-90262323D01*
X148676347Y-89643276D01*
X184164442Y-85007142D02*
X184116823Y-85054761D01*
X183973966Y-85102380D01*
X183878728Y-85102380D01*
X183735871Y-85054761D01*
X183640633Y-84959523D01*
X183593014Y-84864285D01*
X183545395Y-84673809D01*
X183545395Y-84530952D01*
X183593014Y-84340476D01*
X183640633Y-84245238D01*
X183735871Y-84150000D01*
X183878728Y-84102380D01*
X183973966Y-84102380D01*
X184116823Y-84150000D01*
X184164442Y-84197619D01*
X185116823Y-85102380D02*
X184545395Y-85102380D01*
X184831109Y-85102380D02*
X184831109Y-84102380D01*
X184735871Y-84245238D01*
X184640633Y-84340476D01*
X184545395Y-84388095D01*
X186021585Y-84102380D02*
X185545395Y-84102380D01*
X185497776Y-84578571D01*
X185545395Y-84530952D01*
X185640633Y-84483333D01*
X185878728Y-84483333D01*
X185973966Y-84530952D01*
X186021585Y-84578571D01*
X186069204Y-84673809D01*
X186069204Y-84911904D01*
X186021585Y-85007142D01*
X185973966Y-85054761D01*
X185878728Y-85102380D01*
X185640633Y-85102380D01*
X185545395Y-85054761D01*
X185497776Y-85007142D01*
X227807142Y-92557142D02*
X227759523Y-92604761D01*
X227616666Y-92652380D01*
X227521428Y-92652380D01*
X227378571Y-92604761D01*
X227283333Y-92509523D01*
X227235714Y-92414285D01*
X227188095Y-92223809D01*
X227188095Y-92080952D01*
X227235714Y-91890476D01*
X227283333Y-91795238D01*
X227378571Y-91700000D01*
X227521428Y-91652380D01*
X227616666Y-91652380D01*
X227759523Y-91700000D01*
X227807142Y-91747619D01*
X228759523Y-92652380D02*
X228188095Y-92652380D01*
X228473809Y-92652380D02*
X228473809Y-91652380D01*
X228378571Y-91795238D01*
X228283333Y-91890476D01*
X228188095Y-91938095D01*
X229616666Y-91652380D02*
X229426190Y-91652380D01*
X229330952Y-91700000D01*
X229283333Y-91747619D01*
X229188095Y-91890476D01*
X229140476Y-92080952D01*
X229140476Y-92461904D01*
X229188095Y-92557142D01*
X229235714Y-92604761D01*
X229330952Y-92652380D01*
X229521428Y-92652380D01*
X229616666Y-92604761D01*
X229664285Y-92557142D01*
X229711904Y-92461904D01*
X229711904Y-92223809D01*
X229664285Y-92128571D01*
X229616666Y-92080952D01*
X229521428Y-92033333D01*
X229330952Y-92033333D01*
X229235714Y-92080952D01*
X229188095Y-92128571D01*
X229140476Y-92223809D01*
X239758966Y-82247380D02*
X239758966Y-82961666D01*
X239711347Y-83104523D01*
X239616109Y-83199761D01*
X239473252Y-83247380D01*
X239378014Y-83247380D01*
X240663728Y-82580714D02*
X240663728Y-83247380D01*
X240425633Y-82199761D02*
X240187538Y-82914047D01*
X240806585Y-82914047D01*
X89654761Y-91261904D02*
X89702380Y-91119047D01*
X89702380Y-90880952D01*
X89654761Y-90785714D01*
X89607142Y-90738095D01*
X89511904Y-90690476D01*
X89416666Y-90690476D01*
X89321428Y-90738095D01*
X89273809Y-90785714D01*
X89226190Y-90880952D01*
X89178571Y-91071428D01*
X89130952Y-91166666D01*
X89083333Y-91214285D01*
X88988095Y-91261904D01*
X88892857Y-91261904D01*
X88797619Y-91214285D01*
X88750000Y-91166666D01*
X88702380Y-91071428D01*
X88702380Y-90833333D01*
X88750000Y-90690476D01*
X89702380Y-89738095D02*
X89702380Y-90309523D01*
X89702380Y-90023809D02*
X88702380Y-90023809D01*
X88845238Y-90119047D01*
X88940476Y-90214285D01*
X88988095Y-90309523D01*
X95838095Y-83004761D02*
X95980952Y-83052380D01*
X96219047Y-83052380D01*
X96314285Y-83004761D01*
X96361904Y-82957142D01*
X96409523Y-82861904D01*
X96409523Y-82766666D01*
X96361904Y-82671428D01*
X96314285Y-82623809D01*
X96219047Y-82576190D01*
X96028571Y-82528571D01*
X95933333Y-82480952D01*
X95885714Y-82433333D01*
X95838095Y-82338095D01*
X95838095Y-82242857D01*
X95885714Y-82147619D01*
X95933333Y-82100000D01*
X96028571Y-82052380D01*
X96266666Y-82052380D01*
X96409523Y-82100000D01*
X96790476Y-82147619D02*
X96838095Y-82100000D01*
X96933333Y-82052380D01*
X97171428Y-82052380D01*
X97266666Y-82100000D01*
X97314285Y-82147619D01*
X97361904Y-82242857D01*
X97361904Y-82338095D01*
X97314285Y-82480952D01*
X96742857Y-83052380D01*
X97361904Y-83052380D01*
X147238095Y-94404761D02*
X147380952Y-94452380D01*
X147619047Y-94452380D01*
X147714285Y-94404761D01*
X147761904Y-94357142D01*
X147809523Y-94261904D01*
X147809523Y-94166666D01*
X147761904Y-94071428D01*
X147714285Y-94023809D01*
X147619047Y-93976190D01*
X147428571Y-93928571D01*
X147333333Y-93880952D01*
X147285714Y-93833333D01*
X147238095Y-93738095D01*
X147238095Y-93642857D01*
X147285714Y-93547619D01*
X147333333Y-93500000D01*
X147428571Y-93452380D01*
X147666666Y-93452380D01*
X147809523Y-93500000D01*
X148142857Y-93452380D02*
X148761904Y-93452380D01*
X148428571Y-93833333D01*
X148571428Y-93833333D01*
X148666666Y-93880952D01*
X148714285Y-93928571D01*
X148761904Y-94023809D01*
X148761904Y-94261904D01*
X148714285Y-94357142D01*
X148666666Y-94404761D01*
X148571428Y-94452380D01*
X148285714Y-94452380D01*
X148190476Y-94404761D01*
X148142857Y-94357142D01*
X188045395Y-87259561D02*
X188188252Y-87307180D01*
X188426347Y-87307180D01*
X188521585Y-87259561D01*
X188569204Y-87211942D01*
X188616823Y-87116704D01*
X188616823Y-87021466D01*
X188569204Y-86926228D01*
X188521585Y-86878609D01*
X188426347Y-86830990D01*
X188235871Y-86783371D01*
X188140633Y-86735752D01*
X188093014Y-86688133D01*
X188045395Y-86592895D01*
X188045395Y-86497657D01*
X188093014Y-86402419D01*
X188140633Y-86354800D01*
X188235871Y-86307180D01*
X188473966Y-86307180D01*
X188616823Y-86354800D01*
X189473966Y-86640514D02*
X189473966Y-87307180D01*
X189235871Y-86259561D02*
X188997776Y-86973847D01*
X189616823Y-86973847D01*
X228888095Y-95254761D02*
X229030952Y-95302380D01*
X229269047Y-95302380D01*
X229364285Y-95254761D01*
X229411904Y-95207142D01*
X229459523Y-95111904D01*
X229459523Y-95016666D01*
X229411904Y-94921428D01*
X229364285Y-94873809D01*
X229269047Y-94826190D01*
X229078571Y-94778571D01*
X228983333Y-94730952D01*
X228935714Y-94683333D01*
X228888095Y-94588095D01*
X228888095Y-94492857D01*
X228935714Y-94397619D01*
X228983333Y-94350000D01*
X229078571Y-94302380D01*
X229316666Y-94302380D01*
X229459523Y-94350000D01*
X230364285Y-94302380D02*
X229888095Y-94302380D01*
X229840476Y-94778571D01*
X229888095Y-94730952D01*
X229983333Y-94683333D01*
X230221428Y-94683333D01*
X230316666Y-94730952D01*
X230364285Y-94778571D01*
X230411904Y-94873809D01*
X230411904Y-95111904D01*
X230364285Y-95207142D01*
X230316666Y-95254761D01*
X230221428Y-95302380D01*
X229983333Y-95302380D01*
X229888095Y-95254761D01*
X229840476Y-95207142D01*
X78940476Y-85702380D02*
X78940476Y-86416666D01*
X78892857Y-86559523D01*
X78797619Y-86654761D01*
X78654761Y-86702380D01*
X78559523Y-86702380D01*
X79940476Y-86702380D02*
X79369047Y-86702380D01*
X79654761Y-86702380D02*
X79654761Y-85702380D01*
X79559523Y-85845238D01*
X79464285Y-85940476D01*
X79369047Y-85988095D01*
X80797619Y-85702380D02*
X80607142Y-85702380D01*
X80511904Y-85750000D01*
X80464285Y-85797619D01*
X80369047Y-85940476D01*
X80321428Y-86130952D01*
X80321428Y-86511904D01*
X80369047Y-86607142D01*
X80416666Y-86654761D01*
X80511904Y-86702380D01*
X80702380Y-86702380D01*
X80797619Y-86654761D01*
X80845238Y-86607142D01*
X80892857Y-86511904D01*
X80892857Y-86273809D01*
X80845238Y-86178571D01*
X80797619Y-86130952D01*
X80702380Y-86083333D01*
X80511904Y-86083333D01*
X80416666Y-86130952D01*
X80369047Y-86178571D01*
X80321428Y-86273809D01*
X93902976Y-87702380D02*
X93902976Y-88416666D01*
X93855357Y-88559523D01*
X93760119Y-88654761D01*
X93617261Y-88702380D01*
X93522023Y-88702380D01*
X94902976Y-88702380D02*
X94331547Y-88702380D01*
X94617261Y-88702380D02*
X94617261Y-87702380D01*
X94522023Y-87845238D01*
X94426785Y-87940476D01*
X94331547Y-87988095D01*
X95236309Y-87702380D02*
X95902976Y-87702380D01*
X95474404Y-88702380D01*
X216940476Y-87552380D02*
X216940476Y-88266666D01*
X216892857Y-88409523D01*
X216797619Y-88504761D01*
X216654761Y-88552380D01*
X216559523Y-88552380D01*
X217369047Y-87647619D02*
X217416666Y-87600000D01*
X217511904Y-87552380D01*
X217750000Y-87552380D01*
X217845238Y-87600000D01*
X217892857Y-87647619D01*
X217940476Y-87742857D01*
X217940476Y-87838095D01*
X217892857Y-87980952D01*
X217321428Y-88552380D01*
X217940476Y-88552380D01*
X218559523Y-87552380D02*
X218654761Y-87552380D01*
X218750000Y-87600000D01*
X218797619Y-87647619D01*
X218845238Y-87742857D01*
X218892857Y-87933333D01*
X218892857Y-88171428D01*
X218845238Y-88361904D01*
X218797619Y-88457142D01*
X218750000Y-88504761D01*
X218654761Y-88552380D01*
X218559523Y-88552380D01*
X218464285Y-88504761D01*
X218416666Y-88457142D01*
X218369047Y-88361904D01*
X218321428Y-88171428D01*
X218321428Y-87933333D01*
X218369047Y-87742857D01*
X218416666Y-87647619D01*
X218464285Y-87600000D01*
X218559523Y-87552380D01*
X107652380Y-86233333D02*
X108366666Y-86233333D01*
X108509523Y-86280952D01*
X108604761Y-86376190D01*
X108652380Y-86519047D01*
X108652380Y-86614285D01*
X108652380Y-85757142D02*
X107652380Y-85757142D01*
X107652380Y-85376190D01*
X107700000Y-85280952D01*
X107747619Y-85233333D01*
X107842857Y-85185714D01*
X107985714Y-85185714D01*
X108080952Y-85233333D01*
X108128571Y-85280952D01*
X108176190Y-85376190D01*
X108176190Y-85757142D01*
X108652380Y-84233333D02*
X108652380Y-84804761D01*
X108652380Y-84519047D02*
X107652380Y-84519047D01*
X107795238Y-84614285D01*
X107890476Y-84709523D01*
X107938095Y-84804761D01*
X112566666Y-91452380D02*
X112566666Y-92166666D01*
X112519047Y-92309523D01*
X112423809Y-92404761D01*
X112280952Y-92452380D01*
X112185714Y-92452380D01*
X113042857Y-92452380D02*
X113042857Y-91452380D01*
X113423809Y-91452380D01*
X113519047Y-91500000D01*
X113566666Y-91547619D01*
X113614285Y-91642857D01*
X113614285Y-91785714D01*
X113566666Y-91880952D01*
X113519047Y-91928571D01*
X113423809Y-91976190D01*
X113042857Y-91976190D01*
X113995238Y-91547619D02*
X114042857Y-91500000D01*
X114138095Y-91452380D01*
X114376190Y-91452380D01*
X114471428Y-91500000D01*
X114519047Y-91547619D01*
X114566666Y-91642857D01*
X114566666Y-91738095D01*
X114519047Y-91880952D01*
X113947619Y-92452380D01*
X114566666Y-92452380D01*
X129433333Y-91502380D02*
X129100000Y-91026190D01*
X128861904Y-91502380D02*
X128861904Y-90502380D01*
X129242857Y-90502380D01*
X129338095Y-90550000D01*
X129385714Y-90597619D01*
X129433333Y-90692857D01*
X129433333Y-90835714D01*
X129385714Y-90930952D01*
X129338095Y-90978571D01*
X129242857Y-91026190D01*
X128861904Y-91026190D01*
X129814285Y-90597619D02*
X129861904Y-90550000D01*
X129957142Y-90502380D01*
X130195238Y-90502380D01*
X130290476Y-90550000D01*
X130338095Y-90597619D01*
X130385714Y-90692857D01*
X130385714Y-90788095D01*
X130338095Y-90930952D01*
X129766666Y-91502380D01*
X130385714Y-91502380D01*
X84702380Y-85166666D02*
X84226190Y-85500000D01*
X84702380Y-85738095D02*
X83702380Y-85738095D01*
X83702380Y-85357142D01*
X83750000Y-85261904D01*
X83797619Y-85214285D01*
X83892857Y-85166666D01*
X84035714Y-85166666D01*
X84130952Y-85214285D01*
X84178571Y-85261904D01*
X84226190Y-85357142D01*
X84226190Y-85738095D01*
X83702380Y-84833333D02*
X83702380Y-84214285D01*
X84083333Y-84547619D01*
X84083333Y-84404761D01*
X84130952Y-84309523D01*
X84178571Y-84261904D01*
X84273809Y-84214285D01*
X84511904Y-84214285D01*
X84607142Y-84261904D01*
X84654761Y-84309523D01*
X84702380Y-84404761D01*
X84702380Y-84690476D01*
X84654761Y-84785714D01*
X84607142Y-84833333D01*
X100652380Y-85566666D02*
X100176190Y-85900000D01*
X100652380Y-86138095D02*
X99652380Y-86138095D01*
X99652380Y-85757142D01*
X99700000Y-85661904D01*
X99747619Y-85614285D01*
X99842857Y-85566666D01*
X99985714Y-85566666D01*
X100080952Y-85614285D01*
X100128571Y-85661904D01*
X100176190Y-85757142D01*
X100176190Y-86138095D01*
X99985714Y-84709523D02*
X100652380Y-84709523D01*
X99604761Y-84947619D02*
X100319047Y-85185714D01*
X100319047Y-84566666D01*
X141552380Y-85766666D02*
X141076190Y-86100000D01*
X141552380Y-86338095D02*
X140552380Y-86338095D01*
X140552380Y-85957142D01*
X140600000Y-85861904D01*
X140647619Y-85814285D01*
X140742857Y-85766666D01*
X140885714Y-85766666D01*
X140980952Y-85814285D01*
X141028571Y-85861904D01*
X141076190Y-85957142D01*
X141076190Y-86338095D01*
X140552380Y-84861904D02*
X140552380Y-85338095D01*
X141028571Y-85385714D01*
X140980952Y-85338095D01*
X140933333Y-85242857D01*
X140933333Y-85004761D01*
X140980952Y-84909523D01*
X141028571Y-84861904D01*
X141123809Y-84814285D01*
X141361904Y-84814285D01*
X141457142Y-84861904D01*
X141504761Y-84909523D01*
X141552380Y-85004761D01*
X141552380Y-85242857D01*
X141504761Y-85338095D01*
X141457142Y-85385714D01*
X182602380Y-85866666D02*
X182126190Y-86200000D01*
X182602380Y-86438095D02*
X181602380Y-86438095D01*
X181602380Y-86057142D01*
X181650000Y-85961904D01*
X181697619Y-85914285D01*
X181792857Y-85866666D01*
X181935714Y-85866666D01*
X182030952Y-85914285D01*
X182078571Y-85961904D01*
X182126190Y-86057142D01*
X182126190Y-86438095D01*
X181602380Y-85009523D02*
X181602380Y-85200000D01*
X181650000Y-85295238D01*
X181697619Y-85342857D01*
X181840476Y-85438095D01*
X182030952Y-85485714D01*
X182411904Y-85485714D01*
X182507142Y-85438095D01*
X182554761Y-85390476D01*
X182602380Y-85295238D01*
X182602380Y-85104761D01*
X182554761Y-85009523D01*
X182507142Y-84961904D01*
X182411904Y-84914285D01*
X182173809Y-84914285D01*
X182078571Y-84961904D01*
X182030952Y-85009523D01*
X181983333Y-85104761D01*
X181983333Y-85295238D01*
X182030952Y-85390476D01*
X182078571Y-85438095D01*
X182173809Y-85485714D01*
X223552380Y-85666666D02*
X223076190Y-86000000D01*
X223552380Y-86238095D02*
X222552380Y-86238095D01*
X222552380Y-85857142D01*
X222600000Y-85761904D01*
X222647619Y-85714285D01*
X222742857Y-85666666D01*
X222885714Y-85666666D01*
X222980952Y-85714285D01*
X223028571Y-85761904D01*
X223076190Y-85857142D01*
X223076190Y-86238095D01*
X222552380Y-85333333D02*
X222552380Y-84666666D01*
X223552380Y-85095238D01*
X156304761Y-91883333D02*
X156352380Y-91740476D01*
X156352380Y-91502380D01*
X156304761Y-91407142D01*
X156257142Y-91359523D01*
X156161904Y-91311904D01*
X156066666Y-91311904D01*
X155971428Y-91359523D01*
X155923809Y-91407142D01*
X155876190Y-91502380D01*
X155828571Y-91692857D01*
X155780952Y-91788095D01*
X155733333Y-91835714D01*
X155638095Y-91883333D01*
X155542857Y-91883333D01*
X155447619Y-91835714D01*
X155400000Y-91788095D01*
X155352380Y-91692857D01*
X155352380Y-91454761D01*
X155400000Y-91311904D01*
X155352380Y-90978571D02*
X156352380Y-90740476D01*
X155638095Y-90550000D01*
X156352380Y-90359523D01*
X155352380Y-90121428D01*
X156352380Y-89216666D02*
X156352380Y-89788095D01*
X156352380Y-89502380D02*
X155352380Y-89502380D01*
X155495238Y-89597619D01*
X155590476Y-89692857D01*
X155638095Y-89788095D01*
X67452380Y-93664704D02*
X68261904Y-93664704D01*
X68357142Y-93617085D01*
X68404761Y-93569466D01*
X68452380Y-93474228D01*
X68452380Y-93283752D01*
X68404761Y-93188514D01*
X68357142Y-93140895D01*
X68261904Y-93093276D01*
X67452380Y-93093276D01*
X68452380Y-92093276D02*
X68452380Y-92664704D01*
X68452380Y-92378990D02*
X67452380Y-92378990D01*
X67595238Y-92474228D01*
X67690476Y-92569466D01*
X67738095Y-92664704D01*
X232145395Y-93402380D02*
X232145395Y-94211904D01*
X232193014Y-94307142D01*
X232240633Y-94354761D01*
X232335871Y-94402380D01*
X232526347Y-94402380D01*
X232621585Y-94354761D01*
X232669204Y-94307142D01*
X232716823Y-94211904D01*
X232716823Y-93402380D01*
X233097776Y-93402380D02*
X233716823Y-93402380D01*
X233383490Y-93783333D01*
X233526347Y-93783333D01*
X233621585Y-93830952D01*
X233669204Y-93878571D01*
X233716823Y-93973809D01*
X233716823Y-94211904D01*
X233669204Y-94307142D01*
X233621585Y-94354761D01*
X233526347Y-94402380D01*
X233240633Y-94402380D01*
X233145395Y-94354761D01*
X233097776Y-94307142D01*
X206488095Y-82602380D02*
X206488095Y-83411904D01*
X206535714Y-83507142D01*
X206583333Y-83554761D01*
X206678571Y-83602380D01*
X206869047Y-83602380D01*
X206964285Y-83554761D01*
X207011904Y-83507142D01*
X207059523Y-83411904D01*
X207059523Y-82602380D01*
X208011904Y-82602380D02*
X207535714Y-82602380D01*
X207488095Y-83078571D01*
X207535714Y-83030952D01*
X207630952Y-82983333D01*
X207869047Y-82983333D01*
X207964285Y-83030952D01*
X208011904Y-83078571D01*
X208059523Y-83173809D01*
X208059523Y-83411904D01*
X208011904Y-83507142D01*
X207964285Y-83554761D01*
X207869047Y-83602380D01*
X207630952Y-83602380D01*
X207535714Y-83554761D01*
X207488095Y-83507142D01*
X85702380Y-91011904D02*
X86511904Y-91011904D01*
X86607142Y-90964285D01*
X86654761Y-90916666D01*
X86702380Y-90821428D01*
X86702380Y-90630952D01*
X86654761Y-90535714D01*
X86607142Y-90488095D01*
X86511904Y-90440476D01*
X85702380Y-90440476D01*
X85702380Y-90059523D02*
X85702380Y-89392857D01*
X86702380Y-89821428D01*
X93438095Y-83452380D02*
X93438095Y-84261904D01*
X93485714Y-84357142D01*
X93533333Y-84404761D01*
X93628571Y-84452380D01*
X93819047Y-84452380D01*
X93914285Y-84404761D01*
X93961904Y-84357142D01*
X94009523Y-84261904D01*
X94009523Y-83452380D01*
X94628571Y-83880952D02*
X94533333Y-83833333D01*
X94485714Y-83785714D01*
X94438095Y-83690476D01*
X94438095Y-83642857D01*
X94485714Y-83547619D01*
X94533333Y-83500000D01*
X94628571Y-83452380D01*
X94819047Y-83452380D01*
X94914285Y-83500000D01*
X94961904Y-83547619D01*
X95009523Y-83642857D01*
X95009523Y-83690476D01*
X94961904Y-83785714D01*
X94914285Y-83833333D01*
X94819047Y-83880952D01*
X94628571Y-83880952D01*
X94533333Y-83928571D01*
X94485714Y-83976190D01*
X94438095Y-84071428D01*
X94438095Y-84261904D01*
X94485714Y-84357142D01*
X94533333Y-84404761D01*
X94628571Y-84452380D01*
X94819047Y-84452380D01*
X94914285Y-84404761D01*
X94961904Y-84357142D01*
X95009523Y-84261904D01*
X95009523Y-84071428D01*
X94961904Y-83976190D01*
X94914285Y-83928571D01*
X94819047Y-83880952D01*
X143645395Y-88402380D02*
X143645395Y-89211904D01*
X143693014Y-89307142D01*
X143740633Y-89354761D01*
X143835871Y-89402380D01*
X144026347Y-89402380D01*
X144121585Y-89354761D01*
X144169204Y-89307142D01*
X144216823Y-89211904D01*
X144216823Y-88402380D01*
X144740633Y-89402380D02*
X144931109Y-89402380D01*
X145026347Y-89354761D01*
X145073966Y-89307142D01*
X145169204Y-89164285D01*
X145216823Y-88973809D01*
X145216823Y-88592857D01*
X145169204Y-88497619D01*
X145121585Y-88450000D01*
X145026347Y-88402380D01*
X144835871Y-88402380D01*
X144740633Y-88450000D01*
X144693014Y-88497619D01*
X144645395Y-88592857D01*
X144645395Y-88830952D01*
X144693014Y-88926190D01*
X144740633Y-88973809D01*
X144835871Y-89021428D01*
X145026347Y-89021428D01*
X145121585Y-88973809D01*
X145169204Y-88926190D01*
X145216823Y-88830952D01*
X184111904Y-91602380D02*
X184111904Y-92411904D01*
X184159523Y-92507142D01*
X184207142Y-92554761D01*
X184302380Y-92602380D01*
X184492857Y-92602380D01*
X184588095Y-92554761D01*
X184635714Y-92507142D01*
X184683333Y-92411904D01*
X184683333Y-91602380D01*
X185683333Y-92602380D02*
X185111904Y-92602380D01*
X185397619Y-92602380D02*
X185397619Y-91602380D01*
X185302380Y-91745238D01*
X185207142Y-91840476D01*
X185111904Y-91888095D01*
X186302380Y-91602380D02*
X186397619Y-91602380D01*
X186492857Y-91650000D01*
X186540476Y-91697619D01*
X186588095Y-91792857D01*
X186635714Y-91983333D01*
X186635714Y-92221428D01*
X186588095Y-92411904D01*
X186540476Y-92507142D01*
X186492857Y-92554761D01*
X186397619Y-92602380D01*
X186302380Y-92602380D01*
X186207142Y-92554761D01*
X186159523Y-92507142D01*
X186111904Y-92411904D01*
X186064285Y-92221428D01*
X186064285Y-91983333D01*
X186111904Y-91792857D01*
X186159523Y-91697619D01*
X186207142Y-91650000D01*
X186302380Y-91602380D01*
X224411904Y-90402380D02*
X224411904Y-91211904D01*
X224459523Y-91307142D01*
X224507142Y-91354761D01*
X224602380Y-91402380D01*
X224792857Y-91402380D01*
X224888095Y-91354761D01*
X224935714Y-91307142D01*
X224983333Y-91211904D01*
X224983333Y-90402380D01*
X225983333Y-91402380D02*
X225411904Y-91402380D01*
X225697619Y-91402380D02*
X225697619Y-90402380D01*
X225602380Y-90545238D01*
X225507142Y-90640476D01*
X225411904Y-90688095D01*
X226935714Y-91402380D02*
X226364285Y-91402380D01*
X226650000Y-91402380D02*
X226650000Y-90402380D01*
X226554761Y-90545238D01*
X226459523Y-90640476D01*
X226364285Y-90688095D01*
X226788095Y-85002380D02*
X226788095Y-85811904D01*
X226835714Y-85907142D01*
X226883333Y-85954761D01*
X226978571Y-86002380D01*
X227169047Y-86002380D01*
X227264285Y-85954761D01*
X227311904Y-85907142D01*
X227359523Y-85811904D01*
X227359523Y-85002380D01*
X227788095Y-85097619D02*
X227835714Y-85050000D01*
X227930952Y-85002380D01*
X228169047Y-85002380D01*
X228264285Y-85050000D01*
X228311904Y-85097619D01*
X228359523Y-85192857D01*
X228359523Y-85288095D01*
X228311904Y-85430952D01*
X227740476Y-86002380D01*
X228359523Y-86002380D01*
X71833333Y-85702380D02*
X71500000Y-85226190D01*
X71261904Y-85702380D02*
X71261904Y-84702380D01*
X71642857Y-84702380D01*
X71738095Y-84750000D01*
X71785714Y-84797619D01*
X71833333Y-84892857D01*
X71833333Y-85035714D01*
X71785714Y-85130952D01*
X71738095Y-85178571D01*
X71642857Y-85226190D01*
X71261904Y-85226190D01*
X72785714Y-85702380D02*
X72214285Y-85702380D01*
X72500000Y-85702380D02*
X72500000Y-84702380D01*
X72404761Y-84845238D01*
X72309523Y-84940476D01*
X72214285Y-84988095D01*
X103633333Y-83957142D02*
X103585714Y-84004761D01*
X103442857Y-84052380D01*
X103347619Y-84052380D01*
X103204761Y-84004761D01*
X103109523Y-83909523D01*
X103061904Y-83814285D01*
X103014285Y-83623809D01*
X103014285Y-83480952D01*
X103061904Y-83290476D01*
X103109523Y-83195238D01*
X103204761Y-83100000D01*
X103347619Y-83052380D01*
X103442857Y-83052380D01*
X103585714Y-83100000D01*
X103633333Y-83147619D01*
X104014285Y-83147619D02*
X104061904Y-83100000D01*
X104157142Y-83052380D01*
X104395238Y-83052380D01*
X104490476Y-83100000D01*
X104538095Y-83147619D01*
X104585714Y-83242857D01*
X104585714Y-83338095D01*
X104538095Y-83480952D01*
X103966666Y-84052380D01*
X104585714Y-84052380D01*
X101961428Y-85310952D02*
X101961428Y-84549047D01*
X102342380Y-84930000D02*
X101580476Y-84930000D01*
X168786904Y-91377380D02*
X168786904Y-90377380D01*
X169025000Y-90377380D01*
X169167857Y-90425000D01*
X169263095Y-90520238D01*
X169310714Y-90615476D01*
X169358333Y-90805952D01*
X169358333Y-90948809D01*
X169310714Y-91139285D01*
X169263095Y-91234523D01*
X169167857Y-91329761D01*
X169025000Y-91377380D01*
X168786904Y-91377380D01*
X170310714Y-91377380D02*
X169739285Y-91377380D01*
X170025000Y-91377380D02*
X170025000Y-90377380D01*
X169929761Y-90520238D01*
X169834523Y-90615476D01*
X169739285Y-90663095D01*
X164477380Y-92866666D02*
X164001190Y-93200000D01*
X164477380Y-93438095D02*
X163477380Y-93438095D01*
X163477380Y-93057142D01*
X163525000Y-92961904D01*
X163572619Y-92914285D01*
X163667857Y-92866666D01*
X163810714Y-92866666D01*
X163905952Y-92914285D01*
X163953571Y-92961904D01*
X164001190Y-93057142D01*
X164001190Y-93438095D01*
X163905952Y-92295238D02*
X163858333Y-92390476D01*
X163810714Y-92438095D01*
X163715476Y-92485714D01*
X163667857Y-92485714D01*
X163572619Y-92438095D01*
X163525000Y-92390476D01*
X163477380Y-92295238D01*
X163477380Y-92104761D01*
X163525000Y-92009523D01*
X163572619Y-91961904D01*
X163667857Y-91914285D01*
X163715476Y-91914285D01*
X163810714Y-91961904D01*
X163858333Y-92009523D01*
X163905952Y-92104761D01*
X163905952Y-92295238D01*
X163953571Y-92390476D01*
X164001190Y-92438095D01*
X164096428Y-92485714D01*
X164286904Y-92485714D01*
X164382142Y-92438095D01*
X164429761Y-92390476D01*
X164477380Y-92295238D01*
X164477380Y-92104761D01*
X164429761Y-92009523D01*
X164382142Y-91961904D01*
X164286904Y-91914285D01*
X164096428Y-91914285D01*
X164001190Y-91961904D01*
X163953571Y-92009523D01*
X163905952Y-92104761D01*
M02*
