%TF.GenerationSoftware,KiCad,Pcbnew,(2018-01-21 revision 6b9866de8)-makepkg*%
%TF.CreationDate,2018-04-10T13:48:17+02:00*%
%TF.ProjectId,Arm_interface_board,41726D5F696E746572666163655F626F,rev?*%
%TF.SameCoordinates,Original*%
%TF.FileFunction,Profile,NP*%
%FSLAX46Y46*%
G04 Gerber Fmt 4.6, Leading zero omitted, Abs format (unit mm)*
G04 Created by KiCad (PCBNEW (2018-01-21 revision 6b9866de8)-makepkg) date 04/10/18 13:48:17*
%MOMM*%
%LPD*%
G01*
G04 APERTURE LIST*
%ADD10C,0.100000*%
G04 APERTURE END LIST*
D10*
X233942700Y-88397200D02*
G75*
G03X233942700Y-88397200I-1200000J0D01*
G01*
X91065324Y-85097200D02*
X93065324Y-85097200D01*
X91065324Y-81097200D02*
X91065324Y-85097200D01*
X53142700Y-81097200D02*
X91065324Y-81097200D01*
X53142700Y-95697200D02*
X53142700Y-81097200D01*
X242742700Y-95697200D02*
X53142700Y-95697200D01*
X242742700Y-81097200D02*
X242742700Y-95697200D01*
X216065324Y-81097200D02*
X242742700Y-81097200D01*
X216065324Y-85097200D02*
X216065324Y-81097200D01*
X214065324Y-85097200D02*
X216065324Y-85097200D01*
X214065324Y-81097200D02*
X214065324Y-85097200D01*
X175065324Y-81097200D02*
X214065324Y-81097200D01*
X175065324Y-85097200D02*
X175065324Y-81097200D01*
X173065324Y-85097200D02*
X175065324Y-85097200D01*
X173065324Y-81097200D02*
X173065324Y-85097200D01*
X134065324Y-81097200D02*
X173065324Y-81097200D01*
X134065324Y-85097200D02*
X134065324Y-81097200D01*
X132065324Y-85097200D02*
X134065324Y-85097200D01*
X132065324Y-81097200D02*
X132065324Y-85097200D01*
X93065324Y-81097200D02*
X132065324Y-81097200D01*
X93065324Y-85097200D02*
X93065324Y-81097200D01*
X152942700Y-88397200D02*
G75*
G03X152942700Y-88397200I-1200000J0D01*
G01*
X71942700Y-88397200D02*
G75*
G03X71942700Y-88397200I-1200000J0D01*
G01*
M02*
