G04 #@! TF.GenerationSoftware,KiCad,Pcbnew,(2018-01-21 revision 6b9866de8)-makepkg*
G04 #@! TF.CreationDate,2018-02-06T18:12:56+01:00*
G04 #@! TF.ProjectId,Arm_interface_panel,41726D5F696E746572666163655F7061,rev?*
G04 #@! TF.SameCoordinates,Original*
G04 #@! TF.FileFunction,Paste,Top*
G04 #@! TF.FilePolarity,Positive*
%FSLAX46Y46*%
G04 Gerber Fmt 4.6, Leading zero omitted, Abs format (unit mm)*
G04 Created by KiCad (PCBNEW (2018-01-21 revision 6b9866de8)-makepkg) date 02/06/18 18:12:56*
%MOMM*%
%LPD*%
G01*
G04 APERTURE LIST*
%ADD10R,1.447600X0.397600*%
%ADD11R,0.397600X1.447600*%
%ADD12R,1.247600X1.047600*%
%ADD13R,0.497600X0.422600*%
%ADD14R,0.422600X0.497600*%
%ADD15R,1.647600X0.917600*%
%ADD16R,0.947600X1.647600*%
%ADD17R,0.497600X0.907600*%
%ADD18R,0.047600X0.377600*%
%ADD19R,0.907600X0.497600*%
%ADD20R,0.522600X0.097600*%
%ADD21R,0.097600X0.522600*%
%ADD22R,0.917600X1.647600*%
%ADD23R,1.447600X2.447600*%
%ADD24R,0.517600X0.847600*%
G04 APERTURE END LIST*
D10*
X115850000Y-87300000D03*
X115850000Y-88100000D03*
X115850000Y-88900000D03*
X115850000Y-89700000D03*
X115850000Y-90500000D03*
X115850000Y-91300000D03*
X115850000Y-92100000D03*
X115850000Y-92900000D03*
D11*
X117300000Y-94350000D03*
X118100000Y-94350000D03*
X118900000Y-94350000D03*
X119700000Y-94350000D03*
X120500000Y-94350000D03*
X121300000Y-94350000D03*
X122100000Y-94350000D03*
X122900000Y-94350000D03*
D10*
X124350000Y-92900000D03*
X124350000Y-92100000D03*
X124350000Y-91300000D03*
X124350000Y-90500000D03*
X124350000Y-89700000D03*
X124350000Y-88900000D03*
X124350000Y-88100000D03*
X124350000Y-87300000D03*
D11*
X122900000Y-85850000D03*
X122100000Y-85850000D03*
X121300000Y-85850000D03*
X120500000Y-85850000D03*
X119700000Y-85850000D03*
X118900000Y-85850000D03*
X118100000Y-85850000D03*
X117300000Y-85850000D03*
D12*
X108800000Y-92350000D03*
X106600000Y-92350000D03*
X106600000Y-94050000D03*
X108800000Y-94050000D03*
D13*
X73057300Y-93990300D03*
X73057300Y-93215300D03*
X114200000Y-90487500D03*
X114200000Y-89712500D03*
D14*
X110657300Y-91902800D03*
X111432300Y-91902800D03*
D13*
X104957300Y-93715300D03*
X104957300Y-94490300D03*
X204650000Y-85112500D03*
X204650000Y-85887500D03*
X209850000Y-85900000D03*
X209850000Y-85125000D03*
X126000000Y-90500000D03*
X126000000Y-89725000D03*
D14*
X230462500Y-92000000D03*
X231237500Y-92000000D03*
D13*
X229750000Y-88112500D03*
X229750000Y-88887500D03*
D14*
X128037500Y-89500000D03*
X127262500Y-89500000D03*
D13*
X87600000Y-92937500D03*
X87600000Y-92162500D03*
X103557300Y-93727800D03*
X103557300Y-94502800D03*
X147057300Y-91340300D03*
X147057300Y-90565300D03*
D14*
X184419800Y-86852800D03*
X185194800Y-86852800D03*
D13*
X226500000Y-93087500D03*
X226500000Y-92312500D03*
D14*
X128037500Y-90700000D03*
X127262500Y-90700000D03*
D15*
X84200000Y-90200000D03*
X84200000Y-87190000D03*
X100100000Y-87490000D03*
X100100000Y-90500000D03*
X141100000Y-90500000D03*
X141100000Y-87490000D03*
X182100000Y-87500000D03*
X182100000Y-90510000D03*
X223100000Y-90500000D03*
X223100000Y-87490000D03*
D16*
X157650000Y-93650000D03*
X157650000Y-87450000D03*
X161350000Y-93650000D03*
X161350000Y-87450000D03*
D17*
X71557300Y-94002800D03*
X69657300Y-94002800D03*
X69657300Y-91802800D03*
X70607300Y-91802800D03*
X71557300Y-91802800D03*
D18*
X231432300Y-93217800D03*
X231082300Y-93217800D03*
X230732300Y-93217800D03*
X230382300Y-93217800D03*
X230382300Y-93887800D03*
X230732300Y-93887800D03*
X231082300Y-93887800D03*
X231432300Y-93887800D03*
D19*
X208350000Y-85100000D03*
X208350000Y-87000000D03*
X206150000Y-87000000D03*
X206150000Y-86050000D03*
X206150000Y-85100000D03*
X86100000Y-94050000D03*
X86100000Y-93100000D03*
X86100000Y-92150000D03*
X83900000Y-92150000D03*
X83900000Y-94050000D03*
X99700000Y-94150000D03*
X99700000Y-92250000D03*
X101900000Y-92250000D03*
X101900000Y-93200000D03*
X101900000Y-94150000D03*
X145507300Y-92402800D03*
X145507300Y-91452800D03*
X145507300Y-90502800D03*
X143307300Y-90502800D03*
X143307300Y-92402800D03*
D17*
X186307300Y-90502800D03*
X184407300Y-90502800D03*
X184407300Y-88302800D03*
X185357300Y-88302800D03*
X186307300Y-88302800D03*
D19*
X225000000Y-94150000D03*
X225000000Y-93200000D03*
X225000000Y-92250000D03*
X222800000Y-92250000D03*
X222800000Y-94150000D03*
D20*
X226537500Y-88300000D03*
X226537500Y-88800000D03*
X226537500Y-87800000D03*
X228562500Y-88800000D03*
X228562500Y-88300000D03*
X228562500Y-87800000D03*
D21*
X226800000Y-89562500D03*
X227300000Y-89562500D03*
X227800000Y-89562500D03*
X228300000Y-89562500D03*
X228300000Y-87037500D03*
X227800000Y-87037500D03*
X227300000Y-87037500D03*
X226800000Y-87037500D03*
D22*
X72167300Y-83052800D03*
X69157300Y-83052800D03*
D23*
X103900000Y-85900000D03*
X103900000Y-89500000D03*
D24*
X166050000Y-90925000D03*
X167800000Y-90925000D03*
D13*
X164025000Y-90937500D03*
X164025000Y-90162500D03*
M02*
