G04 #@! TF.GenerationSoftware,KiCad,Pcbnew,(2018-01-21 revision 6b9866de8)-makepkg*
G04 #@! TF.CreationDate,2018-02-06T18:12:56+01:00*
G04 #@! TF.ProjectId,Arm_interface_panel,41726D5F696E746572666163655F7061,rev?*
G04 #@! TF.SameCoordinates,Original*
G04 #@! TF.FileFunction,Legend,Bot*
G04 #@! TF.FilePolarity,Positive*
%FSLAX46Y46*%
G04 Gerber Fmt 4.6, Leading zero omitted, Abs format (unit mm)*
G04 Created by KiCad (PCBNEW (2018-01-21 revision 6b9866de8)-makepkg) date 02/06/18 18:12:56*
%MOMM*%
%LPD*%
G01*
G04 APERTURE LIST*
%ADD10C,0.150000*%
%ADD11C,0.200000*%
%ADD12C,0.120000*%
%ADD13C,0.010000*%
%ADD14C,0.100000*%
G04 APERTURE END LIST*
D10*
X130736904Y-99716666D02*
X130260714Y-99716666D01*
X130832142Y-100002380D02*
X130498809Y-99002380D01*
X130165476Y-100002380D01*
X129832142Y-100002380D02*
X129832142Y-99335714D01*
X129832142Y-99526190D02*
X129784523Y-99430952D01*
X129736904Y-99383333D01*
X129641666Y-99335714D01*
X129546428Y-99335714D01*
X128832142Y-99954761D02*
X128927380Y-100002380D01*
X129117857Y-100002380D01*
X129213095Y-99954761D01*
X129260714Y-99859523D01*
X129260714Y-99478571D01*
X129213095Y-99383333D01*
X129117857Y-99335714D01*
X128927380Y-99335714D01*
X128832142Y-99383333D01*
X128784523Y-99478571D01*
X128784523Y-99573809D01*
X129260714Y-99669047D01*
X128498809Y-99335714D02*
X128117857Y-99335714D01*
X128355952Y-100002380D02*
X128355952Y-99145238D01*
X128308333Y-99050000D01*
X128213095Y-99002380D01*
X128117857Y-99002380D01*
D11*
X168575000Y-100517857D02*
X168575000Y-99317857D01*
X168117857Y-99317857D01*
X168003571Y-99375000D01*
X167946428Y-99432142D01*
X167889285Y-99546428D01*
X167889285Y-99717857D01*
X167946428Y-99832142D01*
X168003571Y-99889285D01*
X168117857Y-99946428D01*
X168575000Y-99946428D01*
X167489285Y-99317857D02*
X167203571Y-100517857D01*
X166975000Y-99660714D01*
X166746428Y-100517857D01*
X166460714Y-99317857D01*
X165317857Y-100517857D02*
X165717857Y-99946428D01*
X166003571Y-100517857D02*
X166003571Y-99317857D01*
X165546428Y-99317857D01*
X165432142Y-99375000D01*
X165375000Y-99432142D01*
X165317857Y-99546428D01*
X165317857Y-99717857D01*
X165375000Y-99832142D01*
X165432142Y-99889285D01*
X165546428Y-99946428D01*
X166003571Y-99946428D01*
D10*
X75904761Y-102408333D02*
X75952380Y-102551190D01*
X75952380Y-102789285D01*
X75904761Y-102884523D01*
X75857142Y-102932142D01*
X75761904Y-102979761D01*
X75666666Y-102979761D01*
X75571428Y-102932142D01*
X75523809Y-102884523D01*
X75476190Y-102789285D01*
X75428571Y-102598809D01*
X75380952Y-102503571D01*
X75333333Y-102455952D01*
X75238095Y-102408333D01*
X75142857Y-102408333D01*
X75047619Y-102455952D01*
X75000000Y-102503571D01*
X74952380Y-102598809D01*
X74952380Y-102836904D01*
X75000000Y-102979761D01*
X75571428Y-103408333D02*
X75571428Y-104170238D01*
X75952380Y-104646428D02*
X74952380Y-104646428D01*
X75952380Y-105122619D02*
X74952380Y-105122619D01*
X75952380Y-105694047D01*
X74952380Y-105694047D01*
X76250000Y-106000000D02*
X76250000Y-100250000D01*
X93200000Y-107750000D02*
X98600000Y-107750000D01*
X98600000Y-98550000D02*
X105400000Y-98550000D01*
X90000000Y-104000000D02*
X90000000Y-100250000D01*
X98600000Y-98950000D02*
X98600000Y-98550000D01*
X98600000Y-107750000D02*
X98600000Y-98950000D01*
X105400000Y-98550000D02*
X109600000Y-98550000D01*
X116475000Y-107050000D02*
X115050000Y-107050000D01*
X123725000Y-107275000D02*
X123400000Y-107275000D01*
X123725000Y-100025000D02*
X123400000Y-100025000D01*
X116475000Y-100025000D02*
X116800000Y-100025000D01*
X116475000Y-107275000D02*
X116800000Y-107275000D01*
X116475000Y-100025000D02*
X116475000Y-100350000D01*
X123725000Y-100025000D02*
X123725000Y-100350000D01*
X123725000Y-107275000D02*
X123725000Y-106950000D01*
X116475000Y-107275000D02*
X116475000Y-107050000D01*
D12*
X139145000Y-104780000D02*
X139145000Y-103250000D01*
X137300000Y-104780000D02*
X139145000Y-104780000D01*
X136030000Y-101980000D02*
X136030000Y-103850000D01*
X137900000Y-101980000D02*
X136030000Y-101980000D01*
X139145000Y-100710000D02*
X139145000Y-99180000D01*
X139145000Y-99180000D02*
X131645000Y-99180000D01*
X131645000Y-104780000D02*
X131645000Y-99180000D01*
X134760000Y-104780000D02*
X131645000Y-104780000D01*
X193570000Y-102020000D02*
X193570000Y-103350000D01*
X194900000Y-102020000D02*
X193570000Y-102020000D01*
X193570000Y-104620000D02*
X193570000Y-107220000D01*
X196170000Y-104620000D02*
X193570000Y-104620000D01*
X196170000Y-102020000D02*
X196170000Y-104620000D01*
X193570000Y-107220000D02*
X201310000Y-107220000D01*
X196170000Y-102020000D02*
X201310000Y-102020000D01*
X201310000Y-102020000D02*
X201310000Y-107220000D01*
X109700000Y-102200000D02*
X105700000Y-102200000D01*
X109700000Y-98900000D02*
X109700000Y-102200000D01*
D10*
X64998000Y-109304000D02*
X65998000Y-109304000D01*
X54098000Y-109304000D02*
X55098000Y-109304000D01*
X65998000Y-99804000D02*
X64998000Y-99804000D01*
X54098000Y-111604000D02*
X65998000Y-111604000D01*
X54098000Y-99804000D02*
X54098000Y-109304000D01*
X65998000Y-99804000D02*
X65998000Y-109304000D01*
X54098000Y-99804000D02*
X55098000Y-99804000D01*
X56048000Y-99304000D02*
X55748000Y-98704000D01*
X55748000Y-98704000D02*
X56348000Y-98704000D01*
X56348000Y-98704000D02*
X56048000Y-99304000D01*
D12*
X175760000Y-104780000D02*
X172645000Y-104780000D01*
X172645000Y-104780000D02*
X172645000Y-99180000D01*
X180145000Y-99180000D02*
X172645000Y-99180000D01*
X180145000Y-100710000D02*
X180145000Y-99180000D01*
X178900000Y-101980000D02*
X177030000Y-101980000D01*
X177030000Y-101980000D02*
X177030000Y-103850000D01*
X178300000Y-104780000D02*
X180145000Y-104780000D01*
X180145000Y-104780000D02*
X180145000Y-103250000D01*
X76207300Y-99497200D02*
G75*
G03X76207300Y-99497200I-700000J0D01*
G01*
X89700000Y-99750000D02*
G75*
G03X89700000Y-99750000I-700000J0D01*
G01*
X104957300Y-101547200D02*
G75*
G03X104957300Y-101547200I-700000J0D01*
G01*
X238327300Y-110020000D02*
X239457300Y-110020000D01*
X238327300Y-109260000D02*
X238327300Y-110020000D01*
X241034830Y-109955000D02*
X241857300Y-109955000D01*
X240217300Y-109955000D02*
X240419770Y-109955000D01*
X240217300Y-109823471D02*
X240217300Y-109955000D01*
X240217300Y-108553471D02*
X240217300Y-108696529D01*
X240020771Y-108500000D02*
X240163829Y-108500000D01*
X238327300Y-108500000D02*
X238893829Y-108500000D01*
X241857300Y-109955000D02*
X241857300Y-100945000D01*
X238327300Y-108500000D02*
X238327300Y-100945000D01*
X239764830Y-100945000D02*
X240419770Y-100945000D01*
X241034830Y-100945000D02*
X241857300Y-100945000D01*
X238327300Y-100945000D02*
X239149770Y-100945000D01*
X131057300Y-101097200D02*
G75*
G03X131057300Y-101097200I-700000J0D01*
G01*
X166125000Y-102065000D02*
X168395000Y-102065000D01*
X168395000Y-102065000D02*
X168395000Y-103585000D01*
X168395000Y-103585000D02*
X166125000Y-103585000D01*
X71312300Y-111607200D02*
X70012300Y-111607200D01*
X71312300Y-109787200D02*
X70012300Y-109787200D01*
D13*
G36*
X169178201Y-109020262D02*
X169198348Y-109018035D01*
X169215863Y-109014436D01*
X169231188Y-109008692D01*
X169244766Y-109000029D01*
X169257039Y-108987676D01*
X169268450Y-108970860D01*
X169279440Y-108948807D01*
X169290453Y-108920745D01*
X169301931Y-108885901D01*
X169314316Y-108843502D01*
X169328050Y-108792775D01*
X169343577Y-108732948D01*
X169344299Y-108730133D01*
X169361506Y-108657526D01*
X169375540Y-108585724D01*
X169386689Y-108512557D01*
X169395238Y-108435850D01*
X169401474Y-108353431D01*
X169405609Y-108265240D01*
X169406717Y-108231595D01*
X169407222Y-108205475D01*
X169406933Y-108184251D01*
X169405658Y-108165297D01*
X169403208Y-108145986D01*
X169399391Y-108123691D01*
X169394016Y-108095783D01*
X169392872Y-108089980D01*
X169376391Y-108011289D01*
X169358865Y-107936594D01*
X169340546Y-107866661D01*
X169321687Y-107802259D01*
X169302541Y-107744155D01*
X169283359Y-107693118D01*
X169264394Y-107649915D01*
X169245900Y-107615314D01*
X169228657Y-107590707D01*
X169217953Y-107577251D01*
X169203677Y-107558283D01*
X169187975Y-107536689D01*
X169177487Y-107521848D01*
X169151986Y-107487725D01*
X169128222Y-107460799D01*
X169106922Y-107441816D01*
X169089823Y-107431894D01*
X169077848Y-107429302D01*
X169060149Y-107427642D01*
X169045639Y-107427288D01*
X169029049Y-107428134D01*
X169013769Y-107430976D01*
X168996746Y-107436697D01*
X168974929Y-107446182D01*
X168965960Y-107450382D01*
X168943192Y-107462106D01*
X168921706Y-107474819D01*
X168904652Y-107486582D01*
X168898199Y-107492045D01*
X168875298Y-107520290D01*
X168855228Y-107558117D01*
X168837972Y-107605580D01*
X168823507Y-107662731D01*
X168814959Y-107708980D01*
X168812442Y-107726236D01*
X168810422Y-107744413D01*
X168808848Y-107764826D01*
X168807672Y-107788792D01*
X168806843Y-107817625D01*
X168806312Y-107852641D01*
X168806029Y-107895156D01*
X168805945Y-107946484D01*
X168805945Y-107947740D01*
X168806068Y-108004222D01*
X168806514Y-108052569D01*
X168807403Y-108094808D01*
X168808857Y-108132963D01*
X168810997Y-108169058D01*
X168813942Y-108205118D01*
X168817814Y-108243167D01*
X168822734Y-108285231D01*
X168828823Y-108333333D01*
X168829068Y-108335222D01*
X168838126Y-108392246D01*
X168850976Y-108454701D01*
X168867031Y-108520699D01*
X168885706Y-108588352D01*
X168906413Y-108655773D01*
X168928565Y-108721073D01*
X168951577Y-108782365D01*
X168974862Y-108837761D01*
X168997832Y-108885374D01*
X169003030Y-108895063D01*
X169030897Y-108939165D01*
X169061983Y-108976483D01*
X169062588Y-108977104D01*
X169085380Y-108998381D01*
X169106068Y-109012098D01*
X169127763Y-109019417D01*
X169153575Y-109021498D01*
X169178201Y-109020262D01*
X169178201Y-109020262D01*
G37*
X169178201Y-109020262D02*
X169198348Y-109018035D01*
X169215863Y-109014436D01*
X169231188Y-109008692D01*
X169244766Y-109000029D01*
X169257039Y-108987676D01*
X169268450Y-108970860D01*
X169279440Y-108948807D01*
X169290453Y-108920745D01*
X169301931Y-108885901D01*
X169314316Y-108843502D01*
X169328050Y-108792775D01*
X169343577Y-108732948D01*
X169344299Y-108730133D01*
X169361506Y-108657526D01*
X169375540Y-108585724D01*
X169386689Y-108512557D01*
X169395238Y-108435850D01*
X169401474Y-108353431D01*
X169405609Y-108265240D01*
X169406717Y-108231595D01*
X169407222Y-108205475D01*
X169406933Y-108184251D01*
X169405658Y-108165297D01*
X169403208Y-108145986D01*
X169399391Y-108123691D01*
X169394016Y-108095783D01*
X169392872Y-108089980D01*
X169376391Y-108011289D01*
X169358865Y-107936594D01*
X169340546Y-107866661D01*
X169321687Y-107802259D01*
X169302541Y-107744155D01*
X169283359Y-107693118D01*
X169264394Y-107649915D01*
X169245900Y-107615314D01*
X169228657Y-107590707D01*
X169217953Y-107577251D01*
X169203677Y-107558283D01*
X169187975Y-107536689D01*
X169177487Y-107521848D01*
X169151986Y-107487725D01*
X169128222Y-107460799D01*
X169106922Y-107441816D01*
X169089823Y-107431894D01*
X169077848Y-107429302D01*
X169060149Y-107427642D01*
X169045639Y-107427288D01*
X169029049Y-107428134D01*
X169013769Y-107430976D01*
X168996746Y-107436697D01*
X168974929Y-107446182D01*
X168965960Y-107450382D01*
X168943192Y-107462106D01*
X168921706Y-107474819D01*
X168904652Y-107486582D01*
X168898199Y-107492045D01*
X168875298Y-107520290D01*
X168855228Y-107558117D01*
X168837972Y-107605580D01*
X168823507Y-107662731D01*
X168814959Y-107708980D01*
X168812442Y-107726236D01*
X168810422Y-107744413D01*
X168808848Y-107764826D01*
X168807672Y-107788792D01*
X168806843Y-107817625D01*
X168806312Y-107852641D01*
X168806029Y-107895156D01*
X168805945Y-107946484D01*
X168805945Y-107947740D01*
X168806068Y-108004222D01*
X168806514Y-108052569D01*
X168807403Y-108094808D01*
X168808857Y-108132963D01*
X168810997Y-108169058D01*
X168813942Y-108205118D01*
X168817814Y-108243167D01*
X168822734Y-108285231D01*
X168828823Y-108333333D01*
X168829068Y-108335222D01*
X168838126Y-108392246D01*
X168850976Y-108454701D01*
X168867031Y-108520699D01*
X168885706Y-108588352D01*
X168906413Y-108655773D01*
X168928565Y-108721073D01*
X168951577Y-108782365D01*
X168974862Y-108837761D01*
X168997832Y-108885374D01*
X169003030Y-108895063D01*
X169030897Y-108939165D01*
X169061983Y-108976483D01*
X169062588Y-108977104D01*
X169085380Y-108998381D01*
X169106068Y-109012098D01*
X169127763Y-109019417D01*
X169153575Y-109021498D01*
X169178201Y-109020262D01*
D12*
X223000000Y-98940000D02*
X225450000Y-98940000D01*
X224800000Y-102160000D02*
X223000000Y-102160000D01*
X106190000Y-107570000D02*
X105420000Y-108340000D01*
X106190000Y-107570000D02*
X106190000Y-103760000D01*
X101610000Y-107570000D02*
X102380000Y-108340000D01*
X101610000Y-107570000D02*
X101610000Y-103760000D01*
X102380000Y-108340000D02*
X102780000Y-108340000D01*
X101610000Y-103760000D02*
X102780000Y-103760000D01*
X106190000Y-103760000D02*
X105020000Y-103760000D01*
X105420000Y-108340000D02*
X105020000Y-108340000D01*
D14*
X226200000Y-107050000D02*
X226420000Y-107050000D01*
X226200000Y-106330000D02*
X226200000Y-107050000D01*
X228900000Y-107050000D02*
X228900000Y-106330000D01*
X228680000Y-107050000D02*
X228900000Y-107050000D01*
X228900000Y-103850000D02*
X228680000Y-103850000D01*
X228900000Y-103850000D02*
X228900000Y-104570000D01*
X226200000Y-103750000D02*
X226200000Y-104570000D01*
D12*
X143507300Y-100687200D02*
X145957300Y-100687200D01*
X145307300Y-103907200D02*
X143507300Y-103907200D01*
X101700000Y-102160000D02*
X99900000Y-102160000D01*
X99900000Y-98940000D02*
X102350000Y-98940000D01*
X84100000Y-99040000D02*
X86550000Y-99040000D01*
X85900000Y-102260000D02*
X84100000Y-102260000D01*
X224010000Y-104105000D02*
X224010000Y-105405000D01*
X222190000Y-104105000D02*
X222190000Y-105405000D01*
X110207300Y-100147200D02*
G75*
G03X110907300Y-100847200I700000J0D01*
G01*
X110907300Y-98847200D02*
G75*
G03X110207300Y-99547200I0J-700000D01*
G01*
X114307300Y-99547200D02*
G75*
G03X113607300Y-98847200I-700000J0D01*
G01*
X113607300Y-100847200D02*
G75*
G03X114307300Y-100147200I0J700000D01*
G01*
X110857300Y-100847200D02*
X113657300Y-100847200D01*
X114307300Y-100147200D02*
X114307300Y-99547200D01*
X113657300Y-98847200D02*
X110857300Y-98847200D01*
X110207300Y-99547200D02*
X110207300Y-100147200D01*
X111057300Y-98647200D02*
X110757300Y-98347200D01*
X110757300Y-98347200D02*
X111357300Y-98347200D01*
X111057300Y-98647200D02*
X111357300Y-98347200D01*
X221145000Y-104780000D02*
X221145000Y-103250000D01*
X219300000Y-104780000D02*
X221145000Y-104780000D01*
X218030000Y-101980000D02*
X218030000Y-103850000D01*
X219900000Y-101980000D02*
X218030000Y-101980000D01*
X221145000Y-100710000D02*
X221145000Y-99180000D01*
X221145000Y-99180000D02*
X213645000Y-99180000D01*
X213645000Y-104780000D02*
X213645000Y-99180000D01*
X216760000Y-104780000D02*
X213645000Y-104780000D01*
X189507300Y-105447200D02*
G75*
G03X189507300Y-105447200I-700000J0D01*
G01*
X142010000Y-104105000D02*
X142010000Y-105405000D01*
X140190000Y-104105000D02*
X140190000Y-105405000D01*
X99190000Y-104105000D02*
X99190000Y-105405000D01*
X101010000Y-104105000D02*
X101010000Y-105405000D01*
X206350000Y-106090000D02*
X208150000Y-106090000D01*
X208150000Y-109310000D02*
X205700000Y-109310000D01*
X181190000Y-104095000D02*
X181190000Y-105395000D01*
X183010000Y-104095000D02*
X183010000Y-105395000D01*
X106957300Y-105947200D02*
X106657300Y-105647200D01*
X106657300Y-106247200D02*
X106657300Y-105647200D01*
X106957300Y-105947200D02*
X106657300Y-106247200D01*
X107857300Y-106797200D02*
X108457300Y-106797200D01*
X107157300Y-103347200D02*
X107157300Y-106147200D01*
X108457300Y-102697200D02*
X107857300Y-102697200D01*
X109157300Y-106147200D02*
X109157300Y-103347200D01*
X109157300Y-103397200D02*
G75*
G03X108457300Y-102697200I-700000J0D01*
G01*
X107857300Y-102697200D02*
G75*
G03X107157300Y-103397200I0J-700000D01*
G01*
X107157300Y-106097200D02*
G75*
G03X107857300Y-106797200I700000J0D01*
G01*
X108457300Y-106797200D02*
G75*
G03X109157300Y-106097200I0J700000D01*
G01*
X82530000Y-99305000D02*
X81000000Y-99305000D01*
X82530000Y-101150000D02*
X82530000Y-99305000D01*
X79730000Y-102420000D02*
X81600000Y-102420000D01*
X79730000Y-100550000D02*
X79730000Y-102420000D01*
X78460000Y-99305000D02*
X76930000Y-99305000D01*
X76930000Y-99305000D02*
X76930000Y-106805000D01*
X82530000Y-106805000D02*
X76930000Y-106805000D01*
X82530000Y-103690000D02*
X82530000Y-106805000D01*
X146207300Y-99747200D02*
G75*
G03X146207300Y-99747200I-700000J0D01*
G01*
X156800000Y-104650000D02*
X157250000Y-105100000D01*
X158500000Y-105900000D02*
X160500000Y-105900000D01*
X161750000Y-105100000D02*
X162200000Y-104650000D01*
X162200000Y-104650000D02*
X162200000Y-101750000D01*
X162200000Y-101750000D02*
X161750000Y-101300000D01*
X160500000Y-100500000D02*
X158500000Y-100500000D01*
X157250000Y-101300000D02*
X156800000Y-101750000D01*
X156800000Y-101750000D02*
X156800000Y-104650000D01*
X93760000Y-104780000D02*
X90645000Y-104780000D01*
X90645000Y-104780000D02*
X90645000Y-99180000D01*
X98145000Y-99180000D02*
X90645000Y-99180000D01*
X98145000Y-100710000D02*
X98145000Y-99180000D01*
X96900000Y-101980000D02*
X95030000Y-101980000D01*
X95030000Y-101980000D02*
X95030000Y-103850000D01*
X96300000Y-104780000D02*
X98145000Y-104780000D01*
X98145000Y-104780000D02*
X98145000Y-103250000D01*
X183747300Y-105247200D02*
X183747300Y-103447200D01*
X186967300Y-103447200D02*
X186967300Y-105897200D01*
X68997300Y-101747200D02*
X68997300Y-99947200D01*
X72217300Y-99947200D02*
X72217300Y-102397200D01*
X228607300Y-99600000D02*
G75*
G03X228607300Y-99600000I-700000J0D01*
G01*
X231707300Y-99697200D02*
X231707300Y-100897200D01*
X230107300Y-99697200D02*
X230107300Y-100697200D01*
X85110000Y-104405000D02*
X85110000Y-105705000D01*
X83290000Y-104405000D02*
X83290000Y-105705000D01*
D10*
X120861904Y-109152380D02*
X120861904Y-109961904D01*
X120814285Y-110057142D01*
X120766666Y-110104761D01*
X120671428Y-110152380D01*
X120480952Y-110152380D01*
X120385714Y-110104761D01*
X120338095Y-110057142D01*
X120290476Y-109961904D01*
X120290476Y-109152380D01*
X119385714Y-109485714D02*
X119385714Y-110152380D01*
X119623809Y-109104761D02*
X119861904Y-109819047D01*
X119242857Y-109819047D01*
X136509523Y-105202380D02*
X136509523Y-105916666D01*
X136557142Y-106059523D01*
X136652380Y-106154761D01*
X136795238Y-106202380D01*
X136890476Y-106202380D01*
X135509523Y-106202380D02*
X136080952Y-106202380D01*
X135795238Y-106202380D02*
X135795238Y-105202380D01*
X135890476Y-105345238D01*
X135985714Y-105440476D01*
X136080952Y-105488095D01*
X134938095Y-105630952D02*
X135033333Y-105583333D01*
X135080952Y-105535714D01*
X135128571Y-105440476D01*
X135128571Y-105392857D01*
X135080952Y-105297619D01*
X135033333Y-105250000D01*
X134938095Y-105202380D01*
X134747619Y-105202380D01*
X134652380Y-105250000D01*
X134604761Y-105297619D01*
X134557142Y-105392857D01*
X134557142Y-105440476D01*
X134604761Y-105535714D01*
X134652380Y-105583333D01*
X134747619Y-105630952D01*
X134938095Y-105630952D01*
X135033333Y-105678571D01*
X135080952Y-105726190D01*
X135128571Y-105821428D01*
X135128571Y-106011904D01*
X135080952Y-106107142D01*
X135033333Y-106154761D01*
X134938095Y-106202380D01*
X134747619Y-106202380D01*
X134652380Y-106154761D01*
X134604761Y-106107142D01*
X134557142Y-106011904D01*
X134557142Y-105821428D01*
X134604761Y-105726190D01*
X134652380Y-105678571D01*
X134747619Y-105630952D01*
X192022380Y-104286666D02*
X192736666Y-104286666D01*
X192879523Y-104239047D01*
X192974761Y-104143809D01*
X193022380Y-104000952D01*
X193022380Y-103905714D01*
X192022380Y-104667619D02*
X192022380Y-105286666D01*
X192403333Y-104953333D01*
X192403333Y-105096190D01*
X192450952Y-105191428D01*
X192498571Y-105239047D01*
X192593809Y-105286666D01*
X192831904Y-105286666D01*
X192927142Y-105239047D01*
X192974761Y-105191428D01*
X193022380Y-105096190D01*
X193022380Y-104810476D01*
X192974761Y-104715238D01*
X192927142Y-104667619D01*
X112407142Y-103383333D02*
X112454761Y-103335714D01*
X112502380Y-103192857D01*
X112502380Y-103097619D01*
X112454761Y-102954761D01*
X112359523Y-102859523D01*
X112264285Y-102811904D01*
X112073809Y-102764285D01*
X111930952Y-102764285D01*
X111740476Y-102811904D01*
X111645238Y-102859523D01*
X111550000Y-102954761D01*
X111502380Y-103097619D01*
X111502380Y-103192857D01*
X111550000Y-103335714D01*
X111597619Y-103383333D01*
X111835714Y-104240476D02*
X112502380Y-104240476D01*
X111454761Y-104002380D02*
X112169047Y-103764285D01*
X112169047Y-104383333D01*
X99276190Y-109926190D02*
X99276190Y-110402380D01*
X99609523Y-109402380D02*
X99276190Y-109926190D01*
X98942857Y-109402380D01*
X98085714Y-110402380D02*
X98657142Y-110402380D01*
X98371428Y-110402380D02*
X98371428Y-109402380D01*
X98466666Y-109545238D01*
X98561904Y-109640476D01*
X98657142Y-109688095D01*
X60381333Y-104902380D02*
X60381333Y-105616666D01*
X60428952Y-105759523D01*
X60524190Y-105854761D01*
X60667047Y-105902380D01*
X60762285Y-105902380D01*
X59476571Y-104902380D02*
X59667047Y-104902380D01*
X59762285Y-104950000D01*
X59809904Y-104997619D01*
X59905142Y-105140476D01*
X59952761Y-105330952D01*
X59952761Y-105711904D01*
X59905142Y-105807142D01*
X59857523Y-105854761D01*
X59762285Y-105902380D01*
X59571809Y-105902380D01*
X59476571Y-105854761D01*
X59428952Y-105807142D01*
X59381333Y-105711904D01*
X59381333Y-105473809D01*
X59428952Y-105378571D01*
X59476571Y-105330952D01*
X59571809Y-105283333D01*
X59762285Y-105283333D01*
X59857523Y-105330952D01*
X59905142Y-105378571D01*
X59952761Y-105473809D01*
X74107142Y-101833333D02*
X74154761Y-101785714D01*
X74202380Y-101642857D01*
X74202380Y-101547619D01*
X74154761Y-101404761D01*
X74059523Y-101309523D01*
X73964285Y-101261904D01*
X73773809Y-101214285D01*
X73630952Y-101214285D01*
X73440476Y-101261904D01*
X73345238Y-101309523D01*
X73250000Y-101404761D01*
X73202380Y-101547619D01*
X73202380Y-101642857D01*
X73250000Y-101785714D01*
X73297619Y-101833333D01*
X74202380Y-102785714D02*
X74202380Y-102214285D01*
X74202380Y-102500000D02*
X73202380Y-102500000D01*
X73345238Y-102404761D01*
X73440476Y-102309523D01*
X73488095Y-102214285D01*
X177522023Y-105102380D02*
X177522023Y-105816666D01*
X177569642Y-105959523D01*
X177664880Y-106054761D01*
X177807738Y-106102380D01*
X177902976Y-106102380D01*
X176522023Y-106102380D02*
X177093452Y-106102380D01*
X176807738Y-106102380D02*
X176807738Y-105102380D01*
X176902976Y-105245238D01*
X176998214Y-105340476D01*
X177093452Y-105388095D01*
X176045833Y-106102380D02*
X175855357Y-106102380D01*
X175760119Y-106054761D01*
X175712500Y-106007142D01*
X175617261Y-105864285D01*
X175569642Y-105673809D01*
X175569642Y-105292857D01*
X175617261Y-105197619D01*
X175664880Y-105150000D01*
X175760119Y-105102380D01*
X175950595Y-105102380D01*
X176045833Y-105150000D01*
X176093452Y-105197619D01*
X176141071Y-105292857D01*
X176141071Y-105530952D01*
X176093452Y-105626190D01*
X176045833Y-105673809D01*
X175950595Y-105721428D01*
X175760119Y-105721428D01*
X175664880Y-105673809D01*
X175617261Y-105626190D01*
X175569642Y-105530952D01*
X113657142Y-105633333D02*
X113704761Y-105585714D01*
X113752380Y-105442857D01*
X113752380Y-105347619D01*
X113704761Y-105204761D01*
X113609523Y-105109523D01*
X113514285Y-105061904D01*
X113323809Y-105014285D01*
X113180952Y-105014285D01*
X112990476Y-105061904D01*
X112895238Y-105109523D01*
X112800000Y-105204761D01*
X112752380Y-105347619D01*
X112752380Y-105442857D01*
X112800000Y-105585714D01*
X112847619Y-105633333D01*
X112752380Y-105966666D02*
X112752380Y-106585714D01*
X113133333Y-106252380D01*
X113133333Y-106395238D01*
X113180952Y-106490476D01*
X113228571Y-106538095D01*
X113323809Y-106585714D01*
X113561904Y-106585714D01*
X113657142Y-106538095D01*
X113704761Y-106490476D01*
X113752380Y-106395238D01*
X113752380Y-106109523D01*
X113704761Y-106014285D01*
X113657142Y-105966666D01*
X88107142Y-103107142D02*
X88154761Y-103059523D01*
X88202380Y-102916666D01*
X88202380Y-102821428D01*
X88154761Y-102678571D01*
X88059523Y-102583333D01*
X87964285Y-102535714D01*
X87773809Y-102488095D01*
X87630952Y-102488095D01*
X87440476Y-102535714D01*
X87345238Y-102583333D01*
X87250000Y-102678571D01*
X87202380Y-102821428D01*
X87202380Y-102916666D01*
X87250000Y-103059523D01*
X87297619Y-103107142D01*
X88202380Y-104059523D02*
X88202380Y-103488095D01*
X88202380Y-103773809D02*
X87202380Y-103773809D01*
X87345238Y-103678571D01*
X87440476Y-103583333D01*
X87488095Y-103488095D01*
X87297619Y-104440476D02*
X87250000Y-104488095D01*
X87202380Y-104583333D01*
X87202380Y-104821428D01*
X87250000Y-104916666D01*
X87297619Y-104964285D01*
X87392857Y-105011904D01*
X87488095Y-105011904D01*
X87630952Y-104964285D01*
X88202380Y-104392857D01*
X88202380Y-105011904D01*
X148914442Y-102154342D02*
X148962061Y-102106723D01*
X149009680Y-101963866D01*
X149009680Y-101868628D01*
X148962061Y-101725771D01*
X148866823Y-101630533D01*
X148771585Y-101582914D01*
X148581109Y-101535295D01*
X148438252Y-101535295D01*
X148247776Y-101582914D01*
X148152538Y-101630533D01*
X148057300Y-101725771D01*
X148009680Y-101868628D01*
X148009680Y-101963866D01*
X148057300Y-102106723D01*
X148104919Y-102154342D01*
X149009680Y-103106723D02*
X149009680Y-102535295D01*
X149009680Y-102821009D02*
X148009680Y-102821009D01*
X148152538Y-102725771D01*
X148247776Y-102630533D01*
X148295395Y-102535295D01*
X148343014Y-103963866D02*
X149009680Y-103963866D01*
X147962061Y-103725771D02*
X148676347Y-103487676D01*
X148676347Y-104106723D01*
X130292857Y-105857142D02*
X130340476Y-105904761D01*
X130483333Y-105952380D01*
X130578571Y-105952380D01*
X130721428Y-105904761D01*
X130816666Y-105809523D01*
X130864285Y-105714285D01*
X130911904Y-105523809D01*
X130911904Y-105380952D01*
X130864285Y-105190476D01*
X130816666Y-105095238D01*
X130721428Y-105000000D01*
X130578571Y-104952380D01*
X130483333Y-104952380D01*
X130340476Y-105000000D01*
X130292857Y-105047619D01*
X129340476Y-105952380D02*
X129911904Y-105952380D01*
X129626190Y-105952380D02*
X129626190Y-104952380D01*
X129721428Y-105095238D01*
X129816666Y-105190476D01*
X129911904Y-105238095D01*
X128388095Y-105952380D02*
X128959523Y-105952380D01*
X128673809Y-105952380D02*
X128673809Y-104952380D01*
X128769047Y-105095238D01*
X128864285Y-105190476D01*
X128959523Y-105238095D01*
X229092857Y-101907142D02*
X229140476Y-101954761D01*
X229283333Y-102002380D01*
X229378571Y-102002380D01*
X229521428Y-101954761D01*
X229616666Y-101859523D01*
X229664285Y-101764285D01*
X229711904Y-101573809D01*
X229711904Y-101430952D01*
X229664285Y-101240476D01*
X229616666Y-101145238D01*
X229521428Y-101050000D01*
X229378571Y-101002380D01*
X229283333Y-101002380D01*
X229140476Y-101050000D01*
X229092857Y-101097619D01*
X228140476Y-102002380D02*
X228711904Y-102002380D01*
X228426190Y-102002380D02*
X228426190Y-101002380D01*
X228521428Y-101145238D01*
X228616666Y-101240476D01*
X228711904Y-101288095D01*
X227283333Y-101002380D02*
X227473809Y-101002380D01*
X227569047Y-101050000D01*
X227616666Y-101097619D01*
X227711904Y-101240476D01*
X227759523Y-101430952D01*
X227759523Y-101811904D01*
X227711904Y-101907142D01*
X227664285Y-101954761D01*
X227569047Y-102002380D01*
X227378571Y-102002380D01*
X227283333Y-101954761D01*
X227235714Y-101907142D01*
X227188095Y-101811904D01*
X227188095Y-101573809D01*
X227235714Y-101478571D01*
X227283333Y-101430952D01*
X227378571Y-101383333D01*
X227569047Y-101383333D01*
X227664285Y-101430952D01*
X227711904Y-101478571D01*
X227759523Y-101573809D01*
X185450157Y-109457142D02*
X185497776Y-109504761D01*
X185640633Y-109552380D01*
X185735871Y-109552380D01*
X185878728Y-109504761D01*
X185973966Y-109409523D01*
X186021585Y-109314285D01*
X186069204Y-109123809D01*
X186069204Y-108980952D01*
X186021585Y-108790476D01*
X185973966Y-108695238D01*
X185878728Y-108600000D01*
X185735871Y-108552380D01*
X185640633Y-108552380D01*
X185497776Y-108600000D01*
X185450157Y-108647619D01*
X184497776Y-109552380D02*
X185069204Y-109552380D01*
X184783490Y-109552380D02*
X184783490Y-108552380D01*
X184878728Y-108695238D01*
X184973966Y-108790476D01*
X185069204Y-108838095D01*
X183593014Y-108552380D02*
X184069204Y-108552380D01*
X184116823Y-109028571D01*
X184069204Y-108980952D01*
X183973966Y-108933333D01*
X183735871Y-108933333D01*
X183640633Y-108980952D01*
X183593014Y-109028571D01*
X183545395Y-109123809D01*
X183545395Y-109361904D01*
X183593014Y-109457142D01*
X183640633Y-109504761D01*
X183735871Y-109552380D01*
X183973966Y-109552380D01*
X184069204Y-109504761D01*
X184116823Y-109457142D01*
X126507142Y-105433333D02*
X126554761Y-105385714D01*
X126602380Y-105242857D01*
X126602380Y-105147619D01*
X126554761Y-105004761D01*
X126459523Y-104909523D01*
X126364285Y-104861904D01*
X126173809Y-104814285D01*
X126030952Y-104814285D01*
X125840476Y-104861904D01*
X125745238Y-104909523D01*
X125650000Y-105004761D01*
X125602380Y-105147619D01*
X125602380Y-105242857D01*
X125650000Y-105385714D01*
X125697619Y-105433333D01*
X126030952Y-106004761D02*
X125983333Y-105909523D01*
X125935714Y-105861904D01*
X125840476Y-105814285D01*
X125792857Y-105814285D01*
X125697619Y-105861904D01*
X125650000Y-105909523D01*
X125602380Y-106004761D01*
X125602380Y-106195238D01*
X125650000Y-106290476D01*
X125697619Y-106338095D01*
X125792857Y-106385714D01*
X125840476Y-106385714D01*
X125935714Y-106338095D01*
X125983333Y-106290476D01*
X126030952Y-106195238D01*
X126030952Y-106004761D01*
X126078571Y-105909523D01*
X126126190Y-105861904D01*
X126221428Y-105814285D01*
X126411904Y-105814285D01*
X126507142Y-105861904D01*
X126554761Y-105909523D01*
X126602380Y-106004761D01*
X126602380Y-106195238D01*
X126554761Y-106290476D01*
X126507142Y-106338095D01*
X126411904Y-106385714D01*
X126221428Y-106385714D01*
X126126190Y-106338095D01*
X126078571Y-106290476D01*
X126030952Y-106195238D01*
X88845238Y-104011904D02*
X88797619Y-103869047D01*
X88797619Y-103630952D01*
X88845238Y-103535714D01*
X88892857Y-103488095D01*
X88988095Y-103440476D01*
X89083333Y-103440476D01*
X89178571Y-103488095D01*
X89226190Y-103535714D01*
X89273809Y-103630952D01*
X89321428Y-103821428D01*
X89369047Y-103916666D01*
X89416666Y-103964285D01*
X89511904Y-104011904D01*
X89607142Y-104011904D01*
X89702380Y-103964285D01*
X89750000Y-103916666D01*
X89797619Y-103821428D01*
X89797619Y-103583333D01*
X89750000Y-103440476D01*
X88797619Y-102488095D02*
X88797619Y-103059523D01*
X88797619Y-102773809D02*
X89797619Y-102773809D01*
X89654761Y-102869047D01*
X89559523Y-102964285D01*
X89511904Y-103059523D01*
X203557142Y-108083333D02*
X203604761Y-108035714D01*
X203652380Y-107892857D01*
X203652380Y-107797619D01*
X203604761Y-107654761D01*
X203509523Y-107559523D01*
X203414285Y-107511904D01*
X203223809Y-107464285D01*
X203080952Y-107464285D01*
X202890476Y-107511904D01*
X202795238Y-107559523D01*
X202700000Y-107654761D01*
X202652380Y-107797619D01*
X202652380Y-107892857D01*
X202700000Y-108035714D01*
X202747619Y-108083333D01*
X202652380Y-108940476D02*
X202652380Y-108750000D01*
X202700000Y-108654761D01*
X202747619Y-108607142D01*
X202890476Y-108511904D01*
X203080952Y-108464285D01*
X203461904Y-108464285D01*
X203557142Y-108511904D01*
X203604761Y-108559523D01*
X203652380Y-108654761D01*
X203652380Y-108845238D01*
X203604761Y-108940476D01*
X203557142Y-108988095D01*
X203461904Y-109035714D01*
X203223809Y-109035714D01*
X203128571Y-108988095D01*
X203080952Y-108940476D01*
X203033333Y-108845238D01*
X203033333Y-108654761D01*
X203080952Y-108559523D01*
X203128571Y-108511904D01*
X203223809Y-108464285D01*
X97757142Y-109183333D02*
X97804761Y-109135714D01*
X97852380Y-108992857D01*
X97852380Y-108897619D01*
X97804761Y-108754761D01*
X97709523Y-108659523D01*
X97614285Y-108611904D01*
X97423809Y-108564285D01*
X97280952Y-108564285D01*
X97090476Y-108611904D01*
X96995238Y-108659523D01*
X96900000Y-108754761D01*
X96852380Y-108897619D01*
X96852380Y-108992857D01*
X96900000Y-109135714D01*
X96947619Y-109183333D01*
X96852380Y-110088095D02*
X96852380Y-109611904D01*
X97328571Y-109564285D01*
X97280952Y-109611904D01*
X97233333Y-109707142D01*
X97233333Y-109945238D01*
X97280952Y-110040476D01*
X97328571Y-110088095D01*
X97423809Y-110135714D01*
X97661904Y-110135714D01*
X97757142Y-110088095D01*
X97804761Y-110040476D01*
X97852380Y-109945238D01*
X97852380Y-109707142D01*
X97804761Y-109611904D01*
X97757142Y-109564285D01*
X231016666Y-103257142D02*
X231064285Y-103304761D01*
X231207142Y-103352380D01*
X231302380Y-103352380D01*
X231445238Y-103304761D01*
X231540476Y-103209523D01*
X231588095Y-103114285D01*
X231635714Y-102923809D01*
X231635714Y-102780952D01*
X231588095Y-102590476D01*
X231540476Y-102495238D01*
X231445238Y-102400000D01*
X231302380Y-102352380D01*
X231207142Y-102352380D01*
X231064285Y-102400000D01*
X231016666Y-102447619D01*
X230540476Y-103352380D02*
X230350000Y-103352380D01*
X230254761Y-103304761D01*
X230207142Y-103257142D01*
X230111904Y-103114285D01*
X230064285Y-102923809D01*
X230064285Y-102542857D01*
X230111904Y-102447619D01*
X230159523Y-102400000D01*
X230254761Y-102352380D01*
X230445238Y-102352380D01*
X230540476Y-102400000D01*
X230588095Y-102447619D01*
X230635714Y-102542857D01*
X230635714Y-102780952D01*
X230588095Y-102876190D01*
X230540476Y-102923809D01*
X230445238Y-102971428D01*
X230254761Y-102971428D01*
X230159523Y-102923809D01*
X230111904Y-102876190D01*
X230064285Y-102780952D01*
X96357142Y-108507142D02*
X96404761Y-108459523D01*
X96452380Y-108316666D01*
X96452380Y-108221428D01*
X96404761Y-108078571D01*
X96309523Y-107983333D01*
X96214285Y-107935714D01*
X96023809Y-107888095D01*
X95880952Y-107888095D01*
X95690476Y-107935714D01*
X95595238Y-107983333D01*
X95500000Y-108078571D01*
X95452380Y-108221428D01*
X95452380Y-108316666D01*
X95500000Y-108459523D01*
X95547619Y-108507142D01*
X96452380Y-109459523D02*
X96452380Y-108888095D01*
X96452380Y-109173809D02*
X95452380Y-109173809D01*
X95595238Y-109078571D01*
X95690476Y-108983333D01*
X95738095Y-108888095D01*
X95452380Y-109792857D02*
X95452380Y-110411904D01*
X95833333Y-110078571D01*
X95833333Y-110221428D01*
X95880952Y-110316666D01*
X95928571Y-110364285D01*
X96023809Y-110411904D01*
X96261904Y-110411904D01*
X96357142Y-110364285D01*
X96404761Y-110316666D01*
X96452380Y-110221428D01*
X96452380Y-109935714D01*
X96404761Y-109840476D01*
X96357142Y-109792857D01*
X211657142Y-108483333D02*
X211704761Y-108435714D01*
X211752380Y-108292857D01*
X211752380Y-108197619D01*
X211704761Y-108054761D01*
X211609523Y-107959523D01*
X211514285Y-107911904D01*
X211323809Y-107864285D01*
X211180952Y-107864285D01*
X210990476Y-107911904D01*
X210895238Y-107959523D01*
X210800000Y-108054761D01*
X210752380Y-108197619D01*
X210752380Y-108292857D01*
X210800000Y-108435714D01*
X210847619Y-108483333D01*
X210752380Y-108816666D02*
X210752380Y-109483333D01*
X211752380Y-109054761D01*
X97361904Y-111554761D02*
X97219047Y-111602380D01*
X96980952Y-111602380D01*
X96885714Y-111554761D01*
X96838095Y-111507142D01*
X96790476Y-111411904D01*
X96790476Y-111316666D01*
X96838095Y-111221428D01*
X96885714Y-111173809D01*
X96980952Y-111126190D01*
X97171428Y-111078571D01*
X97266666Y-111030952D01*
X97314285Y-110983333D01*
X97361904Y-110888095D01*
X97361904Y-110792857D01*
X97314285Y-110697619D01*
X97266666Y-110650000D01*
X97171428Y-110602380D01*
X96933333Y-110602380D01*
X96790476Y-110650000D01*
X96409523Y-110697619D02*
X96361904Y-110650000D01*
X96266666Y-110602380D01*
X96028571Y-110602380D01*
X95933333Y-110650000D01*
X95885714Y-110697619D01*
X95838095Y-110792857D01*
X95838095Y-110888095D01*
X95885714Y-111030952D01*
X96457142Y-111602380D01*
X95838095Y-111602380D01*
X240425633Y-110407380D02*
X240425633Y-111121666D01*
X240473252Y-111264523D01*
X240568490Y-111359761D01*
X240711347Y-111407380D01*
X240806585Y-111407380D01*
X239520871Y-110740714D02*
X239520871Y-111407380D01*
X239758966Y-110359761D02*
X239997061Y-111074047D01*
X239378014Y-111074047D01*
X230107142Y-107057142D02*
X230154761Y-107009523D01*
X230202380Y-106866666D01*
X230202380Y-106771428D01*
X230154761Y-106628571D01*
X230059523Y-106533333D01*
X229964285Y-106485714D01*
X229773809Y-106438095D01*
X229630952Y-106438095D01*
X229440476Y-106485714D01*
X229345238Y-106533333D01*
X229250000Y-106628571D01*
X229202380Y-106771428D01*
X229202380Y-106866666D01*
X229250000Y-107009523D01*
X229297619Y-107057142D01*
X230202380Y-108009523D02*
X230202380Y-107438095D01*
X230202380Y-107723809D02*
X229202380Y-107723809D01*
X229345238Y-107628571D01*
X229440476Y-107533333D01*
X229488095Y-107438095D01*
X229202380Y-108628571D02*
X229202380Y-108723809D01*
X229250000Y-108819047D01*
X229297619Y-108866666D01*
X229392857Y-108914285D01*
X229583333Y-108961904D01*
X229821428Y-108961904D01*
X230011904Y-108914285D01*
X230107142Y-108866666D01*
X230154761Y-108819047D01*
X230202380Y-108723809D01*
X230202380Y-108628571D01*
X230154761Y-108533333D01*
X230107142Y-108485714D01*
X230011904Y-108438095D01*
X229821428Y-108390476D01*
X229583333Y-108390476D01*
X229392857Y-108438095D01*
X229297619Y-108485714D01*
X229250000Y-108533333D01*
X229202380Y-108628571D01*
X170263095Y-103277380D02*
X170263095Y-102277380D01*
X170025000Y-102277380D01*
X169882142Y-102325000D01*
X169786904Y-102420238D01*
X169739285Y-102515476D01*
X169691666Y-102705952D01*
X169691666Y-102848809D01*
X169739285Y-103039285D01*
X169786904Y-103134523D01*
X169882142Y-103229761D01*
X170025000Y-103277380D01*
X170263095Y-103277380D01*
X168739285Y-103277380D02*
X169310714Y-103277380D01*
X169025000Y-103277380D02*
X169025000Y-102277380D01*
X169120238Y-102420238D01*
X169215476Y-102515476D01*
X169310714Y-102563095D01*
X164477380Y-100883333D02*
X164001190Y-100550000D01*
X164477380Y-100311904D02*
X163477380Y-100311904D01*
X163477380Y-100692857D01*
X163525000Y-100788095D01*
X163572619Y-100835714D01*
X163667857Y-100883333D01*
X163810714Y-100883333D01*
X163905952Y-100835714D01*
X163953571Y-100788095D01*
X164001190Y-100692857D01*
X164001190Y-100311904D01*
X163905952Y-101454761D02*
X163858333Y-101359523D01*
X163810714Y-101311904D01*
X163715476Y-101264285D01*
X163667857Y-101264285D01*
X163572619Y-101311904D01*
X163525000Y-101359523D01*
X163477380Y-101454761D01*
X163477380Y-101645238D01*
X163525000Y-101740476D01*
X163572619Y-101788095D01*
X163667857Y-101835714D01*
X163715476Y-101835714D01*
X163810714Y-101788095D01*
X163858333Y-101740476D01*
X163905952Y-101645238D01*
X163905952Y-101454761D01*
X163953571Y-101359523D01*
X164001190Y-101311904D01*
X164096428Y-101264285D01*
X164286904Y-101264285D01*
X164382142Y-101311904D01*
X164429761Y-101359523D01*
X164477380Y-101454761D01*
X164477380Y-101645238D01*
X164429761Y-101740476D01*
X164382142Y-101788095D01*
X164286904Y-101835714D01*
X164096428Y-101835714D01*
X164001190Y-101788095D01*
X163953571Y-101740476D01*
X163905952Y-101645238D01*
X72166666Y-108952380D02*
X72500000Y-108476190D01*
X72738095Y-108952380D02*
X72738095Y-107952380D01*
X72357142Y-107952380D01*
X72261904Y-108000000D01*
X72214285Y-108047619D01*
X72166666Y-108142857D01*
X72166666Y-108285714D01*
X72214285Y-108380952D01*
X72261904Y-108428571D01*
X72357142Y-108476190D01*
X72738095Y-108476190D01*
X71214285Y-108952380D02*
X71785714Y-108952380D01*
X71500000Y-108952380D02*
X71500000Y-107952380D01*
X71595238Y-108095238D01*
X71690476Y-108190476D01*
X71785714Y-108238095D01*
X226888095Y-102252380D02*
X226888095Y-103061904D01*
X226840476Y-103157142D01*
X226792857Y-103204761D01*
X226697619Y-103252380D01*
X226507142Y-103252380D01*
X226411904Y-103204761D01*
X226364285Y-103157142D01*
X226316666Y-103061904D01*
X226316666Y-102252380D01*
X225316666Y-103252380D02*
X225888095Y-103252380D01*
X225602380Y-103252380D02*
X225602380Y-102252380D01*
X225697619Y-102395238D01*
X225792857Y-102490476D01*
X225888095Y-102538095D01*
X224364285Y-103252380D02*
X224935714Y-103252380D01*
X224650000Y-103252380D02*
X224650000Y-102252380D01*
X224745238Y-102395238D01*
X224840476Y-102490476D01*
X224935714Y-102538095D01*
X103966666Y-110507142D02*
X104014285Y-110554761D01*
X104157142Y-110602380D01*
X104252380Y-110602380D01*
X104395238Y-110554761D01*
X104490476Y-110459523D01*
X104538095Y-110364285D01*
X104585714Y-110173809D01*
X104585714Y-110030952D01*
X104538095Y-109840476D01*
X104490476Y-109745238D01*
X104395238Y-109650000D01*
X104252380Y-109602380D01*
X104157142Y-109602380D01*
X104014285Y-109650000D01*
X103966666Y-109697619D01*
X103585714Y-109697619D02*
X103538095Y-109650000D01*
X103442857Y-109602380D01*
X103204761Y-109602380D01*
X103109523Y-109650000D01*
X103061904Y-109697619D01*
X103014285Y-109792857D01*
X103014285Y-109888095D01*
X103061904Y-110030952D01*
X103633333Y-110602380D01*
X103014285Y-110602380D01*
X101961428Y-108439047D02*
X101961428Y-109200952D01*
X102342380Y-108820000D02*
X101580476Y-108820000D01*
X228311904Y-107652380D02*
X228311904Y-108461904D01*
X228264285Y-108557142D01*
X228216666Y-108604761D01*
X228121428Y-108652380D01*
X227930952Y-108652380D01*
X227835714Y-108604761D01*
X227788095Y-108557142D01*
X227740476Y-108461904D01*
X227740476Y-107652380D01*
X227311904Y-107747619D02*
X227264285Y-107700000D01*
X227169047Y-107652380D01*
X226930952Y-107652380D01*
X226835714Y-107700000D01*
X226788095Y-107747619D01*
X226740476Y-107842857D01*
X226740476Y-107938095D01*
X226788095Y-108080952D01*
X227359523Y-108652380D01*
X226740476Y-108652380D01*
X145169204Y-104252380D02*
X145169204Y-105061904D01*
X145121585Y-105157142D01*
X145073966Y-105204761D01*
X144978728Y-105252380D01*
X144788252Y-105252380D01*
X144693014Y-105204761D01*
X144645395Y-105157142D01*
X144597776Y-105061904D01*
X144597776Y-104252380D01*
X144073966Y-105252380D02*
X143883490Y-105252380D01*
X143788252Y-105204761D01*
X143740633Y-105157142D01*
X143645395Y-105014285D01*
X143597776Y-104823809D01*
X143597776Y-104442857D01*
X143645395Y-104347619D01*
X143693014Y-104300000D01*
X143788252Y-104252380D01*
X143978728Y-104252380D01*
X144073966Y-104300000D01*
X144121585Y-104347619D01*
X144169204Y-104442857D01*
X144169204Y-104680952D01*
X144121585Y-104776190D01*
X144073966Y-104823809D01*
X143978728Y-104871428D01*
X143788252Y-104871428D01*
X143693014Y-104823809D01*
X143645395Y-104776190D01*
X143597776Y-104680952D01*
X94961904Y-109202380D02*
X94961904Y-110011904D01*
X94914285Y-110107142D01*
X94866666Y-110154761D01*
X94771428Y-110202380D01*
X94580952Y-110202380D01*
X94485714Y-110154761D01*
X94438095Y-110107142D01*
X94390476Y-110011904D01*
X94390476Y-109202380D01*
X93771428Y-109630952D02*
X93866666Y-109583333D01*
X93914285Y-109535714D01*
X93961904Y-109440476D01*
X93961904Y-109392857D01*
X93914285Y-109297619D01*
X93866666Y-109250000D01*
X93771428Y-109202380D01*
X93580952Y-109202380D01*
X93485714Y-109250000D01*
X93438095Y-109297619D01*
X93390476Y-109392857D01*
X93390476Y-109440476D01*
X93438095Y-109535714D01*
X93485714Y-109583333D01*
X93580952Y-109630952D01*
X93771428Y-109630952D01*
X93866666Y-109678571D01*
X93914285Y-109726190D01*
X93961904Y-109821428D01*
X93961904Y-110011904D01*
X93914285Y-110107142D01*
X93866666Y-110154761D01*
X93771428Y-110202380D01*
X93580952Y-110202380D01*
X93485714Y-110154761D01*
X93438095Y-110107142D01*
X93390476Y-110011904D01*
X93390476Y-109821428D01*
X93438095Y-109726190D01*
X93485714Y-109678571D01*
X93580952Y-109630952D01*
X85702380Y-102738095D02*
X86511904Y-102738095D01*
X86607142Y-102785714D01*
X86654761Y-102833333D01*
X86702380Y-102928571D01*
X86702380Y-103119047D01*
X86654761Y-103214285D01*
X86607142Y-103261904D01*
X86511904Y-103309523D01*
X85702380Y-103309523D01*
X85702380Y-103690476D02*
X85702380Y-104357142D01*
X86702380Y-103928571D01*
X223552380Y-108083333D02*
X223076190Y-107750000D01*
X223552380Y-107511904D02*
X222552380Y-107511904D01*
X222552380Y-107892857D01*
X222600000Y-107988095D01*
X222647619Y-108035714D01*
X222742857Y-108083333D01*
X222885714Y-108083333D01*
X222980952Y-108035714D01*
X223028571Y-107988095D01*
X223076190Y-107892857D01*
X223076190Y-107511904D01*
X222552380Y-108416666D02*
X222552380Y-109083333D01*
X223552380Y-108654761D01*
X114233333Y-101202380D02*
X114233333Y-101916666D01*
X114280952Y-102059523D01*
X114376190Y-102154761D01*
X114519047Y-102202380D01*
X114614285Y-102202380D01*
X113757142Y-102202380D02*
X113757142Y-101202380D01*
X113376190Y-101202380D01*
X113280952Y-101250000D01*
X113233333Y-101297619D01*
X113185714Y-101392857D01*
X113185714Y-101535714D01*
X113233333Y-101630952D01*
X113280952Y-101678571D01*
X113376190Y-101726190D01*
X113757142Y-101726190D01*
X112804761Y-101297619D02*
X112757142Y-101250000D01*
X112661904Y-101202380D01*
X112423809Y-101202380D01*
X112328571Y-101250000D01*
X112280952Y-101297619D01*
X112233333Y-101392857D01*
X112233333Y-101488095D01*
X112280952Y-101630952D01*
X112852380Y-102202380D01*
X112233333Y-102202380D01*
X218559523Y-105102380D02*
X218559523Y-105816666D01*
X218607142Y-105959523D01*
X218702380Y-106054761D01*
X218845238Y-106102380D01*
X218940476Y-106102380D01*
X218130952Y-105197619D02*
X218083333Y-105150000D01*
X217988095Y-105102380D01*
X217750000Y-105102380D01*
X217654761Y-105150000D01*
X217607142Y-105197619D01*
X217559523Y-105292857D01*
X217559523Y-105388095D01*
X217607142Y-105530952D01*
X218178571Y-106102380D01*
X217559523Y-106102380D01*
X216940476Y-105102380D02*
X216845238Y-105102380D01*
X216750000Y-105150000D01*
X216702380Y-105197619D01*
X216654761Y-105292857D01*
X216607142Y-105483333D01*
X216607142Y-105721428D01*
X216654761Y-105911904D01*
X216702380Y-106007142D01*
X216750000Y-106054761D01*
X216845238Y-106102380D01*
X216940476Y-106102380D01*
X217035714Y-106054761D01*
X217083333Y-106007142D01*
X217130952Y-105911904D01*
X217178571Y-105721428D01*
X217178571Y-105483333D01*
X217130952Y-105292857D01*
X217083333Y-105197619D01*
X217035714Y-105150000D01*
X216940476Y-105102380D01*
X189569204Y-107299961D02*
X189426347Y-107347580D01*
X189188252Y-107347580D01*
X189093014Y-107299961D01*
X189045395Y-107252342D01*
X188997776Y-107157104D01*
X188997776Y-107061866D01*
X189045395Y-106966628D01*
X189093014Y-106919009D01*
X189188252Y-106871390D01*
X189378728Y-106823771D01*
X189473966Y-106776152D01*
X189521585Y-106728533D01*
X189569204Y-106633295D01*
X189569204Y-106538057D01*
X189521585Y-106442819D01*
X189473966Y-106395200D01*
X189378728Y-106347580D01*
X189140633Y-106347580D01*
X188997776Y-106395200D01*
X188140633Y-106680914D02*
X188140633Y-107347580D01*
X188378728Y-106299961D02*
X188616823Y-107014247D01*
X187997776Y-107014247D01*
X141552380Y-107983333D02*
X141076190Y-107650000D01*
X141552380Y-107411904D02*
X140552380Y-107411904D01*
X140552380Y-107792857D01*
X140600000Y-107888095D01*
X140647619Y-107935714D01*
X140742857Y-107983333D01*
X140885714Y-107983333D01*
X140980952Y-107935714D01*
X141028571Y-107888095D01*
X141076190Y-107792857D01*
X141076190Y-107411904D01*
X140552380Y-108888095D02*
X140552380Y-108411904D01*
X141028571Y-108364285D01*
X140980952Y-108411904D01*
X140933333Y-108507142D01*
X140933333Y-108745238D01*
X140980952Y-108840476D01*
X141028571Y-108888095D01*
X141123809Y-108935714D01*
X141361904Y-108935714D01*
X141457142Y-108888095D01*
X141504761Y-108840476D01*
X141552380Y-108745238D01*
X141552380Y-108507142D01*
X141504761Y-108411904D01*
X141457142Y-108364285D01*
X100652380Y-108183333D02*
X100176190Y-107850000D01*
X100652380Y-107611904D02*
X99652380Y-107611904D01*
X99652380Y-107992857D01*
X99700000Y-108088095D01*
X99747619Y-108135714D01*
X99842857Y-108183333D01*
X99985714Y-108183333D01*
X100080952Y-108135714D01*
X100128571Y-108088095D01*
X100176190Y-107992857D01*
X100176190Y-107611904D01*
X99985714Y-109040476D02*
X100652380Y-109040476D01*
X99604761Y-108802380D02*
X100319047Y-108564285D01*
X100319047Y-109183333D01*
X208011904Y-110052380D02*
X208011904Y-110861904D01*
X207964285Y-110957142D01*
X207916666Y-111004761D01*
X207821428Y-111052380D01*
X207630952Y-111052380D01*
X207535714Y-111004761D01*
X207488095Y-110957142D01*
X207440476Y-110861904D01*
X207440476Y-110052380D01*
X206488095Y-110052380D02*
X206964285Y-110052380D01*
X207011904Y-110528571D01*
X206964285Y-110480952D01*
X206869047Y-110433333D01*
X206630952Y-110433333D01*
X206535714Y-110480952D01*
X206488095Y-110528571D01*
X206440476Y-110623809D01*
X206440476Y-110861904D01*
X206488095Y-110957142D01*
X206535714Y-111004761D01*
X206630952Y-111052380D01*
X206869047Y-111052380D01*
X206964285Y-111004761D01*
X207011904Y-110957142D01*
X182602380Y-107883333D02*
X182126190Y-107550000D01*
X182602380Y-107311904D02*
X181602380Y-107311904D01*
X181602380Y-107692857D01*
X181650000Y-107788095D01*
X181697619Y-107835714D01*
X181792857Y-107883333D01*
X181935714Y-107883333D01*
X182030952Y-107835714D01*
X182078571Y-107788095D01*
X182126190Y-107692857D01*
X182126190Y-107311904D01*
X181602380Y-108740476D02*
X181602380Y-108550000D01*
X181650000Y-108454761D01*
X181697619Y-108407142D01*
X181840476Y-108311904D01*
X182030952Y-108264285D01*
X182411904Y-108264285D01*
X182507142Y-108311904D01*
X182554761Y-108359523D01*
X182602380Y-108454761D01*
X182602380Y-108645238D01*
X182554761Y-108740476D01*
X182507142Y-108788095D01*
X182411904Y-108835714D01*
X182173809Y-108835714D01*
X182078571Y-108788095D01*
X182030952Y-108740476D01*
X181983333Y-108645238D01*
X181983333Y-108454761D01*
X182030952Y-108359523D01*
X182078571Y-108311904D01*
X182173809Y-108264285D01*
X129766666Y-103152380D02*
X130100000Y-102676190D01*
X130338095Y-103152380D02*
X130338095Y-102152380D01*
X129957142Y-102152380D01*
X129861904Y-102200000D01*
X129814285Y-102247619D01*
X129766666Y-102342857D01*
X129766666Y-102485714D01*
X129814285Y-102580952D01*
X129861904Y-102628571D01*
X129957142Y-102676190D01*
X130338095Y-102676190D01*
X129385714Y-102247619D02*
X129338095Y-102200000D01*
X129242857Y-102152380D01*
X129004761Y-102152380D01*
X128909523Y-102200000D01*
X128861904Y-102247619D01*
X128814285Y-102342857D01*
X128814285Y-102438095D01*
X128861904Y-102580952D01*
X129433333Y-103152380D01*
X128814285Y-103152380D01*
X107652380Y-107516666D02*
X108366666Y-107516666D01*
X108509523Y-107469047D01*
X108604761Y-107373809D01*
X108652380Y-107230952D01*
X108652380Y-107135714D01*
X108652380Y-107992857D02*
X107652380Y-107992857D01*
X107652380Y-108373809D01*
X107700000Y-108469047D01*
X107747619Y-108516666D01*
X107842857Y-108564285D01*
X107985714Y-108564285D01*
X108080952Y-108516666D01*
X108128571Y-108469047D01*
X108176190Y-108373809D01*
X108176190Y-107992857D01*
X108652380Y-109516666D02*
X108652380Y-108945238D01*
X108652380Y-109230952D02*
X107652380Y-109230952D01*
X107795238Y-109135714D01*
X107890476Y-109040476D01*
X107938095Y-108945238D01*
X80559523Y-106952380D02*
X80559523Y-107666666D01*
X80607142Y-107809523D01*
X80702380Y-107904761D01*
X80845238Y-107952380D01*
X80940476Y-107952380D01*
X79559523Y-107952380D02*
X80130952Y-107952380D01*
X79845238Y-107952380D02*
X79845238Y-106952380D01*
X79940476Y-107095238D01*
X80035714Y-107190476D01*
X80130952Y-107238095D01*
X78702380Y-106952380D02*
X78892857Y-106952380D01*
X78988095Y-107000000D01*
X79035714Y-107047619D01*
X79130952Y-107190476D01*
X79178571Y-107380952D01*
X79178571Y-107761904D01*
X79130952Y-107857142D01*
X79083333Y-107904761D01*
X78988095Y-107952380D01*
X78797619Y-107952380D01*
X78702380Y-107904761D01*
X78654761Y-107857142D01*
X78607142Y-107761904D01*
X78607142Y-107523809D01*
X78654761Y-107428571D01*
X78702380Y-107380952D01*
X78797619Y-107333333D01*
X78988095Y-107333333D01*
X79083333Y-107380952D01*
X79130952Y-107428571D01*
X79178571Y-107523809D01*
X148761904Y-100154761D02*
X148619047Y-100202380D01*
X148380952Y-100202380D01*
X148285714Y-100154761D01*
X148238095Y-100107142D01*
X148190476Y-100011904D01*
X148190476Y-99916666D01*
X148238095Y-99821428D01*
X148285714Y-99773809D01*
X148380952Y-99726190D01*
X148571428Y-99678571D01*
X148666666Y-99630952D01*
X148714285Y-99583333D01*
X148761904Y-99488095D01*
X148761904Y-99392857D01*
X148714285Y-99297619D01*
X148666666Y-99250000D01*
X148571428Y-99202380D01*
X148333333Y-99202380D01*
X148190476Y-99250000D01*
X147857142Y-99202380D02*
X147238095Y-99202380D01*
X147571428Y-99583333D01*
X147428571Y-99583333D01*
X147333333Y-99630952D01*
X147285714Y-99678571D01*
X147238095Y-99773809D01*
X147238095Y-100011904D01*
X147285714Y-100107142D01*
X147333333Y-100154761D01*
X147428571Y-100202380D01*
X147714285Y-100202380D01*
X147809523Y-100154761D01*
X147857142Y-100107142D01*
X156304761Y-101866666D02*
X156352380Y-102009523D01*
X156352380Y-102247619D01*
X156304761Y-102342857D01*
X156257142Y-102390476D01*
X156161904Y-102438095D01*
X156066666Y-102438095D01*
X155971428Y-102390476D01*
X155923809Y-102342857D01*
X155876190Y-102247619D01*
X155828571Y-102057142D01*
X155780952Y-101961904D01*
X155733333Y-101914285D01*
X155638095Y-101866666D01*
X155542857Y-101866666D01*
X155447619Y-101914285D01*
X155400000Y-101961904D01*
X155352380Y-102057142D01*
X155352380Y-102295238D01*
X155400000Y-102438095D01*
X155352380Y-102771428D02*
X156352380Y-103009523D01*
X155638095Y-103200000D01*
X156352380Y-103390476D01*
X155352380Y-103628571D01*
X156352380Y-104533333D02*
X156352380Y-103961904D01*
X156352380Y-104247619D02*
X155352380Y-104247619D01*
X155495238Y-104152380D01*
X155590476Y-104057142D01*
X155638095Y-103961904D01*
X95522023Y-104952380D02*
X95522023Y-105666666D01*
X95569642Y-105809523D01*
X95664880Y-105904761D01*
X95807738Y-105952380D01*
X95902976Y-105952380D01*
X94522023Y-105952380D02*
X95093452Y-105952380D01*
X94807738Y-105952380D02*
X94807738Y-104952380D01*
X94902976Y-105095238D01*
X94998214Y-105190476D01*
X95093452Y-105238095D01*
X94188690Y-104952380D02*
X93522023Y-104952380D01*
X93950595Y-105952380D01*
X186588095Y-101052380D02*
X186588095Y-101861904D01*
X186540476Y-101957142D01*
X186492857Y-102004761D01*
X186397619Y-102052380D01*
X186207142Y-102052380D01*
X186111904Y-102004761D01*
X186064285Y-101957142D01*
X186016666Y-101861904D01*
X186016666Y-101052380D01*
X185016666Y-102052380D02*
X185588095Y-102052380D01*
X185302380Y-102052380D02*
X185302380Y-101052380D01*
X185397619Y-101195238D01*
X185492857Y-101290476D01*
X185588095Y-101338095D01*
X184397619Y-101052380D02*
X184302380Y-101052380D01*
X184207142Y-101100000D01*
X184159523Y-101147619D01*
X184111904Y-101242857D01*
X184064285Y-101433333D01*
X184064285Y-101671428D01*
X184111904Y-101861904D01*
X184159523Y-101957142D01*
X184207142Y-102004761D01*
X184302380Y-102052380D01*
X184397619Y-102052380D01*
X184492857Y-102004761D01*
X184540476Y-101957142D01*
X184588095Y-101861904D01*
X184635714Y-101671428D01*
X184635714Y-101433333D01*
X184588095Y-101242857D01*
X184540476Y-101147619D01*
X184492857Y-101100000D01*
X184397619Y-101052380D01*
X67452380Y-100085295D02*
X68261904Y-100085295D01*
X68357142Y-100132914D01*
X68404761Y-100180533D01*
X68452380Y-100275771D01*
X68452380Y-100466247D01*
X68404761Y-100561485D01*
X68357142Y-100609104D01*
X68261904Y-100656723D01*
X67452380Y-100656723D01*
X68452380Y-101656723D02*
X68452380Y-101085295D01*
X68452380Y-101371009D02*
X67452380Y-101371009D01*
X67595238Y-101275771D01*
X67690476Y-101180533D01*
X67738095Y-101085295D01*
X230411904Y-99304761D02*
X230269047Y-99352380D01*
X230030952Y-99352380D01*
X229935714Y-99304761D01*
X229888095Y-99257142D01*
X229840476Y-99161904D01*
X229840476Y-99066666D01*
X229888095Y-98971428D01*
X229935714Y-98923809D01*
X230030952Y-98876190D01*
X230221428Y-98828571D01*
X230316666Y-98780952D01*
X230364285Y-98733333D01*
X230411904Y-98638095D01*
X230411904Y-98542857D01*
X230364285Y-98447619D01*
X230316666Y-98400000D01*
X230221428Y-98352380D01*
X229983333Y-98352380D01*
X229840476Y-98400000D01*
X228935714Y-98352380D02*
X229411904Y-98352380D01*
X229459523Y-98828571D01*
X229411904Y-98780952D01*
X229316666Y-98733333D01*
X229078571Y-98733333D01*
X228983333Y-98780952D01*
X228935714Y-98828571D01*
X228888095Y-98923809D01*
X228888095Y-99161904D01*
X228935714Y-99257142D01*
X228983333Y-99304761D01*
X229078571Y-99352380D01*
X229316666Y-99352380D01*
X229411904Y-99304761D01*
X229459523Y-99257142D01*
X233669204Y-99252380D02*
X233669204Y-100061904D01*
X233621585Y-100157142D01*
X233573966Y-100204761D01*
X233478728Y-100252380D01*
X233288252Y-100252380D01*
X233193014Y-100204761D01*
X233145395Y-100157142D01*
X233097776Y-100061904D01*
X233097776Y-99252380D01*
X232716823Y-99252380D02*
X232097776Y-99252380D01*
X232431109Y-99633333D01*
X232288252Y-99633333D01*
X232193014Y-99680952D01*
X232145395Y-99728571D01*
X232097776Y-99823809D01*
X232097776Y-100061904D01*
X232145395Y-100157142D01*
X232193014Y-100204761D01*
X232288252Y-100252380D01*
X232573966Y-100252380D01*
X232669204Y-100204761D01*
X232716823Y-100157142D01*
X84702380Y-108583333D02*
X84226190Y-108250000D01*
X84702380Y-108011904D02*
X83702380Y-108011904D01*
X83702380Y-108392857D01*
X83750000Y-108488095D01*
X83797619Y-108535714D01*
X83892857Y-108583333D01*
X84035714Y-108583333D01*
X84130952Y-108535714D01*
X84178571Y-108488095D01*
X84226190Y-108392857D01*
X84226190Y-108011904D01*
X83702380Y-108916666D02*
X83702380Y-109535714D01*
X84083333Y-109202380D01*
X84083333Y-109345238D01*
X84130952Y-109440476D01*
X84178571Y-109488095D01*
X84273809Y-109535714D01*
X84511904Y-109535714D01*
X84607142Y-109488095D01*
X84654761Y-109440476D01*
X84702380Y-109345238D01*
X84702380Y-109059523D01*
X84654761Y-108964285D01*
X84607142Y-108916666D01*
M02*
