M48
METRIC,TZ
T1C0.400
T2C0.650
T3C0.800
T4C0.800
T5C1.000
T6C2.200
T7C1.500
%
G90
G05
T1
X69193Y-88397
X70743Y-86847
X70743Y-89947
X72293Y-88397
X72600Y-91900
X75433Y-91900
X80600Y-87319
X80600Y-88071
X86100Y-88600
X88693Y-92797
X97613Y-88184
X100143Y-89397
X102878Y-93297
X103200Y-90500
X104050Y-90500
X104400Y-92300
X104900Y-90500
X110093Y-87095
X110991Y-90362
X110993Y-87095
X113443Y-90597
X114343Y-90585
X114380Y-91547
X115343Y-94997
X115493Y-86447
X116493Y-86447
X116650Y-93800
X116718Y-90597
X117241Y-91865
X117443Y-92997
X117518Y-90422
X117918Y-89072
X118243Y-92997
X119043Y-86769
X119045Y-93196
X119168Y-89947
X119843Y-89076
X120168Y-90497
X120627Y-93048
X120643Y-88847
X121400Y-93000
X121443Y-88597
X122243Y-92997
X122245Y-88597
X122995Y-93007
X123093Y-88197
X123100Y-89000
X124500Y-86840
X125743Y-94159
X126043Y-86544
X127218Y-87626
X127236Y-92464
X128206Y-93433
X129069Y-90021
X129268Y-92472
X131800Y-89926
X132200Y-91300
X132600Y-89926
X133150Y-91300
X142400Y-93850
X143250Y-93650
X143493Y-87547
X144150Y-93650
X144487Y-86753
X144500Y-87505
X147350Y-88150
X149124Y-90926
X150193Y-88397
X150770Y-91460
X151740Y-91470
X151743Y-86847
X151743Y-89947
X152710Y-91470
X153293Y-88397
X156893Y-90097
X163468Y-88247
X163793Y-86722
X167943Y-92347
X170450Y-93350
X171500Y-93350
X172493Y-93347
X185250Y-93950
X185343Y-85997
X186400Y-93650
X191043Y-88997
X195341Y-93362
X196800Y-94600
X197600Y-94600
X198400Y-94600
X199226Y-94274
X200749Y-94286
X201900Y-90550
X205093Y-88322
X205093Y-89097
X205093Y-89872
X205093Y-90647
X205093Y-91422
X205093Y-92197
X207343Y-86147
X208093Y-86147
X209593Y-88322
X209593Y-89097
X209593Y-89872
X209593Y-90647
X209593Y-91422
X209593Y-92197
X211993Y-86497
X212950Y-93650
X220043Y-87147
X224843Y-90047
X226043Y-86547
X226643Y-93981
X227443Y-88870
X228030Y-93178
X228664Y-91376
X231193Y-88397
X232393Y-92297
X232443Y-93371
X232743Y-86847
X232743Y-89947
X232983Y-92838
X233643Y-91997
X234293Y-88397
X235250Y-91750
X235393Y-86697
X235743Y-94897
X236100Y-91746
X236743Y-86697
X236797Y-88601
X236993Y-95047
X237080Y-92781
X237158Y-91697
X237443Y-87797
X237643Y-83347
X239025Y-94469
T2
X239543Y-83952
X239543Y-85222
X239543Y-86492
X239543Y-87762
X239543Y-89032
X239543Y-90302
X239543Y-91572
X239543Y-92842
X240813Y-83952
X240813Y-85222
X240813Y-86492
X240813Y-87762
X240813Y-89032
X240813Y-90302
X240813Y-91572
X240813Y-92842
T3
X56191Y-91543
X56191Y-93543
X58191Y-91543
X58191Y-93543
X60191Y-91543
X60191Y-93543
X62191Y-91543
X62191Y-93543
X64191Y-91543
X64191Y-93543
T4
X133633Y-93137
X134903Y-90597
X136173Y-93137
X137443Y-90597
X78603Y-88887
X92633Y-93137
X93903Y-90597
X95173Y-93137
X215633Y-93137
X216903Y-90597
X218173Y-93137
X219443Y-90597
X96443Y-90597
X78603Y-91427
X81143Y-90157
X81143Y-92697
X174633Y-93137
X175903Y-90597
X177173Y-93137
X178443Y-90597
T5
X195043Y-87957
X195043Y-90497
X197583Y-87957
X197583Y-90497
X200123Y-87957
X200123Y-90497
T6
X70743Y-88397
X151743Y-88397
X232743Y-88397
T7
X138843Y-92397
X220843Y-92397
X79343Y-94097
X97843Y-92397
X179843Y-92397
T0
M30
