G04 #@! TF.GenerationSoftware,KiCad,Pcbnew,(2018-01-21 revision 6b9866de8)-makepkg*
G04 #@! TF.CreationDate,2018-02-06T18:12:56+01:00*
G04 #@! TF.ProjectId,Arm_interface_panel,41726D5F696E746572666163655F7061,rev?*
G04 #@! TF.SameCoordinates,Original*
G04 #@! TF.FileFunction,Other,Comment*
%FSLAX46Y46*%
G04 Gerber Fmt 4.6, Leading zero omitted, Abs format (unit mm)*
G04 Created by KiCad (PCBNEW (2018-01-21 revision 6b9866de8)-makepkg) date 02/06/18 18:12:56*
%MOMM*%
%LPD*%
G01*
G04 APERTURE LIST*
%ADD10C,0.300000*%
%ADD11C,0.150000*%
G04 APERTURE END LIST*
D10*
X247753571Y-103160714D02*
X247753571Y-102232142D01*
X248325000Y-102732142D01*
X248325000Y-102517857D01*
X248396428Y-102375000D01*
X248467857Y-102303571D01*
X248610714Y-102232142D01*
X248967857Y-102232142D01*
X249110714Y-102303571D01*
X249182142Y-102375000D01*
X249253571Y-102517857D01*
X249253571Y-102946428D01*
X249182142Y-103089285D01*
X249110714Y-103160714D01*
X249253571Y-100803571D02*
X249253571Y-101660714D01*
X249253571Y-101232142D02*
X247753571Y-101232142D01*
X247967857Y-101375000D01*
X248110714Y-101517857D01*
X248182142Y-101660714D01*
X249110714Y-100160714D02*
X249182142Y-100089285D01*
X249253571Y-100160714D01*
X249182142Y-100232142D01*
X249110714Y-100160714D01*
X249253571Y-100160714D01*
X247753571Y-99589285D02*
X247753571Y-98589285D01*
X249253571Y-99232142D01*
X247753571Y-97303571D02*
X247753571Y-98017857D01*
X248467857Y-98089285D01*
X248396428Y-98017857D01*
X248325000Y-97875000D01*
X248325000Y-97517857D01*
X248396428Y-97375000D01*
X248467857Y-97303571D01*
X248610714Y-97232142D01*
X248967857Y-97232142D01*
X249110714Y-97303571D01*
X249182142Y-97375000D01*
X249253571Y-97517857D01*
X249253571Y-97875000D01*
X249182142Y-98017857D01*
X249110714Y-98089285D01*
X247753571Y-96303571D02*
X247753571Y-96160714D01*
X247825000Y-96017857D01*
X247896428Y-95946428D01*
X248039285Y-95875000D01*
X248325000Y-95803571D01*
X248682142Y-95803571D01*
X248967857Y-95875000D01*
X249110714Y-95946428D01*
X249182142Y-96017857D01*
X249253571Y-96160714D01*
X249253571Y-96303571D01*
X249182142Y-96446428D01*
X249110714Y-96517857D01*
X248967857Y-96589285D01*
X248682142Y-96660714D01*
X248325000Y-96660714D01*
X248039285Y-96589285D01*
X247896428Y-96517857D01*
X247825000Y-96446428D01*
X247753571Y-96303571D01*
X249253571Y-94017857D02*
X248253571Y-94017857D01*
X248396428Y-94017857D02*
X248325000Y-93946428D01*
X248253571Y-93803571D01*
X248253571Y-93589285D01*
X248325000Y-93446428D01*
X248467857Y-93375000D01*
X249253571Y-93375000D01*
X248467857Y-93375000D02*
X248325000Y-93303571D01*
X248253571Y-93160714D01*
X248253571Y-92946428D01*
X248325000Y-92803571D01*
X248467857Y-92732142D01*
X249253571Y-92732142D01*
X249253571Y-92017857D02*
X248253571Y-92017857D01*
X248396428Y-92017857D02*
X248325000Y-91946428D01*
X248253571Y-91803571D01*
X248253571Y-91589285D01*
X248325000Y-91446428D01*
X248467857Y-91375000D01*
X249253571Y-91375000D01*
X248467857Y-91375000D02*
X248325000Y-91303571D01*
X248253571Y-91160714D01*
X248253571Y-90946428D01*
X248325000Y-90803571D01*
X248467857Y-90732142D01*
X249253571Y-90732142D01*
X247225000Y-112750000D02*
X247225000Y-81000000D01*
X242600000Y-112750000D02*
X249925000Y-112750000D01*
X242600000Y-81000000D02*
X249925000Y-81000000D01*
X247225000Y-81000000D02*
X247811421Y-82126504D01*
X247225000Y-81000000D02*
X246638579Y-82126504D01*
X247225000Y-112750000D02*
X247811421Y-111623496D01*
X247225000Y-112750000D02*
X246638579Y-111623496D01*
X141728571Y-71278571D02*
X140871428Y-71278571D01*
X141300000Y-71278571D02*
X141300000Y-69778571D01*
X141157142Y-69992857D01*
X141014285Y-70135714D01*
X140871428Y-70207142D01*
X142585714Y-70421428D02*
X142442857Y-70350000D01*
X142371428Y-70278571D01*
X142300000Y-70135714D01*
X142300000Y-70064285D01*
X142371428Y-69921428D01*
X142442857Y-69850000D01*
X142585714Y-69778571D01*
X142871428Y-69778571D01*
X143014285Y-69850000D01*
X143085714Y-69921428D01*
X143157142Y-70064285D01*
X143157142Y-70135714D01*
X143085714Y-70278571D01*
X143014285Y-70350000D01*
X142871428Y-70421428D01*
X142585714Y-70421428D01*
X142442857Y-70492857D01*
X142371428Y-70564285D01*
X142300000Y-70707142D01*
X142300000Y-70992857D01*
X142371428Y-71135714D01*
X142442857Y-71207142D01*
X142585714Y-71278571D01*
X142871428Y-71278571D01*
X143014285Y-71207142D01*
X143085714Y-71135714D01*
X143157142Y-70992857D01*
X143157142Y-70707142D01*
X143085714Y-70564285D01*
X143014285Y-70492857D01*
X142871428Y-70421428D01*
X143871428Y-71278571D02*
X144157142Y-71278571D01*
X144300000Y-71207142D01*
X144371428Y-71135714D01*
X144514285Y-70921428D01*
X144585714Y-70635714D01*
X144585714Y-70064285D01*
X144514285Y-69921428D01*
X144442857Y-69850000D01*
X144300000Y-69778571D01*
X144014285Y-69778571D01*
X143871428Y-69850000D01*
X143800000Y-69921428D01*
X143728571Y-70064285D01*
X143728571Y-70421428D01*
X143800000Y-70564285D01*
X143871428Y-70635714D01*
X144014285Y-70707142D01*
X144300000Y-70707142D01*
X144442857Y-70635714D01*
X144514285Y-70564285D01*
X144585714Y-70421428D01*
X145228571Y-71135714D02*
X145300000Y-71207142D01*
X145228571Y-71278571D01*
X145157142Y-71207142D01*
X145228571Y-71135714D01*
X145228571Y-71278571D01*
X146585714Y-69778571D02*
X146300000Y-69778571D01*
X146157142Y-69850000D01*
X146085714Y-69921428D01*
X145942857Y-70135714D01*
X145871428Y-70421428D01*
X145871428Y-70992857D01*
X145942857Y-71135714D01*
X146014285Y-71207142D01*
X146157142Y-71278571D01*
X146442857Y-71278571D01*
X146585714Y-71207142D01*
X146657142Y-71135714D01*
X146728571Y-70992857D01*
X146728571Y-70635714D01*
X146657142Y-70492857D01*
X146585714Y-70421428D01*
X146442857Y-70350000D01*
X146157142Y-70350000D01*
X146014285Y-70421428D01*
X145942857Y-70492857D01*
X145871428Y-70635714D01*
X147657142Y-69778571D02*
X147800000Y-69778571D01*
X147942857Y-69850000D01*
X148014285Y-69921428D01*
X148085714Y-70064285D01*
X148157142Y-70350000D01*
X148157142Y-70707142D01*
X148085714Y-70992857D01*
X148014285Y-71135714D01*
X147942857Y-71207142D01*
X147800000Y-71278571D01*
X147657142Y-71278571D01*
X147514285Y-71207142D01*
X147442857Y-71135714D01*
X147371428Y-70992857D01*
X147300000Y-70707142D01*
X147300000Y-70350000D01*
X147371428Y-70064285D01*
X147442857Y-69921428D01*
X147514285Y-69850000D01*
X147657142Y-69778571D01*
X149085714Y-69778571D02*
X149228571Y-69778571D01*
X149371428Y-69850000D01*
X149442857Y-69921428D01*
X149514285Y-70064285D01*
X149585714Y-70350000D01*
X149585714Y-70707142D01*
X149514285Y-70992857D01*
X149442857Y-71135714D01*
X149371428Y-71207142D01*
X149228571Y-71278571D01*
X149085714Y-71278571D01*
X148942857Y-71207142D01*
X148871428Y-71135714D01*
X148800000Y-70992857D01*
X148728571Y-70707142D01*
X148728571Y-70350000D01*
X148800000Y-70064285D01*
X148871428Y-69921428D01*
X148942857Y-69850000D01*
X149085714Y-69778571D01*
X151371428Y-71278571D02*
X151371428Y-70278571D01*
X151371428Y-70421428D02*
X151442857Y-70350000D01*
X151585714Y-70278571D01*
X151800000Y-70278571D01*
X151942857Y-70350000D01*
X152014285Y-70492857D01*
X152014285Y-71278571D01*
X152014285Y-70492857D02*
X152085714Y-70350000D01*
X152228571Y-70278571D01*
X152442857Y-70278571D01*
X152585714Y-70350000D01*
X152657142Y-70492857D01*
X152657142Y-71278571D01*
X153371428Y-71278571D02*
X153371428Y-70278571D01*
X153371428Y-70421428D02*
X153442857Y-70350000D01*
X153585714Y-70278571D01*
X153800000Y-70278571D01*
X153942857Y-70350000D01*
X154014285Y-70492857D01*
X154014285Y-71278571D01*
X154014285Y-70492857D02*
X154085714Y-70350000D01*
X154228571Y-70278571D01*
X154442857Y-70278571D01*
X154585714Y-70350000D01*
X154657142Y-70492857D01*
X154657142Y-71278571D01*
X53000000Y-71950000D02*
X242600000Y-71950000D01*
X53000000Y-81000000D02*
X53000000Y-69250000D01*
X242600000Y-81000000D02*
X242600000Y-69250000D01*
X242600000Y-71950000D02*
X241473496Y-72536421D01*
X242600000Y-71950000D02*
X241473496Y-71363579D01*
X53000000Y-71950000D02*
X54126504Y-72536421D01*
X53000000Y-71950000D02*
X54126504Y-71363579D01*
D11*
X234500000Y-105450000D02*
G75*
G03X234500000Y-105450000I-1900000J0D01*
G01*
X72500000Y-105450000D02*
G75*
G03X72500000Y-105450000I-1900000J0D01*
G01*
X153500000Y-105450000D02*
G75*
G03X153500000Y-105450000I-1900000J0D01*
G01*
X234500000Y-88300000D02*
G75*
G03X234500000Y-88300000I-1900000J0D01*
G01*
X153500000Y-88300000D02*
G75*
G03X153500000Y-88300000I-1900000J0D01*
G01*
X72500000Y-88300000D02*
G75*
G03X72500000Y-88300000I-1900000J0D01*
G01*
M02*
